<svg xmlns="http://www.w3.org/2000/svg" viewBox="0 0 235 190" enable-background="new 0 0 235 190"><g fill="#B8F9FB"><path d="M45.95 115v22.15c0 6.15-.4 11.7-8.95 11.7-1.6 0-2.75-.2-4.5-.5v-6.15c.7.15 1.85.35 2.95.35 2.9 0 3.2-1.5 3.2-5.4V115h7.3zM56.5 123.7v15.85c0 2.45 0 4 2.35 4 3.05 0 3.05-1.948 3.05-7.25v-12.6h6.852v24.65H62.3v-3.4c-1.25 2.102-2.35 3.9-6.35 3.9-6.3 0-6.3-4.6-6.3-9.1V123.7h6.85zM84.2 131.05c-.4-1.25-1.1-3.35-3.6-3.35-1.602 0-2.15 1.15-2.15 2.15 0 1.95 1.35 2.4 4.1 3.4 3.45 1.2 7.3 2.55 7.3 7.55 0 3.65-2.55 8.05-9.35 8.05-8.1 0-8.95-5.5-9.25-7.35l5.45-.9c.2.95.8 3.7 3.9 3.7.7 0 2.75-.15 2.75-2.3 0-1.95-1.5-2.45-3.95-3.25-2.602-.8-7.4-2.45-7.4-7.75s4.35-7.85 8.75-7.85c4.15 0 7.45 2.398 8.35 6.45l-4.9 1.45zM100.5 115.9v7.8h4.55v5.4h-4.55v9.05c0 4.65 0 5.25 4.9 4.95v5.25c-1 .2-2.4.5-4.25.5-2.25 0-4.75-.55-6.15-2.55-1.2-1.75-1.2-4.25-1.2-7.4v-9.8h-2.7v-5.4h3.05l.55-7.25 5.8-.55zM118.948 130.85c.2-1.4.6-4.35 4.1-6.35 1.75-1 3.8-1.35 5.85-1.35 2.602 0 5.302.65 7.15 2.6 1.5 1.5 1.602 4.3 1.602 7.3v9.802c0 4.2.15 4.65.4 5.5h-6.352c-.3-1-.35-1.55-.35-3.8-.9 1.6-2.5 4.3-6.8 4.3-3.3 0-6.45-1.9-6.45-6.75 0-6.85 5.35-8.65 12.7-9.05v-.95c0-2.15 0-4.4-2.45-4.4-2.3 0-2.75 1.85-2.95 3.8l-6.45-.65zm11.85 5.7c-3.95.5-5.6 1.45-5.6 4.65 0 1.75.65 3.102 2.3 3.102.85 0 1.6-.4 2.25-1.35.95-1.4 1.05-2.95 1.05-5.2v-1.2zM160.5 115v33.352h-6.352v-4.05c-.7 1.8-1.75 4.4-5.65 4.4-6.6 0-7.85-7.65-7.85-12.552 0-1.95 0-12.8 8.15-12.8 3.3 0 4.3 1.6 4.95 2.6V115h6.75zm-6.752 19.05c0-2.2 0-6.15-3-6.15-2.65 0-3 3.2-3 7.15 0 4.8 0 8.9 2.95 8.9 3.05 0 3.05-3.75 3.05-5.55v-4.35zM183.35 115v33.352h-6.352v-4.05c-.7 1.8-1.75 4.4-5.65 4.4-6.6 0-7.85-7.65-7.85-12.552 0-1.95 0-12.8 8.15-12.8 3.3 0 4.3 1.6 4.95 2.6V115h6.75zm-6.752 19.05c0-2.2 0-6.15-3-6.15-2.65 0-3 3.2-3 7.15 0 4.8 0 8.9 2.95 8.9 3.05 0 3.05-3.75 3.05-5.55v-4.35zM111 161.7l2.9 15 2.75-15h6.7l2.2 15 3.35-15h5.4l-6.2 24.65h-5.75l-3.15-16.75-3.1 16.75h-5.6l-6.2-24.65h6.7zM135.25 168.85c.2-1.4.6-4.35 4.1-6.35 1.75-1 3.8-1.35 5.85-1.35 2.602 0 5.302.65 7.15 2.6 1.5 1.5 1.602 4.3 1.602 7.3v9.802c0 4.2.15 4.65.4 5.5H148c-.3-1-.35-1.55-.35-3.8-.9 1.6-2.5 4.3-6.8 4.3-3.3 0-6.45-1.9-6.45-6.75 0-6.85 5.35-8.65 12.7-9.05v-.95c0-2.15 0-4.4-2.45-4.4-2.3 0-2.75 1.85-2.95 3.8l-6.45-.65zm11.85 5.7c-3.95.5-5.6 1.45-5.6 4.65 0 1.75.65 3.102 2.3 3.102.85 0 1.6-.4 2.25-1.35.95-1.4 1.05-2.95 1.05-5.2v-1.2zM165.75 153.9v7.8h4.55v5.4h-4.55v9.05c0 4.65 0 5.25 4.9 4.95v5.25c-1 .2-2.4.5-4.25.5-2.25 0-4.75-.55-6.15-2.55-1.2-1.75-1.2-4.25-1.2-7.4v-9.8h-2.7v-5.4h3.05l.55-7.25 5.8-.55zM178.45 175.15c-.05 3.35-.1 6.95 3.3 6.95 2.95 0 3.3-2.65 3.5-4.25l6.15.4c-.5 2.3-1.85 8.6-9.8 8.6-7.552 0-10.252-5.95-10.252-12.5 0-1.6.2-5.5 1.85-8.5 1.75-3.15 5-4.7 8.352-4.7 4.3 0 6.95 2.4 8.05 4.5 1.75 3.35 1.8 6.5 1.8 9.5h-12.95zm6.45-3.95c.05-1.35.15-5.5-3.2-5.5-3.1 0-3.15 3.75-3.2 5.5h6.4zM200.45 161.7v5.95c.6-2.1 1.8-6.3 5.8-6.3.5 0 .85.05 1.2.15v6.7c-.6-.1-.9-.1-1.15-.1-5.05 0-5.05 5.7-5.05 7.6v10.65h-6.852V161.7h6.05zM219.1 153l-2.15 23.4h-4.45l-2.2-23.4h8.8zm-1 25.95v7.4h-6.8v-7.4h6.8z"/></g></svg>