<svg xmlns="http://www.w3.org/2000/svg" viewBox="0 0 235 190" enable-background="new 0 0 235 190"><g fill="#fff"><path d="M120.96 0l2.8 18.477L127.277 0h5.36l3.278 18.517L139.196 0h4.92l-5.72 26.835h-5.24l-3.56-18.557-3.64 18.557h-5.198L115 0h5.96zM143.088 12.678c.16-1.12.48-3.48 3.28-5.08 1.398-.8 3.038-1.08 4.678-1.08 2.08 0 4.24.52 5.72 2.08 1.2 1.2 1.28 3.44 1.28 5.84v7.838c0 3.36.12 3.72.32 4.4h-5.08c-.24-.8-.28-1.24-.28-3.04-.72 1.28-2 3.438-5.44 3.438-2.64 0-5.158-1.52-5.158-5.4 0-5.478 4.28-6.918 10.158-7.238v-.76c0-1.72 0-3.52-1.96-3.52-1.84 0-2.2 1.48-2.358 3.04l-5.16-.518zm9.477 4.56c-3.16.4-4.48 1.16-4.48 3.718 0 1.4.52 2.48 1.84 2.48.68 0 1.28-.32 1.8-1.08.76-1.12.84-2.36.84-4.16v-.96zM166.527 6.958v2.68c.8-1.64 1.84-3.12 4.92-3.12.76 0 2.998 0 4.358 2.08.8 1.24.8 3.16.8 5.12v12.957h-5.48V13.717c0-1.76-.16-2.92-1.88-2.92-2.438 0-2.438 1.92-2.438 4.32v11.558h-5.48V6.958h5.2zM185.767.72v6.24h3.64v4.318h-3.64v7.24c0 3.718 0 4.198 3.92 3.958v4.2c-.8.16-1.92.4-3.4.4-1.8 0-3.8-.44-4.918-2.04-.96-1.4-.96-3.4-.96-5.92v-7.84h-2.16V6.96h2.438l.44-5.8 4.64-.438zM200.526 12.678c.16-1.12.48-3.48 3.28-5.08 1.398-.8 3.038-1.08 4.678-1.08 2.08 0 4.24.52 5.72 2.08 1.2 1.2 1.28 3.44 1.28 5.84v7.838c0 3.36.12 3.72.32 4.4h-5.08c-.24-.8-.28-1.24-.28-3.04-.72 1.28-2 3.438-5.44 3.438-2.64 0-5.158-1.52-5.158-5.4 0-5.478 4.28-6.918 10.158-7.238v-.76c0-1.72 0-3.52-1.96-3.52-1.84 0-2.2 1.48-2.358 3.04l-5.16-.518zm9.478 4.56c-3.16.4-4.48 1.16-4.48 3.718 0 1.4.52 2.48 1.84 2.48.68 0 1.28-.32 1.8-1.08.76-1.12.84-2.36.84-4.16v-.96zM223.966 6.958v2.68c.8-1.64 1.84-3.12 4.92-3.12.76 0 2.998 0 4.358 2.08.8 1.24.8 3.16.8 5.12v12.957h-5.48V13.717c0-1.76-.16-2.92-1.88-2.92-2.438 0-2.438 1.92-2.438 4.32v11.558h-5.48V6.958h5.2z"/></g></svg>