<svg xmlns="http://www.w3.org/2000/svg" viewBox="0 0 235 190" enable-background="new 0 0 235 190"><g fill="#fff"><path d="M8.22 68.1v13.56c.84-1.32 2.46-3.78 7.26-3.78 7.44 0 7.44 6.12 7.44 11.22v19.02H14.7V89.1c0-2.82 0-4.8-2.76-4.8-3.6 0-3.72 2.64-3.72 5.04v18.78H0V68.1h8.22zM49.558 93.3c0 9.478-3.42 15.418-12.06 15.418-8.52 0-12-5.88-12-15.42 0-9.238 3.24-15.418 12.06-15.418 8.76 0 12 6.18 12 15.42zm-12.06-9.66c-2.64 0-3.478 2.4-3.478 9.66 0 7.858 1.08 9.658 3.54 9.658 2.4 0 3.48-1.74 3.48-9.66 0-7.62-.96-9.658-3.48-9.658h-.06zM61.86 69.18v9.36h5.46v6.48h-5.46v10.858c0 5.58 0 6.3 5.88 5.94v6.3c-1.2.24-2.88.6-5.102.6-2.7 0-5.7-.66-7.38-3.06-1.44-2.1-1.44-5.1-1.44-8.88V85.02h-3.24v-6.48h3.66l.66-8.7 6.96-.66zM80.878 69.18v9.36h5.46v6.48h-5.46v10.858c0 5.58 0 6.3 5.88 5.94v6.3c-1.2.24-2.88.6-5.1.6-2.7 0-5.7-.66-7.38-3.06-1.44-2.1-1.44-5.1-1.44-8.88V85.02h-3.24v-6.48h3.66l.66-8.7 6.96-.66zM90 76.02v-8.16h8.34v8.16H90zm8.278 2.52v29.578h-8.22v-29.58h8.22zM109.797 94.68c-.06 4.02-.12 8.34 3.96 8.34 3.54 0 3.96-3.18 4.2-5.1l7.38.478c-.6 2.76-2.22 10.32-11.76 10.32-9.06 0-12.3-7.14-12.3-15 0-1.92.24-6.6 2.22-10.2 2.1-3.78 6-5.64 10.02-5.64 5.16 0 8.34 2.88 9.66 5.4 2.1 4.02 2.16 7.8 2.16 11.4h-15.54zm7.74-4.742c.06-1.62.18-6.6-3.84-6.6-3.72 0-3.78 4.5-3.84 6.6h7.68zM124.618 80.82c.36-9.24 5.4-13.32 12.3-13.32 10.62 0 11.76 8.4 11.76 11.22 0 5.82-3.24 8.7-5.94 11.04-3.12 2.82-3.18 3.42-3.18 6.898h-7.02c.06-5.52.06-6.72 1.56-8.76.48-.66 3.18-3.3 3.66-3.84 1.68-1.98 2.04-4.14 2.04-5.52 0-3.42-2.52-3.9-3.42-3.9-4.08 0-4.2 4.92-4.26 7.2l-7.5-1.02zm15.36 18.78v8.52h-7.86V99.6h7.86z"/></g></svg>