<svg xmlns="http://www.w3.org/2000/svg" viewBox="0 0 235 190" enable-background="new 0 0 235 190"><g fill="#fff"><path d="M80 37.94V32.5h5.56v5.44H80zm5.52 1.68v19.716h-5.48V39.62h5.48zM93.96 39.62v2.68c.8-1.64 1.838-3.12 4.918-3.12.76 0 3 0 4.36 2.08.8 1.24.8 3.16.8 5.118v12.958h-5.48v-12.96c0-1.76-.16-2.918-1.88-2.918-2.44 0-2.44 1.92-2.44 4.32v11.558H88.76V39.62h5.2zM116.117 45.498c-.32-1-.88-2.68-2.88-2.68-1.28 0-1.72.92-1.72 1.72 0 1.56 1.08 1.92 3.28 2.72 2.76.96 5.84 2.04 5.84 6.04 0 2.92-2.04 6.438-7.48 6.438-6.48 0-7.158-4.4-7.398-5.88l4.358-.72c.16.76.64 2.96 3.12 2.96.56 0 2.2-.12 2.2-1.84 0-1.56-1.2-1.96-3.16-2.6-2.08-.64-5.92-1.96-5.92-6.2s3.48-6.278 7-6.278c3.318 0 5.958 1.92 6.678 5.16l-3.92 1.16zM128.758 33.38v6.24h3.64v4.318h-3.64v7.24c0 3.718 0 4.198 3.92 3.958v4.2c-.8.16-1.92.4-3.4.4-1.8 0-3.8-.44-4.918-2.04-.96-1.4-.96-3.4-.96-5.92v-7.84h-2.16V39.62h2.44l.44-5.8 4.638-.438zM134.12 45.338c.158-1.12.478-3.48 3.278-5.08 1.4-.8 3.04-1.08 4.68-1.08 2.08 0 4.238.52 5.72 2.08 1.198 1.2 1.278 3.44 1.278 5.84v7.84c0 3.358.12 3.72.32 4.398h-5.08c-.24-.8-.28-1.24-.28-3.04-.72 1.28-2 3.44-5.438 3.44-2.64 0-5.16-1.52-5.16-5.4 0-5.478 4.28-6.918 10.16-7.238v-.76c0-1.72 0-3.52-1.96-3.52-1.84 0-2.2 1.48-2.36 3.04l-5.16-.52zm9.477 4.56c-3.16.4-4.48 1.16-4.48 3.72 0 1.398.52 2.478 1.84 2.478.68 0 1.28-.32 1.8-1.08.76-1.12.84-2.36.84-4.16v-.96zM157.56 39.62v2.68c.8-1.64 1.838-3.12 4.918-3.12.76 0 3 0 4.36 2.08.8 1.24.8 3.16.8 5.118v12.958h-5.48v-12.96c0-1.76-.16-2.918-1.88-2.918-2.44 0-2.44 1.92-2.44 4.32v11.558h-5.478V39.62h5.2zM176.798 33.38v6.24h3.64v4.318h-3.64v7.24c0 3.718 0 4.198 3.92 3.958v4.2c-.8.16-1.92.4-3.4.4-1.8 0-3.8-.44-4.918-2.04-.96-1.4-.96-3.4-.96-5.92v-7.84h-2.16V39.62h2.44l.44-5.8 4.638-.438z"/></g></svg>