<svg xmlns="http://www.w3.org/2000/svg" viewBox="0 0 100 15" enable-background="new 0 0 100 15"><g><g fill="#C41D74"><path d="M4.577 5.588c0-2.28-.29-3.13-.908-3.13-.522 0-1.044.35-1.044 5.022 0 4.52.27 5.02 1.043 5.02.83 0 1.022-1.274 1.06-3.263l2.125.096c0 2.395-.347 5.29-3.283 5.29C.888 14.626 0 12 0 7.48 0 2.227 1.584.335 3.573.335 6.47.335 6.817 3 6.817 5.51l-2.24.078z"/><path d="M10.37.335c2.22 0 3.67 1.72 3.67 7.145s-1.45 7.145-3.67 7.145c-2.22 0-3.67-1.72-3.67-7.145S8.15.335 10.37.335zM9.443 8.93c0 2.973.347 3.572.927 3.572.58 0 .927-.6.927-3.573V6.03c0-2.974-.348-3.572-.927-3.572-.58 0-.927.6-.927 3.572V8.93z"/><path d="M16.125 10.377c0 .773 0 2.125 1.082 2.125.83 0 1.12-.773 1.12-1.333 0-2.453-4.557-3.013-4.557-7.088 0-2.066 1.12-3.746 3.245-3.746 2.26 0 3.128 1.72 3.186 4.19h-2.24c0-.772 0-2.066-1.004-2.066-.598 0-.946.503-.946 1.255 0 2.337 4.557 3.128 4.557 7.125 0 2.105-1.198 3.785-3.457 3.785-2.685 0-3.225-2.356-3.225-4.248h2.24z"/><path d="M20.14.605h3.342l1.12 7.048h.04L25.818.605h3.263v13.75h-2.24V4.274h-.04l-1.698 10.08h-1.39l-1.68-10.08h-.04v10.08H20.14V.604z"/><path d="M32.75.335c2.222 0 3.67 1.72 3.67 7.145s-1.447 7.145-3.67 7.145c-2.22 0-3.668-1.72-3.668-7.145S30.53.335 32.752.335zm-.925 8.594c0 2.973.347 3.572.926 3.572.58 0 .928-.6.928-3.573V6.03c0-2.974-.348-3.572-.927-3.572-.578 0-.925.6-.925 3.572V8.93z"/></g><g><path d="M36.31.28h3.283c2.52 0 3.78 1.1 3.78 3.32 0 1.602-.76 2.722-2.24 3.202 1.7.46 2.42 1.52 2.42 3.42 0 2.803-1.3 4.183-3.92 4.183H36.31V.28zm2.843 5.402c.96 0 1.38-.46 1.38-1.56 0-1.142-.38-1.622-1.3-1.622-.1 0-.2 0-.32.02v3.16c.08.002.16.002.24.002zm.02 6.423c1.08 0 1.52-.62 1.52-2.02 0-1.462-.42-2.082-1.44-2.082-.1 0-.22 0-.34.02v4.062c.1 0 .18.02.26.02z" fill="#0091C2"/><path d="M45.195.28h3.62l1.822 14.126h-2.44l-.4-3.02h-2.022l-.36 3.02h-2.22l2-14.126zm2.32 8.784l-.74-6.263-.74 6.264h1.48z" fill="#0091C2"/><path d="M53.998 14.666c-2.62 0-3.722-2.26-3.722-7.003C50.276 2.56 51.556 0 54.178 0c2.24 0 3.46 1.7 3.46 4.962v.32h-2.68v-.66c0-1.68-.16-2.5-.82-2.5-.94 0-1.06 1.8-1.06 5.72 0 3.003.14 4.403 1.08 4.403.72 0 1.02-1 1.02-3.06v-.2h2.42c-.06 3.8-1.24 5.68-3.6 5.68z" fill="#0091C2"/><path d="M57.998.28h2.72v5.682h1.602V.28h2.72v14.126h-2.72V8.283h-1.6v6.123h-2.722V.28z" fill="#0091C2"/><path d="M65.72.28h6.062v2.34h-3.34v3.282h2.52v2.32h-2.52v3.862h3.46v2.32H65.72V.28z" fill="#0091C2"/><path d="M72.043.28h2.72v11.805h3.403v2.32h-6.122V.28z" fill="#0091C2"/><path d="M81.194.02c2.78 0 3.862 2.38 3.862 7.323 0 4.942-1.06 7.323-3.842 7.323-2.88 0-3.96-2.34-3.96-7.323 0-4.982 1.06-7.323 3.94-7.323zm1 7.823c0-3.8-.08-5.542-1.02-5.542-1 0-1.06 1.622-1.06 5.143 0 3.36.1 4.862 1.08 4.862.82 0 1-1.46 1-4.462z" fill="#0091C2"/><path d="M85.455.28h3.3c2.742 0 4.022 1.24 4.022 3.98 0 1.54-.48 2.622-1.54 3.422l1.56 6.723h-2.62l-1.262-6.103h-.74v6.103h-2.72V.28zm2.74 2.18v4.003h.182c1.2 0 1.68-.6 1.68-2.04 0-1.322-.4-1.962-1.32-1.962h-.54z" fill="#0091C2"/><path d="M95.278 10.164c-.02.2-.02.38-.02.56 0 1.14.36 1.722 1.1 1.722.62 0 1.06-.48 1.06-1.3 0-.86-.5-1.4-1.34-2.182-.7-.66-1.54-1.3-2.22-2.24-.58-.82-.9-1.782-.9-2.802 0-2.32 1.52-3.902 3.54-3.902 2 0 3.3 1.42 3.3 3.92 0 .14-.02.28-.02.44h-2.4c.02-.22.04-.44.04-.64 0-.98-.38-1.5-1.04-1.5-.54 0-1 .52-1 1.2 0 .68.38 1.24 1.1 1.9.96.88 1.78 1.52 2.24 2.102.842 1.04 1.282 2.042 1.282 3.262 0 2.4-1.46 3.962-3.76 3.962-2.302 0-3.443-1.5-3.443-4.502h2.48z" fill="#0091C2"/></g></g></svg>