<svg xmlns="http://www.w3.org/2000/svg" viewBox="0 0 100 10" enable-background="new 0 0 100 10"><g fill="#fff"><g><path d="M62.863.03h.844l-3.34 9.242h-.842l3.338-9.24zM63.73.168h1.868c1.436 0 2.153.626 2.153 1.892 0 .912-.43 1.55-1.274 1.823.968.262 1.378.866 1.378 1.948 0 1.596-.74 2.383-2.234 2.383h-1.89V.168zm1.616 3.076c.548 0 .787-.262.787-.89 0-.65-.217-.922-.74-.922-.058 0-.114 0-.183.01v1.802h.136zm.012 3.658c.615 0 .866-.354.866-1.15 0-.833-.24-1.186-.82-1.186-.057 0-.125 0-.193.01V6.89c.057 0 .103.012.148.012zM68.79.168h2.06l1.038 8.045h-1.39l-.23-1.72h-1.15l-.205 1.72h-1.265l1.14-8.045zm1.32 5.002l-.422-3.566-.42 3.566h.842zM73.8 8.36c-1.492 0-2.12-1.286-2.12-3.987 0-2.906.73-4.364 2.222-4.364 1.277 0 1.972.967 1.972 2.825v.182h-1.527V2.64c0-.957-.092-1.423-.468-1.423-.536 0-.604 1.026-.604 3.258 0 1.71.08 2.507.614 2.507.41 0 .58-.57.58-1.743v-.115h1.38C75.82 7.29 75.146 8.36 73.8 8.36zM76.08.168h1.55v3.236h.91V.168h1.55v8.045h-1.55V4.726h-.91v3.487h-1.55V.168zM80.477.168h3.452V1.5h-1.903v1.87h1.436v1.322h-1.436v2.2h1.97v1.32h-3.52V.17zM84.077.168h1.55V6.89h1.938v1.323h-3.488V.168zM89.29.02c1.583 0 2.2 1.356 2.2 4.17 0 2.815-.605 4.17-2.19 4.17-1.64 0-2.255-1.332-2.255-4.17 0-2.837.604-4.17 2.244-4.17zm.57 4.455c0-2.165-.045-3.156-.582-3.156-.57 0-.604.922-.604 2.927 0 1.914.057 2.77.615 2.77.467 0 .57-.833.57-2.542zM91.716.168h1.88c1.563 0 2.29.706 2.29 2.267 0 .877-.272 1.493-.876 1.95l.89 3.828h-1.494l-.717-3.475h-.423v3.475h-1.55V.168zm1.56 1.242v2.28h.104c.683 0 .956-.343.956-1.163 0-.752-.228-1.117-.752-1.117h-.307zM97.31 5.797c-.01.114-.01.217-.01.32 0 .65.205.98.627.98.353 0 .604-.275.604-.742 0-.49-.284-.797-.763-1.242-.398-.376-.877-.74-1.264-1.276-.33-.467-.514-1.014-.514-1.595C95.99.92 96.854.02 98.005.02c1.14 0 1.88.81 1.88 2.233 0 .08-.01.16-.01.25H98.51c.01-.124.022-.25.022-.363 0-.56-.217-.855-.593-.855-.31 0-.57.296-.57.683 0 .388.215.707.626 1.083.547.503 1.014.867 1.275 1.198.48.592.73 1.16.73 1.856 0 1.368-.832 2.256-2.143 2.256-1.31 0-1.96-.855-1.96-2.564h1.414z"/></g><g><path d="M44.963 6.49h1.498v1.5h-1.497v-1.5zM48.433 8.13c-1.443 0-2.05-1.244-2.05-3.856 0-2.81.706-4.22 2.15-4.22 1.234 0 1.905.937 1.905 2.733v.176h-1.476V2.6c0-.927-.088-1.378-.45-1.378-.52 0-.585.992-.585 3.15 0 1.654.076 2.426.594 2.426.398 0 .563-.55.563-1.686v-.11h1.334c-.034 2.094-.683 3.13-1.984 3.13zM52.488.065c1.532 0 2.127 1.31 2.127 4.033 0 2.722-.585 4.033-2.116 4.033-1.588 0-2.183-1.288-2.183-4.032 0-2.743.584-4.033 2.17-4.033zm.55 4.31c0-2.094-.043-3.053-.562-3.053-.55 0-.584.893-.584 2.832 0 1.85.055 2.677.595 2.677.452 0 .55-.803.55-2.456zM54.67.21h1.95l.65 3.78.662-3.78h1.972v7.78h-1.356V2.456l-.98 5.53h-.838l-.936-5.53v5.53H54.67V.21zM2.607 2.99c0-1.297-.165-1.78-.518-1.78-.297 0-.595.198-.595 2.86 0 2.573.154 2.858.594 2.858.472 0 .583-.725.604-1.858l1.21.055c0 1.364-.198 3.013-1.87 3.013C.506 8.138 0 6.643 0 4.068 0 1.08.902 0 2.035 0c1.65 0 1.848 1.518 1.848 2.948l-1.276.043zM5.905 0c1.265 0 2.09.98 2.09 4.07 0 3.09-.824 4.068-2.09 4.068-1.264 0-2.09-.978-2.09-4.07C3.816.98 4.642 0 5.906 0zm-.527 4.894c0 1.694.198 2.035.528 2.035s.53-.342.53-2.036v-1.65c0-1.694-.2-2.035-.53-2.035s-.528.34-.528 2.034v1.65zM9.184 5.72c0 .44 0 1.208.615 1.208.472 0 .637-.44.637-.758 0-1.397-2.595-1.715-2.595-4.036C7.842.957 8.48 0 9.69 0c1.286 0 1.78.98 1.815 2.387h-1.277c0-.44 0-1.177-.57-1.177-.342 0-.54.286-.54.715 0 1.33 2.595 1.78 2.595 4.058 0 1.198-.682 2.155-1.968 2.155-1.528 0-1.837-1.342-1.837-2.42h1.276zM11.47.154h1.903l.637 4.014h.023l.67-4.014h1.86v7.83h-1.276v-5.74h-.023l-.968 5.74h-.79l-.96-5.74h-.02v5.74H11.47V.155zM18.652 0c1.265 0 2.09.98 2.09 4.07 0 3.09-.825 4.068-2.09 4.068-1.264 0-2.09-.978-2.09-4.07C16.563.98 17.39 0 18.653 0zm-.528 4.894c0 1.694.198 2.035.528 2.035s.528-.342.528-2.036v-1.65c0-1.694-.197-2.035-.528-2.035-.33 0-.528.34-.528 2.034v1.65zM20.72.154h1.428c1.617 0 2.464.65 2.464 2.342 0 1.408-.55 2.353-1.892 2.353h-.572v3.134h-1.43V.154zm1.44 3.552h.12c.585 0 .903-.23.903-1.176 0-1.133-.44-1.166-.912-1.166h-.11v2.342zM26.603 0c1.265 0 2.09.98 2.09 4.07 0 3.09-.825 4.068-2.09 4.068s-2.09-.978-2.09-4.07C24.514.98 25.34 0 26.604 0zm-.528 4.894c0 1.694.198 2.035.528 2.035s.528-.342.528-2.036v-1.65c0-1.694-.196-2.035-.527-2.035-.33 0-.528.34-.528 2.034v1.65zM28.725.154h1.43v6.62h1.826v1.21h-3.254V.154zM32.212.154h1.43v7.83h-1.43V.154zM35.115 1.364h-1.232V.154h3.894v1.21h-1.232v6.62h-1.43v-6.62zM37.93.154H40l.967 7.83h-1.375l-.21-1.738H38.23l-.198 1.738h-1.2l1.1-7.83zm.914 1.21h-.022l-.45 3.74h.89l-.418-3.74zM40.89.154h1.396l1.31 4.135h.02V.153h1.145v7.83h-1.11l-1.528-4.74H42.1v4.74h-1.21V.154z"/></g></g></svg>