<?xml version="1.0" standalone="no"?>
<!DOCTYPE svg PUBLIC "-//W3C//DTD SVG 1.1//EN" "http://www.w3.org/Graphics/SVG/1.1/DTD/svg11.dtd" >
<svg xmlns="http://www.w3.org/2000/svg" width="100%" height="100%">
<metadata>
Created by FontXChange 20110222 at Mon Dec  3 17:34:42 2012
 By Shigeru Mcpherson
Copyright (c) 1991, 1998 Adobe Systems Incorporated. All Rights Reserved.Berthold Akzidenz-Grotesk is either a registered trademark or trademark of Berthold Types Limited in the United States and/or other countries.
</metadata>
<defs>
<font id="AkzidenzGroteskBE-Super" horiz-adv-x="646" >
  <font-face 
    font-family="AkzidenzGroteskBE"
    font-weight="400"
    font-stretch="normal"
    units-per-em="1000"
    panose-1="2 0 5 3 5 0 0 2 0 4"
    ascent="800"
    descent="-200"
    x-height="518"
    cap-height="706"
    bbox="-124 -250 1415 931"
    underline-thickness="50"
    underline-position="-50"
    stemh="155"
    stemv="207"
    unicode-range="U+0020-FB02"
  />
<missing-glyph horiz-adv-x="313" 
 />
    <glyph glyph-name="fi" unicode="fi" horiz-adv-x="667" 
d="M76 506v52c2 39 3 77 38 111c15 16 56 49 153 49c45 0 72 -6 108 -13v-141c-11 4 -20 7 -38 7c-56 0 -55 -38 -55 -65h93v-112h-93v-394h-206v394h-77v112h77zM417 569v138h206v-138h-206zM417 0v518h206v-518h-206z" />
    <glyph glyph-name="fl" unicode="fl" horiz-adv-x="667" 
d="M76 506v51c2 39 3 77 38 112c15 15 56 48 153 48c45 0 72 -6 108 -13v-141c-12 4 -20 7 -38 7c-56 0 -55 -37 -55 -64h93v-112h-93v-394h-206v394h-77v112h77zM416 0v706h207v-706h-207z" />
    <glyph glyph-name=".notdef" horiz-adv-x="313" 
 />
    <glyph glyph-name="exclam" unicode="!" horiz-adv-x="292" 
d="M75 517v189h182v-191l-39 -257h-101zM75 188h182v-188h-182v188z" />
    <glyph glyph-name="quotedbl" unicode="&#x22;" horiz-adv-x="396" 
d="M372 670l-53 -262h-31l-55 250c-1 8 -2 16 -2 25c0 39 33 66 75 66c36 0 67 -23 67 -62c0 -6 0 -12 -1 -17zM164 670l-53 -262h-32l-54 250c-1 8 -2 16 -2 24c0 47 41 67 75 67c37 0 67 -24 67 -62c0 -6 -1 -12 -1 -17z" />
    <glyph glyph-name="numbersign" unicode="#" horiz-adv-x="667" 
d="M485 186l-26 -186h-126l27 186h-99l-26 -186h-124l25 186h-94v123h112l13 96h-100v124h117l25 176h124l-25 -176h100l24 176h125l-24 -176h91v-124h-109l-12 -96h98v-123h-116zM278 309h99l14 96h-100z" />
    <glyph glyph-name="dollar" unicode="$" horiz-adv-x="667" 
d="M293 698v65h95v-68c105 -14 144 -30 218 -77l-103 -122c-47 34 -65 43 -115 48v-112c42 -5 85 -11 142 -40c30 -16 117 -61 117 -176c0 -53 -21 -110 -59 -149c-59 -62 -140 -72 -200 -80v-100h-95v100c-146 17 -183 32 -269 85l106 126c58 -38 89 -53 163 -62v132
c-107 25 -165 39 -208 82c-35 35 -50 82 -50 127c0 59 24 109 57 143c65 69 149 74 201 78zM293 449v98c-9 -1 -17 -2 -26 -5c-30 -9 -42 -31 -42 -47c0 -34 37 -40 68 -46zM388 253v-115c8 2 16 4 24 7c31 12 44 36 44 56c0 36 -32 44 -68 52z" />
    <glyph glyph-name="percent" unicode="%" horiz-adv-x="1000" 
d="M783 450c26 0 53 -2 77 -11c60 -23 117 -92 117 -212c0 -123 -60 -237 -201 -237c-130 0 -195 96 -195 227c0 66 18 132 63 179c47 49 97 54 139 54zM782 355c-62 1 -62 -90 -62 -135c0 -64 1 -131 58 -131c47 0 60 47 60 136c0 79 -10 129 -56 130zM305 0l302 706h92
l-302 -706h-92zM222 694c26 0 53 -2 77 -11c60 -23 117 -92 117 -213c0 -123 -61 -236 -201 -236c-129 0 -195 95 -195 226c0 66 18 133 63 180c47 49 97 54 139 54zM221 599c-62 1 -62 -90 -62 -135c0 -64 1 -131 58 -131c47 0 60 47 60 135c0 79 -10 130 -56 131z" />
    <glyph glyph-name="ampersand" unicode="&#x26;" horiz-adv-x="688" 
d="M675 137v-136c-27 -3 -54 -6 -81 -6c-78 0 -101 19 -126 42c-30 -18 -86 -52 -188 -52c-78 0 -146 19 -204 79c-45 46 -59 91 -59 149c0 75 26 115 64 152c32 32 58 46 100 65c-18 25 -47 64 -47 130c0 34 12 153 199 153c22 0 108 0 160 -54c21 -22 38 -53 38 -102
c0 -47 -16 -88 -55 -126c-30 -30 -57 -42 -84 -54c45 -55 52 -63 85 -100c15 38 18 47 25 88l151 -56c-33 -99 -42 -116 -69 -159c19 -8 35 -16 60 -16c10 0 21 1 31 3zM319 486c24 14 61 33 61 66c0 2 0 41 -49 41c-27 0 -45 -12 -45 -39c0 -24 18 -48 33 -68zM257 299
c-24 -18 -52 -40 -52 -83c0 -38 26 -89 90 -89c34 0 60 13 77 22c-54 65 -68 84 -115 150z" />
    <glyph glyph-name="quoteright" unicode="&#x2019;" horiz-adv-x="250" 
d="M34 518v188h182v-144c-1 -58 -2 -116 -51 -166c-40 -40 -85 -48 -131 -55v88c60 19 61 57 62 89h-62z" />
    <glyph glyph-name="parenleft" unicode="(" horiz-adv-x="354" 
d="M348 -88l-62 -77c-83 62 -173 130 -226 259c-27 64 -37 131 -37 192c0 247 152 377 250 462l69 -65c-71 -84 -153 -180 -153 -387c0 -77 12 -153 41 -222c38 -91 85 -133 118 -162z" />
    <glyph glyph-name="parenright" unicode=")" horiz-adv-x="354" 
d="M6 671l62 77c83 -62 173 -129 227 -259c26 -64 36 -131 36 -192c0 -247 -152 -377 -250 -462l-69 65c71 85 153 180 153 387c0 77 -12 153 -41 222c-38 91 -85 133 -118 162z" />
    <glyph glyph-name="asterisk" unicode="*" horiz-adv-x="354" 
d="M129 615v95h89v-90l88 34l32 -84l-96 -37l65 -77l-71 -54l-62 77l-53 -76l-72 52l53 76l-87 29l28 85z" />
    <glyph glyph-name="plus" unicode="+" horiz-adv-x="667" 
d="M398 228v-228h-127v228h-229v127h229v227h127v-227h227v-127h-227z" />
    <glyph glyph-name="comma" unicode="," horiz-adv-x="250" 
d="M34 0v188h182v-144c-1 -57 -2 -116 -51 -166c-40 -40 -85 -47 -131 -55v88c60 19 61 57 62 89h-62z" />
    <glyph glyph-name="hyphen" unicode="-" horiz-adv-x="333" 
d="M38 231v171h256v-171h-256z" />
    <glyph glyph-name="period" unicode="." horiz-adv-x="250" 
d="M34 188h182v-188h-182v188z" />
    <glyph glyph-name="slash" unicode="/" horiz-adv-x="500" 
d="M1 0l303 706h193l-301 -706h-195z" />
    <glyph glyph-name="zero" unicode="0" 
d="M333 700c233 -3 290 -208 290 -349c0 -171 -80 -369 -309 -369c-172 0 -294 128 -294 349c0 200 96 372 313 369zM325 564c-23 0 -52 -12 -71 -43c-26 -44 -30 -133 -30 -201c0 -37 1 -75 9 -111c13 -53 43 -86 88 -86c84 0 99 112 99 210c0 31 -2 106 -12 149
s-35 82 -83 82z" />
    <glyph glyph-name="one" unicode="1" 
d="M110 439v155c26 -1 65 -3 103 14c52 22 64 56 72 79h178v-687h-206v456c-32 -13 -49 -16 -147 -17z" />
    <glyph glyph-name="two" unicode="2" 
d="M235 401l-203 24c3 63 6 138 63 197c72 75 197 75 238 75c55 0 151 -4 215 -69c52 -51 58 -116 58 -152c0 -93 -46 -163 -150 -235c-45 -31 -92 -57 -139 -84l69 2l37 1h174v-160h-570v130c81 53 160 107 236 166c117 93 135 133 135 176c0 23 -6 81 -82 81
c-88 0 -88 -82 -88 -102c0 -24 3 -35 7 -50z" />
    <glyph glyph-name="three" unicode="3" 
d="M215 459l-189 11c9 52 18 107 64 154c74 75 197 75 234 75c34 0 155 0 228 -74c42 -43 47 -89 47 -119c0 -105 -72 -135 -110 -150c39 -11 132 -36 132 -153c0 -51 -21 -106 -56 -142c-74 -75 -206 -75 -256 -75c-47 0 -166 1 -241 78c-43 44 -54 93 -65 142l191 36
c3 -28 7 -62 32 -86c18 -18 49 -29 85 -29c28 0 59 7 79 26c21 21 22 47 22 60c0 72 -84 73 -115 73c-27 0 -35 -2 -51 -5v136c15 -2 30 -3 45 -3c42 0 113 7 113 74c0 26 -13 73 -92 73c-82 0 -92 -65 -97 -102z" />
    <glyph glyph-name="four" unicode="4" 
d="M19 279l312 409h204v-409h88v-136h-88v-143h-196v143h-320v136zM339 279l2 186c1 13 2 25 3 37c0 -2 -39 -59 -44 -66l-116 -157h155z" />
    <glyph glyph-name="five" unicode="5" 
d="M53 312l38 372h510l-15 -143h-349l-10 -97c7 4 14 8 21 11c30 12 75 19 112 19c149 0 262 -93 262 -231c0 -66 -27 -133 -72 -178c-75 -77 -182 -82 -240 -82c-37 0 -151 0 -229 79c-44 46 -54 94 -65 146l204 21c0 -17 0 -34 5 -50c12 -39 45 -58 86 -58
c73 0 102 53 102 107c0 62 -34 107 -105 107c-56 0 -72 -26 -84 -44z" />
    <glyph glyph-name="six" unicode="6" 
d="M610 523l-195 -30c-2 16 -5 34 -21 51c-15 14 -37 22 -59 22c-30 0 -61 -15 -82 -36c-41 -42 -43 -97 -45 -147c5 7 10 13 16 19c37 36 108 53 162 53c137 0 241 -93 241 -230c0 -152 -132 -242 -294 -242c-87 0 -172 28 -226 80c-87 82 -89 210 -89 261
c0 73 9 150 54 228c81 137 209 148 279 148c205 0 243 -125 259 -177zM331 325c-66 0 -105 -47 -105 -105c0 -59 41 -104 102 -104c53 0 102 35 102 105c0 65 -42 104 -99 104z" />
    <glyph glyph-name="seven" unicode="7" 
d="M43 689h551v-131c-57 -61 -107 -114 -167 -240c-62 -133 -76 -219 -92 -318h-215c21 87 37 151 93 270c63 131 114 199 161 263h-331v156z" />
    <glyph glyph-name="eight" unicode="8" 
d="M518 363c22 -11 44 -21 61 -40c28 -27 47 -72 47 -123c0 -49 -17 -96 -55 -134c-78 -78 -198 -80 -249 -80c-43 0 -91 2 -137 16c-96 27 -167 95 -167 192c0 31 7 58 18 80c30 60 76 78 101 88c-15 9 -29 19 -42 31c-24 24 -42 64 -42 109c0 30 8 57 19 78
c58 117 209 117 252 117c61 0 111 -6 155 -24c114 -46 118 -142 118 -168c0 -89 -50 -122 -79 -142zM325 565c-25 1 -52 -3 -70 -20c-13 -12 -21 -31 -21 -49c0 -31 25 -72 91 -72s87 41 87 71c0 18 -7 69 -87 70zM322 290c-82 -1 -103 -53 -103 -89c0 -11 3 -86 101 -86
c79 0 106 49 106 87c0 32 -21 89 -104 88z" />
    <glyph glyph-name="nine" unicode="9" 
d="M34 161l195 29c2 -16 5 -34 21 -50c15 -15 37 -23 59 -23c30 0 61 15 82 36c41 42 43 97 45 147c-5 -7 -10 -13 -16 -19c-37 -36 -108 -53 -162 -53c-137 0 -241 93 -241 230c0 153 133 242 294 242c88 0 173 -29 226 -80c86 -82 89 -210 89 -261c0 -73 -9 -150 -54 -228
c-81 -137 -208 -148 -279 -148c-205 0 -243 125 -259 178zM313 358c66 0 105 47 105 105c0 59 -41 104 -102 104c-53 0 -102 -35 -102 -105c0 -65 42 -104 99 -104z" />
    <glyph glyph-name="colon" unicode=":" horiz-adv-x="292" 
d="M74 0v188h182v-188h-182zM74 330v188h182v-188h-182z" />
    <glyph glyph-name="semicolon" unicode=";" horiz-adv-x="292" 
d="M74 330v188h182v-188h-182zM74 0v188h182v-144c-1 -57 -2 -116 -51 -166c-40 -40 -85 -47 -131 -55v88c60 19 61 57 62 89h-62z" />
    <glyph glyph-name="less" unicode="&#x3c;" horiz-adv-x="667" 
d="M667 135v-138l-667 292v124l667 296v-139l-489 -219z" />
    <glyph glyph-name="equal" unicode="=" horiz-adv-x="667" 
d="M667 250v-127h-667v127h667zM667 459v-126h-667v126h667z" />
    <glyph glyph-name="greater" unicode="&#x3e;" horiz-adv-x="667" 
d="M667 289l-667 -292v138l489 216l-489 219v139l667 -296v-124z" />
    <glyph glyph-name="question" unicode="?" horiz-adv-x="604" 
d="M216 472l-171 57c10 33 21 73 68 116c70 66 153 73 214 73c39 0 147 -1 217 -71c30 -31 50 -70 50 -121c0 -86 -58 -129 -80 -144c-27 -20 -56 -37 -82 -56c-49 -35 -52 -49 -56 -68h-173c4 47 8 85 86 145c13 10 26 19 39 29c20 14 63 48 63 87c0 23 -18 64 -75 64
c-86 0 -96 -77 -100 -111zM197 188h183v-188h-183v188z" />
    <glyph glyph-name="at" unicode="@" horiz-adv-x="896" 
d="M779 101l47 -61c-53 -50 -175 -164 -365 -164c-155 0 -392 80 -392 362c0 254 198 474 459 474c214 0 299 -154 299 -287c0 -193 -116 -359 -238 -359c-33 0 -61 14 -76 34c-9 12 -11 23 -14 35c-17 -19 -57 -68 -125 -68c-16 0 -54 3 -88 32c-39 33 -51 86 -51 137
c0 137 88 287 218 287c63 0 88 -37 104 -60l9 39h91l-34 -158c-27 -136 -27 -145 -27 -161c0 -9 0 -32 19 -32c42 0 128 119 128 267c0 164 -124 215 -224 215c-192 0 -368 -181 -368 -394c0 -231 193 -284 302 -284c171 0 276 100 326 146zM524 350c0 60 -37 84 -68 84
c-69 0 -118 -106 -118 -193c0 -85 59 -85 63 -85c64 0 124 102 123 194z" />
    <glyph glyph-name="A" unicode="A" horiz-adv-x="792" 
d="M-1 0l270 706h254l264 -706h-240l-31 98h-246l-31 -98h-240zM470 256l-75 249l-77 -249h152z" />
    <glyph glyph-name="B" unicode="B" horiz-adv-x="729" 
d="M44 0v706h418c44 -2 126 -5 179 -57c32 -30 48 -77 48 -122c0 -52 -22 -96 -50 -124c-19 -19 -37 -27 -60 -38c29 -8 55 -15 83 -43c40 -39 47 -85 47 -120c0 -53 -16 -108 -52 -144c-53 -54 -126 -56 -181 -58h-432zM395 557h-128v-120h123c21 0 73 0 73 59
c0 58 -48 60 -68 61zM401 289h-135v-137h140c20 1 41 2 58 21c11 11 18 28 18 46c0 66 -60 69 -81 70z" />
    <glyph glyph-name="C" unicode="C" horiz-adv-x="750" 
d="M546 274l190 -92c-18 -34 -35 -66 -69 -100c-72 -71 -173 -104 -274 -104c-252 0 -366 190 -366 371c0 190 127 383 366 383c107 0 209 -38 283 -114c30 -31 44 -55 59 -83l-187 -93c-18 42 -52 117 -146 117c-49 0 -80 -23 -95 -38c-53 -51 -53 -131 -53 -159
c0 -105 39 -204 149 -204c104 0 135 92 143 116z" />
    <glyph glyph-name="D" unicode="D" horiz-adv-x="750" 
d="M44 0v706h240c158 -2 260 -3 343 -81c73 -68 98 -169 98 -269c0 -149 -56 -290 -198 -337c-57 -19 -120 -19 -189 -19h-294zM352 541h-84v-379h85c32 2 63 3 94 33c34 32 53 92 53 158c0 41 -7 75 -18 104c-30 80 -86 82 -130 84z" />
    <glyph glyph-name="E" unicode="E" 
d="M43 0v706h559v-155h-335v-105h313v-153h-313v-140h365v-153h-589z" />
    <glyph glyph-name="F" unicode="F" horiz-adv-x="625" 
d="M44 706h559v-156h-336v-127h314v-152h-314v-271h-223v706z" />
    <glyph glyph-name="G" unicode="G" horiz-adv-x="792" 
d="M586 1v49c-32 -24 -93 -68 -212 -68c-53 0 -97 10 -133 25c-67 27 -214 122 -214 342c0 203 131 386 377 386c106 0 215 -37 285 -106c42 -41 56 -79 68 -112l-200 -56c-5 22 -10 46 -32 68c-21 21 -57 37 -104 37c-53 0 -90 -20 -112 -41c-55 -51 -55 -135 -55 -167
c0 -42 3 -110 53 -161c44 -46 96 -47 120 -47c20 0 71 2 106 38c19 20 22 39 27 61h-131v142h324v-390h-167z" />
    <glyph glyph-name="H" unicode="H" horiz-adv-x="750" 
d="M44 0v706h223v-257h213v257h225v-706h-225v272h-213v-272h-223z" />
    <glyph glyph-name="I" unicode="I" horiz-adv-x="313" 
d="M44 0v706h224v-706h-224z" />
    <glyph glyph-name="J" unicode="J" horiz-adv-x="417" 
d="M148 249v458h223v-511c-1 -46 -2 -105 -44 -148c-47 -46 -123 -47 -178 -48h-149v174c16 -4 27 -6 58 -6c78 0 89 32 90 81z" />
    <glyph glyph-name="K" unicode="K" horiz-adv-x="771" 
d="M44 0v706h223v-267l222 267h273l-246 -268l263 -438h-251l-156 282l-104 -115v-167h-224z" />
    <glyph glyph-name="L" unicode="L" horiz-adv-x="542" 
d="M44 0v707h223v-529h273v-178h-496z" />
    <glyph glyph-name="M" unicode="M" horiz-adv-x="958" 
d="M43 0v706h319l87 -326c16 -70 19 -86 29 -150c13 87 17 105 33 173l80 303h320v-706h-213v408c1 52 2 65 6 125c-12 -53 -14 -63 -28 -114l-117 -419h-166l-109 397c-15 57 -16 58 -33 132c3 -44 4 -55 4 -95v-434h-212z" />
    <glyph glyph-name="N" unicode="N" horiz-adv-x="771" 
d="M44 0v706h237l159 -267c39 -73 50 -94 86 -173c-6 69 -7 84 -9 163v277h209v-706h-240l-143 244c-41 70 -53 92 -98 186c5 -64 6 -80 7 -144v-286h-208z" />
    <glyph glyph-name="O" unicode="O" horiz-adv-x="812" 
d="M406 732c279 0 378 -204 378 -372c0 -179 -105 -383 -382 -383c-289 0 -376 214 -376 375c0 202 125 380 380 380zM406 554c-80 0 -156 -55 -156 -201c0 -123 50 -197 156 -197c90 0 153 71 153 204c0 34 -3 65 -13 93c-34 98 -120 101 -140 101z" />
    <glyph glyph-name="P" unicode="P" horiz-adv-x="708" 
d="M44 0v707h404c77 -3 144 -7 201 -66c52 -55 59 -120 59 -165c0 -59 -12 -123 -67 -180c-59 -61 -124 -64 -201 -66h-172v-230h-224zM394 558h-126v-180h128c12 1 25 1 37 5c34 11 54 43 54 86c0 83 -65 87 -93 89z" />
    <glyph glyph-name="Q" unicode="Q" horiz-adv-x="812" 
d="M822 72l-68 -155c-59 11 -111 24 -175 95c-29 -12 -83 -35 -180 -35c-271 0 -372 194 -372 377c0 106 33 206 108 279c85 84 186 100 276 100c77 0 178 -12 264 -97c71 -70 109 -171 109 -274c0 -23 -2 -58 -12 -104c-17 -71 -39 -103 -62 -137c49 -33 72 -45 112 -49z
M405 554c-27 0 -66 -5 -101 -43c-49 -53 -51 -129 -51 -161c0 -120 50 -194 150 -194c85 0 154 62 154 205c0 148 -78 194 -152 193z" />
    <glyph glyph-name="R" unicode="R" horiz-adv-x="708" 
d="M44 0v707h352c67 0 131 -4 174 -22c94 -40 122 -136 122 -204c0 -27 -3 -90 -54 -142c-28 -30 -58 -41 -91 -54l172 -285h-248l-137 249h-66v-249h-224zM360 559h-92v-165h93c37 0 108 2 108 82c0 81 -70 83 -109 83z" />
    <glyph glyph-name="S" unicode="S" horiz-adv-x="729" 
d="M7 134l171 110c20 -31 37 -57 98 -77c29 -10 65 -16 99 -16c18 0 106 2 106 53c0 5 0 31 -39 44c-25 9 -155 32 -184 39c-65 17 -192 57 -192 206c0 31 7 63 20 91c46 104 165 145 292 145c81 0 155 -16 213 -45c53 -26 79 -54 104 -80l-140 -117c-11 14 -23 30 -54 46
c-41 20 -95 26 -131 26c-38 0 -80 -10 -80 -46c0 -34 36 -43 97 -54c157 -27 313 -55 313 -230c0 -74 -31 -126 -63 -159c-89 -91 -231 -91 -270 -91c-53 0 -109 5 -164 21c-112 32 -164 95 -196 134z" />
    <glyph glyph-name="T" unicode="T" horiz-adv-x="583" 
d="M0 532v175h581v-175h-179v-532h-223v532h-179z" />
    <glyph glyph-name="U" unicode="U" horiz-adv-x="729" 
d="M42 286v420h224v-441c0 -30 1 -61 26 -85c18 -19 45 -26 71 -26c35 0 58 13 71 25c26 25 27 56 27 86v441h225v-376c0 -81 0 -186 -83 -265c-51 -48 -133 -84 -242 -84c-104 0 -194 34 -246 84c-70 68 -71 147 -73 221z" />
    <glyph glyph-name="V" unicode="V" horiz-adv-x="708" 
d="M236 0l-236 706h228l84 -280c26 -89 30 -110 41 -188c13 78 17 93 37 165l89 303h229l-239 -706h-233z" />
    <glyph glyph-name="W" unicode="W" horiz-adv-x="1042" 
d="M174 0l-176 706h218l69 -308c19 -86 23 -107 31 -185c12 79 15 100 35 186l73 307h189l77 -307c21 -88 24 -109 33 -185c10 78 14 100 30 179l70 313h217l-176 -706h-239l-64 256c-23 97 -28 122 -44 219c-11 -88 -15 -109 -35 -198l-68 -277h-240z" />
    <glyph glyph-name="X" unicode="X" horiz-adv-x="833" 
d="M416 512l114 194h255l-223 -326l271 -380h-264l-153 254l-156 -254h-262l273 379l-229 327h262z" />
    <glyph glyph-name="Y" unicode="Y" horiz-adv-x="792" 
d="M-3 706h258l138 -235l136 235h259l-285 -409v-297h-223v297z" />
    <glyph glyph-name="Z" unicode="Z" horiz-adv-x="667" 
d="M23 537v169h631v-144l-356 -390h355v-172h-651v141l362 396h-341z" />
    <glyph glyph-name="bracketleft" unicode="[" horiz-adv-x="354" 
d="M41 -122v829h300v-113h-134v-603h134v-113h-300z" />
    <glyph glyph-name="backslash" unicode="\" horiz-adv-x="500" 
d="M497 0h-193l-303 706h195z" />
    <glyph glyph-name="bracketright" unicode="]" horiz-adv-x="354" 
d="M12 707h300v-829h-300v113h134v603h-134v113z" />
    <glyph glyph-name="asciicircum" unicode="^" horiz-adv-x="729" 
d="M421 706l194 -395h-138l-110 231l-116 -231h-137l203 395h104z" />
    <glyph glyph-name="underscore" unicode="_" horiz-adv-x="500" 
d="M510 -75v-50h-520v50h520z" />
    <glyph glyph-name="quoteleft" unicode="&#x2018;" horiz-adv-x="250" 
d="M216 531v-188h-182v144c1 58 2 117 51 166c40 40 85 48 131 56v-89c-60 -19 -61 -57 -62 -89h62z" />
    <glyph glyph-name="a" unicode="a" horiz-adv-x="604" 
d="M230 367l-193 -5c8 44 19 99 93 138c58 30 132 35 186 35c246 0 246 -127 246 -189v-282c0 -34 3 -43 18 -64h-203v40c-26 -18 -74 -52 -171 -52c-130 0 -187 79 -187 167c0 31 7 74 44 111c47 48 103 56 194 68c57 8 79 13 110 22c-1 35 -11 59 -70 59
c-47 0 -60 -12 -67 -48zM366 241c-20 -7 -40 -14 -61 -20c-17 -4 -35 -8 -53 -14c-40 -16 -42 -40 -42 -46c0 -14 12 -40 51 -40c29 0 77 19 95 59c10 22 10 43 10 61z" />
    <glyph glyph-name="b" unicode="b" horiz-adv-x="625" 
d="M41 706h206v-224c20 19 54 51 132 51c113 0 226 -81 226 -262c0 -163 -85 -284 -234 -284c-20 0 -48 2 -77 13s-39 22 -53 38v-38h-200v706zM373 158c14 15 29 43 29 102c0 24 -2 43 -6 61c-18 65 -67 65 -74 65c-19 0 -38 -9 -52 -23c-27 -29 -28 -75 -28 -102
c0 -23 1 -44 7 -64c16 -55 58 -61 72 -61c20 0 39 8 52 22z" />
    <glyph glyph-name="c" unicode="c" horiz-adv-x="562" 
d="M403 225l157 -86c-13 -28 -24 -50 -50 -76c-29 -30 -96 -83 -216 -83c-171 0 -276 116 -276 283c0 86 31 156 74 200c72 75 175 79 214 79c35 0 134 -1 213 -81c20 -20 29 -34 41 -54l-157 -89c-13 46 -38 79 -87 79c-63 0 -94 -62 -94 -140c0 -41 8 -119 89 -119
c63 0 83 60 92 87z" />
    <glyph glyph-name="d" unicode="d" horiz-adv-x="625" 
d="M377 482v224h206v-706h-200v38c-14 -16 -24 -27 -53 -38s-57 -13 -78 -13c-148 0 -233 121 -233 284c0 181 113 262 226 262c78 0 111 -32 132 -51zM251 158c13 -14 32 -22 52 -22c19 0 38 9 52 23c27 28 27 76 27 102c0 22 -1 44 -8 65c-15 49 -53 60 -72 60
c-7 0 -56 0 -74 -65c-4 -18 -6 -37 -6 -61c0 -59 15 -87 29 -102z" />
    <glyph glyph-name="e" unicode="e" horiz-adv-x="604" 
d="M408 192l170 -71c-61 -93 -151 -142 -275 -142c-192 0 -286 138 -286 282c0 169 117 278 285 278c63 0 145 -16 208 -77c76 -75 77 -161 79 -240h-362c1 -23 2 -50 25 -73c5 -5 24 -24 62 -24c47 0 73 25 94 67zM229 331h150c-1 8 -1 16 -3 24c-9 37 -41 53 -69 53
c-62 0 -73 -54 -78 -77z" />
    <glyph glyph-name="f" unicode="f" horiz-adv-x="375" 
d="M76 506v52c2 39 3 77 38 111c16 17 57 49 153 49c45 0 72 -6 108 -13v-141c-11 4 -20 7 -38 7c-56 0 -55 -38 -55 -65h93v-112h-93v-394h-206v394h-77v112h77z" />
    <glyph glyph-name="g" unicode="g" horiz-adv-x="625" 
d="M20 -7h187c0 -23 1 -66 81 -66c28 0 60 7 77 23c20 20 20 45 20 80c0 17 0 33 1 49c-4 -6 -8 -11 -12 -16c-5 -5 -36 -37 -123 -37c-157 0 -233 108 -233 250c0 105 45 256 244 256c46 0 93 -10 125 -42c7 -6 13 -13 18 -21l-1 49h178v-488c-2 -60 -6 -144 -106 -191
c-51 -24 -122 -34 -189 -34c-22 0 -108 2 -163 21c-100 35 -102 112 -104 167zM300 390c-86 0 -86 -100 -86 -120c0 -75 26 -108 81 -108c83 0 85 78 85 117c0 28 0 111 -80 111z" />
    <glyph glyph-name="h" unicode="h" 
d="M41 0v707h205v-241c19 23 59 74 166 74c59 0 112 -20 144 -52c43 -45 45 -103 47 -149v-339h-205v296c-1 23 -2 74 -74 74c-76 0 -77 -54 -77 -78v-292h-206z" />
    <glyph glyph-name="i" unicode="i" horiz-adv-x="292" 
d="M42 569v137h206v-137h-206zM42 0v518h206v-518h-206z" />
    <glyph glyph-name="j" unicode="j" horiz-adv-x="292" 
d="M43 569v137h206v-137h-206zM43 12v507h206v-511c-1 -77 -1 -118 -35 -153c-53 -52 -165 -50 -248 -48v150c57 -2 77 12 77 55z" />
    <glyph glyph-name="k" unicode="k" 
d="M40 0v706h207v-336l140 148h252l-197 -187l206 -331h-235l-113 197l-54 -52v-145h-206z" />
    <glyph glyph-name="l" unicode="l" horiz-adv-x="292" 
d="M41 0v706h207v-706h-207z" />
    <glyph glyph-name="m" unicode="m" horiz-adv-x="1000" 
d="M239 517v-74c16 26 51 87 164 87c18 0 47 -2 79 -12c67 -21 87 -58 101 -85c15 34 62 97 180 97c56 0 110 -18 144 -52c47 -46 48 -102 49 -151v-327h-206v271c0 33 -1 89 -72 89c-75 0 -76 -61 -76 -84v-277h-206v280c0 10 -1 20 -3 30c-9 40 -44 51 -69 51
c-21 0 -42 -7 -56 -21c-19 -19 -19 -40 -20 -58v-282h-206v518h197z" />
    <glyph glyph-name="n" unicode="n" 
d="M236 518v-69c17 24 56 82 170 82c82 0 123 -32 140 -48c49 -48 52 -117 52 -156v-327h-206v283c0 26 -1 78 -70 78c-73 0 -75 -57 -75 -85v-276h-206v518h195z" />
    <glyph glyph-name="o" unicode="o" 
d="M326 540c105 -1 177 -37 217 -75c49 -47 81 -125 81 -207c0 -163 -113 -278 -309 -278c-209 0 -295 136 -295 275c0 170 115 286 306 285zM320 395c-78 -2 -95 -76 -95 -134c0 -50 12 -137 96 -137c72 0 95 61 95 139c0 31 -2 135 -96 132z" />
    <glyph glyph-name="p" unicode="p" horiz-adv-x="625" 
d="M242 518v-40c15 16 49 54 138 54c167 0 226 -140 226 -276c0 -151 -72 -269 -228 -269c-84 0 -117 32 -134 48v-223h-203v706h201zM326 382c-20 1 -41 -7 -55 -21c-30 -28 -30 -75 -30 -104c0 -24 1 -48 9 -71c19 -54 63 -54 71 -54c20 0 40 8 53 22c18 19 29 51 29 99
c0 41 -4 127 -77 129z" />
    <glyph glyph-name="q" unicode="q" horiz-adv-x="625" 
d="M381 -188v223c-17 -16 -50 -48 -134 -48c-156 0 -228 118 -228 269c0 136 59 276 226 276c89 0 123 -38 138 -54v40h201v-706h-203zM299 382c-73 -2 -77 -88 -77 -129c0 -48 11 -80 29 -99c13 -14 33 -22 53 -22c19 0 37 7 51 20c29 28 29 80 29 105c0 23 -1 46 -8 67
c-19 60 -70 58 -77 58z" />
    <glyph glyph-name="r" unicode="r" horiz-adv-x="417" 
d="M239 521v-48c56 50 94 56 173 56v-174c-14 1 -28 2 -42 2c-121 0 -123 -79 -124 -113v-244h-205v521h198z" />
    <glyph glyph-name="s" unicode="s" horiz-adv-x="542" 
d="M0 84l115 105c19 -19 38 -36 78 -53c37 -15 65 -17 82 -17c25 0 54 9 54 32c0 26 -31 31 -52 34c-18 3 -61 10 -108 24c-48 14 -143 42 -143 152c0 46 21 88 52 118c61 58 149 60 183 60c39 0 78 -5 117 -14c71 -17 101 -39 130 -61l-111 -101c-35 22 -78 49 -133 49
c-8 0 -44 0 -44 -27c0 -19 14 -22 83 -39c92 -21 114 -26 139 -39c52 -28 81 -76 81 -135c0 -102 -85 -192 -246 -192c-148 0 -233 68 -277 104z" />
    <glyph glyph-name="t" unicode="t" horiz-adv-x="375" 
d="M72 506l2 163h207l-2 -163h89v-112h-90l-2 -199c0 -20 1 -54 56 -54c12 0 25 2 37 4v-141c-46 -6 -87 -11 -130 -11c-22 0 -95 1 -136 43c-35 35 -35 81 -35 107l3 251h-71v112h72z" />
    <glyph glyph-name="u" unicode="u" 
d="M40 203v315h206v-282c0 -31 1 -84 74 -84s74 57 75 92v274h207v-518h-196v76c-7 -15 -11 -24 -26 -38c-38 -37 -92 -51 -145 -51c-82 1 -125 32 -143 51c-50 49 -51 116 -52 165z" />
    <glyph glyph-name="v" unicode="v" horiz-adv-x="562" 
d="M170 0l-173 518h218l41 -192c11 -61 13 -77 22 -155c8 70 11 89 25 164l42 183h216l-173 -518h-218z" />
    <glyph glyph-name="w" unicode="w" horiz-adv-x="854" 
d="M155 0l-156 518h210l40 -195c14 -76 16 -91 24 -163c8 78 11 97 25 171l38 187h177l38 -182c15 -74 18 -94 28 -176c5 63 7 76 17 135l44 223h211l-155 -518h-205l-46 207c-14 69 -16 86 -21 154c-3 -59 -4 -73 -16 -131l-48 -230h-205z" />
    <glyph glyph-name="x" unicode="x" horiz-adv-x="604" 
d="M16 518h221l64 -155l68 155h222l-157 -245l172 -273h-220l-85 168l-84 -168h-221l174 272z" />
    <glyph glyph-name="y" unicode="y" horiz-adv-x="583" 
d="M164 42l-164 476h215l51 -223c11 -61 14 -75 24 -152c9 81 13 98 25 158l52 217h214l-189 -548c-14 -39 -28 -81 -61 -113c-44 -43 -80 -44 -144 -44c-46 0 -68 2 -109 7v147c17 -1 39 -3 58 -3c28 0 44 6 44 25c0 9 -12 41 -16 53z" />
    <glyph glyph-name="z" unicode="z" horiz-adv-x="542" 
d="M39 364v154h490v-118l-241 -245h239v-155h-519v114l246 250h-215z" />
    <glyph glyph-name="braceleft" unicode="{" horiz-adv-x="354" 
d="M1 255v75c78 18 78 93 78 161v46c-1 95 5 137 43 172c37 33 81 39 232 39v-74c-106 -22 -109 -72 -109 -168v-8c1 -122 -4 -178 -105 -206c29 -9 67 -21 89 -65c16 -30 17 -62 17 -141v-9c0 -108 10 -144 108 -168v-74c-107 0 -164 2 -203 20c-74 35 -72 120 -71 177v51
c0 48 0 85 -12 113c-18 42 -50 53 -67 59z" />
    <glyph glyph-name="bar" unicode="|" horiz-adv-x="229" 
d="M178 750v-1000h-127v1000h127z" />
    <glyph glyph-name="braceright" unicode="}" horiz-adv-x="354" 
d="M354 328v-75c-78 -18 -78 -93 -78 -161v-46c1 -95 -5 -137 -43 -172c-37 -33 -81 -39 -232 -39v74c106 22 109 72 109 168v8c-1 122 4 178 105 206c-29 9 -67 21 -89 65c-16 30 -17 62 -17 141v9c0 108 -10 144 -108 168v74c107 0 164 -2 203 -20c74 -35 72 -120 71 -177
v-51c0 -48 0 -85 12 -113c18 -42 50 -53 67 -59z" />
    <glyph glyph-name="asciitilde" unicode="~" horiz-adv-x="729" 
d="M574 387l52 -105c-33 -38 -93 -83 -156 -83c-39 0 -72 16 -104 31l-31 15c-32 15 -50 22 -73 22c-42 0 -58 -17 -104 -70l-55 103c23 32 68 95 156 95c37 0 67 -14 103 -31l36 -16c27 -12 51 -23 75 -23c26 0 58 12 101 62z" />
    <glyph glyph-name="exclamdown" unicode="&#xa1;" horiz-adv-x="292" 
d="M215 190v-190h-183v192l39 256h101zM215 518h-183v188h183v-188z" />
    <glyph glyph-name="cent" unicode="&#xa2;" horiz-adv-x="583" 
d="M256 531v116h100v-114c34 -4 84 -12 140 -55c37 -29 52 -54 66 -77l-156 -88c-12 32 -28 77 -89 77c-68 0 -90 -65 -90 -137c0 -42 5 -121 85 -121c60 0 82 53 95 85l159 -86c-12 -22 -23 -45 -47 -70c-55 -59 -119 -71 -163 -80v-128h-100v128
c-169 21 -233 139 -233 267c0 88 29 169 95 226c53 46 108 54 138 57z" />
    <glyph glyph-name="sterling" unicode="&#xa3;" horiz-adv-x="729" 
d="M62 401h71c-16 20 -43 53 -43 115c0 36 11 82 51 122c73 74 191 74 231 74c112 0 233 -24 275 -124c19 -45 19 -90 18 -132h-178c5 64 -19 111 -104 111c-64 0 -98 -30 -98 -74c0 -36 25 -67 45 -92h156v-102h-90c16 -28 27 -55 27 -88c0 -14 -3 -27 -5 -42
c24 -16 58 -39 82 -39c39 0 39 42 39 62c0 21 -1 26 -4 42h172c1 -92 2 -162 -46 -208c-27 -25 -73 -42 -121 -42c-82 0 -146 44 -185 71c-24 -22 -76 -69 -178 -69c-93 0 -162 46 -162 126c0 89 90 131 164 131c19 0 37 -3 55 -5c-11 24 -15 31 -38 61h-134v102zM248 128
c-18 8 -36 17 -63 17c-26 0 -47 -11 -47 -33c0 -16 12 -30 37 -30c39 0 61 30 73 46z" />
    <glyph glyph-name="fraction" unicode="&#x2044;" horiz-adv-x="125" 
d="M-124 0l361 735l69 -35l-362 -734z" />
    <glyph glyph-name="yen" unicode="&#xa5;" horiz-adv-x="792" 
d="M255 697l137 -237l137 237h259l-155 -219h76v-122h-162l-44 -63v-7h206v-122h-206v-164h-223v164h-198v122h198v7l-44 63h-154v122h69l-154 219h258z" />
    <glyph glyph-name="florin" unicode="&#x192;" horiz-adv-x="437" 
d="M124 489l6 51c7 40 13 78 50 111c43 39 102 49 159 49c45 0 72 -6 107 -13l-16 -141c-11 4 -20 7 -37 7c-56 0 -60 -37 -63 -64h93l-13 -112h-93l-33 -307c-16 -140 -17 -145 -29 -171c-32 -70 -113 -94 -192 -94c-45 0 -71 6 -107 13l16 141c11 -4 20 -7 37 -7
c55 0 60 36 63 64l40 361h-77l12 112h77z" />
    <glyph glyph-name="section" unicode="&#xa7;" horiz-adv-x="625" 
d="M54 -68l99 106c35 -21 62 -38 108 -53c35 -11 60 -14 74 -14c18 0 42 5 42 24c0 22 -32 38 -110 70c-159 66 -250 112 -250 229c0 96 61 135 98 159c-18 24 -34 46 -34 87c0 67 54 165 207 165c34 0 69 -5 103 -13c76 -18 116 -41 170 -72l-93 -105
c-42 23 -102 57 -181 57c-19 0 -41 -3 -41 -22c0 -15 15 -23 47 -38l84 -36c117 -51 229 -100 229 -224c0 -90 -62 -134 -100 -162c24 -23 34 -56 34 -90c0 -83 -72 -159 -211 -159c-117 0 -198 47 -275 91zM207 381c-14 -15 -34 -36 -34 -60c0 -42 53 -66 111 -92
c72 -33 80 -36 129 -60c33 27 36 50 36 59c0 33 -37 52 -52 60c-19 10 -39 19 -59 29c-44 20 -88 42 -131 64z" />
    <glyph glyph-name="currency" unicode="&#xa4;" horiz-adv-x="667" 
d="M661 570l-81 -80c23 -43 42 -78 42 -150c0 -76 -19 -110 -43 -153l81 -82l-96 -95l-80 82c-43 -22 -80 -42 -151 -42c-72 0 -110 21 -151 44l-81 -82l-94 95l81 81c-18 30 -43 71 -43 155c0 70 19 104 42 146l-79 81l94 95l80 -80c43 23 79 43 152 43
c74 0 107 -19 151 -43l80 80zM497 339c0 104 -83 165 -164 165c-76 0 -163 -57 -163 -166c0 -102 83 -164 164 -164c93 0 163 72 163 165z" />
    <glyph glyph-name="quotesingle" unicode="'" horiz-adv-x="208" 
d="M174 670l-53 -262h-32l-54 250c-1 8 -2 16 -2 25c0 44 39 66 76 66c39 0 55 -26 58 -29c9 -15 8 -33 7 -50z" />
    <glyph glyph-name="quotedblleft" unicode="&#x201c;" horiz-adv-x="521" 
d="M224 531v-188h-183v144c1 58 2 117 52 166c39 40 84 48 131 56v-89c-60 -19 -61 -57 -62 -89h62zM478 531v-188h-182v144c1 58 2 117 51 166c40 40 85 48 131 56v-89c-60 -19 -61 -57 -62 -89h62z" />
    <glyph glyph-name="guillemotleft" unicode="&#xab;" horiz-adv-x="417" 
d="M189 248v-148l-157 125v183l157 125v-149l-89 -69zM383 248v-148l-157 125v183l157 125v-149l-90 -69z" />
    <glyph glyph-name="guilsinglleft" unicode="&#x2039;" horiz-adv-x="229" 
d="M192 248v-148l-157 125v183l157 125v-149l-89 -69z" />
    <glyph glyph-name="guilsinglright" unicode="&#x203a;" horiz-adv-x="229" 
d="M35 385v148l157 -125v-183l-157 -125v149l89 69z" />
    <glyph glyph-name="endash" unicode="&#x2013;" 
d="M38 231v171h569v-171h-569z" />
    <glyph glyph-name="dagger" unicode="&#x2020;" horiz-adv-x="625" 
d="M215 706h194v-213h178v-158h-178v-488h-194v488h-177v158h177v213z" />
    <glyph glyph-name="daggerdbl" unicode="&#x2021;" 
d="M232 706h182v-162h182v-153h-182v-196h182v-153h-182v-193h-182v193h-183v153h183v196h-183v153h183v162z" />
    <glyph glyph-name="periodcentered" unicode="&#xb7;" horiz-adv-x="250" 
d="M34 410h182v-188h-182v188z" />
    <glyph glyph-name="paragraph" unicode="&#xb6;" horiz-adv-x="667" 
d="M308 706h250v-78h-36v-795h-84v795h-118v-795h-84v459c-29 8 -54 15 -84 39c-53 41 -71 107 -71 160c0 34 7 105 62 157c59 56 115 57 165 58z" />
    <glyph glyph-name="bullet" unicode="&#x2022;" horiz-adv-x="333" 
d="M12 352c0 86 69 155 155 155s155 -69 155 -155s-69 -155 -155 -155s-155 69 -155 155z" />
    <glyph glyph-name="quotesinglbase" unicode="&#x201a;" horiz-adv-x="250" 
d="M34 0v188h182v-144c-1 -58 -2 -116 -51 -166c-40 -40 -85 -47 -131 -55v88c60 19 61 57 62 89h-62z" />
    <glyph glyph-name="quotedblbase" unicode="&#x201e;" horiz-adv-x="521" 
d="M296 0v188h182v-144c-1 -57 -2 -116 -51 -166c-40 -40 -85 -47 -131 -55v88c60 19 61 57 62 89h-62zM41 0v188h183v-144c-1 -57 -3 -116 -52 -166c-39 -40 -85 -47 -131 -55v88c60 19 61 57 62 89h-62z" />
    <glyph glyph-name="quotedblright" unicode="&#x201d;" horiz-adv-x="521" 
d="M296 518v188h182v-144c-1 -58 -2 -116 -51 -166c-40 -40 -85 -48 -131 -55v88c60 19 61 57 62 89h-62zM41 518v188h183v-144c-1 -58 -3 -116 -52 -166c-39 -40 -85 -48 -131 -55v88c60 19 61 57 62 89h-62z" />
    <glyph glyph-name="guillemotright" unicode="&#xbb;" horiz-adv-x="417" 
d="M226 385v148l157 -125v-183l-157 -125v149l89 69zM32 385v148l157 -125v-183l-157 -125v149l90 69z" />
    <glyph glyph-name="ellipsis" unicode="&#x2026;" horiz-adv-x="1000" 
d="M76 188h182v-188h-182v188zM409 188h182v-188h-182v188zM742 188h182v-188h-182v188z" />
    <glyph glyph-name="perthousand" unicode="&#x2030;" horiz-adv-x="1438" 
d="M783 450c26 0 53 -2 77 -11c60 -23 117 -92 117 -213c0 -122 -60 -236 -201 -236c-130 0 -195 96 -195 226c0 66 18 133 63 180c47 49 97 54 139 54zM782 355c-62 1 -62 -90 -62 -135c0 -64 1 -131 58 -131c47 0 60 47 60 135c0 79 -10 130 -56 131zM1220 450
c27 0 54 -2 78 -11c60 -23 117 -92 117 -213c0 -122 -60 -236 -202 -236c-130 0 -195 96 -195 226c0 66 18 133 63 180c47 49 97 54 139 54zM1219 355c-62 1 -62 -90 -62 -135c0 -64 1 -131 59 -131c47 0 60 47 60 135c0 79 -10 130 -57 131zM305 0l302 706h92l-302 -706
h-92zM222 694c26 0 53 -2 77 -11c60 -23 117 -92 117 -213c0 -123 -61 -236 -201 -236c-129 0 -195 95 -195 226c0 66 18 133 63 180c47 49 97 54 139 54zM221 599c-62 1 -62 -90 -62 -135c0 -64 1 -131 58 -131c47 0 60 47 60 135c0 79 -10 130 -56 131z" />
    <glyph glyph-name="questiondown" unicode="&#xbf;" horiz-adv-x="604" 
d="M387 235l171 -57c-10 -33 -21 -73 -68 -117c-69 -65 -151 -72 -214 -72c-41 0 -146 1 -216 71c-30 30 -50 70 -50 121c0 86 58 128 80 144c27 19 56 36 83 55c47 35 50 49 54 68h173c-4 -47 -8 -85 -86 -144c-13 -10 -26 -19 -39 -29c-20 -15 -62 -48 -62 -87
c0 -24 17 -64 74 -64c86 0 96 77 100 111zM406 518h-182v188h182v-188z" />
    <glyph glyph-name="grave" unicode="`" horiz-adv-x="313" 
d="M12 724h213l76 -137h-127z" />
    <glyph glyph-name="acute" unicode="&#xb4;" horiz-adv-x="313" 
d="M12 587l77 137h212l-161 -137h-128z" />
    <glyph glyph-name="circumflex" unicode="&#x2c6;" horiz-adv-x="313" 
d="M-26 586l106 138h156l104 -138h-143l-41 66l-40 -66h-142z" />
    <glyph glyph-name="tilde" unicode="&#x2dc;" horiz-adv-x="313" 
d="M60 588h-89c7 55 17 139 100 139c20 0 50 -5 95 -18c46 -12 51 -14 58 -14c29 0 29 23 29 28h90c-7 -60 -19 -139 -98 -139c-24 0 -51 6 -86 15c-60 15 -62 16 -75 16c-22 0 -24 -17 -24 -27z" />
    <glyph glyph-name="macron" unicode="&#xaf;" horiz-adv-x="313" 
d="M362 605h-410v93h410v-93z" />
    <glyph glyph-name="breve" unicode="&#x2d8;" horiz-adv-x="313" 
d="M194 725h120c-6 -36 -26 -151 -159 -151c-28 0 -59 5 -85 21c-63 37 -68 102 -70 130h114c-1 -15 -2 -53 40 -53c43 0 41 44 40 53z" />
    <glyph glyph-name="dotaccent" unicode="&#x2d9;" horiz-adv-x="313" 
d="M73 605v119h166v-119h-166z" />
    <glyph glyph-name="dieresis" unicode="&#xa8;" horiz-adv-x="313" 
d="M-48 605v119h166v-119h-166zM197 605v119h165v-119h-165z" />
    <glyph glyph-name="ring" unicode="&#x2da;" horiz-adv-x="313" 
d="M45 691c0 61 50 111 111 111s111 -50 111 -111s-50 -111 -111 -111s-111 50 -111 111zM120 691c0 -20 16 -36 36 -36s36 16 36 36s-16 36 -36 36s-36 -16 -36 -36z" />
    <glyph glyph-name="cedilla" unicode="&#xb8;" horiz-adv-x="313" 
d="M61 -92l66 97l47 -15l-24 -49c8 1 17 2 26 2c56 0 84 -36 84 -73c0 -17 -6 -37 -23 -54c-33 -33 -78 -34 -107 -34c-35 0 -55 3 -77 7l3 55c8 -3 12 -4 22 -4c28 0 43 11 43 22c0 2 0 16 -25 16c-12 0 -24 -2 -38 -6z" />
    <glyph glyph-name="hungarumlaut" unicode="&#x2dd;" horiz-adv-x="313" 
d="M-108 587l76 137h213l-162 -137h-127zM133 587l76 137h213l-162 -137h-127z" />
    <glyph glyph-name="ogonek" unicode="&#x2db;" horiz-adv-x="313" 
d="M157 0h55c-25 -20 -56 -45 -56 -84c0 -38 29 -55 57 -55c14 0 25 5 40 11l4 -47c-30 -15 -61 -20 -95 -20c-77 0 -106 47 -106 85c0 64 63 92 101 110z" />
    <glyph glyph-name="caron" unicode="&#x2c7;" horiz-adv-x="313" 
d="M339 724l-106 -138h-156l-103 138h142l41 -66l40 66h142z" />
    <glyph glyph-name="emdash" unicode="&#x2014;" horiz-adv-x="688" 
d="M38 231v171h611v-171h-611z" />
    <glyph glyph-name="AE" unicode="&#xc6;" horiz-adv-x="1104" 
d="M-17 0l413 706h658v-153h-325v-107h300v-154h-300v-137h360v-155h-576v100h-227l-51 -100h-252zM514 254l-2 131c1 27 2 54 3 82c1 34 3 68 5 102c0 -5 -43 -99 -49 -111l-106 -204h149z" />
    <glyph glyph-name="ordfeminine" unicode="&#xaa;" horiz-adv-x="396" 
d="M154 607l-124 -3c5 26 10 50 40 75c41 34 100 36 129 36c113 0 166 -32 166 -113v-202c1 -12 3 -16 11 -26h-130v26c-24 -21 -56 -34 -104 -34c-80 0 -123 46 -123 107c0 34 16 65 43 84c26 18 46 21 107 31c24 3 47 8 71 13c-2 22 -6 36 -43 36c-32 0 -39 -10 -43 -30z
M239 526c-9 -3 -56 -17 -67 -20c-13 -5 -29 -11 -29 -28c0 -19 18 -26 31 -26c12 0 28 5 42 17c22 18 22 37 23 57z" />
    <glyph glyph-name="Lslash" unicode="&#x141;" horiz-adv-x="542" 
d="M267 707v-258l193 116v-128l-193 -116v-143h273v-178h-496v187l-44 -27v129l44 26v392h223z" />
    <glyph glyph-name="Oslash" unicode="&#xd8;" horiz-adv-x="812" 
d="M14 51l78 73c-23 38 -64 105 -64 228c0 90 23 204 115 290c85 78 181 91 258 91c48 0 86 -5 116 -12c66 -14 94 -34 139 -67l79 75l66 -71l-83 -78c23 -36 66 -101 66 -218c0 -165 -100 -385 -378 -385c-37 0 -83 4 -134 18c-63 17 -89 37 -116 58l-76 -72zM255 277
l255 239c-28 33 -68 41 -101 41c-97 0 -160 -68 -160 -201c0 -26 3 -53 6 -79zM556 429l-255 -240c22 -17 47 -37 99 -37c59 0 94 27 109 43c42 42 52 104 52 163c0 30 -2 47 -5 71z" />
    <glyph glyph-name="OE" unicode="&#x152;" horiz-adv-x="1104" 
d="M519 0v25c-25 -15 -66 -40 -149 -40c-210 0 -339 159 -339 366c0 247 174 367 337 367c86 0 128 -27 151 -41v29h535v-154h-322v-105h300v-154h-300v-139h357v-154h-570zM519 194v317c-27 19 -52 35 -107 35c-23 0 -70 -1 -109 -40c-39 -40 -50 -99 -50 -155
c0 -120 56 -193 147 -193c51 0 87 19 119 36z" />
    <glyph glyph-name="ordmasculine" unicode="&#xba;" horiz-adv-x="417" 
d="M199 717c128 4 200 -71 200 -177c0 -126 -94 -179 -197 -179c-125 0 -187 83 -187 176c0 85 51 176 184 180zM203 623c-16 -1 -33 -6 -45 -29c-11 -21 -11 -49 -11 -56c0 -38 10 -83 60 -83c49 0 59 46 59 86c0 23 -2 87 -63 82z" />
    <glyph glyph-name="ae" unicode="&#xe6;" horiz-adv-x="938" 
d="M230 362l-194 -3c3 29 8 66 46 106c36 38 106 73 215 73c33 0 73 -3 119 -13c38 -9 52 -18 72 -30c33 19 76 44 158 44c65 0 137 -18 196 -76c80 -78 80 -170 79 -240h-360c0 -14 0 -26 3 -38c10 -45 49 -61 84 -61c64 0 87 49 97 70l168 -71c-14 -20 -24 -37 -46 -58
c-50 -49 -119 -86 -223 -86c-106 0 -161 39 -192 62c-42 -23 -115 -62 -224 -62c-38 0 -67 5 -91 12c-116 37 -120 136 -120 159c0 56 27 119 96 149c30 13 68 19 149 30c35 5 79 13 105 19c1 30 -2 68 -67 68c-57 0 -66 -23 -70 -54zM564 330h147c0 8 -1 16 -2 24
c-9 41 -44 51 -69 51c-65 0 -73 -56 -76 -75zM373 236c-33 -10 -39 -12 -99 -26c-34 -8 -66 -18 -66 -50c0 -14 10 -42 52 -42c31 0 61 16 78 33c28 26 31 54 35 85z" />
    <glyph glyph-name="dotlessi" unicode="&#x131;" horiz-adv-x="292" 
d="M42 0v518h206v-518h-206z" />
    <glyph glyph-name="lslash" unicode="&#x142;" horiz-adv-x="292" 
d="M248 706v-208l44 29v-113l-44 -29v-385h-207v245l-41 -28v111l41 29v349h207z" />
    <glyph glyph-name="oslash" unicode="&#xf8;" 
d="M4 39l60 52c-24 43 -46 82 -46 161c0 180 117 293 302 293c50 0 99 -8 145 -25c28 -11 40 -19 59 -33l56 48l44 -52l-53 -46c19 -28 55 -83 55 -180c0 -157 -106 -283 -314 -283c-113 0 -161 36 -202 66l-62 -54zM223 228l168 144c-7 9 -23 31 -69 31
c-96 0 -100 -98 -100 -134c0 -14 1 -27 1 -41zM418 307l-172 -150c9 -15 24 -41 77 -41c80 0 98 84 98 138c0 18 -2 36 -3 53z" />
    <glyph glyph-name="oe" unicode="&#x153;" horiz-adv-x="1000" 
d="M811 193l170 -71c-30 -41 -59 -82 -135 -114c-40 -17 -89 -29 -143 -29c-91 0 -145 33 -187 58c-32 -21 -86 -57 -196 -57c-216 0 -301 146 -301 278c0 155 105 283 302 283c71 0 143 -16 205 -53c29 18 86 53 179 53c77 0 153 -25 208 -79c72 -72 75 -157 77 -238h-364
c1 -14 2 -29 7 -42c16 -51 63 -57 80 -57c60 0 85 46 98 68zM630 333h148c0 7 -1 14 -2 22c-8 38 -42 53 -69 53c-21 0 -41 -8 -55 -22c-16 -17 -19 -35 -22 -53zM321 395c-96 -2 -96 -108 -96 -134c0 -47 7 -134 94 -134c84 0 98 84 98 142c0 59 -17 128 -96 126z" />
    <glyph glyph-name="germandbls" unicode="&#xdf;" horiz-adv-x="625" 
d="M41 0v454c1 67 3 136 62 192c69 65 178 66 217 66s130 -1 191 -58c28 -27 50 -65 50 -125c0 -83 -40 -107 -65 -121c39 -11 105 -28 105 -181c0 -69 -15 -138 -63 -186c-51 -50 -122 -54 -158 -54c-49 0 -71 10 -95 20v130c14 -9 30 -19 52 -19c49 0 68 41 68 117
c0 103 -39 109 -101 110v110c5 -1 11 -2 16 -2c36 0 53 29 53 66c0 43 -19 69 -62 69c-63 0 -64 -54 -64 -88v-500h-206z" />
    <glyph glyph-name="brokenbar" unicode="&#xa6;" horiz-adv-x="229" 
d="M51 -175v350h127v-350h-127zM178 325h-127v350h127v-350z" />
    <glyph glyph-name="Ograve" unicode="&#xd2;" horiz-adv-x="812" 
d="M406 732c279 0 378 -204 378 -372c0 -179 -105 -383 -382 -383c-289 0 -376 214 -376 375c0 202 125 380 380 380zM406 554c-80 0 -156 -55 -156 -201c0 -123 50 -197 156 -197c90 0 153 71 153 204c0 34 -3 65 -13 93c-34 98 -120 101 -140 101zM217 874h217l64 -120
h-131z" />
    <glyph glyph-name="Ccedilla" unicode="&#xc7;" horiz-adv-x="750" 
d="M546 274l190 -92c-19 -35 -35 -66 -69 -100c-95 -94 -210 -101 -255 -104l-17 -45c16 4 29 7 44 7c54 0 81 -40 81 -79c0 -57 -50 -99 -136 -99c-25 0 -50 3 -74 6l-1 59c12 -2 23 -4 34 -4c6 0 39 0 39 25c0 8 -7 21 -29 21c-16 0 -30 -6 -45 -12v45l50 77
c-46 4 -140 13 -224 97c-74 74 -107 172 -107 273c0 190 127 383 366 383c104 0 207 -36 283 -114c31 -32 44 -56 59 -83l-187 -93c-18 42 -52 117 -146 117c-41 0 -73 -16 -95 -38c-53 -51 -53 -131 -53 -159c0 -105 39 -204 148 -204c105 0 136 91 144 116z" />
    <glyph glyph-name="multiply" unicode="&#xd7;" horiz-adv-x="667" 
d="M605 110l-89 -91l-183 182l-182 -182l-90 91l182 181l-182 183l90 88l182 -181l183 181l89 -88l-181 -183z" />
    <glyph glyph-name="Ntilde" unicode="&#xd1;" horiz-adv-x="771" 
d="M44 0v706h237l159 -267c39 -73 50 -94 86 -173c-6 69 -7 84 -9 163v277h209v-706h-240l-143 244c-41 70 -53 92 -98 186c5 -64 6 -80 7 -144v-286h-208zM479 877h106c-9 -48 -22 -121 -117 -121c-27 0 -48 4 -87 12c-42 9 -52 11 -57 11c-22 0 -23 -15 -24 -23h-101
c8 46 23 122 113 122c29 0 43 -3 106 -17c10 -2 21 -4 31 -4c23 0 26 10 30 20z" />
    <glyph glyph-name="Otilde" unicode="&#xd5;" horiz-adv-x="812" 
d="M406 732c279 0 378 -204 378 -372c0 -179 -105 -383 -382 -383c-289 0 -376 214 -376 375c0 202 125 380 380 380zM406 554c-80 0 -156 -55 -156 -201c0 -123 50 -197 156 -197c90 0 153 71 153 204c0 34 -3 65 -13 93c-34 98 -120 101 -140 101zM500 877h106
c-9 -48 -22 -121 -117 -121c-27 0 -48 4 -87 12c-42 9 -52 11 -57 11c-22 0 -23 -15 -24 -23h-101c8 46 23 122 113 122c29 0 43 -3 106 -17c10 -2 21 -4 31 -4c23 0 26 10 30 20z" />
    <glyph glyph-name="mu" unicode="&#xb5;" 
d="M406 0v76c-20 -54 -39 -82 -84 -82s-63 23 -76 41v-223h-206v706h206v-282c0 -31 1 -84 75 -84c72 0 73 58 74 92v274h207v-518h-196z" />
    <glyph glyph-name="Oacute" unicode="&#xd3;" horiz-adv-x="812" 
d="M406 732c279 0 378 -204 378 -372c0 -179 -105 -383 -382 -383c-289 0 -376 214 -376 375c0 202 125 380 380 380zM406 554c-80 0 -156 -55 -156 -201c0 -123 50 -197 156 -197c90 0 153 71 153 204c0 34 -3 65 -13 93c-34 98 -120 101 -140 101zM315 754l65 120h217
l-150 -120h-132z" />
    <glyph glyph-name="thorn" unicode="&#xfe;" horiz-adv-x="625" 
d="M242 706v-228c16 18 49 54 138 54c165 0 226 -136 226 -276c0 -148 -69 -269 -228 -269c-84 0 -117 32 -134 48v-223h-203v894h201zM325 382c-20 1 -41 -7 -54 -21c-30 -28 -30 -75 -30 -104c0 -24 1 -49 9 -71c19 -54 62 -54 71 -54c20 0 40 9 53 22c17 17 29 47 29 99
c0 43 -5 127 -78 129z" />
    <glyph glyph-name="eth" unicode="&#xf0;" 
d="M569 646l-69 -15c31 -42 125 -168 125 -338c0 -218 -148 -313 -315 -313c-189 0 -290 123 -290 275c0 187 145 286 271 286c83 0 123 -47 141 -68c-14 30 -32 70 -72 126l-169 -38l-14 54l141 33c-22 25 -24 28 -39 44l143 32l38 -43l91 20zM320 395
c-78 -2 -95 -76 -95 -134c0 -50 12 -137 96 -137c71 0 95 60 95 139c0 31 -2 134 -96 132z" />
    <glyph glyph-name="Igrave" unicode="&#xcc;" horiz-adv-x="313" 
d="M44 0v706h224v-706h-224zM-33 874h217l64 -120h-131z" />
    <glyph glyph-name="Ocircumflex" unicode="&#xd4;" horiz-adv-x="812" 
d="M406 732c279 0 378 -204 378 -372c0 -179 -105 -383 -382 -383c-289 0 -376 214 -376 375c0 202 125 380 380 380zM406 554c-80 0 -156 -55 -156 -201c0 -123 50 -197 156 -197c90 0 153 71 153 204c0 34 -3 65 -13 93c-34 98 -120 101 -140 101zM235 751l93 123h161
l96 -123h-144l-34 52l-31 -52h-141z" />
    <glyph glyph-name="Eacute" unicode="&#xc9;" 
d="M43 0v706h559v-155h-335v-105h313v-153h-313v-140h365v-153h-589zM232 754l65 120h217l-150 -120h-132z" />
    <glyph glyph-name="Edieresis" unicode="&#xcb;" 
d="M43 0v706h559v-155h-335v-105h313v-153h-313v-140h365v-153h-589zM128 758v118h166v-118h-166zM357 758v118h166v-118h-166z" />
    <glyph glyph-name="Aacute" unicode="&#xc1;" horiz-adv-x="792" 
d="M-1 0l270 706h254l264 -706h-240l-31 98h-246l-31 -98h-240zM470 256l-75 249l-77 -249h152zM305 754l65 120h217l-150 -120h-132z" />
    <glyph glyph-name="Zcaron" unicode="&#x17d;" horiz-adv-x="667" 
d="M23 537v169h631v-144l-356 -390h355v-172h-651v141l362 396h-341zM506 874l-93 -123h-161l-96 123h144l34 -52l31 52h141z" />
    <glyph glyph-name="ccedilla" unicode="&#xe7;" horiz-adv-x="562" 
d="M403 224l157 -86c-19 -40 -69 -141 -231 -157l-20 -40c8 1 17 2 26 2c56 0 84 -36 84 -73c0 -17 -6 -37 -23 -54c-34 -34 -78 -34 -107 -34c-35 0 -54 3 -77 7l3 55c8 -3 12 -4 22 -4c30 0 43 11 43 22c0 2 0 16 -25 16c-12 0 -24 -2 -38 -6l3 36l49 72
c-178 14 -251 146 -251 282c0 84 30 154 74 200c72 75 175 79 214 79c38 0 135 -2 213 -81c20 -20 29 -34 41 -54l-157 -89c-14 48 -39 79 -87 79c-63 0 -94 -62 -94 -140c0 -31 4 -119 88 -119c64 0 84 61 93 87z" />
    <glyph glyph-name="logicalnot" unicode="&#xac;" horiz-adv-x="667" 
d="M539 0v227h-539v127h666v-354h-127z" />
    <glyph glyph-name="Atilde" unicode="&#xc3;" horiz-adv-x="792" 
d="M-1 0l270 706h254l264 -706h-240l-31 98h-246l-31 -98h-240zM470 256l-75 249l-77 -249h152zM490 877h106c-9 -48 -22 -121 -117 -121c-27 0 -48 4 -87 12c-42 9 -52 11 -57 11c-22 0 -23 -15 -24 -23h-101c8 46 23 122 113 122c29 0 43 -3 106 -17c10 -2 21 -4 31 -4
c23 0 26 10 30 20z" />
    <glyph glyph-name="Thorn" unicode="&#xde;" horiz-adv-x="708" 
d="M44 0v707h224v-100h179c78 -3 145 -6 202 -66c52 -55 59 -121 59 -165c0 -61 -13 -124 -67 -180c-59 -61 -124 -64 -201 -66h-172v-130h-224zM394 458h-126v-180h128c12 1 25 1 37 5c34 11 54 43 54 86c0 83 -65 87 -93 89z" />
    <glyph glyph-name="onequarter" unicode="&#xbc;" horiz-adv-x="1000" 
d="M306 0l301 706h92l-302 -706h-91zM77 520v106c62 0 94 5 111 59h121v-442h-139v285c-26 -7 -38 -9 -93 -8zM574 176l203 267h136v-257h63v-97h-63v-89h-130v89h-209v87zM784 186l1 60c0 24 1 47 3 71c-14 -22 -28 -44 -43 -66s-31 -43 -48 -65h87z" />
    <glyph glyph-name="Acircumflex" unicode="&#xc2;" horiz-adv-x="792" 
d="M-1 0l270 706h254l264 -706h-240l-31 98h-246l-31 -98h-240zM470 256l-75 249l-77 -249h152zM225 751l93 123h161l96 -123h-144l-34 52l-31 -52h-141z" />
    <glyph glyph-name="Odieresis" unicode="&#xd6;" horiz-adv-x="812" 
d="M406 732c279 0 378 -204 378 -372c0 -179 -105 -383 -382 -383c-289 0 -376 214 -376 375c0 202 125 380 380 380zM406 554c-80 0 -156 -55 -156 -201c0 -123 50 -197 156 -197c90 0 153 71 153 204c0 34 -3 65 -13 93c-34 98 -120 101 -140 101zM209 758v118h166v-118
h-166zM438 758v118h166v-118h-166z" />
    <glyph glyph-name="threequarters" unicode="&#xbe;" horiz-adv-x="1000" 
d="M305 0l301 706h93l-303 -706h-91zM573 176l204 267h136v-257h63v-97h-63v-89h-130v89h-210v87zM784 186l1 60c0 24 1 47 3 70c-14 -21 -28 -43 -43 -65s-32 -43 -48 -65h87zM149 544l-127 8c4 24 12 70 52 103c40 34 100 39 141 39c34 0 69 -3 100 -16
c72 -28 80 -85 80 -111c0 -60 -38 -81 -58 -92c33 -13 72 -37 72 -97c0 -27 -9 -82 -64 -115c-39 -24 -86 -28 -132 -28c-122 0 -184 41 -204 136l128 24c5 -44 32 -61 72 -61c33 0 60 14 60 49c0 41 -52 41 -64 41c-10 0 -19 -1 -28 -1l-1 93c46 -1 87 -2 87 40
c0 29 -23 42 -55 42c-42 0 -53 -20 -59 -54z" />
    <glyph glyph-name="Ucircumflex" unicode="&#xdb;" horiz-adv-x="729" 
d="M42 286v420h224v-441c0 -30 1 -61 26 -85c18 -19 45 -26 71 -26c35 0 58 13 71 25c26 25 27 56 27 86v441h225v-376c0 -81 0 -186 -83 -265c-51 -48 -133 -84 -242 -84c-104 0 -194 34 -246 84c-70 68 -71 147 -73 221zM194 751l93 123h161l96 -123h-144l-34 52l-31 -52
h-141z" />
    <glyph glyph-name="Ugrave" unicode="&#xd9;" horiz-adv-x="729" 
d="M42 286v420h224v-441c0 -30 1 -61 26 -85c18 -19 45 -26 71 -26c35 0 58 13 71 25c26 25 27 56 27 86v441h225v-376c0 -81 0 -186 -83 -265c-51 -48 -133 -84 -242 -84c-104 0 -194 34 -246 84c-70 68 -71 147 -73 221zM176 874h217l64 -120h-131z" />
    <glyph glyph-name="Udieresis" unicode="&#xdc;" horiz-adv-x="729" 
d="M42 286v420h224v-441c0 -30 1 -61 26 -85c18 -19 45 -26 71 -26c35 0 58 13 71 25c26 25 27 56 27 86v441h225v-376c0 -81 0 -186 -83 -265c-51 -48 -133 -84 -242 -84c-104 0 -194 34 -246 84c-70 68 -71 147 -73 221zM166 757v118h166v-118h-166zM395 757v118h166v-118
h-166z" />
    <glyph glyph-name="Iacute" unicode="&#xcd;" horiz-adv-x="313" 
d="M44 0v706h224v-706h-224zM65 754l65 120h217l-150 -120h-132z" />
    <glyph glyph-name="Agrave" unicode="&#xc0;" horiz-adv-x="792" 
d="M-1 0l270 706h254l264 -706h-240l-31 98h-246l-31 -98h-240zM470 256l-75 249l-77 -249h152zM207 874h217l64 -120h-131z" />
    <glyph glyph-name="degree" unicode="&#xb0;" horiz-adv-x="354" 
d="M5 574c0 95 77 172 172 172s172 -77 172 -172s-77 -172 -172 -172s-172 77 -172 172zM121 574c0 -31 25 -56 56 -56s56 25 56 56s-25 56 -56 56s-56 -25 -56 -56z" />
    <glyph glyph-name="onehalf" unicode="&#xbd;" horiz-adv-x="1000" 
d="M282 0l302 706h92l-302 -706h-92zM77 520v106c62 0 94 5 111 59h121v-442h-139v285c-26 -7 -38 -9 -93 -8zM722 251l-137 17c2 43 4 89 35 125c47 55 130 55 168 55c32 0 94 -1 138 -38c43 -38 44 -91 44 -104c0 -84 -62 -129 -86 -146c-25 -18 -52 -34 -79 -50h159v-110
h-381v89c47 26 130 72 195 130c49 43 51 68 51 82c0 39 -31 49 -54 49c-31 0 -57 -12 -57 -62c0 -13 2 -24 4 -37z" />
    <glyph glyph-name="minus" unicode="&#x2212;" horiz-adv-x="667" 
d="M667 354v-127h-667v127h667z" />
    <glyph glyph-name="Yacute" unicode="&#xdd;" horiz-adv-x="792" 
d="M-3 706h258l138 -235l136 235h259l-285 -409v-297h-223v297zM305 754l65 120h217l-150 -120h-132z" />
    <glyph glyph-name="twosuperior" unicode="&#xb2;" horiz-adv-x="437" 
d="M159 494l-137 17c2 43 4 89 35 125c47 55 130 55 168 55c32 0 94 -1 138 -38c43 -38 44 -91 44 -104c0 -84 -62 -129 -86 -146c-25 -18 -52 -34 -79 -50h159v-110h-381v89c47 26 130 72 195 130c49 43 51 68 51 82c0 39 -31 49 -54 49c-31 0 -57 -12 -57 -62
c0 -13 2 -24 4 -37z" />
    <glyph glyph-name="Uacute" unicode="&#xda;" horiz-adv-x="729" 
d="M42 286v420h224v-441c0 -30 1 -61 26 -85c18 -19 45 -26 71 -26c35 0 58 13 71 25c26 25 27 56 27 86v441h225v-376c0 -81 0 -186 -83 -265c-51 -48 -133 -84 -242 -84c-104 0 -194 34 -246 84c-70 68 -71 147 -73 221zM274 754l65 120h217l-150 -120h-132z" />
    <glyph glyph-name="registered" unicode="&#xae;" horiz-adv-x="833" 
d="M250 586h163c39 0 77 -1 108 -11c58 -18 81 -71 81 -113c0 -68 -51 -92 -80 -105c28 -18 41 -29 51 -86c10 -62 16 -101 39 -143h-126c-14 28 -19 59 -25 99c-12 86 -15 91 -82 93h-19v-192h-110v458zM360 502v-95h48c33 0 51 1 64 9c14 8 20 26 20 40c0 15 -6 33 -24 41
c-13 5 -21 5 -75 5h-33zM773 352c-1 -198 -156 -355 -358 -355c-185 0 -355 145 -355 356c0 205 164 356 356 356c206 0 358 -163 357 -357zM741 352c1 177 -138 325 -323 325c-183 0 -326 -146 -326 -324c0 -182 146 -324 324 -324c183 0 324 144 325 323z" />
    <glyph glyph-name="copyright" unicode="&#xa9;" horiz-adv-x="833" 
d="M773 351c-2 -203 -162 -354 -355 -354c-192 0 -357 148 -357 356c0 202 162 356 356 356c211 0 357 -167 356 -358zM741 351c0 177 -135 326 -323 326c-178 0 -325 -141 -325 -326c0 -171 137 -322 324 -322c90 0 179 37 240 103c64 70 84 161 84 219zM534 270l87 -81
c-53 -55 -111 -84 -195 -84c-170 0 -251 120 -251 249c0 137 96 250 249 250c111 0 164 -53 197 -86l-87 -84c-22 20 -54 50 -109 50c-80 0 -126 -56 -126 -129s42 -130 129 -130c59 0 92 32 106 45z" />
    <glyph glyph-name="Ecircumflex" unicode="&#xca;" 
d="M43 0v706h559v-155h-335v-105h313v-153h-313v-140h365v-153h-589zM152 751l93 123h161l96 -123h-144l-34 52l-31 -52h-141z" />
    <glyph glyph-name="trademark" unicode="&#x2122;" horiz-adv-x="688" 
d="M674 706v-332h-82l4 177l5 67l-13 -53l-57 -191h-74l-59 192l-14 51l6 -66l5 -177h-81v332h106l76 -240l71 240h107zM186 639v-265h-84v265h-102v67h287v-67h-101z" />
    <glyph glyph-name="plusminus" unicode="&#xb1;" horiz-adv-x="667" 
d="M398 371v-209h-127v209h-228v127h228v208h127v-208h227v-127h-227zM625 127v-127h-582v127h582z" />
    <glyph glyph-name="Eth" unicode="&#xd0;" horiz-adv-x="750" 
d="M44 0v300h-44v131h44v275h240c158 -2 260 -3 343 -81c73 -68 98 -169 98 -269c0 -149 -57 -290 -198 -337c-57 -19 -120 -19 -189 -19h-294zM268 541v-110h145v-131h-145v-138h85c32 2 63 3 94 33c33 32 53 91 53 158c0 34 -5 70 -18 104c-30 80 -86 82 -130 84h-84z" />
    <glyph glyph-name="Adieresis" unicode="&#xc4;" horiz-adv-x="792" 
d="M-1 0l270 706h254l264 -706h-240l-31 98h-246l-31 -98h-240zM470 256l-75 249l-77 -249h152zM199 758v118h166v-118h-166zM428 758v118h166v-118h-166z" />
    <glyph glyph-name="Aring" unicode="&#xc5;" horiz-adv-x="792" 
d="M-1 0l270 706h254l264 -706h-240l-31 98h-246l-31 -98h-240zM470 256l-75 249l-77 -249h152zM369 805c6 -7 16 -11 25 -11c20 0 36 16 36 37c0 19 -15 36 -36 36c-20 0 -36 -17 -36 -36c0 -10 4 -20 11 -26zM311 758c-20 18 -33 45 -33 73c0 42 32 100 116 100
c82 0 116 -57 116 -100c0 -44 -34 -101 -116 -101c-31 0 -61 8 -83 28z" />
    <glyph glyph-name="Ydieresis" unicode="&#x178;" horiz-adv-x="792" 
d="M-3 706h258l138 -235l136 235h259l-285 -409v-297h-223v297zM201 758v118h166v-118h-166zM430 758v118h166v-118h-166z" />
    <glyph glyph-name="divide" unicode="&#xf7;" horiz-adv-x="667" 
d="M667 354v-127h-667v127h667zM253 470c0 44 36 80 80 80s80 -36 80 -80s-36 -80 -80 -80s-80 36 -80 80zM253 111c0 44 36 80 80 80s80 -36 80 -80s-36 -80 -80 -80s-80 36 -80 80z" />
    <glyph glyph-name="onesuperior" unicode="&#xb9;" horiz-adv-x="437" 
d="M77 520v106c62 0 94 5 111 59h121v-442h-139v285c-26 -7 -38 -9 -93 -8z" />
    <glyph glyph-name="threesuperior" unicode="&#xb3;" horiz-adv-x="437" 
d="M149 544l-127 8c4 24 12 70 52 103c40 34 100 39 141 39c34 0 69 -3 100 -16c72 -28 80 -85 80 -111c0 -60 -38 -81 -58 -92c33 -13 72 -37 72 -97c0 -27 -9 -82 -64 -115c-39 -24 -86 -28 -132 -28c-122 0 -184 41 -204 136l128 24c5 -44 32 -61 72 -61
c33 0 60 14 60 49c0 41 -52 41 -64 41c-10 0 -19 -1 -28 -1l-1 93c46 -1 87 -2 87 40c0 29 -23 42 -55 42c-42 0 -53 -20 -59 -54z" />
    <glyph glyph-name="Egrave" unicode="&#xc8;" 
d="M43 0v706h559v-155h-335v-105h313v-153h-313v-140h365v-153h-589zM134 874h217l64 -120h-131z" />
    <glyph glyph-name="Idieresis" unicode="&#xcf;" horiz-adv-x="313" 
d="M44 0v706h224v-706h-224zM-39 758v118h166v-118h-166zM190 758v118h166v-118h-166z" />
    <glyph glyph-name="Scaron" unicode="&#x160;" horiz-adv-x="729" 
d="M7 134l171 110c20 -31 37 -57 98 -77c29 -10 65 -16 99 -16c18 0 106 2 106 53c0 5 0 31 -39 44c-25 9 -155 32 -184 39c-65 17 -192 57 -192 206c0 31 7 63 20 91c46 104 165 145 292 145c81 0 155 -16 213 -45c53 -26 79 -54 104 -80l-140 -117c-11 14 -23 30 -54 46
c-41 20 -95 26 -131 26c-38 0 -80 -10 -80 -46c0 -34 36 -43 97 -54c157 -27 313 -55 313 -230c0 -74 -31 -126 -63 -159c-89 -91 -231 -91 -270 -91c-53 0 -109 5 -164 21c-112 32 -164 95 -196 134zM538 874l-93 -123h-161l-96 123h144l34 -52l31 52h141z" />
    <glyph glyph-name="Icircumflex" unicode="&#xce;" horiz-adv-x="313" 
d="M44 0v706h224v-706h-224zM-15 751l93 123h161l96 -123h-144l-34 52l-31 -52h-141z" />
    <glyph glyph-name="space" unicode=" " horiz-adv-x="313" 
 />
    <glyph glyph-name="aacute" unicode="&#xe1;" horiz-adv-x="604" 
d="M230 367l-193 -5c8 44 19 99 93 138c58 30 132 35 186 35c246 0 246 -127 246 -189v-282c0 -34 3 -43 18 -64h-203v40c-26 -18 -74 -52 -171 -52c-130 0 -187 79 -187 167c0 31 7 74 44 111c47 48 103 56 194 68c57 8 79 13 110 22c-1 35 -11 59 -70 59
c-47 0 -60 -12 -67 -48zM366 241c-20 -7 -40 -14 -61 -20c-17 -4 -35 -8 -53 -14c-40 -16 -42 -40 -42 -46c0 -14 12 -40 51 -40c29 0 77 19 95 59c10 22 10 43 10 61zM231 587l77 137h212l-161 -137h-128z" />
    <glyph glyph-name="acircumflex" unicode="&#xe2;" horiz-adv-x="604" 
d="M230 367l-193 -5c8 44 19 99 93 138c58 30 132 35 186 35c246 0 246 -127 246 -189v-282c0 -34 3 -43 18 -64h-203v40c-26 -18 -74 -52 -171 -52c-130 0 -187 79 -187 167c0 31 7 74 44 111c47 48 103 56 194 68c57 8 79 13 110 22c-1 35 -11 59 -70 59
c-47 0 -60 -12 -67 -48zM366 241c-20 -7 -40 -14 -61 -20c-17 -4 -35 -8 -53 -14c-40 -16 -42 -40 -42 -46c0 -14 12 -40 51 -40c29 0 77 19 95 59c10 22 10 43 10 61zM122 586l106 138h156l104 -138h-143l-41 66l-40 -66h-142z" />
    <glyph glyph-name="adieresis" unicode="&#xe4;" horiz-adv-x="604" 
d="M230 367l-193 -5c8 44 19 99 93 138c58 30 132 35 186 35c246 0 246 -127 246 -189v-282c0 -34 3 -43 18 -64h-203v40c-26 -18 -74 -52 -171 -52c-130 0 -187 79 -187 167c0 31 7 74 44 111c47 48 103 56 194 68c57 8 79 13 110 22c-1 35 -11 59 -70 59
c-47 0 -60 -12 -67 -48zM366 241c-20 -7 -40 -14 -61 -20c-17 -4 -35 -8 -53 -14c-40 -16 -42 -40 -42 -46c0 -14 12 -40 51 -40c29 0 77 19 95 59c10 22 10 43 10 61zM115 605v119h166v-119h-166zM360 605v119h165v-119h-165z" />
    <glyph glyph-name="agrave" unicode="&#xe0;" horiz-adv-x="604" 
d="M230 367l-193 -5c8 44 19 99 93 138c58 30 132 35 186 35c246 0 246 -127 246 -189v-282c0 -34 3 -43 18 -64h-203v40c-26 -18 -74 -52 -171 -52c-130 0 -187 79 -187 167c0 31 7 74 44 111c47 48 103 56 194 68c57 8 79 13 110 22c-1 35 -11 59 -70 59
c-47 0 -60 -12 -67 -48zM366 241c-20 -7 -40 -14 -61 -20c-17 -4 -35 -8 -53 -14c-40 -16 -42 -40 -42 -46c0 -14 12 -40 51 -40c29 0 77 19 95 59c10 22 10 43 10 61zM133 724h213l76 -137h-127z" />
    <glyph glyph-name="aring" unicode="&#xe5;" horiz-adv-x="604" 
d="M230 367l-193 -5c8 44 19 99 93 138c58 30 132 35 186 35c246 0 246 -127 246 -189v-282c0 -34 3 -43 18 -64h-203v40c-26 -18 -74 -52 -171 -52c-130 0 -187 79 -187 167c0 31 7 74 44 111c47 48 103 56 194 68c57 8 79 13 110 22c-1 35 -11 59 -70 59
c-47 0 -60 -12 -67 -48zM366 241c-20 -7 -40 -14 -61 -20c-17 -4 -35 -8 -53 -14c-40 -16 -42 -40 -42 -46c0 -14 12 -40 51 -40c29 0 77 19 95 59c10 22 10 43 10 61zM210 690c0 61 50 111 111 111s111 -50 111 -111s-50 -111 -111 -111s-111 50 -111 111zM285 690
c0 -20 16 -36 36 -36s36 16 36 36s-16 36 -36 36s-36 -16 -36 -36z" />
    <glyph glyph-name="atilde" unicode="&#xe3;" horiz-adv-x="604" 
d="M230 367l-193 -5c8 44 19 99 93 138c58 30 132 35 186 35c246 0 246 -127 246 -189v-282c0 -34 3 -43 18 -64h-203v40c-26 -18 -74 -52 -171 -52c-130 0 -187 79 -187 167c0 31 7 74 44 111c47 48 103 56 194 68c57 8 79 13 110 22c-1 35 -11 59 -70 59
c-47 0 -60 -12 -67 -48zM366 241c-20 -7 -40 -14 -61 -20c-17 -4 -35 -8 -53 -14c-40 -16 -42 -40 -42 -46c0 -14 12 -40 51 -40c29 0 77 19 95 59c10 22 10 43 10 61zM203 588h-89c7 55 17 139 100 139c20 0 50 -5 95 -18c46 -12 51 -14 58 -14c29 0 29 23 29 28h90
c-7 -60 -19 -139 -98 -139c-24 0 -51 6 -86 15c-60 15 -62 16 -75 16c-22 0 -24 -17 -24 -27z" />
    <glyph glyph-name="eacute" unicode="&#xe9;" horiz-adv-x="604" 
d="M408 192l170 -71c-61 -93 -151 -142 -275 -142c-192 0 -286 138 -286 282c0 169 117 278 285 278c63 0 145 -16 208 -77c76 -75 77 -161 79 -240h-362c1 -23 2 -50 25 -73c5 -5 24 -24 62 -24c47 0 73 25 94 67zM229 331h150c-1 8 -1 16 -3 24c-9 37 -41 53 -69 53
c-62 0 -73 -54 -78 -77zM205 587l77 137h212l-161 -137h-128z" />
    <glyph glyph-name="ecircumflex" unicode="&#xea;" horiz-adv-x="604" 
d="M408 192l170 -71c-61 -93 -151 -142 -275 -142c-192 0 -286 138 -286 282c0 169 117 278 285 278c63 0 145 -16 208 -77c76 -75 77 -161 79 -240h-362c1 -23 2 -50 25 -73c5 -5 24 -24 62 -24c47 0 73 25 94 67zM229 331h150c-1 8 -1 16 -3 24c-9 37 -41 53 -69 53
c-62 0 -73 -54 -78 -77zM122 586l106 138h156l104 -138h-143l-41 66l-40 -66h-142z" />
    <glyph glyph-name="edieresis" unicode="&#xeb;" horiz-adv-x="604" 
d="M408 192l170 -71c-61 -93 -151 -142 -275 -142c-192 0 -286 138 -286 282c0 169 117 278 285 278c63 0 145 -16 208 -77c76 -75 77 -161 79 -240h-362c1 -23 2 -50 25 -73c5 -5 24 -24 62 -24c47 0 73 25 94 67zM229 331h150c-1 8 -1 16 -3 24c-9 37 -41 53 -69 53
c-62 0 -73 -54 -78 -77zM98 605v119h166v-119h-166zM343 605v119h165v-119h-165z" />
    <glyph glyph-name="egrave" unicode="&#xe8;" horiz-adv-x="604" 
d="M408 192l170 -71c-61 -93 -151 -142 -275 -142c-192 0 -286 138 -286 282c0 169 117 278 285 278c63 0 145 -16 208 -77c76 -75 77 -161 79 -240h-362c1 -23 2 -50 25 -73c5 -5 24 -24 62 -24c47 0 73 25 94 67zM229 331h150c-1 8 -1 16 -3 24c-9 37 -41 53 -69 53
c-62 0 -73 -54 -78 -77zM117 724h213l76 -137h-127z" />
    <glyph glyph-name="iacute" unicode="&#xed;" horiz-adv-x="292" 
d="M42 0v518h206v-518h-206zM48 587l77 137h212l-161 -137h-128z" />
    <glyph glyph-name="icircumflex" unicode="&#xee;" horiz-adv-x="292" 
d="M42 0v518h206v-518h-206zM-35 586l106 138h156l104 -138h-143l-41 66l-40 -66h-142z" />
    <glyph glyph-name="idieresis" unicode="&#xef;" horiz-adv-x="292" 
d="M42 0v518h206v-518h-206zM-59 605v119h166v-119h-166zM186 605v119h165v-119h-165z" />
    <glyph glyph-name="igrave" unicode="&#xec;" horiz-adv-x="292" 
d="M42 0v518h206v-518h-206zM-40 724h213l76 -137h-127z" />
    <glyph glyph-name="ntilde" unicode="&#xf1;" 
d="M236 518v-69c17 24 56 82 170 82c82 0 123 -32 140 -48c49 -48 52 -117 52 -156v-327h-206v283c0 26 -1 78 -70 78c-73 0 -75 -57 -75 -85v-276h-206v518h195zM224 588h-89c7 55 17 139 100 139c20 0 50 -5 95 -18c46 -12 51 -14 58 -14c29 0 29 23 29 28h90
c-7 -60 -19 -139 -98 -139c-24 0 -51 6 -86 15c-60 15 -62 16 -75 16c-22 0 -24 -17 -24 -27z" />
    <glyph glyph-name="oacute" unicode="&#xf3;" 
d="M326 540c105 -1 177 -37 217 -75c49 -47 81 -125 81 -207c0 -163 -113 -278 -309 -278c-209 0 -295 136 -295 275c0 170 115 286 306 285zM320 395c-78 -2 -95 -76 -95 -134c0 -50 12 -137 96 -137c72 0 95 61 95 139c0 31 -2 135 -96 132zM226 587l77 137h212l-161 -137
h-128z" />
    <glyph glyph-name="ocircumflex" unicode="&#xf4;" 
d="M326 540c105 -1 177 -37 217 -75c49 -47 81 -125 81 -207c0 -163 -113 -278 -309 -278c-209 0 -295 136 -295 275c0 170 115 286 306 285zM320 395c-78 -2 -95 -76 -95 -134c0 -50 12 -137 96 -137c72 0 95 61 95 139c0 31 -2 135 -96 132zM143 586l106 138h156l104 -138
h-143l-41 66l-40 -66h-142z" />
    <glyph glyph-name="odieresis" unicode="&#xf6;" 
d="M326 540c105 -1 177 -37 217 -75c49 -47 81 -125 81 -207c0 -163 -113 -278 -309 -278c-209 0 -295 136 -295 275c0 170 115 286 306 285zM320 395c-78 -2 -95 -76 -95 -134c0 -50 12 -137 96 -137c72 0 95 61 95 139c0 31 -2 135 -96 132zM117 605v119h166v-119h-166z
M362 605v119h165v-119h-165z" />
    <glyph glyph-name="ograve" unicode="&#xf2;" 
d="M326 540c105 -1 177 -37 217 -75c49 -47 81 -125 81 -207c0 -163 -113 -278 -309 -278c-209 0 -295 136 -295 275c0 170 115 286 306 285zM320 395c-78 -2 -95 -76 -95 -134c0 -50 12 -137 96 -137c72 0 95 61 95 139c0 31 -2 135 -96 132zM138 724h213l76 -137h-127z
" />
    <glyph glyph-name="otilde" unicode="&#xf5;" 
d="M326 540c105 -1 177 -37 217 -75c49 -47 81 -125 81 -207c0 -163 -113 -278 -309 -278c-209 0 -295 136 -295 275c0 170 115 286 306 285zM320 395c-78 -2 -95 -76 -95 -134c0 -50 12 -137 96 -137c72 0 95 61 95 139c0 31 -2 135 -96 132zM224 588h-89
c7 55 17 139 100 139c20 0 50 -5 95 -18c46 -12 51 -14 58 -14c29 0 29 23 29 28h90c-7 -60 -19 -139 -98 -139c-24 0 -51 6 -86 15c-60 15 -62 16 -75 16c-22 0 -24 -17 -24 -27z" />
    <glyph glyph-name="scaron" unicode="&#x161;" horiz-adv-x="542" 
d="M0 84l115 105c19 -19 38 -36 78 -53c37 -15 65 -17 82 -17c25 0 54 9 54 32c0 26 -31 31 -52 34c-18 3 -61 10 -108 24c-48 14 -143 42 -143 152c0 46 21 88 52 118c61 58 149 60 183 60c39 0 78 -5 117 -14c71 -17 101 -39 130 -61l-111 -101c-35 22 -78 49 -133 49
c-8 0 -44 0 -44 -27c0 -19 14 -22 83 -39c92 -21 114 -26 139 -39c52 -28 81 -76 81 -135c0 -102 -85 -192 -246 -192c-148 0 -233 68 -277 104zM454 724l-106 -138h-156l-103 138h142l41 -66l40 66h142z" />
    <glyph glyph-name="uacute" unicode="&#xfa;" 
d="M40 203v315h206v-282c0 -31 1 -84 74 -84s74 57 75 92v274h207v-518h-196v76c-7 -15 -11 -24 -26 -38c-38 -37 -92 -51 -145 -51c-82 1 -125 32 -143 51c-50 49 -51 116 -52 165zM226 587l77 137h212l-161 -137h-128z" />
    <glyph glyph-name="ucircumflex" unicode="&#xfb;" 
d="M40 203v315h206v-282c0 -31 1 -84 74 -84s74 57 75 92v274h207v-518h-196v76c-7 -15 -11 -24 -26 -38c-38 -37 -92 -51 -145 -51c-82 1 -125 32 -143 51c-50 49 -51 116 -52 165zM143 586l106 138h156l104 -138h-143l-41 66l-40 -66h-142z" />
    <glyph glyph-name="udieresis" unicode="&#xfc;" 
d="M40 203v315h206v-282c0 -31 1 -84 74 -84s74 57 75 92v274h207v-518h-196v76c-7 -15 -11 -24 -26 -38c-38 -37 -92 -51 -145 -51c-82 1 -125 32 -143 51c-50 49 -51 116 -52 165zM115 605v119h166v-119h-166zM360 605v119h165v-119h-165z" />
    <glyph glyph-name="ugrave" unicode="&#xf9;" 
d="M40 203v315h206v-282c0 -31 1 -84 74 -84s74 57 75 92v274h207v-518h-196v76c-7 -15 -11 -24 -26 -38c-38 -37 -92 -51 -145 -51c-82 1 -125 32 -143 51c-50 49 -51 116 -52 165zM138 724h213l76 -137h-127z" />
    <glyph glyph-name="yacute" unicode="&#xfd;" horiz-adv-x="583" 
d="M164 42l-164 476h215l51 -223c11 -61 14 -75 24 -152c9 81 13 98 25 158l52 217h214l-189 -548c-14 -39 -28 -81 -61 -113c-44 -43 -80 -44 -144 -44c-46 0 -68 2 -109 7v147c17 -1 39 -3 58 -3c28 0 44 6 44 25c0 9 -12 41 -16 53zM194 587l77 137h212l-161 -137h-128z
" />
    <glyph glyph-name="ydieresis" unicode="&#xff;" horiz-adv-x="583" 
d="M164 42l-164 476h215l51 -223c11 -61 14 -75 24 -152c9 81 13 98 25 158l52 217h214l-189 -548c-14 -39 -28 -81 -61 -113c-44 -43 -80 -44 -144 -44c-46 0 -68 2 -109 7v147c17 -1 39 -3 58 -3c28 0 44 6 44 25c0 9 -12 41 -16 53zM87 605v119h166v-119h-166zM332 605
v119h165v-119h-165z" />
    <glyph glyph-name="zcaron" unicode="&#x17e;" horiz-adv-x="542" 
d="M39 364v154h490v-118l-241 -245h239v-155h-519v114l246 250h-215zM454 724l-106 -138h-156l-103 138h142l41 -66l40 66h142z" />
    </font>
</defs>
</svg>
