<?xml version="1.0" standalone="no"?>
<!DOCTYPE svg PUBLIC "-//W3C//DTD SVG 1.1//EN" "http://www.w3.org/Graphics/SVG/1.1/DTD/svg11.dtd" >
<svg>
<metadata>
Created by FontForge 20110222 at Thu Nov  1 21:53:02 2012
 By www-data
(c) Ocarina 1999
</metadata>
<defs>
<font id="Speculum" horiz-adv-x="900" >
  <font-face 
    font-family="Speculum"
    font-weight="400"
    font-stretch="normal"
    units-per-em="1000"
    panose-1="0 0 4 0 0 0 0 0 0 0"
    ascent="800"
    descent="-200"
    x-height="486"
    cap-height="586"
    bbox="63 -87 836 800"
    underline-thickness="20"
    underline-position="-123"
    unicode-range="U+0020-20AC"
  />
<missing-glyph horiz-adv-x="500" 
d="M63 0v800h375v-800h-375zM125 63h250v675h-250v-675z" />
    <glyph glyph-name=".notdef" horiz-adv-x="500" 
d="M63 0v800h375v-800h-375zM125 63h250v675h-250v-675z" />
    <glyph glyph-name=".null" horiz-adv-x="0" 
 />
    <glyph glyph-name="nonmarkingreturn" 
 />
    <glyph glyph-name="space" unicode=" " 
 />
    <glyph glyph-name="exclam" unicode="!" 
d="M415 48q0 15 10.5 25.5t25.5 10.5t25.5 -10.5t10.5 -25.5t-10.5 -25.5t-25.5 -10.5t-25.5 10.5t-10.5 25.5zM413 250v300q0 36 36 36t36 -36v-300q0 -36 -36 -36t-36 36z" />
    <glyph glyph-name="quotedbl" unicode="&#x22;" 
d="M336 750v-100q0 -36 -36 -36t-36 36v100q0 36 36 36t36 -36zM636 750v-100q0 -36 -36 -36t-36 36v100q0 36 36 36t36 -36z" />
    <glyph glyph-name="numbersign" unicode="#" 
d="M564 186v228h-228v-228h228zM636 550v-64h64q36 0 36 -36t-36 -36h-64v-228h64q36 0 36 -36t-36 -36h-64v-64q0 -36 -36 -36t-36 36v64h-228v-64q0 -36 -36 -36t-36 36v64h-64q-36 0 -36 36t36 36h64v228h-64q-36 0 -36 36t36 36h64v64q0 36 36 36t36 -36v-64h228v64
q0 36 36 36t36 -36z" />
    <glyph glyph-name="dollar" unicode="$" 
d="M414 286v128h-128v-128h128zM486 214v-128h128v128h-128zM486 550v-64h164q36 0 36 -36t-36 -36h-164v-128h164q14 0 25 -11t11 -25v-200q0 -14 -11 -25t-25 -11h-164v-64q0 -36 -36 -36t-36 36v64h-164q-36 0 -36 36t36 36h164v128h-164q-14 0 -25 11t-11 25v200
q0 14 11 25t25 11h164v64q0 36 36 36t36 -36z" />
    <glyph glyph-name="percent" unicode="%" 
d="M175 75l500 500q11 12 25 12t25.5 -11.5t11.5 -25.5t-12 -25l-500 -500q-11 -12 -25 -12t-25.5 11.5t-11.5 25.5t12 25zM700 186q14 0 25 -11t11 -25v-100q0 -14 -11 -25t-25 -11h-100q-14 0 -25 11t-11 25v100q0 14 11 25t25 11h100zM300 586q14 0 25 -11t11 -25v-100
q0 -14 -11 -25t-25 -11h-100q-14 0 -25 11t-11 25v100q0 14 11 25t25 11h100z" />
    <glyph glyph-name="ampersand" unicode="&#x26;" 
d="M350 401l49 49l-49 49l-49 -49zM499 150l-148 148q-34 -31 -65 -63v-70l79 -79h70zM624 25l-74 74l-75 -74q-10 -11 -25 -11h-100q-15 0 -26 11l-100 100q-10 10 -10 25v100q0 15 10 25l75 75l-75 75q-8 8 -8 22q0 37 50 87t87 50q14 0 22 -9q41 -40 82 -81
q27 -30 27 -49q0 -16 -20 -39q-13 -16 -60 -59l146 -146l74 74q11 12 25 12q15 0 26 -11.5t11 -25.5t-11 -25l-74 -75l74 -75q11 -11 11 -25t-11 -25.5t-26 -11.5q-14 0 -25 12z" />
    <glyph glyph-name="quotesingle" unicode="'" 
d="M525 525l-100 -100q-11 -12 -25 -12t-25.5 11.5t-11.5 25.5t12 25l100 100q11 12 25 12t25.5 -11.5t11.5 -25.5t-12 -25z" />
    <glyph glyph-name="parenleft" unicode="(" 
d="M474 25l-100 100q-10 10 -10 25v300q0 15 10 25l100 100q11 12 25 12q15 0 26 -11.5t11 -25.5t-11 -25l-89 -90v-270l89 -90q11 -11 11 -25t-11 -25.5t-26 -11.5q-14 0 -25 12z" />
    <glyph glyph-name="parenright" unicode=")" 
d="M375 75l89 90v270l-89 90q-11 11 -11 25t11 25.5t26 11.5q14 0 25 -12l100 -100q10 -10 10 -25v-300q0 -15 -10 -25l-100 -100q-11 -12 -25 -12q-15 0 -26 11.5t-11 25.5t11 25z" />
    <glyph glyph-name="asterisk" unicode="*" 
d="M250 286h164v49l-89 90q-12 11 -12 25t11.5 25.5t25.5 11.5t25 -12l75 -74l75 74q11 12 25 12t25.5 -11.5t11.5 -25.5t-12 -25l-89 -90v-49h164q36 0 36 -36t-36 -36h-164v-49l89 -90q12 -11 12 -25t-11.5 -25.5t-25.5 -11.5t-25 12l-75 74l-75 -74q-11 -12 -25 -12
t-25.5 11.5t-11.5 25.5t12 25l89 90v49h-164q-36 0 -36 36t36 36z" />
    <glyph glyph-name="plus" unicode="+" 
d="M250 286h164v164q0 36 36 36t36 -36v-164h164q36 0 36 -36t-36 -36h-164v-164q0 -36 -36 -36t-36 36v164h-164q-36 0 -36 36t36 36z" />
    <glyph glyph-name="comma" unicode="," 
d="M536 150v-100q0 -15 -10 -25l-100 -100q-11 -12 -25 -12q-15 0 -26 11.5t-11 25.5t11 25l89 90v85q0 36 36 36t36 -36z" />
    <glyph glyph-name="hyphen" unicode="-" 
d="M250 286h400q36 0 36 -36t-36 -36h-400q-36 0 -36 36t36 36z" />
    <glyph glyph-name="hyphen" unicode="&#x2010;" 
d="M250 286h400q36 0 36 -36t-36 -36h-400q-36 0 -36 36t36 36z" />
    <glyph glyph-name="period" unicode="." 
d="M500 286q14 0 25 -11t11 -25v-100q0 -14 -11 -25t-25 -11h-100q-14 0 -25 11t-11 25v100q0 14 11 25t25 11h100z" />
    <glyph glyph-name="slash" unicode="/" 
d="M175 75l500 500q11 12 25 12t25.5 -11.5t11.5 -25.5t-12 -25l-500 -500q-11 -12 -25 -12t-25.5 11.5t-11.5 25.5t12 25z" />
    <glyph glyph-name="zero" unicode="0" 
d="M283 118l32 -32h270l79 79v270l-32 32q13 -23 -7 -42l-300 -300q-19 -20 -42 -7zM236 165l32 -32q-13 23 7 42l300 300q19 20 42 7l-32 32h-270l-79 -79v-270zM164 150v300q0 15 11 25l100 100q10 11 25 11h300q15 0 25 -11l100 -100q11 -10 11 -25v-300q0 -15 -11 -25
l-100 -100q-10 -11 -25 -11h-300q-15 0 -25 11l-100 100q-11 10 -11 25z" />
    <glyph glyph-name="one" unicode="1" 
d="M414 86v377l-39 -38q-11 -12 -25 -12t-25.5 11.5t-11.5 25.5t12 25q30 33 61 65q53 50 78 50q22 0 22 -40v-464h164q36 0 36 -36t-36 -36h-400q-36 0 -36 36t36 36h164z" />
    <glyph glyph-name="two" unicode="2" 
d="M700 14h-500q-14 0 -25 11t-11 25v100q0 15 11 25l100 100q10 11 25 11h285l79 79v70l-79 79h-270l-89 -89q-11 -12 -25 -12q-15 0 -26 11.5t-11 25.5t11 25l100 100q10 11 25 11h300q15 0 26 -11l100 -100q10 -10 10 -25v-100q0 -15 -10 -25l-100 -100q-11 -11 -26 -11
h-285l-79 -79v-49h464q36 0 36 -36t-36 -36z" />
    <glyph glyph-name="three" unicode="3" 
d="M500 386h86q1 2 63 64l-64 64h-270l-89 -89q-11 -12 -25 -12q-15 0 -26 11.5t-11 25.5t11 25l100 100q10 11 25 11h300q15 0 26 -11l82 -78q28 -28 28 -44q0 -15 -21 -38q-6 -7 -64 -65l75 -75q10 -10 10 -25v-100q0 -15 -10 -25l-100 -100q-11 -11 -26 -11h-300
q-15 0 -25 11l-100 100q-11 11 -11 25t11 25.5t26 11.5q14 0 25 -12l89 -89h270l79 79v70q-32 31 -81 79h-83q-36 0 -36 36t36 36z" />
    <glyph glyph-name="four" unicode="4" 
d="M466 286v177l-177 -177h177zM466 50v164h-264q-40 0 -40 31q0 15 15 30l300 300q15 15 31 15q30 0 30 -40v-264h164q36 0 36 -36t-36 -36h-164v-164q0 -36 -36 -36t-36 36z" />
    <glyph glyph-name="five" unicode="5" 
d="M700 514h-464v-128h364q15 0 26 -11l100 -100q10 -10 10 -25v-100q0 -15 -10 -25l-100 -100q-11 -11 -26 -11h-300q-15 0 -25 11l-100 100q-11 11 -11 25t11 25.5t26 11.5q14 0 25 -12l89 -89h270l79 79v70l-79 79h-385q-14 0 -25 11t-11 25v200q0 14 11 25t25 11h500
q36 0 36 -36t-36 -36z" />
    <glyph glyph-name="six" unicode="6" 
d="M236 314v-149l79 -79h270l79 79v70l-79 79h-349zM600 514h-285l-79 -79v-49h364q15 0 25 -11l100 -100q11 -10 11 -25v-100q0 -15 -11 -25l-100 -100q-10 -11 -25 -11h-300q-15 0 -25 11l-100 100q-11 10 -11 25v300q0 15 11 25l100 100q10 11 25 11h300q36 0 36 -36
t-36 -36z" />
    <glyph glyph-name="seven" unicode="7" 
d="M200 586h500q14 0 25 -11t11 -25v-100q0 -15 -11 -25l-289 -290v-85q0 -36 -36 -36t-36 36v100q0 15 11 25l289 290v49h-464q-36 0 -36 36t36 36z" />
    <glyph glyph-name="eight" unicode="8" 
d="M585 314h-270l-79 -79v-70l79 -79h270l79 79v70zM651 350l74 -75q11 -10 11 -25v-100q0 -15 -11 -25l-100 -100q-10 -11 -25 -11h-300q-15 0 -25 11l-100 100q-11 10 -11 25v100q0 15 11 25l74 75q-59 57 -64 62q-21 23 -21 38q0 17 28 45q41 40 83 80q10 11 25 11h300
q15 0 25 -11q42 -40 83 -80q28 -29 28 -45q0 -15 -22 -38q-4 -5 -63 -62zM585 514h-270l-64 -64l64 -64h270l64 64z" />
    <glyph glyph-name="nine" unicode="9" 
d="M664 286v149l-79 79h-270l-79 -79v-70l79 -79h349zM300 86h285l79 79v49h-364q-15 0 -25 11l-100 100q-11 10 -11 25v100q0 15 11 25l100 100q10 11 25 11h300q15 0 25 -11l100 -100q11 -10 11 -25v-300q0 -15 -11 -25l-100 -100q-10 -11 -25 -11h-300q-36 0 -36 36
t36 36z" />
    <glyph glyph-name="colon" unicode=":" 
d="M412 48q0 15 10.5 25.5t25.5 10.5t25.5 -10.5t10.5 -25.5t-10.5 -25.5t-25.5 -10.5t-25.5 10.5t-10.5 25.5zM416 348q0 15 10.5 25.5t25.5 10.5t25.5 -10.5t10.5 -25.5t-10.5 -25.5t-25.5 -10.5t-25.5 10.5t-10.5 25.5z" />
    <glyph glyph-name="semicolon" unicode=";" 
d="M465 344q0 15 10.5 25.5t25.5 10.5t25.5 -10.5t10.5 -25.5t-10.5 -25.5t-25.5 -10.5t-25.5 10.5t-10.5 25.5zM535 150v-100q0 -15 -10 -25l-100 -100q-11 -12 -25 -12q-15 0 -26 11.5t-11 25.5t11 25l89 90v85q0 36 36 36t36 -36z" />
    <glyph glyph-name="less" unicode="&#x3c;" 
d="M523 25l-156 148q-52 51 -52 77t52 77l156 148q11 12 25 12q15 0 26 -11.5t11 -25.5t-11 -25l-174 -175l174 -175q11 -11 11 -25t-11 -25.5t-26 -11.5q-14 0 -25 12z" />
    <glyph glyph-name="equal" unicode="=" 
d="M250 186h400q36 0 36 -36t-36 -36h-400q-36 0 -36 36t36 36zM250 386h400q36 0 36 -36t-36 -36h-400q-36 0 -36 36t36 36z" />
    <glyph glyph-name="greater" unicode="&#x3e;" 
d="M377 475l156 -148q52 -51 52 -77t-52 -77l-156 -148q-11 -12 -25 -12q-15 0 -26 11.5t-11 25.5t11 25l174 175l-174 175q-11 11 -11 25t11 25.5t26 11.5q14 0 25 -12z" />
    <glyph glyph-name="question" unicode="?" 
d="M175 475l100 100q11 11 26 11h300q14 0 25 -11l70 -64q40 -40 40 -64q0 -12 -10 -22l-200 -200q-11 -12 -25 -12q-15 0 -26 11.5t-11 25.5t11 25l175 175l-64 64h-271l-89 -89q-11 -12 -25 -12q-15 0 -26 11.5t-11 25.5t11 25zM467 48q0 15 10.5 25.5t25.5 10.5
q14 0 25 -10.5t11 -25.5t-11 -25.5t-25 -10.5q-15 0 -25.5 10.5t-10.5 25.5z" />
    <glyph glyph-name="at" unicode="@" 
d="M564 286v49l-64 64l-64 -64v-49h128zM600 14h-300q-15 0 -25 11l-100 100q-11 10 -11 25v300q0 15 11 25l100 100q10 11 25 11h300q15 0 25 -11l100 -100q11 -10 11 -25v-200q0 -14 -11 -25t-25 -11h-300q-14 0 -25 11t-11 25v100q0 15 11 25q40 42 80 83q28 28 45 28
t45 -28q40 -41 80 -83q11 -10 11 -25v-64h28v149l-79 79h-270l-79 -79v-270l79 -79h285q36 0 36 -36t-36 -36z" />
    <glyph glyph-name="A" unicode="A" 
d="M664 214h-428v-164q0 -36 -36 -36t-36 36v400q0 15 11 25l100 100q10 11 25 11h300q15 0 25 -11l100 -100q11 -10 11 -25v-400q0 -36 -36 -36t-36 36v164zM236 286h428v149l-79 79h-270l-79 -79v-149z" />
    <glyph glyph-name="B" unicode="B" 
d="M164 550q0 14 11 25t25 11h400q15 0 25 -11q42 -39 83 -78q28 -28 28 -44q0 -15 -21 -38q-6 -7 -64 -65l74 -75q11 -10 11 -25v-100q0 -15 -11 -25l-100 -100q-10 -11 -25 -11h-400q-14 0 -25 11t-11 25v500zM583 314h-347v-228h349l79 79v70q-32 31 -81 79zM236 386h349
l64 64l-64 64h-349v-128z" />
    <glyph glyph-name="C" unicode="C" 
d="M725 125l-100 -100q-10 -11 -25 -11h-300q-15 0 -26 11l-100 100q-10 10 -10 25v300q0 15 10 25l100 100q11 11 26 11h300q15 0 25 -11l100 -100q11 -11 11 -25t-11 -25.5t-26 -11.5q-14 0 -25 12l-89 89h-270l-79 -79v-270l79 -79h270l89 89q11 12 25 12q15 0 26 -11.5
t11 -25.5t-11 -25z" />
    <glyph glyph-name="D" unicode="D" 
d="M164 550q0 14 11 25t25 11h300q15 0 25 -11l200 -200q11 -10 11 -25v-100q0 -15 -11 -25l-200 -200q-10 -11 -25 -11h-300q-14 0 -25 11t-11 25v500zM236 514v-428h249l179 179v70l-179 179h-249z" />
    <glyph glyph-name="E" unicode="E" 
d="M236 386h364q36 0 36 -36t-36 -36h-364v-228h464q36 0 36 -36t-36 -36h-500q-14 0 -25 11t-11 25v500q0 14 11 25t25 11h500q36 0 36 -36t-36 -36h-464v-128z" />
    <glyph glyph-name="F" unicode="F" 
d="M236 386h364q36 0 36 -36t-36 -36h-364v-264q0 -36 -36 -36t-36 36v500q0 14 11 25t25 11h500q36 0 36 -36t-36 -36h-464v-128z" />
    <glyph glyph-name="G" unicode="G" 
d="M500 286h200q14 0 25 -11t11 -25v-100q0 -15 -11 -25l-100 -100q-10 -11 -25 -11h-250q-11 0 -20 6l-150 100q-4 3 -10 14t-6 16v300q0 15 10 25l100 100q11 11 26 11h300q15 0 25 -11l100 -100q11 -11 11 -25t-11 -25.5t-26 -11.5q-14 0 -25 12l-89 89h-270l-79 -79
v-266l125 -83h224l79 79v49h-164q-36 0 -36 36t36 36z" />
    <glyph glyph-name="H" unicode="H" 
d="M236 386h428v164q0 36 36 36t36 -36v-500q0 -36 -36 -36t-36 36v264h-428v-264q0 -36 -36 -36t-36 36v500q0 36 36 36t36 -36v-164z" />
    <glyph glyph-name="I" unicode="I" 
d="M486 514v-428h264q36 0 36 -36t-36 -36h-600q-36 0 -36 36t36 36h264v428h-264q-36 0 -36 36t36 36h600q36 0 36 -36t-36 -36h-264z" />
    <glyph glyph-name="J" unicode="J" 
d="M736 550v-400q0 -15 -11 -25l-100 -100q-10 -11 -25 -11h-300q-15 0 -25 11l-100 100q-11 10 -11 25v100q0 36 36 36t36 -36v-85l79 -79h270l79 79v385q0 36 36 36t36 -36z" />
    <glyph glyph-name="K" unicode="K" 
d="M625 525l-174 -175l274 -275q11 -11 11 -25t-11 -25.5t-26 -11.5q-14 0 -25 12l-289 289h-149v-264q0 -36 -36 -36t-36 36v500q0 36 36 36t36 -36v-164h149l189 189q11 12 25 12q15 0 26 -11.5t11 -25.5t-11 -25z" />
    <glyph glyph-name="L" unicode="L" 
d="M236 550v-464h464q36 0 36 -36t-36 -36h-500q-14 0 -25 11t-11 25v500q0 36 36 36t36 -36z" />
    <glyph glyph-name="M" unicode="M" 
d="M164 50v500q0 40 31 40q15 0 30 -15l190 -189h70l190 189q15 15 30 15q31 0 31 -40v-500q0 -36 -36 -36t-36 36v413l-139 -138q-10 -11 -25 -11h-100q-15 0 -25 11l-139 138v-413q0 -36 -36 -36t-36 36z" />
    <glyph glyph-name="N" unicode="N" 
d="M164 50v500q0 40 31 40q15 0 30 -15l439 -438v413q0 36 36 36t36 -36v-500q0 -40 -31 -40q-15 0 -30 15l-439 438v-413q0 -36 -36 -36t-36 36z" />
    <glyph glyph-name="O" unicode="O" 
d="M164 450q0 15 11 25l100 100q10 11 25 11h300q15 0 25 -11l100 -100q11 -10 11 -25v-300q0 -15 -11 -25l-100 -100q-10 -11 -25 -11h-300q-15 0 -25 11l-100 100q-11 10 -11 25v300zM236 435v-270l79 -79h270l79 79v270l-79 79h-270z" />
    <glyph glyph-name="P" unicode="P" 
d="M236 286h349l79 79v70l-79 79h-349v-228zM164 50v500q0 14 11 25t25 11h400q15 0 25 -11l100 -100q11 -10 11 -25v-100q0 -15 -11 -25l-100 -100q-10 -11 -25 -11h-364v-164q0 -36 -36 -36t-36 36z" />
    <glyph glyph-name="Q" unicode="Q" 
d="M164 450q0 15 11 25l100 100q10 11 25 11h300q15 0 25 -11l100 -100q11 -10 11 -25v-300q0 -15 -11 -25l-100 -100q-14 -15 -32 -11h-293q-15 0 -25 11l-100 100q-11 10 -11 25v300zM236 435v-270l79 -79h198l-138 139q-12 11 -12 25t11.5 25.5t25.5 11.5t25 -12
l175 -174l64 64v270l-79 79h-270z" />
    <glyph glyph-name="R" unicode="R" 
d="M494 286q6 1 12 0h79l79 79v70l-79 79h-349v-228h258zM674 25l-189 189h-249v-164q0 -36 -36 -36t-36 36v500q0 14 10.5 25t25.5 11h400q15 0 25 -11l100 -100q11 -10 11 -25v-100q0 -15 -11 -25l-100 -100q-10 -11 -25 -11h-13l138 -139q11 -11 11 -25t-11 -25.5
t-26 -11.5q-14 0 -25 12z" />
    <glyph glyph-name="S" unicode="S" 
d="M600 514h-285l-64 -64l64 -64h285q15 0 26 -11l100 -100q10 -10 10 -25v-100q0 -15 -10 -25l-100 -100q-11 -11 -26 -11h-300q-15 0 -25 11l-100 100q-11 11 -11 25t11 25.5t26 11.5q14 0 25 -12l89 -89h270l79 79v70l-79 79h-285q-15 0 -25 11q-41 40 -83 80
q-27 28 -27 45t27 45q42 40 83 80q10 11 25 11h300q36 0 36 -36t-36 -36z" />
    <glyph glyph-name="T" unicode="T" 
d="M486 514v-464q0 -36 -36 -36t-36 36v464h-264q-36 0 -36 36t36 36h600q36 0 36 -36t-36 -36h-264z" />
    <glyph glyph-name="U" unicode="U" 
d="M236 550v-385l79 -79h270l79 79v385q0 36 36 36t36 -36v-400q0 -15 -11 -25l-100 -100q-10 -11 -25 -11h-300q-15 0 -25 11l-100 100q-11 10 -11 25v400q0 36 36 36t36 -36z" />
    <glyph glyph-name="V" unicode="V" 
d="M236 550v-285l179 -179h70l179 179v285q0 36 36 36t36 -36v-300q0 -15 -11 -25l-200 -200q-10 -11 -25 -11h-100q-15 0 -25 11l-200 200q-11 10 -11 25v300q0 36 36 36t36 -36z" />
    <glyph glyph-name="W" unicode="W" 
d="M236 550v-385l64 -64l75 74q10 11 25 11h100q15 0 25 -11l75 -74l64 64v385q0 36 36 36t36 -36v-400q0 -15 -11 -25q-40 -42 -80 -83q-28 -28 -44 -28t-42 25q-37 38 -74 75h-70q-37 -37 -74 -75q-26 -25 -42 -25t-44 28q-40 41 -80 83q-11 10 -11 25v400q0 36 36 36
t36 -36z" />
    <glyph glyph-name="X" unicode="X" 
d="M225 575l225 -224l225 224q11 12 25 12t25.5 -11.5t11.5 -25.5t-12 -25l-224 -225l224 -225q12 -11 12 -25t-11.5 -25.5t-25.5 -11.5t-25 12l-225 224l-225 -224q-11 -12 -25 -12t-25.5 11.5t-11.5 25.5t12 25l224 225l-224 225q-12 11 -12 25t11.5 25.5t25.5 11.5
t25 -12z" />
    <glyph glyph-name="Y" unicode="Y" 
d="M486 235v-185q0 -36 -36 -36t-36 36v185l-289 290q-12 11 -12 25t11.5 25.5t25.5 11.5t25 -12l275 -274l275 274q11 12 25 12t25.5 -11.5t11.5 -25.5t-12 -25z" />
    <glyph glyph-name="Z" unicode="Z" 
d="M700 14h-500q-40 0 -40 31q0 15 15 30l438 439h-413q-36 0 -36 36t36 36h500q40 0 40 -31q0 -15 -15 -30l-438 -439h413q36 0 36 -36t-36 -36z" />
    <glyph glyph-name="bracketleft" unicode="[" 
d="M550 14h-200q-14 0 -25 11t-11 25v500q0 14 11 25t25 11h200q36 0 36 -36t-36 -36h-164v-428h164q36 0 36 -36t-36 -36z" />
    <glyph glyph-name="backslash" unicode="\" 
d="M225 575l500 -500q12 -11 12 -25t-11.5 -25.5t-25.5 -11.5t-25 12l-500 500q-12 11 -12 25t11.5 25.5t25.5 11.5t25 -12z" />
    <glyph glyph-name="bracketright" unicode="]" 
d="M350 86h164v428h-164q-36 0 -36 36t36 36h200q14 0 25 -11t11 -25v-500q0 -14 -11 -25t-25 -11h-200q-36 0 -36 36t36 36z" />
    <glyph glyph-name="asciicircum" unicode="^" 
d="M225 375q37 38 128 135q50 55 72 67q10 9 25 9t25 -9q22 -12 72 -67q91 -97 128 -135q12 -11 12 -25t-11.5 -25.5t-25.5 -11.5t-25 12l-139 138v-413q0 -36 -36 -36t-36 36v413l-139 -138q-11 -12 -25 -12t-25.5 11.5t-11.5 25.5t12 25z" />
    <glyph glyph-name="underscore" unicode="_" 
d="M100 -14h700q36 0 36 -36t-36 -36h-700q-36 0 -36 36t36 36z" />
    <glyph glyph-name="grave" unicode="`" 
d="M425 675l100 -100q12 -11 12 -25t-11.5 -25.5t-25.5 -11.5t-25 12l-100 100q-12 11 -12 25t11.5 25.5t25.5 11.5t25 -12z" />
    <glyph glyph-name="a" unicode="a" 
d="M614 214h-249l-64 -64l64 -64h249v128zM350 486h200q15 0 25 -11l100 -100q11 -10 11 -25v-300q0 -14 -11 -25t-25 -11h-300q-15 0 -26 11l-82 80q-28 28 -28 45t28 45l82 80q11 11 26 11h264v49l-79 79h-185q-36 0 -36 36t36 36z" />
    <glyph glyph-name="b" unicode="b" 
d="M286 314v-228h249l79 79v70l-79 79h-249zM286 550v-164h264q15 0 25 -11l100 -100q11 -10 11 -25v-100q0 -15 -11 -25l-100 -100q-10 -11 -25 -11h-300q-14 0 -25 11t-11 25v500q0 36 36 36t36 -36z" />
    <glyph glyph-name="c" unicode="c" 
d="M600 14h-200q-15 0 -25 11l-100 100q-11 10 -11 25v200q0 15 11 25l100 100q10 11 25 11h200q36 0 36 -36t-36 -36h-185l-79 -79v-170l79 -79h185q36 0 36 -36t-36 -36z" />
    <glyph glyph-name="d" unicode="d" 
d="M614 314h-249l-79 -79v-70l79 -79h249v228zM686 550v-500q0 -14 -11 -25t-25 -11h-300q-15 0 -25 11l-100 100q-11 10 -11 25v100q0 15 11 25l100 100q10 11 25 11h264v164q0 36 36 36t36 -36z" />
    <glyph glyph-name="e" unicode="e" 
d="M286 286h249l64 64l-64 64h-170l-79 -79v-49zM650 14h-300q-15 0 -25 11l-100 100q-11 10 -11 25v200q0 15 11 25l100 100q10 11 25 11h200q15 0 25 -11q41 -39 82 -79q27 -28 29 -44q1 -17 -26 -45q-42 -41 -85 -82q-10 -11 -25 -11h-264v-49l79 -79h285q36 0 36 -36
t-36 -36z" />
    <glyph glyph-name="f" unicode="f" 
d="M386 386h64q36 0 36 -36t-36 -36h-64v-264q0 -36 -36 -36t-36 36v400q0 15 11 25l100 100q10 11 25 11h100q36 0 36 -36t-36 -36h-85l-79 -79v-49z" />
    <glyph glyph-name="g" unicode="g" 
d="M614 186v228h-249l-79 -79v-70l79 -79h249zM350 -14h185l79 79v49h-264q-15 0 -25 11l-100 100q-11 10 -11 25v100q0 15 11 25l100 100q10 11 25 11h300q14 0 25 -11t11 -25v-400q0 -15 -11 -25l-100 -100q-10 -11 -25 -11h-200q-36 0 -36 36t36 36z" />
    <glyph glyph-name="h" unicode="h" 
d="M286 386h264q15 0 25 -11l100 -100q11 -10 11 -25v-200q0 -36 -36 -36t-36 36v185l-79 79h-249v-264q0 -36 -36 -36t-36 36v500q0 36 36 36t36 -36v-164z" />
    <glyph glyph-name="i" unicode="i" 
d="M414 86v228h-64q-36 0 -36 36t36 36h100q14 0 25 -11t11 -25v-264h64q36 0 36 -36t-36 -36h-200q-36 0 -36 36t36 36h64zM412 548q0 15 10.5 25.5t25.5 10.5t25.5 -10.5t10.5 -25.5t-10.5 -25.5t-25.5 -10.5t-25.5 10.5t-10.5 25.5z" />
    <glyph glyph-name="j" unicode="j" 
d="M586 350v-300q0 -15 -10 -25q-41 -42 -81 -83q-28 -28 -45 -28q-16 0 -45 28q-40 41 -80 83q-11 11 -11 25t11 25.5t26 11.5q14 0 25 -12l74 -74l64 64v285q0 36 36 36t36 -36zM512 548q0 15 10.5 25.5t25.5 10.5t25.5 -10.5t10.5 -25.5t-10.5 -25.5t-25.5 -10.5
t-25.5 10.5t-10.5 25.5z" />
    <glyph glyph-name="k" unicode="k" 
d="M350 351l124 124q11 12 25 12q15 0 26 -11.5t11 -25.5t-11 -25l-124 -125l224 -225q11 -11 11 -25t-11 -25.5t-26 -11.5q-14 0 -25 12l-224 224l-14 -14v-185q0 -36 -36 -36t-36 36v194q-2 6 0 13v86q-2 7 0 13v194q0 36 36 36t36 -36v-185z" />
    <glyph glyph-name="l" unicode="l" 
d="M386 550v-385l79 -79h85q36 0 36 -36t-36 -36h-100q-15 0 -25 11l-100 100q-11 10 -11 25v400q0 36 36 36t36 -36z" />
    <glyph glyph-name="m" unicode="m" 
d="M414 50v283q-21 22 -79 81h-49v-364q0 -36 -36 -36t-36 36v400q0 14 11 25t25 11h100q15 0 25 -11l75 -74q58 58 65 64q23 21 38 21q16 0 44 -28q39 -41 78 -83q11 -10 11 -25v-300q0 -36 -36 -36t-36 36v285l-64 64q-24 -25 -64 -64v-285q0 -36 -36 -36t-36 36z" />
    <glyph glyph-name="n" unicode="n" 
d="M214 50v400q0 14 11 25t25 11h300q15 0 25 -11l100 -100q11 -10 11 -25v-300q0 -36 -36 -36t-36 36v285l-79 79h-249v-364q0 -36 -36 -36t-36 36z" />
    <glyph glyph-name="o" unicode="o" 
d="M286 165l79 -79h170l79 79v170l-79 79h-170l-79 -79v-170zM214 150v200q0 15 11 25l100 100q10 11 25 11h200q15 0 25 -11l100 -100q11 -10 11 -25v-200q0 -15 -11 -25l-100 -100q-10 -11 -25 -11h-200q-15 0 -25 11l-100 100q-11 10 -11 25z" />
    <glyph glyph-name="p" unicode="p" 
d="M286 186h249l79 79v70l-79 79h-249v-228zM214 -50v500q0 14 11 25t25 11h300q15 0 25 -11l100 -100q11 -10 11 -25v-100q0 -15 -11 -25l-100 -100q-10 -11 -25 -11h-264v-164q0 -36 -36 -36t-36 36z" />
    <glyph glyph-name="q" unicode="q" 
d="M564 186v228h-249l-79 -79v-70l79 -79h249zM564 114h-264q-15 0 -25 11l-100 100q-11 10 -11 25v100q0 15 11 25l100 100q10 11 25 11h300q14 0 25 -11t11 -25v-464h64q36 0 36 -36t-36 -36h-100q-14 0 -25 11t-11 25v164z" />
    <glyph glyph-name="r" unicode="r" 
d="M264 50v300q0 15 11 25l100 100q10 11 25 11h200q36 0 36 -36t-36 -36h-185l-79 -79v-285q0 -36 -36 -36t-36 36z" />
    <glyph glyph-name="s" unicode="s" 
d="M250 86h286l64 64l-64 64h-136q-10 0 -19 6l-126 80q-41 28 -41 46q0 17 28 47q41 41 83 82q11 11 25 11h200q36 0 36 -36t-36 -36h-185l-58 -58l104 -70h139q15 0 26 -11q41 -40 83 -80q27 -28 27 -45t-27 -45q-42 -40 -83 -80q-11 -11 -26 -11h-300q-36 0 -36 36t36 36
z" />
    <glyph glyph-name="t" unicode="t" 
d="M300 486h64v64q0 36 36 36t36 -36v-64h64q36 0 36 -36t-36 -36h-64v-249l79 -79h85q36 0 36 -36t-36 -36h-100q-15 0 -25 11l-100 100q-11 10 -11 25v264h-64q-36 0 -36 36t36 36z" />
    <glyph glyph-name="u" unicode="u" 
d="M286 450v-285l79 -79h170l79 79v285q0 36 36 36t36 -36v-300q0 -15 -11 -25l-100 -100q-10 -11 -25 -11h-200q-15 0 -25 11l-100 100q-11 10 -11 25v300q0 36 36 36t36 -36z" />
    <glyph glyph-name="v" unicode="v" 
d="M284 461l97 -292l69 -68l69 68l97 292q8 25 33 25q15 0 26 -9.5t11 -25.5q0 -6 -2 -12l-100 -300q-8 -25 -53 -71q-51 -52 -84 -52q-13 0 -22 9q-97 96 -108 111q-20 26 -36 85q-34 126 -65 218q-2 6 -2 12q0 16 11 25.5t26 9.5q25 0 33 -25z" />
    <glyph glyph-name="w" unicode="w" 
d="M486 350v-184q18 -18 64 -65l64 64v285q0 36 36 36t36 -36v-300q0 -15 -11 -25q-39 -42 -78 -83q-28 -28 -44 -28q-15 0 -38 21q-7 6 -65 64q-58 -58 -65 -64q-23 -21 -38 -21q-16 0 -44 28q-39 41 -78 83q-11 10 -11 25v300q0 36 36 36t36 -36v-285l64 -64q24 25 64 65
v184q0 36 36 36t36 -36z" />
    <glyph glyph-name="x" unicode="x" 
d="M225 75l174 175l-174 175q-12 11 -12 25t11.5 25.5t25.5 11.5t25 -12l175 -174l175 174q11 12 25 12t25.5 -11.5t11.5 -25.5t-12 -25l-174 -175l174 -175q12 -11 12 -25t-11.5 -25.5t-25.5 -11.5t-25 12l-175 174l-175 -174q-11 -12 -25 -12t-25.5 11.5t-11.5 25.5t12 25
z" />
    <glyph glyph-name="y" unicode="y" 
d="M286 450v-185l79 -79h249v264q0 36 36 36t36 -36v-400q0 -15 -11 -25l-100 -100q-10 -11 -25 -11h-200q-36 0 -36 36t36 36h185l79 79v49h-264q-15 0 -25 11l-100 100q-11 10 -11 25v200q0 36 36 36t36 -36z" />
    <glyph glyph-name="z" unicode="z" 
d="M650 14h-400q-40 0 -40 31q0 15 15 30l338 339h-313q-36 0 -36 36t36 36h400q40 0 40 -31q0 -15 -15 -30l-338 -339h313q36 0 36 -36t-36 -36z" />
    <glyph glyph-name="braceleft" unicode="{" 
d="M653 14h-200q-14 0 -25 11t-11 25v178q-77 38 -155 77q-51 28 -51 45t51 45q78 39 155 77v78q0 14 11 25t25 11h200q36 0 36 -36t-36 -36h-164v-64q0 -28 -72 -64q-42 -18 -83 -36q41 -18 83 -36q72 -36 72 -64v-164h164q36 0 36 -36t-36 -36z" />
    <glyph glyph-name="bar" unicode="|" 
d="M414 50v500q0 36 36 36t36 -36v-500q0 -36 -36 -36t-36 36z" />
    <glyph glyph-name="braceright" unicode="}" 
d="M247 586h200q14 0 25 -11t11 -25v-78q77 -38 155 -77q51 -28 51 -45t-51 -45q-78 -39 -155 -77v-178q0 -14 -11 -25t-25 -11h-200q-36 0 -36 36t36 36h164v164q0 28 72 64q42 18 83 36q-41 18 -83 36q-72 36 -72 64v64h-164q-36 0 -36 36t36 36z" />
    <glyph glyph-name="asciitilde" unicode="~" 
d="M275 575q39 42 78 83q28 28 44 28q15 0 38 -21q7 -6 65 -64l75 74q11 12 25 12t25.5 -11.5t11.5 -25.5t-12 -25q-39 -42 -78 -83q-28 -28 -44 -28q-15 0 -38 21q-7 6 -65 64l-75 -74q-11 -12 -25 -12t-25.5 11.5t-11.5 25.5t12 25z" />
    <glyph glyph-name="uni20AC" unicode="&#x20ac;" 
d="M150 286h64v128h-64q-36 0 -36 36t36 36h64v64q0 15 10 25l100 100q11 11 26 11h300q15 0 25 -11l100 -100q11 -11 11 -25t-11 -25.5t-26 -11.5q-14 0 -25 12l-89 89h-270l-79 -79v-49h164q36 0 36 -36t-36 -36h-164v-128h164q36 0 36 -36t-36 -36h-164v-49l79 -79h270
l89 89q11 12 25 12q15 0 26 -11.5t11 -25.5t-11 -25l-100 -100q-10 -11 -25 -11h-300q-15 0 -26 11l-100 100q-10 10 -10 25v64h-64q-36 0 -36 36t36 36z" />
    <glyph glyph-name="sterling" unicode="&#xa3;" 
d="M200 386h64v64q0 15 10 25l100 100q11 11 26 11h200q15 0 25 -11l100 -100q11 -11 11 -25t-11 -25.5t-26 -11.5q-14 0 -25 12l-89 89h-170l-79 -79v-49h164q36 0 36 -36t-36 -36h-164v-228h364q36 0 36 -36t-36 -36h-500q-36 0 -36 36t36 36h64v228h-64q-36 0 -36 36
t36 36z" />
    <glyph glyph-name="copyright" unicode="&#xa9;" 
d="M315 86h270l179 179v270l-179 179h-270l-179 -179v-270zM275 25l-200 200q-11 10 -11 25v300q0 15 11 25l200 200q10 11 25 11h300q15 0 25 -11l200 -200q11 -10 11 -25v-300q0 -15 -11 -25l-200 -200q-10 -11 -25 -11h-300q-15 0 -25 11zM500 514h-85l-79 -79v-70
l79 -79h85q36 0 36 -36t-36 -36h-100q-15 0 -25 11l-100 100q-11 10 -11 25v100q0 15 11 25l100 100q10 11 25 11h100q36 0 36 -36t-36 -36z" />
  </font>
</defs>
</svg>
