<svg xmlns="http://www.w3.org/2000/svg" viewBox="0 0 1000 145"><path d="M101.12 72.996c-5.25-4.142-13.13-7.45-23.647-9.925L53.48 57.415c-9.258-2.164-15.31-4.05-18.164-5.658-4.438-2.412-6.656-6.06-6.656-10.945 0-5.316 2.25-9.46 6.75-12.428s10.524-4.452 18.07-4.452c6.782 0 12.454 1.145 17.02 3.432 6.845 3.464 10.522 9.307 11.03 17.53h27.454c-.502-14.53-5.9-25.614-16.197-33.252C82.49 4.004 70.047.186 55.465.186c-17.465 0-30.704 4.05-39.72 12.15C6.733 20.44 2.226 30.61 2.226 42.854c0 13.42 4.607 23.28 13.82 29.588 5.442 3.773 15.436 7.267 29.983 10.482l14.8 3.246c8.665 1.855 14.992 3.988 18.983 6.4 3.99 2.474 5.985 5.968 5.985 10.48 0 7.73-4.072 13.018-12.217 15.862-4.293 1.484-9.88 2.226-16.762 2.226-11.49 0-19.604-2.813-24.34-8.44-2.587-3.09-4.324-7.76-5.208-14.006H0c0 14.223 5.155 25.4 15.468 33.53 10.313 8.132 24.47 12.197 42.47 12.197 17.624 0 31.264-4.127 40.92-12.382 9.656-8.255 14.485-18.627 14.485-31.118 0-12.183-4.075-21.49-12.224-27.92zM110.572 28.382h41.09v112.51h28.753V28.38h40.903V4.174H110.572zM285.816 65.635 260.16 4.832h-32.14l43.82 93.566c0 1.285-1.202 7.198-3.872 11.365-3.5 5.462-6.27 7.03-7.923 8.05-1.722 1.08-5.957 2.14-8.47 2.442-2.516.3-5.162.39-7.94.27l-3.574-.18v23.227c3.047.18 5.332.284 6.856.315 1.523.03 3.543.045 6.06.045 12.52 0 23.578-4.95 27.75-9.416 4.174-4.47 11.88-14.644 19.046-33.237L336.86 4.83h-30.07l-20.974 60.803zM374.477 4.174H345.91V140.89h96.833v-24.578h-68.266zM480.248 81.158h66.41V57.414h-66.41V28.382h72.347V4.174H452.33V140.89h103.604v-24.578h-75.686zM582.74 113.92c-4.103 0-7.557 1.434-10.357 4.3-2.802 2.867-4.202 6.288-4.202 10.26 0 4.692 1.467 8.34 4.398 10.946 2.932 2.604 6.417 3.91 10.456 3.91 3.91 0 7.312-1.32 10.212-3.96 2.898-2.638 4.348-6.268 4.348-10.895 0-4.038-1.45-7.475-4.348-10.31-2.9-2.833-6.4-4.25-10.505-4.25zM658.434 25.97c9.994 0 17.535 2.97 22.624 8.905 2.846 3.34 5.18 8.287 6.997 14.84h28.568c-.43-8.533-3.548-17.035-9.36-25.507-10.522-15.086-27.16-22.63-49.917-22.63-17.007 0-31.016 5.626-42.027 16.88-12.665 12.924-18.997 31.32-18.997 55.188 0 22.075 5.566 39.452 16.7 52.127 11.133 12.614 26.427 18.92 45.88 18.92 15.72 0 28.613-4.667 38.676-14.005 10.06-9.336 16.316-21.456 18.764-36.36H687.96c-1.876 7.05-4.235 12.337-7.077 15.862-5.142 6.555-12.612 9.832-22.41 9.832-9.557 0-17.436-3.817-23.636-11.455-6.2-7.636-9.3-19.122-9.3-34.458 0-15.336 2.937-27.192 8.812-35.572 5.876-8.378 13.904-12.567 24.082-12.567zM837.116 15.953C826.788 5.32 811.856 0 792.316 0c-19.54 0-34.473 5.32-44.8 15.953-13.85 12.553-20.776 31.35-20.776 56.393 0 24.55 6.925 43.347 20.777 56.393 10.326 10.635 25.26 15.952 44.8 15.952 19.538 0 34.47-5.317 44.798-15.953 13.788-13.047 20.684-31.846 20.684-56.394 0-25.042-6.896-43.84-20.684-56.393zm-17.855 92.01c-6.647 8.35-15.628 12.523-26.944 12.523s-20.345-4.174-27.084-12.522c-6.74-8.348-10.11-20.22-10.11-35.617s3.37-27.27 10.11-35.617c6.74-8.348 15.768-12.522 27.084-12.522s20.297 4.19 26.945 12.568c6.647 8.38 9.972 20.236 9.972 35.57 0 15.398-3.325 27.27-9.97 35.618zM958.893 4.174l-24.7 107.5-24.888-107.5h-41.57V140.89h26.62V48.418c0-2.658-.032-6.384-.093-11.177-.062-4.79-.093-8.487-.093-11.084L919.89 140.89h27.765l25.908-114.734c0 2.597-.032 6.293-.093 11.084a922.3 922.3 0 0 0-.093 11.177v92.474H1000V4.175h-41.107z"/></svg>