<svg xmlns="http://www.w3.org/2000/svg" viewBox="0 0 1000 380"><path d="M457.485 262.628V105.203c0-22.308-3.322-41.277-9.962-56.91-6.644-15.63-16.896-27.59-30.768-35.872C402.885 4.144 385.69 0 365.18 0c-20.513 0-38.628 4.226-54.348 12.675-15.723 8.452-30.893 20.957-45.52 37.518-3.702-8.956-8.662-16.814-14.88-23.576-6.224-6.758-13.158-12.08-20.808-15.97-7.652-3.887-15.427-6.632-23.327-8.24C198.392.804 190.07 0 181.33 0c-18.498 0-34.804 3.296-48.927 9.887-14.123 6.59-27.994 17.155-41.612 31.688V4.563H0v258.065h90.79V111.034c1.344-1.688 4.54-5.83 9.584-12.422 5.044-6.59 9.33-11.574 12.862-14.957 3.53-3.38 8.11-6.42 13.745-9.126 5.63-2.703 11.81-4.057 18.537-4.057 14.123 0 23.96 4.733 29.507 14.196 5.548 9.466 8.322 22.9 8.322 40.306v137.652h90.79V111.034c8.07-11.66 16.142-21.334 24.212-29.026 8.07-7.688 18.41-11.534 31.02-11.534 12.944 0 22.402 4.523 28.37 13.562 5.967 9.043 8.955 22.688 8.955 40.94V262.63h90.792zM597.61 103.302c9.332-8.702 20.384-13.055 33.164-13.055 14.123 0 28.076 6.59 41.865 19.773l33.54-91.514c-10.59-6.25-19.714-10.9-27.363-13.943C671.164 1.52 662.212 0 651.96 0c-19.507 0-36.487 7.312-50.945 21.928-14.462 14.62-24.55 29.62-30.264 44.997V4.563h-90.79v258.065h90.79V151.594c8.576-23.488 17.53-39.586 26.86-48.292zm161.595 235.043c3.816 0 6.94-1.203 9.376-3.61 2.435-2.406 3.653-5.49 3.653-9.248 0-3.73-1.267-6.82-3.802-9.27a12.72 12.72 0 0 0-3.762-2.52l-11.035 23.612c1.66.682 3.512 1.035 5.572 1.035zm73.245 26.612h-8.676l13.34-28.472-15.176-30.86h8.86l10.61 22.2 10.166-22.2h8.48L1000 4.564h-88.27l-59.265 128.272L800.26 4.563h-97.6l101.635 224.35-36.543 78.186a19.792 19.792 0 0 1 6.445 4.227c3.958 3.86 5.937 8.708 5.937 14.545 0 5.667-2.008 10.373-6.023 14.118-4.014 3.745-9.07 5.617-15.163 5.617-3.087 0-5.9-.535-8.457-1.577L733.68 380h91.8m-30.855-29.823c-1.823 2.392-4.33 4.086-7.518 5.083v-1.58c1.28-1.225 2.178-2.457 2.69-3.696.514-1.24.813-2.926.898-5.062-3.02-.882-4.528-2.748-4.528-5.596 0-1.538.52-2.87 1.56-3.994 1.038-1.124 2.27-1.687 3.694-1.687 1.738 0 3.162.77 4.272 2.307 1.11 1.538 1.666 3.503 1.666 5.895 0 3.162-.91 5.938-2.733 8.33zM43.997 304.77c-4.528 0-8.87 2.393-13.028 7.177-2.735-4.727-6.594-7.09-11.577-7.09-3.788 0-7.66 1.98-11.62 5.936v-5.17H0v39.3h7.774v-28.535c1.737-1.88 3.282-3.19 4.635-3.93 1.35-.74 2.84-1.11 4.463-1.11 2.905 0 4.94.86 6.108 2.584 1.168 1.723 1.752 4.763 1.752 9.12v21.87h7.817v-28.535c2.79-3.246 5.793-4.87 9.012-4.87 2.505 0 4.428.87 5.767 2.606 1.337 1.737 2.007 4.244 2.007 7.518v23.28h7.774v-23.193c0-5.724-1.23-9.98-3.694-12.772-2.464-2.79-5.604-4.184-9.42-4.184zM79.31 334.8c-2.435-2.364-3.652-5.553-3.652-9.568 0-3.816 1.125-6.955 3.375-9.418 2.25-2.463 5.126-3.695 8.628-3.695 3.36 0 7.006 1.253 10.936 3.758v-8.287c-2.364-1.052-4.35-1.77-5.96-2.156-1.608-.384-3.424-.576-5.445-.576-5.808 0-10.493 1.894-14.052 5.68-3.56 3.788-5.34 8.772-5.34 14.95 0 6.124 1.83 11.007 5.49 14.652 3.66 3.646 8.564 5.468 14.715 5.468 3.73 0 7.546-.726 11.448-2.178v-7.69c-3.872 1.738-7.303 2.607-10.293 2.607-4.13-.002-7.413-1.183-9.847-3.547zm44.267-29.175h-13.61v59.332h7.945V343.94c3.042 1.112 5.814 1.667 8.317 1.667 5.657 0 10.313-1.894 13.966-5.68 3.654-3.788 5.48-8.63 5.48-14.524 0-6.236-1.94-11.09-5.823-14.566-3.883-3.475-9.31-5.212-16.276-5.212zm10.766 29.474c-2.316 2.534-5.293 3.8-8.93 3.8-2.615 0-5.115-.61-7.502-1.836v-24.177h5.5c3.636 0 6.4.45 8.29 1.345 1.89.898 3.38 2.328 4.475 4.293 1.094 1.965 1.64 4.23 1.64 6.792.002 3.987-1.156 7.247-3.472 9.782zm48.803-28.279c-2.08-1.308-4.428-1.964-7.048-1.964-4.813 0-8.842 1.98-12.088 5.937V285.25h-7.774v59.673h7.774v-28.15c1.822-2.05 3.488-3.516 4.998-4.4 1.51-.88 3.118-1.323 4.827-1.323 2.307 0 4.165.875 5.574 2.627 1.41 1.75 2.113 4.065 2.113 6.94v24.306h7.774V322.54c0-4.556-.506-7.988-1.516-10.294-1.01-2.307-2.556-4.115-4.634-5.425zm35.548-1.964c-5.41 0-9.81 1.873-13.2 5.617-3.388 3.745-5.082 8.607-5.082 14.588 0 3.988.804 7.498 2.413 10.53 1.608 3.033 3.752 5.446 6.43 7.24 2.675 1.795 6.178 2.692 10.507 2.692 3.16 0 5.916-.342 8.265-1.025 2.35-.683 4.72-1.822 7.112-3.417v-7.603c-4.33 3.19-9.057 4.784-14.183 4.784-3.674 0-6.67-1.11-8.992-3.33-2.32-2.222-3.582-5.212-3.78-8.97h27.637v-.983c0-6.122-1.553-11.006-4.656-14.65-3.103-3.648-7.26-5.47-12.472-5.47zm-10.337 16.446c.54-3.103 1.7-5.495 3.48-7.176 1.78-1.68 4.066-2.52 6.857-2.52 2.79 0 5.012.84 6.664 2.52 1.65 1.68 2.577 4.073 2.776 7.176h-19.777zm46.823-7.347-.426.683v-9.013h-7.817v39.298h7.817v-20.546c0-3.274.918-6.108 2.755-8.5 1.836-2.392 4.007-3.588 6.513-3.588 2.307 0 4.812 1.28 7.518 3.843l4.102-6.834c-3.19-2.963-6.25-4.443-9.184-4.443-3.76 0-7.518 3.032-11.277 9.098zm42.935 8.335-2.777-1.58c-2.108-1.166-3.582-2.162-4.42-2.99-.838-.825-1.258-1.695-1.258-2.608 0-1.055.462-1.903 1.388-2.544.925-.64 2.142-.963 3.652-.963 2.933 0 6.706 1.395 11.32 4.186v-7.688c-4.044-2.164-7.988-3.246-11.832-3.246-3.702 0-6.728.955-9.077 2.862-2.348 1.908-3.523 4.372-3.523 7.39 0 2.335.775 4.493 2.328 6.47 1.552 1.98 4.833 4.365 9.846 7.156 2.506 1.424 4.137 2.513 4.892 3.267.754.756 1.132 1.703 1.132 2.842 0 1.11-.584 2.065-1.75 2.862-1.17.797-2.564 1.196-4.187 1.196-1.567 0-3.496-.477-5.788-1.43-2.294-.954-4.536-2.2-6.73-3.738v8.372c2.763 1.34 5.055 2.257 6.878 2.755 1.822.497 3.9.746 6.236.746 3.958 0 7.198-1.032 9.718-3.095 2.52-2.063 3.78-4.704 3.78-7.92 0-4.498-3.275-8.598-9.827-12.3zm39.78-16.75c-6.038 0-11.057 1.915-15.057 5.745s-6.002 8.622-6.002 14.373c0 5.696 1.98 10.444 5.937 14.246 3.958 3.8 8.885 5.702 14.78 5.702 6.093 0 11.148-1.872 15.163-5.617 4.015-3.746 6.023-8.452 6.023-14.12 0-5.836-1.98-10.685-5.938-14.544-3.958-3.857-8.927-5.786-14.907-5.786zm9.29 29.195c-2.434 2.407-5.56 3.61-9.375 3.61-3.844 0-6.99-1.19-9.44-3.566-2.45-2.38-3.674-5.447-3.674-9.206 0-3.787 1.196-6.905 3.588-9.355 2.392-2.45 5.453-3.675 9.184-3.675 3.844 0 7.033 1.224 9.568 3.674 2.534 2.45 3.802 5.538 3.802 9.268 0 3.76-1.217 6.842-3.652 9.247zm48.812-27.978a13.031 13.031 0 0 0-6.834-1.9c-4.414 0-8.358 1.92-11.832 5.766v-4.998h-7.944v39.298h7.945V316.86c2.564-3.675 5.682-5.51 9.356-5.51 2.876 0 4.926.86 6.15 2.584 1.225 1.723 1.838 4.592 1.838 8.607v22.384h7.774v-22.468c0-4.784-.55-8.28-1.645-10.486a12.41 12.41 0 0 0-4.806-5.213zm22.563 26.889c-1.425 0-2.657.563-3.696 1.687-1.04 1.125-1.56 2.456-1.56 3.994 0 2.848 1.51 4.714 4.53 5.596-.086 2.136-.385 3.823-.898 5.062-.513 1.238-1.41 2.47-2.69 3.695v1.58c3.188-.996 5.694-2.69 7.517-5.082 1.822-2.392 2.734-5.17 2.734-8.33 0-2.392-.555-4.357-1.666-5.895-1.11-1.538-2.535-2.307-4.27-2.307zm44.782-19.691-.427.683v-9.013h-7.817v39.298h7.817v-20.546c0-3.274.918-6.108 2.755-8.5 1.837-2.392 4.008-3.588 6.514-3.588 2.307 0 4.812 1.28 7.518 3.843l4.1-6.834c-3.19-2.963-6.25-4.443-9.183-4.443-3.76 0-7.52 3.032-11.278 9.098zm52.762 24.048V321.3c0-3.302-.093-5.545-.278-6.727-.186-1.18-.62-2.363-1.303-3.545-.683-1.182-1.452-2.13-2.307-2.84-2.563-2.222-5.966-3.333-10.21-3.333-5.666 0-10.01 1.78-13.027 5.34v8.5c4.014-4.386 8.143-6.58 12.386-6.58 4.727 0 7.09 2.365 7.09 7.092v2.093l-9.952 3.417c-3.275 1.14-5.803 2.684-7.582 4.634-1.78 1.952-2.67 4.166-2.67 6.644 0 2.734.91 5.005 2.734 6.813 1.822 1.808 4.1 2.712 6.834 2.712 3.73 0 7.247-1.282 10.55-3.845.6 2.62 2.564 3.93 5.896 3.93a9.218 9.218 0 0 0 3.353-.62c1.067-.412 2.483-1.19 4.25-2.328v-4.74c-1.995 1.394-3.46 2.092-4.4 2.092-.91 0-1.366-.668-1.366-2.007zm-7.646-.854c-2.108 2.02-4.4 3.032-6.877 3.032-1.65 0-2.996-.513-4.036-1.538-1.04-1.025-1.56-2.35-1.56-3.973 0-1.594.55-2.925 1.646-3.993 1.096-1.068 2.97-2.13 5.617-3.183l5.21-2.008v11.663zm48.917-30.392a13.031 13.031 0 0 0-6.834-1.9c-4.413 0-8.357 1.92-11.83 5.766v-4.998h-7.946v39.298h7.945V316.86c2.562-3.675 5.68-5.51 9.354-5.51 2.876 0 4.926.86 6.15 2.584 1.225 1.723 1.838 4.592 1.838 8.607v22.384h7.774v-22.468c0-4.784-.55-8.28-1.645-10.486a12.396 12.396 0 0 0-4.805-5.213zm45.715-.32c-3.077-1.11-5.924-1.666-8.544-1.666-5.638 0-10.273 1.866-13.904 5.597-3.63 3.73-5.446 8.486-5.446 14.267 0 6.18 1.73 11.106 5.19 14.78 3.46 3.673 8.095 5.51 13.904 5.51h16.616V285.25h-7.817v21.187zm0 31.823h-6.024c-3.475 0-5.88-.228-7.22-.683-1.338-.455-2.605-1.338-3.8-2.648-1.994-2.194-2.99-5.312-2.99-9.356 0-4.3 1.145-7.717 3.438-10.252 2.292-2.534 5.375-3.802 9.248-3.802 2.477 0 4.927.613 7.347 1.837v24.903zm45.243-.257V321.3c0-3.302-.093-5.545-.277-6.727-.186-1.18-.62-2.363-1.303-3.545-.683-1.182-1.452-2.13-2.307-2.84-2.563-2.222-5.966-3.333-10.21-3.333-5.666 0-10.01 1.78-13.027 5.34v8.5c4.014-4.386 8.143-6.58 12.386-6.58 4.727 0 7.09 2.365 7.09 7.092v2.093l-9.952 3.417c-3.275 1.14-5.802 2.684-7.582 4.634-1.78 1.952-2.67 4.166-2.67 6.644 0 2.734.912 5.005 2.735 6.813 1.822 1.808 4.1 2.712 6.834 2.712 3.73 0 7.248-1.282 10.552-3.845.598 2.62 2.563 3.93 5.895 3.93a9.214 9.214 0 0 0 3.353-.62c1.067-.412 2.484-1.19 4.25-2.328v-4.74c-1.993 1.394-3.46 2.092-4.4 2.092-.912 0-1.367-.668-1.367-2.007zm-7.646-.854c-2.108 2.02-4.4 3.032-6.877 3.032-1.652 0-2.997-.513-4.036-1.538-1.04-1.025-1.56-2.35-1.56-3.973 0-1.594.55-2.925 1.646-3.993 1.096-1.068 2.968-2.13 5.617-3.183l5.21-2.008v11.663zm18.803-31.524v7.262h19.802l-20.656 32.036h34.43v-7.26h-20.812l20.81-32.038zm38.666 0v7.262h19.802l-20.656 32.036h34.43v-7.26H710.92l20.81-32.038zm51.609 29.155c-2.45-2.38-3.674-5.447-3.674-9.206 0-3.787 1.197-6.905 3.59-9.355 2.39-2.45 5.452-3.675 9.183-3.675 2.14 0 4.07.394 5.805 1.153l3.084-6.6c-2.552-1.03-5.37-1.558-8.462-1.558-6.038 0-11.056 1.915-15.057 5.745-4.002 3.83-6.002 8.622-6.002 14.373 0 5.696 1.98 10.444 5.938 14.246a19.92 19.92 0 0 0 6.323 4.125l3.142-6.72a12.132 12.132 0 0 1-3.867-2.53zm135.228-29.24c-6.038 0-11.056 1.915-15.057 5.745-4.002 3.83-6.002 8.622-6.002 14.373 0 5.696 1.98 10.444 5.937 14.246 3.96 3.8 8.886 5.702 14.78 5.702 6.094 0 11.15-1.872 15.165-5.617 4.015-3.746 6.023-8.452 6.023-14.12 0-5.836-1.98-10.685-5.937-14.544-3.957-3.857-8.927-5.786-14.907-5.786zm9.29 29.195c-2.434 2.407-5.56 3.61-9.375 3.61-3.844 0-6.99-1.19-9.44-3.566-2.45-2.38-3.674-5.447-3.674-9.206 0-3.787 1.196-6.905 3.588-9.355 2.392-2.45 5.453-3.675 9.184-3.675 3.844 0 7.033 1.224 9.568 3.674 2.534 2.45 3.802 5.538 3.802 9.268 0 3.76-1.218 6.842-3.652 9.247zm41.167-29.195c-6.04 0-11.057 1.915-15.058 5.745-4.002 3.83-6.002 8.622-6.002 14.373 0 5.696 1.98 10.444 5.937 14.246 3.958 3.8 8.885 5.702 14.78 5.702 6.093 0 11.148-1.872 15.163-5.617 4.015-3.746 6.023-8.452 6.023-14.12 0-5.836-1.98-10.685-5.937-14.544-3.958-3.857-8.927-5.786-14.907-5.786zm9.29 29.195c-2.436 2.407-5.56 3.61-9.377 3.61-3.844 0-6.99-1.19-9.44-3.566-2.45-2.38-3.674-5.447-3.674-9.206 0-3.787 1.195-6.905 3.587-9.355 2.392-2.45 5.453-3.675 9.184-3.675 3.845 0 7.034 1.224 9.57 3.674 2.533 2.45 3.8 5.538 3.8 9.268 0 3.76-1.216 6.842-3.65 9.247zm48.81-27.978a13.029 13.029 0 0 0-6.834-1.9c-4.414 0-8.358 1.92-11.832 5.766v-4.998h-7.945v39.298h7.944V316.86c2.563-3.675 5.68-5.51 9.355-5.51 2.875 0 4.926.86 6.15 2.584 1.224 1.723 1.837 4.592 1.837 8.607v22.384H1000v-22.468c0-4.784-.548-8.28-1.644-10.486a12.41 12.41 0 0 0-4.806-5.213z"/></svg>