<svg xmlns="http://www.w3.org/2000/svg" viewBox="0 0 95 15" enable-background="new 0 0 95 15"><g><path fill="#D5BA93" d="M0 0h95v15H0z"/><g fill="#fff"><path d="M3.714 10.835V3.673h1.503c.72 0 1.29.07 1.707.213.448.14.855.375 1.22.71.74.674 1.108 1.56 1.108 2.658 0 1.102-.385 1.99-1.155 2.672-.387.34-.792.577-1.215.71-.396.133-.957.2-1.684.2H3.714zm1.08-1.016h.488c.486 0 .89-.052 1.21-.154.323-.108.613-.28.873-.515.532-.484.798-1.117.798-1.896 0-.786-.263-1.422-.79-1.91-.472-.437-1.17-.655-2.09-.655h-.488v5.13zM11.883 3.673v7.162h-1.08V3.673h1.08zM17.843 4.74l-.876.52c-.164-.285-.32-.47-.47-.557-.154-.1-.353-.148-.598-.148-.3 0-.55.085-.748.255-.198.167-.297.377-.297.63 0 .35.26.632.78.845l.713.292c.582.235 1.007.522 1.275.86.27.34.404.754.404 1.246 0 .658-.22 1.203-.66 1.633-.44.433-.99.65-1.645.65-.622 0-1.135-.185-1.54-.553-.4-.368-.648-.887-.747-1.555l1.095-.24c.05.42.136.71.26.87.223.31.547.466.974.466.337 0 .617-.113.84-.34s.333-.51.333-.857c0-.14-.02-.267-.058-.383-.04-.116-.1-.223-.182-.32-.082-.097-.188-.188-.318-.273-.13-.084-.284-.165-.464-.242l-.69-.288c-.98-.414-1.47-1.02-1.47-1.818 0-.538.205-.988.616-1.35.41-.365.923-.547 1.536-.547.826 0 1.47.4 1.935 1.205zM24.815 4.058v1.28c-.625-.522-1.27-.784-1.94-.784-.735 0-1.355.264-1.86.793-.506.525-.76 1.17-.76 1.93 0 .75.254 1.385.76 1.9.508.518 1.13.776 1.866.776.38 0 .704-.062.97-.186.148-.062.302-.146.46-.25s.328-.232.504-.38v1.302c-.62.35-1.268.523-1.948.523-1.023 0-1.897-.357-2.62-1.07-.722-.722-1.082-1.59-1.082-2.608 0-.912.302-1.726.904-2.44.742-.874 1.703-1.312 2.88-1.312.645 0 1.267.175 1.867.525zM25.965 7.222c0-1.008.37-1.874 1.108-2.598.736-.724 1.62-1.086 2.653-1.086 1.02 0 1.896.365 2.626 1.095.732.73 1.1 1.607 1.1 2.63 0 1.03-.37 1.904-1.105 2.62-.74.722-1.63 1.082-2.677 1.082-.924 0-1.755-.32-2.49-.96-.81-.708-1.215-1.636-1.215-2.783zm1.09.013c0 .792.266 1.442.798 1.953.53.51 1.14.766 1.833.766.75 0 1.385-.26 1.902-.78.517-.525.774-1.166.774-1.92 0-.764-.255-1.404-.765-1.92-.507-.52-1.135-.78-1.883-.78-.745 0-1.375.26-1.888.78-.514.513-.77 1.147-.77 1.9zM35.048 3.673l1.98 4.964 2.01-4.964h1.182l-3.214 7.7-3.14-7.7h1.182zM45.253 4.688H42.38V6.41h2.79v1.016h-2.79V9.82h2.873v1.016H41.3V3.673h3.953v1.015zM49.288 7.783l2.218 3.052h-1.322l-2.046-2.932h-.195v2.932h-1.08V3.673h1.266c.944 0 1.628.178 2.05.533.463.396.695.92.695 1.568 0 .507-.146.943-.437 1.308-.29.365-.673.6-1.15.7zm-1.345-.82h.343c1.023 0 1.535-.393 1.535-1.175 0-.733-.497-1.1-1.492-1.1h-.385v2.274zM56.974 3.673v7.162h-1.08V3.673h1.08zM60.86 4.688v6.146h-1.08V4.688h-1.646V3.673h4.37V4.69H60.86zM66.78 10.835v-7.65L72 8.652V3.674h1.08v7.598L67.86 5.82v5.015h-1.08zM74.697 7.222c0-1.008.37-1.874 1.108-2.598.736-.724 1.62-1.086 2.653-1.086 1.02 0 1.896.365 2.626 1.095.732.73 1.1 1.607 1.1 2.63 0 1.03-.368 1.904-1.104 2.62-.74.722-1.63 1.082-2.677 1.082-.925 0-1.755-.32-2.49-.96-.81-.708-1.216-1.636-1.216-2.783zm1.09.013c0 .792.267 1.442.798 1.953.53.51 1.14.766 1.832.766.752 0 1.386-.26 1.902-.78.516-.525.773-1.166.773-1.92 0-.764-.255-1.404-.765-1.92-.508-.52-1.136-.78-1.884-.78-.745 0-1.375.26-1.888.78-.512.513-.77 1.147-.77 1.9zM83.78 3.673l1.863 4.787 1.948-5.135 1.866 5.135 1.98-4.787h1.174l-3.2 7.617-1.842-5.075-1.92 5.08-3.043-7.622h1.174z"/></g></g></svg>