<svg xmlns="http://www.w3.org/2000/svg" viewBox="0 0 100 20" enable-background="new 0 0 100 20"><g fill="#fff"><path d="M13.1 10.71c0 3.93-2.827 6.386-6.55 6.386C2.826 17.096 0 14.64 0 10.71V.415h2.895v10.202c0 1.61.873 3.722 3.654 3.722 2.78 0 3.652-2.115 3.652-3.723V.415H13.1V10.71zM18.845.415h3.838l7.882 12.087.045.045h-.045l.045-.045V.415h2.896v16.268H29.83L21.786 4.206h-.045v12.477h-2.896V.415zM41.968 3.034h-4.986V.414H49.85v2.62h-4.986v13.65h-2.896V3.033zM59.894.002c5.078-.093 8.664 3.307 8.664 8.523 0 5.08-3.585 8.48-8.664 8.57-5.008 0-8.594-3.4-8.594-8.477 0-5.216 3.586-8.616 8.594-8.616zm.024 14.477c3.378 0 5.607-2.575 5.607-6.044 0-3.242-2.228-5.816-5.607-5.816-3.355 0-5.584 2.574-5.584 5.816 0 3.47 2.23 6.043 5.584 6.043zM72.583.415h2.895v13.65h6.916v2.618h-9.81V.415zM85.316.415h6.41C96.002.415 100 3.035 100 8.55c0 5.56-4.71 8.134-8.617 8.134h-6.067V.414zm5.056 13.65c3.63 0 6.594-1.564 6.594-5.515 0-3.954-2.573-5.517-6.112-5.517h-2.642v11.03h2.16z"/></g></svg>