<svg xmlns="http://www.w3.org/2000/svg" viewBox="0 0 1000 465" enable-background="new 0 0 1000 465"><g><path d="M444.482 0v209.178h110.813V0H444.482z" fill-rule="evenodd" clip-rule="evenodd" fill="#fff"/><path d="M83.49 345.982c-.445 0-1.196.047-1.196.342 0 11.205-4.28 30-32.968 30H32.32c-.83 0-.988-.18-.988-.516l-.103-52.316H37c11.387 0 18.46 6.773 18.46 17.68 0 .668 2.237.668 2.237 0v-38.07c0-.29-.698-.336-1.115-.336-.42 0-1.12.047-1.12.336 0 11.074-6.9 17.686-18.462 17.686l-5.668.1v-49.453c0-.334.157-.52.988-.52h16.536c23.142 0 25.64 18.805 25.64 26.89 0 .435 1.06.452 1.272.452.212 0 1.274-.017 1.274-.453v-29.022c0-.203-.19-.568-.573-.568H.34c-.28 0-.34.736-.34 1.348 0 .62.06 1.353.34 1.353h12.948c.692 0 .83.203.83.52V375.81c0 .318-.138.516-.83.516H.34c-.28 0-.34.738-.34 1.352 0 .62.06 1.354.34 1.354h83.773c.37 0 .572-.2.572-.572v-32.133c0-.298-.747-.345-1.194-.345zM129.206 376.324h-8.582c-.83 0-.988-.18-.988-.516V264.73c0-.208-.19-.573-.572-.573H96.602c-.426 0-.458 1.035-.458 1.352s.032 1.347.458 1.347h8.578c.83 0 .986.187.986.52V375.81c0 .336-.155.516-.986.516h-8.578c-.426 0-.458 1.04-.458 1.352 0 .32.032 1.354.458 1.354h32.604c.28 0 .337-.734.337-1.354 0-.615-.057-1.354-.337-1.354zM173.356 376.324h-8.735c-.69 0-.834-.197-.834-.516v-62.875c0-.367-.202-.572-.572-.572h-22.62c-.28 0-.338.737-.338 1.354 0 .62.058 1.352.337 1.352h8.582c.948 0 .986.164.986.52v60.223c0 .356-.037.515-.985.515h-8.582c-.28 0-.337.738-.337 1.352 0 .62.058 1.354.337 1.354h32.764c.278 0 .34-.733.34-1.353-.002-.614-.062-1.353-.34-1.353zM156.976 283.55c4.875 0 8.84-4.103 8.84-9.15 0-5.134-3.965-9.308-8.84-9.308-4.79 0-8.686 4.174-8.686 9.31s3.816 9.15 8.686 9.15zM239.973 356.594c-.446 0-1.195.04-1.195.336 0 13.777-6.163 19.394-21.27 19.394h-16.07c-.554 0-.687-.082-.692-.305l39.484-62.435c.14-.564.14-.926 0-1.098h-.22c-.015-.008-.022-.024-.038-.024h-7.045l-42.256-.103c-.367 0-.57.205-.57.572v19.5c0 .56 2.548.56 2.548 0 0-12.82 4.955-17.367 18.93-17.367h12.482c.727 0 .793.14.693.31l-39.155 62.397c-.25.33-.318.668-.188.926.102.207.323.33.584.33h54.603c.532 0 .572-.217.572-.572V356.93c0-.297-.75-.336-1.197-.336zM316.274 372.852c-.073-.04-.12-.047-.142-.023-.04-.005-.088-.032-.122-.024-.65 1.62-2.508 3.367-5.05 3.367-2.217 0-3.488-1.9-3.488-5.203v-31.668c0-18.805-8.432-28.344-25.063-28.344-12.388 0-18.982 7.13-18.982 12.274 0 3.547 1.963 7.123 6.342 7.123 5.143 0 6.97-3.08 6.97-5.713 0-1.164-.326-1.926-.678-2.74-.357-.832-.725-1.693-.725-3.04 0-3.544 2.245-5.196 7.072-5.196 5.734 0 11.596 1.654 11.596 13.934v11.86c0 2.98-8.27 3.716-16.268 4.433l-1.58.145c-7.61.777-20.377 4.402-20.377 19.914 0 10.322 7.914 16.484 21.17 16.484 7.678 0 13.3-3.95 16.17-8.572.613-.943 1.15-1.916 1.545-2.928 1.27 6.984 6.06 11.5 12.235 11.5 5.85 0 9.88-3.172 10.7-6.14.05-.09.023-.216-.083-.388-.222-.363-.807-.924-1.243-1.056zm-22.268-29.307v18.373c0 7.186-5.852 15.188-14.25 15.188-7.074 0-10.66-4.422-10.66-13.156 0-14.13 4.756-16.277 10.055-17.37 1.252-.212 2.684-.372 4.176-.534 3.777-.41 8.05-.878 10.68-2.5zm.727 25.242c.2 1.146.542 2.236.95 3.295-.41-.994-.764-2.043-1.005-3.182.015-.04.04-.076.055-.113zM362.914 310.957c-4.98 0-9.18 1.555-12.678 4.746-.595.516-1.176 1.06-1.728 1.652V264.73c0-.147 0-.574-.573-.574H325.47c-.278 0-.337.736-.337 1.352 0 .617.06 1.348.337 1.348h8.738c.653 0 .987.176.987.52v108.433c0 .124 0 .515-.987.515h-8.738c-.278 0-.337.738-.337 1.352 0 .62.06 1.354.337 1.354h22.466c.533 0 .573-.216.573-.57l-.106-3.13v-2.188c4.068 4.363 10.57 7.293 16.226 7.293 18.54 0 30.993-17.72 30.993-34.268 0-16.622-13.99-35.21-32.71-35.21zm0 2.707c2.9 0 8.274.422 11.633 3.25 4.84 4.084 7.296 13.93 7.296 29.252 0 15.115-2.318 24.115-7.296 28.31-2.814 2.376-5.503 3.257-9.917 3.257-5.816 0-13.343-3.107-16.12-9.88l-.01-45.985c2.378-5.384 9.048-8.204 14.414-8.204zm-14.434 3.72l-.076.073v-22.443l.076 22.37zm-.076 55.612c.636.687 1.37 1.342 2.144 1.973-.758-.593-1.484-1.214-2.144-1.88v-.094zM438.4 310.957c-17.994 0-32.088 15.258-32.088 34.738s14.094 34.738 32.087 34.738c10.444 0 20.088-5.475 26.456-15.033l-.06-.346c-.254-.406-1.086-1.057-1.52-1.008-5.94 8.824-14.775 13.685-24.877 13.685-4.855 0-8.452-1.083-11.322-3.41-4.876-4.112-6.36-10.8-6.36-28.626 0-1.176-.013-2.38-.24-3.34-.006-.045-.006-.098-.012-.14h45.236c.37 0 .572-.208.572-.58 0-9.605-7.02-30.677-27.875-30.677zm-17.943 28.66c.01-.215.024-.41.035-.62l-.03.62h-.005zm.107 0c.633-13.227 2.277-18.92 6.512-22.547 2.873-2.322 6.47-3.406 11.323-3.406 3.885 0 6.82 1.113 8.975 3.402 3.7 3.553 5.08 9.18 5.517 22.063.003.132.008.25.012.378l-31.184.11h-1.156zm32.342-.006v.003l-1.522.004 1.522-.006zm-32.45 2.5h5.568l-5.565.015c-.003-.006-.003-.012-.003-.016zM510.69 365.482c-1.77 6.596-5.29 10.53-9.418 10.53-2.71 0-4.265-1.61-4.265-4.42v-56.007c0-.32.14-.52.832-.52h12.948c.28 0 .337-.73.337-1.352 0-.617-.058-1.353-.337-1.353H497.84c-.693 0-.832-.2-.832-.518v-26.21c0-.274-1.285-.286-1.545-.286-.884 0-1.002.14-.997.25-1.963 5.697-5.665 8.98-11.084 9.867v16.38c0 .362-.04.517-.984.517h-10.766c-.278 0-.34.736-.34 1.353 0 .62.062 1.352.34 1.352h10.766c.944 0 .984.164.984.52v49.453c0 10.22 4.5 15.395 13.367 15.395 8.082 0 13.366-4.646 15.703-13.832 0-.37-1.184-1.223-1.764-1.118zM595.348 376.324h-8.584c-.758 0-.83-.137-.83-.516v-38.69c0-16.38-9.72-26.16-26.002-26.16-5.12 0-11.137 1.95-14.942 6.98-1.11 1.433-2.047 3.105-2.736 5.05V264.73c0-.147 0-.574-.574-.574h-22.463c-.28 0-.342.736-.342 1.352 0 .617.063 1.348.342 1.348h8.73c.66 0 .993.176.993.52v108.433c0 .124 0 .515-.992.515h-8.73c-.28 0-.343.738-.343 1.352 0 .62.063 1.354.342 1.354h32.603c.28 0 .337-.733.337-1.353 0-.613-.058-1.352-.337-1.352h-8.58c-.985 0-.985-.39-.985-.516l-.008-47.4c3.444-10.34 8.734-14.745 17.686-14.745 4.724 0 12.222 4.293 12.222 15.81v46.335c0 .363-.206.516-.677.516h-8.58c-.423 0-.457 1.04-.457 1.352 0 .32.035 1.354.457 1.354h32.452c.278 0 .333-.734.333-1.354 0-.615-.056-1.354-.335-1.354zm-53.106-53.318c-.026.08-.068.145-.095.225v-28.29l.095 28.066zM713.438 376.324H700.49c-.576 0-.968-.277-.994-.398l-39.472-109.828c-.13-.392-1.34-.424-1.708-.424-.368 0-1.584.03-1.71.424l-35.732 103.748c-1.868 6.08-2.182 6.478-3.49 6.478h-10.657c-.095 0-.22 0-.22 1.352 0 1.354.125 1.354.22 1.354H635.9c.28 0 .34-.734.34-1.354 0-.613-.06-1.352-.34-1.352h-12.952c-.166 0-.23-.05-.26-.098-.288-.398.26-2.27 1.612-6.316l9.416-27.387 35.626-.066 11.576 33.63c-.042.1-.26.237-.555.237h-13.416c-.28 0-.337.738-.337 1.352 0 .62.058 1.354.337 1.354h46.49c.278 0 .336-.734.336-1.354 0-.613-.056-1.352-.335-1.352zm-44.616-36.4h-7.768l7.758-.03.01.03zm-34.32 0l4.34-12.637-4.305 12.637h-.036zm.11 0l17.202-50.072 12.94 38.023 4.03 11.95-25.063.1h-9.11zm46.402 36.146c-.002.047-.028.096-.073.144.03-.042.056-.09.074-.144zM756.346 310.957c-6.952 0-11.292 2.414-14.103 8.016-.62 1.186-1.2 2.484-1.705 3.988v-10.026c0-.357-.037-.572-.576-.572h-22.464c-.278 0-.34.736-.34 1.353 0 .62.062 1.352.34 1.352h8.582c.826 0 .99.184.99.52v60.223c0 .336-.164.516-.99.516h-8.582c-.278 0-.34.738-.34 1.352 0 .62.062 1.354.34 1.354h32.608c.28 0 .337-.734.337-1.354 0-.613-.058-1.352-.337-1.352h-8.736c-.69 0-.832-.197-.832-.516l-.005-46.158c2.49-10.082 6.02-14.584 11.444-14.584 2.44 0 3.95 1.516 3.95 3.953 0 1.2-.395 1.92-.815 2.685-.495.894-1.056 1.91-1.056 3.867 0 3.227 2.997 5.57 7.124 5.57 3.47 0 6.968-2.69 6.968-8.687 0-5.724-3.647-11.498-11.802-11.498zm-15.82 12.03c-.027.087-.062.153-.094.243v-5l.095 4.758zM846.834 376.324h-8.582c-.832 0-.986-.18-.986-.516V264.73c0-.194-.182-.573-.42-.573H814.38c-.278 0-.337.736-.337 1.352 0 .616.06 1.347.338 1.347h8.585c.69 0 .832.205.832.52l.1 27.905v22.024c-3.816-4.266-8.56-6.348-14.506-6.348-18.72 0-32.71 18.588-32.71 35.21 0 16.548 12.517 34.267 31.15 34.267 7.774 0 12.983-3.863 15.036-6.967.42-.596.746-1.158.932-1.654v6.644c0 .37.203.572.57.572h22.467c.434 0 .45-1.127.45-1.354 0-.225-.017-1.352-.45-1.352zm-56.217-30.158c0-15.584 2.437-25.146 7.45-29.252 3.192-2.687 7.92-3.25 11.323-3.25 5.604 0 12.354 2.817 14.406 8.164v42.902c0 6.47-4.94 13.002-15.97 13.002-4.353 0-6.905-.855-9.76-3.256-5.086-4.156-7.45-13.156-7.45-28.31zm33.28-28.81v.1c-.597-.675-1.237-1.284-1.895-1.862.646.543 1.283 1.12 1.894 1.762zm0 54.238v3.277l-.09-3.083c.02-.06.074-.137.09-.193zM885.654 310.957c-17.994 0-32.09 15.258-32.09 34.738s14.096 34.738 32.09 34.738c10.443 0 20.084-5.475 26.46-15.033l-.065-.346c-.253-.41-1.122-1.047-1.52-1.008-5.938 8.824-14.772 13.685-24.876 13.685-4.85 0-8.453-1.083-11.324-3.41-4.873-4.112-6.36-10.8-6.36-28.626 0-1.176-.01-2.383-.235-3.34-.006-.047-.006-.098-.014-.14h45.237c.37 0 .572-.208.572-.58 0-9.605-7.022-30.677-27.876-30.677zm-17.94 28.66c.01-.22.023-.418.032-.63-.008.212-.02.41-.03.63h-.003zm.104 0c.637-13.23 2.28-18.92 6.512-22.547 2.87-2.322 6.473-3.406 11.324-3.406 3.885 0 6.817 1.113 8.975 3.402 3.704 3.56 5.083 9.18 5.516 22.068.004.127.008.248.014.373l-31.184.11h-1.158zm32.342-.006v.003l-1.522.004 1.522-.006zm-32.447 2.5h5.565l-5.565.015v-.016zM999.545 376.324h-8.584c-.757 0-.83-.137-.83-.516v-38.69c0-16.38-9.66-26.16-25.85-26.16-6.3 0-11.546 2.43-14.884 6.677-.004.006-.01.01-.01.014-.424.538-.797 1.12-1.156 1.718-.69 1.094-1.305 2.277-1.78 3.62v-10.054c0-.357-.038-.572-.573-.572h-22.465c-.28 0-.336.736-.336 1.353 0 .62.057 1.352.336 1.352h8.732c.99 0 .99.39.99.52v60.223c0 .125 0 .516-.99.516h-8.732c-.28 0-.336.738-.336 1.352 0 .62.057 1.354.336 1.354h32.603c.28 0 .34-.734.34-1.354 0-.613-.06-1.352-.34-1.352h-8.578c-.988 0-.988-.39-.988-.516l-.01-47.398c3.448-10.34 8.782-14.746 17.84-14.746 4.73 0 12.228 4.293 12.228 15.81v46.335c0 .32-.143.517-.834.517h-8.582c-.174 0-.24.258-.28.48-.036.24-.056.556-.056.872 0 .618.057 1.353.336 1.353h32.453c.432 0 .455-1.127.455-1.354 0-.23-.023-1.356-.455-1.356zm-53.107-53.31c-.027.08-.067.137-.094.217v-4.995l.094 4.78z"/><path d="M448.888 4.295v200.44H550.87V4.294H448.888z" fill-rule="evenodd" clip-rule="evenodd" fill="#D31245"/><path d="M538.848 116.56h-34.874V91.304h34.874v25.254zm-30.485-4.388h26.084V95.7h-26.084v16.472zM495.675 116.56h-34.882V91.304h34.882v25.254zm-30.492-4.388h26.095V95.7h-26.095v16.472zM538.848 83.803h-34.874V16.27h34.874v67.533zm-30.485-4.39h26.084v-58.74h-26.084v58.74zM495.675 83.803h-34.882V16.27h34.882v67.533zm-30.492-4.39h26.095v-58.74h-26.095v58.74zM538.848 191.664h-34.874v-67.52h34.874v67.52zm-30.485-4.39h26.084v-58.74h-26.084v58.74zM495.675 191.664h-34.882v-67.52h34.882v67.52zm-30.492-4.39h26.095v-58.74h-26.095v58.74z" fill="#fff"/><path d="M326.677 445.395c-1.225-1.322-2.91-3.453-2.91-3.453s.32 2.543.32 4.453v17.03h-4.454v-31.2h.636l17.035 18.3c1.182 1.274 2.86 3.458 2.86 3.458s-.313-2.732-.313-4.45V432.54h4.446v31.207h-.592l-17.03-18.352zM373.536 432.54h19.62v4.216H378.35v11.998h13.122v4.13H378.35v6.315h15.44v4.226h-20.255V432.54zM419.125 432.54h5.043l5.45 16.442c.592 1.72 1.182 4.404 1.182 4.404s.776-2.63 1.497-4.404l7.086-16.758h.593l7.13 16.758c.73 1.72 1.457 4.404 1.457 4.404s.633-2.684 1.223-4.404l5.455-16.443h4.674l-10.67 31.206h-.594l-7.675-18.4c-.637-1.498-1.272-3.768-1.272-3.768s-.73 2.27-1.363 3.768l-7.856 18.4h-.592l-10.767-31.207zM512.116 453.66l-11.727-21.12h5.314l7 12.722c.953 1.72 1.858 4.445 1.858 4.445s.958-2.725 1.863-4.445l6.77-12.723h4.948l-11.218 20.847v10.04h-4.81v-9.767zM550.795 447.982c0-9.22 7.09-15.848 15.945-15.848 8.813 0 15.897 6.627 15.897 15.848 0 9.22-7.085 15.854-15.897 15.854-8.855 0-15.945-6.633-15.945-15.854zm26.937 0c0-6.588-4.54-11.54-10.992-11.54-6.45 0-11.037 4.952-11.037 11.54 0 6.59 4.587 11.537 11.037 11.537 6.452 0 10.992-4.948 10.992-11.538zM631.858 463.426h-5.54l-5.55-8.133c-.857.094-1.715.184-2.578.184h-2.91v7.95h-4.816v-30.888h7.727c8.537 0 13.306 4.448 13.306 11.532 0 4.774-2.137 8.04-6.18 9.815l6.542 9.54zm-13.852-12.08c6.135 0 8.584-2.686 8.584-7.274 0-4.627-2.542-7.316-8.584-7.316h-2.727v14.59h2.726zM666.55 445.625l9.993-13.086h5.447l-10.942 14.442 12.172 16.443h-5.81l-9.543-12.902-3.313 4.05v8.853h-4.818V432.54h4.818v12.722c0 1.41-.19 3.27-.363 4.535.676-1.402 1.584-3.125 2.36-4.172z"/></g></svg>