<svg xmlns="http://www.w3.org/2000/svg" viewBox="0 0 1000 325" style="enable-background:new 0 0 1000 325" xml:space="preserve"><path d="M115.932 259.214c0 16.575 0 27.624 3.485 36.832 1.584 4.42 5.701 11.418 5.701 13.628 0 1.473-1.584 2.21-2.851 2.947l-12.353 8.84c-1.267.736-1.901 1.105-2.534 1.105-4.435 0-10.136-15.838-11.403-21.731-7.602 6.261-23.123 21.731-46.563 21.731C15.521 322.565 0 278.367 0 232.695c0-53.039 16.155-97.237 52.898-97.237 19.639 0 30.409 6.261 38.961 12.523V60.32c0-2.578.95-4.052 2.217-4.42l15.521-4.42c2.534-.737 1.584-.368 3.801-.737 2.534 0 2.534 2.947 2.534 4.788v203.683zM91.859 172.29c-10.136-6.261-20.272-12.155-36.11-12.155-27.241 0-29.775 36.096-29.775 71.823 0 30.94 2.218 65.93 27.875 65.93 16.471 0 30.409-16.206 38.011-21.731V172.29zM302.503 312.252c0 4.42-.95 5.156-4.434 5.156h-97.561c-2.534 0-3.801-1.473-3.801-4.42V69.528c0-2.947 1.267-4.42 3.801-4.42h98.511c3.484 0 4.118 1.105 4.118 2.21s-.634 3.315-.95 4.788l-4.435 15.469c-.95 3.315-1.901 3.315-4.751 3.315h-70.32v81.768h62.084c3.484 0 4.118.736 4.118 4.788v16.206c0 4.051-.634 4.788-4.118 4.788h-62.084v93.186h76.021c2.534 0 3.801 1.473 3.801 4.052v16.574zM482.738 291.626c2.217 0 3.801.736 3.801 2.946 0 1.473-.95 2.947-1.267 4.789l-4.435 13.996c-.95 2.947-2.851 4.052-5.068 4.052h-95.66c-2.534 0-3.801-1.473-3.801-4.42V69.528c0-2.947 1.267-4.42 3.801-4.42h18.372c2.534 0 3.801 1.473 3.801 4.42v222.099h80.456zM575.228 312.989c0 2.947-1.267 4.42-3.801 4.42h-16.471c-2.534 0-3.801-1.473-3.801-4.42V163.45h-24.707c-2.533 0-3.801-1.473-3.801-4.42v-13.996c0-2.946 1.267-4.42 3.801-4.42h44.663c3.484 0 4.118 2.21 4.118 5.525v166.85zM561.607 98.257c-10.77 0-19.322-9.945-19.322-22.468s8.552-22.468 19.322-22.468 19.322 10.313 19.322 22.468-8.552 22.468-19.322 22.468zM798.541 308.937c.634 2.579 1.267 4.42 1.584 6.262 0 1.841-1.267 2.21-4.435 2.21h-19.638c-3.801 0-5.068-1.473-5.701-4.052l-17.738-71.087h-64.935l-16.154 71.087c-.634 2.578-1.901 4.052-5.702 4.052h-19.638c-3.167 0-4.434-.368-4.434-2.21.316-1.842.633-3.683 1.583-6.262l63.351-239.778c.95-3.683 1.267-4.052 4.751-4.052h18.688c2.534 0 3.485 0 4.751 4.052l63.667 239.778zm-70.953-173.848c-2.534-11.418-5.702-24.678-7.285-34.991h-.634c-1.267 8.84-4.434 25.046-6.652 34.991l-19.322 81.4h52.898l-19.005-81.4zM988.913 164.923c-1.267 2.947-1.9 4.42-3.801 4.42-2.217 0-15.521-9.945-31.992-9.945-12.67 0-23.44 7.367-23.44 24.309 0 40.516 70.32 29.098 70.32 86.556 0 34.623-23.44 52.302-50.681 52.302-15.204 0-48.146-10.313-48.146-17.679 0-1.842.633-2.947 1.267-4.42l4.434-11.418c.95-2.578 1.9-3.315 2.851-3.315 2.85 0 19.322 12.891 40.861 12.891 13.621 0 25.341-8.84 25.341-26.519 0-38.306-70.32-29.835-70.32-85.451 0-29.834 19.955-51.197 47.83-51.197 10.77 0 29.141 5.893 37.377 11.05 2.533 1.473 3.484 2.946 3.484 4.788 0 1.105-.951 2.21-1.267 3.683l-4.118 9.945z"/><path d="M943.374 101.878c-7.128-1.436-27.239 2.69-36.256.873l-1.198-.241c-21.791-4.702-24.017-19.132-4.948-32.068l1.054-.696c7.869-5.192 28.062-9.216 34.331-13.352 3.636-2.399 4.881-7.712 2.782-11.867-2.099-4.155-6.748-5.578-10.383-3.18-6.268 4.136-19.354 22.07-27.283 27.303l-1.054.696c-19.337 12.406-29.159 2.987-21.826-20.93l.417-1.308c3.108-9.758 16.314-27.675 18.789-35.448 1.436-4.508-.598-9.493-4.543-11.134-3.945-1.641-8.307.684-9.742 5.192-2.476 7.773-2.412 31.124-5.544 40.957l-.416 1.307c-7.835 23.709-20.657 23.71-28.492.002l-.417-1.308c-3.108-9.758-3.068-33.184-5.544-40.957-1.436-4.508-5.798-6.833-9.742-5.192-3.945 1.641-5.979 6.626-4.543 11.134 2.476 7.773 15.658 25.615 18.789 35.448l.416 1.307c7.332 23.918-2.489 33.337-21.825 20.932l-1.055-.696c-7.869-5.192-21.015-23.166-27.283-27.303-3.635-2.399-8.284-.975-10.383 3.18-2.099 4.155-.853 9.468 2.782 11.867 6.268 4.136 26.401 8.12 34.331 13.352l1.054.695c19.069 12.936 16.843 27.366-4.947 32.068l-1.199.242c-8.948 1.803-29.128-2.309-36.256-.873-4.134.833-6.895 5.339-6.166 10.063.729 4.725 4.671 7.88 8.805 7.046 7.128-1.436 24.791-13.175 33.808-14.992l1.199-.242c21.883-4.099 28.295 8.589 14.248 28.197l-.785 1.069c-5.841 7.955-23.612 19.629-28.264 25.966-2.698 3.675-2.279 9.154.937 12.238 3.216 3.084 8.01 2.604 10.709-1.071 4.653-6.337 11.581-28.304 17.467-36.32l.783-1.067c14.457-19.215 26.505-14.203 26.773 11.138v1.392c0 10.384-7.048 32.382-7.048 40.654 0 4.798 3.403 8.687 7.601 8.687s7.601-3.889 7.601-8.687c0-8.272-7.048-30.19-7.048-40.654v-1.39c.268-25.342 12.315-30.355 26.772-11.141l.784 1.068c5.841 7.955 12.814 29.984 17.467 36.32 2.698 3.675 7.493 4.155 10.709 1.071 3.216-3.084 3.635-8.563.937-12.238-4.653-6.337-22.379-17.95-28.264-25.966l-.783-1.067c-14.047-19.608-7.637-32.298 14.246-28.199l1.2.242c8.948 1.803 26.68 13.555 33.808 14.992 4.134.833 8.077-2.322 8.805-7.046.727-4.726-2.033-9.232-6.167-10.065z"/></svg>