<svg xmlns="http://www.w3.org/2000/svg" viewBox="0 0 100 88"><path d="M34.8 42.2c-.1 0-.1 0 0 0 .3.9 0 1.8-.8 2.2-.2.1-.5.2-.8.2-.6 0-1.1-.3-1.4-.8l-.1.1c.5.7.5 1.7-.2 2.3-.3.3-.7.5-1.1.5-.4 0-.8-.2-1.1-.5v.1c.7.5 1 1.5.5 2.2-.3.5-.9.8-1.5.8-.3 0-.5-.1-.8-.2v.1c.8.3 1.3 1.2 1 2.1-.2.7-.9 1.2-1.6 1.2-.1 0-.3 0-.4-.1v.1c.9.1 1.5 1 1.4 1.9-.1.9-.8 1.5-1.7 1.5H26v.1c.9 0 1.6.8 1.6 1.7 0 .9-.8 1.7-1.7 1.7v.1c.9-.1 1.7.6 1.8 1.6s-.6 1.7-1.5 1.8v.1c.9-.1 1.7.5 1.9 1.4.1.9-.5 1.8-1.4 1.9v.1c.9-.2 1.8.4 2 1.3.2.9-.4 1.8-1.3 2v.1c.9-.2 1.8.3 2.1 1.2.3.9-.2 1.8-1.1 2.1v.1c.9-.3 1.8.1 2.1 1 .3.9-.1 1.8-1 2.2v.1c.8-.4 1.8 0 2.2.8.4.8 0 1.8-.8 2.2v.1c.8-.4 1.8-.2 2.3.6.5.8.2 1.8-.6 2.3v.1c.8-.5 1.8-.3 2.3.4.5.7.4 1.8-.4 2.3v.1l.1-.1.1-.1.1-.1s.1 0 .2-.1H36.1s.1 0 .2.1c0 0 .1 0 .1.1l.1.1.1.1.1.1.1.1.1.1c0 .1.1.1.1.1 0 .1 0 .1.1.2 0 .1 0 .1.1.2v1.2c0 .1 0 .1-.1.2 0 .1 0 .1-.1.2 0 .1 0 .1-.1.1 0 .1-.1.1-.1.1l-.1.1-.1.1-.1.1-.1.1-.1.1s-.1 0-.2.1h-1.2s-.1 0-.2-.1c0 0-.1 0-.1-.1s-.1-.1-.1-.1l-.1-.1-.1-.1-.1-.1-.1-.1c0-.1-.1-.1-.1-.1 0-.1 0-.1-.1-.2s0-.1-.1-.2v-1.2h-.1c-.3.9-1.3 1.3-2.1 1-.9-.3-1.3-1.2-1.1-2.1-.4.8-1.3 1.2-2.2.8-.8-.4-1.2-1.3-.9-2.2-.4.8-1.4 1.1-2.2.7-.8-.4-1.1-1.4-.8-2.2-.5.8-1.5 1-2.3.5-.8-.5-1-1.5-.6-2.3-.5.7-1.6.9-2.3.4-.7-.5-.9-1.5-.5-2.3-.6.7-1.6.8-2.3.2-.7-.6-.8-1.6-.3-2.3-.6.6-1.7.7-2.3.1-.7-.6-.7-1.7-.1-2.3-.7.6-1.7.5-2.3-.1-.6-.7-.6-1.7 0-2.3-.4.2-1.5.1-2-.7-.6-.7-.5-1.8.2-2.3-.8.5-1.8.3-2.3-.5-.5-.7-.3-1.7.4-2.3-.8.4-1.8.1-2.3-.7-.4-.7-.1-1.7.6-2.2-.8.4-1.8 0-2.2-.8-.4-.8 0-1.8.8-2.2-.9.3-1.8-.2-2.1-1-.3-.9.1-1.8 1-2.1-.9.2-1.8-.3-2-1.2-.2-.9.3-1.8 1.1-2.1-.9.1-1.8-.5-1.9-1.4s.4-1.8 1.3-2c-.9.1-1.7-.6-1.8-1.5-.1-.9.6-1.7 1.5-1.8-.9 0-1.7-.8-1.7-1.7 0-.9.7-1.7 1.6-1.7-.9-.1-1.6-.9-1.5-1.8.1-.9.8-1.6 1.8-1.6-.9-.2-1.5-1-1.3-1.9s1-1.5 1.9-1.4c-.9-.3-1.4-1.2-1.2-2 .2-.9 1.1-1.4 2-1.2-.8-.3-1.3-1.3-1-2.1.3-.9 1.2-1.3 2.1-1.1-.8-.4-1.2-1.4-.8-2.2s1.3-1.2 2.2-.9c-.8-.5-1.1-1.5-.6-2.3.4-.8 1.4-1.1 2.2-.7-.7-.5-1-1.5-.5-2.3.5-.8 1.5-1 2.3-.5-.7-.6-.8-1.6-.3-2.3.6-.7 1.6-.9 2.3-.3-.7-.6-.7-1.7-.1-2.4s1.7-.8 2.4-.1c-.6-.7-.6-1.7.1-2.4.7-.6 1.7-.6 2.4 0-.6-.7-.5-1.8.2-2.4.7-.6 1.7-.5 2.3.2-.5-.8-.3-1.8.4-2.3.7-.5 1.8-.4 2.3.3-.4-.8-.2-1.8.6-2.3.8-.5 1.8-.3 2.3.5-.4-.8-.1-1.8.7-2.2s1.8-.1 2.3.7c-.3-.8 0-1.8.9-2.2.8-.4 1.8 0 2.2.8-.3-.9.2-1.8 1-2.1.9-.3 1.8.1 2.1 1-.2-.9.3-1.8 1.2-2 .9-.3 1.8.2 2.1 1.1-.2-.9.4-1.8 1.3-2s1.8.3 2 1.2c-.1-.9.5-1.7 1.4-1.9.9-.1 1.7.5 1.9 1.3 0-.9.6-1.7 1.5-1.8.9-.1 1.7.6 1.8 1.5 0-.9.7-1.6 1.6-1.7.9 0 1.7.7 1.7 1.6.3-.7 1.1-1.4 2-1.4.9 0 1.6.8 1.6 1.7.1-.9.9-1.5 1.8-1.5.9.1 1.6.9 1.5 1.8.2-.9 1-1.5 1.9-1.3.9.1 1.5 1 1.4 1.9.2-.9 1.1-1.4 2-1.2.9.2 1.5 1.1 1.3 2 .3-.9 1.2-1.3 2.1-1.1.9.3 1.4 1.2 1.2 2 .4-.9 1.4-1.3 2.2-1s1.3 1.3 1 2.1c.4-.8 1.4-1.2 2.2-.8.8.4 1.2 1.3.9 2.2.4-.8 1.4-1.1 2.3-.7.8.4 1.1 1.4.7 2.2.5-.8 1.5-1 2.3-.5.8.5 1 1.5.6 2.3.5-.7 1.6-.9 2.3-.3.7.5.9 1.6.4 2.3.6-.7 1.6-.8 2.3-.2.7.6.8 1.6.2 2.3.6-.6 1.7-.6 2.3 0 .6.6.7 1.7.1 2.3.7-.6 1.7-.5 2.3.2.6.7.6 1.7-.1 2.3.7-.5 1.8-.4 2.3.4.5.7.4 1.7-.3 2.3.8-.5 1.8-.2 2.3.5.5.8.3 1.8-.4 2.3.8-.4 1.8-.1 2.2.7.4.8.1 1.8-.6 2.3.8-.3 1.8.1 2.2.9.4.8 0 1.8-.8 2.2.9-.3 1.8.2 2.1 1.1.3.9-.2 1.8-1 2.1.9-.2 1.8.3 2 1.2.2.9-.3 1.8-1.2 2 .9-.1 1.7.5 1.9 1.4.1.9-.4 1.8-1.3 1.9.9 0 1.7.7 1.8 1.6.1.9-.6 1.7-1.5 1.8.9 0 1.6.8 1.6 1.7 0 .9-.7 1.6-1.6 1.6.9.1 1.6.9 1.5 1.8-.1.9-.9 1.6-1.8 1.5.9.2 1.5 1.1 1.3 2-.2.9-1 1.5-1.9 1.4.9.3 1.4 1.2 1.1 2.1-.2.9-1.1 1.4-2 1.2.8.3 1.3 1.3 1 2.1-.3.9-1.3 1.3-2.1 1 .8.4 1.2 1.4.8 2.2-.4.8-1.4 1.2-2.2.8.8.5 1 1.5.6 2.3-.4.8-1.5 1.1-2.3.7.7.5.9 1.6.4 2.3-.5.8-1.5 1-2.3.5.7.6.8 1.6.2 2.3-.6.7-1.6.8-2.3.3.6.6.7 1.7 0 2.3-.6.7-1.7.7-2.3.1.6.7.5 1.7-.1 2.3s-1.7.6-2.4-.1c.5.7.4 1.8-.3 2.3-.7.6-1.7.5-2.3-.2.5.8.3 1.8-.5 2.3-.7.5-1.8.3-2.3-.4.4.8.2 1.8-.6 2.3-.8.5-1.8.2-2.3-.5.4.8 0 1.8-.8 2.2-.8.4-1.8.1-2.2-.7.3.8-.1 1.8-.9 2.2-.8.4-1.8 0-2.2-.8.3.9-.2 1.8-1.1 2.1-.2.1-.4.1-.6.1-.7 0-1.3-.4-1.6-1.1V87c0 .1 0 .1-.1.2 0 .1 0 .1-.1.2 0 .1 0 .1-.1.1 0 .1-.1.1-.1.1l-.1.1-.1.1-.1.1-.1.1-.1.1s-.1 0-.2.1h-1.2s-.1 0-.2-.1c0 0-.1 0-.1-.1s-.1-.1-.1-.1l-.1-.1-.1-.1-.1-.1-.1-.1c0-.1-.1-.1-.1-.1 0-.1 0-.1-.1-.2 0-.1 0-.1-.1-.2v-1.2c0-.1 0-.1.1-.2 0-.1 0-.1.1-.2 0-.1 0-.1.1-.1l.1-.1.1-.1.1-.1.1-.1.1-.1.1-.1s.1 0 .2-.1H64.6c.1 0 .1 0 .2.1 0 0 .1 0 .1.1-.5-.6-.5-1.4-.1-2.1.5-.6 1.3-.9 2-.6-.5-.5-.7-1.4-.3-2.1.4-.7 1.2-1 1.9-.8-.6-.5-.8-1.3-.5-2 .3-.7 1.1-1.1 1.9-.9-.6-.4-.9-1.3-.6-2 .3-.8 1.1-1.2 1.8-1.1-.7-.4-1-1.2-.8-2 .2-.8 1-1.2 1.7-1.2-.7-.3-1.1-1.1-.9-1.9.2-.8.9-1.3 1.7-1.3-.7-.3-1.2-1-1-1.8.1-.8.8-1.4 1.6-1.4-.7-.2-1.2-1-1.1-1.8.1-.8.7-1.4 1.5-1.5-.7-.2-1.3-.9-1.3-1.7 0-.8.6-1.5 1.3-1.6-.7-.1-1.3-.8-1.4-1.5-.1-.8.4-1.5 1.1-1.7-.7 0-1.4-.6-1.6-1.3-.2-.8.2-1.5.8-1.8h-.8s-.1 0-.2-.1c0 0-.1 0-.1-.1l-.1-.1-.1-.1-.1-.1-.1-.1-.1-.1c0-.1-.1-.1-.1-.1 0-.1 0-.1-.1-.2 0-.1 0-.1-.1-.2s0-.1 0-.2v-.1h-.1c.1.9-.6 1.7-1.5 1.8H69c-.9 0-1.6-.7-1.7-1.5h-.1c0 .9-.7 1.7-1.6 1.7-.9 0-1.7-.7-1.7-1.6h.1c0 .9-.8 1.6-1.7 1.6h-.1c-.9 0-1.7-.8-1.6-1.8h-.1c-.1.9-.8 1.5-1.7 1.5h-.2c-.9-.1-1.6-.9-1.5-1.9H57c-.1.8-.9 1.4-1.7 1.4H55c-.9-.2-1.5-1-1.4-1.9h-.1c-.2.8-.9 1.3-1.6 1.3-.1 0-.3 0-.4-.1-.9-.2-1.5-1.1-1.2-2h-.1c-.2.7-.9 1.2-1.6 1.2-.2 0-.3 0-.5-.1-.9-.3-1.4-1.2-1.1-2.1h-.1c-.3.7-.9 1.1-1.6 1.1-.2 0-.4 0-.6-.1-.9-.3-1.3-1.3-1-2.2h-.1c-.3.6-.9 1-1.5 1-.2 0-.5-.1-.7-.2-.8-.4-1.2-1.4-.8-2.2h-.1c-.3.6-.9.9-1.5.9-.3 0-.6-.1-.8-.2-.8-.5-1.1-1.5-.7-2.3h-.1v.1c0 .1-.1.1-.1.1l-.1.1-.1.1-.1.1-.1.1-.1.1s-.1 0-.2.1h-1.2s-.1 0-.2-.1l-.1-.1-.1-.1-.1-.1-.1-.1-.1-.1-.1-.1c0-.1-.1-.1-.1-.1.3-.1.3-.2.3-.3zm42.6-20.6c.1.2.1.2.3.3v.1c-.1 0-.1 0-.2-.1.7.8 2.8 2.5 3 3.5-.9.9-2.1 1.6-3.2 2.2.2.1.4-.2.5-.2 0 .1.3-.1.4-.1.6-.3 1.9-.4 2.6-.2.7.2.7 1 1.3 1.3.3.2.4.4.7.6.2.2.5-.1.7.2.2-.1.9-.1 1-.3 1.1-1 .3-2.4-.6-3.3-.9-.8-1.8-1.7-2.6-2.4-.5-.4-1.2-.6-1.7-1l-1-.3c-.4-.1-.8-.3-1.2-.3zm-20 13.9c-.2-.5-.4-1.2-.4-1.5v-.2c-.2-.2-.3-.5-.4-.7-.4-.5-1.5-1-2.1-1-.2.6.1 1.2 0 1.9-.3 1.6-.7 3.3-1.4 4.9-.3.7-1.7 2.8-1.7 3.2 0 .8.3 1.6.5 2.2v.9c.2.3.7.6.7.9.3.4 1.2.6 1.9.6.2-.1.2-.3.5-.2.3-.5.4-1 .8-1.7 1.3-2.2 2.4-5.3 1.7-8.1-.1-.3 0-.8-.1-1.2zM86.1 48l-.3-.2c-.1-.4-.3-.9-.4-1.3-.1-.2-.1-.1-.2-.3h-.1v.2c-.5-.2-.4-.9-.7-1.3 0 .1-.1-.1-.2-.1-.2.1-.8-1.7-1-1.6v-.2c-.1 0-.1-.1-.2-.1V43v.1-.2c-.1 0-.1.1-.2.1-1-1.3-2-2.5-2.8-3.8-.3-.6-1.5-1.8-1.7-2.2h-.1c.4.9 1.3 1.9 1.4 2.8-.5-.7-.9-1.4-1.4-2.1h-.1l.3.6c-.1-.1-.1-.1-.2 0h.1c0 .1.1 0 .1.2h-.1c-.2-.2-.2-.5-.3-.7h-.3c.2.4.2.5.5.9v-.1l.4.8c1 1.7 1.1 2.9 1.7 4.9-.1-.1-.1-.2-.2-.3l.2 1-.1 1h-.1c-.2-.2-.5-.2-.7-.4-.4-.3-1.2-.7-1.7-1-2-1.4-4-3-5.6-4.9.3-.8 1.1-1.6 1.6-2.2 0-.1.1-.2.1-.3.5-.6 1-1.3 1.2-2.1l.2-.3c0-.3.2-.8.1-1.1-.3-1-.8-1.8-1.6-2.6-.3-.3-.8-.9-1.6-1.1-.2.4.2 1.4-.1 2.1-.6 1.5-1.5 3.1-2.1 4.7-.7-.6-2-4.4-2-5.1 0-.6-.6-1.3-.4-1.9.1-.2 1.1-.4 1.4-.6.8-.6 2-1.9 3.2-1.9.1-.1.1-.1 0-.3 2.3-.8.6-3-.9-2.9-1.5.1-2.5.4-3.6 1.1-.2.1-.2.3-.3.4l-.7.4c-.3-.2-.5-.4-.7-.7l.2-.3v-.1c0 .1-.1.1-.1.2 0-.1 0-.1-.1-.2.1-.1.2-.1.1-.1.6-.5.7-.5.9-1 .1.1 0 .1.1 0 .4-.3.8-1.2 1.3-1.3l-.1-.1c.2-.3.5-.7.7-1 .1.2.6-.5.7-.5l.2-.6c.6-.6.9-1.4 1.5-1.9.3-.3.3-.9.7-1.2 0 0 1.3-.5 1.5-.5.5-.1 1.1.6 1.2.9.3.5 2.4 2.7 3.6 1.8.3-.3.6-.7.8-1.1v-.4c-.1-.4-.3-.6-.5-.9-.3-.5-1.9-1.7-2.6-2-.4-.2-.9-.2-1.2-.5-.4-.2-1 0-1.3-.1-.1 0 0 0-.1-.1 0-.3.7-1.4.6-1.9-.4-1.7-1.5-2.9-2.5-4.3-.1-.1-.3-.1-.4-.2-.2-.3-.4-.6-.7-.7v.2c-.1 0-.1-.1-.2-.1 0 .1 0 .2.1.3l-.3-.2c.2.6 0 .8 0 1.3 0-.1.1.1.1.2.1.5.1 1.4 0 2.1-.3 1-.7 2.3-1 3.3-1.3.1-3 .4-4.4.5l-.3.2c-.4.1-.9.1-1.1.2-.9.2-1.9.5-2.8.7-.3-.1-.4-.6-.6-.9-.5-.7-1.9-2.3-2.8-2.4h.1c-.4.5-.1 2.7.1 3.5.1.2.2.4.1.6 0 .2-1.4.6-1.7.7-.9.5-2.2.6-3.4 1-.7-.2-2.4.1-2.9.6.1.5.6 1 1 1.2.1 0 .2-.1.3 0l.5.5c.2.1.5.1.5.2.6.6 1.4.7 2.2 1.1 2.2 1.1 3.6-.2 4.3-2.2h.1c.6.7 1.8 3.9 3.6 3l.6-.5c-.1-.4.4-.9.4-1.1 0-.3-.2-.8-.1-1.2.2-.6.4-2.8 1-3.4.3-.3 4.1-.8 4.9-.8-.4 1.7-1.3 3.2-1.9 4.7-.3.6-1 1.3-1.1 1.9v.1c-.1.1 0 .1-.1.1 0 .1 0 0 .1.1-.2.2-1 1.3-1 1.5-.7-.4-1.2-1-2-1l.6 3-.3.3h.1c-.2.3-.4.2-.4.6v.1l-.3-.2c-.2.4-.6.9-1 1.2v.2c-.2-.1-.1 0-.3.1v.1l.3-.2v.1l.1.1c0-.1.1-.1.1-.2s0 0-.1-.1l.1-.2h.1v.1h.1l.1-.1V28c.1.2-.8.9-.8.9.2.1.3-.1.5-.1v-.1c.1.1.1.1.2 0v.2l-1 .4v-.1c-.1.1-.1.1-.2.3-.7.1-1.8 1-3 1 .6 1.3 3.9 1.7 5.6 1.2.3-.1 1.3-.4 1.6-.4 1 2 2 4.4 3 6.2.4.7 1.4 2 .4 2.3v.1h.2c-.5.5-1 .9-1.6 1.3.1.1 0 0 0 .1-.6-.1-1.2.7-1.8.8-.2.1-.5 0-.7.1l.2.1c-1.3.2-2.6 1.1-3.9.3 0 .1.1.1.1.2-.7-.2-1.1-.3-1.6-.6.1.2.4.4.5.7-.2 0-.1 0-.2-.1l-.1.1c.3.1 1.5.9 1.5 1.1.4.4 2.3.9 3 .9-.1 0-.1-.1-.2-.1.3-.1.4-.1.6.1.7-.1 1.3-.4 1.9-.7.5-.2.8.2 1.2 0 .4-.2.5-.4.8-.6l.2.1c.3-.3.8-.3 1-.5l1.3-1c.3.1.6.7.8 1 .7.7 1.3 1.4 2 2.1 1.9 1.7 3.8 3.2 6.1 4.5.4.2 1 .6 1.3.7.4.2 1.8.4 1.9.6 0-.1.2-.1.3-.1 1 .2 1.7-.4 2.4-.7V50c.2-.3.9-1.7.7-2z"/><path d="M70.2 57.3c-1.7-2-15.9-2.8-18.3 0-.3.3-.5.7-.6 1-.4-.1-.8-.1-1.2-.1-.4 0-.8 0-1.2.1-.1-.4-.3-.7-.6-1-2.4-2.8-16.6-2-18.3 0-1.9 2.2-.4 6 1.8 8.5s12.4 2 14.1 0c1.1-1.3 2.8-3.3 3.2-5.3.3-.1.7-.1 1-.1.4 0 .7 0 1 .1.4 2 2 4 3.2 5.3 1.8 2 12 2.6 14.2 0 2.1-2.5 3.6-6.3 1.7-8.5z"/><path class="st0" d="M62.4 16.9c-.3.2-1 .3-1.3.7l.1.3c.4-.2 1.2-.7 1.2-1z"/><path class="st1" d="m62.2 28.3.2-.2v.1c-.2.1-.3.2-.4.3.2-.1.1-.1.3 0-.1 0-.4.3-.6.4.7-.1 1.4-.6 1.8-.9h-.1c0-.1.1-.1.1-.1 0-.1 0-.4-.1-.5-.1.2-.8.4-.7.7-.2 0-.3.2-.5.2z"/></svg>