<svg xmlns="http://www.w3.org/2000/svg" viewBox="0 0 100 103"><path d="M97.235 2.76v97.48H2.765V2.76h94.47M100 0H0v103h100V0z"/><path d="M48.378 8.15h4.335l-.63 35.533h-4.335l.63-35.532zM40.33 92.787l1.966-3.043c1.227.77 2.42 1.353 3.58 1.748 1.158.394 2.284.59 3.376.59 2 0 3.625-.54 4.877-1.62 1.25-1.082 1.877-2.47 1.877-4.163 0-.722-.117-1.4-.353-2.038a5.247 5.247 0 0 0-1.033-1.71c-.654-.77-2.418-1.794-5.29-3.068a363.45 363.45 0 0 1-2.874-1.308c-2.05-.973-3.62-2.255-4.713-3.847-1.092-1.594-1.638-3.404-1.638-5.433 0-2.967 1.063-5.428 3.188-7.38 2.125-1.953 4.818-2.93 8.077-2.93 1.58 0 3.15.243 4.713.73s3.16 1.223 4.788 2.212l-1.662 3.293c-1.562-.905-2.936-1.568-4.12-1.987-1.184-.42-2.256-.63-3.213-.63-2.067 0-3.776.642-5.13 1.925-1.35 1.283-2.028 2.905-2.028 4.867 0 .805.164 1.555.49 2.25a5.33 5.33 0 0 0 1.425 1.824c1.092.906 3.21 2.113 6.35 3.622 1.093.52 1.933.922 2.52 1.207 1.496.753 2.66 1.81 3.49 3.167.833 1.358 1.248 2.883 1.248 4.577 0 3.084-.945 5.51-2.835 7.28-1.89 1.768-4.49 2.653-7.8 2.653-1.613 0-3.184-.23-4.713-.692-1.53-.46-3.05-1.16-4.562-2.098zM7.94 65.075v-26.48l3.804.102v11.04l31.804.552v4.374l-31.804-.503v11.015l-3.805-.1zM92.002 65.006l-1.512 3.998-34.728-14.66V50.37L90.34 36.567l1.56 4.225-24.67 9.48a75.95 75.95 0 0 1-2.71.894c-1.15.36-2.45.75-3.894 1.17 1.562.552 2.898 1.04 4.007 1.457 1.11.42 1.99.755 2.646 1.007L92 65.007z"/></svg>