<svg xmlns="http://www.w3.org/2000/svg" viewBox="0 0 1000 600"><path d="M652.62 545.378c.27 7.497 3.214 12.05 8.034 14.994 4.82 2.945 11.245 3.75 18.475 3.75 15.26 0 30.255-6.427 33.2-35.345l1.607-15.53c-14.726 10.71-33.2 14.19-51.944 14.19-36.415 0-69.08-23.293-69.08-59.173 0-45.25 41.5-65.332 81.664-65.332 76.042 0 90.77 44.715 90.77 95.856 0 61.048-23.028 101.21-88.36 101.21-36.95 0-77.917-10.977-78.988-54.62h54.62zm25.706-53.818c20.082 0 31.06-11.246 31.06-25.972 0-19.01-14.458-26.775-32.13-26.775-13.923 0-29.72 6.693-29.72 27.31-.002 17.94 13.92 25.437 30.79 25.437zm144.054-83.54h142.71v37.486h-96.927l-2.945 44.18c11.513-11.245 27.58-18.475 47.125-18.475 35.61 0 68.01 20.886 68.01 63.46 0 49.534-43.912 65.33-85.413 65.33-43.912 0-83.272-10.71-83.272-56.227h53.016c1.338 13.655 12.05 21.956 27.58 21.956 24.632 0 35.075-14.46 35.075-29.186 0-18.475-12.048-31.06-31.862-31.06-13.387 0-23.294 5.356-27.846 16.87h-51.41l6.157-114.333z" fill="#C8C8C8" stroke="#C8C8C8" stroke-miterlimit="10"/><path d="M147.96 243.754 92.906 163.61v101.6h-59.04V87.84H97.93l71.556 98.32 71.557-98.32h64.065v177.368h-59.04V163.61l-55.057 80.144z"/><path fill="gray" d="M465.61 105.293h56.43v165.803h-56.43z"/><circle cx="493.825" cy="55.261" r="28.507" fill="gray"/><path fill="#C8C8C8" d="M954.29 85.073h-84.8l-44.25 51.33-44.25-51.33h-84.795l87.173 89.267-87.173 90.357h82.68l46.366-52.943 46.365 52.943h82.68l-87.172-90.357z"/><path d="M172.13 349.727C77.22 349.727 0 271.283 0 174.863S77.218 0 172.13 0s172.132 78.444 172.132 174.863-77.218 174.864-172.13 174.864zm0-344.263c-91.9 0-166.666 75.992-166.666 169.4S80.23 344.26 172.13 344.26 338.8 268.27 338.8 174.862 264.032 5.465 172.13 5.465z"/><path d="M500 349.727c-94.913 0-172.13-78.444-172.13-174.863S405.086 0 500 0s172.13 78.444 172.13 174.863S594.914 349.727 500 349.727zm0-344.263c-91.9 0-166.667 75.992-166.667 169.4S408.1 344.26 500 344.26s166.667-75.992 166.667-169.4S591.9 5.465 500 5.465z" fill="#646464"/><path d="M827.87 349.727c-94.914 0-172.132-78.444-172.132-174.863S732.956 0 827.868 0 1000 78.444 1000 174.863s-77.218 174.864-172.13 174.864zm0-344.263c-91.9 0-166.668 75.992-166.668 169.4S735.968 344.26 827.87 344.26s166.666-75.992 166.666-169.4S919.77 5.465 827.87 5.465z" fill="#C8C8C8"/></svg>