<svg xmlns="http://www.w3.org/2000/svg" viewBox="0 0 30 30" enable-background="new 0 0 30 30">
    <path id="btn_audioToggleOFF" d="M1.607 30c-.41 0-.822-.157-1.136-.47-.626-.628-.626-1.646 0-2.274L27.26.47c.628-.627 1.645-.627 2.273 0 .63.628.63 1.646 0 2.274L2.744 29.53c-.313.313-.725.47-1.136.47z" fill="#f00"/>
    <path id="btn_audioToggleON" d="M14.46 3.85c-.515-.21-1.106-.082-1.493.326l-5.89 6.24H1.364c-.754 0-1.364.622-1.364 1.39v8.888c0 .767.61 1.39 1.364 1.39h5.713l5.89 6.24c.263.277.62.425.984.425.174 0 .346-.035.51-.1.518-.214.855-.724.855-1.29V5.137c0-.567-.337-1.076-.854-1.288zM2.727 13.194h3.567v6.11H2.727v-6.11zm9.86 10.72l-3.566-3.78v-7.77l3.568-3.777v15.326zM25.933 5.858c-.524-.553-1.387-.57-1.928-.038-.543.532-.56 1.41-.038 1.964 2.133 2.258 3.307 5.264 3.307 8.465 0 3.2-1.174 6.205-3.307 8.464-.522.553-.505 1.432.038 1.964.264.258.605.386.945.386.358 0 .715-.143.983-.426C28.555 23.862 30 20.17 30 16.25c0-3.923-1.445-7.613-4.067-10.392zM20 12.145c-.523-.555-1.384-.57-1.928-.04-.542.532-.56 1.41-.038 1.964.547.58.848 1.353.848 2.18s-.302 1.6-.848 2.18c-.522.553-.504 1.432.038 1.964.265.258.605.387.945.387.358 0 .716-.142.983-.426 1.038-1.1 1.61-2.558 1.61-4.105-.002-1.548-.573-3.006-1.61-4.106zM22.966 9c-.524-.552-1.387-.57-1.928-.037-.543.532-.56 1.41-.038 1.964 1.34 1.42 2.078 3.31 2.078 5.322S22.34 20.15 21 21.57c-.522.554-.505 1.433.038 1.965.264.26.605.388.945.388.358 0 .715-.143.983-.426 1.83-1.94 2.84-4.513 2.84-7.248s-1.01-5.31-2.84-7.25z" fill="#00003C"/>
</svg>