<svg xmlns="http://www.w3.org/2000/svg" viewBox="0 0 100 21" enable-background="new 0 0 100 21"><g><g><path d="M99.9 6.48c-.06-.16-.13-.3-.19-.42-.06-.03-.11-.08-.15-.14-.29-.29-.68-.43-1.19-.43-.54 0-.97.14-1.29.43-.29.19-.56.51-.81.95-.1.13-.18.27-.24.43l-.05-.38c-.06-.35-.16-.64-.29-.86l-.1-.1c-.28-.32-.68-.48-1.19-.48-.54 0-1 .14-1.39.43-.06.06-.14.14-.23.24-.22.25-.48.64-.77 1.15l.43-1.62h-3.2l-.1.38h.81l-3.76 14.11h-.77l-.05.39h3.72l.05-.05.05-.34h-.48L91.8 8.73c.26-.92.53-1.54.81-1.86.16-.19.33-.3.52-.33h.05c.22 0 .37.11.43.33v.14c0 .19-.03.47-.09.82-.06.25-.27 1.02-.62 2.28l-2.72 10.07h-.48l-.05.39h3.48v-.05l.05-.34h-.48l3.39-12.31.09-.19c.29-.73.59-1.12.91-1.15h.05c.16 0 .28.05.38.15.03.03.07.09.1.19v.14c0 .19-.05.47-.15.82-.06.35-.27 1.11-.62 2.28l-2.72 10.07h-.43l-.1.39h3.77v-.05l.05-.34h-.72l2.67-10.11c.25-.95.41-1.57.48-1.86.1-.41.15-.76.15-1.05V7.01l-.1-.53zM87.07 12.3c.23-1.09.34-2.07.34-2.95 0-1.01-.14-1.84-.41-2.47-.06-.14-.13-.27-.2-.4-.06-.06-.11-.13-.15-.19-.42-.54-.97-.81-1.67-.81s-1.43.38-2.2 1.15c-.86.86-1.65 2.4-2.38 4.62-.76 2.2-1.15 4.07-1.15 5.63 0 1.18.22 2.13.67 2.86.19.29.4.51.62.67.06.03.13.08.19.15.22.09.45.16.67.19h.48c.09 0 .19-.02.29-.05.57-.16 1.16-.52 1.76-1.09.83-.83 1.64-2.37 2.43-4.63.3-.95.54-1.84.71-2.68zM85.6 7.92l-3.1 11.31c-.13.41-.27.72-.43.91-.13.19-.3.28-.52.28-.1 0-.19-.02-.29-.05-.13-.06-.22-.14-.28-.23-.07-.16-.1-.35-.1-.58 0-.22.08-.63.24-1.24l3.1-11.3c.18-.8.5-1.2.95-1.2.19 0 .37.09.52.28.03 0 .05.03.05.1.06.13.09.27.09.43 0 .25-.08.68-.23 1.29zM76.53 18.48c-.76 1.11-1.46 1.67-2.1 1.67-.19 0-.33-.05-.43-.14-.03-.06-.06-.11-.09-.14l-.15-.43v-.18c0-.38.3-1.72.91-4.01l1.34-5.1c.44-1.62.79-2.7 1.04-3.24.29-.67.61-1 .96-1 .25 0 .48.1.67.29.06.06.11.13.14.19.06.13.1.28.1.47 0 .45-.25.92-.76 1.43-.57.64-.86 1.26-.86 1.86 0 .32.11.59.33.82.13.16.33.25.62.28h.14c.48 0 .88-.26 1.2-.77.32-.54.48-1.19.48-1.95 0-.89-.21-1.61-.62-2.15-.07-.1-.1-.15-.1-.18l-.05-.05c-.41-.45-.95-.67-1.62-.67-.83 0-1.6.38-2.33 1.15-.95 1.05-1.81 2.86-2.58 5.44-.67 2.22-1 3.92-1 5.1 0 1.11.21 1.99.62 2.62.19.29.41.51.66.67.16.09.32.17.48.24l.52.05h.1c.38 0 .79-.14 1.24-.43.38-.29.78-.69 1.19-1.19.79-1.11 1.43-2.52 1.91-4.24l-.34-.09c-.35 1.4-.89 2.63-1.62 3.68z"/></g><path d="M68.15 18.31c-.25.29-.38.64-.38 1.05s.13.76.38 1.05c.22.22.51.37.86.43h.24c.45 0 .8-.14 1.05-.43.29-.29.43-.64.43-1.05v-.24c-.06-.32-.21-.59-.43-.81-.25-.29-.6-.43-1.05-.43-.45.01-.82.15-1.1.43"/><g><path d="M35.24 7.3l.43-1.62h-3.2l-.1.38h.81l-3.81 14.11h-.71l-.1.39h3.81v-.05l.05-.34h-.48l3.1-11.44c.19-.83.43-1.4.71-1.72 0-.03.02-.06.05-.09v.05c.16-.29.36-.43.62-.43.25 0 .4.11.42.33v.14c0 .19-.03.47-.1.82-.09.35-.3 1.11-.62 2.28L33.4 20.18h-.48l-.1.39h3.77l.14-.39h-.81l2.67-10.11c.29-.95.46-1.57.52-1.86.06-.41.1-.76.1-1.05l-.05-.62c-.06-.19-.14-.35-.24-.48-.03-.07-.06-.11-.1-.14-.29-.29-.7-.43-1.24-.43-.51 0-.97.14-1.39.43l-.24.24c-.1.09-.19.2-.28.33l-.43.81M59.52 6.09c-.38-.41-.86-.62-1.43-.62-.76 0-1.51.38-2.24 1.15-.95 1.02-1.83 2.83-2.62 5.44-.64 2.22-.95 3.92-.95 5.1 0 1.11.22 1.99.67 2.62.19.29.41.51.67.67.16.09.35.17.58.24l.38.05h.19c.29 0 .59-.06.91-.19.16-.06.3-.14.43-.24.41-.29.81-.69 1.19-1.19.86-1.08 1.51-2.49 1.96-4.24l-.29-.09c-.41 1.5-.97 2.74-1.67 3.72-.73 1.08-1.48 1.62-2.24 1.62-.13 0-.24-.02-.34-.05-.25-.13-.4-.38-.42-.76v-.09c0-.42.3-1.75.91-4.01l.52-1.95h3.95c.22-.45.41-1.04.58-1.77.13-.76.19-1.48.19-2.14 0-1.21-.21-2.17-.62-2.87-.12-.14-.21-.27-.31-.4m-1.19-.28c.22.03.37.14.43.33.03.06.05.14.05.24 0 .35-.11.86-.34 1.53l-1.33 4.96H55.8l1.62-5.92c.13-.45.24-.75.34-.91.13-.16.29-.24.48-.24.03.01.06.01.09.01M51.88 6.1c-.38-.41-.86-.62-1.43-.62-.76 0-1.51.38-2.24 1.15-.95 1.02-1.83 2.83-2.62 5.44-.64 2.22-.95 3.92-.95 5.1 0 1.11.22 1.99.67 2.62.19.29.41.51.67.67.16.09.35.17.58.24l.38.05h.19c.29 0 .59-.06.91-.19.16-.06.3-.14.43-.24.41-.29.81-.69 1.19-1.19.86-1.08 1.51-2.49 1.96-4.24l-.29-.09c-.41 1.5-.97 2.74-1.67 3.72-.73 1.08-1.48 1.62-2.24 1.62-.13 0-.24-.02-.34-.05-.25-.13-.4-.38-.42-.76v-.09c0-.42.3-1.75.91-4.01l.52-1.95h3.95c.22-.45.41-1.04.58-1.77.13-.76.19-1.48.19-2.14 0-1.21-.21-2.17-.62-2.87-.12-.14-.21-.27-.31-.4m-1.19-.28c.22.03.37.14.43.33.03.06.05.14.05.24 0 .35-.11.86-.34 1.53l-1.33 4.96h-1.34l1.62-5.92c.13-.45.24-.75.34-.91.13-.16.29-.24.48-.24.03.01.06.01.09.01M46.11 0h-.09c-1.08 1.88-2.04 3.26-2.87 4.15-.83.92-1.65 1.5-2.48 1.72l-.05.24h1.24l-2.24 8.16c-.41 1.37-.65 2.23-.71 2.58-.22.89-.34 1.54-.34 1.96 0 .63.17 1.14.52 1.52.09.13.2.22.33.29.29.19.62.28 1 .28h.14l.58-.09c.29-.09.54-.24.76-.43.29-.22.54-.52.76-.9.6-.92 1.1-2.37 1.48-4.34l-.34-.04c-.29 1.4-.64 2.54-1.05 3.43-.48 1.05-.97 1.58-1.48 1.58-.25 0-.38-.16-.38-.48 0-.29.48-2.2 1.43-5.72L44.4 6.1h2.34l.09-.33h-2.29L46.11 0M68.72 5.92c-.32-.29-.71-.43-1.19-.43-.57 0-1.05.14-1.43.43-.1.06-.19.16-.29.28-.26.25-.5.62-.71 1.1l.38-1.62h-3.2l-.1.38h.86l-3.82 14.11h-.72l-.09.39h3.77v-.05l.05-.34h-.48l3.1-11.44c.13-.51.27-.91.43-1.2.32-.67.65-1 1-1 .25 0 .4.11.43.33V7c0 .19-.03.47-.1.82-.1.25-.3 1.02-.62 2.28l-2.72 10.07h-.52l-.1.39h3.82l.05-.05.05-.34h-.76l2.67-10.11c.25-.95.43-1.57.52-1.86.06-.41.1-.76.1-1.05v-.34c-.06-.29-.14-.52-.24-.71-.06-.06-.11-.12-.14-.18M29.56 6.1c-.38-.41-.86-.62-1.43-.62-.76 0-1.51.38-2.24 1.15-.95 1.02-1.83 2.83-2.62 5.44-.64 2.22-.95 3.92-.95 5.1 0 1.11.22 1.99.67 2.62.19.29.41.51.67.67.16.09.35.17.58.24l.38.05h.19c.29 0 .59-.06.91-.19.16-.06.3-.14.43-.24.41-.29.81-.69 1.19-1.19.86-1.08 1.51-2.49 1.96-4.24l-.29-.09c-.41 1.5-.97 2.74-1.67 3.72-.73 1.08-1.48 1.62-2.24 1.62-.13 0-.24-.02-.34-.05-.25-.13-.4-.38-.42-.76v-.09c0-.42.3-1.75.91-4.01l.52-1.95h3.95c.22-.45.41-1.04.58-1.77.13-.76.19-1.48.19-2.14 0-1.21-.21-2.17-.62-2.87-.12-.14-.21-.27-.31-.4m-1.19-.28c.22.03.37.14.43.33.03.06.05.14.05.24 0 .35-.11.86-.34 1.53l-1.33 4.96h-1.34l1.62-5.92c.13-.45.24-.75.34-.91.13-.16.29-.24.48-.24.03.01.06.01.09.01M24.89 6.01l.04-.33h-2.76l-.09.33c.19.03.33.08.43.15.06.03.11.06.14.1.03.03.07.08.09.14.06.13.09.29.09.48 0 .32-.11.81-.33 1.48-.19.54-.66 1.64-1.39 3.3l-2.24 5.25h-.05l1.62-10.83h.71l.04-.05.05-.33h-4.15l-.05.38h.72l-1.91 14.55h1.76l5-11.33c.03-.06.06-.13.09-.19s.06-.11.09-.14c.35-.83.6-1.38.76-1.67.22-.45.4-.75.52-.91.2-.19.47-.32.82-.38M14.99 6.1c-.38-.41-.86-.62-1.43-.62-.76 0-1.51.38-2.24 1.15-.95 1.02-1.83 2.83-2.62 5.44-.64 2.22-.95 3.92-.95 5.1 0 1.11.22 1.99.67 2.62.19.29.41.51.67.67.16.09.35.17.58.24l.38.05h.19c.29 0 .59-.06.91-.19.16-.06.3-.14.43-.24.41-.29.81-.69 1.19-1.19.86-1.08 1.51-2.49 1.96-4.24l-.29-.09c-.41 1.5-.97 2.74-1.67 3.72-.73 1.08-1.48 1.62-2.24 1.62-.13 0-.24-.02-.34-.05-.25-.13-.4-.38-.42-.76v-.09c0-.42.3-1.75.91-4.01l.52-1.95h3.95c.22-.45.41-1.04.58-1.77.13-.76.19-1.48.19-2.14 0-1.21-.21-2.17-.62-2.87-.12-.14-.21-.27-.31-.4m-1.19-.28c.22.03.37.14.43.33.03.06.05.14.05.24 0 .35-.11.86-.34 1.53l-1.33 4.96h-1.34l1.62-5.92c.13-.45.24-.75.34-.91.13-.16.29-.24.48-.24.03.01.06.01.09.01M8.92 5.58l-.19-.05-1.19 1.1c-.35-.76-.91-1.15-1.67-1.15-.89 0-1.6.41-2.15 1.24-.54.76-.81 1.67-.81 2.72 0 .6.06 1.29.19 2.05.06.48.22 1.26.48 2.34.26 1.02.42 1.81.48 2.38.13.7.19 1.36.19 2 0 .51-.1.96-.29 1.34-.22.38-.5.58-.81.58-.38 0-.66-.16-.86-.48l-.05-.09c-.29-.38-.43-.97-.43-1.77v-.09l.05-1.14c.03-.76.08-1.68.14-2.76l-.19-.05L0 20.61l.15.09 1.43-1.34c0 .06.02.13.05.19.03.1.1.21.19.33.1.16.24.32.43.48.03.03.08.07.15.1.03 0 .06.02.09.05.29.16.61.24.95.24h.05c.92 0 1.69-.44 2.29-1.34.57-.83.86-1.78.86-2.86 0-.89-.22-2.26-.67-4.1-.45-1.75-.67-3.18-.67-4.29 0-.57.08-1.05.23-1.43.19-.44.46-.67.81-.67h.1c.19.03.35.14.48.33.25.38.38 1.13.38 2.24s-.05 2.16-.14 3.15h.14l1.62-6.2"/></g></g></svg>