<svg xmlns="http://www.w3.org/2000/svg" viewBox="0 0 140 60" enable-background="new 0 0 140 60"><g><path d="M38.434 58.768c3.684-2.387 6.17-5.313 7.12-8.438.042-.14.02-.29-.057-.414s-.207-.206-.352-.227C18.44 45.916.5 36.372.5 25.94.5 11.91 31.678.5 70 .5s69.5 11.412 69.5 25.44c0 10.726-18.61 20.36-46.31 23.975-.148.02-.28.104-.358.23-.08.126-.1.28-.052.422.998 3.033 3.454 5.876 7.037 8.2-6.178-1.635-11.254-4.412-14.213-7.833-.095-.11-.233-.173-.378-.173-.014 0-.027.002-.04.003-4.965.41-10.074.616-15.186.616-5.674 0-11.33-.255-16.807-.757l-.045-.002c-.146 0-.287.065-.382.18-2.944 3.485-8.064 6.31-14.332 7.968z" fill="#fff"/><path d="M70 1c18.582 0 36.037 2.676 49.15 7.535C131.765 13.21 139 19.555 139 25.94c0 10.464-18.436 19.9-45.875 23.48-.296.04-.558.207-.717.46-.16.25-.197.56-.103.844.797 2.42 2.478 4.714 4.89 6.732-4.83-1.64-8.766-4.02-11.21-6.848-.192-.22-.468-.346-.757-.346-.027 0-.055 0-.082.003-4.956.408-10.052.614-15.146.614-5.657 0-11.296-.255-16.76-.755-.032-.003-.062-.004-.092-.004-.293 0-.573.13-.764.356-2.437 2.887-6.415 5.314-11.32 6.98 2.495-2.087 4.206-4.47 4.968-6.98.085-.28.043-.583-.114-.83-.157-.245-.414-.41-.703-.45C18.768 45.458 1 36.112 1 25.94c0-6.386 7.235-12.73 19.85-17.404C33.963 3.676 51.418 1 70 1m0-1C31.34 0 0 11.614 0 25.94c0 11.072 18.723 20.522 45.075 24.245-1.178 3.88-4.745 7.31-9.837 9.815 7.932-1.49 14.404-4.726 17.91-8.88 5.398.496 11.042.76 16.853.76 5.23 0 10.325-.214 15.228-.617 3.533 4.085 9.944 7.265 17.785 8.738-4.992-2.456-8.51-5.803-9.758-9.588C120.482 46.86 140 37.244 140 25.94 140 11.614 108.66 0 70 0z" fill="#272525"/></g></svg>