<svg xmlns="http://www.w3.org/2000/svg" viewBox="0 0 100 60" enable-background="new 0 0 100 60"><g><path d="M35.535 58.764c3.627-2.45 6.02-5.464 6.85-8.69.036-.143.007-.294-.078-.414s-.22-.196-.366-.208C18.316 47.515.5 37.062.5 25.14.5 11.553 22.706.5 50 .5s49.5 11.053 49.5 24.64c0 13.534-22.12 24.587-49.308 24.638-.165 0-.318.08-.41.217-2.66 3.87-7.758 6.984-14.247 8.77z" fill="#fff"/><path d="M50 1c27.02 0 49 10.83 49 24.14 0 13.258-21.896 24.086-48.81 24.137-.328 0-.635.163-.82.434-2.22 3.23-6.198 5.925-11.293 7.733 2.47-2.16 4.12-4.633 4.792-7.246.072-.285.016-.59-.155-.83-.17-.24-.44-.39-.733-.416C18.618 47.04 1 36.8 1 25.14 1 11.83 22.98 1 50 1m0-1C22.386 0 0 11.255 0 25.14 0 37.635 18.138 48 41.9 49.947c-1.02 3.976-4.465 7.498-9.45 10.05 8.11-1.584 14.613-5.164 17.743-9.72C77.718 50.224 100 38.99 100 25.137 100 11.256 77.615 0 50 0z" fill="#272525"/></g></svg>