<?xml version="1.0" encoding="iso-8859-1"?>
<!-- Generator: Adobe Illustrator 19.0.0, SVG Export Plug-In . SVG Version: 6.00 Build 0)  -->
<svg version="1.1" xmlns="http://www.w3.org/2000/svg" xmlns:xlink="http://www.w3.org/1999/xlink" x="0px" y="0px"
	 viewBox="0 0 100 15" style="enable-background:new 0 0 100 15;" xml:space="preserve">
<g id="LOGO_x5F_EA_x5F_w">
	<g>
		<path style="fill:#FFFFFF;" d="M8.349,8.183c-0.045,0-0.12,0.005-0.12,0.034c0,1.121-0.428,3-3.297,3H3.232
			c-0.083,0-0.099-0.018-0.099-0.051L3.123,5.934H3.7c1.138,0,1.846,0.678,1.846,1.768c0,0.067,0.224,0.067,0.224,0V3.895
			c0-0.029-0.07-0.034-0.111-0.034c-0.042,0-0.112,0.004-0.112,0.034c0,1.107-0.69,1.768-1.846,1.768l-0.567,0.01V0.728
			c0-0.033,0.016-0.052,0.099-0.052h1.653c2.314,0,2.564,1.881,2.564,2.689c0,0.043,0.106,0.045,0.127,0.045
			c0.021,0,0.127-0.002,0.127-0.045V0.463c0-0.021-0.019-0.057-0.057-0.057H0.034C0.006,0.406,0,0.479,0,0.541
			s0.006,0.135,0.034,0.135h1.294c0.069,0,0.083,0.021,0.083,0.052v10.438c0,0.031-0.014,0.051-0.083,0.051H0.034
			C0.006,11.217,0,11.291,0,11.352c0,0.062,0.006,0.137,0.034,0.137h8.377c0.037,0,0.058-0.021,0.058-0.059V8.217
			C8.469,8.187,8.394,8.183,8.349,8.183"/>
		<path style="fill:#FFFFFF;" d="M12.92,11.217h-0.858c-0.083,0-0.098-0.018-0.098-0.051V0.058C11.964,0.037,11.945,0,11.906,0H9.66
			C9.618,0,9.614,0.104,9.614,0.135c0,0.032,0.003,0.135,0.046,0.135h0.858c0.083,0,0.099,0.019,0.099,0.052v10.844
			c0,0.033-0.016,0.051-0.099,0.051H9.66c-0.042,0-0.046,0.104-0.046,0.135c0,0.033,0.003,0.137,0.046,0.137h3.26
			c0.028,0,0.034-0.074,0.034-0.137C12.954,11.291,12.949,11.217,12.92,11.217"/>
		<path style="fill:#FFFFFF;" d="M17.335,11.217h-0.873c-0.069,0-0.083-0.02-0.083-0.051V4.878c0-0.037-0.02-0.057-0.057-0.057
			H14.06c-0.028,0-0.034,0.074-0.034,0.135c0,0.062,0.006,0.135,0.034,0.135h0.858c0.095,0,0.099,0.016,0.099,0.052v6.023
			c0,0.035-0.004,0.051-0.099,0.051H14.06c-0.028,0-0.034,0.074-0.034,0.135c0,0.062,0.006,0.137,0.034,0.137h3.276
			c0.028,0,0.034-0.074,0.034-0.137C17.37,11.291,17.364,11.217,17.335,11.217"/>
		<path style="fill:#FFFFFF;" d="M15.698,1.939c0.487,0,0.884-0.41,0.884-0.915c0-0.513-0.396-0.931-0.884-0.931
			c-0.479,0-0.869,0.418-0.869,0.931C14.829,1.538,15.21,1.939,15.698,1.939"/>
		<path style="fill:#FFFFFF;" d="M23.997,9.244c-0.045,0-0.119,0.004-0.119,0.033c0,1.379-0.617,1.939-2.127,1.939h-1.607
			c-0.055,0-0.068-0.008-0.069-0.029l3.948-6.244c0.014-0.057,0.014-0.093,0-0.11h-0.022c-0.001,0-0.002-0.002-0.004-0.002h-0.704
			l-4.226-0.01c-0.037,0-0.057,0.021-0.057,0.057v1.95c0,0.056,0.254,0.056,0.254,0c0-1.282,0.496-1.737,1.893-1.737h1.248
			c0.073,0,0.08,0.014,0.07,0.031l-3.916,6.239c-0.024,0.033-0.032,0.068-0.019,0.094c0.01,0.02,0.033,0.033,0.059,0.033h5.461
			c0.053,0,0.057-0.021,0.057-0.059V9.277C24.117,9.248,24.042,9.244,23.997,9.244"/>
		<path style="fill:#FFFFFF;" d="M31.627,10.869c-0.007-0.002-0.012-0.004-0.014-0.002c-0.004,0-0.009-0.002-0.012-0.002
			c-0.066,0.162-0.251,0.336-0.505,0.336c-0.221,0-0.348-0.189-0.348-0.52V7.515c0-1.88-0.843-2.834-2.507-2.834
			c-1.238,0-1.898,0.712-1.898,1.227c0,0.354,0.196,0.712,0.634,0.712c0.514,0,0.697-0.308,0.697-0.572
			c0-0.116-0.033-0.192-0.068-0.273c-0.036-0.083-0.072-0.169-0.072-0.304c0-0.354,0.225-0.52,0.707-0.52
			c0.574,0,1.16,0.166,1.16,1.394V7.53c0,0.298-0.827,0.372-1.627,0.443l-0.158,0.015c-0.761,0.078-2.038,0.439-2.038,1.992
			c0,1.031,0.792,1.648,2.117,1.648c0.768,0,1.33-0.396,1.617-0.857c0.062-0.094,0.115-0.191,0.155-0.293
			c0.126,0.697,0.606,1.15,1.223,1.15c0.585,0,0.988-0.318,1.07-0.615c0.005-0.008,0.002-0.021-0.008-0.039
			C31.729,10.939,31.671,10.883,31.627,10.869 M29.4,7.939v1.838c0,0.717-0.585,1.518-1.425,1.518c-0.707,0-1.066-0.441-1.066-1.314
			c0-1.414,0.476-1.629,1.005-1.738c0.125-0.021,0.268-0.037,0.417-0.053C28.71,8.148,29.138,8.102,29.4,7.939 M29.473,10.463
			c0.02,0.115,0.054,0.225,0.095,0.33c-0.041-0.1-0.076-0.203-0.101-0.318C29.469,10.471,29.472,10.467,29.473,10.463"/>
		<path style="fill:#FFFFFF;" d="M36.292,4.681c-0.498,0-0.918,0.155-1.268,0.474c-0.059,0.052-0.117,0.106-0.172,0.166V0.058
			c0-0.015,0-0.058-0.058-0.058h-2.247c-0.028,0-0.034,0.074-0.034,0.135c0,0.062,0.006,0.135,0.034,0.135h0.874
			c0.065,0,0.099,0.018,0.099,0.052v10.844c0,0.012,0,0.051-0.099,0.051h-0.874c-0.028,0-0.034,0.074-0.034,0.135
			c0,0.062,0.006,0.137,0.034,0.137h2.247c0.054,0,0.058-0.021,0.058-0.059l-0.011-0.312v-0.219c0.407,0.438,1.058,0.73,1.623,0.73
			c1.854,0,3.099-1.773,3.099-3.428C39.562,6.539,38.164,4.681,36.292,4.681 M36.292,4.951c0.29,0,0.828,0.042,1.163,0.325
			c0.484,0.408,0.73,1.393,0.73,2.925c0,1.512-0.232,2.412-0.73,2.832c-0.281,0.236-0.55,0.324-0.992,0.324
			c-0.582,0-1.334-0.311-1.612-0.988L34.85,5.771C35.088,5.233,35.755,4.951,36.292,4.951 M34.848,5.323
			c-0.002,0.002-0.005,0.005-0.008,0.008V3.086L34.848,5.323z M34.84,10.885c0.063,0.068,0.137,0.135,0.214,0.197
			c-0.076-0.059-0.148-0.121-0.214-0.188V10.885z"/>
		<path style="fill:#FFFFFF;" d="M43.84,4.68c-1.799,0-3.208,1.526-3.208,3.474c0,1.947,1.409,3.475,3.208,3.475
			c1.044,0,2.009-0.549,2.646-1.504l-0.006-0.035c-0.025-0.041-0.108-0.105-0.152-0.1c-0.594,0.881-1.477,1.367-2.488,1.367
			c-0.485,0-0.845-0.107-1.132-0.34c-0.488-0.412-0.636-1.08-0.636-2.863c0-0.117-0.001-0.238-0.024-0.334
			c0-0.005,0-0.01-0.001-0.014h4.524c0.037,0,0.057-0.021,0.057-0.059C46.627,6.788,45.925,4.68,43.84,4.68 M42.046,7.546
			c0.001-0.021,0.002-0.04,0.003-0.062C42.048,7.506,42.047,7.525,42.046,7.546L42.046,7.546z M42.057,7.546
			c0.063-1.322,0.228-1.892,0.651-2.254c0.288-0.232,0.647-0.341,1.132-0.341c0.389,0,0.682,0.111,0.897,0.34
			c0.37,0.355,0.508,0.918,0.552,2.207c0,0.012,0.001,0.024,0.001,0.037l-3.119,0.011H42.057z M45.291,7.546L45.291,7.546h-0.152
			H45.291z M42.046,7.795h0.557l-0.557,0.002V7.795"/>
		<path style="fill:#FFFFFF;" d="M51.068,10.133c-0.176,0.66-0.528,1.053-0.941,1.053c-0.271,0-0.426-0.16-0.426-0.441V5.143
			c0-0.032,0.014-0.052,0.083-0.052h1.295c0.028,0,0.033-0.073,0.033-0.135c0-0.062-0.005-0.135-0.033-0.135h-1.295
			c-0.069,0-0.083-0.02-0.083-0.052V2.148c0-0.027-0.128-0.029-0.154-0.029c-0.089,0-0.101,0.014-0.101,0.025
			c-0.196,0.57-0.566,0.898-1.108,0.987v1.638c0,0.036-0.004,0.052-0.099,0.052h-1.077c-0.028,0-0.034,0.074-0.034,0.135
			c0,0.062,0.006,0.135,0.034,0.135h1.077c0.095,0,0.099,0.016,0.099,0.052v4.945c0,1.023,0.45,1.541,1.336,1.541
			c0.808,0,1.337-0.465,1.57-1.385C51.245,10.207,51.127,10.123,51.068,10.133"/>
		<path style="fill:#FFFFFF;" d="M59.535,11.217h-0.859c-0.075,0-0.082-0.014-0.082-0.051V7.297c0-1.639-0.973-2.617-2.602-2.617
			c-0.512,0-1.112,0.195-1.493,0.698c-0.11,0.143-0.204,0.31-0.273,0.505V0.058c0-0.015,0-0.058-0.058-0.058h-2.246
			c-0.027,0-0.034,0.074-0.034,0.135c0,0.062,0.007,0.135,0.034,0.135h0.873c0.066,0,0.1,0.018,0.1,0.052v10.844
			c0,0.012,0,0.051-0.1,0.051h-0.873c-0.027,0-0.034,0.074-0.034,0.135c0,0.062,0.007,0.137,0.034,0.137h3.26
			c0.028,0,0.034-0.074,0.034-0.137c0-0.061-0.006-0.135-0.034-0.135h-0.857c-0.099,0-0.099-0.039-0.099-0.051l-0.001-4.74
			c0.344-1.034,0.873-1.475,1.768-1.475c0.473,0,1.223,0.43,1.223,1.581v4.634c0,0.035-0.02,0.051-0.066,0.051h-0.859
			c-0.041,0-0.045,0.104-0.045,0.135c0,0.033,0.004,0.137,0.045,0.137h3.246c0.027,0,0.033-0.074,0.033-0.137
			C59.568,11.291,59.562,11.217,59.535,11.217 M54.225,5.885c-0.003,0.008-0.007,0.014-0.01,0.022V3.079L54.225,5.885z"/>
		<path style="fill:#FFFFFF;" d="M71.344,11.217h-1.295c-0.058,0-0.097-0.027-0.1-0.039L66.002,0.194
			c-0.012-0.039-0.133-0.042-0.17-0.042s-0.158,0.003-0.172,0.042l-3.572,10.374c-0.188,0.609-0.219,0.648-0.35,0.648h-1.065
			c-0.01,0-0.023,0-0.023,0.135c0,0.137,0.013,0.137,0.023,0.137h2.917c0.028,0,0.035-0.074,0.035-0.137
			c0-0.061-0.007-0.135-0.035-0.135h-1.295c-0.017,0-0.023-0.004-0.025-0.01c-0.029-0.039,0.025-0.227,0.16-0.631l0.941-2.739
			l3.563-0.007l1.157,3.363c-0.004,0.01-0.025,0.023-0.055,0.023h-1.342c-0.028,0-0.034,0.074-0.034,0.135
			c0,0.062,0.006,0.137,0.034,0.137h4.649c0.027,0,0.033-0.074,0.033-0.137C71.377,11.291,71.371,11.217,71.344,11.217
			 M66.883,7.577h-0.777l0.775-0.003L66.883,7.577z M63.45,7.577l0.435-1.264l-0.432,1.264H63.45z M63.461,7.577l1.721-5.007
			l1.294,3.802l0.403,1.194l-2.507,0.011H63.461z M68.102,11.191c0,0.006-0.003,0.01-0.008,0.016
			C68.097,11.201,68.1,11.197,68.102,11.191"/>
		<path style="fill:#FFFFFF;" d="M75.635,4.681c-0.695,0-1.129,0.241-1.41,0.801c-0.062,0.118-0.12,0.248-0.17,0.398V4.878
			c0-0.036-0.004-0.058-0.059-0.058H71.75c-0.027,0-0.034,0.073-0.034,0.135c0,0.062,0.007,0.135,0.034,0.135h0.857
			c0.083,0,0.1,0.019,0.1,0.052v6.023c0,0.033-0.017,0.051-0.1,0.051H71.75c-0.027,0-0.034,0.074-0.034,0.135
			c0,0.062,0.007,0.137,0.034,0.137h3.261c0.028,0,0.034-0.074,0.034-0.137c0-0.061-0.006-0.135-0.034-0.135h-0.874
			c-0.068,0-0.082-0.02-0.082-0.051l-0.001-4.617c0.249-1.008,0.602-1.458,1.144-1.458c0.244,0,0.395,0.151,0.395,0.395
			c0,0.12-0.04,0.192-0.081,0.269c-0.05,0.089-0.105,0.191-0.105,0.387c0,0.323,0.299,0.557,0.712,0.557
			c0.347,0,0.696-0.269,0.696-0.869C76.814,5.257,76.45,4.681,75.635,4.681 M74.053,5.883c-0.003,0.008-0.006,0.015-0.01,0.024v-0.5
			L74.053,5.883z"/>
		<path style="fill:#FFFFFF;" d="M84.684,11.217h-0.858c-0.083,0-0.099-0.018-0.099-0.051V0.058c0-0.02-0.018-0.058-0.041-0.058
			h-2.248c-0.027,0-0.033,0.074-0.033,0.135c0,0.062,0.006,0.135,0.033,0.135h0.859c0.068,0,0.083,0.02,0.083,0.052l0.01,2.791
			v2.202c-0.382-0.427-0.856-0.634-1.45-0.634c-1.873,0-3.271,1.858-3.271,3.521c0,1.654,1.252,3.428,3.115,3.428
			c0.777,0,1.298-0.387,1.504-0.697c0.041-0.061,0.074-0.115,0.093-0.166v0.664c0,0.037,0.021,0.059,0.057,0.059h2.247
			c0.043,0,0.045-0.113,0.045-0.137C84.729,11.33,84.727,11.217,84.684,11.217 M79.062,8.201c0-1.559,0.244-2.515,0.745-2.925
			c0.32-0.269,0.792-0.325,1.133-0.325c0.561,0,1.234,0.282,1.44,0.816v4.292c0,0.646-0.493,1.299-1.597,1.299
			c-0.436,0-0.691-0.084-0.977-0.324C79.298,10.617,79.062,9.717,79.062,8.201 M82.39,5.32v0.01
			c-0.06-0.067-0.124-0.128-0.189-0.186C82.266,5.198,82.328,5.256,82.39,5.32 M82.39,10.744v0.328l-0.009-0.309
			C82.383,10.758,82.389,10.75,82.39,10.744"/>
		<path style="fill:#FFFFFF;" d="M88.565,4.68c-1.8,0-3.209,1.526-3.209,3.474c0,1.947,1.409,3.475,3.209,3.475
			c1.044,0,2.009-0.549,2.646-1.504l-0.006-0.035c-0.025-0.041-0.112-0.104-0.152-0.1c-0.594,0.881-1.476,1.367-2.487,1.367
			c-0.485,0-0.845-0.107-1.132-0.34c-0.488-0.412-0.637-1.08-0.637-2.863c0-0.117-0.001-0.238-0.023-0.334
			c0-0.005,0-0.01-0.002-0.014h4.524c0.037,0,0.058-0.021,0.058-0.059C91.354,6.788,90.65,4.68,88.565,4.68 M86.771,7.546
			c0.001-0.021,0.002-0.042,0.004-0.062C86.773,7.504,86.773,7.524,86.771,7.546L86.771,7.546z M86.781,7.546
			c0.064-1.323,0.229-1.892,0.652-2.254c0.287-0.232,0.646-0.341,1.132-0.341c0.389,0,0.682,0.111,0.897,0.34
			c0.371,0.356,0.508,0.918,0.552,2.207c0.001,0.012,0.001,0.024,0.001,0.037l-3.117,0.011H86.781z M90.016,7.546L90.016,7.546
			h-0.151H90.016z M86.771,7.795h0.557l-0.557,0.002V7.795z"/>
		<path style="fill:#FFFFFF;" d="M99.955,11.217h-0.859c-0.076,0-0.082-0.014-0.082-0.051V7.297c0-1.639-0.967-2.617-2.586-2.617
			c-0.629,0-1.154,0.243-1.488,0.668c0,0,0,0.001,0,0.001c-0.043,0.054-0.08,0.112-0.116,0.172c-0.069,0.11-0.13,0.228-0.179,0.362
			V4.878c0-0.036-0.003-0.058-0.057-0.058h-2.246c-0.028,0-0.034,0.074-0.034,0.136c0,0.062,0.006,0.135,0.034,0.135h0.873
			c0.099,0,0.099,0.039,0.099,0.052v6.023c0,0.012,0,0.051-0.099,0.051h-0.873c-0.028,0-0.034,0.074-0.034,0.135
			c0,0.062,0.006,0.137,0.034,0.137h3.26c0.027,0,0.034-0.074,0.034-0.137c0-0.061-0.007-0.135-0.034-0.135h-0.857
			c-0.1,0-0.1-0.039-0.1-0.051v-4.74c0.345-1.034,0.878-1.475,1.783-1.475c0.474,0,1.223,0.429,1.223,1.581v4.634
			c0,0.031-0.014,0.051-0.083,0.051h-0.858c-0.018,0-0.023,0.025-0.027,0.049c-0.004,0.023-0.006,0.055-0.006,0.086
			c0,0.062,0.006,0.137,0.033,0.137h3.246c0.043,0,0.045-0.113,0.045-0.137C100,11.33,99.998,11.217,99.955,11.217 M94.645,5.886
			c-0.004,0.008-0.008,0.014-0.01,0.022v-0.5L94.645,5.886z"/>
	</g>
	<g>
		<path style="fill:#FFFFFF;" d="M99.44,13.57l0.536-0.549h-0.183l-0.719,0.748v-0.748h-0.142v1.252h0.142v-0.336l0.267-0.27
			l0.481,0.605H100L99.44,13.57z M96.79,13.402c0,0.16-0.135,0.258-0.322,0.258h-0.385v-0.508h0.387
			C96.672,13.152,96.79,13.246,96.79,13.402 M96.978,14.273l-0.385-0.512c0.197-0.035,0.34-0.158,0.34-0.367
			c0-0.225-0.177-0.373-0.452-0.373h-0.538v1.252h0.141v-0.486h0.358l0.362,0.486H96.978z M93.797,13.648
			c0,0.287-0.203,0.516-0.49,0.516c-0.285,0-0.492-0.232-0.492-0.518c0-0.287,0.203-0.516,0.489-0.516
			C93.59,13.131,93.797,13.363,93.797,13.648 M93.944,13.646c0-0.348-0.256-0.646-0.638-0.646c-0.38,0-0.64,0.303-0.64,0.648
			c0,0.348,0.256,0.646,0.637,0.646C93.685,14.295,93.944,13.994,93.944,13.646 M90.385,13.777l0.521-0.756h-0.165l-0.425,0.625
			l-0.423-0.625h-0.172l0.521,0.758v0.494h0.143V13.777z M85.424,14.064l-0.357-1.043h-0.153l0.447,1.262h0.117l0.346-1.016
			l0.343,1.016h0.12l0.447-1.262h-0.148l-0.358,1.043l-0.343-1.047h-0.117L85.424,14.064z M83.017,13.021h-0.904v1.252h0.914v-0.129
			h-0.773v-0.438h0.683v-0.129h-0.683V13.15h0.764V13.021z M79.921,14.025l-0.789-1.004H79v1.252h0.138v-1.025l0.809,1.025h0.112
			v-1.252h-0.138V14.025z"/>
	</g>
</g>
<g id="Layer_1">
</g>
</svg>
