<svg xmlns="http://www.w3.org/2000/svg" viewBox="0 0 100 15" style="enable-background:new 0 0 100 15" xml:space="preserve"><path style="fill:#1c3f94" d="M67.348.473h.65l3.733 12.399L76.074.128h.082l4.342 12.744L84.231.473h.63l-4.302 14.144h-.081L76.115 1.852l-4.384 12.765h-.08zM85.877 7.372c0-4.079 3.164-7.061 7.061-7.061C96.834.311 100 3.294 100 7.372c0 4.078-3.166 7.063-7.062 7.063-3.897 0-7.061-2.984-7.061-7.063m13.453 0c0-3.713-2.739-6.473-6.392-6.473-3.653 0-6.392 2.759-6.392 6.473s2.74 6.474 6.392 6.474c3.653 0 6.392-2.759 6.392-6.474M0 .344h.649v13.232h6.676v.568H0zM10.107.344h.649v13.799h-.649zM15.443 1.663v12.481h-.588V0h.08l9.66 12.825V.344h.588v14.145h-.08zM55.782.473v.569h4.424v7.637c-.495-.235-3.433-1.669-6.634-1.066-.213.04-.467.065-.765.128-.429.092-.829.212-1.293.373-.139.042-.319.125-.376.125-.055-.042.057-.195.126-.305.139-.182.403-.598.431-.64.11-.182.138-.319.014-.292 0 0-1.89.431-3.157.709-.208.041-.528.153-.555.069-.029-.069.25-.584.278-.653 0 0 .014-.055-.057-.084-.056-.027-.097.014-.18.028l-2.364.531V7.6s-.778.097-.945.111c-.18.027-.291.027-.417-.014-.014 0-.263-.056-.375-.222.111-.251.125-.293.153-.418.013-.083.028-.347-.125-.417h-.014c-.111 0-.237.223-.264.376a1.272 1.272 0 0 0-.056.403c-.124.181-.291.306-.597.388a.762.762 0 0 1-.694-.111c-.362-.278-.362-.57-.362-.945 1.598-1.182 3.6-3.796 3.545-5.13-.015-.237-.084-.348-.168-.404-.139-.068-.305-.013-.472.084-1.627.931-3.337 3.808-3.448 5.506-.283.152-.632.297-.948.437-4.288 1.881-8.424.88-10.176.328l-.055-.048L37.521.343 36.622.33l-6.756 6.622L29.85.344h-.648v13.799h.648V7.992l7.06 6.152h1.099L30.51 7.743c1.908.53 6.006 1.572 10.026-.252.208-.094.443-.184.788-.351l.166-.056c.181.516.404.821.863.974.528.181 1.029-.041 1.403-.361.612.486 1.308.237 1.919.111v-.01l1.711-.365h.055c.029.014.014.07.014.07-.139.318-.195.444-.097.555.125.124.876-.069.972-.097l2.559-.556s.041-.015.055 0c.027.013.015.055.015.055l-.112.236c-.111.223-.444.681-.666.959-.113.07-.571.376-.571.376-1.682 1.127-3.767 2.892-4.018 4.42-.04.279-.068.598.097.793.084.096.182.126.349.126.82-.071 1.71-1.196 2.322-2.032l2.058-3.071c.195-.292.276-.416.401-.584.14-.084.152-.125.293-.181a11.79 11.79 0 0 1 1.375-.459c.13-.034.287-.062.439-.099 3.748-.905 6.783.657 7.28.934v5.393h.649V1.042h4.425V.473h-9.498zM45.204 1.524c.597.334-1.475 3.449-2.712 4.491-.334.264-.458.32-.458.32.069-1.099 2.445-5.102 3.17-4.811m4.558 7.924-1.765 2.795c-.347.459-1.391 1.876-1.892 1.834-.096-.013-.179-.069-.235-.208-.153-.459.445-1.516 1-2.209.835-1.016 2.031-1.962 3.046-2.531-.029.11-.097.209-.154.319"/></svg>