<svg xmlns="http://www.w3.org/2000/svg" viewBox="0 0 1000 1210" style="enable-background:new 0 0 1000 1210" xml:space="preserve"><path style="fill:#6dabe4" d="M114.822 893.408H885.17v65.439H114.822v-65.439zm38.43-626.28c22.3-11.22 43.659-23 61.479-32.439 42.719-21.3 112.378-56.769 141.748-83.039 8.68-7.78 20.22-21.78 5.43-50.599l-18.33-35.749-18.04-35.899c-14.54-28.98-32.669-27.9-44.039-25.5-38.539 8.2-108.328 43.469-150.718 65.399-18.14 8.8-40.279 19.1-62.459 30.469L.144 239.599h.02l-.02.04 153.098 27.5.01-.011zm722.538 70.809c-108.898-8.76-202.837 49.469-308.435 68.099-8.45 1.5-19.8-16.48-30.07-26.75 48.999-36.939 42.339-109.298-14.38-140.558-3.9-4.5-2.5-46.159-.24-47.999 4.62-3.86 40.779 3.04 45.899-1.4 5.14-4.5 4.13-47.899.84-52.039-3.28-4.14-44.069.3-46.339-2.5-2.32-2.8 1.12-41.829-2.72-44.899-2.78-2.2-14.07-2.44-20.34-2.4-6.3-.03-17.62.2-20.36 2.4-3.86 3.08-.4 42.099-2.7 44.899-2.3 2.8-43.049-1.65-46.359 2.5-3.28 4.15-4.3 47.549.84 52.029 5.12 4.45 41.319-2.45 45.899 1.4 2.25 1.86 3.67 43.499-.23 47.999-56.699 31.279-63.349 103.648-14.37 140.578-10.26 10.25-21.63 28.24-30.049 26.75-105.598-18.64-199.567-76.869-308.465-68.099-60.929 4.85-110.708 47.749-121.308 109.388-19.08 110.968 60.649 196.277 99.368 290.455 12.22 29.72 22.94 69.679 21.03 104.058 0 0 316.355 0 372.434.02h8.57c56.049-.02 372.414-.02 372.414-.02-1.94-34.379 8.8-74.329 21.05-104.048 38.699-94.168 118.398-179.477 99.328-290.435-10.58-61.639-60.369-104.548-121.298-109.418l-.009-.01zM454.947 693.051c-9.8 55.679-40.719 91.079-66.469 91.239-16.9.03-30.439-6.32-42.759-17.1-16.95-14.84-30.799-39.249-26.35-53.699 3.74-4.83 49.419 2.14 52.679-2.4 3.24-4.53-5.57-40.119-10.73-44.719-5.18-4.6-46.399 1.55-51.919-2.98-5.53-4.5-10.64-48.599-16.3-51.319 0 0-43.629-6.5-46.769-.27-3.2 6.25 14.73 43.029 11.64 49.299-3.04 6.3-60.799-5.47-61.829 1-1 6.52 3.32 38.939 8.86 43.699 5.55 4.82 59.459 5.12 59.459 5.12 11.18 8.56 14.14 25.93 14.18 43.699.1 22.58-17.45 34.249-45.449 26.4-52.199-14.6-116.898-127.818-155.317-206.217-28.2-57.619-45.219-151.898 28.86-180.157 45.169-17.2 92.558-7.48 141.148 6.96 50.899 15.1 118.058 35.559 157.637 60.129 9.72 6.02-11.55 1.2 23.56 79.049 16.33 36.199 32.699 113.328 25.86 152.278l.008-.011zm467.122-118.258C883.69 653.192 818.991 766.44 766.772 781.04c-28 7.84-45.539-3.83-45.459-26.4.08-17.78 3-35.149 14.2-43.699 0 0 53.899-.3 59.459-5.13 5.54-4.75 9.87-37.159 8.83-43.679-1-6.48-58.749 5.28-61.799-1-3.07-6.28 14.85-43.059 11.66-49.299-3.18-6.23-46.799.27-46.799.27-5.64 2.7-10.77 46.799-16.27 51.299-5.55 4.54-46.779-1.6-51.939 3-5.18 4.6-13.98 40.179-10.76 44.699 3.26 4.55 48.949-2.42 52.729 2.42 4.4 14.44-9.42 38.849-26.37 53.699-12.3 10.77-25.87 17.12-42.749 17.1-25.73-.17-56.699-35.569-66.459-91.249-6.84-38.949 9.53-116.058 25.85-152.258 35.129-77.829 13.84-73.019 23.57-79.039 39.549-24.57 106.718-45.029 157.647-60.129 48.559-14.45 95.938-24.17 141.098-6.96 74.139 28.23 57.099 122.518 28.86 180.137v-.029zM99.442 62.902c6.1-2.9 12-5.7 17.53-8.38 18.13-9.4 40.839-21 64.339-32.159-3.84-6-7.7-11.84-9.93-14.38-4.47-5.1-12.42-12.02-27.4-3.95-.86.44-9.64 5.18-18.6 10l-18.68 9.8c-15.08 7.9-13.86 18.37-12.17 25 .77 2.95 2.7 8.32 4.9 14.08l.011-.011zm551.612 77.218c29.95 29.78 81.999 64.799 118.918 84.369 36.459 20.53 80.559 40.529 134.348 53.999 9.87 2.63 25.9 3.7 39.999-22.07 1.6-2.95 34.399-62.949 35.999-65.899 14.1-25.77 4.5-38.669-3-45.579-40.379-37.979-81.039-64.299-118.018-83.879-36.409-20.51-93.978-45.409-135.208-54.509-9.9-2.6-25.92-3.7-39.999 22.06-1.62 2.96-34.399 62.999-36.029 65.929-14.07 25.75-4.5 38.669 3 45.599l-.01-.02zm151.737 123.708c-15.03-6.9-29.06-14.2-42.149-21.58-13.12-6.93-27.93-15.72-43.049-25.57l-83.279 151.598c45.479-13.7 89.779-30.68 135.268-41.529l33.199-62.919h.01zM220.22 1122.104c-5.14 9.72-9.88 22.03-10.57 28.669-.7 6.87-1.9 17.66 16.45 27.4l22.77 12.12c10.9 5.9 21.66 11.7 22.66 12.27 18.28 9.85 26.7 3.12 31.749-1.6 4.62-4.23 11.52-13.4 17.02-23.42l105.048-198.937H299.029l-78.799 143.478-.01.02zM906.389 65.222c2.57-6.32 4.9-12.4 5.8-15.6 1.8-6.6 3.2-17.06-11.73-25.24-.84-.44-9.6-5.25-18.52-10.12l-18.43-10.36c-14.83-8.3-22.9-1.54-27.46 3.5-2.3 2.54-6.36 8.45-10.37 14.5 15.96 7.22 30.879 14.73 43.449 21.83 12.1 6.4 24.57 13.53 37.249 21.5l.012-.01zM218.631 254.759c-4.8 2.56-9.87 5.28-15.1 8.1l34.679 65.699c45.459 11.56 89.869 28.73 135.598 42.049l-83.929-152.768c-25.28 13.9-50.999 26.87-71.239 36.929l-.009-.009zm568 867.345-78.819-143.468H581.475l105.048 198.937c5.5 10 12.4 19.18 17 23.42 5.05 4.7 13.5 11.44 31.759 1.58 1.02-.56 11.74-6.37 22.66-12.27l22.78-12.13c18.33-9.73 17.15-20.52 16.44-27.4-.7-6.66-5.4-18.96-10.54-28.68l.009.011z"/></svg>