<svg xmlns="http://www.w3.org/2000/svg" xmlns:xlink="http://www.w3.org/1999/xlink" viewBox="0 0 100 75"><path d="M23.483 60.913H12.797c-.562 0-1.128-.005-1.7-.016a293.68 293.68 0 0 1-1.586-.033c-.484-.01-.836-.017-1.057-.017.243.066.606.17 1.09.314.485.145 1.02.304 1.602.48.584.177 1.173.353 1.767.53.595.176 1.1.33 1.52.46l9.676 2.974-9.677 2.972c-.418.132-.925.287-1.52.463l-1.766.527c-.583.177-1.117.336-1.602.48-.484.143-.847.247-1.09.313.22 0 .573-.006 1.057-.017l1.585-.034c.573-.01 1.14-.017 1.7-.017h10.685v3.04H.363V69.93l9.61-2.972c.353-.11.772-.237 1.256-.38.484-.143.973-.28 1.47-.413.494-.132.957-.26 1.386-.38.43-.12.743-.204.94-.248-.22-.067-.544-.154-.973-.265-.43-.11-.897-.236-1.404-.38l-1.52-.43a29.21 29.21 0 0 1-1.255-.38L.363 61.11v-3.402h23.12v3.205zM21.93 42.034c1.277 1.156 1.916 2.736 1.916 4.74 0 .97-.17 1.85-.512 2.642-.34.793-.82 1.47-1.437 2.03a6.672 6.672 0 0 1-2.213 1.322c-.86.32-1.816.48-2.873.48H.364v-3.205H16.68a6.12 6.12 0 0 0 1.42-.165c.462-.11.874-.293 1.238-.548.363-.255.66-.592.892-1.013.23-.42.347-.93.347-1.527 0-.642-.116-1.173-.347-1.593a2.878 2.878 0 0 0-.908-1.013 3.492 3.492 0 0 0-1.255-.53c-.462-.1-.913-.15-1.354-.15H.363V40.3h16.25c2.268 0 4.04.578 5.317 1.734zm-4.425-16.999c.925 0 1.778.138 2.56.413a5.63 5.63 0 0 1 2.015 1.206c.562.53.997 1.19 1.305 1.982.308.793.462 1.696.462 2.708 0 1.453-.347 2.67-1.04 3.65-.694.98-1.602 1.8-2.725 2.46l-2.048-2.543c.99-.637 1.668-1.248 2.03-1.832a3.576 3.576 0 0 0 .546-1.932c0-.88-.253-1.563-.76-2.048-.506-.484-1.233-.727-2.18-.727-.44 0-.847.056-1.222.166-.374.11-.743.31-1.107.595-.362.288-.747.684-1.155 1.19a25.31 25.31 0 0 0-1.37 1.915c-.42.66-.854 1.272-1.306 1.833a8.978 8.978 0 0 1-1.487 1.47c-.54.42-1.156.75-1.85.99-.693.244-1.49.364-2.394.364a6.287 6.287 0 0 1-2.313-.413 5.402 5.402 0 0 1-1.833-1.174A5.257 5.257 0 0 1 .43 33.473C.143 32.758 0 31.95 0 31.046c0-1.343.27-2.44.81-3.286.54-.847 1.315-1.623 2.328-2.328l2.114 2.378c-.374.287-.688.55-.94.793-.254.243-.463.49-.63.743a2.5 2.5 0 0 0-.346.826c-.066.297-.1.622-.1.974 0 .77.227 1.365.678 1.783.452.418 1.04.627 1.767.627.442 0 .832-.055 1.174-.165a3.16 3.16 0 0 0 1.007-.562c.33-.264.667-.61 1.008-1.04.342-.43.72-.963 1.14-1.602.46-.727.93-1.404 1.403-2.03a9.03 9.03 0 0 1 1.586-1.636 6.96 6.96 0 0 1 1.965-1.09c.728-.265 1.576-.397 2.545-.397zm5.978-3.435H.363v-3.203h23.12V21.6zM20.378 2.25c.727.31 1.343.705 1.85 1.19a5.092 5.092 0 0 1 1.188 1.766c.286.694.43 1.514.43 2.46 0 1.256-.315 2.313-.942 3.172-.628.86-1.475 1.558-2.543 2.097-1.067.54-2.322.93-3.764 1.173-1.442.243-2.99.363-4.64.363-1.674 0-3.238-.13-4.69-.395-1.454-.264-2.72-.67-3.8-1.222-1.078-.55-1.925-1.26-2.542-2.13C.31 9.853 0 8.8 0 7.567c0-.97.138-1.8.413-2.494a4.765 4.765 0 0 1 1.172-1.75 5.942 5.942 0 0 1 1.8-1.14 10.26 10.26 0 0 1 2.262-.628l.826 3.27c-1.057.22-1.855.523-2.395.908-.538.387-.808 1.03-.808 1.934 0 .705.26 1.283.776 1.734.518.453 1.19.805 2.014 1.058.826.253 1.75.43 2.774.528 1.024.1 2.043.15 3.055.15 1.056 0 2.108-.06 3.153-.183 1.046-.12 1.977-.325 2.79-.61.816-.287 1.476-.667 1.982-1.14.507-.473.76-1.062.76-1.767 0-.77-.275-1.37-.826-1.8-.55-.43-1.454-.798-2.71-1.106L18 1.523c.86.177 1.65.42 2.378.727z" fill="#F07821"/><path d="M97.17 63.296c-1.888 2.676-4.323 4.76-7.31 6.252-2.985 1.493-6.308 2.522-9.97 3.084-3.66.564-7.237.845-10.73.845H29.03V1.66h40.13c3.493 0 7.07.24 10.73.72 3.662.478 6.985 1.435 9.97 2.872 2.986 1.436 5.422 3.45 7.31 6.04 1.886 2.592 2.83 6 2.83 10.224 0 2.986-.564 5.436-1.69 7.35-1.127 1.917-2.422 3.437-3.886 4.564-1.465 1.127-2.902 1.915-4.31 2.366-1.408.452-2.394.676-2.956.676.562.283 1.548.705 2.957 1.267 1.407.563 2.844 1.435 4.31 2.618 1.463 1.183 2.758 2.788 3.885 4.816 1.126 2.028 1.69 4.62 1.69 7.773 0 4.223-.944 7.674-2.83 10.35zM71.865 25.19c-1.296-.196-2.902-.295-4.816-.295H55.473v5.238H67.05c.956 0 1.843-.013 2.66-.042.816-.027 1.534-.126 2.155-.295.62-.17 1.098-.45 1.436-.845.34-.393.508-.93.508-1.605 0-1.238-.648-1.956-1.943-2.154zm1.436 19.9c-.337-.395-.816-.677-1.435-.846-.62-.17-1.338-.267-2.155-.296a78.026 78.026 0 0 0-2.66-.042H55.473v5.24H67.05c1.913 0 3.518-.1 4.815-.297 1.295-.198 1.943-.916 1.943-2.155 0-.677-.17-1.212-.507-1.606z"/><defs><path id="a" d="M97.17 63.296c-1.888 2.676-4.323 4.76-7.31 6.252-2.985 1.493-6.308 2.522-9.97 3.084-3.66.564-7.237.845-10.73.845H29.03V1.66h40.13c3.493 0 7.07.24 10.73.72 3.662.478 6.985 1.435 9.97 2.872 2.986 1.436 5.422 3.45 7.31 6.04 1.886 2.592 2.83 6 2.83 10.224 0 2.986-.564 5.436-1.69 7.35-1.127 1.917-2.422 3.437-3.886 4.564-1.465 1.127-2.902 1.915-4.31 2.366-1.408.452-2.394.676-2.956.676.562.283 1.548.705 2.957 1.267 1.407.563 2.844 1.435 4.31 2.618 1.463 1.183 2.758 2.788 3.885 4.816 1.126 2.028 1.69 4.62 1.69 7.773 0 4.223-.944 7.674-2.83 10.35zM71.865 25.19c-1.296-.196-2.902-.295-4.816-.295H55.473v5.238H67.05c.956 0 1.843-.013 2.66-.042.816-.027 1.534-.126 2.155-.295.62-.17 1.098-.45 1.436-.845.34-.393.508-.93.508-1.605 0-1.238-.648-1.956-1.943-2.154zm1.436 19.9c-.337-.395-.816-.677-1.435-.846-.62-.17-1.338-.267-2.155-.296a78.026 78.026 0 0 0-2.66-.042H55.473v5.24H67.05c1.913 0 3.518-.1 4.815-.297 1.295-.198 1.943-.916 1.943-2.155 0-.677-.17-1.212-.507-1.606z"/></defs><clipPath id="b"><use xlink:href="#a" overflow="visible"/></clipPath><g clip-path="url(#b)" fill-rule="evenodd" clip-rule="evenodd" fill="#808184"><path d="M61.146.1c-.096-.316.23-.473.05-.706-.575.004-.988.78-.05.707zM42.576 0c.008-.06.09-.114 0-.152-.007.06-.09.115 0 .152zm3.272.05c.073.168.125-.196 0 0zM63.36.556c.06-1.12-.877.136 0 0zM43.03.354c-.012-.14-.16-.143-.202-.253-.02.174.015.29.2.254zm.25-.152h.1v-.1h-.1v.1zm2.064 0c.074.168.126-.197 0 0zm-1.812.101c-.322-.058-.11.155 0 0zm-.956.455c.17.153.153-.187 0 0zm-.452.05c-.153.17.186.153 0 0zm3.421.102c.21.047.01-.152 0 0zm.403 0c.157.164.085-.18 0 0zm-7.398.858c.156-.332.7-.273.655-.808-.564-.258-1.348.57-.655.808zM43.482.96c.21.048.01-.152 0 0zm-.557.07L42.93 1v.01l-.005.02zm-.009.068c-.002.014-.002.01 0 0zm.017-.12c0 .007-.002.015-.004.024 0-.01.002-.018.003-.024zm-.008.052c0 .014-.004.028-.005.04l.005-.04zm.008-.052c0-.007 0-.012.002-.014l-.002.014zm.247.082c.21.05.01-.15 0 0zm22.595.102c-.22.342-.262.536-.05.91.675.07.587-.624 1.107-.708.01-.145-.013-.257-.1-.303-.137.15-.197.045-.353 0-.06.128-.025.347-.203.354-.075-.043-.108-.127-.1-.252h-.302zm-23.501.151c.152-.087.032-.1-.05-.202-.065.07-.03.153.05.203zm42.473 0c-.122.17.168-.122 0 0zm-38.697.051c-.123.17.168-.122 0 0zm19.322.303c.048-.043.108-.322 0-.354-.12.022-.162.34 0 .354zm-2.112-.152c.147.038.096.272.3.252.012-.04.043-.06.1-.05.034-.298-.28-.468-.4-.202zm-17.01-.06v.01l-.004.02.005-.03zm-.013.098c-.002.013 0 .01 0 0zm.018-.121c0 .006-.002.014-.004.023.003-.008.003-.016.005-.023zm0 0 .002-.015c0 .003 0 .008-.002.015zm-.008.053-.006.04a.27.27 0 0 0 .007-.04zm2.268.485c.075-.11.086-.285.1-.455-.092-.093-.283-.027-.352.05.285-.026-.022.354.252.405zm-18.57-.1c0-.187-.023-.35-.2-.354-.005.188-.04.408.2.353zm3.675-.304c.043.444-.015.99.2 1.263.188-.318.067-1.08-.2-1.264zm28.03.858c.16.044.068-.166.2-.152.07.15.35.09.555.1.47-.95-.812-.817-1.258-.454-.377-.457-.806.184-1.31-.05-.028.18.06.244.102.353.682-.018 1.146-.108 1.71.204zm-14.253-.639c0 .01-.003.02-.004.025a.09.09 0 0 0 .004-.025zm.01-.068-.01.068c.01-.06.027-.188.01-.068zm.806 0c-.122.17.168-.122 0 0zm3.27-.05h-.252c-.115.388.37.388.253 0zm8.254.505c.01-.04 0-.1.05-.1-.06-.342-.573-.397-.503.1.2-.044.372.075.453 0zM46.854 1.87c-.22.215.16.166 0 0zm10.668 0c-.053.292.22.02 0 0zm1.308.1c-.33-.08-.85-.2-1.056 0 .22-.01 1.003.62 1.056 0zm-4.58.202c-.107.104-.025.24.1.253-.02-.096.07-.305-.1-.253zm10.016 1.464c-.133.018-.18.12-.15.303.27.156.386-.106.604-.152-.016.133.07.166.2.15.234-.858-1.048-1.29-1.81-1.312.118.707.83.51 1.156 1.01zm7.246-.909c-.183.136-.395.243-.453.505.227.12.695-.32.452-.505zm-13.939.303a.331.331 0 0 0 .05-.252c-.142.01-.345-.043-.352.1.09.062.266.038.303.152zm27.727-.1c.11.008.16-.043.15-.153-.11-.01-.16.042-.15.152zm-.1.1c.066-.067.067-.188-.05-.202.008.076-.018.187.05.202zm-38.095.1c-.12.17.17-.12 0 0zm30.547.253c-.03-.104.08-.35-.1-.303.03.105-.082.35.1.303zm1.71-.151c-.03.198.044.293.1.404.196-.023.307-.13.303-.353-.16-.084-.21-.087-.403-.05zm3.061.27c0 .01-.003.02-.004.025 0-.004 0-.013.003-.025zm.009-.068-.01.068c.01-.06.028-.188.01-.068zm-48.662 0c-.03.26-.242.478-.15.707.166-.084.362-.565.15-.706zm46.448 0c-.066.067-.066.188.05.202.066-.067.066-.188-.05-.202zm-35.528.353c.125.198.073-.167 0 0zm36.836-.05h-.2c-.06.195-.14.462-.05.656.273-.104.295-.34.25-.656zM66.63 3.94c.043.074.163.072.252.1.086-.283-.215-.303-.25-.1zm21.79.605c.102-.285.424-.35.403-.757-.396-.044-.485.488-.403.757zm-6.34-.555v-.153c-.11-.01-.16.042-.15.152h.15zm-46.6.15v-.15h-.15c-.03.13.02.18.15.15zm43.43.253a.475.475 0 0 0-.05-.404c.03.12-.065.366.05.403zm9.21-.353c-.18-.086-.403-.02-.505.202.102.21.59.097.504-.202zm-44.386.152c.21.048.01-.152 0 0zm.604.201h-.1v.1h.1v-.1zm-10.921.152c-.01-.057-.056-.08-.1-.1-.11.563-.834 1.158-.705 2.07.37-.556.476-1.375.805-1.97zm4.983-.051c-.188.262-.114.89.15 1.01.07-.268.148-.946-.15-1.01zm42.875.456c-.037-.116.09-.395-.1-.355-.038.118-.128.378.1.354zm-1.007.25c.188-.052.1.17.2.203.06-.136.185-.35 0-.454-.033.116-.166.134-.2.25zm-34.924-.15c.158.165.084-.18 0 0zm43.278.353v.152c.135.035.097-.104.15-.152h-.15zm.201.051c-.02-.02.033.033 0 0zM53.9 5.96c.04-.127.065-.272.05-.456-.488-.095-.49.493-.05.455zm34.923-.405c.074.167.126-.197 0 0zm-.703.05c0 .268.155.382.35.455.18-.248-.086-.654-.35-.455zm-39.555.96c.145-.378-.087-.732-.453-.757-.022.425.005.802.453.757zM71.21 6.06c.17.153.153-.187 0 0zm-28.936.302V6.11h-.2c-.038.19.055.246.2.252zm24.508.102c.12.03.23.073.403.05-.007-.125-.008-.243.05-.303-.173-.167-.547-.124-.453.254zm-24.508.202c1.087 1.034.897-1.146 0 0zm33.163.707c.072-.385.412-.975-.1-1.11-.203.19-.517 1.128.1 1.11zM32.01 6.565c.093.188.277.108.35-.1-.183-.03-.27-.062-.35.1zm-2.67.151c.04.01.06.042.05.1.095-.006.17-.032.202-.1-.04-.01-.06-.043-.05-.1-.093.006-.168.032-.2.1zm50.173-.101c-.164-.01-.215.352-.15.404.124-.06.186-.184.15-.405zm-3.019.859c-.035-.268-.05-.555-.252-.657-.01.313.003.604.252.657zm-38.648-.606c-.274.01-.653-.082-.604.253.223.118.62.03.604-.252zm-8.506.102c-.168.116-.402.167-.35.504.246.015.523-.43.35-.505zm39.002.604c.01-.04.042-.06.1-.05V7.22c-.087.005-.156-.01-.2-.05-.105.12-.053.39.1.404zm-5.032.051c.2 0 .206-.196.25-.353-.194-.15-.387.157-.25.353zm15.952-.355c-.02-.02.033.035 0 0zm-10.216.304c.036-.037.126-.247-.05-.202.01.076-.018.187.05.202zm-36.081 0c-.197-.082-.552-.06-.604.152.218.142.498-.02.605-.152zm42.069.406c.042-.11.13-.174.1-.355-.195.192-.253.137-.402-.05v.302c.138.072.202-.126.302.102zm.656-.052c.038-.035.13-.3-.05-.253.026.074-.06.26.05.253zm-27.93.302c-.074.08-.104.402.1.354-.036-.114.09-.394-.1-.353zm26.42.455c.044-.124.222-.113.2-.303-.156-.018-.358.175-.2.303zm15.65-.202v.202c.478.25.518-.568 0-.202zm-21.64.253c.132.106.534.357.705.1-.094-.123-.21-.228-.25-.403-.19.062-.433.072-.454.303zm-4.58.757c.148-.012.426-.014.454-.252-1.692-.107-3.54-.583-4.982-.605 1.167.38 3.096.976 4.53.858zm31.856-.353c.796-.27-.116-.773 0 0zm-61.092.05c.107-.155.07-.518-.202-.454-.037.257.05.387.202.455zm57.67.455c-.27.06-.48-.125-.654 0 .238-.157.193-.472.1-.758-.626.16-1.343.304-1.81.1.035 1.014 1.58.965 2.364.658zm-56.412 0c.255-.065.303-.337.352-.606-.565-.176-.316.416-.352.605zm35.125.202c.086.002.125-.08.302-.1.108.075.117.252.3.252.004-1.103-1.508-1.192-.603-.153zm4.277-.607c.56 1.262 1.225-.89 0 0zm-1.71.253c.235-.033.37-.168.403-.404-.13-.06-.445.124-.403.403zm.856-.101c-.105.293.163.416.502.404.12-.138.1-.305.05-.505-.31-.005-.33.118-.553.102zm6.29.202c.12-.02.11.092.25.05 0-.09.137-.293 0-.353-.05.134-.2.172-.25.304zm-31.553.706c.193-.166.44-.77.15-.958-.332.423-.79.66-.15.96zm15.499-.958v.1h.1v-.1h-.1zm29.238.252c-.158.057-.113.005-.302 0-.04.225.305.157.302 0zm.503 0c-.034.068-.134-.025-.25.05v.152c.142.022.39-.106.25-.202zm-45.692.606v-.354c-.75-.632-.912.625 0 .354zm43.881-.505c-.02-.02.033.033 0 0zm1.358 0c.03-.202-.042.3 0 0zm-23.45 0c-.387.117-.617.39-.755.758.335.044 1.063-.313.754-.758zm-18.368.657c.242-.48-.153-.693-.402-.404.058.084.2.45.402.404zm43.984-.202c-.045-.125.012-.35-.153-.353-.092.433-.043.88.402.91.048-.155.2-.204.15-.455-.196.028-.29-.045-.4-.102zm4.427-.303c-.41-.07-.955.1-.755.606.297-.156.62-.286.755-.606zm-16.405.505c.007-.23.04-.198 0-.404-.47.027-1.194.362-1.61.455.41.397 1.027.027 1.61-.05zM51.03 9.998c.007.13.01.26.152.252.01-.144.006-.275-.15-.252zm2.718 0c-.04.306.23.034 0 0zm38.497.302c.007-.124.01-.244-.1-.25-.033.122-.102.258.1.25zm-19.878.203c.115-.096.244-.18.15-.353-.226-.063-.324.32-.15.353zm-43.077.505c.18.027.26-.043.303-.152-.26-.043-.025-.58-.252-.656.04.33-.13.59-.05.808zm38.448.455c.32.035.485-.085.805-.05.097-.42.55-.656.402-1.162-.633.056-.66.72-1.258.81.007.144-.027.33.05.403zm-30.496-.707c-.106-.13-.37-.1-.603-.1-.005-.09.01-.158.05-.203-.692.205.377.79.552.303zm-1.712.202c.043-.11.13-.172.1-.353-.17.014-.288.08-.502.05.003.233.143.328.403.303zm13.286-.253c-.39.058-.504.387-.402.808.264.047.266-.17.453-.202-.108-.195.033-.48-.05-.605zm21.992.505c.486.15 1.088-.02 1.157-.455-.294.05-.94.164-1.157.455zm-40.661.1c.04.61-.115 1.26.1 1.768.087-.552.06-1.745.1-2.323-.188.097-.528.042-.653.202.02.25.357.18.453.354zm64.01-.352c.014-.115-.012-.19-.1-.202.01.09-.05.253.1.202zm-15.801-.101c-.31-.11-.795.163-.654.505.303-.074.826-.114.654-.505zm-2.768.858c.03-.158.175-.706-.1-.707.01.253-.174.624.1.707zm-12.53-.405c.28-.19-.29-.245 0 0zm2.868.203c.146-.022.23-.107.252-.252-.138-.06-.21-.11-.352-.05-.094.177.037.166.1.303zm-2.214.303c.06-.218.073-.495-.2-.505-.268.16-.12.673.2.506zm3.523-.454c-.065-.003-.07-.065-.15-.05-.11.126-.142.345.1.352-.037-.154.086-.148.05-.302zm-27.477.303c.108-.108.02-.275-.1-.303-.036.12-.116.32.1.303zm21.892.707c1.127.073-.108-1.187 0 0zm9.76-.506c-.175-.15-.455.17-.603.05a1.03 1.03 0 0 0 0 .658c.287-.025.26-.085.503-.1-.024-.262.144-.33.1-.608zm-38.093.758c.086-.15-.023-.46-.25-.454-.148.21.023.46.25.454zm41.215-.202c-.004.172-.017.352.1.404.116-.068.195-.475-.1-.404zm.603.758c.124-.26-.024-.638-.252-.708-.083.247.053.59.252.707zm-15.398-.506c-.28-.01-.443.094-.503.303.13.04.567.015.503-.303zm-.554.202h-.15a.327.327 0 0 0-.052.252c.185.033.2-.104.203-.252zm11.927.304c.04-.13.074-.233-.05-.304.028.09-.062.297.05.303zm17.965.353h.25c-.03-.232-.018-.43-.25-.555a.78.78 0 0 0 0 .555zM66.38 13.28c.01-.11-.042-.16-.15-.15-.032.13.02.18.15.15zm-9.663.758v-.303h-.202c-.013.182-.012.35.202.303zm18.821-.152c-.043.06-.067.136-.05.253.165-.003.356.02.35-.153-.07-.15-.11-.043-.3-.1zm-37.038.909c.47-.034.698-.31.655-.858-.52.074-.66.472-.655.858zm49.67.505c.135-.305.096-.727 0-1.06-.835-.23-1.487.326-1.008.91.334.04.63.027 1.007.15zm-49.92-.808c.005-.323-.43-.225-.454 0 .15.07.22-.03.453 0zm1.96-.05c-.23-.103-.518-.152-.854-.15.04.347.682.33.855.15zm.454.252c.357-.04.496.094.805.152.054-.476-.61-.23-.857-.404-.04.143.07.13.05.252zm-3.522-.202c-.234.167-.71-.15-.855.252.247.065.753.01.855-.252zm20.222.185.007-.03c0 .008-.004.02-.006.03zm-.024.105c0-.01.004-.02.007-.035l-.008.035zm.035-.156a.064.064 0 0 1-.005.02v-.003a.05.05 0 0 0 .005-.017zm-.025.112c.004-.02.008-.042.013-.06l-.014.06zm-.016.067.005-.023-.006.023zm0 0c-.002.01-.002.008 0 0zm17.902-.212c-.01.145.013.257.1.303-.03-.104.082-.35-.1-.303zm-33.314.253c.005-.138-.084-.102 0-.202-.144-.01-.275-.006-.252.15.117-.015.194.01.252.052zm.453.05c-.067-.193-.126-.13-.302-.252.01.096-.057.112-.05.202.118.016.188.08.352.05zm36.485.152h.1c0-.05.04-.06.05-.1a.242.242 0 0 1-.15-.052v.152zm-39.655-.051c-.058.06-.057.178-.05.303.194.01.27-.296.05-.303zm4.327.455c.035-.17-.084-.185-.2-.202-.035.17.084.184.2.202zm44.788.05c-.597-.166-1.18.007-1.007.505.036-.155.392-.232.403 0-.127.237-.45-.03-.654.1.388.493 1.678.075 1.258-.605zm-54.6 0c-.036.133-.298.19-.15.354.17.007.35-.294.15-.354zm14.493.908c1.03-.104-.223-.95 0 0zm-3.723-.302h.1v-.1h-.1v.1zm16.505 1.01c.19-.075.152-.083.403-.05.18-.298.028-.825-.453-.758.096.37.022.503.05.808zm-15.903-.656c-.023.158.044.226.202.202-.007-.13-.073-.196-.202-.202zm7.75 0h-.15c-.07.068-.097.353.05.353.088-.07.203-.245.1-.353zm-5.636 1.06c.037.215.155.35.403.353.01-.275-.186-.457-.404-.353zM85 17.573h-.253c-.192.238.278.253.252 0zm-15.048.959c0-.386-.165-.608-.503-.656-.057.24.257.714.502.656zm-21.437-.555c-.066.067-.067.188.05.202-.01-.077.018-.188-.05-.203zm1.157 0c-.088.03-.296-.06-.302.05.027.126.34.165.302-.05zm-16.657.353c.104.08.267.102.402.152-.024-.195-.146-.29-.302-.354 0 .1-.136.064-.1.202zm34.17.505c.382.005.316-.5.15-.707-.13.16-.26.46-.15.707zm13.989-.455c.133.016.166-.07.152-.2-.134-.017-.13.104-.152.2zm-29.691-.1c-.003-.03-.008-.06-.05-.05-.01.06-.056.03-.1 0v.152h.15v-.102zm2.617.252v-.15c-.392.104-.744.122-.956.302.447.11.593-.216.956-.152zm-2.465 1.161c-.016-.12-.08-.19-.05-.354-.075-.01-.186.017-.2-.05-.01-.26.172-.665-.102-.76-.17.318-.156.82-.25 1.213.176.128.488.135.602-.05zm28.683-1.161h-.1v.1h.1v-.1zm-13.788.303c-.183-.03-.186-.04-.352-.152-.017.37-.48.293-.453.707.344.042.855.03.805-.555zm-14.946-.051c.018.97 1.91 1.057 2.667.858-.47-.743-1.862-.104-2.666-.858zm28.131.202h.1v-.1h-.1v.1zm-22.142.354c.306.038.387-.15.453-.353a.312.312 0 0 0-.453.353zm-26.017-.354c-.01.29.24.44.453.353-.028-.243-.178-.362-.454-.354zm47.204.101c-.055.114-.318.02-.253.252.165.027.405-.127.252-.253zm-24.005.303c.13.16.483-.058.302-.202-.044.15-.04-.153-.2-.05.042.16-.08.156-.102.252zm40.308.1c.016-.118.08-.19.05-.353-.214.026-.358.337-.05.354zm-65.218-.1c-.143-.042-.13.07-.252.05-.056.174.366.15.252-.05zm39.05.202c-.133.224.04.516.252.555.14-.23.004-.558-.252-.555zm1.711.354c.09-.047.11-.158.1-.303-.058-.058-.176-.057-.3-.05-.012.195.052.316.2.353zm11.474 2.322c.002.265.31.144.403.202-.262.41-.374.968-.1 1.515.454-.183.436-.842.855-1.06.184.193.392.26.655.252.027-.195-.13-.208-.15-.353.472-.132.653-.556.855-.96-.24.062-.585.046-.755-.1.828-.668 1.918-1.34 2.415-2.172-.467.148-.662.567-1.157.555-.09.776-1.304 1.47-1.862.707-.075.06-.06.21-.2.202-.293-.095-.186-.59-.354-.808-.492.383-.354 1.212-.353 1.868-.033.1-.298-.03-.25.152zm-.554-2.12c.177.136.272.04.504.1.09-.094.036-.332.05-.504-.232.013-.632-.1-.554.404zm-18.569-.354c-.128-.168-.39.095-.15.152-.016-.117.144-.056.15-.152zm-17.915.101c-.056.225.155.182.252.252.063-.232-.097-.393-.252-.252zm-11.625.555c-.013-.306-.14-.498-.453-.504 0 .318.17.626.453.505zm15.198.203c.087-.094.065-.362-.05-.404.03.12-.064.365.05.403zm-9.159.807c.086-.063.002-.3.15-.302.504-.066.766.532 1.11.303.047-.182-.227-.04-.203-.2.073-.08.106-.198.15-.304-.087.004-.156-.01-.2-.05-.075.117.017.217-.05.252-.336-.44-1.62-.427-.957.303zm6.039-.656c-.097.18-.026.32.15.353.088-.102.096-.43-.15-.353zm-14.995.051c-.042.305.23.033 0 0zm14.592.05c-.015.17-.176.558.15.505 0-.218-.103-.333-.15-.505zm-11.222.455c.268.022.35.37.655.202-.082-.243-.094-.303-.05-.606-.256.018-.28.22-.554.1-.057.06-.056.18-.05.304zm17.21-.253c.11.01.162-.04.152-.15-.11-.01-.16.04-.15.15zm12.18-.101c-.638-.01-1.493.217-2.014.606.04.01.06.042.05.1.732-.345 1.454-.136 1.963-.706zm-14.645.101c.03.12-.063.367.05.404.068-.073.103-.4-.05-.403zm2.165.353c.042-.123.05-.342-.152-.353-.146.098-.106.386.15.354zm-.505-.1c.21.048.01-.152 0 0zm43.681.353c-.054-.637-.64-.065-1.007-.253-.1.594.64.457 1.006.253zm-27.276 0c.105.673 1.833.435 1.712-.1-.078-.35-1.6.042-1.71.1zm-25.31-.151c-.043.06-.067.135-.05.253.038.01.097 0 .1.05.157.007.172-.13.2-.252-.12.02-.11-.093-.25-.05zm11.573.202v-.202c-.146.022-.23.107-.252.253a.344.344 0 0 0 .253-.05zm-15.298-.152c-.158-.024-.206.063-.25.152.095.098.307.052.25-.152zm19.928.96c1.017-.375 2.38-.176 3.07-.858-.313-.288-.666.136-1.157.15-.167.006-.394-.118-.504-.1-.483.078-.945.61-1.46.252-.008.217-.12.432.05.556zm-17.16-.909c-.036.154.087.15.05.303.298-.013.41.16.453.404.205.038.173-.163.403-.1-.077-.43-.522-.49-.907-.607zm31.502.454c.33.014.67.123.654-.303-.24-.106-.77-.112-.655.303zm-37.441-.303h-.2c-.017.118-.08.19-.05.353h.25v-.353zm14.141.101c-.034.498-.316.843-.403 1.414.36-.293.612-1.122.403-1.415zm16.655.303c.01-.126.01-.245-.1-.253-.007.126-.008.246.1.253zm16.76.556c.077-.197-.048-.365-.05-.505-.314.124-.58-.59-1.007-.203-.17.785.634.656 1.057.707zm-2.517-.254c.076-.17.157-.425-.05-.504-.163.092-.233.483.05.505zm18.771-.504c-.077.184.185.28.25.152-.088-.046-.062-.205-.25-.152zm.352.252c.128-.006.196-.073.202-.202-.095.01-.11-.057-.202-.05v.252zm-68.791 0c-.075.228-.465.14-.504.404.245-.022.762-.204.505-.404zm13.185.758c-.07-.546-.414-.754-.957-.707.01.094-.057.11-.05.2.264.25.77.38 1.006.506zm7.447-.556v-.1c-.093-.168-.245.15 0 .1zm6.643-.05c-.425-.204-.946.143-1.36.1v.203c.403.076 1.085.11 1.36-.303zm9.46-.05c-.02-.022.033.033 0 0zm8.354-.05c-.304-.02-.566.003-.755.1.046.37.726.158.754-.1zm-34.667.07c.002-.01.002-.008 0 0zm-.003.018c0 .004 0 .007-.002.012l-.02.095.022-.107zm-1.562.062h-.1v.102h.1v-.1zm8.756.203c.005.196.22.143.302.05-.13-.064-.152-.11-.302-.05zm14.694-.051c-.04.306.23.034 0 0zm-22.696.303c-.12-.116-.194-.276-.453-.252.08.794.81 1.733.2 2.424.744-.028.54-1.027.353-1.565.312-.072.82.097.755-.455-.276-.055-.535-.296-.854-.152zm14.794-.202c-.126.222.182.288 0 0zm13.79 1.565c.254.034.38-.116.503.05.096-.228.098-.3.202-.455.415.24.686-.702.453-1.16-.402.118-.592.45-.705.857-.534-.234-.844.4-.453.708zm-25.916-1.514c-.03.157-.16.69.05.757.14-.135.08-.598-.05-.756zm10.166.302c.092.075.238.097.402.1-.02-.12.092-.11.05-.25-.157-.154-.365-.03-.453.15zm1.106-.201h-.1v.1h.1v-.1zm39.554.252c.005-.072.22-.263 0-.252.03.09-.148.21 0 .252zm.604.05c-.018-.186.29-.047.2-.303h-.2c.014.09-.142.253 0 .303zm-53.091 0c.068-.064.077-.247-.05-.252-.07.064-.078.247.05.252zm21.337.253c-.197-.08-.105.13-.2.15-.503-.49-1.73-.155-2.417-.655-.125.26-.272.027-.453.1-.06.178-.073.167-.1.304.793.067 1.635.244 2.415.302.24.018.86.18.755-.202zm-24.658-.1c-.444-.01-.555-.353-1.007-.355-.235.753.876.828 1.007.354zm1.408.05c.03-.106.125-.144.1-.303-.12-.02-.108.092-.25.05.016.118.05.218.15.253zm2.97 0c.107-.047.068-.367-.1-.303.03.104-.082.35.1.303zm-8.555 0c.307.146.8.316 1.207.202.11-.685-1.13-.538-1.207-.202zm17.713-.05c.014-.116-.012-.19-.1-.203.01.09-.05.253.1.202zm39.152.05v-.202h-.1v.202h.1zm-39.856-.102c-.016.264.36.117.453.05-.09-.123-.304-.118-.453-.05zm-.252.102c-.18-.095-.7-.098-.705.15.205.1.658.07.705-.15zm38.43.098c0 .003 0 .003 0 0zm.008-.02-.007.016c0-.003.003-.008.006-.016zm0-.001.01-.027.026-.077-.036.104zm-.007.018v.003-.003zm-2.601.611c.182.125.133.26.05.455.348.59.885.69 1.66.86.07-.065.05-.22.052-.354-.34.137-.49-.258-.654-.454.362-.64-.6-.715-.906-1.01-.008.228-.143.328-.202.504zm-38.497.152c.437-.128.95-.146 1.208-.555-.5-.083-1.12.24-1.208.555zm-4.73-.454c-.08.16.028.22.05.404.074.028.26-.06.252.05-.13.19-.235.404-.25.708.448-.082.125-.552.452-.758.292-.184 1.218.283 1.257-.454-.695-.04-1.166.27-1.762.05zm-13.688.808c.028-.09.026-.21.1-.253.26-.063.8.16.756-.203-.48.087-1.282-.387-1.41.353a.94.94 0 0 0 .554.102zm13.133-.405c.11.01.162-.04.152-.15-.11-.01-.16.04-.15.15zm-1.61.455c.496.085 1.028-.322 1.26-.505-.542.046-1.023.152-1.26.505zm5.89-.505c.02.122-.093.11-.05.252.224.088.18-.268.05-.253zm-9.915.657c.923-.112.125-1.03-.05-.1.04.01.058.04.05.1zm33.817-.506c-.1.015-.1-.068-.15-.1-.004.03-.008.06-.05.05v.1c.125.007.156.097.2-.05zm-37.792.202c-.042-.3-.528-.232-.755-.202.106.34.454.227.755.202zm3.874-.05c.014-.115-.012-.19-.1-.202.01.09-.05.253.1.202zm10.216.253c.273-.096.532-.208.705-.404-.34.03-.667.07-.705.403zm-3.97-.336-.004.023c0-.008.002-.017.003-.023zm-.006.033c0 .007-.002.014-.003.02.003-.01.004-.02.005-.03v.01zm-.012.088c-.002.013 0 .01 0 0zm.008-.068c0 .014-.003.027-.005.04l.006-.04zm.01-.053v-.014.014zm2.46.336c-.02-.122.092-.11.05-.253-.068-.016-.096-.072-.202-.05 0 .153-.028.332.152.303zm.453.302c.866-.214-.275-.95 0 0zm19.677-.455c.194-.025.198.292.352.153-.01-.192-.245-.34-.353-.152zm23.097-.05c-.165.327-.22 1.21.303 1.16-.023-.46.017-.903-.303-1.16zm-49.165.707c.195.044.218-.084.302-.15-.04-.012-.06-.043-.05-.102-.14.03-.282.053-.252.252zm58.274 1.263c.22-.113.21-.382.15-.657-.096-.054-.4.062-.452-.152-.175.01-.192.18-.352.203-.1-.272-.308-.167-.554-.1-.084-.237-.136-.504-.353-.607.002.187-.246.123-.25.303.395.89 1.208.632 1.81 1.01zM66.33 25.197c-.023.08-.16.043-.102.202h.15c-.007-.076.02-.187-.05-.203zm6.088.253v-.253c-.088-.004-.156.012-.202.05.018.118.033.237.202.203zm-38.398.202v-.15h-.15c-.03.13.02.18.15.15zm44.286-.102c-.074.302.34.345.252 0-.16.03-.156-.094-.252 0zm-44.788 2.576c.22-.08.55-.056.553-.354-1.597-.277-2.143-2.57-4.075-2.07.038.575.512.15.805.202.32.057.737.655 1.108.91.64.438 1.56.597 1.61 1.312zM44.59 25.55c-.006.098-.197-.087-.202.102.105.03.163.106.25.152-.026-.074.06-.262-.05-.253zm1.207.506c.183-1.01-.906.025 0 0zm-13.687-.101c.124-.155.204.16.4.1.043-.058.068-.134.052-.252-.157-.028-.328-.04-.453-.1-.02.092-.08.17 0 .252zm27.98.151c.085-.08.124-.21.1-.404-.254-.035-.332.105-.302.353.088-.003.156.012.2.05zm-26.874 0c.7 1.332 1.102-.918 0 0zm41.416-.202c-.013.115.013.19.1.202-.01-.09.05-.253-.1-.202zm25.313 0c-.19-.003-.42.313-.202.404-.01-.212.19-.212.202-.404zm-59.08.202c-.03.2.113.224.25.253.038-.205-.046-.29-.25-.254zm1.409.504c.01-.038.042-.058.1-.05.147-.196-.047-.4-.25-.404-.133.17 0 .412.15.455zm33.314-.453v.202c.094-.008.168-.034.2-.102-.072-.027-.125-.075-.2-.1zm-14.342.05c-.014.118-.107.218.05.252.07-.065.078-.248-.05-.253zm5.134.051c-.015.03-.126.195 0 .202.014-.03.124-.195 0-.202zm-6.744.05c-.04.306.23.034 0 0zm11.374.102c-.11.198.04.388.15.454.32.19 1.99.056 3.02.1.72.032 1.338.108 1.81-.05-.125-.25-.463-.29-.703-.303-1.492-.073-2.697.176-4.278-.2zm-28.132.2c-.005-.137.083-.1 0-.2a.107.107 0 0 0 0 .2zm15.852-.1c-.08.075-.073.288.1.253-.022-.096.07-.305-.1-.253zm10.116.05c.077.292.293.076 0 0zm1.207.707c0-.1.138-.064.1-.202a2.769 2.769 0 0 0-.905-.353c-.086.085.03.227.1.303.166-.18.605.05.705.252zm24.959-.504c-.387.02-1.11.127-1.46.354.385.296 1.147.018 1.46-.354zm-39.502.252c-.028-.074.058-.26-.05-.252-.07.064-.08.247.05.252zm-14.947-.151c.006.128.074.196.202.202.05-.2-.112-.293-.202-.202zm1.257 0v.353c.276.094.31-.222.203-.353h-.202zm-.602.151c-.016.2.097.273.302.252v-.252c-.148-.045-.155-.045-.302 0zm43.429 0c-.004.065-.065.07-.05.152.123.078.147-.172.05-.152zm-41.467.252c.158.024.205-.062.25-.15-.03-.004-.058-.01-.05-.052-.14-.007-.124.143-.2.202zm37.038-.05c-.005-.08.007-.175-.1-.152-.003.087.038.13.1.152zm-24.356-.101h-.1v.1h.1v-.1zm14.291.051c.085.178.158-.165 0 0zm1.359-.051c-.216.02-.24.23-.25.454.182-.034.7.092.402.455.084.067.168.134.352.1 0-.304-.148-.298-.05-.605-.173-.114-.424-.148-.454-.404zm-36.484.101c-.185-.11-.48.037-.453.303.195.12.51-.01.453-.303zm35.327 0c-.02-.02.033.033 0 0zm8.455 3.03c.24-.363.374-.836.653-1.16.074.025.127.074.202.1.346-.598.478-.817.302-1.565-.344-.01-.285-.42-.604-.454-.088.13-.107.33-.402.252.188.338-.387.653-.302 1.01.006-.04.167-.153.15-.05-.23.374-.782.97-.3 1.463-.013.192-.312.36-.152.555.095-.142.308-.345.453-.15zm-37.39-2.373c.624.23 1.466-.5 2.012.202-.007.212-.21.225-.15.505.24.116.363-.165.502-.302.302.152.628.28 1.057.303.235-.77-1.105-.457-1.358-.554.02-1.152-1.702-.612-2.063-.152zm21.135-.304c.088-.235-.282-.27-.302-.1.105.03.143.125.302.1zm21.538-.202c-.152.018-.297.305-.15.455.173-.012.394-.336.15-.455zm.402.102c.073.167.126-.197 0 0zm-12.077.252c-.115-.144-.194-.03-.403-.1.01.094-.057.11-.05.2.14-.044.472.105.453-.1zm-6.592 0c.17.196.544.325.805.152-.06-.01-.03-.056 0-.1-.202-.116-.498-.126-.804-.052zm-35.176.404c.065-.146.04-.29-.1-.354-.13.02-.095.366.1.354zm65.067-.252c.1.105.215.002.252-.1-.125-.01-.245-.01-.253.1zm-24.607.202v-.253h-.202c-.04.193.107.196.202.253zm-32.006-.152c-.302-.05-.354.247-.252.454.216-.018.29-.18.252-.454zm7.498.202c-.046.12-.202.134-.15.353.225.04.28-.09.302-.254-.073-.01-.086-.082-.152-.1zm29.038.101c-.085.128-.2.226-.102.404.51.012.656.08 1.007.254.257-.586-.864-.206-.906-.657zm-29.49.353a.347.347 0 0 0 .05-.253c-.143-.042-.13.07-.252.05-.023.16.044.227.2.203zm28.734-.1c.008-.06.09-.116 0-.153-.007.06-.09.116 0 .152zm.403.05c.172.038.196-.193.05-.202-.016.068-.07.097-.05.202zm-29.842-.152c-.065.067-.066.188.05.202-.008-.075.018-.186-.05-.202zm-12.681.152c.038.248.14.17.302.1.043-.19-.226-.178-.302-.1zm20.582 0c-.104.127-.194.41-.05.505.41 0 .415-.466.05-.505zm27.677.1h-.1v.102h.1v-.1zm15.197.05c.158.166.085-.177 0 0zm-14.945.052c-.02-.02.033.033 0 0zm-38.045.05c-.35.44-.426 1.154-1.006 1.364.124.422.052.83.05 1.16.323-.56.472-1.176.755-1.766.357 0 .582-.597.2-.758zm38.85 0c-.205-.02-.318.052-.302.253.183.11.43-.016.302-.253zm16.707.253c.046-.286-.368-.327-.352-.05.065.07.218.05.352.05zm-44.637.05c-.068.065-.05.22-.05.353.127.144.44.1.605.202.038-.213.28-.32.15-.555a3.45 3.45 0 0 1-.704 0zm13.437.253c-.27-.14-.577-.265-.755 0 .023-.23-.236-.138-.353-.1-.036.253.085.35.05.605.503-.067 1.112.258 1.057-.505zm-26.217.202c.587.046.008-.536 0 0zm41.867-.202c-.053.188.19.08.15.252-1.22.81-3.393.512-4.528.96 2.198.433 3.894-.725 5.836-.81-.273-.363-.986-.343-1.46-.402zm-18.619.252a.322.322 0 0 0-.25-.05v.2c.143.012.273.008.25-.15zm-19.123 0c-.215.007-.235.205-.05.253-.02-.122.092-.11.05-.253zm-4.579.203v-.152h-.15c-.01.11.04.162.15.153zm15.399-.153c-.065.068-.066.19.05.203.065-.067.03-.152-.05-.202zm-22.143.153c-.27-.038-.776-.178-.855.303.35.133.803.02.855-.303zm24.155.707c.09-.265.267-.412.152-.758-.562.14-1.112.125-1.863.152-.043.406-.043.765.302.91.158.023.037-.233.15-.254.193.006.6-.12.806.1.045-.212.21-.08.45-.15zm36.283-.81h-.15c-.008.126-.01.246.1.253-.02-.12.092-.11.05-.252zm-65.62.052c-.002.204.15.255.352.253-.002-.2-.196-.208-.352-.253zm43.932.051c-.925.537-2.106.816-2.82 1.565.887-.4 2.042-1.117 2.87-1.363-.01-.076.018-.187-.05-.202zm-17.412.05c-.096.19-.418.154-.706.152-.6.982 1.383.6.705-.152zm29.287.05c.126.197.074-.167 0 0zm-45.844 0h-.25c-.082.268.33.268.25 0zm47.001.303c-.15-.155-.62-.25-.755-.253.103.234.514.157.754.253zm-55.657.152c.212.068.39-.347.15-.404-.127.053-.3.226-.15.404zm22.093.454c.166-.22.018-.42-.05-.656h-.202c-.04.342.085.52.252.656zm41.617-.454c.007.06-.01.143.05.152.03-.048.117-.187-.05-.152zm-.101.152c.033.032-.02-.022 0 0zm-64.866.2c-1.486.286-.146 1.674 0 0zm10.97.052c-.4.02-.488.353-.604.657.415.373.964-.272.604-.658zm15.046.808c.126-.275.49-.234.755-.252v-.303c-.64-.184-1.462-.31-2.113.05-.042.212.098.24.1.405.482-.072.92-.166 1.26.1zm-6.743-.606c-.143-.14-.438-.1-.503.1-.48-.34-1.105.08-1.56-.252.016.254-.227.453-.1.656.644-.248 2.036.482 2.163-.504zm-15.701.101c.076-.01.186.018.2-.05-.043-.11-.213-.147-.2.05zm36.786.959c.09-.096.037-.333.05-.505-.44-.304-.537-.315-1.106-.253-.022.174.02.283.05.404.16.026.114-.154.302-.1.108.093.256.148.2.404.187.034.356.114.504.05zm16.204-.757c-.122.228.197.258.353.353.04-.276-.077-.394-.353-.353zm-44.887.05c-.234.357.254.67.604.758.114-.394-.25-.677-.605-.758zm9.36.051v.15c.146.075.146-.224 0-.15zm5.837.05c-.19.146-.483.188-.553.455.266.102.647-.213.552-.455zm5.636.556c-.51-.01-1.205-.39-1.46-.05.234.472.843.413 1.258.605.034-.22.31-.195.202-.556zm3.572-.202c-.05.582.63.707.655.1-.223-.047-.395-.067-.654-.1zm26.37.101v-.1h-.1v.1h.1zm-54.902.101c.093-.168-.18-.213-.202-.1.138-.038.102.1.202.1zm5.334.05v-.15c-.12-.04-.348-.1-.453 0-.002.118.086.148.05.302.178-.006.405.036.402-.152zm31.2-.101c.033.033-.02-.02 0 0zm-29.187.455c.2.016.24-.13.302-.253-.168-.163-.477.07-.302.253zm-4.428-.253v.202h.2c.024-.158-.126-.142-.2-.202zm51.631 0c-.182.24.295.067 0 0zm-46.448.202c-.095-.1-.243-.03-.2.152.13.013.215-.02.2-.153zm11.02.203c-.113-.038-.15-.153-.2-.254-.452.17-.8.444-1.258.606-.044-.14-.202-.167-.352-.202.033.37-.41.26-.604.404.95.86 1.885-.3 3.02-.202.042-.21-.1-.24-.1-.404-.29-.002-.322.023-.505.05zm21.942-.052h.1v-.202h-.1v.202zm13.335-.151c.21.048.01-.15 0 0zm-45.542.453v-.403c-.07.002-.11-.024-.15-.05-.152.102-.012.38.15.454zm-13.185-.352v.1h.15c.007-.09-.05-.117-.15-.1zm12.782.252v-.252h-.15c.045.088-.003.27.15.253zm-16.607.1h.202c-.023-.094.068-.303-.1-.25.037.155-.14.096-.102.25zm15.097-.25c-.086-.004-.13.038-.15.1.078-.005.174.007.15-.1zm33.818 0c-.265-.014-.28.224-.605.15-.273.836 1.106.532.605-.15zm-47.304.1c.21.048.01-.15 0 0zm-.554.05c-.15-.07-.35-.058-.302.203.188.02.296-.04.302-.202zm4.378-.05c-.185-.05-.2.248-.05.252.043-.058.067-.135.05-.252zm8.254.354c.002-.154.03-.333-.15-.303-.095.1-.077.372.15.304zm.603-.101c.07.013.058.11.1.152.197-.002.544-.23.303-.353-.096.104-.403 0-.403.2zm-12.43 0c.103.015.1.137.202.152-.005-.088.01-.157.05-.202-.074.027-.26-.06-.253.05zm58.426.05c.033.033-.02-.02 0 0zm-57.873.051c-.05 0-.06-.04-.1-.05 0 .05-.04.06-.05.1.05 0 .06.04.1.05 0-.05.042-.06.05-.1zm36.485.606c.042-.493-.3-.682-.654-.506-.02.386.293.67.655.505zm-22.293-.404c.078-.125-.17-.15-.15-.05.03.002.06.006.05.05h.1zm-11.322.656c.06-.243.092-.542-.1-.707.025.28-.27.66.1.707zm6.592.454c-.16-.48-.36-.92-.755-1.16.172.466.254 1.023.755 1.16zm12.782-.909c.014-.115-.012-.19-.1-.202.01.09-.052.253.1.202zm44.586-.05c.033.033-.02-.02 0 0zm-21.286.606c-.022.693-.063 1.163.1 1.716.428-.294-.33-1.15.252-1.364-.027.18.044.26.152.303.2-.237.02-.63.1-.91-.29-.243-.345.182-.604.253zm-24.407 0c.033.17.08.323.2.404-.135.166-.42.19-.603.05-.067.102-.22.118-.252.253.08.198.344-.048.553.152.008.125.01.245-.1.253-.42-.347-1.144.397-1.46-.152-.438.923 1.123.79 1.51.757.06-.376.234-.64.35-.96.647.026 1.353-.28 1.913-.504.036-.154-.05-.184-.05-.303.192.04.195-.108.25-.202-.713.345-1.788-.112-2.31.253zm3.423-.203c-.284-.046-.444.117-.807.153.008.452.466.198.705.354 0-.203.1-.304.1-.506zm-19.325.153c.208.048.01-.152 0 0zm4.982 0c.157.164.085-.18 0 0zm10.316.05c.21.048.01-.15 0 0zm34.219 0c-.014.115.013.19.1.202-.01-.09.05-.253-.1-.202zm-1.056.152c-.092.146-.082.158-.05.353.206.06.202-.35.05-.353zm-.202.05c-.19.013-.324.08-.403.202.13.005.074.197.203.202.142-.06.22-.183.2-.405zm-51.228.303c.126.01.158-.078.2-.15-.094-.023-.126-.11-.25-.102-.057.158-.024.133.05.252zm1.006.352c.08.006.175-.006.15.102.27-.2.784-.157.705-.707-.158-.025-.177.09-.352.05.028.38-.472.234-.503.556zm28.936-.15c-.08.076-.074.288.1.253-.01-.096.057-.112.052-.202-.066-.002-.07-.064-.152-.05zm-20.18.96c-.21-.514-.853-.593-1.308-.86-.036.155.05.185.05.304.126-.008.245-.01.252.1-.104.03-.19.08-.15.253.55-.27.76.235 1.156.202zm34.069-.81c-.266.648.046 1.516.1 2.172.456-.508.152-1.648-.1-2.17zm-46.549.254c.015-.133-.07-.166-.2-.152-.042.18.106.25.2.152zm31.302.506c.01-.215-.005-.4-.152-.456-.128.107-.243.228-.252.455.073.073.33.073.403 0zm-12.884-.405c.14.575-.05 1.213.403 1.414.146-.396-.234-1.014-.404-1.415zm12.128.605c.007-.123.008-.242-.05-.302-.275.152-.306-.208-.603-.05-.073.08-.066.236-.15.303.063-.198-.12-.15-.252-.15-.008.242-.162.506.05.757.277-.018.344-.052.604 0 .113-.207.1-.54.402-.556zM44.79 35.7c.008-.125.01-.245-.1-.253-.077.073-.05.264.1.253zm7.6-.05v-.203h-.15c.02.097.017.218.15.202zm1.71.05c-.5.63-1.82.026-2.315.455 1.046.53 2.187-.1 3.17-.05V35.7c-.305-.038-.474.015-.855 0zm-25.513.606c.53-.887-.813-.288 0 0zm7.649.404c-.097-.02-.04-.196-.2-.152-.116.12-.35.12-.404.303.733.59 1.595-.364 2.415-.252.054-.19-.125-.144-.1-.303-.555.02-1.144-.04-1.51.152.175-.08.138-.58-.1-.556-.21.17-.056.508.05.657-.116-.014-.056.148-.15.153zm5.787-.707c.008.06-.01.143.05.15.03-.045.117-.184-.05-.15zm37.239.253c-.152-.035-.364-.1-.25.202.17.02.285-.016.25-.202zm-46.196.202c.137-.03.236-.1.302-.202-.188-.02-.296.04-.302.202zm17.26.454c.238-.37-.34-.72-.402-.253.187.03.204.232.402.252zM35.38 36.76c.038-.188-.057-.245-.2-.25-.017.067-.073.095-.05.2.14-.042.13.07.25.05zm45.39.203c.174-.028.25-.338.102-.404-.063.105-.23.257-.1.403zm-45.994-.253c-.197.038-.173.298-.403.303-.132-.025-.284-.164-.15-.303-.49.045-1.06.29-1.41.05.33.934 1.717.657 2.316.455.03-.316-.244-.33-.354-.505zm17.964 0v.152c.148.074.148-.226 0-.152zm-2.01 2.323c-.546-.497-.938-1.146-1.21-1.92-.247.92.735 1.126.605 1.92.115.08.488.08.604 0zm-23.2-1.666c.3-.006.878.347.956-.05-.3.004-.898-.327-.956.05zm-.252-.101c.21.048.01-.152 0 0zm4.932.151c.003-.087-.04-.13-.1-.15.008.193-.042.017-.152.05-.05.17.157.078.252.1zm-.504.101c.023-.285-.295-.214-.25.05.116.017.192-.007.25-.05zm3.171-.05c-.064-.003-.07-.065-.15-.05-.104.102-.048.303.1.302-.042-.143.07-.13.05-.252zm26.319.352c.108-.096.11-.262.05-.403-.124-.007-.242-.008-.302.05.03.172.014.39.252.354zm-33.866.102c.135.43.67.25 1.105.303v.202c.125.007.244.01.252-.1-.182.048-.107-.284 0-.254.226.106.583-.04.654-.253-.485-.416-1.472-.11-2.01.102zm13.485 0h.2c.08-.08.015-.27-.05-.353-.1.067-.195.14-.15.352zm-2.415.202c.028-.03.117-.24 0-.253.035.138-.238-.035-.202.102.098.02.04.196.2.152zm-7.85-.05v.253c.093.007.167.033.2.1a.924.924 0 0 0-.2.354c.158.07.167.012.35 0-.137-.3-.074-.464.102-.655-.174-.103-.223-.068-.453-.05zm34.873 0c-.12.17.17-.123 0 0zm-31.503.151a.24.24 0 0 1-.15-.05c.01.095-.057.11-.05.202.096-.02.216-.02.2-.152zm-2.666.152c.037.215.155.35.402.353.058-.06.057-.178.05-.303-.23.062-.28-.21-.452-.05zm21.991.403a.765.765 0 0 0 0-.403c-.274.02-.393-.1-.554.05v.303c.19.04.357.16.555.05zm-23.098-.1c.162.044.157-.078.2-.152-.093-.1-.24-.03-.2.152zm22.041-.152v.303c.156.006.15-.152.15-.302h-.15zm-9.36.052c-1.255.096-.017 1.337 0 0zm8.706.25c.04-.142-.07-.13-.05-.252-.246-.01-.448.023-.404.303.13.118.334 0 .454-.05zm-2.466.102c-.092.104-.264.367 0 .404.005-.143.22-.334 0-.404zm13.738.051c-.07.065-.05.22-.05.353.11.058.205.13.402.1-.022-.246-.05-.486-.352-.453zm-13.134.05c-.082.06-.183.32 0 .353-.01-.103.253-.323 0-.353zm-2.315.557c.263-.09.774.07.755-.304-.288-.114-.972-.09-.755.303zm15.399-.052c.008.06-.008.143.05.15.03-.045.118-.185-.05-.15zm-17.766.606c-.657-.138-1.308-.293-1.96-.303.417.278 1.458.603 1.96.304zm-1.004.404c-.248-.144-.425-.164-.654 0-.064-.356-.383-.457-.654-.606-.086.08-.125.21-.1.404.49.197.648.73 1.157.91-.063-.383.336-.303.25-.708zm37.39-.455c.005-.08.128-.04.1-.152h-.15c.007.06-.01.145.05.153zm-2.818.101c.16.268.498.015.704.1.022-.11.115-.273-.05-.302-.15.137-.542.03-.654.202zm-44.033.05c-.104-.11-.172-.003-.2.1.113.016.187-.01.2-.1zm16.655.051c.39.52.745 1.07 1.108 1.616-.207-.667-.553-1.46-1.107-1.615zm-19.825.405c.083-.09.073-.37-.1-.354-.07.15-.06.31.1.353zm.402-.354c-.068.064-.078.247.05.253.016-.12.108-.22-.05-.254zm1.509 0h-.15v.202c.132.015.165-.07.15-.202zm14.796.404c-.3-.26-1.112-.26-1.41-.353-.02.072-.06.085 0 .152.334.178 1.102.464 1.41.2zm10.718-.252c-.154.16-.387.47-.252.757.462.028.554-.545.252-.757zm-28.382.402c-.004-.08.007-.174-.1-.15-.003.087.038.13.1.15zm19.727-.1c.073.167.125-.196 0 0zm-11.222.354c.036-.037.126-.247-.05-.202.008.075-.018.186.05.202zm35.88 0c-.125.008-.155-.08-.25-.1 0 .068-.025.11-.052.15.13.045.243.08.303-.05zm-30.343.454c.075-.316-.325-.305-.304-.05.12-.002.148.087.303.05zm8.3-.202c.01.06-.007.144.05.152.032-.047.12-.186-.05-.152zm-23.85.354c.086.198.378.19.553.302.086-.082.125-.212.1-.404-.203-.195-.445.155-.654.1zm59.128.05c-.148.185.072.34.302.304.02-.097.144-.092.1-.253-.266-.056-.15.153-.402-.05zm-40.008.303v-.1c-.09-.17-.244.15 0 .1zm.303.101c.125.197.074-.167 0 0zm-2.465.354v-.253c-.19-.038-.245.058-.252.203.058.042.135.066.252.05zm6.792.05c.004-.154-.044-.257-.15-.304-.003.155.046.258.15.304zm-3.773-.151c-.103.118-.037.373.2.302.008-.125.01-.244-.05-.303h-.15zm-14.594.656c-.03-.194-.27-.374-.453-.253-.096.19.243.343.453.253zm-1.007.354c-.045-.24-.233-.34-.302-.556-.152.017-.392-.055-.403.102.337.05.298.476.706.455zm48.814-.404c-.874.105.248.84 0 0zm1.61.657c.922.277.125-1.236 0 0zm12.23-.556c-.01.143-.093.21-.102.354.16.043.317-.344.1-.354zm-43.028.101c-.01.145.013.257.1.303-.03-.105.083-.35-.1-.303zm-16.606.05h-.15c-.122.117-.078.163-.05.354-.16-.026-.18.09-.354.05a.23.23 0 0 1-.05.15c.143.195.386.064.503-.05.005.08-.007.176.1.152.27-.124.084-.468 0-.657zm8.052.707c.187-.014.103-.302.25-.354.132.064.153.11.303.05.073-.067.073-.286 0-.352-.41-.01-.645.16-.552.656zm-8.808-.505c-.067-.07-.35-.096-.35.05.023.13.395.173.35-.05zm22.95.051c.026.073-.06.26.05.252-.057-.13.17-.26-.05-.252zm3.773 1.817c-.517-.93-1.573-1.584-2.818-1.616.566.88 1.692 1.464 2.818 1.615zm-7.549-1.615c-.015.03-.125.193 0 .2-.048-.093.15-.167 0-.2zm21.438.605c.04-.214.223-.378.1-.606-.403-.108-.5.634-.1.605zm-22.545-.201c-.234-.05-.302-.27-.503-.354-.076.31.475.48.503.354zm.101.151c.037-.13.332.117.403-.1-.16-.026-.21-.16-.402-.152-.03.03-.118.24 0 .252zm-16.506.353c-.05-.04-.126-.032-.2-.15 0-.085.14-.03.15-.102-.125-.056-.177-.352-.352-.202.197.218.104.427.1.808.187-.02.368-.238.302-.354zm3.875-.353c-.034.443-.425.778-.352 1.162.294-.148.575-.83.352-1.162zm35.578.152c-.052.116-.173.163-.15.353.087-.003.155.012.2.05.1-.057.197-.43-.05-.403zm-32.408.403c.196.212 1.084.137 1.108-.202-.398.217-.868-.352-1.108.202zm-2.817-.252c-.05.187-.11.132-.05.353.094.012.11-.057.2-.05.002-.153.03-.332-.15-.302zm1.106 0c-.02.086-.065-.01-.15 0-.142.106-.074.258 0 .404.147-.005.284-.283.15-.404zm1.158.302c.01-.144-.013-.256-.1-.302-.11.093-.357.046-.303.303.04.012.06.043.05.102.185.033.27-.034.354-.1zm-16.704-.03.003-.016-.002.015zm-.016.12c-.002.013-.002.01 0 0zm.004-.03c0-.01.003-.023.006-.038l-.006.04zm.008-.06c0 .01-.002.016-.003.023 0-.01.003-.02.004-.03v.008zm.004-.03c0 .005 0 .013-.002.022 0-.01.002-.017.003-.023zm70.398.536c.302.05.19.516.503.555.043-.277-.125-.343-.1-.605-.11-.03-.374-.127-.402.05zm-65.268.656c1.104-.19-.29-1.172 0 0zm44.988-.555c-.045.09-.204.065-.15.253.134.03.255-.208.15-.253zm-25.765.051c-.03.283.056.45.252.505-.018-.235-.017-.49-.252-.505zm46.197.152h-.153V46c.075-.008.186.02.202-.05-.075-.01-.047-.123-.05-.203zm-68.742.604c.033-.428-.533-.63-.755-.353-.055.225.086.252.1.405-.19-.024-.32.014-.402.102v.252c.584.614.877.096 1.51 0 .37-.26-.076-.632-.452-.406zm49.418-.454c.073.167.124-.197 0 0zm-26.018.05c-.103.11-.018.315.1.354-.036-.114.09-.394-.1-.353zM29.34 46c-.005 1.094 1.03.057 0 0zm66.328.052c.073.167.125-.197 0 0zm-61.546.101c-.12.02-.11-.092-.25-.05-.008.124-.01.244.1.25-.016-.13.195-.038.15-.2zm2.164.05c.157.165.085-.18 0 0zm61.594 0c-.02-.02.034.034 0 0zm-1.508.455c.26-.102.268-.06.504.05.02-.473-.554-.482-.504-.05zm-21.438-.253c.072.196.346.406.604.253.01-.264-.447-.324-.604-.253zm21.186.253c-.022.117-.222.135-.1.252.15.06.216-.213.1-.252zm-60.488.152c.21.048.01-.152 0 0zm46.146.252c.066-.067.067-.188-.05-.202.008.075-.02.186.05.202zm.1-.052c.018.12.033.238.202.203.094-.096-.03-.092 0-.253-.088-.003-.157.012-.202.05zm-50.826.405c.175.086.378.003.403-.202-.16-.07-.47-.097-.403.202zm56.211.051c.028-.032.205-.153.05-.202-.027.03-.204.153-.05.202zm3.674-.051c.15.054.352.084.403-.152-.13.055-.338.033-.403.152zm-60.287-.101c-.158-.024-.206.063-.252.152.105.106.19-.067.252-.152zm14.644.959c0-.134.02-.288-.05-.353-.257-.034-.297.46.05.353zm43.328 0c.255-.03.515-.056.554-.303-.255.03-.544.028-.554.303zm-38.044-.253c-.083.1-.063.4.1.405.205-.062.063-.402-.1-.404zm41.164.304c-.343.057-.377-.195-.704-.152 0 .263.657.41.704.152zm-50.422.354c.21-.007.205-.23.2-.455h-.15c-.038.175-.156.27-.05.455zm46.85-.253v-.202c-.127.026-.305-.002-.303.15.006.113.214.023.302.052zm4.326-.101c-.02.097-.195.04-.15.203.068.015.096.07.2.05-.026-.074.06-.262-.05-.253zm-59.984.303c.016-.068.072-.097.05-.203h-.15c-.015.116.01.19.1.203zm22.595-.1c-.108.093-.255.147-.2.403.153-.036.147.088.3.05 0-.183.03-.398-.1-.453zm-10.921 1.766c.077-.125.313-.09.302-.303-.797.03-1.688-1.43-.453-.757.396-.657-1.175-.96-.956 0-.36.105-.708-.09-.705.353.25.102.45-.152.805-.1.046.56.746.463 1.006.807zm42.272-1.666c-.127-.107-.555-.088-.453.202.198-.02.417-.02.453-.203zm-9.713.453c.587.05 1.304.156 1.61-.25-.17-.017-1.385-.14-1.61.25zm7.097.91c.5-.19.465-.912.955-1.11-.407-.224-.478.43-.805.302.06.36-.29.534-.15.808zM38.5 49.03c-.157-.022-.224.044-.2.203h.2v-.202zm42.17.203c.357.106.35.034.656 0 .023-.382-.588-.144-.655 0zm-50.272.404c.088-.068.185-.417 0-.455-.164.047-.34.465 0 .455zm9.412.101c-.05-.154.107-.512-.102-.505-.06.227-.173.4-.15.707-.362.092-.866.04-1.058.303.564.004 2.055.08 2.315-.555-.325.072-.713.224-1.006.05zm11.724-.455a.332.332 0 0 0-.05.252c.204.03.16-.207.05-.252zm22.042.607c-.313-.397-1.342-.608-1.56-.152.34.288 1.077.126 1.56.152zm-31.503-.354c-.285-.035-.776.014-.906.202v.1c.142.067 1.016.022.906-.302zm24.657-.05h-.25c-.03.2.113.224.25.253v-.254zm-34.118.101c-.064-.002-.07-.064-.15-.05-.1.113-.045.38 0 .504.202.002.14-.262.15-.453zm40.208.555c-.266.085-.668.035-.654.404.26-.092.668-.037.655-.404zm-27.73.172a.276.276 0 0 0-.006.04l.005-.04zm.007-.054c0-.007.002-.01.002-.013l-.003.014zm0 0-.003.025c0-.01.002-.017.003-.024zm-.017.122c-.002.013 0 .01 0 0zm.012-.089c0 .007-.002.014-.003.02 0-.01.002-.02.004-.03 0 .004 0 .007-.002.01zm38.398-.05h-.152c-.033.123-.1.26.1.252-.02-.122.092-.11.05-.252zm-47.556.454c-.316.065-.867-.086-.906.353.842-.17 2.027-.212 2.767-.707-.52-.12-1.246.228-1.86.354zm51.481-.202c-.283.005-1.057-.05-1.26.203.42-.03 1.038.253 1.26-.203zm4.327.051c-.04.034-.112.282 0 .303.29-.237.525.173.704-.153-.16-.225-.573.026-.704-.15zm-21.589.354c.004.087-.01.157-.05.202.407.078.52-.107.906-.152-.03-.585-.54-.055-.857-.05zm15.449.05c-.25-.147-1.194.074-1.56-.203-.05.144-.4.167-.25.354.425.033 1.65.343 1.81-.15zm-4.226.1c.348.124 1.475.344 1.66-.2-.58.066-1.41-.27-1.66.2zm-46.499.102V50.9c-.222-.16-.612.015-.402.302.16-.06.22.032.402-.05zm-2.567-.05c-.007.125-.01.245.1.252-.01-.095.057-.112.05-.202-.063-.003-.068-.065-.15-.05zm65.672.1c-.21-.068-.473.01-.352.202.064-.12.326-.042.352-.202zm-25.462.858c-.12-1.237-.954-.52-1.46-.25.034.377.25.516.2.858.293.09.198-.206.353-.253.078.596.38.964.403 1.616.282-.615-.645-2.12.503-1.97zm18.82-.706c.008.06-.01.143.05.152.005-.08.13-.04.1-.152h-.15zm-25.06.909c.303-.13.832-.04.855-.455-.42.018-.785.09-.856.455zm-28.182 0c-.064-.003-.07-.065-.15-.05-.044.142-.164.207-.152.404.26.04.307-.13.302-.354zm-.856.202c-.034.126-.153-.074-.2-.1-.113.126.125.208.25.252v-.102c-.002-.03-.007-.06-.05-.05zm41.265.657c.342.18.942.038 1.41-.102 0-.746-.778-.455-1.158-.455.015.154.154.18.1.404-.11.058-.326.01-.353.152zm-19.375-.607c-.19.142-.04.365.1.455.2-.17.133-.367-.1-.455zm21.338.05c-.04.306.23.035 0 0zm-43.882.303v-.252h-.15c-.01.144-.007.276.15.252zm11.625-.201c-.4.1-.364.33-.1.455.357.17 1.254.592 1.308.15.046-.375-1.04-.647-1.207-.605zm15.902.505c.182-.088.443-.094.605-.203-.034-.53-.83-.21-.605.202zm-28.333 0c.01-.057.056-.08.1-.1-.01-.21-.094-.344-.35-.304-.103.2-.017.43.25.404zm33.113.101c.06-.076.145-.123.15-.253-.29-.167-1.327-.4-1.408.152.443.173.792-.065 1.258.1zm-9.108-.405c-.095.123-.187.25-.15.505.292.04.357-.146.35-.404-.1 0-.063-.138-.2-.102zm15.903.304c.334.167.913.328.904-.253-.27.11-.776-.176-.905.252zm-11.978-.05c-.318-.016-.684.187-.603.404.238-.01.4-.107.602-.152v-.252zm-30.345.756v-.353c-.204.04-.377-.084-.503-.253h-.1c-.128.09.05.488-.15.505-.315-.2-.73-.024-.605.505.682.372.89-.264 1.357-.404zm37.491-.252c-.265-.043-1.302-.153-1.107.455.325.028 1.294.03 1.108-.454zm-8.808.354c.297-.007.516-.09.555-.354-.3 0-.593.01-.554.354zm18.72-.203c-.397-.053-1.5-.116-1.86.303.382.05 1.51.214 1.86-.303zm-19.574.455c-.27-.018-.378.126-.352.404.27.018.378-.126.352-.404zm-5.032.656c-.33.037-.713.644-.302.808.09-.28.348-.39.302-.808zm-13.99.758c-.122.028-.26.043-.252.202.192.04.195-.107.252-.202zm10.769.05c-.276-.176-.61.136-.805.05.002.45.82.355.805-.05zm-10.669.354c-.19.3-.147.006-.453.05a.347.347 0 0 0 .05.253c.197.043.715-.063.404-.303zm3.02.504c.198.03.223-.113.25-.252-.154-.16-.41.097-.25.252zm-.252-.151c.02.17-.223.08-.15.303.167.052.372-.287.15-.303zm-11.826.101c.033.292.474.525.655.354-.042-.294-.284-.388-.654-.354zm2.768 1.212c.22-.266.558-.416.805-.656-.125-.18-.32-.286-.404-.505-.017.476-.546.69-.402 1.16zm60.236-.959c.16.008.305.002.354-.102-.115.037-.393-.09-.353.102zm.806 0c.003.07-.024.11-.05.15.183-.032.193.11.352.102-.01-.096.057-.112.05-.202-.16.024-.178-.092-.352-.05zm-43.479.101c.21.05.01-.15 0 0zm3.119.252c-.227.187.086.366.05.657.292-.073-.013-.458-.05-.657zm35.731.404c.032.033-.022-.02 0 0zm-57.57.202c-.065.067-.067.188.05.202-.008-.075.018-.186-.05-.202zm5.183.556c-.117.016-.194-.008-.252-.05-.155.36-.367 1.116.1 1.26.138-.315.265-.798.152-1.21zm49.316.1c.21.05.01-.15 0 0zm-.402.101c.033.034-.02-.02 0 0zm-.856.253c.21.048.01-.15 0 0zm-.101.101c.034.034-.02-.02 0 0zm-.653.101c.266.055.06-.153 0 0zm-14.344.05c.107.113.052.387.303.354a1.26 1.26 0 0 0-.1-.404c-.075.01-.186-.018-.202.05zm14.193 0c.21.05.01-.15 0 0zm-58.273 0c-.004.065-.065.07-.05.152.123.08.146-.17.05-.152zm46.547 6.162c-.122-.265-.706-.067-.704-.455.097-.023.217.155.2-.05a8.04 8.04 0 0 0-.905-3.787c-.124.007-.243.007-.302-.05-.176-.365-.047-1.032-.453-1.163-.14-.023.04.275-.1.253.056-.292-.197-.273-.152-.555-.097-.016-.098.068-.15.1.008-.193-.002-.368-.1-.455-.418.505-.17 1.354.2 1.768.085-.102-.003-.375.102-.455.045.09.122.148.15.253-.41.292-.132.795.05 1.16-.582.77.56 1.824.152 2.728-.678-.418-1.38-.472-2.113-.706-.89-.284-2.194-.877-2.818-.96-.88-.116-1.694.55-2.516.455.127.136.345-.112.352.1-.128.14-.464.073-.503.302.645.067 1.436-.286 2.063-.403 1.028-.194 2.684.643 3.874.857.923.166 2.323.583 2.366 1.414.156-.128.083-.488.352-.504.016.068.072.096.05.202.26-.26.64.263.907-.05zm-40.761-5.757c0-.12.257-.24.1-.354-.072.083-.325.274-.1.353zm26.47-.101c.048.506.365-.094.503.252.254-.334-.243-.503-.504-.252zm-13.739.404c.3.055.92.02.956-.353-.3-.096-.848-.024-.956.353zm-13.587-.152c-.12.146-.042.417.2.354 0-.12.088-.148.05-.303-.057-.043-.133-.067-.25-.05zm29.086.606c.36-.04.626-.01.655-.455-.26.052-.308 0-.603 0-.048.12-.166.324-.05.455zm-33.966-.354a1.886 1.886 0 0 1 0 0zm-.01.068-.004.025c0-.005 0-.013.004-.026zm44.846-.118c-.218-.034-.135.234-.15.404.187.003.144-.225.15-.404zm-45.441.556c.125.197.073-.168 0 0zm34.521.605c-.215-.037-.342-.16-.553-.202-.287.484.57.796.553.202zm4.177 0c-.12.17.17-.122 0 0zm10.015.253c-.11.15-.104.306-.15.606.29.026.37-.573.15-.607zm.252.152c-.06.053-.02.232.05.302.022-.112.115-.273-.05-.302zm-24.508.756c.006-.275-.014-.524-.1-.707-.12.212.004.553.1.708zm5.133-.555c.032.187-.065.503.05.606.047-.097.145-.594-.05-.607zm41.919.202c.125.197.074-.167 0 0zm-22.444.253c.008-.125.01-.245-.1-.253-.08.076-.074.288.1.253zm-14.694-.051c-.083-.055-.435-.06-.554.1.074.027.515.07.554-.1zm-.656.101c-.29.028-.66.02-.552.202.047-.07.52.028.553-.202zm35.38.354c.006.06-.01.143.05.15.03-.046.115-.185-.05-.15zm-58.175.656c.17.064.208-.256.1-.303.013.148-.113.155-.1.303zm18.921 1.162c.095-.106.168-.418 0-.505-.028.11-.12.413 0 .505zm33.514-.405c.034.033-.02-.02 0 0zm-27.525.253c-.16.026-.178-.09-.353-.05.01.095-.057.112-.05.202.09.065.37-.004.403-.152zm-24.91.707c-.243.075-.104-.232-.302-.202a.873.873 0 0 0 .1.505c.162-.007.222-.115.202-.303zm59.231.405c.037-.11.417.175.503-.05-.054-.067-.53-.13-.504.05zm-9.512-.052h-.453c.047.183.432.2.454 0zm5.586.052c.074.166.125-.198 0 0zm1.108-.052c-.126.026-.304-.002-.303.15.154-.035.15.09.303.053.015-.1-.07-.1-.1-.15.038-.012.098-.002.1-.052zm2.918.152c.033.033-.02-.02 0 0zm-41.114.505c.09-.027.394-.122.252.05.132.015.165-.07.15-.202-.18.006-.345.024-.402.152zm-15.248.101c-.232-.063-.904-.133-1.057.05.04.012.06.044.05.102.316-.158.81.028 1.007-.152zm12.026.202c-.186-.196-.914-.24-1.408-.202-.013.115.012.19.1.202.054-.047.016-.187.152-.152.226.29.957.1 1.157.152zm-3.018-.05c-.204-.178-.12.162 0 0zm.453 0v.15c.264.11.712.032.654-.2-.074.083-.515-.094-.655.05zm-17.563 1.009c1.34-.287-.312-1.32 0 0zm44.888-.657c.048.307.504.31.605.102-.18.074-.366-.088-.604-.1zm-45.34.557c-.107-.112-.15.064-.303.05-.08-.34-.596-.734-.805-.253.1.135.527-.058.554.152.032.2-.133.203-.1.403.142.234.508.12.704 0 0-.135.018-.29-.05-.353zm4.126.706c-.015-.2.116-.254.1-.455-.807-.075-1.335-.584-2.012-.505-.244.707.24 1.09 1.006 1.06.182-.036.144-.293.352-.302.196.057.223.282.554.203zm16.504-.757c-.003.35-.15.556-.15.91.18-.12.276-.823.15-.91zm-19.02.959c.01-.04 0-.1.05-.1-.445-1.153-1.563.228-.05.1zm-4.63.253c.2-.033.202.134.402.1.08-.322.39-.415.453-.756-.4-.08-.726.3-.855.656zm63.91-.455c.005.312.22.097 0 0zm-55.305.202c.008.06-.01.144.05.152.03-.047.117-.186-.05-.152zm23.501.96v.253c.306-.044.412-.032.755-.05-.028-.36-.594-.447-.804-.455.074.094.202.134.2.303-.064-.004-.07-.066-.15-.05zm9.914-.253c-.11-.01-.16.04-.152.152h.15v-.152zm-11.122.758c.273-.063.5-.174.755-.253.055-.224-.086-.25-.1-.404-.382.03-.807.257-.655.656zm-26.268-.253c-.318.052-.436.304-.655.455.29 0 .84 0 .654-.455zm27.626.555c-.007-.18-.16-.477-.302-.354.165.055.047.393.302.354zm-26.721-.302c-.003.064-.064.07-.05.15.124.08.148-.17.05-.15zm-1.61.202c.022-.084-.188.004-.2.05.13-.06.215.156.2-.05zm.505.1c.007.126-.08.157-.102.253h.302c.012-.165-.06-.243-.2-.253zm18.467 1.111c.083-.305.418-.835.2-1.11-.266.12-.352.9-.2 1.11zm16.556-1.01c-.136-.035-.097.104-.15.152.11.01.16-.04.15-.152zm-36.183.253c.01.076-.017.186.05.202.066-.067.067-.188-.05-.202zm21.74.202c.045.263.594.336.654.05-.258-.025-.403-.144-.654-.05zm1.56.404c-.03-.25-.51-.447-.503-.05.185.072.396.007.503.05zm-22.293-.152c.012.173.095.275.152.404.532-.005.224-.76-.153-.404zm3.171.05c-.183.24.294.068 0 0zm.402.405c-.02-.02.033.033 0 0zm5.284.202c.033.033-.02-.022 0 0zm-14.04.201c.17.155.153-.186 0 0zm-.201.102c.076-.01.186.017.202-.05-.068-.066-.188-.067-.202.05zm5.032 0c.015.184-.008.328-.05.454.268-.016.327-.413.05-.455zm-5.385.1c.268.056.06-.153 0 0zm13.79.052c.01.19.05.354.25.354-.01-.212.083-.24 0-.404-.116-.017-.193.007-.25.05zm-14.595.201c-.02-.02.033.033 0 0zm10.77.202c.002.21.196.227.352.15-.002-.21-.196-.226-.352-.15zm-5.637.555c.147-.02.163-.172.25-.25-.18-.015-.34.145-.25.25zm12.178-.15c.142.396.314.763.353 1.262.005-.188.072-.127.2-.1 0 .303.068.405.1.605.128.78.088.007.152-.656-.437-.168-.35-1.13-.806-1.11zm32.862.15c.22.14.507.066.856.153.01-.04 0-.1.05-.1-.07-.33-.766-.312-.906-.052zm-10.268.506c-.022-.213-.227-.242-.35-.354-.016.14-.207.362-.05.505.056-.027.358.025.4-.15zm-.502-.253c0-.077-.373-.11-.302.05.09.065.332.173.302-.05zm-7.095 2.071c-.122.168.17-.123 0 0zm13.737 0a.185.185 0 0 0-.25 0c.104.265.125.067.25 0zm-2.113.252c-.29-.11-.464-.03-.805-.1-.042.058-.066.135-.05.252.325-.048.634.202.855-.152zm.906-.101c-.185-.05-.2.248-.05.253-.02-.122.092-.11.05-.253zM46.15.1h.15c-.016-.117-.06-.208-.1-.302-.132.02-.33.03-.252.15.09-.115.332.006.2.153zm-2.618 0c.178.016-.213.102 0 .153.106-.183.163.1.252.1-.03-.09.148-.21 0-.252-.04.33-.136-.25-.252 0zm-.402.102c-.137.154.153-.137 0 0zm-.39.985c.018.03.016.022 0 0zM42.677.91c-.012.07-.083.084-.1.15.063-.015.136.084.164.127l-.013-.025c-.086-.13.058-.177-.05-.253zm4.228.302c-.004.07.01.193.05.1.066-.14-.2-.172-.05-.1zm.655.708c.117-.002.147.086.3.05v-.556c-.074-.026-.126-.075-.2-.1-.246.282-.04.177-.1.605zm-.505 1.06c-.137.153.153-.138 0 0zm2.365 4.04c.63-.058.806-.573 1.46-.607.338-.52 1.6-.378 1.258-1.414-.6.007-.725.69-1.258.605-.14.24-.508.464-.654.404-.025.318-.55.49-.855.453.032.003.06.008.05.05-.04.216-.166.33 0 .506zm30.445-1.213c-.034-.203.212-.124.202-.303-.066 0-.046-.088-.1-.1-.062.076-.2.333-.102.403zm18.67 7.271c-.17-.108-.303.18-.352.354 1.217.51-.556 1.104-.553 1.616.044-.074.04-.195.2-.152-.036.118-.136.43.102.404.344-.446.828-.75 1.158-1.212.067.072.223.134.302.05-.212-1.38.06-2.607 1.208-2.978-1.033-1.386-1.56 1.193-2.065 1.918zM68.795 26.36c.605.242 1.233.037 1.912.2-.11-.443-.92-.187-1.157-.504-.306-.034-.958-.045-1.31-.303-.415.287-.804-.286-1.257.05-.81-.682-2.31-.367-3.12.152-.068-.117-.088-.282-.302-.253.01.16.115.222.1.404-.572.18-1.43.937-.704 1.515.148-.21-.06-.225-.15-.252 1.13-1.845 3.934-1.85 5.887-.757-.006-.124.027-.208.102-.25zm-12.43.706c0-.028-.04-.057-.05 0 .1 0 .064.138.2.1-.01-.094.058-.11.052-.2-.16-.06-.123.078-.202.1zm29.912 3.187.127.07c-.01-.005-.026-.013-.047-.026l-.08-.044zm.145.081-.018-.01c.01.004.015.008.018.01zm-.172-.096.01.005-.01-.005zm0 0c-.003-.003-.003-.003 0 0zm.008.004.013.008-.012-.008zm.854.258c-.056-.1-.416-.152-.453-.102.06.01.03.056 0 .1.153.07.42.055.452 0zm-46.75 5.604c.282-.12.398-.408.554-.656-.725.182-1.404.41-2.063.656.09-.006.118.05.1.152-.104.114-.468-.033-.452.202.282.176.406-.185.606-.253.32.44.874-.056 1.258.05-.24.095-.344.247-.352.455 1.364.295 1.528-1.004.35-.606zm-10.668 1.97c.008-.06.08-.055.15-.05.042-.144-.07-.132-.05-.254.07.002.11-.024.15-.05.115.088.17.236.404.202-.05-.703.904.218.855-.404-.042-.537-1.452-.043-1.862.1.234.045.338.345.354.456zm30.143 1.11c-.002.154-.03.332.15.303.185-.22.622-.454.555-.758-.303.083-.337.436-.705.454zm-9.087.34c.002.004.002.004 0 0zm0 0-.02-.036-.046-.078.066.114zm-23.048.066c-.02.03-.028.047 0 0zm.036-.064-.007.012-.025.044.033-.056zm.008-.014.007-.013-.007.012zm49.704.682c-.188-.035-.55.017-.402.152.024-.06.432.1.402-.152zm8.485 10.449-.025.016.025-.017zm.07-.046-.07.046.07-.046zm-50.121 8.836c.152.138-.138-.154 0 0zm43.831 7.069c-.186.28.342.037 0 0zm-44.687 2.071c.01-.072.082-.085.1-.152-.067-.015-.096-.07-.2-.05-.016.1.067.1.1.152-.028 0-.057.04 0 .05zm23.652 2.07c-.064-.127.025-.158-.05-.202-.115.223-.495-.103-.605.153.19.138.338.022.655.05zm-15.047 1.161c.03-.25.186-.558.1-.606-.02.184-.236.433-.1.606z"/></g></svg>