<svg xmlns="http://www.w3.org/2000/svg" viewBox="0 0 1000 160" enable-background="new 0 0 1000 160"><g><path d="M811.78 90.647h-31.5v-47.51c0-6.3-1.035-11.01-3.105-14.132-2.07-3.12-5.352-4.68-9.843-4.68-4.375 0-7.962 1.326-10.762 3.98-2.8 2.655-5.6 5.994-8.4 10.018v52.323h-31.5v-47.51c0-6.007-.962-10.645-2.887-13.912-1.925-3.266-5.337-4.9-10.237-4.9-2.334 0-4.477.467-6.43 1.4-1.956.934-3.545 1.984-4.77 3.15-1.225 1.167-2.712 2.887-4.462 5.162-1.75 2.275-2.86 3.705-3.325 4.287v52.323h-31.5V1.576h31.5V14.35c4.724-5.016 9.536-8.662 14.436-10.937S709.553 0 715.97 0c3.032 0 5.92.277 8.662.83 2.74.556 5.438 1.503 8.093 2.845 2.654 1.342 5.06 3.18 7.22 5.512 2.156 2.334 3.877 5.046 5.16 8.137 5.076-5.716 10.34-10.032 15.794-12.95C766.353 1.46 772.637 0 779.755 0c7.116 0 13.08 1.43 17.893 4.287 4.812 2.86 8.37 6.986 10.674 12.38 2.304 5.397 3.456 11.944 3.456 19.644v54.337zM898.062 6.387l-11.637 31.586c-4.784-4.55-9.625-6.825-14.525-6.825-4.434 0-8.268 1.502-11.506 4.506-3.237 3.005-6.343 8.56-9.318 16.668v38.324h-31.5V1.576h31.5v21.523c1.982-5.308 5.482-10.486 10.5-15.532C866.592 2.524 872.483 0 879.25 0c3.557 0 6.663.525 9.318 1.575 2.655 1.05 5.82 2.655 9.494 4.812zM1000 1.575l-60.548 129.583h-31.85l24.5-52.148-35.26-77.435h33.86l18.112 44.274 20.562-44.275H1000zM28.574 117.364v25.05h-6.862v-19.2c0-3.825-.513-6.493-1.537-8.006-1.025-1.512-2.812-2.27-5.362-2.27-1.425 0-2.732.326-3.92.976-1.187.65-2.543 1.8-4.068 3.45v25.05H0v-34.5h6.825v4.537c3.474-3.473 6.875-5.21 10.2-5.21 4.374 0 7.762 2.074 10.162 6.224 3.65-4.2 7.462-6.3 11.437-6.3 3.35 0 6.106 1.225 8.268 3.675 2.162 2.45 3.244 6.186 3.244 11.21v20.363H43.31v-20.437c0-2.874-.587-5.075-1.76-6.6-1.176-1.524-2.864-2.287-5.063-2.287-2.826 0-5.463 1.424-7.913 4.274zM87.305 134.35v6.75c-3.425 1.276-6.775 1.913-10.05 1.913-5.4 0-9.706-1.6-12.918-4.8-3.213-3.2-4.82-7.487-4.82-12.862 0-5.423 1.563-9.8 4.688-13.124s7.237-4.987 12.337-4.987c1.775 0 3.368.168 4.78.505 1.413.338 3.157.97 5.232 1.894v7.274c-3.45-2.2-6.65-3.3-9.6-3.3-3.075 0-5.6 1.08-7.575 3.244-1.976 2.162-2.963 4.918-2.963 8.268 0 3.525 1.07 6.325 3.206 8.4 2.137 2.075 5.018 3.112 8.643 3.112 2.626 0 5.64-.762 9.04-2.287zM96.537 160v-52.086h11.948c6.117 0 10.88 1.525 14.288 4.575 3.408 3.05 5.113 7.31 5.113 12.786 0 5.175-1.604 9.425-4.812 12.75-3.207 3.325-7.295 4.987-12.262 4.987-2.197 0-4.63-.487-7.3-1.462V160h-6.975zm11.8-45.71h-4.826v21.223c2.096 1.075 4.29 1.612 6.587 1.612 3.193 0 5.806-1.112 7.84-3.337 2.032-2.225 3.05-5.087 3.05-8.587 0-2.25-.48-4.236-1.442-5.96-.96-1.726-2.27-2.982-3.93-3.77-1.658-.787-4.083-1.18-7.277-1.18zM137.156 90.027h6.825v22.424c2.85-3.473 6.388-5.21 10.613-5.21 2.3 0 4.362.574 6.187 1.724 1.824 1.15 3.18 2.737 4.07 4.762.886 2.025 1.33 5.038 1.33 9.037v19.65h-6.825v-21.338c0-2.525-.62-4.556-1.856-6.093-1.238-1.538-2.87-2.306-4.895-2.306-1.5 0-2.913.388-4.237 1.162-1.325.775-2.788 2.062-4.387 3.862v24.712h-6.824V90.027zM207.023 125.764H182.76c.175 3.3 1.282 5.925 3.32 7.875 2.037 1.95 4.67 2.924 7.893 2.924 4.5 0 8.65-1.4 12.45-4.2v6.675c-2.1 1.4-4.18 2.4-6.244 3-2.063.6-4.482.9-7.257.9-3.8 0-6.875-.788-9.225-2.363-2.35-1.575-4.232-3.693-5.644-6.356-1.413-2.66-2.12-5.742-2.12-9.242 0-5.25 1.488-9.518 4.463-12.806 2.975-3.287 6.837-4.93 11.587-4.93 4.575 0 8.224 1.6 10.95 4.8 2.724 3.2 4.087 7.486 4.087 12.86v.862zm-24.11-4.088h17.36c-.174-2.724-.987-4.824-2.436-6.3-1.45-1.475-3.4-2.212-5.85-2.212-2.45 0-4.457.737-6.02 2.212-1.562 1.476-2.58 3.576-3.055 6.3zM223.643 107.914v7.912l.375-.6c3.3-5.325 6.6-7.987 9.9-7.987 2.574 0 5.262 1.3 8.062 3.9l-3.6 6c-2.375-2.25-4.575-3.376-6.6-3.376-2.2 0-4.106 1.05-5.72 3.15-1.61 2.1-2.418 4.588-2.418 7.462v18.037h-6.862v-34.5h6.863zM246.974 139.938v-7.35c1.925 1.35 3.893 2.444 5.906 3.28 2.012.84 3.706 1.257 5.08 1.257 1.426 0 2.65-.35 3.676-1.05 1.025-.7 1.537-1.537 1.537-2.512 0-1-.332-1.83-.994-2.494-.664-.663-2.095-1.62-4.295-2.87-4.4-2.45-7.28-4.542-8.643-6.28-1.363-1.737-2.044-3.63-2.044-5.68 0-2.65 1.03-4.813 3.094-6.488 2.062-1.674 4.718-2.512 7.968-2.512 3.375 0 6.837.95 10.387 2.85v6.75c-4.05-2.45-7.363-3.675-9.937-3.675-1.325 0-2.394.282-3.206.845-.813.563-1.22 1.307-1.22 2.233 0 .8.37 1.565 1.105 2.29.735.726 2.028 1.6 3.88 2.625l2.437 1.387c5.752 3.25 8.628 6.848 8.628 10.797 0 2.824-1.106 5.142-3.32 6.954-2.21 1.81-5.056 2.717-8.53 2.717-2.05 0-3.875-.22-5.475-.656-1.598-.437-3.61-1.243-6.036-2.42zM296.63 107.84c5.25 0 9.612 1.693 13.087 5.08 3.474 3.388 5.212 7.644 5.212 12.77 0 4.974-1.763 9.105-5.288 12.393-3.525 3.287-7.963 4.93-13.312 4.93-5.175 0-9.5-1.668-12.975-5.005-3.475-3.338-5.212-7.506-5.212-12.506 0-5.05 1.756-9.256 5.27-12.618 3.51-3.363 7.917-5.045 13.217-5.045zm-.375 6.15c-3.275 0-5.962 1.074-8.062 3.224-2.1 2.15-3.15 4.888-3.15 8.212 0 3.3 1.074 5.994 3.225 8.08 2.15 2.088 4.912 3.132 8.287 3.132 3.35 0 6.094-1.056 8.23-3.17 2.138-2.11 3.207-4.817 3.207-8.117 0-3.274-1.113-5.986-3.337-8.136-2.225-2.15-5.025-3.225-8.4-3.225zM331.25 107.914v4.387c3.05-3.374 6.51-5.06 10.386-5.06 2.15 0 4.15.555 6 1.668 1.85 1.112 3.256 2.637 4.22 4.575.96 1.937 1.443 5.006 1.443 9.206v19.723h-6.826v-19.65c0-3.524-.538-6.042-1.612-7.555-1.075-1.512-2.875-2.27-5.4-2.27-3.225 0-5.962 1.613-8.212 4.838v24.637h-6.975v-34.5h6.974zM363.656 151.488V150.1c1.125-1.075 1.912-2.156 2.362-3.243.45-1.088.712-2.57.787-4.444-2.65-.774-3.975-2.412-3.975-4.912 0-1.35.456-2.517 1.37-3.505.91-.987 1.992-1.48 3.243-1.48 1.524 0 2.775.674 3.75 2.024s1.462 3.074 1.462 5.174c0 2.775-.8 5.212-2.4 7.312-1.6 2.1-3.8 3.586-6.6 4.462zM406.382 107.914v7.912l.375-.6c3.3-5.325 6.6-7.987 9.9-7.987 2.574 0 5.262 1.3 8.062 3.9l-3.6 6c-2.376-2.25-4.576-3.376-6.6-3.376-2.2 0-4.107 1.05-5.72 3.15-1.612 2.1-2.42 4.588-2.42 7.462v18.037h-6.86v-34.5h6.862zM453.075 121.676v14.662c0 1.175.4 1.762 1.2 1.762.825 0 2.112-.612 3.862-1.837v4.162c-1.55 1-2.794 1.68-3.73 2.043-.938.362-1.92.544-2.945.544-2.925 0-4.65-1.15-5.175-3.45-2.9 2.25-5.988 3.375-9.262 3.375-2.4 0-4.4-.793-6-2.38-1.6-1.588-2.4-3.582-2.4-5.982 0-2.175.78-4.118 2.344-5.83 1.56-1.713 3.78-3.07 6.655-4.07l8.737-3v-1.836c0-4.15-2.075-6.226-6.225-6.226-3.725 0-7.35 1.925-10.875 5.775v-7.463c2.65-3.125 6.462-4.687 11.437-4.687 3.724 0 6.71.975 8.96 2.925.75.625 1.426 1.456 2.026 2.494.6 1.036.98 2.074 1.144 3.11.164 1.038.245 3.006.245 5.906zm-6.712 13.912V125.35l-4.575 1.763c-2.325.925-3.97 1.856-4.93 2.794-.964.937-1.445 2.106-1.445 3.506 0 1.425.456 2.587 1.37 3.487.91.9 2.092 1.35 3.543 1.35 2.175 0 4.187-.886 6.037-2.662zM472.92 107.914v4.387c3.05-3.374 6.512-5.06 10.387-5.06 2.15 0 4.15.555 6 1.668 1.85 1.112 3.256 2.637 4.22 4.575.96 1.937 1.443 5.006 1.443 9.206v19.723h-6.825v-19.65c0-3.524-.538-6.042-1.612-7.555-1.075-1.512-2.875-2.27-5.4-2.27-3.225 0-5.962 1.613-8.212 4.838v24.637h-6.974v-34.5h6.974zM529.438 90.027h6.862v52.386h-14.587c-5.1 0-9.168-1.612-12.206-4.837-3.037-3.225-4.556-7.55-4.556-12.975 0-5.074 1.595-9.248 4.782-12.524 3.188-3.275 7.256-4.912 12.206-4.912 2.3 0 4.8.487 7.5 1.462v-18.6zm0 46.536V114.7c-2.125-1.073-4.275-1.61-6.45-1.61-3.4 0-6.106 1.11-8.118 3.336-2.013 2.225-3.02 5.225-3.02 9 0 3.55.876 6.287 2.626 8.212 1.05 1.15 2.162 1.925 3.337 2.325 1.175.4 3.287.6 6.337.6h5.288zM569.156 121.676v14.662c0 1.175.4 1.762 1.2 1.762.825 0 2.112-.612 3.862-1.837v4.162c-1.55 1-2.794 1.68-3.73 2.043-.94.362-1.92.544-2.945.544-2.925 0-4.65-1.15-5.175-3.45-2.9 2.25-5.987 3.375-9.262 3.375-2.4 0-4.4-.793-6-2.38-1.6-1.588-2.4-3.582-2.4-5.982 0-2.175.78-4.118 2.343-5.83 1.56-1.713 3.78-3.07 6.655-4.07l8.737-3v-1.836c0-4.15-2.075-6.226-6.225-6.226-3.725 0-7.35 1.925-10.875 5.775v-7.463c2.65-3.125 6.462-4.687 11.437-4.687 3.724 0 6.71.975 8.96 2.925.75.625 1.426 1.456 2.026 2.494.6 1.036.98 2.074 1.144 3.11.165 1.038.246 3.006.246 5.906zm-6.712 13.912V125.35l-4.575 1.763c-2.326.925-3.97 1.856-4.932 2.794-.963.937-1.444 2.106-1.444 3.506 0 1.425.456 2.587 1.37 3.487.91.9 2.092 1.35 3.542 1.35 2.176 0 4.188-.886 6.038-2.662zM578.95 107.914h29.475l-18.27 28.124h18.27v6.375H578.2l18.134-28.124H578.95v-6.376zM612.895 107.914h29.474l-18.27 28.124h18.27v6.375h-30.225l18.133-28.124h-17.383v-6.376zM666.563 107.84c5.25 0 9.612 1.693 13.087 5.08 3.474 3.388 5.212 7.644 5.212 12.77 0 4.974-1.762 9.105-5.287 12.393-3.525 3.287-7.963 4.93-13.312 4.93-5.175 0-9.5-1.668-12.975-5.005-3.475-3.338-5.212-7.506-5.212-12.506 0-5.05 1.756-9.256 5.27-12.618 3.51-3.363 7.917-5.045 13.217-5.045zm-.375 6.15c-3.275 0-5.962 1.074-8.062 3.224-2.1 2.15-3.15 4.888-3.15 8.212 0 3.3 1.074 5.994 3.225 8.08 2.15 2.088 4.913 3.132 8.288 3.132 3.35 0 6.093-1.056 8.23-3.17 2.138-2.11 3.207-4.817 3.207-8.117 0-3.274-1.112-5.986-3.337-8.136-2.225-2.15-5.025-3.225-8.4-3.225zM690.983 151.488V150.1c1.125-1.075 1.912-2.156 2.362-3.243.45-1.088.712-2.57.787-4.444-2.65-.774-3.975-2.412-3.975-4.912 0-1.35.456-2.517 1.37-3.505.91-.987 1.992-1.48 3.242-1.48 1.523 0 2.774.674 3.75 2.024s1.46 3.074 1.46 5.174c0 2.775-.8 5.212-2.4 7.312-1.598 2.1-3.798 3.586-6.597 4.462zM747.576 107.914h7.657L730.79 160h-7.62l11.712-24.995-13.323-27.09h7.776l9.316 19.486 8.924-19.486zM776.915 107.84c5.25 0 9.612 1.693 13.087 5.08 3.474 3.388 5.212 7.644 5.212 12.77 0 4.974-1.762 9.105-5.287 12.393-3.525 3.287-7.963 4.93-13.312 4.93-5.175 0-9.5-1.668-12.975-5.005-3.475-3.338-5.212-7.506-5.212-12.506 0-5.05 1.756-9.256 5.27-12.618 3.51-3.363 7.916-5.045 13.217-5.045zm-.375 6.15c-3.275 0-5.962 1.074-8.062 3.224-2.1 2.15-3.15 4.888-3.15 8.212 0 3.3 1.074 5.994 3.225 8.08 2.15 2.088 4.912 3.132 8.287 3.132 3.35 0 6.093-1.056 8.23-3.17 2.138-2.11 3.207-4.817 3.207-8.117 0-3.274-1.112-5.986-3.337-8.136-2.226-2.15-5.025-3.225-8.4-3.225zM821.208 107.84c5.25 0 9.612 1.693 13.087 5.08 3.474 3.388 5.212 7.644 5.212 12.77 0 4.974-1.762 9.105-5.287 12.393-3.525 3.287-7.963 4.93-13.312 4.93-5.175 0-9.5-1.668-12.975-5.005-3.475-3.338-5.212-7.506-5.212-12.506 0-5.05 1.757-9.256 5.27-12.618 3.512-3.363 7.918-5.045 13.218-5.045zm-.375 6.15c-3.275 0-5.962 1.074-8.062 3.224-2.1 2.15-3.15 4.888-3.15 8.212 0 3.3 1.075 5.994 3.226 8.08 2.15 2.088 4.912 3.132 8.287 3.132 3.35 0 6.093-1.056 8.23-3.17 2.138-2.11 3.207-4.817 3.207-8.117 0-3.274-1.112-5.986-3.337-8.136-2.225-2.15-5.025-3.225-8.4-3.225zM855.827 107.914v4.387c3.05-3.374 6.512-5.06 10.387-5.06 2.15 0 4.15.555 6 1.668 1.85 1.112 3.256 2.637 4.22 4.575.96 1.937 1.442 5.006 1.442 9.206v19.723h-6.825v-19.65c0-3.524-.537-6.042-1.61-7.555-1.076-1.512-2.876-2.27-5.4-2.27-3.226 0-5.963 1.613-8.213 4.838v24.637h-6.975v-34.5h6.975z"/></g></svg>