<svg xmlns="http://www.w3.org/2000/svg" viewBox="0 0 1000 1000"><path d="M1000 500c0 276.142-223.858 500-500 500S0 776.142 0 500 223.858 0 500 0s500 223.858 500 500zM500 152.466c-191.938 0-347.534 155.596-347.534 347.534S308.062 847.534 500 847.534 847.534 691.938 847.534 500 691.938 152.466 500 152.466z"/><path d="m161.936 337.964-7.264-4.1 3.69-6.537-66.218-37.376-3.69 6.538-7.263-4.1 13.94-24.696c4.988-8.837 17.497-13.75 30.45-6.437 6.658 3.758 10.845 9.633 10.765 17.41 9.12-6.824 17.865-6.198 27.55-.732 16.827 9.498 19.018 22.866 12.732 34.003l-14.69 26.028zm-35.21-48.764c4.716-8.353 2.544-14.687-5.93-19.47-9.927-5.603-15.876-2.416-21.41 7.39l-2.666 4.72 25.906 14.623 4.1-7.263zm42.432 19c4.1-7.262 1.575-15.232-10.168-21.86-11.985-6.765-19.328-3.088-24.11 5.386l-4.99 8.837 33.05 18.654 6.218-11.016zm-10.465-129.787 8.267-4.244 25.472 53.84 27.647 23.922-6.095 7.043-27.647-23.922-56.852-17.574 3.01-8.792 48.735 15.697-22.537-45.972zm40.659-35.913 19.788-15.316c7.255-5.616 21.23-6.412 31.44 6.78 6.977 9.014 9.986 20.397 3.354 30.452l39.505 19.7-4.13 8.292-42.866-21.316-8.245 6.38 25.27 32.65-7.365 5.702L199.35 142.5zm33.743 28.378 10.773-8.338c6.036-5.375 6.675-12.725-.983-22.62-7.402-9.563-14.572-9.287-22.048-3.5l-9.014 6.976 21.272 27.482zm105.4-59.993c5.133 10.488 21.333 42.644-2.14 54.132-23.725 11.61-38.804-20.785-44.06-31.523-6.72-13.735-20.022-43.13 2.203-54.007 23.474-11.488 38.62 20.41 43.997 31.398zm-37.46 18.332c11 22.475 19.732 33.678 31.47 27.934 14.483-7.087 4.337-27.503-2.75-41.987-7.7-15.733-16.674-35.02-31.408-27.81-14.733 7.21-3.3 29.627 2.69 41.864zM359.1 54.306l11.302-2.933 46.23 68.573.2-.34-5.606-19.943-14.316-55.17 9.015-2.34 23.29 89.75-11.303 2.934-46.266-68.708-.2.338 5.677 20.214 14.28 55.034-9.014 2.34-23.29-89.75zm161.477 72.13-9.284-.748 7.444-92.425 20.093 1.618c16.35 1.318 24.793 10.784 23.52 26.58-1.383 17.183-11.853 25.963-24.6 24.937l-13.86-1.118-3.315 41.156zm3.985-49.468 13.036.91c8.59.692 14.115-5.558 15.053-17.197.916-11.362-4.652-16.69-14.63-17.495l-10.668-.86-2.79 34.643zm86.548-30.752 24.042 6.935c8.815 2.544 17.705 13.355 13.08 29.383-3.158 10.952-10.57 20.1-22.603 20.68l7.412 43.516-9.132 1.56-8.09-47.184-10.018-2.89-11.443 39.67-8.95-2.583 25.7-89.087zm-2.995 43.987 13.09 3.776c7.9 1.7 14.21-2.123 17.68-14.143 3.35-11.62-1.102-17.246-10.185-19.866l-10.952-3.158-9.633 33.39zm91.927-12.431 39.955 21.088-3.894 7.376-31.718-16.74-14.275 27.046 26.186 13.82-3.893 7.377-26.186-13.822-17.325 32.825 31.718 16.74-3.893 7.377-39.955-21.088 43.28-82zm86.252 64.215-9.686-7.918 5.28-6.46 26.69 21.82-5.28 6.458-9.793-8.006-48.126 58.87 9.793 8.007-5.28 6.456-26.69-21.82 5.28-6.457 9.685 7.917 48.126-58.87zm66.88 85.973c4.298-5.5 7.45-12.4 2.427-18.528-5.552-6.773-13.238-4.965-19.258-.03-5.805 4.76-6.556 7.352-4.18 24.28 2.066 13.047 2.487 22.77-8.586 31.847-11.288 9.254-25.146 10.55-35.018-1.49-10.4-12.686-5.805-24.184 4.71-34.6l6.872 6.408c-7.162 7.49-11.772 14.145-4.633 22.853 5.112 6.236 12.918 7.206 21.52.155 9.46-7.756 7.66-16.528 5.88-27.47-1.95-12.245-3.005-20.548 7.53-29.185 9.675-7.932 23.564-8.534 31.937 1.68 8.285 10.104 5.137 20.955-2.395 30.186l-6.806-6.106zm47.03 75.495c5.303-4.54 9.76-10.677 6.052-17.68-4.1-7.738-11.992-7.49-18.87-3.847-6.635 3.514-7.884 5.906-8.914 22.97-.56 13.197-2.076 22.81-14.73 29.51-12.897 6.834-26.738 5.355-34.025-8.403-7.68-14.496-.895-24.854 11.476-32.98l5.465 7.645c-8.504 5.92-14.343 11.53-9.072 21.48 3.774 7.126 11.233 9.625 21.06 4.42 10.81-5.727 10.786-14.682 11.21-25.76.518-12.388 1.13-20.736 13.168-27.113 11.056-5.857 24.788-3.692 30.97 7.978 6.117 11.547.88 21.558-8.333 29.112l-5.456-7.332zM217.59 751.13l7.45 8.99-69.62 61.308-6.298-7.6 58.36-50.712-.178-.214-45.97 17.514 25.745-41.92-.178-.213-60.666 47.93-6.21-7.493 73.17-57.026 7.362 8.884-21.776 35.38 38.807-14.83zm34.313 33.952-42.465 52.368c-5.78 7.126-9.804 14.96-.842 22.226 8.962 7.267 15.99 1.69 21.68-5.328l42.466-52.368 7.234 5.866-44.216 54.527c-9.106 11.23-21.99 12.772-32.68 4.104-10.906-8.843-11.558-21.722-2.89-32.41l44.48-54.852 7.233 5.867zm56.837 41.164 8.25 4.324-39.18 74.736 33.737 17.685-3.873 7.388-41.985-22.01 43.05-82.122zm79.203 43.276-19.225-5.58 2.325-8.01 46.993 13.64-2.325 8.01-18.823-5.465-23.52 81.037-8.946-2.596 23.523-81.036zm74.972 14.768-12.468-1.036.69-8.312 34.357 2.856-.69 8.312-12.608-1.048-6.3 75.778 12.607 1.048-.69 8.312-34.357-2.856.69-8.312 12.47 1.036 6.3-75.778zm93.377-10.54 11.602-1.317 13.223 91.814-9.807 1.113-10.515-76.592-.276.032-10.493 48.06-21-44.484-.276.032 6.925 77-9.668 1.098-7.698-92.442 11.463-1.302 17.698 37.583 8.822-40.595zm41.211-8.24 42.984-13.913 2.57 7.935-34.124 11.046 9.42 29.097 28.17-9.12 2.568 7.937-28.17 9.12 11.43 35.312 34.124-11.046 2.57 7.936-42.985 13.914-28.557-88.217zm69.851-16.652-4.095-7.266 21.313-12.013c16.228-9.147 29.822-7.394 48.593 25.91 10.033 17.803 21.76 40.874-2.825 54.73l-21.556 12.15-4.095-7.267 6.538-3.685-37.335-66.245-6.54 3.685zm51.99 57.986 6.66-3.754c9.81-5.53 15.885-12.304-1.316-42.823-17.336-30.76-26.936-28.54-34.082-24.514l-8.598 4.846 37.335 66.244zm28.998-111.264-9.476 8.168-5.446-6.318 26.112-22.51 5.446 6.317-9.582 8.26 49.65 57.595 9.58-8.26 5.447 6.317-26.112 22.51-5.445-6.318 9.476-8.17-49.648-57.593zm92.508-14.248 19.57 24.414-7.612 5.7-58.15-75.095 6.837-8.77 87.03 38.03-3.666 8.776-28.458-13.01-15.552 19.956zm-32.93-41.872-.17.22 27.887 34.77 12.816-16.447-40.533-18.543z" fill="#fff"/><path d="M417.12 215.122h-33.864V201.92h117.668v13.202h-39.03v147.516h1.147c14.35-24.682 35.59-38.457 66.584-38.457 71.175 0 109.058 59.122 109.058 115.373 0 90.69-62.565 125.13-106.762 125.13-28.7 0-55.103-16.072-70.027-44.198l-1.148-.574v44.772c-10.332-2.296-21.238-4.018-32.717-4.592-10.906-1.148-21.812-1.148-32.717-1.148h-12.053V545.74h33.865V215.122zm47.07 271.498c8.61 55.677 52.233 64.287 63.14 64.287 42.474 0 59.12-26.977 59.12-109.632 0-104.466-31.57-105.614-60.843-105.614-16.646 0-42.475 14.35-52.233 33.293-9.184 17.22-11.48 26.977-11.48 64.86 0 16.645-.574 33.865 2.296 52.807z"/><path d="M417.12 452.017h-33.864v-13.202h12.054c10.906 0 21.81 0 32.717-1.148 11.48-.574 22.386-2.296 32.717-4.592v44.77l1.148-.573c14.924-28.125 41.327-44.197 70.027-44.197 44.196 0 106.76 34.44 106.76 125.13 0 56.25-37.883 115.372-109.057 115.372-30.995 0-52.233-13.776-66.583-38.457h-1.148v147.516h39.03v13.202H383.257v-13.202h33.865v-330.62zm44.772 111.928c0 37.884 2.296 47.64 11.48 64.86 9.758 18.943 35.587 33.293 52.233 33.293 29.274 0 60.843-1.148 60.843-105.614 0-82.655-16.646-109.632-59.12-109.632-10.907 0-54.53 8.61-63.14 64.287-2.87 18.94-2.296 36.16-2.296 52.805z" fill="#FF0032"/></svg>