<svg xmlns="http://www.w3.org/2000/svg" viewBox="0 0 1000 590" enable-background="new 0 0 1000 590"><g><ellipse cx="165.206" cy="496.065" rx="93.964" ry="93.935" opacity=".5" fill="#E6DCD2"/><g><g><path d="M927.352 210.115c-45.384 29.43-94.67 44.763-154.09 50.442-59.068 5.842-128.484 1.612-206.05-4.164-152.937-12.76-343.245-27.062-469.657 39.174C58.683 205.383 26.005 113.517 0 20.087c136.08-44.146 318.96-6.845 473.24 28.767 157.214 36.34 283.783 67.52 380.98 45.918 29.918 39.957 54.118 78.138 73.132 115.343z"/><path d="M117.946 105.113c-1.583-4.625-3.152-9.253-4.705-13.882-5.064-15.116-12.27-20.85-18.09-19.887-9.058 1.524-9.812 8.7-5.325 22.274 10.178 30.683 21.025 61.26 32.535 91.72 5.116 13.506 10.433 19.15 19.347 16.927 8.06-1.965 8.31-8.912 3.9-20.51-2.713-7.152-5.39-14.308-8.036-21.47 7.54-1.497 15.183-2.838 22.91-4.024 2.504 6.746 5.038 13.49 7.604 20.228 9.496 24.87 6.272 46.764-15.83 52.5-23.004 6.2-41.308-10.75-51.144-36.676-11.85-31.326-22.99-62.8-33.39-94.41-8.526-25.98-4.696-50.044 18.873-53.58 22.588-3.18 40.976 18.257 49.92 44.52 1.47 4.32 2.947 8.642 4.443 12.96-7.758.95-15.428 2.05-23.01 3.31z" fill="#E6DCD2"/><path d="M215.98 214.058c-7.64 1.02-15.205 2.17-22.69 3.46-15.055-59.65-27.55-118.673-37.9-176.726 9.87-.32 19.834-.424 29.87-.332 27.683 56.833 57.562 112.93 89.167 168.3-7.922.412-15.804.933-23.63 1.575-6.52-12.408-12.948-24.845-19.28-37.315-8.876.602-17.68 1.36-26.402 2.286 3.512 12.893 7.132 25.813 10.865 38.752zm-17.215-64.882c6.44-.56 12.92-1.028 19.442-1.41-12.437-24.22-24.502-48.568-36.167-73.043-.13.004-.26.01-.39.012 5.314 24.678 11.012 49.5 17.115 74.44z" fill="#E6DCD2"/><path d="M290.33 208.082c-22.75-55.36-43.797-110.79-63.07-166.158 11.784.695 23.626 1.62 35.5 2.74 30.66 3.067 49.673 18.207 62.852 51.885 13.276 33.84 4.26 45.418-26.654 44.19-3.628-.14-7.255-.263-10.875-.37 8.755 22.402 17.778 44.805 27.064 67.204-8.3.065-16.577.23-24.818.508zm-11.202-90.866c3.215.135 6.44.284 9.66.448 16.337.85 19.17-4.278 11.808-23.463-7.32-19.132-14.4-25.294-30.67-26.642-3.21-.255-6.418-.497-9.622-.723 6.124 16.786 12.396 33.582 18.824 50.38z" fill="#E6DCD2"/><path d="M348.468 77.55c-8.034-1.11-16.078-2.166-24.127-3.153-3.037-7.873-6.047-15.74-9.03-23.608 24.34 3.332 48.637 7.285 72.67 11.58 3.067 7.528 6.153 15.06 9.257 22.594-7.95-1.304-15.922-2.57-23.92-3.792 17.53 43.467 35.774 87.018 54.704 130.6-8.283-.606-16.594-1.162-24.92-1.66-19.008-44.232-37.227-88.44-54.632-132.56z" fill="#E6DCD2"/><path d="M405.958 65.65c8.14 1.516 16.247 3.06 24.308 4.63 15.697 36.982 31.73 74.016 48.09 111.074 4.77 10.823 11.26 16.573 20.005 17.538 8.742.967 10.43-3.782 5.677-14.394-16.302-36.406-32.36-72.8-48.178-109.154 7.963 1.6 15.88 3.213 23.737 4.82 15.77 35.434 31.695 70.883 47.768 106.34 11.04 24.342 3.638 36.374-19.214 34.233-22.87-2.138-43.488-17.478-54.675-43.267-16.243-37.315-32.085-74.598-47.517-111.82z" fill="#E6DCD2"/><path d="M588.693 226.82c-7.545-.722-15.166-1.472-22.86-2.238-21.446-46.602-42.763-93.215-63.952-139.828 10.873 2.247 21.623 4.476 32.242 6.66 25.393 5.31 43.07 18.57 56.67 46.634 10.2 21.157 6.338 28.632.48 31.12 15.827 21.056 31.498 41.732 46.925 62.003-7.288-.562-14.662-1.177-22.127-1.83-13.88-18.945-27.916-38.182-42.038-57.7-2.738-.03-7.407-.51-11.46-1.084 8.71 18.76 17.418 37.515 26.12 56.265zm-35.128-75.66c2.705.424 5.402.847 8.088 1.266 12.254 1.893 14.52-2.093 6.952-18.095-7.6-16.013-14.294-21.51-26.56-23.858-2.688-.512-5.388-1.026-8.093-1.543 6.537 14.08 13.08 28.155 19.613 42.23z" fill="#E6DCD2"/><path d="M652.994 232.254c-20.452-43.076-41.365-86.25-62.75-129.572 19.274 3.726 37.997 7.142 56.13 10.112 3.184 6.12 6.35 12.235 9.495 18.344-11.34-1.626-22.912-3.432-34.715-5.385 5.457 10.92 10.875 21.826 16.25 32.723 9.043 1.198 17.94 2.306 26.7 3.306 3.088 6.146 6.16 12.288 9.212 18.426-8.716-.817-17.582-1.742-26.59-2.76 6.072 12.404 12.09 24.798 18.057 37.18 12.373.92 24.458 1.647 36.246 2.142 2.958 6.05 5.896 12.092 8.816 18.13-18.228-.353-37.19-1.29-56.852-2.646z" fill="#E6DCD2"/></g><g><path d="M384.553 366.136c-83.437 7.505-164.11 26.153-224.117 63.472-22.462-44.26-43.444-88.946-62.88-134.04 64.816-33.355 147.63-47.34 232.98-49.61 17.17 40.107 35.184 80.182 54.017 120.178z" fill="#E6DCD2"/><path d="M203.765 296.66c-4.007 1.017-7.98 2.08-11.92 3.188-2.12-4.85-4.222-9.7-6.31-14.557 12-3.276 24.31-6.135 36.87-8.605 2.046 4.77 4.103 9.536 6.178 14.3-4.128.844-8.228 1.73-12.298 2.657 11.867 27.24 24.223 54.404 37.06 81.48-4.106 1.115-8.177 2.275-12.21 3.48-12.955-27.22-25.413-54.54-37.37-81.943z"/><path d="M273.764 370c-14.88-31.55-29.134-63.203-42.738-94.943 4.316-.783 8.66-1.52 13.028-2.214 5.506 12.844 11.12 25.673 16.832 38.49 4.61-.825 9.254-1.604 13.92-2.335-5.673-12.73-11.245-25.476-16.72-38.23 4.418-.605 8.858-1.17 13.318-1.694 13.372 31.115 27.324 62.175 41.842 93.156-4.367.723-8.717 1.485-13.04 2.286-6.485-13.814-12.855-27.646-19.107-41.493-4.654.762-9.28 1.572-13.876 2.428 6.298 13.94 12.722 27.86 19.262 41.762-4.27.887-8.51 1.815-12.722 2.788z"/><path d="M325.977 360.238c-14.412-30.796-28.278-61.663-41.584-92.577 12.036-1.202 24.2-2.134 36.44-2.827 1.967 4.54 3.943 9.08 5.93 13.62-7.65.487-15.274 1.07-22.853 1.75 3.454 7.906 6.94 15.81 10.464 23.71 5.805-.594 11.636-1.128 17.488-1.606 2.03 4.547 4.07 9.094 6.126 13.64-5.837.517-11.65 1.09-17.44 1.724 4.062 9 8.17 17.997 12.324 26.988 7.984-.984 16.02-1.856 24.09-2.624 2.09 4.527 4.19 9.05 6.304 13.576-12.538 1.282-24.988 2.812-37.29 4.628z"/></g><g><path d="M1000 256.405c-63.723 94.225-124.772 139.165-222.135 160.14-94.08 22.192-227.21 15.094-357.646 34.154-34.072-67.924-65.786-136.2-95.018-204.574 136.694-4.923 276.52 18.23 383.39 17.186 109.317.066 187.293-20.358 259.195-83.506 14.777 26.312 25.446 51.802 32.213 76.6z" fill="#E6DCD2"/><path d="M459.566 272.65c22.968 51.12 46.845 102.25 71.602 153.293-6.9.392-13.833.81-20.782 1.26-19.664-40.383-38.726-80.824-57.158-121.278-.134 0-.268-.002-.4-.003 10.966 40.403 22.73 81.376 35.49 122.826-3.88.294-7.763.6-11.65.922-27.425-40.57-54.467-81.66-80.86-123.234-.136.005-.266.006-.402.01 18.895 41.798 38.61 83.556 59.115 125.22-6.993.685-13.983 1.426-20.954 2.228-26.647-53.917-51.885-108.018-75.652-162.175 10.952-.308 21.938-.455 32.924-.47 19.675 31.09 39.714 61.902 60 92.42.134-.007.265-.012.397-.017-8.654-30.99-16.768-61.67-24.432-92.01 10.96.244 21.886.59 32.763 1.008z"/><path d="M497.814 310.247c-9.87-21.437-5.647-38.324 19.795-36.772 25.374 1.576 44.243 18.803 53.648 39.03 11.428 24.69 22.945 49.38 34.55 74.06 9.46 20.23 6.65 37.296-17.355 38.565-24.094 1.267-44.07-15.507-54.224-36.943-12.344-25.97-24.485-51.953-36.416-77.94zm59.857 76.746c5.278 11.135 10.883 16.396 20.252 16.078 9.353-.316 9.793-5.677 4.64-16.603-11.665-24.71-23.21-49.426-34.625-74.146-5.058-10.93-10.53-16.34-20.24-16.766-9.72-.423-10.424 4.822-5.286 15.968 11.593 25.16 23.347 50.32 35.26 75.47z"/><path d="M621.37 281.335c7.308.348 14.534.664 21.67.936 11.898 44.17 23.91 89.356 36.514 135.567-6.976.54-14.05 1.034-21.217 1.496-30.45-45.89-61.672-92.954-93.077-141.08 7.69.455 15.31.902 22.858 1.33 20.544 32.73 40.96 64.996 61.068 96.78l.35-.012c-9.583-32.092-18.924-63.764-28.167-95.015z"/><path d="M717.97 414.257c-19.852-43.79-40.01-87.607-60.482-131.49 19.093.572 37.515.78 55.222.467 2.892 6.175 5.764 12.35 8.623 18.522-10.972.448-22.23.687-33.763.754 5.133 11.054 10.235 22.103 15.308 33.148 8.704-.374 17.242-.855 25.604-1.46 2.84 6.22 5.662 12.442 8.47 18.66-8.248.8-16.674 1.47-25.27 2.034 5.742 12.584 11.446 25.164 17.11 37.74 11.6-1.296 22.855-2.814 33.763-4.6 2.702 6.136 5.387 12.273 8.058 18.407-16.696 3.215-34.252 5.758-52.642 7.817z"/><path d="M802.213 275.55c16.84 36.128 32.3 72.04 46.434 107.86-4.346 1.856-8.763 3.623-13.258 5.304-11.59-28.763-23.92-57.573-37.012-86.49-.09.017-.185.036-.277.052 7.945 29.875 15.467 60.35 22.798 91.48-2.59.835-5.2 1.644-7.834 2.43-17.383-28.52-36.036-57.936-55.74-88.244l-.298.03c14.142 30.874 27.717 61.67 40.74 92.435-4.917 1.252-9.916 2.432-14.997 3.54-17.34-40.305-35.464-80.656-54.406-121.136 8.484-.31 16.8-.76 24.943-1.36 15.09 22.54 29.575 44.545 43.358 66.01l.274-.06c-5.682-23.184-11.503-46.002-17.562-68.482 7.776-.952 15.386-2.07 22.835-3.368z"/><path d="M862.644 376.99c-13.364-34.7-28.174-69.508-44.49-104.552 14.715-3.193 28.79-7.175 42.336-12.04 2.22 4.766 4.394 9.526 6.53 14.28-8.342 3.357-16.893 6.362-25.677 9.036 3.935 8.71 7.762 17.4 11.48 26.08 6.548-2.45 12.958-5.107 19.245-7.974 2.03 4.806 4.026 9.603 5.98 14.398-6.155 3.106-12.434 5.996-18.852 8.68 4.098 9.877 8.06 19.736 11.886 29.583 8.52-4.36 16.77-9.13 24.803-14.34 1.745 4.68 3.45 9.358 5.112 14.033-12.195 8.652-24.92 16.22-38.353 22.816z"/><path d="M910.62 347.038c-10.543-30.29-22.957-60.77-37.31-91.574 4.58-1.883 9.1-3.875 13.57-5.978 13.792 14.186 26.446 27.175 37.894 38.91l.21-.164c-6.14-15.807-12.975-31.714-20.528-47.746 4.226-2.343 8.416-4.8 12.566-7.364 12.747 26.823 23.222 53.245 31.51 79.37-3.49 3.674-7 7.23-10.537 10.673-10.734-12.04-22.924-25.53-36.492-40.388-.073.045-.147.09-.223.133 7.706 18.377 14.63 36.637 20.784 54.81-3.77 3.225-7.583 6.33-11.444 9.318z"/><path d="M943.77 229.636c-4.276 3.382-8.574 6.628-12.905 9.74-1.76-3.87-3.57-7.748-5.43-11.637 13.354-8.842 26.386-18.89 39.364-30.214 1.678 3.268 3.296 6.528 4.86 9.774-4.225 3.944-8.455 7.75-12.693 11.413 9.215 19.648 16.634 38.968 22.308 58.003-3.964 5.03-7.918 9.9-11.876 14.61-6.177-20.286-14.03-40.837-23.63-61.69z"/></g><g><path d="M758.41 223.2c-7.784.31-10.337-2.05-13.33-8.062-9.763-19.54-19.845-39.15-30.254-58.842-4.74-8.988-3.316-16.375 5.74-15.65 7.85.59 15.564 1.052 23.15 1.367 5.007.202 7.867-2.46 6.587-7.5-1.03-4.04 1.1-7.614 5.447-7.467 7.476.243 14.826.333 22.05.26 4.205-.026 10.403 3.393 13.87 7.1 4.35 4.668 9.97 6.93 14.507 6.533 6.877-.59 13.64-1.345 20.3-2.28 7.674-1.038 16.18 4.27 20.42 11.167 9.35 15.242 18.098 30.326 26.263 45.284 2.5 4.586 2.395 6.84-4 9.06" fill="none" stroke="#E6DCD2" stroke-width="7" stroke-linecap="round" stroke-linejoin="round" stroke-miterlimit="10"/><path d="M786.44 161.313c12.108-.525 27.148 8.13 33.654 19.87 6.496 11.723 2.35 23.235-9.37 25.03-11.72 1.81-27.044-7.794-33.927-20.785-6.88-13.007-2.456-23.57 9.644-24.115m-8.552-15.08c-20.342.226-27.923 17.326-16.243 39.72 11.7 22.342 37.438 38.856 56.72 35.126 19.29-3.708 26.098-23.44 15.49-42.262-10.658-18.86-35.605-32.752-55.967-32.585z" fill="#E6DCD2"/><path d="M782.193 153.78c16.206-.415 36.23 10.92 44.82 26.28 8.567 15.336 3.08 30.915-12.442 33.59-15.513 2.695-36.04-10.32-45.303-27.908-9.25-17.616-3.27-31.508 12.926-31.962m-4.305-7.547c-20.342.226-27.923 17.326-16.243 39.72 11.7 22.342 37.438 38.856 56.72 35.126 19.29-3.708 26.098-23.44 15.49-42.262-10.658-18.86-35.605-32.752-55.967-32.585z"/><path d="M833.854 178.818c10.61 18.822 3.8 38.553-15.49 42.26-19.28 3.73-45.02-12.782-56.72-35.126-11.68-22.393-4.1-39.492 16.243-39.72 20.363-.166 45.31 13.724 55.967 32.586z" fill="none" stroke="#E6DCD2" stroke-width="5" stroke-linecap="round" stroke-linejoin="round" stroke-miterlimit="10"/><path d="M806.008 183.06c2.215 4.06.807 7.78-3.152 8.24-3.96.46-9.02-2.628-11.276-6.83-2.258-4.2-.822-7.816 3.182-8.136 4.01-.32 9.033 2.664 11.246 6.727zM786.08 184.882c-3.975-7.45-1.443-13.706 5.588-14.174 7.036-.464 15.815 4.688 19.66 11.704.96 1.755 1.524 3.47 1.73 5.076.4-2.65-.193-5.736-1.964-8.942-4.42-7.99-14.49-13.906-22.552-13.473-8.06.443-10.956 7.53-6.37 16.082 1.823 3.398 4.564 6.46 7.68 8.845-1.49-1.542-2.786-3.272-3.773-5.118z" fill="#E6DCD2"/></g></g><g fill-rule="evenodd" clip-rule="evenodd"><path d="M199.123 518.93c-.252.028-.442-.014-.632.27l-.02.146c.073.095.127.208.244.236l.293.042c.17-.143.27-.282.276-.455l-.068-.188c-.03-.018-.06-.036-.092-.053zM198.577 517.227l-.316.065c-.542.114-1.102.222-1.672.318l.09.25c.683-.076 1.366-.147 2.048-.222l-.15-.41zM199.663 523.433l-.105-.093-.99-.288.315.864c.34-.103.672-.215.755-.276.044-.115.03-.116.025-.207zM186.352 451.425l1.186-.68 1.3-.552c2.71-1.47 5.415-2.77 8.158-4.184 1.193-.616 3.275-1.305 4.246-2.41.87-.99-.537-3.624-.874-4.475-1.22-3.078-2.238-6.257-3.61-9.296-.602-1.33-.63-2.637-2.39-3.667-1.627-.122-2.707.576-4.123 1.208-1.886.843-3.824 1.638-5.73 2.506-.857.39-1.74.725-2.616 1.126l-.872.355c-.54.442.138.923-.45 1.33-.422-.164-.348-.76-.828-.765l-6.675 2.88c-.445.355-.246.974-.658 1.304-.375.3-.82-.18-1.29-.237-.695-.084-1.433 1.007-1.35 1.73.132 1.128 1.285 2.247 2.024 3.2l3.618 4.726c.552.695 1.12 1.18 1.624 1.86.342.524.683 1.05 1.025 1.576.387.53.795.93 1.13 1.447.41.628.578 1.28 1.48 1.615.708.263.32.99 1.514 1.002 1.075.01 2.167-.725 3.116-1.22l1.046-.382zm.58-21.392l.054.126-.055.094-.122-.007c-.01-.017-.023-.034-.034-.05.052-.134.047-.12.158-.164zM187.622 477.03c1.693-.727 3.423-1.387 5.137-2.084.56-.23 1.13-.468 1.703-.7.355-.142.723-.145 1.06-.404l.627-.813c.43-.028.88.146 1.288.076l.584-.298c.738-.32 1.525-.616 2.285-.936 1.893-.797 3.81-1.576 5.732-2.345.897-.36 1.794-.734 2.7-1.108.478-.198 1.135-.317 1.525-.773.246-.288.508-.832.547-1.113.11-.783-.41-1.686-.605-2.414-.15-.563-.3-1.127-.452-1.69l-.77-2.954-.345-.994c-.14-.894-.4-1.84-.737-2.68-.6-1.49-.76-3.145-1.38-4.642-.607-1.46-.314-3.455-2.238-4.532l-.72-.13c-1.675.043-3.328 1.31-4.826 2.042-2.275 1.11-4.494 2.337-6.794 3.415-.82.385-1.63.817-2.474 1.208l-1.134.425-3.516 1.75c-.46.358-.906.823-.9 1.45.01.99.84 1.69 1.347 2.557l2.797 4.22c.605.82 1.278 1.593 1.747 2.47.33.615.513 1.71.407 2.427-.073.502-.434.904-.387 1.332.054.053.11.105.163.158l.024.014c.2-.205.26-.474.446-.663.195 0 .266.07.38.22l-.02.147c-.242.346-.413.23-.697.328l-.28.316c-.24.202-.588.2-.85.43-.83.725-1.28 1.82-1.973 2.704l-.35.718c-.23.274-.476.39-.663.76-.41.815-1.717 2.057-1.295 2.684.488.725 2.4-.364 2.902-.58zm15.033-8.95l.095.056.003.16-.103.068-.11-.03-.025-.175c.046-.028.093-.054.14-.08zm-5.928 1.31l.174-.026c.12.115.168.2.228.322l-.035.17c-.106.057-.112.092-.24.084-.267-.03-.272-.326-.126-.55zm-7.59-11.688l-.18-.072c-.1-.28-.15-.733.2-1.06.244-.17.458.014.76.058l.223.16.05.19c-.048.24-.838.738-1.054.724zm5.353 9.794c.18-.15.302-.093.522-.08.173.107.22.18.302.3-.02.17-.02.347-.2.457-.23.17-.565.08-.79-.17-.014-.14-.024-.373.166-.507zm-1.97-3.235c.28.162.285.267.365.466-.183.684-.66.753-1.142.77-.207-.153-.224-.28-.267-.472.183-.542.662-.703 1.043-.763zM191.176 498.68c2.036-.91 4.448-1.25 6.484-2.164.346-.155.465-.615.806-.9l.72-.315c.325-.127.527.198.92.278.31.063.744-.118 1.034-.197 1.03-.28 2.064-.728 3.06-1.123l.91-.204c1.307-.553 2.652-.906 3.966-1.427 1.725-.685 3.558-1.115 5.292-1.804.92-.366 1.96-.606 2.768-1.388.384-.372.21-.825.193-1.16-.06-1.192-.236-2.335-.656-3.426-.65-1.69-.808-3.575-1.43-5.272-.285-.782-.387-1.652-.703-2.408l-.458-.964-.027-.778-.354-.87c-.217-.944-.677-3.533-1.683-4.118-1.296-.098-2.35.55-3.485 1.037-2.068.886-4.155 1.694-6.217 2.636l-3.494 1.382c-5.983 2.62-12.028 5.034-17.984 7.69-1.515.674-2.978 1.32-4.492 2.01-.874.4-1.888.64-2.74 1.12-1.196.674-1.593 1.65-1.056 2.82.404.878 1.423 1.966 2.035 2.794 1.49 2.09 2.98 4.178 4.472 6.267.56.878 1.508 2.602 2.944 3.034 1.195.36 2.375-.19 3.383-.587 1.884-.744 3.933-1.128 5.793-1.96zm8.945-8.462c-.08-.005-.107-.005-.217-.062-.01-.226.058-.362.27-.415l.082.08.058.065-.192.333zm8.135-1.56c.098-.074 1.108-.225 1.283-.244l.13.106c.003.11.006.153-.08.303-.437.087-.886.454-1.333.438l-.143-.08-.05-.19c.065-.11.13-.22.193-.332zm-3.144-.323c.01.228-.067.448-.27.637-.054 0-.108.002-.16.003l-.24-.137c-.145-.19-.086-.598.192-.716.055-.02.11-.043.164-.064l.315.277zm-.892-9.664c.135-.09.213-.045.372-.038.323.347.19 1.426-.49 1.178-.127-.254-.332-.886.118-1.14zm-4.003 9.188c.41-.43-.027-.763.292-1.165.233-.293.487-.157.755-.263.262-.104.418-.34.66-.54.51-.42.936-.095 1.59-.004.365.188.476.33.43.63-.057.06-.114.124-.17.186-.405.005-.927-.442-1.318-.41-.29.31-.633.68-.87.957l-.557.853-.872.576c-.29.188-.796.505-1.112.056-.674-.958.96-.656 1.172-.878zm-1.798 5.093c.132-.035.227-.032.372-.038l.128.106c.008.107.027.134-.03.27l-.088.043c-.154.082-.317.03-.473-.113l.09-.266zm-2.54-15.22c.088.096.08.063.05.19l-.108-.032-.025-.014.083-.143zm-.797 15.835c.07.246-.02.388-.23.565-.155.01-.228.03-.427-.087l-.06-.225.045-.133c.2-.152.326-.156.553-.19l.12.07zm-.972-5.294c.11-.01.223-.02.334-.028l.14.144c.017.3-.316.78-.617.407-.07-.107-.048-.167-.057-.287l.2-.235zm-1.796 4.65c.164-.02.277 0 .467.016l.277.288-.007.123c-.15.26-.516.328-.716.03l-.108-.252.086-.205zm-13.665-7.54l-.232-.04-.036-.21c.015-.2.165-.25.287-.28l.197.21c-.05.144-.12.227-.217.32zm2.42 1.08l.137-.017.115.13c.033.073.028.093.025.174l-.093.105c-.082.044-.08.033-.174.027-.087-.12-.093-.162-.118-.29l.108-.13zm-.685.143c-.03.193-.273.358-.428.356-.028-.007-.057-.013-.085-.018-.113-.192-.345-1.087-.216-1.33.157-.052.25-.065.423-.074l.258.212c.01.262.142.6.047.853zm.78 2.388c-.127.085-.205.05-.35.054-.08-.08-.162-.158-.243-.236-.034-.42.335-1.11.732-1.324l.248.175c.205.253-.018 1.103-.39 1.33zm7.32-.537c-.02.02-.042.04-.064.058l-.085-.016-.058-.065.055-.096c.02 0 .04.002.06.004l.096.055-.003.06zm-.178-2.548c.244-.142.31-.31.564-.373l.13.106c.042.496-.278 1.587-.926 1.658-.5-.148-.75-.748-.468-1.223l.7-.168zm-4.72 2.294c-.124.013-.25.036-.312-.118-.078-.133-.033-.24.087-.426l.224-.06c.063.036.127.072.19.11l.01.258-.2.235zm1.412-4.587c.243-.24.063-.52.276-.698.266-.14.567.182.885.225l.662-.158.213.124c.164.547.618 1.256.553 1.844-.117.162-.174.147-.308.203-.847-.22-.73-.74-.545-1.363l-.23-.26-.11-.03c-.204.105-.36.358-.572.495-.357.23-.886.347-1.303.39-.555-.406.34-.635.48-.772zM220.848 504.378c-.077-.54 0-1.15-.37-1.61-.387.05-.783.678-1.082.994-.12.01-.136.037-.293-.042.004-.247.3-.555.36-.84.12-.57-.123-1.79-1.135-1.61-.27.05-.36.288-.67.282-.464-.295-.706-.813-1.023-1.195-.016-.158-.038-.325.115-.474l.188-.05c.708.12.166 1.127 1.245 1.195.603.017.763-1.628 1.12-2.052.157-.184.483-.302.57-.656l-.276-1.335c-.104-.717-.21-1.434-.313-2.15l-.27-.41c-.21-.538.087-.943-.67-1.37-1.563-.12-2.896.398-4.278.928-1.686.647-3.467 1.03-5.162 1.69-.938.363-1.98.538-2.922.885-2.633.967-5.35 1.61-7.956 2.68l-1.94.5c-1.122.39-2.246.78-3.37 1.168l-1.89.528c-1.392.57-2.85.88-4.247 1.423-.92.357-2.003.418-2.775 1.29-.86.97-.31 2.148-.113 2.888.53 1.977.91 4.087 1.644 6 .304.792.177 1.757.574 2.523.506.98 1.33 1.445 2.44 1.378l1.025-.235c2-.28 3.992-.705 5.99-.924 1.537-.168 3.044-.613 4.568-.824 3.647-.505 7.28-1.093 10.903-1.74 1.187-.213 2.38-.42 3.582-.6l.516-.18c1.936-.257 4.08-.36 5.85-1.23.163-.063.327-.127.49-.192.43-.364.313-1.56.304-1.953-.04-1.577-.512-3.14-.73-4.68zm-2.54-6.263l.12.07c.027.164.012.294-.14.46-.106.003-.134.012-.278-.067-.02-.247.086-.36.3-.463zm-32.116 13.76c-.017.01-.034.023-.05.034-.294-.26-.472-.575-.45-.927l.106-.13.126-.053c.394.243.347.717.268 1.075zm1.29-.145l-.015.024-.1.006-.057-.065.12-.153.07.04c-.005.05-.012.1-.02.148zm.447-1.107l-.22-.062-.05-.187c.016-.044.03-.09.046-.133.055-.02.11-.043.164-.064l.12.07.056.286-.117.09zm5.79-2.5l-.2.073-.243-.076c-.01-.017-.023-.034-.034-.05-.004-.108-.013-.136.066-.28l.013-.024c.066-.004.132-.01.198-.013l.225.16c.003.09.018.092-.025.21zm2.153-1.204c-.086.05-.113.04-.212.036l-.128-.106c-.126-.177-.09-.41.065-.66l.263-.072.234.2c.014.178.01.475-.22.6zm1.795-.362l-.242-.076c-.225-.745-.3-1.205-1.215-1.686-.207-.667.428-1.015.984-.99.674.407.287 1.067.357 1.636.045.354.303.563.238.963l-.12.153zm17.78-4.313c-.044.202-.393.298-.57.274l-.167-.097c-.05-.086-.04-.113-.035-.212.108-.198.204-.292.363-.298l.245.015.187.17-.02.148zm1.795 1.068l-.2.074-.17-.035c-.288-.184-.66-1.485-.68-1.79.12-.167.195-.177.344-.214l.306.24.113.573c.108.272.43.47.446.767l-.16.386zM168.49 460.33c-.14.484-.57.444-.798.777.473.976 2.528.503 2.535-.38.02-.304-.614-.716-.817-.947 0-.738.854-.583 1.067-1.353.03-.33-.248-1.47-.612-1.687-.02 0-.04-.002-.06-.004-.567.28-.164.867-.587 1.345l-.63.432c-.6.626.052 1.3-.098 1.817zM175.642 466.46c.193-.307.218-.553.058-.76l-.153-.12c-.274.008-.41-.03-.648.133-.14.195-.213.407-.086.586.127.372.63.303.828.16zM172.106 465.276c.113.215.242.294.496.35.31-.14.51-.484.818-.703l.612-.346c.13-.145.12-.298.15-.422-.096-.183-.22-.3-.503-.45-.4.033-.767.142-1.198.04-.624.347-.304 1.015-.376 1.53zM171.977 463.136l.085.017.148-.2-.05-.19-.13-.105-.187.05c-.104.125-.125.203-.032.33.056.034.11.066.167.098zM212.386 414.865l-.868-.494c-.803-.42-1.607-.842-2.41-1.264-1.762-.87-3.524-1.738-5.285-2.606l-4.39-1.9c-3.373-1.114-6.684-2.385-9.973-3.287-.347-.093-.695-.184-1.042-.273-.307-.077-.614-.15-.92-.218-6.778-1.516-13.36-2.412-19.742-2.568-.597-.015-1.16-.09-1.738-.12l-.708-.003c-.473.04-.947.077-1.42.115l-1.622-.047c-.46.048-.77.67-1.214.73-.402.05-.798-.546-1.207-.603-.08-.01-.162-.018-.244-.022-.343.02-.685.043-1.028.068-.38.057-.753.13-1.105.17-.295 0-.59-.003-.885-.006-.368.034-.735.07-1.103.11-7.945.87-15.78 2.614-23.163 5.545-2.912 1.155-5.897 2.304-8.756 3.68l-2.738 1.5c-.524.258-1.082.52-1.635.792-.642.36-1.28.728-1.916 1.104l-.293.203c-.095.053-.217.115-.352.182-.498.3-.993.605-1.486.914-.173.333.07.764-.27 1.02-.245.157-.796-.092-1.24-.05-.52.34-1.038.688-1.552 1.04l-.504.378c-.93.63-1.87 1.328-2.82 2.025-.136.1-.28.2-.43.302-.66.503-1.316 1.014-1.966 1.536-.314.47.123.904-.295 1.34-.06.03-.118.06-.178.088l-.694-.337c-.07-.007-.235.085-.442.228-.49.412-.976.83-1.46 1.252-.052.06-.092.11-.116.148.09.3.646.554.524.906-.613.382-.97-.38-1.458-.112-.17.187-.343.374-.514.56-.613.534-1.245 1.085-1.874 1.667-.588.57-1.17 1.147-1.745 1.734-.052.056-.104.112-.155.17-.38.42-.312 1.03-.634 1.317l-.547.29-.453.785c-.195.187-.46.113-.666.22l-.85.777-.072.08c-.358.468-.72 1.523-.945 1.717l-.417.17-.415.555-.63.404-.456.567-.087.128c-.108.126-.215.255-.32.387-.13.162-.256.325-.383.49-.586.768-1.16 1.596-1.78 2.368-.12.164-.24.328-.357.493-.26.407-.522.814-.783 1.22-.17.21-.36.447-.558.7-.742 1.088-1.464 2.198-2.166 3.327.27.565.95-.325 1.427-.297.372.24.355.776-.073 1.006-.294.157-.615.05-.94.09l-.933.352c-.626.353-.734 1.34-1.198 1.912l-.81 1.253c-.695 1.263-1.36 2.536-1.99 3.817-.284.7-.648 1.4-1.008 2.106-.406.876-.797 1.756-1.173 2.64-.556 1.433-1.134 2.814-1.67 4.197-.394 1.064-.768 2.132-1.12 3.203-.065.318-.014.637-.095.92l-.41.652c0 .003 0 .005-.002.008-.705 2.272-1.32 4.56-1.844 6.857-.01.277.046.55-.01.8-.082.372-.256.683-.384 1.002-.082.393-.16.787-.238 1.18-.04.38-.07.768-.13 1.098-.14.768-.302 1.505-.455 2.237-.166 1.056-.313 2.113-.442 3.17l.048.296c-.07.39-.143.78-.214 1.172-.152 1.435-.27 2.872-.355 4.308l.02 1.13c-.024.533-.1 1.02-.14 1.522-.01.266-.016.533-.022.8.02.414.096.844.108 1.236-.044.24-.088.48-.13.718v.342c.136 2.182.133 4.437.32 6.578.11 1.262.118 2.47.268 3.712.166 1.38.456 2.763.624 4.14.046.377.12 1.095.233 1.8.044.245.088.49.134.734.098.464.215.858.353 1.057.53.256.73-.277 1.184-.238.122.015.177.097.25.175-.005.235-.258.915-.44 1.144-.217.276-.732.396-.717.858l.404 1.663c.09.205.306.377.32.6l-.082.572c.03.123.062.246.093.368.117.324.294.646.34.977l.293 1.37.17.592c.232.318.72.505.746.894.03.19-.196.55-.25.752l.022.07c.157.25.453.268.703.5.07.097.08.12.048.25-.05.157-.33.27-.35.496l.32.82c.017.112.04.227.066.344.288.845.588 1.686.9 2.522.16.376.315.736.446 1.06.355.88.69 1.787 1.04 2.685.697 1.65 1.44 3.28 2.23 4.888.98 1.922 2.042 3.81 3.14 5.724 2.616 4.56 5.786 8.926 9.26 13.293.62.736 1.252 1.464 1.896 2.183 1.248 1.332 2.575 2.618 3.785 3.982.44.436.885.868 1.335 1.296.49.413.997.81 1.502 1.262l.818.876.18.16.705.52c1.137 1.015 2.467 2.09 3.628 3.09.1.08.2.157.3.235l1.025.678c.55.462 1.17.935 1.784 1.424.523.376 1.052.748 1.585 1.115.415.252.825.5 1.182.788l2.518 1.518 1.59.982c.302.245.78.557 1.302.863.18.104.362.207.544.31.592.326 1.177.616 1.57.768.68.38 1.358.763 2.037 1.144l2.515 1.263.03.015 4.556 2.008.15.06c6.12 2.246 12.05 4.222 17.78 5.168.88.145 1.656.356 2.463.532.963.157 1.928.3 2.893.425 1.38.156 2.79.277 4.107.347.71.038 1.348.262 2.03.22.21-.218.37-.745.57-.88.106-.07.164-.065.288-.056.515.312.17.855.724 1.054h.002l.343.016c.144-.026.284-.078.422-.08.228.04.456.08.685.122.045 0 .09.003.134.004.47-.01 1.01-.03 1.476-.04 2.377-.05 4.743.072 7.064-.146 3.013-.284 6-.415 8.946-.933 1.652-.29 3.305-.66 4.968-.912l.867-.293c.626-.092 1.284-.208 1.945-.347.82-.2 1.64-.413 2.456-.637.33-.105.653-.217.962-.336.72-.277 1.515-.418 2.282-.615.354-.11.708-.224 1.06-.34.014-.004.028-.01.04-.015.65-.272 1.328-.418 1.975-.67l1.352-.586 1.567-.488.4-.157c.312-.267.123-.695.405-.938.365-.16.545.42.912.4l.99-.51.473-.097c8.453-3.64 16.407-8.534 23.555-14.598 1.264-1.126 2.506-2.3 3.813-3.47 1.335-1.198 2.63-2.624 3.95-4.04l.612-.544c.224-.244.446-.488.667-.734l1.267-1.54c.372-.398.737-.992 1.17-1.422.14-.14.31-.285.475-.442.2-.246.4-.493.598-.742.055-.11.1-.224.126-.347-.3-.56-1.003-.893-.19-1.54.17-.134.264-.277.472-.267.396.083.45.617.835.562.458-.598.908-1.203 1.353-1.814.41-.673.825-1.362 1.334-1.988.202-.248.4-.504.593-.765 1.135-1.686 2.224-3.42 3.262-5.2l.26-.448c25.892-44.847 10.56-102.127-34.196-128.132zM75.81 477.172c.044-.006.09-.01.135-.017l.224.16c-.006.08-.006.11-.063.22-.017.01-.034.022-.05.033-.108.004-.136.013-.28-.066l-.024-.014c-.012-.124-.035-.15.056-.316zm-3.42 8.286c-.316-.655 1.06-1.373 1.4-1.383.188.138.862 1.608.875 1.84l-.096.166c-.252.077-1.994-.258-2.18-.622zm2.448 17.74l-.024-.014.055-.095.043.088-.075.02zm.333-3.27c-.605.04-1.098-.935-.423-1.134l.273-.033c.582.315.62.76.15 1.168zm.762-18.08l.188-.05c.143.18.22.326.113.574l-.148.2c-.12 0-.188-.01-.29-.102-.114-.15-.107-.51.137-.62zm.42 17.078c-.146-.025-.2-.027-.337-.13 0-.054-.002-.108-.003-.16.12-.177.195-.18.345-.215.195.124.166.173.19.333l-.195.173zm117.11-87.515l.106.094c.356.603-1.04.866-1.306.834-.01-.017-.023-.034-.034-.05.283-.46.83-.804 1.235-.877zm-19.948-4.625l.07.04.017.137c-.05.054-.104.11-.157.163l-.085-.017c.005-.16.034-.2.156-.323zm-1.352-.844c.047-.025.093-.05.14-.077l.09.116-.07.18c-.026.006-.05.012-.076.02-.028-.007-.057-.013-.085-.018l-.043-.09.045-.13zm-7.154 7.94c-.023.183-.17.237-.278.317l-.19-.11.042-.293.21-.197c.177.093.226.138.216.284zm-.208-1.232l.09.116-.113.252-.075.02-.105-.093-.016-.137c.09-.12.118-.122.22-.158zm-.324-3.395l.07.04c-.004.08-.004.11-.06.22-.026.006-.05.012-.076.02l-.07-.042c-.008-.024-.014-.05-.02-.074.05-.054.103-.108.156-.163zm-1.944-3.282c.05-.186-.013-.323.095-.548.148-.037.234-.003.406.012.287.162.533.326.696.497l-.002.223c-.398.67-.938.538-1.46.714l-.094-.055-.024-.014c.005-.285.302-.52.382-.827zm.11 5.527c.86.436.336 1.68-.335 1.46-.562-.14-.395-1.374.334-1.46zm-1.935-3.848l.187.17c.05.086.042.113.036.212-.28.465-.92.705-1.353.585-.107-.027-.123-.098-.135-.205.172-.43.897-.722 1.265-.763zm-2.016 5.854c.187-.23.374-.462.56-.694.122-.086.254-.076.4-.087.185.104.268.197.273.35.134.662-1.436 1.32-1.833 1.196l-.12-.07c.004-.04.006-.082.008-.123.06-.32.515-.4.713-.573zm-1.428-4.668l.095.055-.055.096-.095-.055.055-.094zm-.11 2.827c.188-.336.342-.345.602-.383l.21.185c.205.398-.37.603-.603.605l-.21-.185.002-.222zm-1.23-.837c.166.092.203.13.193.27-.023.317-.374.492-.62.468l-.118-.07-.046-.248c.04-.347.39-.394.592-.42zm-6.578-3.607l.12.068.023.014c-.007.188-.088.233-.24.084l.097-.167zm-1.652-1.59l.113-.03c.325.188.46.374.566.612-.017.032-.036.064-.054.095l-.324.067-.228-.1c-.055-.17-.136-.32-.117-.512l.045-.133zm-6.744 5.253c-.11.077-.147.095-.277.094-.05-.097-.064-.087-.035-.212l.07-.12c.052 0 .106 0 .16-.002.095.104.092.11.083.24zm-.305-1.89l.12.068c.017.364-.484.748-.802.62l-.053-.127c.13-.47.368-.556.736-.56zm-13.624 10.3l.163-.063.2.147c-.008.144-.047.23-.2.235l-.18-.072.016-.246zm-10.698 3.418c.23-.113.402.087.68.14.27.15.383.278.377.503-.522.884-1.693-.34-1.058-.642zm-10.947 4.51l.095.056.003.16c-.24.37-.672.643-1.052.504-.08-.143-.057-.224-.062-.386.312-.433.62-.26 1.017-.333zm-3.36 10.99c.1.08.203.16.305.24 0 .104.007.14-.066.278-.117.034-.15.065-.297.02l-.153-.12-.084-.24c.11-.15.16-.146.294-.18zm-3.142-5.88c.34.23.63.965.167 1.303l-.267.132c-.52-.14-.702-.636-.663-1.05.23-.426.41-.418.763-.386zM95.6 433.71l.097-.167.174-.027c.278.152.31.296.264.533-.108.092-.156.137-.28.157-.278-.09-.283-.268-.253-.495zm-5.54 26.468l.167.096c.08.27.493.857.49 1.076-.038.318-.414.297-.673.12-.11-.314-.565-1.13.016-1.292zm-.936-11.404l.28.066.162.158.084.24c-.09.275-.234.375-.422.454-.226-.065-.363-.166-.51-.326-.02-.33.127-.483.406-.592zm-.442 16.263c.106-.063.153-.034.273-.034.166.115.204.205.124.39-.13.073-.194.075-.35.052l-.138-.144c-.005-.103-.02-.18.09-.265zm-4.984-3.896c.134-.094.2-.098.352-.115.444.218.48.58.098.818-.394-.06-.53-.345-.45-.704zm.426 15.747c.513.31.25.522.415.876.074.16.204.183.198.37l-.017.084c-.11.028-.14.047-.282-.005-.137-.23-.24-.83-.8-.812-.167.006-.28.15-.464.145l-.156-.06-.07-.262c.21-.634.706-.403 1.176-.335zm-.492 31.132l.167.096c.142.488-.38.36-.718.253l-.03-.112c.036-.337.384-.24.58-.236zm-.632-1.16c-.126-.03-.246-.063-.347-.168-.1-.124-.132-.214-.063-.386l.188-.05.46.138.19.11-.036.17c-.143.108-.244.127-.392.187zm-.245-26.886l.12.07c.012.05.026.1.04.15-.047.147-.078.214-.17.346-.156.024-.362.05-.37-.182.027-.23.244-.324.38-.384zm-1.946 14.472c-.016.128-.11.2-.19.272-.066.004-.132.01-.198.013-.207-.11-.248-.188-.162-.38.043-.204.24-.213.407-.21.127.105.158.164.142.305zm-.345-16.494l.105.093c.074.1.087.14.07.263l-.138.238c-.105.084-.182.118-.314.104l-.19-.11c-.21-.33.223-.585.467-.588zm-.574-10.876c.028.026.055.052.082.08l-.014.023-.085-.016-.02-.075c.013-.006.026-.01.038-.012zm-1.486-2.48l.1-.227.235-.022c.187.14.18.23.208.407-.043.04-.087.077-.13.115l-.212.037-.21-.185.008-.123zm.132 41.37c-.09-.127-.1-.183-.09-.337.08-.1.16-.203.24-.305.045-.005.09-.01.136-.017l.177.134c.01.16.015.365-.177.47-.108.074-.157.07-.287.057zm.95 16.05c-.232.012-.437-.067-.636-.272-.01-.12-.037-.136.042-.293l.41-.05c.1.08.203.16.305.24l.003.16-.124.215zm.504-24.612l-.113.03-.12-.07c0-.032-.003-.065-.005-.098l.045-.133.113-.03.12.07-.04.23zm.517 9.16c-.145.023-.233.005-.374-.12l.005-.284.215-.098.166.096.073.202c-.03.068-.057.136-.086.204zm.475-1.758c-.116.133-.137.088-.277.094-.46-.34-.672-1.396-.154-1.93l.25-.048.19.11c.012.27-.21.51-.26.835.085.312.17.625.252.938zm.314-29.613c-.108-.05-.14-.057-.2-.147l-.03-.113c.045-.006.09-.01.136-.017l.115.13.048.027-.07.12zm.08-11.294l.055-.094.072.04.02.076c-.068.01-.05.014-.146-.02zm.35-9.23c-.012-.07-.014-.052.02-.148.083-.016.166-.03.25-.047l.128.106c.064.095.067.09.036.213l-.083.143c-.11 0-.158.002-.303-.08-.015-.062-.032-.125-.05-.187zm1.513 56.396l-.11-.03-.07-.042c-.02-.042-.037-.084-.055-.126l.014-.024.112-.03.12.07.043.088c-.02.03-.038.062-.056.094zm.063-1.265c-.407-.058-1.045.395-1.452-.012-.432-.668 1.24-.633 1.423-.704l.64-.393c.533.305.728.666.757 1.106-.138.197-.292.314-.475.33-.295.024-.55-.275-.892-.325zm1.533 7.017c-.148.008-.303-.008-.446-.162-.17-.212-.176-.436.02-.75l.288-.057c.238.13.362.273.366.465.05.187-.082.36-.228.504zm5.026 17.672l-.174.026-.153-.12c.047-.19.104-.17.256-.17.04.043.078.087.116.13l-.044.133zm9.17 23.018l-.112.03-.18-.072c-.01-.017-.023-.034-.034-.05l-.036-.213.083-.143.146.02.172.196-.04.232zm.746-4.588l.153.12c-.005.09-.028.164-.103.29-.194.057-.312 0-.47-.176l.04-.232.013-.024.368.022zm-.338-1.942l.03-.11c.026-.006.05-.012.076-.02.242.155.27.287.403.456l-.04.232c-.15.006-.237 0-.436-.125-.048-.153-.112-.237-.034-.432zm.34 4.58l-.27-.03-.044-.088c-.08-.135-.017-1.193.123-1.422l.224-.06c.054.052.11.105.163.158.22.323.18 1.127-.198 1.44zm.707-2.547l-.143-.08c-.09-.155-.096-1.085-.015-1.185.142-.08.276-.01.442.002l.272.19c.28.345-.074 1.135-.557 1.074zm2.338-2.015c-.637-.215-1.137-.8-1.09-1.297l.208-.197c.512.086.824.433 1.322.733.323-.083.558-.547.886-.6.372.232.373.495.382.824-.143.2-1.458.518-1.707.538zm1.91 4.056l-.015.025-.1.006c-.03-.108-.024-.1.05-.193l.095.055-.03.11zm.18-9.106c.22-.158.41-.15.653-.195.055.03.11.063.167.095.004.11.007.153-.08.303-.157.062-.846.218-.74-.204zm1.163 3.37l.07.042c-.004.214-.168.472-.333.633-.72.066-.12-.6.263-.675zm-.163 4.132c-.016-.083-.03-.166-.047-.25.057-.415.705-.33.956-.336.22.128.21.187.237.36-.255.356-.72.48-1.145.226zm2.81 12.993l-.25.046c-.27-.02-.36-.28-.342-.452l.11-.19c.096-.02.19-.04.287-.058l.262.15c.016.084.03.167.047.25l-.116.253zm2.822 5.22c-.167.13-.344.143-.55.126-.346-.21-.286-.412-.466-.62-.215-.247-.536-.218-.685-.46-.182-.254.016-.545.242-.748l.232.038c.46.12.228.633.438.89.277-.004.645-.104.92-.168.19.194.16.697-.13.94zm.27-1.02l-.023-.014c-.016-.16-.05-.235.064-.44l.014-.024c.066-.004.132-.01.198-.013l.14.143c.012.05.026.1.04.15-.144.21-.244.184-.432.197zm.413-14.945c-1.827.185-1.053-1.715-2.21-1.72-.675-.047-.738 1.113-1.09 1.5-.223.174-1.577-.123-1.834-.394-.03-.058-.058-.117-.088-.177.25-.344.84-.36.972-.805.216-.73-1.294-2.558-.07-2.9.35.283.116.406.125.77.004.152.738 1.59.895 1.693.165-.037.267-.056.417-.17.163-.313.073-.845-.032-1.1-.22-.172-.725-.476-.733-.71-.017-.49.746-.5.983-.162.154.18.137.41.072.645.332.473 1.046-.013 1.364-.165l.19.11c.072.262-.06.58-.05.86.244.215.49.43.735.647.125.257-.043.582.122.833.38.425.982.07.92.88-.215.364-.39.337-.687.367zm-4.955-6.42l.08-.08c.178-.102.346.034.56.07.485.248.977.97.5 1.335-.108.09-.18.12-.315.104-.615-.042-.745-1.064-.825-1.428zm1.953-7.448c-.22-.125-.303-.26-.28-.448.027-.05.054-.096.082-.144.07-.047 1.406-.326 1.56-.338.156.093.198.148.268.25-.225.662-1.128.775-1.63.68zm1.284 9.096l-.017.085-.188.05-.024-.014c-.062-.145-.084-.155.052-.256l.177.135zm-.69-7.545c-.033.28-.13.542-.428.578-.377-.12-.355-.43-.126-.77l.324-.068.23.26zm1.145 4.504l.12-.153c.035.03.07.06.105.092l.048.027-.07.118-.074.02-.13-.106zm.403 1.884c.1-.265.42-.664.632-.874l.235-.023c.035.03.07.06.105.092.344.474-.282 1.192-.76 1.15-.165-.112-.197-.198-.212-.346zm2.106-7.55l-.16.003c-.067-.105-.082-.07-.036-.213l.113-.03.105.093.02.075-.042.07zm2.747 1.617c-.38.107-.68-.167-1.082-.434-.006-.026-.012-.05-.02-.076l.107-.13c.205-.143.366-.05.617-.024.246.148.358.286.465.46-.03.067-.06.135-.087.203zm1.046-.603c-.045-.082-.034-.08-.027-.174l.263-.07.153.12c0 .052 0 .106.002.16-.153.103-.28.13-.393-.036zm1.28 12.397l-.065.058-.157-.06c-.333-.454-.55-.934-.013-1.404h.382c.086.07.172.14.258.212.15.207-.18 1.045-.405 1.195zm.22-12.8c0-.02.002-.04.004-.06.013-.004.025-.008.038-.01l.034.05-.014.024-.062-.003zm.397 21.733c-.123-.016-.194-.108-.272-.19l.03-.268.078-.082.26-.01.162.16c.024.17-.022.41-.258.39zm1.483-26.143c-.107-.153-.075-.282.067-.5.144-.03.233-.03.396-.027.202.134.324.266.305.462l-.073.18c-.2.068-.535.145-.695-.115zm.478-3.63c-.06-.025-.12-.05-.18-.073l-.033-.273c.273-.46.65-.322 1.02-.394.407.35-.604.768-.807.74zm.34 1.498l-.12.153-.16.003c-.042-.055-.084-.11-.125-.167l.107-.35c.042-.02.084-.037.126-.055l.12.07.052.347zm2.23 27.843l-.218.16c-.306-.124-.566-.624-.948-.612-.976.057.48 1.872-.923 1.818-.08-.066-.157-.133-.235-.2-.2-.302.107-.645.022-.97l-.355-.65c.22-.782 1.514-.73 2.09-.764.488.27.646.798.567 1.218zm-1.292-17.487c.05-.012.1-.026.15-.04.063.038.127.074.19.11l.03.114-.04.07-.015.025c-.104.005-.223.005-.312-.118-.046-.092-.044-.042-.002-.16zm1.13 8.594c-.17-.05-.236-.087-.357-.206-.012-.12-.038-.136.04-.293.21-.067.354-.068.584-.076.453.248-.034.564-.268.574zm.97-2.616c-.09-.01-.18-.02-.27-.028-.137-.244-.175-.566.188-.654l.167.096c.02.096.04.19.058.287-.047.1-.094.2-.142.298zm2.327 12.016l-.014.024-.1.006-.02-.075.04-.072.096.055-.003.06zm.228-10.89c-.17.013-.418.023-.53-.18l-.084-.24.11-.19c.136-.094.228-.06.385-.063.193.13.3.26.282.45-.016.113-.084.153-.16.224zm-.13-90.062c-.01-.07-.023-.14-.035-.212.015-.134.12-.22.203-.296.066-.004.132-.01.198-.013l.08.08.08.14c-.032.12-.05.208-.142.3-.126.092-.203.102-.383.002zm.477 50.557c.052-.126.082-.14.185-.212l.12.07c-.008.203-.147.282-.305.14zm.454 58.834c-.01-.017-.022-.034-.033-.05l.055-.096c.02 0 .04.002.06.004l.03.113-.11.03zm1.138-19.61c-.052-.154-.076-.226-.05-.408.25-.38.987-.354 1.363-.326.078.087.155.173.23.26-.01.057-.022.114-.034.17-.377.315-.966.616-1.508.305zm.772-43.483l.188-.05c.287.19.16.46-.115.475l-.153-.12c-.013-.115-.048-.204.08-.304zm1.17 6.49c.21.16.084.395.213.567.234.313.864.212.92.66 0 .02-.002.04-.004.06-.064.55-1.046.697-1.41.298-.26-.284-.393-1.12-.19-1.54.126-.088.192-.097.328-.127l.143.082zm-.053-5.018l.07-.12.125-.053c.035.03.07.06.105.092l.074.202-.102.068-.214-.124c-.018-.023-.038-.044-.057-.066zm-.05 59.655c-.173.12-.463.137-.702.008 0-.46.51-.46.827-.444.02.056.043.11.064.165-.04.122-.09.217-.19.272zm.594 1.17c-.062-.038-.126-.074-.19-.11-.018-.023-.037-.044-.057-.066l.138-.237c.223-.152.592-.166.85-.208.04.043.078.087.116.13l.04.15c-.195.252-.622.376-.895.34zm1.84 2.142l-.05.033c-.197.022-.28 0-.446-.162-.04-.265.033-.367.285-.438l.237.137c.016.082.03.165.047.248-.024.06-.05.12-.073.18zm2.54 8.516l-.156.323c-.265.083-.487.056-.74-.205-.034-.323.203-.472.474-.49l.17.036.258.213-.007.123zm1.347 1.128c-.02.257-.272.346-.428.357l-.086-.016c-.17-.11-.218-.21-.2-.37.034-.075.068-.15.1-.227.19-.064.27-.074.485-.07l.09.116c.053.086.052.106.037.21zm.82-12.36c-.05.014-.1.028-.15.04l-.128-.105-.017-.138c.055-.02.11-.043.164-.064l.153.12-.022.147zm.527-9.7c-.08-.006-.108-.006-.218-.063l-.03-.112c.022-.02.043-.04.065-.058l.127-.054.095.055-.038.233zm1.018 13.896c-.1-.02-.2-.027-.276-.127-.068-.116-.043-.22.022-.368l.2-.074c.167.097.22.16.293.265-.053.16-.12.227-.238.305zm.063-9.175l.11-.19c.063-.018.125-.035.188-.05l.12.068.05.188c-.09.27-.505.308-.468-.015zm.203 15.364c-.13-.198-.09-1.21.143-1.348l.24-.084c.38.2.76.6.745.907-.028.547-.78.868-1.127.524zm3.28-12.275l-.254.108-.133-.045c-.093-.158-.102-.228.04-.453l.19-.05.118.07c.042.14.066.203.04.37zm.686 5.733c-.02.122-.122.16-.243.146l-.237-.137-.084-.24c.03-.034.06-.07.092-.104l.21-.037c.095.075.19.15.283.226l-.02.146zm.09-9.223l.185-.21c.103-.01 1.85.146 1.85.146.216.144.232.307.487.474l.263-.07c.37-.456.31-1.023.874-1.02 1.017.72-.097 1.45-.715 1.842-.19.12-.607.156-.833.123-.155-.024-2.085-.94-2.11-.964 0-.107 0-.214-.003-.32zm.842-3.326c.05-.014.1-.028.15-.04.063.036.127.072.19.11.118.346-.132.654-.504.597-.142-.19-.1-.556.164-.668zm3.25 12.613c-.015.145-.144.265-.23.344l-.16.003c-.272-.032-.582-.46-.614-.64.06-.167.14-.226.254-.33l.283.005c.3.16.502.362.466.618zm-2.073 3.535c-.193.134-1.257.013-1.38-.193-.106-.17-.032-.328.105-.51.36-.056.838.17 1.21.157l.142.082.074.202-.15.262zm.61-3.746l-.335.03c-.39-.213-.467-.5-.217-.89.046-.004.092-.01.137-.016l.232.038c.163.2.28.408.255.656l-.073.182zm2.37 2.1l-.682.305c-.467.023-1.307-.546-1.508-.903.03-.068.057-.136.086-.204.287 0 .697.272.994.256.378-.02.732-.368 1.11-.44.31.18.367.327.522.525-.028.343-.31.372-.52.463zm4.266-8.432l.133-.177c.066-.004.132-.01.198-.013.317.165.37.3.35.55l-.084.144-.212.037c-.27-.02-.438-.352-.385-.54zm2.678 14.538c-.077-.125-.04-.246.084-.365l.24-.084.128.105c.07.132.026.286-.11.412-.12.092-.276.11-.342-.07zm.384 5.05c-.133-.157-.165-.37.033-.552l.014-.024.05-.034c.222 0 .443.002.665.003.334-.04.61-.374.95-.435l.19.11.024.014c.035.483-1.483 1.38-1.928.918zm1.472-6.01v-.223c.023-.02.044-.04.066-.058h.222l.105.094c.02.22-.095.357-.335.252-.02-.022-.04-.043-.058-.065zm4.163-3.696c-.082.037-.074.04-.174.027l-.12-.07-.015-.136.055-.095c.058-.01.116-.02.174-.028l.105.092c.003.09.018.092-.025.208zm2.988 3.727l-.22-.224c0-.127 0-.255-.002-.382l.144-.14c.115.17.292.404.246.62-.03.103-.07.095-.168.125zm.912 1.605l-.12-.07c.002-.098.008-.12.05-.193l.15-.04.09.116-.082.143c-.028.016-.058.03-.088.045zm.555 1.623l-.225.06c-.203-.227-.34-.546-.023-.84.122-.087.198-.077.338-.09l.105.092c.13.184.03.575-.195.778zm3.556-4.236c-.184.308-.488.355-.788.212l-.024-.014c.03-.353.39-.462.623-.53l.152.12c.05.086.04.113.036.212zm1.996.168l-.06-.225c.01-.116.106-.227.19-.272l.125-.054.142.08c.007.177-.04.366-.224.444-.072.033-.093.028-.174.026zm1.66 1.466c-.35.2-1.16.277-1.544-.13l.03-.268c.1-.424.69-.252 1.01-.21.272.152.427.287.563.452l-.06.156zm1.736-4.27c.22-.373.52-.334.833-.345.61.35.937.76.982 1.267-.694 1.235-1.925-.07-1.815-.92zm3.393 3.738l-.174.027-.106-.09.007-.124c.03-.048.056-.095.084-.143l.126-.054.143.08c.004.112.007.153-.08.304zm7.58-2.962l-.086-.017c-.222-.067-.233-.287-.346-.39-.29-.266-.674-.276-.903-.522-.04-.423.193-1.283.658-1.304.385.24.335.51.606.762.193.178.437.21.568.39.195.275-.08 1.06-.496 1.08zm2.616.908l-.233-.038c-.01-.058-.018-.116-.026-.174l.06-.157c.055-.02.11-.042.164-.063l.12.07c.01.07.023.14.035.21l-.12.153zm2.667-1.985c-.113.03-.193.014-.34-.07-.234-.31-.02-.637-.064-.99-.035-.277-.323-.582-.255-.877.084-.365.426-.378.616-.407l.214.125c.07.394.488 2.18-.17 2.22zm8.7 1.69c-.297.19-.642-.262-.993-.257-.31.004-.467.405-.823.382-.358-.257-.138-.522-.295-.806-.112-.203-.39-.2-.455-.42l-.01-.04c.14-.185.25-.202.41-.27l.17.035c.245.18.185.34.325.536.252.314.965-.235 1.382-.25.313.19.718.814.29 1.088zm-.705-4c.127.258.576.306.73.55.09.127.098.246.087.4-.02.03-.038.063-.056.094-.143-.01-.286-.018-.43-.027-.394.045-.483.473-.995.187-.074-.218-.037-.33-.053-.57-.015-.228-.248-.37-.297-.584-.11-.48.65-.906.894-.945.046.05.093.097.14.145.116.226-.13.53-.022.75zm2.855.22l-.102.673c-.13.228-.276.294-.472.268l-.156-.06c-.04-.54.23-1.036-.044-1.517-.202-.357-.975-.365-.96-.81.046-.418.51-.435.74-.46.563.32.39.602.606.984.353.17.488-.032.806.085.082.276-.292.466-.42.836zm3.33-2.746c-.24-.144-.26-.248-.242-.46.06-.73.966-.786 1.415-.802.155.122.19.2.25.335-.167.6-.924 1.002-1.422.926zm.657-5.15c.03-.067.057-.135.086-.203.838-.237 1.127.485 1.947.584.166.093.203.13.193.27-.03.205-.245.315-.37.423-.402.04-1.91-.513-1.856-1.072zm2.88 5.73c-.018.01-.035.023-.052.034-.72.023-1.546-1.41-.95-1.818l.264-.07c.273.18.84 1.404.824 1.65-.03.067-.058.135-.087.204zm1.123-3.926c-.477.13-.862-.528-.834-.863.17-.287.327-.356.554-.41.39.232.518.875.28 1.274zm1.607-5.202c-.022.02-.043.04-.065.058-.365-.128-.3-.495-.58-.59-.246-.08-1.3.69-1.293-.014.075-.47 1.09-.704 1.422-.704.507.295.484.706.634 1.097l-.12.152zm1.042 7.812l-.038.01-.048-.027-.024-.014.096-.167.048.027c.01.017.023.034.034.05-.022.042-.045.08-.068.12zm2.963-.735c-.056.02-.11.042-.165.063l-.048-.028-.05-.188.055-.095.174-.027.09.116c-.018.054-.038.107-.057.16zm1.426-8.738c-.022.02-.043.04-.065.058-.11.004-.152.008-.302-.08-.01-.226.073-.3.278-.316l.13.106-.04.232zm1.416 1.834c-.022.02-.043.04-.065.058-.068-.03-.136-.057-.204-.086-.02-.167-.05-.245.077-.464l.126-.054.177.134c.01.13.037.3-.11.412zm.714 1.62l-.174.026-.105-.092c-.006-.202.058-.264.24-.306.126.11.094.123.108.253-.023.04-.046.08-.07.118zm.526-4.208l-.265-.09-.02-.075.017-.085.15-.04.13.106.043.09c-.02.03-.037.063-.055.094zm2.823-4.34c-.108.077-.166.09-.31.042l-.2-.147v-.222c.05-.045.097-.092.145-.138l.188-.05.2.148.074.202c-.033.054-.065.11-.097.165zm6.525-9.765l-.085-.017c-.01-.017-.023-.034-.034-.05.01-.095.005-.103.074-.18l.143.08-.097.167zm2.345 4.18l-.133-.044.07-.12.118.07-.055.094zM232.78 543l-.098.006c-.27-.092-.384-.256-.516-.425-.005-.256.167-.477.375-.704l.563.07.14.144c.114.267-.27.725-.462.91zm1.702 15.848l-.26.23c-.124-.014-.522-.05-.513-.264.013-.333.514-.327.658-.318l.115.13v.222zm3.162-6.687l-.232-.037c-.02-.133-.027-.228-.002-.382l.185-.21c.045-.006.09-.01.136-.017.362.205.13.465-.086.648zm7.977-23.378c-.47.033-.866-.184-.882-.67.125-.18.192-.16.355-.175.32.185.48.363.655.57-.007.11-.04.177-.127.275zm-10 7.97c-17.118 29.653-50.094 44.444-82.034 39.846.028-.123.132-.376.114-.42 4.828-8.415 9.663-16.934 14.493-25.27l.918-1.535 1.223-1.073c.877-.658 2.024-1.07 2.983-1.486 1.9-.74 3.658-1.783 5.62-2.314 1.15-.53 2.283-1.108 3.397-1.727l-20.088-55.195c.186 12.684.215 25.36.422 38.063-.004 2.533.175 5.06.28 7.595-.025.71.405 1.92-.317 2.58-.757.05-1.527-.862-2.203-1.24-1.06-1.164-1.406-1.758-2.995-.966-3.868 5.1-7.5 10.52-11.364 15.672-1.075 1.647-2.304 3.405-3.45 4.932-.885 1.505-1.94 2.887-3.004 4.27-2.167 3.147-4.1 6.342-6.39 9.364-1.517 2.23-1.232 2.742-3.646 1.04-.035-.537.746-1.604 1.214-2.158 1.458-1.726 2.773-4.034 4.204-5.8 4.88-7.276 9.973-14.576 14.994-21.74 1.07-1.9 2.483-3.362 3.585-5.33.56-.96 1.38-1.844 1.29-2.783-.125-1.273-2.866-1.59-3.833-2.594.096-2.99 7.385 1.355 8.288-4.3-.05-11.452.153-22.87-.14-34.32 1.14-11.904-3.656-13.485-10.034-22.407-.186-.38-.615-.81-.18-1.28.444-.303 1.04.17 1.616.33 1.426.395 4.094 1.85 5.182 1.245 1.493-.952 1.494-3.14 1.578-4.71.115-1.028.397-2.067.694-3.125.156-.556.02-1.11.468-1.635.663-.106.654.918.76 1.265.458 1.31.824 2.668 1.338 3.948.925 2.368 1.533 5.153 3.695 6.898 1.122 1.387 3.29 1.893 4.944 2.538 1.32.517 1.503.895 2.957.595.327.25.65 1.338 1.365 1.042.206-.25.16-.557.42-.837.202-.218 1.202-.798 1.44-.79l.45.262c.12.47-1.21.95-1.223 1.516-.035.538 1.552 1.144 2.157 1.373 1.907.723 3.103 1.585 4.662.88.404-.183 1.165-.54 1.13-1.19-.208-.185-.52-.26-.724-.45 0-.12.016-.257.14-.3.292-.135.545.26.824.444.697-.185 1.06-1.263 1.652-1.873.724-.743 1.53-1.53 2.25-2.415.374-.457.37-.896.47-1.253.69-1 .648-2.24.25-3.287-.533-1.286-1.524-2.574-2.53-3.588-4.596-6.84-9.727-13.324-14.468-20.107l-1.037-1.17c-.467-.6-.8-1.323-1.54-1.62-.18-.195-.09-.55-.187-.776-.138-.32-.633-.975-.836-1.245-1.83-2.784-3.92-1.928-5.995-.826-.4.18-1.817.392-1.874 1.047-.038.648 1.118.775 1.477 1.235-.2.568-1.93.887-2.398.362-.3-.334-.08-.91-.673-1.087-.38-.046-.77.316-1.1.477-8.34 3.985-16.78 7.832-25.184 11.696-4.05 1.978-8.452 2.505-8.156 8.028.036.298.596.483.606.764.014.356-.48.712-.482 1.055 1.026 13.1 2.097 26.176 2.917 39.292.317 3.363.526 6.74.68 10.144.085 1.9.492 3.727.018 5.792-.452 1.976-2.073 3.823-3.32 5.26-1.06 1.22-1.917 2.677-2.94 3.83-2.532 3.276-5.2 6.75-7.863 9.88l-.704 1.055c-.074.206-.088.525-.304.746l-.668.44c-.43.438-.633 1.003-1.084 1.44-.15.144-.385.266-.558.47l-.39.73c-1.168 1.188-2.132 2.55-3.15 3.865-.107.257-.213.513-.318.77-1.072.315-.687.924-1.355 1.632l-.708.512c-.284.264-.495.636-.765.828-.05-.003-.163.102-.236.137-20.878-25.426-24.992-62.122-7.574-92.294 22.454-38.895 72.19-52.22 111.084-29.76 38.898 22.458 52.226 72.196 29.77 111.09zm-81.292 26.415c-.088-.544 1.015-.814 1.33-.82l.167.096.006.1c-.072.84-1.564 1.483-1.502.624zm10.744-14.38c.145-.24.3-.296.5-.314l.17.035c.14.113.192.2.175.355-.02.175-.167.268-.268.354-.18.018-.28.036-.512-.104-.04-.124-.072-.186-.066-.325zm1.406-25.075l.025-.208c.16-.104.287-.13.454-.182l.19.11c.03.284-.108.52-.41.493l-.26-.213zm10.505 15.213l.188-.05c.237.133.394.3.377.503-.03.068-.057.136-.086.204l-.21.037c-.17-.057-.306-.162-.416-.272-.008-.156-.007-.33.15-.423zm-43.392-78.48c-.143.1-.263.175-.44.158l-.118-.07c-.078-.132-.033-.24.087-.425.095-.02.19-.038.286-.057.22.114.275.194.185.394zm.056 44.69c-.03.068-.057.136-.086.204-.156.015-.307.024-.46-.14l-.05-.187.032-.11.225-.06c.182.103.26.178.34.292zm.4 8.427c.2.114.28.202.388.32.096.77-1.086 1.274-1.44.788-.05-.086-.04-.113-.035-.212.22-.336.76-.852 1.087-.896zm1.628 25.207c.07.04.143.08.214.123l.07.263c-.27.755-.95 1.17-1.515 1.03-.28-.068-.355-.31-.6-.28-.233.027-.462.393-.65.576-.066.004-.132.01-.198.013l-.21-.185c-.1-.15-.083-.242-.035-.433.27-1.085 1.61-.386 2.195-.67.303-.147.408-.38.73-.438zm-.136-24.823l.075-.02.177.134-.017.086-.16.003-.07-.042c-.05-.092-.047-.042-.005-.16zm.843-59.325l.164.158c.035.26-.162.908-.538.547-.22-.3.083-.668.375-.705zm-2.592 93.35l-.348.053-.12-.07c-.034-.123-.048-.19-.028-.333.13-.1.198-.12.342-.152l.21.185c.01.125.035.15-.056.317zm1.312-92.12c-.125.07-.184.06-.324.067l-.153-.12c-.006-.13.008-.192.117-.314h.222l.105.094.048.027-.015.245zm-.606 48.693l-.218-.062c-.17-.22-.212-.38-.157-.662.158-.113.228-.1.412-.11.49.252.308.643-.038.835zm-1.473 20.686c.328.21.396.415.502.672-.056.185-.117.298-.248.43l-.317-.057c-.148-.247-.368-.567-.292-.868.042-.18.207-.17.356-.176zm-.382-12.195l-.19-.11.093-.105.12.07-.022.145zm4.39 17.4c.015-.134.12-.22.203-.296.103.005.205.01.308.017l.21.185.01.26c-.092.142-.146.187-.27.192-.227.07-.49-.134-.46-.36zm1.558-41.442h-.222c-.18-.107-.237-.183-.34-.292-.094-.97.562-1.037 1.227-1.133.05.027.096.055.144.082l.074.2c-.053.14-.725.99-.882 1.143zm.97 44.808c.015.166.02.257-.114.475l-.225.06c-.138-.043-.22-.093-.258-.212-.068-.112-.052-.2-.03-.334.098-.167.163-.215.308-.204l.17.035.15.18zm-1.072-41.277l-.096.167c-.087.045-.027.038-.136.016l-.12-.07c.01-.068.018-.138.026-.207l.164-.065.105.093.057.065zm2.484 41.362c.022-.227.124-.18.318-.166l.187.17.016.136c-.09.105-.064.093-.18.088-.15-.016-.247-.14-.342-.23zm1.337-51.003v-.222l.12-.153.284.005c.06.057.123.114.186.17l-.04.233c-.142.108-.202.12-.364.138l-.187-.17zm.613 52.955l.072-.18.113-.03.105.093.02.075c-.098.138-.123.152-.277.094-.01-.02-.02-.036-.032-.053zm3.69-71.563c.002-.17.138-.336.28-.378l.188-.05c.37.215.617.913.175 1.18-.074.02-.15.04-.224.062-.317-.044-.457-.592-.42-.814zm1.5 12.017l.114-.03.044.09-.04.07-.1.007-.017-.136zm1.404 16.09l.04-.072c.024.07.02.01.007.1l-.048-.03zm5.327-34.946l.068-.12.126-.053.05.19-.014.023c-.017.01-.034.023-.05.034-.095-.01-.103-.005-.18-.073zm5.056-9.913c.07-.01.14-.023.21-.036.262.216.105.405.247.618.292.44 1.136.324 1.423.282l.238.137c.088.285.174.617.016.963l-.065.058c-.306-.005-.497-.3-.85-.395-.334-.09-.548.188-.914.044-.322-.413-.71-1.11-.304-1.67zm3.287.406c.012-.165.165-.29.278-.316.056-.02.11-.043.165-.064.185.127.146.175.152.342-.15.253-.33.346-.59.2l-.004-.162zm9.895 3.522c.066-.004.132-.01.198-.013l.068.103c.126.228-.128.416-.14.682l.127.55c-.04.598-.632.933-1.012.876l-.187-.17-.03-.114c-.023-.52.66-.574.78-1.075.074-.31-.147-.504.198-.84zm-1.853-2.34c-.894.427-.733.085-1.684-.052-.697-.1-1.25.215-2.06-.554 0-.053 0-.107-.002-.16.166-.257.35-.373.578-.397l.567.39c.524.163 2.09.137 2.54-.057.25-.107.406-.253.66-.318l.295.202c.044.528-.54.776-.893.945zm-.98 3.563c.187-.01.355.078.573.11l.08.078c.094.213-.295.336-.45.343-.245-.082-.347-.274-.202-.53zm-.182-.23c-.123-.06-.227-.123-.268-.25-.096-.138-.09-.453.122-.597.11-.09.17-.09.29-.118l.19.11c.02.055.043.11.064.164l-.26.673c-.046.004-.09.01-.137.016zm-1.742-1.93c.032-.118.05-.207.142-.3.25-.195.496-.093.805-.074l.21.185c.05.087.042.114.036.213-.325.553-.978.53-1.192-.022zm.565 3.694c-.202-.118-.244-.21-.26-.373.098-.312.26-.403.482-.45l.143.08c.1.3.063.74-.365.744zm-.904-.522c-.08.07-.163.138-.245.207l-.048-.03-.04-.15c.03-.067.057-.135.086-.203l.126-.054.08.08c.014.05.028.1.04.15zm-.406 1.036c.33.29 1.507.896 1.945 1.028.463.14.914-.276 1.395-.274l1.412 1.292c.327.26.63.035.906.08.424.066.852.623.882.89-.19.31-1.05.586-1.31.512-.288-.08-.45-.37-.73-.388-.35-.023-.743.2-1.034.42-.172.308-.075.525.08.743.295.133.46.075.734.267.065.61-.55 1.518-.085 2.016.495.53 1.007-.142 1.405.367.42.54-.434 1.133.394 1.625.163-.044.41-.096.542-.226.34-.337.312-2.187 1.205-1.814.154.47.273.925.283 1.434l-.127.88.44 1.492.03.495.245.236c.173.234.142.543.16.823-.218.3-1.026.635-.81 1.184.314.806.934.442 1.447.9.257.23.76.587.745.906l-.11.412.266.472c.074.55-.61 1-.957 1.163l-.134-.045c-.03-.06-.06-.118-.088-.178.133-.43.48-.842.756-1.31-.173-.31-.724-.697-1.077-.717-.397.352-.647.924-1.14.93-1.117-.818.504-1.875-.09-2.593l-.556-.354c-1.375-.592-1.33.24-2.184.104-.442-.07-.47-.542-.743-.747-.243-.056-.486-.11-.73-.167-.59-.776-.05-1.578-.157-2.474l-.397-.96c.038-.492.43-.496.22-.985-.134-.117-.293-.184-.443-.224-.36.15-.47.594-.784.754-.24.122-.497-.11-.77-.095l-1.21.285c-.477.24-.27 1.128-.886 1.204-.77.096-1.095-.928-1.074-1.38.282-.45.826-.288.982-.768.23-.705-.856-1.21-.593-1.994.338-1.008 1.223.015 1.712-.822.163-.278.184-.48.154-.705-.113-.84-1.118-1.667-1.515-2.43-.174-.334.024-.71-.097-1.04-.14-.382-.7-.643-.687-1.065l.085-.204c1.21-.354 1.283.337 2.09 1.048zm6.095-3.47c.022-.116.06-.25.168-.346.123-.09.202-.07.338-.09.24.135.33.238.445.383l-.014.246c-.102.14-.142.13-.246.208-.284-.058-.528-.154-.69-.4zm.674 8.776c-.072.242-.18.346-.35.497-.347.006-.497-.345-.355-.648.04-.24.29-.218.467-.206l.153.12.084.238zm1.945 3.06l.088-.043.08.08c.064.15-.016.175-.157.163-.002-.066-.007-.132-.01-.198zm-.917 9.446c-.215.243-.297-.12-.254-.274l.088-.044.12.07.045.248zm-5.987-1.773c-.09.323-.315.52-.61.506-.38-.242-.37-.687-.025-1h.223c.253.16.328.3.413.494zm-3.332-3.735c-.012.098-.058.14-.134.177-.175.09-.334-.032-.47-.177-.008-.26.115-.324.33-.35l.237.137.037.212zm-.467-9.577c.044-.112.05-.118.134-.177.048.096.043.078-.024.208l-.11-.03zm1.318-17.12l-.07.118-.15.04c-.175-.116-.16-.16-.127-.328l.093-.105c.046-.005.092-.01.137-.017l.08.08c.052.085.044.112.038.21zm-.146 10.968c.05.866-.293 1.285-1.068 1.353-.152.013-.322.09-.525-.08-.246-.21-.254-.526-.436-.73-.265-.296-.887-.2-.746-.684.31-.157.658-.403 1.088-.07.14.106.267.3.472.335.297.05.64-.31.956-.337l.26.213zm17.55 14.55c.058-.16.125-.207.25-.27.024.015.048.03.07.042l.035.05c-.055.13-.09.188-.19.273l-.155-.06-.01-.036zm-58.334-3.253l-.076.242c-.017.01-.034.023-.05.034-.304-.01-.37-.437-.1-.597.164.115.167.185.226.32zm-.442 1.81c.008.153.01.276-.077.463-.292-.037-.525-.265-.335-.574l.212-.038c.066.05.133.098.2.147zm-1.225-1.12l-.226.06c-.15-.04-.276-.076-.357-.207-.216-.293.157-.4.38-.384.207.14.292.307.202.53zm124.81 60.758c-.002-.013-.006-.025-.01-.038.16-.146.357-.11.54-.165l.095.055c-.158.223-.364.29-.624.148zm.88 1.937l.002-.222c.053-.054.105-.11.158-.163l.49.03c.123.08.246.16.368.243.014.165.02.256-.115.474-.34.105-.656-.042-.902-.362zM191.244 536.423c.2-.276.403-.55.604-.827l.728-.437c1.14-1.038 2.354-2.188 3.272-3.416.384-.378 1.817-1.363 1.38-2.062-.574-.268-.812.255-1.287.305-.49-.35.498-1.49.85-1.637.5.154.8.83 1.282.803.53-.03.93-1.07 1.357-1.472.19-.22.383-.452.575-.678l-1.123-3.087c-.334.1-.677.194-.802.223-.027-.026-.054-.052-.08-.08-.18-.254.042-.826.335-1.076l.232.068-1.89-5.192c-2.323.263-4.646.532-6.98.74-.83.087-3.788.555-4.61-.09-1.046-.817-1.282-2.846-1.386-3.975-.416-1.55-.58-3.16-1.183-4.654-1.794-7.458-6.15-12.566-10.625-18.524-.876-1.32-2.15-2.742-3.516-3.746-.72-.708-2.184-1.98-3.254-2.387-.513-.195-1.406-.93-2.036-1.182l21 57.703c2.53-1.537 4.934-3.31 7.158-5.32zm6.643-9.473l.188-.05.167.096c.01.017.023.034.034.05.005.237-.095.377-.28.54-.044.004-.09.01-.135.016-.137-.112-.126-.17-.178-.294.038-.148.074-.284.205-.358zm-1.226-5.79c.056-.02.11-.043.165-.064l.19.11c.14.437-.274.677-.654.64l-.118-.07c.007-.238.2-.55.42-.616zm-.858.774l.225-.06c.15.162.317 1.462-.093 1.534-.167-.06-.225-.14-.33-.254-.02-.366-.06-.79.198-1.22zM199.266 519.01c.016.058.02.11.018.16l2.21 6.068c1.127-1.35 2.26-2.73 3.332-4.097.792-.915 4.083-4.883.866-4.137-2.33.143-4.65.38-6.965.634l.49 1.345.05.03zM168.973 477.792l-.03.11.023.013.11.03.102-.067c-.02-.08-.007-.064-.078-.14l-.127.054z"/></g><g><path d="M196.698 557.154c1.135 0 2.29-.195 3.42-.605 5.188-1.89 7.865-7.63 5.977-12.818l-6.088-16.728-.576.68c-.427.4-3.197 3.683-3.58 4.06-.92 1.23-2.134 2.38-3.273 3.416-.243.146-.486.29-.728.437-.202.275-.404.55-.605.827-2.225 2.01-4.63 3.783-7.156 5.324l3.21 8.824c1.478 4.06 5.313 6.582 9.398 6.582zM157.562 468.858l5.526 15.186c.63.252 1.524.987 2.037 1.182 1.07.407 2.535 1.68 3.254 2.387.817.6 1.59 1.356 2.275 2.145-.82-2.02-.073-4.04 1.966-5.19.65-.366 1.324-.607 1.918-.82.355-.126.69-.246.974-.375 1.158-.53 2.285-1.03 3.43-1.54l1.08-.48c.963-.43 1.938-.846 2.91-1.266l-.498-1.37c-.05.025-.087.052-.14.076-.645.29-1.316.44-1.995.44-1.18 0-2.2-.437-3.187-.858-.316-.135-.65-.278-1.014-.416-.763-.29-1.817-.69-2.56-1.353-.07.006-.142.01-.214.01-.97 0-1.623-.508-2.04-.988-.926-.01-1.555-.298-2.11-.553-.185-.085-.397-.183-.66-.286-.316-.122-.653-.24-.997-.36-1.512-.53-3.38-1.186-4.632-2.61-2.07-1.752-2.91-4.134-3.652-6.242l-.072-.204c-.182 1.223-.598 2.513-1.602 3.484zM155.408 437.56c.04-.024.083-.05.126-.08.365-.23.975-.614 1.8-.614.062 0 .122.002.183.006.663-.842 1.79-1.17 2.365-1.338.062-.018.12-.034.17-.05 1.137-.6 2.463-1.214 3.92-1.214.925 0 1.776.245 2.55.724L80.41 198.39c-1.89-5.19-7.628-7.864-12.818-5.98-5.19 1.89-7.866 7.63-5.977 12.818l85.905 236.043c2.643-1.23 5.28-2.467 7.886-3.71z"/></g></g></svg>