<svg xmlns="http://www.w3.org/2000/svg" viewBox="0 0 1000 490"><path d="M129.69 190.01c-7.613 6.352-18.925 9.527-33.938 9.527-14.174 0-25.434-3.568-33.78-10.71-8.348-7.138-13.887-18.32-16.616-33.544L0 159.693c3.044 25.828 12.387 45.49 28.033 58.98 15.643 13.49 38.058 20.236 67.247 20.236 20.053 0 36.798-2.81 50.24-8.427 13.437-5.615 23.83-14.198 31.182-25.75 7.348-11.547 11.024-23.937 11.024-37.166 0-14.592-3.07-26.852-9.213-36.773-6.142-9.922-14.647-17.742-25.513-23.466-10.867-5.72-27.64-11.26-50.318-16.615S65.724 80.215 59.845 75.28c-4.62-3.884-6.93-8.557-6.93-14.017 0-5.985 2.467-10.76 7.403-14.33 7.663-5.565 18.27-8.348 31.813-8.348 13.124 0 22.967 2.598 29.53 7.796 6.56 5.198 10.84 13.73 12.835 25.593l46.616-2.047c-.735-21.207-8.425-38.164-23.07-50.87C143.39 6.355 121.58 0 92.602 0 74.86 0 59.713 2.677 47.168 8.032c-12.548 5.355-22.154 13.15-28.82 23.387-6.67 10.236-10 21.236-10 32.993 0 18.27 7.086 33.757 21.26 46.46 10.08 9.03 27.612 16.64 52.6 22.835 19.424 4.83 31.865 8.19 37.326 10.08 7.978 2.834 13.57 6.168 16.773 10 3.2 3.834 4.803 8.48 4.803 13.937 0 8.504-3.808 15.933-11.42 22.284zM254.72 234.814h46.617V42.994h68.35V3.937H186.214v39.057h68.507zM478.156 217.828c3.516-5.145 7.217-12.6 11.103-22.363l10.55-29.135L558.87 5.377h-45.83l-39.057 118.746L433.98 5.377h-47.088L450.517 173.1c-2.625 9.345-6.405 17.034-11.34 23.073-4.935 6.036-12.546 9.055-22.835 9.055-5.566 0-11.812-.684-18.74-2.047l3.936 34.648a117.303 117.303 0 0 0 25.04 2.677c8.4 0 15.932-.893 22.6-2.677 6.667-1.787 12.285-4.28 16.852-7.48 4.567-3.204 8.607-7.377 12.126-12.52zM740.03 195.915H624.12V5.827H577.5v228.987h162.53zM802.137 133.077h115.91v-38.9h-115.91V42.995H926.71V3.937H755.52v230.877h175.6v-38.9H802.137zM992.938 194.6c-4.71-4.603-10.395-6.905-17.06-6.905-6.666 0-12.274 2.328-16.822 6.983-4.55 4.657-6.824 10.212-6.824 16.664 0 7.618 2.38 13.544 7.142 17.775 4.76 4.23 10.42 6.348 16.98 6.348 6.35 0 11.876-2.142 16.585-6.427 4.706-4.285 7.06-10.182 7.06-17.695 0-6.56-2.355-12.14-7.062-16.744zM137.042 437.495c-8.925 7.875-19.583 11.812-31.97 11.812-16.8 0-30.45-6.193-40.947-18.584-10.5-12.388-15.75-33.176-15.75-62.365 0-27.507 5.328-47.404 15.986-59.687 10.656-12.284 24.542-18.425 41.656-18.425 12.387 0 22.915 3.465 31.576 10.394 8.662 6.928 14.356 16.378 17.088 28.347l46.144-11.024c-5.25-18.477-13.126-32.65-23.623-42.522-17.638-16.693-40.58-25.04-68.82-25.04-32.34 0-58.43 10.63-78.272 31.892C10.265 303.552.343 333.397.343 371.824c0 36.328 9.867 64.963 29.608 85.91 19.74 20.945 44.937 31.418 75.595 31.418 24.777 0 45.224-6.115 61.34-18.347 16.117-12.23 27.64-30.946 34.57-56.144l-45.2-14.33c-3.885 16.904-10.29 29.29-19.213 37.165zM323.346 250.4c-18.795 0-35.383 3.046-49.766 9.134-10.815 4.515-20.764 11.444-29.844 20.788-9.082 9.346-16.248 19.897-21.497 31.655-7.036 15.96-10.553 35.698-10.553 59.215 0 36.748 10.13 65.593 30.395 86.54 20.262 20.945 47.56 31.418 81.894 31.418 33.912 0 61-10.525 81.264-31.576 20.262-21.05 30.395-50.21 30.395-87.485 0-37.586-10.212-66.933-30.632-88.036-20.42-21.103-47.64-31.655-81.657-31.655zm46.223 178.827c-11.92 13.387-27.168 20.08-45.75 20.08-18.585 0-33.915-6.745-45.987-20.237-12.075-13.49-18.11-33.31-18.11-59.452 0-26.562 5.878-46.432 17.638-59.61 11.758-13.174 27.246-19.764 46.46-19.764s34.62 6.51 46.222 19.528c11.6 13.02 17.403 32.757 17.403 59.215 0 26.774-5.96 46.854-17.876 60.24zM563.046 411.825l-41.892-157.488h-69.767v230.877h43.31v-181.74l45.67 181.74h44.885l45.828-181.74v181.74h43.31V254.337h-69.925zM791.5 254.326l-75.245 231.387h38.303l75.07-231.387z"/></svg>