<svg xmlns="http://www.w3.org/2000/svg" viewBox="0 0 100 110"><path d="M99.73 66.133c-1.447-2.903-2.083-.997-6.8-3.234 0 0-5.707-4.234-7.772-4.234 0 0-2.08-.518-5.758 3.16-1.607 1.606-3.738 4.045-3.242 6.488.72 3.32 7.695-.998 7.695-.998 3.31-1.988 1.597.648 1.597.648C78.703 82.9 69.38 89.87 59.8 92.024c-3.036.75-4.234.96-6.73 1.75-1.207.408-1.094 1.27-.387 1.975.372.44 1.017.75.53 1.37-.745.747-2.082 1.067-3.07 1.067-1.032 0-2.61-.32-3.356-1.068-.487-.62.16-.93.53-1.37.707-.707.82-1.57-.386-1.977-2.495-.79-3.693-.998-6.728-1.75-9.58-2.152-18.903-9.125-25.65-24.06 0 0-1.715-2.635 1.596-.647 0 0 6.974 4.32 7.695.998.496-2.443-1.636-4.88-3.242-6.488-3.677-3.678-5.757-3.16-5.757-3.16-2.065 0-7.773 4.233-7.773 4.233-4.717 2.236-5.352.33-6.8 3.233-1.245 3.12 2.23 4.81 2.23 4.81s2.397-2.247 4.916-3.443c.832.277 2.358 1.95 2.626 2.4l-3.85 1.813c6.49 17.848 18.55 26.4 30.04 29.546v.006c2.762.856 3.536.923 7.98 2.025.27.085.473.16.102.93-.8 1.447.466 2.025 1.282 2.53a8.655 8.655 0 0 0 3.953 1.033v.003h.074v-.003c.08-.002.667-.002.757 0v.003h.075v-.003a8.676 8.676 0 0 0 3.953-1.032c.815-.505 2.08-1.083 1.282-2.53-.37-.77-.167-.845.103-.93 4.443-1.102 5.217-1.168 7.978-2.024v-.007c11.493-3.147 23.552-11.7 30.042-29.547l-3.85-1.813c.268-.45 1.794-2.123 2.625-2.4 2.52 1.196 4.917 3.442 4.917 3.442s3.472-1.69 2.226-4.81" fill="#ACE0F9"/><path d="M99.73 66.133c-1.447-2.903-2.083-.997-6.8-3.234 0 0-5.707-4.234-7.772-4.234 0 0-2.08-.518-5.758 3.16-1.607 1.606-3.738 4.045-3.242 6.488.72 3.32 7.695-.998 7.695-.998 3.31-1.988 1.597.648 1.597.648C78.703 82.9 69.38 89.87 59.8 92.024c-3.036.75-4.234.96-6.73 1.75-1.207.408-1.094 1.27-.387 1.975.372.44 1.017.75.53 1.37-.745.747-2.082 1.067-3.07 1.067-1.032 0-2.61-.32-3.356-1.068-.487-.62.16-.93.53-1.37.707-.707.82-1.57-.386-1.977-2.495-.79-3.693-.998-6.728-1.75-9.58-2.152-18.903-9.125-25.65-24.06 0 0-1.715-2.635 1.596-.647 0 0 6.974 4.32 7.695.998.496-2.443-1.636-4.88-3.242-6.488-3.677-3.678-5.757-3.16-5.757-3.16-2.065 0-7.773 4.233-7.773 4.233-4.717 2.236-5.352.33-6.8 3.233-1.245 3.12 2.23 4.81 2.23 4.81s2.397-2.247 4.916-3.443c.832.277 2.358 1.95 2.626 2.4l-3.85 1.813c6.49 17.848 18.55 26.4 30.04 29.546v.006c2.762.856 3.536.923 7.98 2.025.27.085.473.16.102.93-.8 1.447.466 2.025 1.282 2.53a8.655 8.655 0 0 0 3.953 1.033v.003h.074v-.003c.08-.002.667-.002.757 0v.003h.075v-.003a8.676 8.676 0 0 0 3.953-1.032c.815-.505 2.08-1.083 1.282-2.53-.37-.77-.167-.845.103-.93 4.443-1.102 5.217-1.168 7.978-2.024v-.007c11.493-3.147 23.552-11.7 30.042-29.547l-3.85-1.813c.268-.45 1.794-2.123 2.625-2.4 2.52 1.196 4.917 3.442 4.917 3.442s3.472-1.69 2.226-4.81z" fill="none" stroke="#000" stroke-width=".44"/><path d="M77.875 69.585s4.105 1.076 5.415 2.743c1.165-2.224 2.904-5.38 2.617-5.63-.287-.25-1.22.126-1.74.43-.52.305-5.485 2.96-6.292 2.457m-55.743 0s-4.105 1.076-5.415 2.743c-1.166-2.224-2.904-5.38-2.617-5.63.287-.25 1.22.126 1.74.43.52.305 5.485 2.96 6.292 2.457" fill="#0259A7"/><path d="M50.083 21.158h-29.85l-.194 18.618c-.25 9.14 3.616 18.834 3.616 18.834 7.317 19.385 26.427 29.095 26.427 29.095" fill="#A4DEF8"/><path d="M49.763 21.158h29.852l.192 18.618c.25 9.14-3.617 18.834-3.617 18.834-7.317 19.385-26.426 29.095-26.426 29.095" fill="#ACE0F9"/><path d="M24.465 61.79s-3.77-7.665-4.56-17.67V21.664h59.722l.22 18.708s.537 8.39-4.73 21.486c-6.05-6.217-25.31-25.417-25.31-25.417L24.464 61.79z" fill="#0259A7"/><path d="M24.465 61.79s-3.77-7.665-4.56-17.67V21.664h59.722l.22 18.708s.537 8.39-4.73 21.486c-6.05-6.217-25.31-25.417-25.31-25.417L24.464 61.79z" fill="none" stroke="#000" stroke-width=".64" stroke-miterlimit="8"/><path d="M50.087 53.29 31.52 72.15s7.368 9.78 18.56 15.524c3.462-1.767 12.31-7.718 18.716-15.524-7.363-7.658-18.71-18.86-18.71-18.86" fill="#0259A7"/><path d="M50.087 53.29 31.52 72.15s7.368 9.78 18.56 15.524c3.462-1.767 12.31-7.718 18.716-15.524-7.363-7.658-18.71-18.86-18.71-18.86z" fill="none" stroke="#000" stroke-width=".64" stroke-miterlimit="8"/><path d="M37.58 38.25c-.52.144-.843-.07-.842-.49 0-.327.055-.65.263-.807 0 0 .997-.006 1.1-.095.103-.088.183-.688.164-.808-.02-.12-1.087.098-1.145-.02-.057-.114.274-.795.215-.91-.06-.115-.865.005-.865.005-.105.05-.2.866-.3.948-.104.084-.866-.03-.962.055-.096.086-.258.743-.2.828.062.083.906-.045.976.045.082.267-.173.72-.487.993-.228.2-.478.317-.79.316-.477-.004-1.05-.66-1.23-1.69-.127-.72.096-2.023.422-2.68.71-1.44.215-1.427.492-1.515 1.19-.38 1.94-.758 2.883-1.038.9-.267 1.622-.417 2.458-.098 1.37.52 1.137 2.04.616 3.107-.712 1.45-1.806 3.583-2.77 3.853m-5.923-1.628c-.18 1.03-.753 1.685-1.23 1.688-.312 0-.563-.116-.79-.316-.314-.274-.57-.726-.487-.992.07-.09.914.04.975-.045.06-.085-.103-.742-.2-.828-.095-.086-.858.028-.96-.056-.102-.083-.196-.9-.3-.948 0 0-.807-.12-.866-.005-.06.116.27.797.215.912-.057.117-1.126-.1-1.145.02-.018.12.062.72.164.807.103.088 1.1.094 1.1.094.206.158.26.48.262.808.002.418-.323.632-.84.49-.967-.27-2.06-2.404-2.77-3.854-.522-1.066-.754-2.586.617-3.108.836-.32 1.56-.17 2.458.098.942.28 1.693.66 2.884 1.038.277.09-.22.075.49 1.515.327.66.55 1.962.423 2.682m10.182-4.544c-.197-1.14-1.118-1.934-2.245-2.024-2.014-.16-3.75.916-5.705 1.26-.156.028-.365-.305-.556-.495.906-.683.784-2.022-.266-2.6-.072-.083-.046-.853-.005-.888.085-.07.754.057.85-.026.094-.083.074-.884.015-.962-.06-.077-.816.006-.857-.045-.042-.053.02-.776-.05-.833-.07-.056-.442-.043-.454-.043-.012 0-.383-.013-.453.043-.07.056-.008.78-.05.832-.043.05-.798-.033-.86.044-.06.077-.078.88.017.962.095.083.764-.045.85.026.04.035.067.805-.006.888-1.05.58-1.172 1.917-.266 2.6-.19.19-.4.522-.556.494-1.953-.344-3.692-1.42-5.706-1.26-1.127.09-2.046.884-2.243 2.024-.352 2.052 1.122 3.63 1.837 5.372.227.55.426 1.29.39 1.925H39.61c-.036-.636.162-1.375.39-1.925.717-1.742 2.192-3.32 1.84-5.372M32.565 40.33h-7.203v1.21H39.77v-1.21z" fill="#fff"/><path d="M11.426 63.67s1.267-.556 2.75-2.04c2.32 2.784-4.805 5.07-4.805 5.07s-1.005.283-2.033.838m6.573-8.696s-3.817 1.287-2.75 4.747c1.295 2.635 4.663-.313 3.017-1.96M9.96 69.938s.998-.34 1.79-1.134c.714-.714 1.48-2.962 3.06-2.153m7.852 2.857s-1.516.24-3.198 1.01-2.74 1.828-2.74 1.828m71.932-8.674s-1.267-.556-2.75-2.04c-2.32 2.784 4.804 5.07 4.804 5.07s1.175.245 2.203.962m-6.688-8.766s3.764 1.233 2.697 4.693c-1.295 2.635-4.664-.313-3.017-1.96m4.315 8.393s-1.096-.307-1.888-1.22c-.662-.76-1.447-2.996-3.026-2.187m-7.76 2.93s1.39.2 3.07.97c1.683.77 2.74 1.83 2.74 1.83m-36.742 24.34-2.104 6.97m8.833-7.156 2.165 7.258" fill="none" stroke="#000" stroke-width=".44"/><path d="M12.743 76.555c-.415.216-.407.26-.328.47l.036.098c-.01.044-.084.076-.116.05a17.334 17.334 0 0 0-.586-1.123c0-.04.067-.083.11-.068l.06.087c.127.183.157.215.573 0l1.458-.76c.415-.217.407-.26.328-.47l-.036-.1c.012-.043.085-.075.118-.05.088.19.182.38.283.572.097.185.2.37.303.552 0 .04-.067.082-.11.067l-.06-.085c-.127-.185-.157-.216-.573 0l-1.457.76zm2.051 3.299c-.113.068-.58.35-.658.415-.06-.008-.11-.056-.136-.107.04-.113.098-.308.232-.787l.436-1.558c.116-.43.182-.646.197-.75-.007-.01-.05.014-.25.135l-.736.447c-.284.172-.63.386-.7.523-.036.07-.017.153.03.264l.042.096c-.005.053-.08.092-.115.058a10.687 10.687 0 0 0-.535-.88c0-.045.058-.09.105-.075l.073.077c.06.07.118.134.195.125.15-.018.478-.218.777-.4l.896-.542c.294-.178.357-.21.384-.415a.816.816 0 0 0-.054-.26l-.026-.068c.006-.042.084-.084.12-.05.077.163.215.382.277.484.05.085.113.18.18.272-.122.167-.33.897-.39 1.126l-.162.65c-.07.276-.243.895-.24.95.017.005.036-.006.097-.043l.737-.446c.283-.173.628-.387.698-.528.034-.07.018-.15-.028-.26l-.045-.1c.005-.052.08-.092.115-.058a10.457 10.457 0 0 0 .54.89c0 .044-.06.09-.106.075l-.075-.08c-.057-.072-.114-.13-.19-.122-.153.015-.48.214-.78.395l-.906.55zm1.756 2.551c-.177.132-.3.235-.317.336-.016.084 0 .166.227.47.314.42.377.467.872.37.046.025.08.093.066.133-.17.08-.502.198-.632.224-.11-.164-.35-.493-.668-.918l-.293-.395c-.144-.193-.29-.38-.415-.534-.01-.04.054-.104.097-.084l.102.1c.153.163.19.19.558-.085l1.318-.982c.37-.275.354-.316.245-.513l-.064-.117c0-.04.07-.092.11-.07a14.616 14.616 0 0 0 .773 1.04c.01.045-.057.102-.098.085l-.076-.073c-.157-.16-.194-.187-.562.088l-1.244.927zm2.31 2.328c-.43.11-.97.27-1.195.352-.016 0-.047-.022-.068-.05a.19.19 0 0 1-.04-.082c.1-.157.218-.353.306-.537l.904-1.824c.144-.29.164-.363.07-.53l-.055-.103c.003-.046.064-.097.104-.07.11.15.237.308.355.45.137.163.243.285.41.472.007.05-.045.098-.096.085l-.096-.074c-.083-.066-.125-.08-.152-.06-.03.027-.08.118-.304.555l-.388.764c-.1.193-.218.457-.266.56.592-.16 1.242-.33 1.865-.522.184-.054.203-.088.136-.217l-.065-.125c.006-.048.064-.09.104-.075a9.325 9.325 0 0 0 .615.744c.007.043-.05.085-.092.09l-.093-.078c-.087-.07-.177-.13-.327-.11-.248.033-.563.117-1.042.237l-.59.148zm2.888 4.497c.02.047-.05.11-.098.084a13.698 13.698 0 0 0-.85-.862c-.014-.04.033-.112.085-.096l.106.075c.153.118.187.103.402-.108l.995-.98.293-.288-.007-.007c-.263.08-.404.125-.593.185l-.84.256c-.333.102-.85.278-1.056.363-.026 0-.076-.05-.086-.086.113-.225.28-.674.36-.906l.31-.895c.07-.194.178-.48.233-.613l-.006-.007c-.16.146-.413.38-.552.504-.2.182-.486.45-.744.705-.208.205-.254.258-.134.424l.09.13c.005.042-.055.1-.094.086a10.517 10.517 0 0 0-.703-.716c-.014-.046.046-.104.08-.1l.064.05c.18.144.253.124.465-.045.225-.168.436-.363.78-.668.23-.197.51-.435.702-.624.148-.146.165-.262.054-.41l-.093-.134c.003-.042.066-.097.105-.077.093.107.18.2.302.325.116.118.232.236.364.352-.176.2-.253.45-.34.7l-.363 1.087c-.027.08-.098.322-.127.437.144-.035.28-.074.5-.146l.916-.278c.314-.097.606-.172.87-.32.083.098.19.213.262.287.14.142.258.256.357.344.024.05-.03.115-.08.1l-.126-.096c-.165-.128-.252-.11-.418.055-.467.46-.927.924-1.37 1.407-.2.218-.186.276-.093.397l.08.11zm1.512.6c-.31.35-.286.39-.137.556l.07.078c.005.045-.05.102-.092.09a15.468 15.468 0 0 0-.953-.833c-.015-.038.033-.1.078-.103l.087.058c.184.127.225.145.534-.207l1.084-1.236c.308-.352.285-.39.135-.557l-.07-.078c-.004-.045.052-.102.092-.09.15.144.308.287.472.43.155.137.318.275.48.405.017.04-.032.102-.077.103l-.087-.06c-.185-.126-.226-.143-.535.21l-1.08 1.234zm3.113 2.322c-.08.106-.41.54-.46.628-.06.016-.122-.01-.165-.05-.004-.118-.022-.32-.073-.815l-.167-1.61c-.05-.442-.07-.667-.092-.768-.012-.01-.04.03-.182.216l-.52.686c-.202.263-.444.59-.46.744-.006.078.042.148.125.234l.074.073c.016.05-.04.116-.085.097-.135-.113-.28-.228-.422-.336a8.248 8.248 0 0 0-.4-.286c-.016-.04.022-.106.07-.108l.097.046c.08.044.158.08.227.045.132-.07.365-.378.576-.656l.634-.833c.21-.274.254-.327.204-.527a.783.783 0 0 0-.146-.222l-.05-.053c-.01-.04.048-.11.093-.09.132.122.342.276.436.347.078.06.17.125.267.187-.05.2.023.954.053 1.188l.087.666c.035.282.102.92.124.97.02-.002.034-.02.076-.075l.52-.687c.202-.264.444-.59.456-.747.007-.08-.038-.146-.12-.232l-.08-.076c-.015-.05.04-.114.086-.096a10.54 10.54 0 0 0 .828.63c.016.04-.02.106-.07.108l-.1-.05c-.08-.042-.154-.078-.224-.04-.136.068-.368.374-.58.652l-.64.84zm1.867-.592c.248-.396.22-.43.048-.575l-.06-.048c-.01-.044.035-.11.076-.103.148.103.333.225.51.336l.764.48c.256.162.49.305.547.33-.024.073-.186.384-.263.56-.035.02-.12-.024-.138-.066.073-.258.072-.39-.038-.5a1.492 1.492 0 0 0-.298-.234l-.268-.17c-.172-.107-.176-.1-.31.113l-.4.632c-.06.097-.058.104.034.16l.192.122c.348.22.418.258.548.115l.108-.11c.05-.007.125.04.126.084-.068.098-.16.228-.247.367-.09.142-.163.278-.234.4-.036.013-.112-.034-.13-.077l.065-.167c.072-.176.01-.226-.34-.446l-.19-.12c-.093-.06-.1-.053-.16.04l-.3.475c-.12.19-.196.33-.176.43.016.084.064.156.4.368.504.327.66.274.99.06.053-.003.114.05.115.102-.124.142-.39.37-.51.437a39.342 39.342 0 0 0-.982-.634l-.456-.287c-.176-.11-.422-.26-.607-.367-.023-.036.016-.106.06-.114l.157.078c.2.1.243.11.493-.285l.874-1.39zm4.463 2.21c.078-.17.077-.18-.034-.23l-.24-.113c-.395-.184-.532-.193-.84.058-.042.01-.126-.044-.125-.092.173-.182.353-.4.45-.527.013-.008.032-.004.053.006.017.008.032.02.035.036-.025.11.033.142.325.277l1.75.813c.21.098.28.116.374.047.02 0 .04 0 .058.008.026.012.044.03.047.046-.12.144-.314.473-.36.606-.037.022-.113-.003-.14-.05.09-.338.045-.453-.414-.666l-.244-.113c-.113-.05-.12-.045-.2.123l-.804 1.73c-.197.426-.165.456.028.57l.147.088c.018.042-.02.112-.06.112a21.81 21.81 0 0 0-1.296-.602c-.027-.03.006-.113.045-.12l.188.064c.21.077.254.084.45-.34l.805-1.733zm3.23 2.867c-.313.315-.695.728-.846.914-.013.01-.052.006-.083-.006a.184.184 0 0 1-.077-.05 5.642 5.642 0 0 0-.01-.62l-.158-2.03c-.027-.323-.046-.396-.213-.492l-.1-.06c-.02-.04.006-.114.055-.11.17.07.36.14.535.203.2.072.354.12.592.197.03.04.01.108-.04.122l-.12-.014c-.105-.014-.148-.006-.16.028-.013.037-.01.142.022.632l.058.855c.014.216.047.504.057.616.427-.438.9-.918 1.335-1.4.13-.142.13-.18.006-.257l-.12-.075c-.02-.044.01-.11.053-.117.18.074.33.132.473.183.16.057.31.105.437.14.028.034 0 .1-.034.125l-.12-.02c-.11-.014-.217-.02-.336.074-.195.155-.424.388-.774.738l-.433.427zm1.86.113c-.147.59-.076 1.464.71 1.66.522.13 1.035-.13 1.25-.993.16-.648.033-1.476-.696-1.656-.46-.113-1.037.075-1.264.99m2.602.744c-.21.845-1.054 1.305-1.98 1.075-1.038-.258-1.466-1.088-1.276-1.852.215-.874 1.055-1.354 2.02-1.114 1.06.262 1.43 1.11 1.235 1.89M58.246 98.256a16.15 16.15 0 0 0-.232 1.22c-.007.015-.04.032-.073.04a.194.194 0 0 1-.09-.004c-.09-.16-.21-.357-.33-.52l-1.184-1.65c-.19-.262-.243-.314-.432-.31l-.113.002c-.037-.024-.054-.1-.01-.124a12.695 12.695 0 0 0 1.147-.247c.047.017.066.086.03.125l-.107.05c-.094.043-.127.073-.12.108.01.04.066.126.347.527l.492.7c.122.176.3.404.366.494.13-.597.272-1.25.387-1.89.035-.19.014-.22-.13-.22l-.136-.003c-.04-.028-.05-.098-.018-.128.187-.03.34-.06.487-.09.163-.036.312-.073.437-.11.04.015.05.084.036.124l-.11.046c-.1.044-.193.096-.242.238-.083.234-.153.552-.263 1.032l-.14.59zm2.202-.104c.127.452.17.453.388.42l.102-.015c.04.02.056.1.026.126-.2.047-.4.1-.598.154-.196.056-.405.12-.6.182-.04-.008-.066-.084-.043-.122l.094-.04c.203-.085.24-.11.113-.56l-.444-1.583c-.127-.45-.17-.452-.388-.418l-.102.014c-.04-.02-.056-.098-.026-.126a13.8 13.8 0 0 0 1.197-.336c.04.008.067.083.044.12l-.094.04c-.203.086-.24.11-.113.56l.445 1.584zm1.669-.689c.14.405.246.61.71.45.78-.27.95-.917.705-1.622-.287-.826-.93-1.052-1.66-.8-.185.065-.314.147-.336.182-.022.036.004.125.07.32l.51 1.47zm-.98-1.19c-.14-.4-.162-.45-.377-.402l-.094.025c-.038-.01-.064-.085-.036-.118.306-.134.653-.27 1.083-.418.417-.145.726-.215 1.084-.217.59 0 1.116.315 1.332.937.16.463.083 1.023-.37 1.475-.26.258-.62.44-1.018.577-.268.092-.482.14-.644.195-.167.058-.363.13-.553.205-.04-.005-.07-.078-.05-.118l.09-.047c.198-.096.234-.123.08-.565l-.53-1.528zm3.461-1.283c-.182-.432-.226-.43-.44-.372l-.07.02c-.043-.015-.07-.09-.042-.12.166-.06.368-.143.556-.222l.816-.346a7.89 7.89 0 0 0 .57-.256c.048.062.21.373.31.537-.004.04-.086.085-.13.074-.17-.207-.276-.28-.427-.256-.11.013-.24.06-.356.108l-.286.12c-.184.078-.18.087-.083.32l.292.686c.045.106.05.108.15.066l.204-.087c.373-.157.444-.192.4-.38l-.03-.15c.022-.043.103-.077.138-.054.043.11.096.262.16.412.065.155.134.294.193.422-.008.037-.09.07-.134.062l-.098-.15c-.102-.158-.178-.135-.55.022l-.205.087c-.098.042-.1.053-.056.154l.22.517c.087.208.158.35.25.393.076.035.163.037.522-.115.545-.222.59-.38.6-.773.026-.045.103-.063.147-.033.047.182.083.53.07.666-.19.07-.56.223-1.06.435l-.487.207c-.188.08-.447.194-.636.284-.04-.002-.076-.073-.058-.115l.15-.084c.193-.106.227-.134.044-.565l-.642-1.51zm3.692.045c.178.36.293.486.654.306.287-.14.452-.446.277-.798-.202-.407-.612-.504-1.073-.275-.183.09-.18.12-.14.197l.282.57zm-.463-.93c.05.103.066.1.232.018.39-.194.496-.43.318-.786-.173-.348-.512-.352-.77-.224-.207.103-.216.117-.137.276l.357.715zm-.698-.195c-.19-.38-.217-.426-.423-.348l-.114.042c-.043-.013-.074-.077-.05-.113.178-.108.47-.278.928-.505.35-.174.644-.28.883-.27.244.012.422.12.546.37.114.233.025.5-.22.736-.015.013-.018.03-.014.037.004.008.016.012.045.007.34-.11.79-.09 1.012.356.09.182.127.41.008.652-.118.25-.36.455-.833.69-.182.092-.363.166-.52.245-.184.09-.377.192-.556.29-.04.002-.08-.067-.065-.11l.086-.057c.184-.12.215-.152.008-.57l-.72-1.45zm3.891-.21c.23.408.272.4.476.315l.096-.04c.043.012.078.084.054.118a14.17 14.17 0 0 0-1.084.608c-.04.004-.083-.063-.07-.106l.082-.06c.178-.132.207-.163-.022-.572l-.805-1.434c-.23-.408-.272-.4-.476-.316l-.094.038c-.044-.01-.08-.083-.055-.116a12.466 12.466 0 0 0 1.084-.61c.042-.003.086.064.073.107l-.083.062c-.177.13-.207.162.022.57l.804 1.435zm4.33-2.102c.048-.01.095.07.06.112a15.063 15.063 0 0 0-.993.648c-.04.007-.102-.053-.078-.1l.09-.088c.142-.124.135-.16-.03-.413l-.763-1.17c-.092-.14-.18-.273-.225-.344l-.008.005c.028.272.047.418.07.615l.09.87c.038.345.112.882.156 1.102-.006.025-.064.063-.1.066a9.976 9.976 0 0 0-.812-.536l-.81-.484a19.797 19.797 0 0 1-.55-.352l-.01.005c.11.186.292.48.386.64.14.23.347.566.545.87.158.243.2.3.385.216l.142-.063c.04.005.088.075.066.11a9.817 9.817 0 0 0-.825.538c-.046.005-.09-.066-.08-.1l.06-.05c.173-.144.168-.22.044-.46-.12-.253-.27-.5-.502-.897-.15-.262-.326-.584-.474-.81-.113-.173-.222-.213-.388-.136l-.147.064c-.04-.01-.08-.083-.053-.117.12-.07.23-.135.373-.228.136-.09.272-.178.41-.283.16.21.386.337.614.473l.985.576c.07.04.294.16.4.212a8.743 8.743 0 0 0-.05-.516l-.1-.95c-.034-.325-.052-.624-.146-.912a7.174 7.174 0 0 0 .727-.474c.053-.013.107.052.083.1l-.117.1c-.156.135-.153.223-.026.42.358.547.723 1.09 1.108 1.62.174.24.233.237.367.17l.124-.052zm1.383-2.326c.102.43.25.973.326 1.198 0 .016-.024.046-.05.066a.186.186 0 0 1-.083.037 5.597 5.597 0 0 0-.525-.325l-1.787-.964c-.285-.153-.356-.176-.523-.09l-.102.053c-.045-.005-.094-.068-.066-.106.148-.104.308-.223.45-.335.165-.13.287-.23.475-.388.048-.005.095.048.08.098l-.074.092c-.066.08-.082.12-.06.15.024.03.113.084.54.32l.75.414c.187.106.446.234.546.286-.146-.593-.303-1.244-.48-1.87-.05-.184-.083-.204-.213-.14l-.126.057c-.047-.007-.087-.066-.07-.106.154-.11.28-.204.398-.296.13-.102.25-.2.346-.286.043-.006.083.052.086.094l-.077.09c-.07.082-.132.17-.115.32.03.246.105.562.216 1.042l.135.592zm1.707-.142c-.123-.012-.372-.2-.55-.406-.01-.05.047-.108.095-.11.213.113.714.297 1.053-.006.262-.235.275-.52.096-.72-.17-.19-.397-.256-.78-.162l-.22.054c-.383.094-.79.098-1.057-.2-.292-.324-.283-.83.22-1.282.18-.16.347-.24.536-.355.103.038.332.224.47.38.01.044-.05.103-.102.108-.204-.124-.522-.236-.816.027-.277.248-.237.52-.08.696.122.138.355.196.687.107l.313-.083c.325-.09.756-.108 1.054.224.336.376.275.912-.226 1.36-.316.287-.584.35-.69.37M81.303 85.525c.162.15.285.25.388.25.084.002.16-.03.412-.3.35-.38.384-.448.195-.914.014-.048.075-.093.117-.087.11.153.288.457.338.58-.138.136-.413.426-.765.807l-.327.355c-.16.173-.315.347-.44.496-.04.016-.113-.034-.1-.08l.078-.116c.13-.178.147-.217-.19-.53L79.8 84.87c-.337-.313-.375-.292-.546-.153l-.103.083c-.037.01-.102-.052-.086-.094a16.217 16.217 0 0 0 .864-.934c.04-.018.11.038.1.08l-.057.087c-.124.18-.143.22.194.532l1.14 1.053zm1.827-2.675c.195.398.457.895.58 1.1.005.014-.01.048-.032.074a.176.176 0 0 1-.073.054 5.606 5.606 0 0 0-.583-.2l-1.954-.55c-.312-.088-.386-.095-.53.026l-.09.072c-.043.005-.105-.045-.086-.09a13.8 13.8 0 0 0 .744-.905c.047-.017.104.024.102.076l-.052.106c-.048.093-.054.136-.027.158.03.026.13.058.598.197l.82.24c.208.06.488.13.597.158-.272-.547-.567-1.15-.877-1.72-.09-.17-.125-.18-.237-.092l-.11.084c-.047.003-.1-.045-.092-.088.127-.143.23-.262.325-.377.106-.13.2-.25.275-.357.04-.014.092.034.106.074l-.057.104c-.05.097-.09.195-.042.338.082.234.226.526.44.97l.256.548zm3.79-3.657c.04-.03.115.027.1.08-.118.16-.222.307-.326.46-.12.183-.23.35-.336.525-.035.02-.115-.01-.11-.064l.05-.117c.082-.17.06-.2-.19-.367l-1.16-.78-.34-.228-.005.008c.132.24.206.367.304.54l.423.764c.17.304.447.77.572.954.005.026-.034.083-.067.1a9.385 9.385 0 0 0-.956-.178l-.936-.13a25.844 25.844 0 0 1-.645-.11l-.006.007c.175.13.456.33.605.44.217.157.54.384.84.586.242.163.303.198.44.05l.107-.112c.04-.01.11.036.104.076a9.19 9.19 0 0 0-.548.817c-.04.02-.112-.025-.114-.06l.037-.07c.102-.2.068-.27-.14-.442-.21-.185-.443-.353-.812-.63-.24-.182-.528-.41-.752-.56-.172-.116-.288-.11-.41.025l-.11.117c-.042.005-.11-.045-.096-.087.085-.11.16-.212.254-.355a6.9 6.9 0 0 0 .266-.42c.23.133.49.162.75.198l1.133.146c.083.01.334.034.452.04a8.781 8.781 0 0 0-.248-.456l-.46-.835c-.16-.286-.293-.555-.49-.783.076-.098.166-.223.222-.308.11-.16.196-.3.26-.41.044-.034.12.006.115.06l-.068.138c-.092.184-.055.265.138.396.543.365 1.09.722 1.652 1.06.254.153.308.128.405.015l.093-.097zm-1.423-1.919c-.41-.226-.442-.195-.575-.02l-.043.062c-.044.014-.11-.03-.11-.07.093-.15.202-.34.3-.518l.427-.777c.143-.26.268-.497.29-.555.075.02.394.164.574.23.023.034-.014.12-.055.14-.26-.06-.39-.052-.493.062-.08.08-.153.196-.214.306l-.15.273c-.096.174-.088.18.132.3l.655.36c.1.054.107.052.158-.04l.108-.196c.195-.354.23-.425.078-.545l-.116-.1c-.01-.048.033-.125.075-.13.102.063.237.147.38.226.147.082.287.15.414.212.017.035-.026.113-.067.132l-.17-.057c-.18-.06-.225.005-.42.358l-.107.195c-.05.094-.046.102.05.155l.493.27c.196.108.34.177.44.152.08-.02.15-.07.337-.413.292-.513.23-.664-.007-.978-.007-.052.043-.114.095-.117.15.112.394.364.467.478-.106.175-.302.523-.563.998l-.256.464c-.098.178-.23.43-.323.617-.032.024-.105-.01-.116-.054l.067-.16c.086-.2.095-.244-.315-.47l-1.438-.79zm3.733-4.109c.122.054.618.278.716.307.03.054.018.12-.01.17-.114.028-.307.09-.774.245l-1.522.505c-.418.143-.632.21-.725.254-.006.012.04.032.252.13l.786.353c.302.135.675.298.828.28.078-.01.135-.072.2-.17l.053-.088c.045-.026.12.013.113.06a10.04 10.04 0 0 0-.416.923c-.035.025-.108.003-.12-.044l.02-.1c.025-.087.044-.17-.008-.23-.1-.11-.45-.268-.77-.412l-.954-.43c-.314-.142-.377-.175-.558-.083a.758.758 0 0 0-.182.188l-.04.058c-.038.02-.117-.02-.11-.07.09-.153.19-.387.238-.492.04-.09.082-.192.12-.298.204.006.92-.226 1.14-.305l.626-.227c.266-.094.87-.295.913-.326-.007-.018-.026-.028-.09-.056l-.787-.355c-.302-.135-.675-.297-.83-.276-.078.01-.132.068-.197.166l-.054.092c-.046.026-.12-.013-.113-.06.083-.162.157-.317.232-.482.082-.182.127-.294.188-.45.035-.024.108-.002.12.045l-.023.106c-.024.087-.04.166.01.225.1.115.45.273.768.417l.963.433z"/><path d="M49.92 21.31H19.975l-.193 18.676c-.25 9.17 3.63 18.892 3.63 18.892C30.75 78.324 49.92 88.063 49.92 88.063m0-66.752h29.945l.193 18.676c.25 9.17-3.63 18.892-3.63 18.892C69.09 78.324 49.92 88.063 49.92 88.063" fill="none" stroke="#000" stroke-width=".96" stroke-miterlimit="8"/><path d="M71.26 38.055c-.52.144-.843-.07-.842-.488 0-.33.055-.65.263-.81 0 0 .998-.005 1.1-.094.103-.088.183-.688.164-.808-.02-.12-1.087.098-1.145-.02-.057-.114.274-.795.215-.91-.06-.115-.865.005-.865.005-.105.05-.2.866-.302.95-.102.082-.865-.03-.96.053-.096.086-.258.743-.198.828.06.084.905-.044.974.046.082.267-.174.72-.487.992-.228.2-.478.317-.79.317-.477-.003-1.05-.658-1.23-1.688-.127-.72.095-2.023.42-2.68.714-1.44.217-1.428.494-1.516 1.192-.378 1.942-.757 2.884-1.037.9-.267 1.622-.417 2.458-.098 1.37.522 1.137 2.042.617 3.108-.712 1.45-1.806 3.582-2.77 3.852m-5.923-1.628c-.18 1.03-.753 1.685-1.23 1.688-.312 0-.563-.117-.79-.317-.314-.274-.57-.725-.487-.992.07-.09.914.04.975-.045.06-.084-.104-.74-.2-.827-.095-.085-.858.03-.96-.054-.102-.084-.196-.9-.3-.95 0 0-.807-.12-.866-.005-.06.115.27.796.215.91-.057.118-1.126-.1-1.145.02-.018.12.062.72.164.808.103.09 1.1.095 1.1.095.207.158.26.48.262.81.002.416-.323.63-.84.487-.967-.27-2.06-2.403-2.77-3.853-.52-1.066-.755-2.586.617-3.108.836-.32 1.56-.17 2.457.098.942.28 1.692.66 2.883 1.038.277.09-.22.075.49 1.515.328.66.55 1.963.424 2.682m10.182-4.544c-.197-1.14-1.12-1.934-2.245-2.024-2.014-.162-3.75.915-5.705 1.26-.156.027-.365-.306-.557-.496.907-.682.784-2.02-.265-2.6-.072-.082-.046-.852-.005-.887.085-.07.754.058.85-.026.094-.082.074-.883.014-.96-.06-.078-.815.005-.857-.046-.043-.052.02-.775-.05-.832-.07-.056-.442-.043-.454-.043-.01 0-.383-.014-.453.042s-.008.78-.05.832c-.043.05-.798-.032-.858.045-.06.076-.08.878.014.96.095.085.764-.044.85.027.04.035.067.805-.006.888-1.05.58-1.172 1.917-.266 2.6-.19.19-.4.522-.556.494-1.954-.345-3.692-1.422-5.707-1.26-1.126.09-2.046.883-2.243 2.023-.352 2.052 1.122 3.63 1.838 5.372.226.55.425 1.29.39 1.925h14.09c-.036-.636.163-1.375.39-1.925.717-1.74 2.192-3.32 1.84-5.372M66.245 40.134h-7.203v1.21H73.45v-1.21zM55.383 74.287c-.518.144-.842-.07-.84-.488 0-.33.054-.652.262-.81 0 0 .997-.006 1.1-.095.102-.088.182-.688.163-.808-.02-.12-1.087.098-1.144-.02-.056-.114.275-.795.216-.91-.06-.115-.865.005-.865.005-.105.05-.2.866-.3.95-.104.082-.867-.03-.96.053-.097.085-.26.743-.2.828.06.083.905-.045.975.045.08.267-.174.72-.488.992-.227.2-.478.317-.79.316-.477-.003-1.05-.657-1.23-1.688-.127-.72.096-2.023.422-2.682.713-1.44.216-1.426.493-1.515 1.19-.378 1.942-.757 2.883-1.037.9-.267 1.622-.418 2.458-.098 1.37.522 1.138 2.042.616 3.108-.712 1.45-1.806 3.584-2.77 3.854M49.46 72.66c-.18 1.03-.753 1.684-1.23 1.687-.312 0-.563-.116-.79-.316-.314-.273-.57-.724-.487-.99.07-.09.914.038.975-.046.06-.085-.103-.743-.2-.828-.095-.085-.858.03-.96-.054-.102-.083-.196-.9-.3-.95 0 0-.807-.12-.866-.004-.06.115.272.796.216.91-.057.118-1.126-.1-1.145.02-.018.12.062.72.164.808.102.09 1.1.095 1.1.095.206.16.26.48.26.81.003.417-.322.632-.84.488-.966-.27-2.06-2.403-2.77-3.853-.52-1.066-.753-2.586.618-3.108.836-.32 1.558-.17 2.458.098.94.28 1.692.66 2.883 1.038.275.09-.222.075.49 1.515.325.658.548 1.962.422 2.68m10.18-4.543c-.195-1.14-1.116-1.934-2.242-2.024-2.014-.16-3.752.917-5.706 1.26-.156.03-.365-.303-.557-.494.907-.682.784-2.02-.265-2.6-.07-.082-.046-.852-.005-.887.085-.073.755.056.85-.027.094-.083.074-.885.015-.962-.06-.076-.816.007-.858-.044-.043-.053.022-.775-.05-.832-.07-.056-.44-.043-.454-.043-.012 0-.383-.01-.453.044-.072.057-.008.78-.05.832-.043.05-.798-.03-.86.045-.06.078-.078.88.017.963.095.083.764-.045.85.026.04.034.067.804-.006.887-1.05.58-1.172 1.917-.266 2.6-.19.19-.4.522-.556.494-1.953-.343-3.692-1.42-5.706-1.26-1.127.092-2.046.885-2.243 2.025-.352 2.052 1.122 3.63 1.837 5.372.227.55.426 1.29.39 1.925h14.091c-.036-.636.162-1.375.39-1.925.717-1.742 2.192-3.32 1.84-5.372M50.37 76.366h-7.204v1.21h14.406v-1.21z" fill="#fff"/><path d="m49.544 88.41.363.2.33-.174-.173-.677-.297.115zm-26.268-81c-1.063-.954-1.326-2.204-1.326-3.245 0-.734.252-2.016 1.227-2.992C23.837.515 24.833 0 26.52 0a9.38 9.38 0 0 1 1.59.132c.415.077.755.11 1.16.164.078.01.1.055.1.12 0 .088-.033.22-.055.615-.022.363-.022.965-.033 1.13-.01.165-.033.23-.1.23-.076 0-.086-.077-.086-.23 0-.427-.176-.877-.46-1.118-.384-.33-1.228-.625-2.193-.625-1.458 0-2.137.427-2.52.8-.8.767-.987 1.743-.987 2.86 0 2.094 1.61 4.012 3.956 4.012.822 0 1.468-.1 1.907-.55.23-.24.37-.723.404-.92.022-.12.044-.164.11-.164.055 0 .077.077.077.164 0 .077-.13 1.03-.24 1.403-.066.208-.088.23-.285.318-.438.176-1.27.253-1.973.253-1.643 0-2.75-.406-3.616-1.184zM30.28 4.9c0-1.46 1.13-3.64 3.836-3.64 2.17 0 3.825 1.293 3.825 3.496 0 2.093-1.544 3.803-3.878 3.803-2.686 0-3.782-1.995-3.782-3.66zm6.63.13c0-2.202-1.36-3.43-2.86-3.43-1.523 0-2.75.944-2.75 3.015 0 2.148 1.194 3.573 3.035 3.573.735 0 2.575-.374 2.575-3.157zm3.652.724c0 1.26.044 1.896.23 2.07.176.154.395.22 1.15.22.483 0 .922 0 1.163-.307.11-.165.186-.384.208-.548.01-.09.033-.133.087-.133.044 0 .066.033.066.143 0 .11-.066.734-.132.986-.066.22-.055.274-.58.274-.746 0-1.568-.055-2.664-.055-.362 0-.58.033-.964.033-.11 0-.175-.022-.175-.088 0-.033.034-.066.12-.066.09 0 .177 0 .264-.022.186-.033.252-.252.285-.515.065-.416.043-1.173.043-2.016V4.09c0-1.447 0-1.688-.022-1.984-.02-.307-.064-.504-.437-.548-.066-.01-.186-.01-.274-.01-.078 0-.12-.034-.12-.078 0-.055.054-.077.163-.077.46 0 1.118.034 1.14.034.153 0 .822-.033 1.13-.033.11 0 .142.034.142.078s-.055.077-.12.077c-.077 0-.186.01-.296.022-.308.044-.374.22-.396.537-.022.296-.01.537-.01 1.984v1.666zm4.888-.362c0 1.337.252 1.907.668 2.28.47.416.997.503 1.447.503.57 0 1.085-.153 1.5-.635.44-.504.538-1.337.538-2.29V4.087c0-1.436 0-1.688-.022-1.984-.02-.318-.054-.482-.404-.537a2.71 2.71 0 0 0-.306-.022c-.066 0-.11-.033-.11-.066 0-.067.055-.09.153-.09.47 0 1.02.034 1.063.034.055 0 .526-.033.833-.033.11 0 .153.023.153.078 0 .044-.044.077-.11.077s-.088 0-.197.01c-.307.034-.35.23-.373.55-.01.295-.01.547-.01 1.983v.975c0 .986-.11 2.17-.89 2.84-.71.602-1.413.657-2.005.657-.307 0-1.337 0-2.05-.658-.47-.438-.81-1.096-.81-2.455v-1.36c0-1.446 0-1.698-.033-1.994-.01-.296-.066-.482-.405-.526a2.33 2.33 0 0 0-.285-.022c-.077 0-.12-.033-.12-.066 0-.067.043-.09.164-.09.47 0 1.062.034 1.14.034.087 0 .733-.033 1.03-.033.12 0 .152.023.152.078s-.077.077-.13.077c-.067 0-.155.01-.242.022-.263.033-.307.22-.33.526-.01.296-.01.548-.01 1.995v1.304zm14.544 1.841c.033.263.1.877.526.975.186.044.405.066.56.077.043 0 .14.01.14.066s-.043.09-.163.09c-.197 0-1.38-.045-1.732-.067-.24-.022-.33-.044-.33-.1 0-.032.045-.076.1-.098.054-.022.088-.153.066-.307l-.48-4.69-2.324 4.713c-.208.428-.24.527-.34.527-.065 0-.12-.1-.33-.47-.175-.32-1.05-2.073-1.117-2.17-.067-.133-1.14-2.26-1.228-2.49l-.406 4.22c-.01.153-.01.252-.01.416 0 .12.054.285.273.33.12.02.196.02.306.032.088.01.11.044.11.066 0 .078-.065.09-.186.09-.35 0-.822-.034-.91-.034-.11 0-.57.033-.844.033-.1 0-.165-.012-.165-.09 0-.02.045-.065.144-.065.076 0 .088 0 .208-.01.263-.023.36-.286.416-.724l.734-6.016c.022-.186.066-.274.12-.274.055 0 .088.033.165.176l2.937 5.688 2.795-5.677c.054-.12.098-.186.164-.186s.1.1.11.275l.69 5.698zm2.586-3.145c0-1.436 0-1.71-.02-2.006-.023-.296-.1-.45-.428-.515a4.93 4.93 0 0 0-.263-.022c-.1 0-.144-.033-.144-.077 0-.055.066-.077.165-.077.46 0 1.12.034 1.14.034.264 0 .626-.033 1.053-.033 1.644 0 1.972.91 1.972 1.382 0 .81-.46 1.326-.92 1.688.735.22 1.677.888 1.677 1.962 0 1.02-.822 2.04-2.488 2.04-.176 0-.395-.023-.68-.023-.307-.023-.57-.034-.614-.034-.34 0-.625.033-.986.033-.1 0-.153-.023-.153-.067 0-.033.012-.087.154-.087.077 0 .11 0 .197-.022.188-.034.254-.264.286-.526.055-.405.055-1.15.055-2.006V4.088zm.856.197c0 .077.022.088.055.11.066.01.187.033.55.033.558 0 .722-.033.93-.263.176-.208.285-.515.285-.877 0-.756-.34-1.6-1.27-1.6-.09 0-.32.022-.417.055-.1.022-.132.044-.132.1v2.442zm0 .943c0 .69 0 1.896.01 1.983.034.483.023.626.352.768.263.132.7.143.81.143.472 0 1.294-.23 1.294-1.237 0-.56-.197-1.403-.943-1.907a1.513 1.513 0 0 0-.746-.24 3.792 3.792 0 0 0-.723 0c-.032 0-.054.01-.054.065v.428zm5.324-1.14c0-1.447 0-1.71-.022-2.006-.022-.296-.087-.46-.318-.504-.11-.022-.186-.022-.252-.033-.077-.01-.12-.033-.12-.077 0-.055.044-.077.164-.077.34 0 .965.034.997.034.043 0 .68-.033.985-.033.11 0 .165.023.165.078 0 .044-.033.066-.12.077-.066.01-.12.01-.198.022-.318.044-.35.208-.373.526-.023.296-.012.548-.012 1.995v1.644c0 .844-.01 1.61.044 2.006.044.318.088.438.373.504.142.033.373.044.416.044.1.01.12.033.12.077s-.043.077-.152.077c-.56 0-1.195-.033-1.25-.033-.033 0-.68.033-.986.033-.1 0-.175-.022-.175-.077 0-.044.044-.077.142-.077.054 0 .175-.01.262-.033.186-.044.22-.263.252-.526.055-.394.055-1.173.055-1.994V4.088zm4.505 1.677c-.055 0-.088.033-.11.088l-.482 1.37c-.11.306-.187.602-.187.777 0 .197.12.285.362.285h.077c.1 0 .13.033.13.077 0 .055-.087.077-.164.077-.24 0-.744-.034-.864-.034-.11 0-.592.033-1.052.033-.12 0-.176-.023-.176-.078 0-.044.044-.077.132-.077.054 0 .153 0 .22-.01.47-.045.656-.406.843-.867l2.192-5.776c.12-.318.154-.373.23-.373.055 0 .1.043.22.35.153.362 1.644 4.187 2.225 5.556.362.866.68 1.008.833 1.063.143.054.296.054.373.054s.13.022.13.077c0 .056-.043.078-.163.078-.11 0-.932 0-1.666-.022-.208-.01-.274-.022-.274-.077 0-.034.033-.067.077-.078.044-.022.11-.077.044-.24l-.865-2.204c-.023-.033-.045-.055-.09-.055h-1.995zm1.863-.384c.044 0 .044-.032.033-.065l-.865-2.422c-.054-.153-.065-.153-.12 0l-.822 2.422c-.022.044 0 .066.022.066h1.753zM20.37 14.905c0 1.578.352 2.258.823 2.707.537.504 1.03.603 1.655.603a2.3 2.3 0 0 0 1.72-.79c.505-.624.637-1.555.637-2.684v-1.37c0-1.71 0-2.016-.022-2.366-.022-.372-.11-.548-.47-.625a1.986 1.986 0 0 0-.374-.034c-.045 0-.088-.022-.088-.066 0-.066.055-.088.175-.088.493 0 1.096.033 1.162.033.076 0 .59-.033.92-.033.12 0 .175.022.175.088 0 .044-.044.066-.087.066-.077 0-.143.01-.274.033-.296.065-.384.24-.405.624-.023.35-.023.658-.023 2.367v1.174c0 1.184-.132 2.5-1.01 3.277-.788.702-1.61.812-2.257.812-.372 0-1.48-.044-2.258-.778-.537-.515-.953-1.282-.953-2.882v-1.6c0-1.71 0-2.017-.023-2.367-.022-.372-.11-.548-.47-.625a2.054 2.054 0 0 0-.373-.033c-.044 0-.088-.022-.088-.066 0-.065.055-.087.176-.087.493 0 1.162.033 1.26.033s.756-.033 1.085-.033c.12 0 .175.022.175.088 0 .045-.044.067-.088.067-.077 0-.143.01-.274.033-.296.044-.384.24-.405.625-.022.35-.022.658-.022 2.367v1.533zM28 11.748c0-.34.032-.45.12-.45.076 0 .262.22.34.297.098.11 1.62 1.666 3.155 3.233.855.833 1.95 1.962 2.236 2.225l-.12-4.56c-.01-.59-.077-.788-.372-.865a2.732 2.732 0 0 0-.428-.044c-.11 0-.13-.044-.13-.088 0-.055.087-.066.196-.066.47 0 .93.033 1.03.033.11 0 .45-.033.877-.033.12 0 .153.01.153.066 0 .044-.033.077-.1.088-.065.01-.152.01-.273.033-.252.055-.33.164-.33.822l-.02 5.5c0 .55-.023.604-.1.604-.077 0-.186-.077-.723-.58-.044-.023-1.567-1.535-2.52-2.467-1.14-1.183-2.237-2.323-2.51-2.608l.14 4.284c.023.756.09 1.04.363 1.107.175.045.362.045.45.045.086 0 .13.033.13.077 0 .055-.055.077-.175.077-.592 0-.986-.034-1.063-.034-.077 0-.482.033-.953.033-.1 0-.165-.012-.165-.078 0-.044.044-.077.153-.077.077 0 .197 0 .34-.044.24-.076.296-.372.296-1.172.003-5.228.014-3.54.003-5.36zm8.932 2.379c0-1.447 0-1.71-.022-2.006-.022-.295-.087-.46-.318-.503-.11-.022-.186-.022-.252-.033-.077-.01-.12-.033-.12-.077 0-.055.044-.077.164-.077.34 0 .964.033.997.033.045 0 .68-.033.987-.033.11 0 .164.022.164.077 0 .044-.032.066-.12.077-.066.01-.12.01-.197.022-.318.044-.35.208-.373.526-.022.296-.01.548-.01 1.995v1.644c0 .845-.012 1.612.043 2.007.044.318.087.438.372.504.143.034.373.045.416.045.1.01.122.033.122.077s-.044.077-.153.077c-.56 0-1.196-.034-1.25-.034-.033 0-.68.033-.986.033-.1 0-.175-.023-.175-.078 0-.044.043-.077.142-.077.055 0 .175-.01.263-.033.186-.044.22-.263.252-.526.055-.394.055-1.173.055-1.994v-1.645zm3.2-1.797c-.22-.516-.296-.648-.69-.713a2.849 2.849 0 0 0-.33-.033c-.087 0-.13-.033-.13-.077 0-.055.077-.077.175-.077.504 0 1.14.033 1.25.033.098 0 .613-.033 1.018-.033.132 0 .176.022.176.066 0 .055-.043.088-.163.088a.91.91 0 0 0-.34.055c-.1.054-.1.12-.1.185 0 .077.067.285.176.548l1.93 4.844c.547-1.217 1.807-4.395 2.005-5.052a1.2 1.2 0 0 0 .088-.362c0-.066-.01-.142-.1-.175a1.128 1.128 0 0 0-.35-.044c-.077 0-.143-.022-.143-.066 0-.055.033-.088.164-.088.395 0 .92.033 1.04.033.045 0 .483-.033.757-.033.11 0 .164.022.164.066 0 .055-.044.088-.12.088-.132 0-.274 0-.47.11-.12.088-.253.22-.516.855-.055.13-.603 1.39-1.096 2.52-.58 1.36-1.03 2.39-1.216 2.762-.296.603-.33.767-.438.767-.13 0-.186-.133-.372-.615l-2.368-5.656zm7.718 1.797c0-1.436 0-1.7-.023-1.995-.022-.307-.098-.46-.416-.526a1.933 1.933 0 0 0-.262-.022c-.077 0-.143-.033-.143-.066 0-.066.055-.088.164-.088.218 0 .514.022 1.128.033.055 0 2.006 0 2.225-.01.22-.012.34-.023.428-.056.066-.022.077-.033.12-.033.023 0 .045.022.045.077 0 .067-.065.22-.088.494-.01.186-.022.362-.033.57 0 .1-.022.165-.077.165-.054 0-.076-.045-.076-.122a1.017 1.017 0 0 0-.076-.35c-.066-.22-.165-.297-.713-.33a65.676 65.676 0 0 0-1.248-.022c-.033 0-.055.022-.055.088v2.488c0 .066.01.11.066.11.132 0 1.25-.01 1.48-.033.252-.012.416-.045.504-.165.044-.066.077-.088.12-.088.022 0 .044.01.044.066 0 .055-.043.263-.076.58-.033.308-.033.527-.044.67-.012.087-.033.12-.077.12-.055 0-.066-.066-.066-.143 0-.066-.01-.175-.033-.263-.044-.143-.11-.296-.526-.33-.252-.02-1.14-.043-1.315-.043-.066 0-.077.033-.077.077v.8c0 .34-.01 1.305 0 1.492.022.405.077.614.307.712.164.077.427.1.8.1.208 0 .56.01.833-.067.33-.098.405-.318.493-.723.02-.11.054-.153.098-.153.066 0 .066.1.066.165 0 .077-.088.767-.12.953-.045.22-.12.24-.483.24-.723 0-1.03-.02-1.413-.02-.383-.012-.887-.034-1.293-.034-.252 0-.46.033-.723.033-.098 0-.152-.022-.152-.077 0-.044.044-.077.1-.077a.77.77 0 0 0 .218-.033c.197-.044.33-.186.35-.866.012-.373.023-.822.023-1.655v-1.643zm5.676 0c0-1.447 0-1.71-.022-2.006-.022-.295-.1-.46-.44-.525a1.933 1.933 0 0 0-.262-.022c-.077 0-.12-.022-.12-.066 0-.044.032-.077.13-.077.472 0 1.14.033 1.162.033.1 0 .844-.033 1.15-.033.615 0 1.283.055 1.798.416.208.153.657.592.657 1.337 0 .603-.297 1.37-1.162 2.07.8.987 1.457 1.798 2.016 2.38.526.536.854.624 1.16.667.078.01.308.022.34.022.09 0 .12.033.12.077 0 .054-.043.076-.196.076h-.767c-.514 0-.755-.033-.996-.132-.46-.197-.79-.69-1.36-1.425-.426-.527-.865-1.12-1.05-1.35-.045-.043-.066-.065-.132-.065l-1.13-.01c-.043 0-.054.01-.054.054v.152c0 .877 0 1.677.055 2.072.033.263.065.482.427.526.11.01.23.022.318.022.1 0 .143.033.143.066 0 .055-.043.088-.153.088-.57 0-1.184-.033-1.227-.033-.176 0-.658.033-.954.033-.11 0-.153-.022-.153-.088 0-.033.065-.066.13-.066.078 0 .155 0 .242-.022.186-.033.252-.153.284-.416.054-.395.043-1.293.043-2.115v-1.643zm.844.778c0 .055.01.11.055.132.142.077.58.143.976.143.23 0 .505-.01.735-.164.33-.208.548-.69.548-1.392 0-1.195-.635-1.852-1.61-1.852-.275 0-.505.022-.636.055-.033.01-.066.044-.066.1v2.978zm5.643 3.452c-.142-.066-.142-.11-.142-.372 0-.504.034-.877.045-1.03.01-.1.033-.153.088-.153.055 0 .077.033.077.11 0 .066 0 .197.033.33.143.71.79.985 1.425.985.91 0 1.348-.625 1.348-1.173 0-.625-.285-1.008-1.085-1.655l-.437-.34c-1.052-.845-1.27-1.426-1.27-2.072 0-1.008.8-1.688 2.026-1.688.383 0 .646.033.887.088.208.044.296.055.373.055.077 0 .1.022.1.066 0 .043-.045.426-.045 1.062 0 .164-.022.23-.076.23-.056 0-.067-.044-.078-.12-.01-.1-.033-.33-.13-.515-.056-.1-.308-.515-1.23-.515-.656 0-1.15.395-1.15 1.052 0 .515.264.833 1.173 1.524l.252.197c1.14.877 1.435 1.458 1.435 2.236a1.92 1.92 0 0 1-.833 1.557c-.428.274-.954.384-1.48.384-.463-.002-.89-.057-1.307-.243zm5.667-4.23c0-1.447 0-1.71-.023-2.006-.022-.295-.088-.46-.318-.503-.11-.022-.187-.022-.253-.033-.076-.01-.12-.033-.12-.077 0-.055.044-.077.165-.077.34 0 .964.033.997.033.043 0 .678-.033.985-.033.11 0 .164.022.164.077 0 .044-.034.066-.12.077-.067.01-.12.01-.198.022-.318.044-.35.208-.373.526-.023.296-.012.548-.012 1.995v1.644c0 .845-.01 1.612.044 2.007.044.318.087.438.372.504.143.034.373.045.416.045.1.01.12.033.12.077s-.043.077-.153.077c-.56 0-1.195-.034-1.25-.034-.032 0-.68.033-.985.033-.1 0-.176-.023-.176-.078 0-.044.044-.077.143-.077.053 0 .174-.01.262-.033.186-.044.22-.263.252-.526.054-.394.054-1.173.054-1.994v-1.645zm6.262 1.643c0 .845.01 1.623.055 2.028.033.263.054.416.33.482.13.033.338.044.426.044s.13.033.13.066c0 .055-.032.088-.14.088-.56 0-1.207-.033-1.25-.033-.044 0-.69.033-.976.033-.12 0-.165-.022-.165-.077 0-.032.033-.076.12-.076.088 0 .154 0 .24-.01.21-.034.242-.165.286-.538.044-.395.044-1.184.044-2.006v-3.912c-.362 0-.942 0-1.38.01-.702.012-.855.12-1.01.352-.098.153-.14.285-.163.34-.034.077-.056.087-.1.087-.044 0-.055-.044-.055-.1-.01-.065.154-.788.22-1.084.032-.132.065-.176.098-.176.077 0 .285.1.482.12.384.045.69.056.7.056h3.596c.308 0 .636-.022.79-.055.142-.033.176-.044.208-.044.044 0 .066.055.066.1 0 .306-.022 1.03-.022 1.117 0 .1-.044.133-.076.133-.055 0-.077-.044-.077-.132 0-.032 0-.043-.012-.152-.044-.438-.186-.548-1.293-.56-.416 0-.756-.01-1.074-.01v3.913zm5.578.318c0-.526-.075-.723-.24-1.008-.066-.12-1.337-2.192-1.677-2.663-.296-.417-.405-.548-.56-.67-.153-.11-.295-.152-.515-.163-.065 0-.12-.033-.12-.088 0-.033.044-.066.132-.066.175 0 1.008.033 1.03.033.066 0 .427-.033.833-.033.11 0 .143.033.143.066 0 .044-.033.066-.12.088-.154.033-.176.088-.176.176 0 .11.065.22.142.362.142.274 1.59 2.597 1.754 2.87.175-.383 1.403-2.388 1.556-2.662.208-.362.252-.46.252-.58 0-.143-.132-.143-.252-.165-.088-.01-.12-.044-.12-.088 0-.033.022-.066.13-.066.264 0 .494.034.67.034.142 0 .778-.033.964-.033.1 0 .132.034.132.067 0 .055-.055.088-.132.088-.23.01-.394.033-.548.143-.165.11-.23.208-.405.45-.635.876-1.7 2.662-1.863 3.046-.13.34-.11.58-.11.866v.8c0 .077 0 .482.022.877.022.263.044.45.383.515.143.033.33.044.405.044.088 0 .12.033.12.066 0 .055-.032.088-.13.088-.55 0-1.228-.033-1.26-.033-.023 0-.68.033-.987.033-.11 0-.154-.033-.154-.088 0-.033.032-.066.11-.066.087 0 .185-.01.273-.033.186-.033.263-.263.285-.526.033-.394.033-.79.033-.877v-.802z"/></svg>