<svg xmlns="http://www.w3.org/2000/svg" viewBox="0 0 1000 520" enable-background="new 0 0 1000 520"><g><path d="M8.175 184.755c23.98-35.97 26.16-61.04 35.97-70.305 0-10.9 7.63-25.07 8.175-29.975 8.175-11.99 11.445-42.51 27.25-57.225 2.725-14.715 16.895-16.895 21.255-23.98 4.36 0 10.355 4.36 10.355 9.265 0 22.345-10.355 22.345-10.355 34.335 0 4.36 0 6.54 1.635 6.54s18.53-20.165 23.98-22.345c22.345-9.81 22.345-24.525 46.87-24.525 4.905 0 4.905-6.54 13.08-6.54 5.995 0 8.175 3.27 34.335 9.265 6.54 7.63 14.17 8.175 20.71 19.075 10.355 4.36 10.355 16.895 20.71 22.89 4.905 15.26 26.705 31.61 26.705 94.83-5.45 32.155-3.815 53.41-28.885 103.005-7.63 5.995-9.81 21.255-32.7 41.42-3.27 14.17-23.98 23.98-33.79 39.785-19.075 12.535-30.52 22.345-46.87 35.97-28.885 7.63-33.245 18.53-63.765 18.53-14.715-3.815-34.335-2.725-48.505-24.525-17.44-24.525-14.17-39.785-19.62-68.67 0-4.905 2.18-11.445 2.18-13.625 0-23.98 0-37.06 5.45-44.69 0-19.075-1.09-20.165-3.27-20.165-3.27 0-3.815 14.715-10.355 14.715-4.905 0-8.72-1.09-8.72-6.54 0-11.444 2.18-29.43 8.175-36.515zm55.59 74.666c0 3.816 3.27 24.526 5.45 37.606 4.905 5.45 13.625 40.875 37.605 40.875 13.625-1.634 26.705-3.27 32.7-8.72 29.43-13.624 31.61-26.704 51.23-40.33 10.355-15.804 24.525-30.52 28.34-41.964 5.45-16.35 8.175-27.25 13.08-29.43 0-13.08 8.72-31.61 8.72-49.595 0-6.54-3.27-19.62-3.27-28.34 0-2.18 0-5.45.545-9.264-9.81-10.355-3.815-21.8-29.43-49.05-1.635-8.175-27.25-18.53-43.6-18.53-14.17 0-40.33 11.99-47.415 16.35-6.54 3.815-25.07 22.345-34.88 35.425-7.085 41.42-17.44 53.956-17.44 123.17 0 7.086-1.635 12.536-1.635 21.8zM505.754 286.67c0 7.086 1.09 13.626 1.09 15.806 0 1.635-1.635 4.36-1.635 7.63 0 2.18 1.09 4.36 1.09 7.63 0 5.45-8.175 7.63-14.17 14.715-15.805 10.9-23.98 15.26-31.065 15.26-2.18 0-5.45-1.634-7.085-1.634s-5.45 1.635-8.175 1.635c-7.63 0-20.71-8.174-24.525-17.984-9.81-6.54-3.815-35.425-11.445-35.425-3.815 0-17.985 13.08-21.8 19.62-9.265.546-15.26 19.076-32.155 27.25-10.9 14.716-26.16 17.986-34.88 26.16-7.63.546-11.445 4.36-16.35 4.36-4.905 0-16.35-6.54-19.62-9.264-3.815-10.355-3.815-14.17-3.815-17.44 0-10.9 5.45-18.53 5.45-21.255 0-2.18-4.905-3.27-6.54-3.27 0-28.884 0-35.97 10.9-42.51 10.355-6.54 20.165-21.8 26.16-23.434 8.72-13.08 11.99-16.895 22.89-23.435 5.995-11.99 27.25-20.164 40.33-35.97 6.54-1.634 12.535-7.63 17.985-14.17 18.53-11.444 32.7-27.25 51.23-27.25 10.9 0 11.99 7.086 17.44 11.99-1.635 12.536-10.9 23.436-22.89 27.25-7.085 14.716-18.53 17.986-29.43 29.976-3.27 6.54-9.81 11.99-18.53 17.985-4.905 8.176-13.08 16.896-19.62 19.62-5.45 11.446-22.89 22.89-31.61 36.516-1.09 5.45-5.995 7.085-5.995 13.625 10.9 0 16.895-11.444 29.975-17.44 2.18-4.904 15.805-20.164 31.065-27.25 8.175-13.624 23.435-20.71 31.065-28.34 7.085-1.634 14.17-2.18 17.985-2.18 9.81 0 4.905 17.44 10.355 23.436 0 6.54-2.18 9.265-2.18 19.62 0 11.445 7.085 23.98 19.62 23.98 10.355 0 11.99-6.54 15.805-6.54 8.175-4.36 8.72-10.9 11.445-10.9l1.634 1.635zM632.193 190.75c1.09 6.54 1.09 11.446 1.09 16.35 0 5.996 0 13.08-2.18 16.896 0 34.335-10.9 58.315-10.9 62.675 0 9.266-13.08 28.886-13.08 43.056 0 2.18.545 3.27 1.635 3.27 8.72 0 30.52-25.615 33.79-26.705 17.985-21.8 19.62-22.89 21.8-22.89 1.09 0 1.635 1.09 1.635 2.18 0 1.636-1.635 5.45-1.635 8.72 0 2.726 2.725 12.536 2.725 19.076 0 5.45-11.445 17.985-13.625 18.53-9.81 14.715-24.525 22.345-40.33 31.61-15.26 21.8-27.25 17.985-32.7 31.065-15.26 5.45-18.53 9.81-21.255 9.81-8.175 0-9.265-3.814-9.265-11.444-4.905-5.45-9.265-26.705-9.265-44.69 0-6.54-2.18-8.175-2.18-13.625 0-9.81 13.625-19.62 21.255-19.62 7.085 0 5.995 9.81 9.265 9.81 5.995 0 9.265-52.32 9.265-68.67 0-5.45-3.27-4.36-4.905-7.084-9.265 0-11.99 11.445-28.34 19.62-49.595 41.965-51.23 53.955-57.77 53.955 0-2.18 1.635-4.36 1.635-6.54 0-3.814-3.27-16.35-3.27-20.71 0-2.18.545-4.36 1.635-7.084 5.45-5.45 25.07-19.62 31.61-29.975 11.99-10.354 18.53-19.074 23.435-25.614 9.265-1.09 44.69-55.045 61.585-55.045 7.085 0 21.8 1.635 28.34 13.08zM645.81 287.76c7.63-4.904 14.716-19.074 23.436-22.344 3.27-5.45 21.255-29.43 29.975-32.7 3.27-7.63 5.45-9.81 10.9-13.625 14.17 0 22.346 2.18 32.156 15.26 2.18 2.726 7.085 32.156 7.085 47.96 4.906 4.36 4.906 25.616 20.166 25.616 6.54 0 11.445-3.815 20.165-6.54 3.27-4.36 9.266-11.99 20.71-17.44 0 10.9-1.09 22.345-1.09 33.245 0 8.176-40.874 37.606-55.59 37.606-3.814 0-16.894-1.635-17.44-1.635-7.084-7.084-19.62-8.174-28.34-39.784-13.624-12.535-7.63-25.615-20.164-25.615-5.995 0-25.07 19.62-27.25 23.98-7.63 2.18-10.9 11.446-15.26 11.99-1.635-1.634-1.635-4.36-1.635-7.63 0-4.904 1.636-25.07 2.18-28.34zM777.7 68.67c0 7.085-3.27 31.065-8.174 35.97-4.905 25.615-22.89 27.795-33.245 35.97-19.62 0-22.344-.545-23.434-5.45-1.635-6.54-4.905-7.63-4.905-16.35 0-17.44 13.626-34.335 29.43-40.33 2.726-10.355 21.256-16.35 29.976-16.35 7.085 0 7.085 4.36 10.355 6.54zM937.926 190.75c1.09 6.54 1.09 11.446 1.09 16.35 0 5.996 0 13.08-2.18 16.896 0 34.335-10.9 58.315-10.9 62.675 0 9.266-13.08 28.886-13.08 43.056 0 2.18.545 3.27 1.635 3.27 8.72 0 30.52-25.615 33.79-26.705 17.986-21.8 19.62-22.89 21.8-22.89 1.09 0 1.636 1.09 1.636 2.18 0 1.636-1.635 5.45-1.635 8.72 0 2.726 2.726 12.536 2.726 19.076 0 5.45-11.445 17.985-13.625 18.53-9.81 14.715-24.524 22.345-40.33 31.61-15.26 21.8-27.25 17.985-32.7 31.065-15.26 5.45-18.53 9.81-21.254 9.81-8.175 0-9.265-3.814-9.265-11.444-4.904-5.45-9.264-26.705-9.264-44.69 0-6.54-2.18-8.175-2.18-13.625 0-9.81 13.625-19.62 21.255-19.62 7.086 0 5.996 9.81 9.266 9.81 5.995 0 9.265-52.32 9.265-68.67 0-5.45-3.27-4.36-4.904-7.084-9.265 0-11.99 11.445-28.34 19.62-49.595 41.965-51.23 53.955-57.77 53.955 0-2.18 1.635-4.36 1.635-6.54 0-3.814-3.27-16.35-3.27-20.71 0-2.18.546-4.36 1.636-7.084 5.45-5.45 25.07-19.62 31.61-29.975 11.99-10.354 18.53-19.074 23.435-25.614 9.266-1.09 44.69-55.045 61.586-55.045 7.085 0 21.8 1.635 28.34 13.08zM78.577 445.662c-7.194-7.434-17.146-11.99-27.577-11.99-20.143 0-36.45 17.505-36.45 37.408 0 19.904 16.426 37.41 36.69 37.41 10.192 0 20.143-4.796 27.337-11.99v12.47c-7.793 5.634-17.386 8.87-26.978 8.87-25.54 0-47.122-20.742-47.122-46.4 0-25.9 21.223-47.12 47.12-47.12 10.072 0 18.945 2.876 26.98 8.87v12.472zM105.913 466.045h.24c3.357-4.437 6.235-7.674 12.47-7.674 3.237 0 5.875 1.08 8.633 2.64l-4.556 8.75c-1.918-1.318-3.237-2.516-5.755-2.516-10.55 0-11.03 13.548-11.03 20.862v28.177H96.32V459.93h9.592v6.115zM142.962 490.144c.12 10.432 7.553 18.825 18.465 18.825 8.153 0 13.43-4.917 17.146-11.63l8.153 4.675c-5.395 10.072-14.508 15.826-26.02 15.826-16.785 0-27.576-12.828-27.576-29.015 0-16.666 9.712-30.454 27.337-30.454 18.105 0 27.697 14.99 26.738 31.774h-44.243zm34.17-8.153c-1.318-8.153-8.152-14.747-16.545-14.747-8.273 0-15.947 6.594-17.146 14.748h33.693zM253.03 516.283h-9.592v-7.794h-.24c-4.916 6.235-11.51 9.35-19.424 9.35-16.546 0-26.978-14.028-26.978-29.614 0-16.067 10.192-29.855 27.098-29.855 7.674 0 14.628 3.598 19.304 9.593h.24v-8.033h9.592v56.353zm-46.402-28.777c0 11.03 6.475 21.463 18.465 21.463 12.35 0 18.824-9.953 18.824-21.343 0-11.27-7.074-20.383-18.945-20.383-11.15 0-18.344 9.712-18.344 20.262zM282.045 516.283h-9.592v-47.48h-5.875v-8.873h5.875v-20.263h9.592v20.263h10.072v8.872h-10.072v47.48zM315.376 438.707c0 3.836-3.117 6.834-6.834 6.834-3.717 0-6.834-2.996-6.834-6.833 0-3.717 3.117-6.835 6.834-6.835 3.717 0 6.834 3.118 6.834 6.835zm-2.038 77.576h-9.592V459.93h9.592v56.353zM353.264 497.818l16.786-37.888h10.79L353.265 520l-27.697-60.07h10.91l16.787 37.888zM396.07 490.144c.12 10.432 7.552 18.825 18.464 18.825 8.153 0 13.43-4.917 17.146-11.63l8.153 4.675c-5.395 10.072-14.508 15.826-26.018 15.826-16.786 0-27.577-12.828-27.577-29.015 0-16.666 9.712-30.454 27.337-30.454 18.105 0 27.697 14.99 26.738 31.774H396.07zm34.17-8.153c-1.32-8.153-8.153-14.747-16.546-14.747-8.273 0-15.947 6.594-17.146 14.748h33.692zM502.9 516.283h-10.073v-90.405h13.07c17.145 0 33.092 4.556 33.092 24.94 0 13.908-8.754 23.74-22.662 24.938l28.776 40.527h-12.35l-27.338-39.687H502.9v39.687zm0-48.56h3.117c11.39 0 22.9-2.158 22.9-16.186 0-14.867-10.91-16.306-23.02-16.306H502.9v32.494zM563.807 490.144c.12 10.432 7.554 18.825 18.465 18.825 8.154 0 13.43-4.917 17.146-11.63l8.153 4.675c-5.395 10.072-14.507 15.826-26.018 15.826-16.786 0-27.577-12.828-27.577-29.015 0-16.666 9.712-30.454 27.337-30.454 18.105 0 27.697 14.99 26.738 31.774h-44.243zm34.172-8.153c-1.32-8.153-8.155-14.747-16.548-14.747-8.273 0-15.947 6.594-17.145 14.748h33.692zM645.22 473c-1.32-2.998-4.197-5.756-7.675-5.756-3.357 0-6.954 2.638-6.954 6.234 0 5.156 6.476 7.074 13.07 9.832s13.07 6.715 13.07 16.186c0 10.67-8.634 18.345-19.065 18.345-9.473 0-16.906-5.395-19.903-14.267l8.512-3.597c2.398 5.275 5.156 8.993 11.51 8.993 5.156 0 9.113-3.48 9.113-8.634 0-12.59-25.418-8.273-25.418-26.018 0-9.473 7.673-15.947 16.784-15.947 6.475 0 12.47 4.557 14.988 10.432L645.22 473zM666.44 488.226c0-16.546 13.07-29.855 29.616-29.855s29.615 13.31 29.615 29.856c0 16.547-13.188 29.615-29.614 29.615-16.426 0-29.615-13.067-29.615-29.614zm9.593-.12c0 11.51 8.154 20.863 20.023 20.863s20.023-9.353 20.023-20.864c0-11.39-8.155-20.862-20.024-20.862s-20.023 9.472-20.023 20.862zM748.93 491.344c0 9.472 1.08 17.625 12.71 17.625s12.71-8.155 12.71-17.626V459.93h9.593v32.494c0 14.988-5.635 25.418-22.3 25.418s-22.302-10.43-22.302-25.418V459.93h9.593v31.414zM811.758 466.045h.24c3.358-4.437 6.236-7.674 12.47-7.674 3.238 0 5.876 1.08 8.633 2.64l-4.555 8.75c-1.918-1.318-3.237-2.516-5.755-2.516-10.55 0-11.03 13.548-11.03 20.862v28.177h-9.593V459.93h9.592v6.115zM885.855 476.716h-.24c-4.437-5.636-9.952-9.473-17.506-9.473-11.63 0-19.904 9.592-19.904 20.862 0 11.15 7.674 20.863 19.424 20.863 8.033 0 13.67-3.597 18.345-9.712h.24v12.83c-5.515 3.716-11.15 5.754-17.865 5.754-17.026 0-29.975-12.71-29.975-29.736 0-16.785 13.548-29.735 30.094-29.735 6.114 0 12.35 2.036 17.385 5.634v12.712zM907.076 490.144c.12 10.432 7.554 18.825 18.465 18.825 8.155 0 13.43-4.917 17.147-11.63l8.153 4.675c-5.396 10.072-14.507 15.826-26.018 15.826-16.786 0-27.577-12.828-27.577-29.015 0-16.666 9.712-30.454 27.337-30.454 18.105 0 27.697 14.99 26.738 31.774h-44.244zm34.172-8.153c-1.32-8.153-8.154-14.747-16.547-14.747-8.272 0-15.946 6.594-17.144 14.748h33.692zM988.49 473c-1.32-2.998-4.197-5.756-7.675-5.756-3.357 0-6.954 2.638-6.954 6.234 0 5.156 6.476 7.074 13.07 9.832s13.07 6.715 13.07 16.186c0 10.67-8.633 18.345-19.064 18.345-9.473 0-16.906-5.395-19.903-14.267l8.512-3.597c2.398 5.275 5.156 8.993 11.51 8.993 5.156 0 9.113-3.48 9.113-8.634 0-12.59-25.418-8.273-25.418-26.018 0-9.473 7.674-15.947 16.785-15.947 6.475 0 12.47 4.557 14.987 10.432L988.49 473z"/></g></svg>