<svg xmlns="http://www.w3.org/2000/svg" viewBox="0 0 1000 590" style="enable-background:new 0 0 1000 590" xml:space="preserve"><ellipse style="opacity:.5;fill:#e6dcd2" cx="165.206" cy="496.065" rx="93.964" ry="93.935"/><path d="M927.352 210.115c-45.384 29.429-94.67 44.763-154.09 50.442-59.068 5.842-128.484 1.612-206.049-4.164-152.938-12.761-343.246-27.062-469.658 39.174C58.683 205.383 26.006 113.518 0 20.088c136.081-44.147 318.96-6.846 473.239 28.766 157.215 36.34 283.784 67.521 380.982 45.918 29.917 39.957 54.117 78.138 73.131 115.343z"/><path style="fill:#e6dcd2" d="M117.946 105.113a2411.597 2411.597 0 0 1-4.705-13.882c-5.065-15.117-12.271-20.852-18.091-19.888-9.058 1.524-9.812 8.7-5.325 22.274a2374.149 2374.149 0 0 0 32.535 91.721c5.116 13.505 10.433 19.148 19.347 16.926 8.06-1.965 8.31-8.912 3.9-20.51a2620.68 2620.68 0 0 1-8.036-21.469 531.236 531.236 0 0 1 22.908-4.025c2.505 6.746 5.039 13.49 7.605 20.228 9.496 24.87 6.272 46.764-15.831 52.499-23.003 6.201-41.307-10.75-51.143-36.675a2290.038 2290.038 0 0 1-33.391-94.409c-8.525-25.98-4.695-50.045 18.874-53.581 22.588-3.181 40.976 18.257 49.92 44.519 1.47 4.322 2.947 8.643 4.443 12.961a541.185 541.185 0 0 0-23.01 3.311zM215.98 214.058a605.353 605.353 0 0 0-22.691 3.461c-15.054-59.652-27.548-118.674-37.899-176.727a720.57 720.57 0 0 1 29.869-.332c27.684 56.833 57.563 112.929 89.168 168.3-7.922.412-15.804.933-23.629 1.575a3022.075 3022.075 0 0 1-19.282-37.315 696.56 696.56 0 0 0-26.401 2.286 2694.569 2694.569 0 0 0 10.865 38.752zm-17.215-64.882a697.707 697.707 0 0 1 19.442-1.411 2747.967 2747.967 0 0 1-36.167-73.042l-.389.012a2735.406 2735.406 0 0 0 17.114 74.441zM290.329 208.082c-22.75-55.361-43.796-110.79-63.07-166.158 11.785.695 23.627 1.619 35.502 2.74 30.658 3.067 49.672 18.207 62.851 51.885 13.276 33.841 4.259 45.419-26.654 44.192-3.628-.142-7.255-.264-10.875-.37a3546.703 3546.703 0 0 0 27.064 67.203c-8.301.065-16.577.231-24.818.508zm-11.201-90.866c3.215.135 6.439.284 9.659.448 16.338.851 19.171-4.278 11.809-23.463-7.319-19.133-14.401-25.295-30.669-26.643-3.21-.255-6.419-.497-9.623-.723a3440.874 3440.874 0 0 0 18.824 50.381zM348.468 77.551a1567.691 1567.691 0 0 0-24.127-3.154 4410.178 4410.178 0 0 1-9.032-23.608c24.341 3.333 48.638 7.286 72.671 11.58a6144.929 6144.929 0 0 0 9.257 22.595 2180.926 2180.926 0 0 0-23.92-3.792 5362.217 5362.217 0 0 0 54.704 130.599 1880.935 1880.935 0 0 0-24.921-1.658 4760.845 4760.845 0 0 1-54.632-132.562zM405.958 65.65a3090.228 3090.228 0 0 1 24.308 4.629 8439.782 8439.782 0 0 0 48.09 111.075c4.77 10.823 11.26 16.573 20.005 17.538 8.741.967 10.429-3.782 5.676-14.394a11274.74 11274.74 0 0 1-48.178-109.154c7.964 1.599 15.88 3.213 23.738 4.821a16994.03 16994.03 0 0 0 47.768 106.339c11.041 24.342 3.638 36.374-19.214 34.233-22.872-2.138-43.489-17.478-54.676-43.267a6930.095 6930.095 0 0 1-47.517-111.82zM588.693 226.821a6242.412 6242.412 0 0 1-22.861-2.239 33197.735 33197.735 0 0 1-63.951-139.828c10.872 2.247 21.622 4.476 32.241 6.661 25.393 5.309 43.071 18.57 56.671 46.633 10.198 21.157 6.337 28.632.48 31.121a13004.396 13004.396 0 0 0 46.924 62.002 2217.193 2217.193 0 0 1-22.127-1.83 12078.737 12078.737 0 0 1-42.038-57.7c-2.738-.032-7.407-.51-11.461-1.085 8.712 18.76 17.419 37.515 26.122 56.265zm-35.128-75.662c2.705.425 5.402.848 8.088 1.267 12.254 1.893 14.521-2.093 6.952-18.095-7.601-16.014-14.294-21.511-26.559-23.859-2.689-.512-5.389-1.026-8.094-1.543 6.537 14.081 13.079 28.156 19.613 42.23zM652.994 232.254a9414.953 9414.953 0 0 0-62.751-129.572c19.275 3.726 37.998 7.142 56.13 10.112 3.185 6.12 6.35 12.235 9.496 18.344a1633.15 1633.15 0 0 1-34.714-5.385 6892.451 6892.451 0 0 1 16.249 32.723 1495.212 1495.212 0 0 0 26.7 3.306c3.089 6.146 6.16 12.288 9.213 18.426a1395.889 1395.889 0 0 1-26.591-2.761 6640.184 6640.184 0 0 1 18.058 37.18c12.373.92 24.458 1.648 36.246 2.143a4546.264 4546.264 0 0 1 8.816 18.131c-18.228-.354-37.189-1.292-56.852-2.647zM384.553 366.136c-83.437 7.505-164.111 26.153-224.117 63.472-22.462-44.26-43.444-88.946-62.881-134.041 64.817-33.354 147.63-47.34 232.98-49.61a3707.684 3707.684 0 0 0 54.018 120.179z"/><path d="M203.765 296.659a484.327 484.327 0 0 0-11.919 3.189c-2.12-4.85-4.223-9.7-6.311-14.557 11.999-3.277 24.311-6.136 36.87-8.606 2.046 4.769 4.103 9.536 6.178 14.301a553.523 553.523 0 0 0-12.298 2.656 2809.164 2809.164 0 0 0 37.059 81.479 506.862 506.862 0 0 0-12.21 3.482 2750.523 2750.523 0 0 1-37.369-81.944zM273.764 370a2907.674 2907.674 0 0 1-42.738-94.943 609.75 609.75 0 0 1 13.028-2.214 2934.377 2934.377 0 0 0 16.832 38.49 651.35 651.35 0 0 1 13.921-2.335 3030.076 3030.076 0 0 1-16.721-38.23 701.45 701.45 0 0 1 13.318-1.694 3159.583 3159.583 0 0 0 41.842 93.156 692.01 692.01 0 0 0-13.04 2.286 3085.453 3085.453 0 0 1-19.107-41.493 646.859 646.859 0 0 0-13.875 2.428 3002.234 3002.234 0 0 0 19.262 41.761c-4.27.887-8.511 1.815-12.722 2.788zM325.977 360.238a3247.531 3247.531 0 0 1-41.584-92.577 849.544 849.544 0 0 1 36.439-2.828c1.968 4.54 3.944 9.08 5.932 13.62a875.623 875.623 0 0 0-22.854 1.751c3.454 7.905 6.94 15.809 10.464 23.709a858.057 858.057 0 0 1 17.488-1.606 3154.19 3154.19 0 0 0 6.126 13.639 860.647 860.647 0 0 0-17.441 1.725c4.063 9 8.17 17.996 12.325 26.987a872.932 872.932 0 0 1 24.091-2.624c2.089 4.527 4.19 9.051 6.303 13.576-12.538 1.282-24.988 2.812-37.289 4.628z"/><path style="fill:#e6dcd2" d="M1000 256.405c-63.723 94.225-124.772 139.165-222.135 160.14-94.08 22.192-227.209 15.094-357.646 34.154-34.071-67.923-65.785-136.2-95.017-204.573 136.694-4.923 276.519 18.23 383.39 17.186 109.317.066 187.293-20.358 259.195-83.506 14.777 26.312 25.446 51.802 32.213 76.599z"/><path d="M459.566 272.651a5775.398 5775.398 0 0 0 71.602 153.292c-6.901.392-13.833.81-20.782 1.259a5232.545 5232.545 0 0 1-57.158-121.277l-.401-.003c10.967 40.403 22.73 81.376 35.491 122.826-3.88.294-7.763.601-11.649.922-27.426-40.569-54.468-81.661-80.862-123.234-.135.005-.265.006-.401.011a4224.224 4224.224 0 0 0 59.115 125.218c-6.994.686-13.984 1.427-20.955 2.229-26.647-53.917-51.885-108.018-75.652-162.175 10.952-.307 21.938-.454 32.924-.468 19.675 31.088 39.714 61.901 60.001 92.418l.396-.016c-8.654-30.99-16.768-61.671-24.432-92.009 10.959.243 21.886.588 32.763 1.007zM497.814 310.247c-9.871-21.437-5.647-38.324 19.795-36.772 25.375 1.576 44.244 18.803 53.649 39.03a13592.396 13592.396 0 0 0 34.55 74.061c9.461 20.23 6.65 37.295-17.355 38.564-24.094 1.267-44.069-15.507-54.224-36.943a6476.766 6476.766 0 0 1-36.415-77.94zm59.857 76.746c5.277 11.135 10.882 16.396 20.251 16.078 9.353-.317 9.793-5.678 4.639-16.604a9732.055 9732.055 0 0 1-34.624-74.146c-5.058-10.932-10.529-16.341-20.239-16.767-9.721-.423-10.425 4.822-5.287 15.968a7826.53 7826.53 0 0 0 35.26 75.471zM621.369 281.335c7.309.348 14.535.664 21.672.936 11.897 44.168 23.908 89.355 36.513 135.566-6.976.539-14.05 1.034-21.217 1.496-30.449-45.89-61.672-92.954-93.077-141.079 7.691.454 15.31.901 22.858 1.328 20.544 32.73 40.959 64.997 61.068 96.78l.35-.011c-9.583-32.093-18.924-63.765-28.167-95.016zM717.971 414.257a13372.502 13372.502 0 0 0-60.483-131.491c19.093.573 37.515.782 55.222.468a4929.062 4929.062 0 0 1 8.623 18.522c-10.972.448-22.229.687-33.763.754a8765.03 8765.03 0 0 1 15.308 33.148 876.56 876.56 0 0 0 25.604-1.46 5368.152 5368.152 0 0 1 8.471 18.66 814.564 814.564 0 0 1-25.27 2.034 8564.547 8564.547 0 0 1 17.109 37.74c11.599-1.296 22.855-2.814 33.763-4.601a4949.213 4949.213 0 0 1 8.058 18.408c-16.696 3.216-34.252 5.759-52.642 7.818zM802.213 275.55c16.84 36.128 32.299 72.04 46.434 107.859a310.757 310.757 0 0 1-13.258 5.305c-11.588-28.763-23.919-57.573-37.011-86.489l-.277.051c7.944 29.875 15.466 60.35 22.797 91.479a365.35 365.35 0 0 1-7.834 2.431c-17.383-28.519-36.036-57.936-55.739-88.244l-.299.03a3469.02 3469.02 0 0 1 40.739 92.435 444.466 444.466 0 0 1-14.996 3.54 4227.108 4227.108 0 0 0-54.405-121.136c8.484-.311 16.8-.762 24.943-1.362 15.09 22.54 29.575 44.546 43.358 66.011l.274-.059c-5.681-23.185-11.502-46.003-17.561-68.483a454.24 454.24 0 0 0 22.835-3.368zM862.644 376.989c-13.364-34.699-28.174-69.507-44.491-104.551 14.716-3.193 28.79-7.175 42.337-12.041a1188.47 1188.47 0 0 1 6.531 14.281 312.54 312.54 0 0 1-25.678 9.036 1455.205 1455.205 0 0 1 11.481 26.081 299.607 299.607 0 0 0 19.244-7.975c2.031 4.806 4.026 9.603 5.98 14.398a291.69 291.69 0 0 1-18.852 8.681 1397.08 1397.08 0 0 1 11.886 29.582 280.037 280.037 0 0 0 24.803-14.342 983.745 983.745 0 0 1 5.112 14.034 277.158 277.158 0 0 1-38.353 22.816zM910.62 347.038c-10.543-30.289-22.957-60.771-37.311-91.574a297.93 297.93 0 0 0 13.571-5.978 31100.799 31100.799 0 0 0 37.894 38.909c.073-.055.141-.108.211-.163-6.14-15.807-12.976-31.714-20.529-47.746a307.534 307.534 0 0 0 12.566-7.364c12.747 26.823 23.222 53.245 31.511 79.371-3.491 3.673-7 7.229-10.538 10.672-10.734-12.041-22.924-25.53-36.492-40.388a9.381 9.381 0 0 1-.223.133c7.706 18.377 14.63 36.637 20.784 54.81a300.007 300.007 0 0 1-11.444 9.318zM943.771 229.636a352.53 352.53 0 0 1-12.906 9.741 644.534 644.534 0 0 0-5.431-11.638c13.355-8.841 26.387-18.89 39.365-30.213a426.318 426.318 0 0 1 4.861 9.774 446.258 446.258 0 0 1-12.693 11.413c9.215 19.648 16.634 38.968 22.308 58.003a601.217 601.217 0 0 1-11.876 14.611c-6.176-20.287-14.03-40.838-23.628-61.691z"/><path style="fill:none;stroke:#e6dcd2;stroke-width:7;stroke-linecap:round;stroke-linejoin:round;stroke-miterlimit:10" d="M758.41 223.201c-7.784.31-10.337-2.052-13.331-8.063a2881.79 2881.79 0 0 0-30.253-58.842c-4.741-8.988-3.316-16.375 5.739-15.65a689.793 689.793 0 0 0 23.151 1.367c5.007.202 7.867-2.461 6.587-7.501-1.029-4.039 1.101-7.613 5.447-7.466 7.476.243 14.826.333 22.051.26 4.204-.026 10.402 3.393 13.87 7.101 4.35 4.667 9.97 6.929 14.506 6.532a378.249 378.249 0 0 0 20.301-2.278c7.673-1.039 16.178 4.269 20.42 11.166 9.35 15.242 18.097 30.326 26.262 45.284 2.499 4.585 2.395 6.838-3.999 9.06"/><path style="fill:#e6dcd2" d="M786.441 161.313c12.107-.525 27.147 8.13 33.653 19.869 6.496 11.724 2.35 23.236-9.371 25.031-11.718 1.809-27.043-7.794-33.926-20.785-6.881-13.007-2.456-23.57 9.644-24.115m-8.553-15.08c-20.342.226-27.923 17.326-16.243 39.719 11.699 22.343 37.438 38.857 56.72 35.127 19.289-3.707 26.098-23.438 15.49-42.261-10.658-18.861-35.605-32.752-55.967-32.585z"/><path d="M782.193 153.78c16.206-.415 36.229 10.921 44.82 26.281 8.567 15.335 3.079 30.914-12.442 33.59-15.514 2.694-36.042-10.322-45.304-27.909-9.251-17.616-3.269-31.508 12.926-31.962m-4.305-7.547c-20.342.226-27.923 17.326-16.243 39.719 11.699 22.343 37.438 38.857 56.72 35.127 19.289-3.707 26.098-23.438 15.49-42.261-10.658-18.861-35.605-32.752-55.967-32.585z"/><path style="fill:none;stroke:#e6dcd2;stroke-width:5;stroke-linecap:round;stroke-linejoin:round;stroke-miterlimit:10" d="M833.854 178.818c10.609 18.822 3.801 38.553-15.49 42.261-19.281 3.729-45.02-12.783-56.72-35.127-11.679-22.393-4.101-39.492 16.243-39.719 20.363-.167 45.311 13.723 55.967 32.585z"/><path style="fill:#e6dcd2" d="M806.008 183.061c2.215 4.06.807 7.78-3.152 8.239-3.961.461-9.019-2.628-11.276-6.829-2.258-4.202-.822-7.817 3.182-8.137 4.009-.319 9.033 2.664 11.246 6.727z"/><path style="fill:#e6dcd2" d="M786.079 184.882c-3.974-7.45-1.442-13.706 5.589-14.174 7.036-.464 15.815 4.688 19.661 11.704.96 1.755 1.523 3.469 1.73 5.076.398-2.649-.194-5.736-1.965-8.942-4.42-7.99-14.49-13.906-22.552-13.473-8.061.443-10.956 7.529-6.371 16.082 1.824 3.398 4.565 6.459 7.68 8.845-1.489-1.542-2.785-3.272-3.772-5.118z"/><path style="fill-rule:evenodd;clip-rule:evenodd" d="M199.123 518.929c-.252.029-.442-.013-.632.27l-.021.147c.073.095.127.208.244.236l.293.042c.169-.143.271-.282.276-.455l-.068-.187a2.752 2.752 0 0 0-.092-.053zM198.577 517.227l-.316.065c-.543.114-1.103.222-1.673.318l.091.251c.682-.077 1.365-.148 2.047-.223l-.149-.411zM199.663 523.433l-.105-.093-.99-.288.315.864c.341-.103.672-.215.755-.276.044-.115.029-.116.025-.207zM186.352 451.425l1.186-.681 1.301-.551c2.71-1.47 5.414-2.769 8.157-4.184 1.193-.615 3.275-1.304 4.246-2.409.871-.991-.537-3.624-.874-4.475-1.22-3.078-2.238-6.257-3.611-9.296-.601-1.329-.63-2.636-2.388-3.666-1.628-.122-2.708.576-4.124 1.208-1.886.842-3.824 1.637-5.729 2.505-.858.391-1.742.725-2.617 1.126l-.871.355c-.541.442.138.923-.45 1.329-.422-.163-.348-.758-.828-.764l-6.675 2.88c-.445.355-.246.974-.658 1.304-.375.3-.819-.181-1.291-.237-.694-.083-1.432 1.008-1.348 1.731.131 1.128 1.284 2.247 2.023 3.201l3.617 4.725c.552.695 1.119 1.179 1.624 1.859l1.025 1.577c.387.529.795.929 1.131 1.447.408.629.577 1.282 1.478 1.616.709.263.321.991 1.515 1.002 1.074.01 2.166-.725 3.115-1.219.349-.129.697-.256 1.046-.383zm.58-21.392.054.126-.055.095-.123-.007-.034-.051c.052-.133.047-.12.158-.163zM187.622 477.03c1.693-.727 3.423-1.387 5.137-2.084.562-.229 1.131-.468 1.704-.699.355-.143.723-.146 1.059-.405l.628-.813c.429-.027.879.147 1.288.077l.584-.298c.738-.321 1.525-.616 2.285-.936a346.52 346.52 0 0 1 5.732-2.345c.898-.359 1.795-.734 2.702-1.108.477-.197 1.134-.316 1.524-.772.246-.288.508-.832.547-1.113.109-.783-.41-1.686-.605-2.414l-.452-1.69-.769-2.954-.346-.994c-.14-.894-.399-1.84-.737-2.681-.599-1.489-.761-3.144-1.381-4.641-.606-1.461-.313-3.455-2.237-4.532l-.719-.129c-1.676.042-3.329 1.31-4.827 2.041-2.274 1.109-4.493 2.337-6.793 3.415-.821.385-1.63.817-2.474 1.208l-1.134.425-3.516 1.75c-.46.358-.906.823-.9 1.45.009.989.841 1.691 1.347 2.557l2.798 4.22c.605.82 1.278 1.593 1.747 2.47.329.615.513 1.71.407 2.427-.074.502-.435.904-.388 1.332l.163.158.024.014c.199-.205.259-.474.446-.663.195-.001.266.07.381.22l-.021.147c-.242.346-.413.23-.697.328l-.278.316c-.242.202-.589.201-.851.43-.831.725-1.281 1.82-1.973 2.704l-.351.718c-.229.274-.475.391-.662.761-.41.814-1.717 2.056-1.295 2.683.489.725 2.4-.364 2.903-.58zm15.033-8.949.095.055.003.16-.103.068-.109-.031-.026-.174c.046-.027.093-.053.14-.078zm-5.928 1.31.174-.027c.12.115.167.2.227.322l-.035.17c-.106.057-.112.092-.239.084-.268-.031-.273-.326-.127-.549zm-7.591-11.689-.18-.072c-.099-.281-.149-.733.2-1.06.245-.171.459.014.76.058l.224.161.05.188c-.048.242-.838.739-1.054.725zm5.354 9.794c.179-.15.302-.093.522-.08.173.107.221.181.302.301-.021.168-.019.346-.2.456-.231.171-.565.079-.79-.17-.014-.141-.024-.373.166-.507zm-1.971-3.235c.28.161.286.266.366.465-.183.684-.661.753-1.142.77-.207-.153-.224-.281-.267-.472.183-.542.662-.703 1.043-.763zM191.176 498.68c2.036-.911 4.448-1.25 6.484-2.164.346-.155.465-.615.806-.901l.721-.314c.324-.128.526.197.919.277.311.063.744-.118 1.034-.197 1.031-.282 2.064-.729 3.06-1.124l.911-.204c1.306-.553 2.651-.906 3.965-1.427 1.725-.685 3.558-1.115 5.292-1.804.921-.366 1.96-.606 2.768-1.388.384-.372.21-.825.193-1.159-.06-1.193-.235-2.336-.655-3.427-.65-1.691-.808-3.575-1.429-5.272-.286-.782-.388-1.652-.704-2.408l-.459-.964-.027-.778-.354-.871c-.218-.943-.678-3.532-1.684-4.117-1.296-.098-2.35.55-3.485 1.037-2.068.886-4.155 1.694-6.217 2.636l-3.494 1.381c-5.984 2.62-12.029 5.034-17.985 7.689-1.515.675-2.978 1.32-4.492 2.012-.874.399-1.888.638-2.739 1.118-1.197.675-1.594 1.652-1.057 2.82.404.879 1.423 1.967 2.035 2.795l4.472 6.267c.559.878 1.508 2.602 2.944 3.034 1.196.359 2.376-.19 3.384-.587 1.884-.744 3.933-1.128 5.793-1.96zm8.945-8.462c-.08-.005-.108-.005-.218-.062-.01-.226.058-.362.271-.415l.081.079.058.065-.192.333zm8.134-1.56c.098-.074 1.108-.225 1.283-.244l.129.106c.004.111.007.153-.08.303-.436.087-.885.454-1.332.438l-.143-.082-.05-.188.193-.333zm-3.144-.323a.795.795 0 0 1-.272.637l-.16.003a29.005 29.005 0 0 0-.238-.137c-.146-.191-.087-.598.191-.716l.164-.064.315.277zm-.893-9.664c.135-.091.213-.046.372-.039.323.347.19 1.426-.49 1.178-.127-.254-.332-.886.118-1.139zm-4.003 9.187c.41-.429-.027-.763.292-1.165.233-.293.487-.157.755-.263.262-.104.418-.34.661-.54.51-.42.935-.095 1.589-.004.365.188.476.33.43.629l-.171.187c-.404.005-.926-.442-1.317-.411-.291.31-.633.682-.871.958l-.556.854-.872.576c-.29.189-.796.506-1.112.057-.674-.958.959-.656 1.172-.878zm-1.798 5.093c.132-.036.227-.033.372-.039l.129.106c.008.107.027.134-.029.269l-.089.044c-.154.081-.317.028-.473-.114l.09-.266zm-2.539-15.22c.087.095.079.062.05.188l-.109-.031-.024-.014.083-.143zm-.798 15.834c.069.246-.021.388-.231.565-.154.009-.227.029-.426-.087l-.06-.225.045-.133c.201-.152.326-.156.553-.189l.119.069zm-.972-5.294.334-.029.139.144c.018.299-.315.781-.616.407-.069-.107-.048-.167-.057-.287l.2-.235zm-1.796 4.649c.164-.019.277 0 .467.016l.278.288-.007.123c-.149.26-.516.328-.716.031l-.108-.253.086-.205zm-13.665-7.541-.232-.038-.036-.212c.016-.198.166-.25.288-.279l.197.209a.738.738 0 0 1-.217.32zm2.421 1.08.136-.016.115.13c.034.073.029.093.026.174l-.093.105c-.082.044-.08.033-.174.027-.087-.119-.093-.161-.118-.29l.108-.13zm-.686.144c-.03.193-.273.358-.428.356a2.554 2.554 0 0 0-.085-.017c-.112-.192-.344-1.087-.215-1.331.157-.051.251-.064.423-.073l.258.212c.009.262.142.6.047.853zm.779 2.388c-.126.084-.204.049-.348.053a53.438 53.438 0 0 0-.244-.236c-.033-.419.336-1.109.733-1.324l.248.175c.205.254-.018 1.104-.389 1.332zm7.322-.538-.065.058a2.554 2.554 0 0 0-.085-.017 3.39 3.39 0 0 0-.058-.065l.055-.095.061.004.095.055-.003.06zm-.179-2.548c.244-.142.311-.311.564-.373l.129.106c.043.496-.277 1.587-.925 1.658a.833.833 0 0 1-.468-1.223l.7-.168zm-4.719 2.294c-.125.014-.252.037-.313-.117-.078-.133-.033-.241.087-.426l.225-.061.19.11.009.259a35.56 35.56 0 0 1-.198.235zm1.411-4.586c.243-.239.063-.519.276-.698.266-.14.567.182.885.225l.662-.158.214.124c.164.547.618 1.256.553 1.844-.117.162-.174.147-.308.203-.847-.219-.73-.74-.545-1.363l-.231-.26-.109-.031c-.204.106-.359.359-.572.496-.358.23-.887.347-1.304.391-.555-.407.339-.636.479-.773zM220.848 504.378c-.077-.54.001-1.151-.37-1.611-.387.05-.783.679-1.082.995-.119.011-.136.037-.293-.042.004-.247.299-.555.359-.841.12-.57-.122-1.788-1.134-1.608-.269.048-.36.287-.67.281-.464-.295-.706-.813-1.023-1.195-.016-.158-.038-.325.115-.474l.188-.05c.708.121.166 1.127 1.245 1.195.603.017.763-1.628 1.121-2.052.156-.184.482-.302.569-.656l-.276-1.335-.313-2.15-.271-.41c-.209-.538.088-.943-.668-1.37-1.564-.121-2.897.398-4.279.928-1.686.647-3.467 1.03-5.162 1.689-.938.364-1.979.539-2.922.886-2.633.967-5.351 1.611-7.956 2.68l-1.939.501-3.37 1.167-1.891.528c-1.392.571-2.849.879-4.247 1.423-.918.357-2.002.418-2.774 1.289-.86.97-.311 2.149-.113 2.889.529 1.977.909 4.087 1.644 6 .304.792.177 1.757.574 2.523.506.98 1.329 1.445 2.441 1.378l1.024-.235c2-.28 3.992-.706 5.99-.925 1.537-.168 3.044-.613 4.568-.824a280.586 280.586 0 0 0 10.903-1.741c1.187-.212 2.38-.418 3.582-.6l.516-.179c1.936-.257 4.08-.361 5.849-1.229l.492-.193c.428-.364.312-1.559.303-1.953-.039-1.577-.512-3.141-.73-4.679zm-2.539-6.263.119.069a.481.481 0 0 1-.139.46c-.107.004-.135.013-.279-.066-.019-.247.086-.361.299-.463zm-32.117 13.76-.051.034c-.293-.26-.471-.574-.449-.926l.106-.129.126-.054c.394.243.347.717.268 1.075zm1.289-.145-.014.024-.099.006a3.39 3.39 0 0 0-.058-.065l.12-.153.071.041-.02.147zm.448-1.107-.218-.062-.05-.188.045-.133.164-.064.119.069.057.287-.117.091zm5.791-2.501-.201.074-.242-.076-.034-.051c-.004-.107-.013-.135.066-.279l.014-.024.198-.013.224.161c.003.09.018.091-.025.208zm2.153-1.203c-.086.05-.113.042-.212.037l-.129-.106c-.126-.177-.089-.411.065-.661l.263-.071.234.199c.014.179.01.476-.221.602zm1.795-.361-.242-.076c-.225-.745-.3-1.205-1.215-1.686-.208-.667.427-1.015.983-.989.674.406.287 1.066.357 1.635.044.354.302.563.237.963l-.12.153zm17.781-4.313c-.045.202-.394.298-.571.274l-.167-.096c-.05-.086-.042-.113-.036-.212.108-.199.204-.293.363-.299l.245.015.187.171-.021.147zm1.794 1.068-.201.074-.17-.035c-.287-.184-.659-1.485-.68-1.79.122-.167.196-.177.345-.214l.306.24.113.573c.108.271.431.47.446.766l-.159.386zM168.49 460.329c-.141.485-.57.445-.798.778.473.976 2.528.503 2.535-.379.02-.305-.614-.717-.817-.948 0-.738.854-.583 1.067-1.353.029-.331-.248-1.469-.612-1.687l-.061-.004c-.566.281-.163.867-.586 1.345l-.629.431c-.6.626.051 1.301-.099 1.817zM175.642 466.459c.193-.306.218-.552.058-.76l-.153-.12c-.274.009-.411-.028-.648.134-.14.195-.212.407-.085.586.127.373.631.304.828.16zM172.106 465.276c.113.215.242.294.496.35.311-.139.509-.484.818-.703l.612-.346c.129-.145.121-.298.149-.422-.095-.183-.22-.3-.502-.449-.4.032-.766.141-1.197.04-.624.346-.304 1.014-.376 1.53zM171.977 463.136l.085.017.148-.201-.05-.188-.129-.106-.188.05c-.104.125-.125.203-.032.331l.166.097z"/><path style="fill-rule:evenodd;clip-rule:evenodd" d="m212.386 414.865-.868-.494-2.411-1.265-5.284-2.606-4.391-1.9c-3.372-1.114-6.683-2.385-9.972-3.287a99.955 99.955 0 0 0-1.042-.273c-.307-.077-.614-.15-.921-.218-6.777-1.516-13.36-2.412-19.741-2.568-.597-.015-1.16-.09-1.738-.12a83.547 83.547 0 0 0-.708-.003l-1.42.114-1.622-.047c-.46.048-.77.671-1.214.729-.402.052-.798-.545-1.207-.602a2.835 2.835 0 0 0-.244-.022c-.343.021-.685.043-1.028.068-.379.056-.753.13-1.105.17a261.1 261.1 0 0 1-.885-.007 82.3 82.3 0 0 0-1.103.109c-7.945.87-15.78 2.615-23.163 5.546-2.911 1.156-5.896 2.305-8.755 3.68l-2.738 1.5c-.524.259-1.082.522-1.635.793a91.35 91.35 0 0 0-1.917 1.104l-.293.203a8.177 8.177 0 0 1-.353.183c-.498.3-.993.605-1.486.914-.173.333.069.764-.271 1.02-.244.157-.795-.092-1.24-.05-.52.341-1.037.688-1.551 1.039l-.504.379c-.931.629-1.87 1.328-2.819 2.025-.137.101-.281.201-.43.303a92.851 92.851 0 0 0-1.967 1.536c-.314.469.123.904-.295 1.34l-.178.088-.694-.337c-.07-.006-.235.086-.442.229-.491.412-.977.829-1.46 1.252a1.128 1.128 0 0 0-.117.148c.089.301.646.554.524.906-.613.382-.969-.381-1.458-.112l-.514.561a80.629 80.629 0 0 0-1.874 1.666c-.588.57-1.17 1.148-1.745 1.735l-.155.169c-.381.421-.312 1.032-.634 1.318l-.547.288-.454.786c-.195.187-.46.113-.666.219l-.851.778-.072.081c-.358.467-.719 1.522-.945 1.716l-.417.172-.415.554-.63.404-.457.568-.087.128c-.108.126-.215.255-.321.387-.128.162-.255.325-.382.489-.586.769-1.161 1.597-1.781 2.369l-.356.493-.783 1.221c-.171.21-.361.446-.558.698a94.974 94.974 0 0 0-2.166 3.328c.271.565.949-.325 1.427-.297.372.239.355.776-.073 1.006-.294.158-.615.051-.941.092l-.932.351c-.627.353-.735 1.339-1.199 1.912l-.809 1.253a94.98 94.98 0 0 0-1.992 3.817c-.283.7-.647 1.399-1.007 2.106a91.887 91.887 0 0 0-1.173 2.639c-.557 1.434-1.135 2.815-1.671 4.198a93.608 93.608 0 0 0-1.121 3.203c-.064.318-.013.637-.094.919l-.409.653-.003.008a93.237 93.237 0 0 0-1.844 6.857c-.008.277.047.55-.008.799-.083.373-.257.684-.385 1.003-.082.394-.161.788-.238 1.182-.039.38-.07.767-.13 1.097-.14.768-.302 1.505-.455 2.237a92.55 92.55 0 0 0-.442 3.171l.047.295-.214 1.171a93.173 93.173 0 0 0-.355 4.308l.022 1.13c-.025.533-.101 1.02-.142 1.522-.008.266-.015.533-.021.799.02.415.096.845.108 1.237l-.131.718v.342c.137 2.182.134 4.437.321 6.578.11 1.262.118 2.469.268 3.712.166 1.381.456 2.763.624 4.14.046.377.121 1.095.233 1.801.043.244.087.489.133.733.098.464.215.858.353 1.057.531.257.731-.276 1.184-.237.121.015.176.097.248.175-.004.235-.257.915-.439 1.144-.217.275-.732.395-.717.857l.404 1.663c.089.204.306.376.321.598l-.083.573.093.368c.117.324.294.646.341.977l.292 1.371c.056.197.112.394.17.591.231.319.718.506.745.895.029.189-.196.551-.25.752l.022.07c.157.251.453.268.703.5.069.097.08.121.047.249-.051.158-.331.27-.35.497l.32.82c.017.112.04.227.066.344.288.845.588 1.686.9 2.522.159.376.315.736.446 1.061.355.878.69 1.786 1.041 2.684a94.237 94.237 0 0 0 2.23 4.888c.98 1.921 2.041 3.809 3.139 5.723 2.616 4.559 5.786 8.926 9.26 13.293.62.736 1.252 1.464 1.896 2.183 1.248 1.332 2.575 2.618 3.785 3.982.44.436.884.868 1.334 1.296.489.413.997.809 1.502 1.262l.818.876.181.161.704.518c1.137 1.016 2.467 2.091 3.628 3.092l.3.234 1.025.677c.549.462 1.171.935 1.784 1.424.523.376 1.052.748 1.585 1.115.415.252.825.499 1.182.788l2.518 1.518 1.59.982c.302.245.781.557 1.302.863l.544.31c.592.326 1.177.616 1.571.768l2.036 1.144 2.515 1.263.031.015 4.555 2.008.15.061c6.12 2.245 12.051 4.221 17.781 5.167.879.145 1.655.356 2.462.532.964.157 1.929.299 2.894.425 1.379.155 2.791.276 4.107.346.711.038 1.348.262 2.031.219.208-.217.368-.744.57-.878.105-.071.163-.066.287-.057.515.311.169.854.724 1.053h.002l.343.016c.144-.026.284-.078.422-.081l.686.123.134.004c.47-.009 1.01-.03 1.477-.04 2.377-.05 4.743.072 7.064-.146 3.013-.284 6-.415 8.946-.933 1.652-.291 3.305-.659 4.968-.912l.867-.293a32.541 32.541 0 0 0 1.944-.347c.821-.201 1.64-.413 2.456-.637.33-.105.652-.217.961-.336.721-.277 1.515-.418 2.282-.615.354-.111.708-.224 1.061-.339l.04-.016c.65-.272 1.327-.418 1.974-.671l1.353-.585 1.567-.488.402-.157c.311-.268.122-.696.404-.939.365-.159.545.421.912.399l.991-.508.472-.098a93.698 93.698 0 0 0 23.555-14.598c1.264-1.126 2.506-2.299 3.813-3.471 1.335-1.197 2.63-2.623 3.95-4.04l.612-.543c.224-.244.446-.488.667-.734l1.267-1.54c.372-.397.737-.991 1.169-1.421.142-.141.31-.285.476-.442.201-.246.4-.493.599-.742.055-.109.099-.224.126-.347-.299-.56-1.003-.893-.19-1.539.17-.135.264-.278.472-.268.396.083.449.617.835.562.457-.598.907-1.203 1.352-1.814.411-.673.825-1.362 1.334-1.988.202-.248.399-.504.593-.765a95.06 95.06 0 0 0 3.262-5.199l.26-.449c25.892-44.847 10.559-102.127-34.196-128.132zM75.809 477.172l.136-.017.224.161c-.005.08-.005.108-.062.218l-.051.034c-.107.004-.135.013-.279-.066l-.024-.014c-.012-.124-.035-.149.056-.316zm-3.419 8.286c-.316-.655 1.059-1.373 1.401-1.383.187.138.861 1.608.874 1.839l-.096.167c-.251.076-1.993-.259-2.179-.623zm2.448 17.74-.024-.014.055-.095.044.089-.075.02zm.333-3.27c-.606.04-1.099-.935-.424-1.134l.273-.033c.582.314.619.758.151 1.167zm.761-18.079.188-.05c.143.18.22.325.113.573l-.148.201c-.119-.001-.188-.011-.289-.103-.115-.151-.108-.511.136-.621zm.42 17.077c-.146-.025-.199-.027-.337-.131l-.003-.16c.121-.176.195-.178.345-.214.195.123.166.172.189.332l-.194.173zm117.111-87.515.105.093c.356.603-1.039.866-1.306.834l-.034-.051c.283-.459.83-.803 1.235-.876zm-19.949-4.626.071.041.016.136-.158.163a2.554 2.554 0 0 0-.085-.017c.005-.159.034-.2.156-.323zm-1.352-.844.14-.078.091.116-.072.18-.075.02a2.554 2.554 0 0 0-.085-.017l-.044-.089.045-.132zm-7.154 7.94c-.023.182-.17.236-.278.316l-.19-.11.042-.293.209-.197c.178.093.227.138.217.284zm-.208-1.233.091.116-.114.252-.075.02-.105-.093-.016-.137c.09-.119.117-.122.219-.158zm-.324-3.395.071.041c-.005.08-.005.108-.062.218l-.075.02-.071-.041-.02-.075.157-.163zm-1.944-3.282c.049-.187-.013-.324.095-.549.148-.037.234-.003.406.012.287.162.533.326.696.497l-.001.222c-.398.67-.938.538-1.459.714l-.095-.055-.024-.014c.005-.285.302-.521.382-.827zm.109 5.526c.86.436.337 1.679-.334 1.459-.562-.138-.395-1.373.334-1.459zm-1.934-3.848.187.171c.05.086.042.113.036.212-.279.465-.92.705-1.353.585-.107-.027-.123-.098-.135-.205.172-.431.897-.722 1.265-.763zm-2.016 5.855.559-.694c.122-.086.254-.076.399-.087.186.104.269.197.274.349.134.663-1.436 1.322-1.833 1.197l-.119-.069.007-.123c.061-.321.515-.399.713-.573zm-1.429-4.668.095.055-.055.095-.095-.055.055-.095zm-.11 2.827c.188-.336.342-.345.602-.383l.21.185c.205.398-.37.603-.603.605l-.21-.185.001-.222zm-1.23-.837c.166.092.203.13.193.27-.023.317-.374.492-.619.468l-.119-.069-.046-.249c.04-.347.39-.394.591-.42zm-6.578-3.607.119.069.024.014c-.007.188-.088.233-.239.084l.096-.167zm-1.652-1.59.113-.03c.325.189.459.375.566.613l-.055.095-.324.067-.228-.1c-.055-.171-.136-.32-.117-.512l.045-.133zm-6.744 5.254c-.11.077-.147.095-.277.094-.052-.097-.065-.087-.036-.212l.069-.119.16-.003c.096.104.093.11.084.24zm-.305-1.891.119.069c.018.363-.483.747-.801.618l-.054-.126c.129-.471.368-.556.736-.561zm-13.624 10.302.164-.064.2.147c-.008.144-.047.231-.199.235l-.18-.072.015-.246zm-10.697 3.417c.231-.114.402.086.681.139.269.149.382.278.376.503-.521.884-1.692-.34-1.057-.642zm-10.947 4.51.095.055.003.16c-.239.371-.672.643-1.052.504-.081-.143-.058-.224-.063-.386.312-.433.619-.26 1.017-.333zm-3.361 10.988.306.24c0 .105.007.142-.066.279-.117.034-.15.065-.297.019l-.153-.12-.084-.239c.111-.15.16-.146.294-.179zm-3.141-5.88c.34.23.629.966.167 1.304l-.267.132c-.521-.139-.702-.636-.663-1.05.231-.426.411-.418.763-.386zm-3.272 1.383.096-.167.174-.027c.277.152.309.296.263.533-.108.091-.156.136-.28.156-.278-.09-.283-.268-.253-.495zM90.06 460.18l.167.096c.081.271.493.857.489 1.076-.037.318-.413.297-.672.12-.11-.314-.565-1.129.016-1.292zm-.936-11.404.279.066.163.158.084.239a.655.655 0 0 1-.422.455 1.019 1.019 0 0 1-.51-.326c-.019-.329.127-.483.406-.592zm-.442 16.263c.106-.062.153-.033.273-.033.166.115.204.205.124.389-.128.074-.193.076-.348.053l-.139-.144c-.005-.103-.02-.18.09-.265zm-4.984-3.895c.134-.094.2-.098.352-.115.444.219.479.58.098.819-.394-.059-.53-.345-.45-.704zm.426 15.747c.513.308.25.521.415.875.075.161.205.183.199.369a2.554 2.554 0 0 0-.017.085c-.112.028-.141.047-.283-.005-.137-.231-.241-.83-.8-.812-.167.006-.28.15-.464.145l-.156-.059-.07-.263c.21-.634.706-.403 1.176-.335zm-.492 31.131.167.096c.143.488-.379.361-.717.253l-.03-.113c.036-.337.384-.241.58-.236zM83 506.863c-.126-.032-.246-.064-.347-.169-.1-.124-.132-.214-.063-.386l.188-.05.459.138.19.11-.035.17c-.143.108-.244.127-.392.187zm-.245-26.887.119.069.04.15a1.036 1.036 0 0 1-.169.347c-.156.024-.362.049-.371-.182.028-.229.245-.324.381-.384zm-1.946 14.472c-.015.128-.109.199-.189.272l-.198.013c-.207-.111-.248-.188-.162-.379.043-.205.24-.214.407-.21.127.104.158.163.142.304zm-.344-16.494.105.093c.074.099.087.14.07.263l-.138.238c-.105.084-.182.118-.314.104l-.19-.11c-.209-.33.223-.585.467-.588zm-.574-10.876.081.079-.014.024a2.554 2.554 0 0 0-.085-.017l-.02-.075c.013-.005.026-.008.038-.011zm-1.487-2.479.1-.228.235-.023c.188.139.182.231.209.407l-.13.115-.212.037-.21-.185.008-.123zm.132 41.37c-.09-.128-.101-.184-.09-.338l.24-.306a6.31 6.31 0 0 0 .136-.017l.177.134c.012.16.016.365-.176.47-.108.074-.157.071-.287.057zm.95 16.049c-.232.012-.437-.067-.636-.272-.011-.12-.037-.136.042-.293l.409-.05.306.24.003.16-.124.215zm.504-24.612-.113.03-.119-.069-.006-.099.045-.133.113-.03.119.069-.039.232zm.517 9.16c-.145.023-.233.005-.374-.121l.005-.283.215-.098.166.096.074.202-.086.204zm.475-1.758c-.116.133-.137.088-.277.094-.46-.34-.672-1.396-.154-1.931l.249-.047.19.11c.012.27-.209.511-.26.835l.252.939zm.314-29.613c-.108-.049-.14-.057-.2-.147l-.03-.113.136-.017.115.13.048.027-.069.12zm.08-11.294.055-.095.071.041.02.075c-.068.011-.05.014-.146-.021zm.349-9.232c-.011-.069-.013-.051.021-.147l.249-.047.129.106c.064.094.067.089.036.212l-.083.143c-.109.001-.158.002-.303-.08a6.439 6.439 0 0 0-.049-.187zm1.514 56.397-.109-.031-.071-.041-.054-.126.014-.024.113-.03.119.069.044.089a1.79 1.79 0 0 0-.056.094zm.064-1.265c-.407-.059-1.045.394-1.452-.013-.433-.668 1.239-.633 1.422-.704l.639-.393c.534.304.729.665.758 1.105-.138.197-.292.314-.475.329-.295.025-.55-.274-.892-.324zm1.533 7.016c-.148.008-.303-.008-.446-.162-.171-.212-.176-.436.021-.75l.287-.057c.238.131.362.273.366.465.049.187-.082.36-.228.504zm5.026 17.672-.174.027-.153-.12c.047-.191.104-.17.256-.17l.115.13-.044.133zm9.171 23.019-.113.03-.18-.072-.034-.051-.036-.212.083-.143.146.021.173.195-.039.232zm.745-4.588.153.12a.595.595 0 0 1-.104.29c-.194.057-.312 0-.47-.176l.039-.232.014-.024.368.022zm-.338-1.942.031-.109.075-.02c.242.154.27.286.403.455l-.039.232c-.15.006-.237-.001-.436-.125-.048-.154-.112-.238-.034-.433zm.339 4.579-.269-.028-.044-.089c-.079-.135-.017-1.193.123-1.422l.225-.06.163.158c.221.323.179 1.127-.198 1.441zm.708-2.546-.143-.082c-.089-.154-.096-1.084-.015-1.184.143-.081.277-.01.443.002l.272.189c.281.346-.074 1.136-.557 1.075zm2.338-2.016c-.637-.215-1.137-.799-1.091-1.297l.209-.197c.512.085.824.432 1.322.732.323-.083.558-.547.886-.6.371.232.372.495.381.824-.143.201-1.458.518-1.707.538zm1.909 4.056-.014.024-.099.006c-.03-.109-.025-.101.049-.194l.095.055-.031.109zm.182-9.107c.219-.158.409-.149.652-.195l.167.096c.004.111.007.153-.08.303-.157.062-.846.218-.739-.204zm1.162 3.371.071.041c-.005.214-.169.472-.334.633-.719.067-.121-.599.263-.674zm-.163 4.131-.047-.249c.057-.416.705-.332.956-.337.221.128.211.187.237.359a.837.837 0 0 1-1.146.227zm2.809 12.993-.249.047c-.271-.019-.359-.28-.342-.452l.11-.191.287-.057.262.151.047.249-.115.253zm2.823 5.22c-.167.131-.344.144-.549.127-.347-.211-.287-.412-.467-.619-.216-.248-.537-.219-.686-.46-.182-.255.016-.546.242-.749l.232.038c.462.12.229.633.439.889.277-.003.645-.103.921-.167.189.194.16.697-.132.941zm.271-1.019-.024-.014c-.016-.16-.05-.235.064-.44l.014-.024.198-.013.139.144.04.15c-.143.21-.243.184-.431.197zm.412-14.945c-1.827.185-1.053-1.715-2.211-1.721-.674-.046-.737 1.114-1.088 1.5-.224.175-1.578-.122-1.835-.393l-.088-.178c.249-.344.841-.361.972-.805.216-.729-1.294-2.558-.071-2.9.351.283.117.406.126.771.004.151.738 1.589.895 1.692.165-.038.267-.057.417-.172.163-.312.073-.844-.032-1.099-.219-.172-.725-.476-.733-.709-.017-.491.746-.502.983-.163.154.181.137.409.072.645.332.473 1.046-.013 1.364-.165l.19.11c.071.262-.06.581-.052.859l.736.648c.125.257-.043.582.122.833.379.425.982.071.919.88-.214.364-.39.337-.686.367zm-4.955-6.419.079-.082c.179-.101.347.035.562.07.484.249.976.972.498 1.336-.107.091-.18.119-.314.104-.615-.042-.745-1.064-.825-1.428zm1.953-7.449c-.221-.125-.303-.259-.281-.448l.083-.143c.07-.047 1.406-.326 1.56-.338a.69.69 0 0 1 .268.25c-.225.662-1.128.775-1.63.679zm1.284 9.096a2.554 2.554 0 0 0-.017.085l-.188.05-.024-.014c-.062-.145-.084-.155.052-.256l.177.135zm-.689-7.545c-.034.279-.132.542-.429.578-.377-.119-.355-.429-.126-.771l.324-.067.231.26zm1.144 4.504.12-.153.105.093.048.027-.069.119-.075.02-.129-.106zm.403 1.884c.1-.265.419-.664.632-.874l.235-.023.105.093c.344.474-.282 1.192-.759 1.15-.166-.112-.198-.198-.213-.346zm2.106-7.55-.16.003c-.067-.104-.082-.069-.036-.212l.113-.03.105.093.02.075a4.455 4.455 0 0 0-.042.071zm2.747 1.617c-.379.107-.681-.167-1.082-.434l-.02-.075.106-.129c.205-.144.366-.052.617-.025.246.148.358.286.465.459l-.086.204zm1.046-.603c-.044-.082-.033-.08-.026-.174l.263-.071.153.12.003.16c-.153.104-.281.132-.393-.035zm1.281 12.397a3.39 3.39 0 0 0-.065.058l-.157-.059c-.333-.455-.549-.935-.013-1.405l.382-.002.258.213c.15.207-.18 1.045-.405 1.195zm.22-12.8.004-.061.038-.01.034.051-.014.024a1.29 1.29 0 0 0-.062-.004zm.397 21.733c-.123-.016-.194-.108-.272-.189l.029-.269.079-.082.259-.009.163.158c.024.171-.022.412-.258.391zm1.483-26.143c-.107-.153-.075-.282.067-.501.144-.029.233-.029.396-.026.202.134.324.266.305.462l-.073.181c-.199.067-.535.144-.695-.116zm.478-3.631-.18-.072-.033-.273c.273-.461.651-.323 1.021-.395.406.351-.605.768-.808.74zm.34 1.499-.12.153-.16.003-.125-.168.107-.351.126-.054.119.069.053.348zm2.231 27.843-.219.159c-.306-.123-.566-.623-.948-.611-.976.057.479 1.872-.923 1.818l-.234-.199c-.2-.303.107-.646.022-.972l-.355-.65c.221-.781 1.514-.729 2.09-.763.488.27.646.798.567 1.218zm-1.293-17.487.15-.04.19.11.03.113-.041.071-.014.024c-.105.006-.224.006-.313-.117-.046-.092-.044-.042-.002-.161zm1.13 8.593a.685.685 0 0 1-.357-.206c-.011-.12-.037-.136.042-.293.209-.067.353-.068.583-.076.453.249-.034.565-.268.575zm.97-2.616-.269-.028c-.138-.244-.176-.566.187-.654l.167.096.057.287-.142.299zm2.327 12.016-.014.024-.099.006-.02-.075.041-.071.095.055-.003.061zm.228-10.89c-.171.013-.419.023-.531-.18l-.084-.239.11-.191c.136-.094.228-.059.385-.063.192.129.3.26.281.448-.016.114-.084.154-.161.225zm-.13-90.062-.036-.212c.015-.134.121-.221.203-.296l.198-.013.081.079.078.14c-.031.119-.049.208-.141.3-.126.092-.203.102-.383.002zm.476 50.557c.052-.125.082-.14.185-.211l.119.069c-.007.204-.146.283-.304.142zm.454 58.835-.034-.051.055-.095.061.004.03.113-.112.029zm1.137-19.609c-.052-.155-.076-.227-.049-.409.25-.379.986-.354 1.362-.326l.23.26-.035.17c-.377.315-.966.616-1.508.305zm.772-43.484.188-.05c.287.188.161.46-.115.474l-.153-.12c-.013-.115-.048-.204.08-.304zm1.171 6.489c.209.16.083.395.212.567.234.313.864.212.92.659l-.004.061c-.063.549-1.045.697-1.409.298-.26-.284-.393-1.121-.19-1.539.126-.089.192-.098.328-.128l.143.082zm-.054-5.018.069-.119.126-.054.105.093.074.202-.103.068-.214-.124c-.018-.023-.038-.044-.057-.066zm-.05 59.655c-.173.121-.463.137-.702.008-.001-.461.511-.459.827-.444l.064.164c-.04.122-.09.217-.189.272zm.594 1.169-.19-.11a3.39 3.39 0 0 0-.058-.065l.138-.238c.222-.152.591-.166.85-.208l.115.13.04.15c-.195.252-.622.376-.895.341zm1.84 2.143-.051.034c-.197.022-.279.001-.446-.162-.039-.266.033-.368.285-.439l.238.137.047.249-.073.181zm2.538 8.517-.155.323c-.265.084-.487.057-.739-.204-.035-.323.202-.472.473-.489l.17.035.258.212-.007.123zm1.348 1.128c-.021.257-.272.346-.428.357a2.554 2.554 0 0 0-.085-.017c-.17-.11-.218-.21-.199-.369l.1-.228c.189-.064.269-.074.484-.07l.091.116c.053.086.052.106.037.211zm.821-12.359-.15.04-.129-.106-.016-.137.164-.064.153.12-.022.147zm.526-9.702c-.08-.005-.108-.005-.218-.062l-.03-.113.065-.058.126-.054.095.055-.038.232zm1.018 13.897c-.1-.019-.201-.027-.276-.127-.068-.116-.043-.219.022-.368l.201-.074a.743.743 0 0 1 .292.264.514.514 0 0 1-.239.305zm.063-9.175.11-.191.188-.05.119.069.05.188c-.089.269-.504.307-.467-.016zm.203 15.364c-.131-.197-.09-1.208.143-1.347l.239-.084c.38.2.761.601.745.907-.028.547-.779.868-1.127.524zm3.279-12.274-.253.108-.133-.045c-.094-.158-.103-.228.04-.453l.188-.05.119.069c.042.14.066.204.039.371zm.687 5.733c-.02.122-.122.161-.243.146a29.005 29.005 0 0 0-.238-.137l-.084-.239.093-.105.211-.037.282.226-.021.146zm.09-9.223.185-.211c.104-.009 1.85.147 1.85.147.217.143.233.306.488.473l.263-.071c.369-.455.309-1.022.874-1.02 1.017.721-.097 1.451-.715 1.843-.188.119-.606.156-.832.123-.155-.023-2.085-.939-2.109-.963 0-.107-.002-.214-.004-.321zm.842-3.326.15-.04.19.11c.118.347-.132.655-.504.598-.142-.19-.1-.556.164-.668zm3.25 12.614c-.015.145-.144.265-.23.344l-.16.003c-.272-.032-.582-.459-.614-.64.06-.167.139-.226.254-.33l.283.005c.302.16.503.362.467.618zm-2.073 3.535c-.193.134-1.257.013-1.38-.193-.106-.171-.032-.328.105-.511.361-.055.838.172 1.209.158l.143.082.074.202-.151.262zm.609-3.746-.334.029c-.391-.212-.467-.498-.217-.888a6.31 6.31 0 0 0 .136-.017l.232.038c.164.201.28.408.256.656l-.073.182zm2.372 2.101-.683.304c-.468.023-1.308-.546-1.509-.903l.086-.204c.287 0 .697.272.994.256.378-.02.732-.368 1.11-.439.309.18.367.326.522.524-.028.342-.311.371-.52.462zm4.265-8.433.134-.177.198-.013c.316.165.37.299.348.551l-.083.143-.212.037c-.27-.02-.438-.353-.385-.541zm2.679 14.538c-.077-.125-.041-.246.084-.365l.239-.084.129.106c.069.132.026.286-.111.412-.12.092-.275.109-.341-.069zm.384 5.05c-.133-.157-.165-.371.033-.552l.014-.024.051-.034.665.003c.334-.04.61-.375.95-.436l.19.11.024.014c.036.484-1.482 1.38-1.927.919zm1.472-6.011.001-.222.065-.058.222.001.105.093c.021.22-.095.356-.335.251a3.39 3.39 0 0 1-.058-.065zm4.163-3.695c-.082.037-.074.04-.174.027l-.119-.069-.016-.136.055-.095.174-.027.105.092c.003.091.018.092-.025.208zm2.988 3.727-.22-.223-.002-.382.144-.139c.115.17.292.403.246.618-.029.104-.07.096-.168.126zm.912 1.606-.119-.069c.001-.099.007-.121.049-.194l.15-.04.091.116-.083.143-.088.044zm.555 1.623-.225.06c-.203-.227-.341-.546-.023-.839.122-.088.198-.078.338-.091l.105.092c.129.184.029.575-.195.778zm3.556-4.236c-.184.308-.488.355-.788.212l-.024-.014c.031-.353.391-.462.623-.53l.153.12c.049.086.041.113.036.212zm1.996.168-.06-.225a.382.382 0 0 1 .189-.272l.126-.054.143.082c.007.176-.039.365-.224.443-.072.033-.093.028-.174.026zm1.66 1.466c-.349.201-1.161.277-1.544-.129l.029-.269c.101-.424.691-.252 1.01-.211.273.153.428.288.564.453l-.059.156zm1.736-4.27c.22-.373.52-.334.833-.345.61.349.937.759.982 1.266-.694 1.235-1.925-.069-1.815-.921zm3.393 3.738-.174.027-.105-.092.007-.123.083-.143.126-.054.143.082c.004.111.007.152-.08.303zm7.579-2.962a2.554 2.554 0 0 0-.085-.017c-.222-.067-.233-.287-.346-.39-.291-.266-.675-.276-.904-.522-.039-.423.193-1.283.658-1.304.385.242.335.511.606.763.192.178.436.209.567.391.195.274-.081 1.06-.496 1.079zm2.617.908-.232-.038-.026-.174.059-.157.164-.064.119.069.036.212-.12.152zm2.668-1.985c-.113.03-.193.014-.341-.07-.233-.309-.019-.637-.063-.989-.035-.278-.323-.583-.255-.878.084-.365.426-.378.616-.407l.214.124c.071.394.488 2.179-.171 2.22zm8.701 1.689c-.298.191-.643-.261-.994-.256-.31.004-.467.405-.823.382-.359-.257-.139-.522-.296-.806-.112-.203-.39-.199-.455-.421l-.01-.038c.14-.186.249-.203.41-.271l.17.035c.245.181.185.341.325.537.252.314.965-.235 1.382-.25.313.19.718.814.291 1.088zm-.706-3.998c.127.257.576.305.73.549.09.127.098.246.087.399l-.055.095-.429-.026c-.395.045-.484.473-.996.187-.073-.218-.036-.329-.052-.57-.015-.228-.248-.371-.297-.584-.11-.48.65-.906.894-.945l.139.144c.117.226-.13.531-.021.751zm2.855.22-.102.672c-.131.228-.276.294-.472.268l-.156-.059c-.041-.542.229-1.037-.044-1.518-.202-.356-.975-.364-.961-.809.047-.418.51-.435.742-.461.562.321.388.603.605.985.354.169.489-.032.807.085.082.277-.292.467-.419.837zm3.331-2.747c-.242-.143-.26-.247-.243-.458.06-.731.966-.787 1.415-.803.155.122.19.2.251.335-.168.599-.925 1.002-1.423.926zm.656-5.148.086-.204c.838-.237 1.127.485 1.947.584.166.092.203.13.193.27-.03.204-.245.314-.37.422-.402.039-1.91-.513-1.856-1.072zm2.879 5.729-.051.034c-.72.023-1.546-1.411-.949-1.818l.263-.071c.273.181.84 1.405.824 1.651l-.087.204zm1.124-3.926c-.477.131-.862-.528-.834-.863.171-.288.327-.357.554-.411.391.232.518.875.28 1.274zm1.607-5.202-.065.058c-.364-.128-.299-.495-.58-.589-.245-.082-1.299.688-1.292-.015.075-.469 1.089-.704 1.422-.704.508.295.485.706.635 1.097l-.12.153zm1.042 7.812-.038.01-.048-.027-.024-.014.096-.167.048.027.034.051c-.022.041-.045.08-.068.12zm2.963-.735-.164.064-.048-.028-.05-.188.055-.095.174-.027.091.116-.058.158zm1.427-8.737-.065.058c-.111.004-.153.008-.303-.08-.009-.226.073-.301.278-.316l.129.106-.039.232zm1.416 1.834-.065.058-.204-.086c-.02-.167-.051-.245.077-.464l.126-.054.177.134c.009.13.037.299-.111.412zm.714 1.619-.174.027-.105-.092c-.006-.202.058-.264.24-.306.126.109.094.123.108.253l-.069.118zm.526-4.207-.265-.09-.02-.075.017-.085.15-.04.129.106.044.089-.055.095zm2.823-4.341c-.108.078-.166.091-.31.043l-.2-.147.001-.222.144-.139.188-.05.2.148.074.202a6.51 6.51 0 0 0-.097.165zm6.525-9.764a2.554 2.554 0 0 0-.085-.017l-.034-.051c.008-.094.004-.102.073-.18l.143.082-.097.166zm2.345 4.181-.133-.045.069-.119.119.069-.055.095zM232.781 543l-.099.006c-.271-.092-.384-.256-.516-.425-.005-.257.167-.478.375-.705l.562.07.139.144c.115.267-.268.725-.461.91zm1.701 15.848-.26.231c-.124-.015-.522-.051-.513-.265.014-.333.515-.327.659-.318l.115.13-.001.222zm3.162-6.687-.232-.038a1.062 1.062 0 0 1-.002-.382l.185-.211.136-.017c.361.205.13.465-.087.648zm7.977-23.379c-.471.033-.867-.184-.883-.669.125-.182.192-.162.355-.176.319.185.481.363.655.569-.007.111-.04.178-.127.276zm-10 7.969c-17.119 29.654-50.095 44.445-82.035 39.847.028-.123.132-.376.114-.42 4.828-8.415 9.663-16.934 14.493-25.27l.918-1.535 1.222-1.073c.877-.658 2.024-1.069 2.983-1.486 1.901-.739 3.658-1.783 5.619-2.314a50.882 50.882 0 0 0 3.398-1.727l-20.088-55.195c.186 12.684.215 25.359.422 38.063-.004 2.532.175 5.058.279 7.594-.024.71.406 1.919-.316 2.581-.757.05-1.527-.863-2.203-1.24-1.06-1.165-1.406-1.759-2.995-.967-3.868 5.102-7.499 10.521-11.364 15.673a95.132 95.132 0 0 1-3.45 4.932c-.885 1.505-1.941 2.887-3.004 4.269-2.167 3.148-4.101 6.343-6.39 9.365-1.517 2.23-1.232 2.742-3.646 1.04-.035-.537.746-1.604 1.214-2.158 1.458-1.726 2.773-4.034 4.204-5.799 4.88-7.277 9.973-14.577 14.994-21.741 1.071-1.9 2.483-3.362 3.585-5.331.56-.959 1.38-1.843 1.289-2.782-.124-1.273-2.865-1.589-3.832-2.594.096-2.991 7.385 1.355 8.288-4.299-.049-11.453.153-22.871-.141-34.322 1.141-11.903-3.655-13.484-10.033-22.406-.186-.379-.615-.81-.181-1.28.445-.303 1.041.171 1.617.33 1.426.395 4.094 1.849 5.182 1.245 1.493-.953 1.494-3.142 1.578-4.711.115-1.028.397-2.067.694-3.125.156-.556.019-1.111.468-1.635.663-.106.654.918.761 1.265.457 1.31.823 2.668 1.337 3.948.925 2.368 1.533 5.153 3.695 6.898 1.122 1.386 3.29 1.892 4.944 2.537 1.319.517 1.502.895 2.956.595.327.25.651 1.338 1.365 1.042.206-.251.16-.557.42-.837.202-.218 1.202-.798 1.439-.789l.452.261c.12.47-1.211.949-1.224 1.516-.034.538 1.553 1.144 2.158 1.373 1.907.724 3.103 1.586 4.662.881.405-.183 1.166-.54 1.131-1.189-.208-.186-.519-.26-.724-.45-.001-.121.016-.258.141-.3.291-.136.544.259.823.443.697-.185 1.059-1.263 1.652-1.873.724-.744 1.529-1.531 2.251-2.416.373-.457.37-.896.47-1.253.69-.999.647-2.241.248-3.287-.532-1.286-1.523-2.574-2.528-3.588-4.597-6.841-9.728-13.324-14.469-20.107l-1.037-1.171c-.467-.6-.8-1.322-1.54-1.62-.18-.194-.09-.55-.187-.775-.138-.32-.633-.975-.836-1.245-1.829-2.783-3.921-1.927-5.995-.825-.4.179-1.816.392-1.873 1.047-.038.647 1.118.774 1.477 1.234-.2.568-1.93.887-2.398.362-.299-.334-.079-.91-.673-1.087-.38-.046-.771.316-1.1.477-8.339 3.985-16.78 7.832-25.184 11.696-4.05 1.978-8.452 2.505-8.156 8.028.036.297.596.482.606.763.014.356-.48.712-.482 1.055 1.026 13.1 2.097 26.177 2.917 39.293.317 3.363.526 6.741.679 10.144.086 1.901.493 3.727.019 5.792-.453 1.976-2.074 3.823-3.322 5.26-1.06 1.22-1.916 2.677-2.94 3.829-2.531 3.277-5.2 6.751-7.862 9.881l-.704 1.055c-.074.206-.088.525-.304.746l-.667.441c-.429.438-.633 1.003-1.084 1.439-.15.145-.385.267-.558.472l-.389.728c-1.169 1.189-2.133 2.55-3.152 3.866l-.317.77c-1.072.315-.687.924-1.355 1.632l-.708.512c-.283.265-.494.637-.764.829-.051-.003-.163.102-.236.137-20.877-25.426-24.991-62.122-7.573-92.294 22.454-38.896 72.189-52.221 111.084-29.762 38.898 22.459 52.226 72.197 29.771 111.092zm-81.293 26.416c-.088-.544 1.015-.814 1.33-.82l.167.096.006.099c-.073.841-1.565 1.484-1.503.625zm10.744-14.379c.145-.242.299-.297.499-.315l.17.035c.141.113.193.2.176.355-.02.175-.167.268-.268.354-.179.018-.278.036-.511-.104-.04-.124-.072-.186-.066-.325zm1.406-25.076.025-.208c.16-.104.287-.129.454-.182l.19.11c.031.284-.108.521-.411.493l-.258-.213zm10.505 15.213.188-.05c.236.133.393.299.376.503l-.086.204-.212.037a1.078 1.078 0 0 1-.415-.271c-.008-.156-.007-.331.149-.423zm-43.392-78.481c-.144.1-.264.176-.44.159l-.119-.069c-.078-.133-.033-.241.087-.426l.287-.057c.221.113.275.193.185.393zm.055 44.691-.086.204c-.156.016-.307.025-.459-.138l-.05-.188.031-.109.225-.061c.182.103.26.178.339.292zm.401 8.427c.198.114.278.202.387.319.096.77-1.086 1.275-1.439.789-.05-.086-.042-.113-.036-.212.22-.336.761-.852 1.088-.896zm1.627 25.207.214.124.07.263c-.271.755-.95 1.171-1.515 1.031-.279-.069-.355-.311-.599-.282-.234.028-.463.394-.651.577l-.198.013-.21-.185c-.101-.149-.083-.242-.035-.433.27-1.085 1.61-.386 2.195-.67.303-.147.408-.381.729-.438zm-.136-24.822.075-.02.177.134a2.554 2.554 0 0 0-.017.085l-.16.003-.071-.041c-.048-.092-.046-.042-.004-.161zm.843-59.325.163.158c.035.259-.162.908-.538.547-.219-.3.083-.668.375-.705zm-2.593 93.35-.348.053-.119-.069a.673.673 0 0 1-.029-.334.705.705 0 0 1 .342-.152l.21.185c.011.125.035.15-.056.317zm1.312-92.12c-.125.071-.184.059-.324.067l-.153-.12c-.006-.129.008-.191.117-.313l.222.001.105.093.048.027-.015.245zm-.606 48.693-.218-.062c-.171-.221-.212-.379-.157-.662.159-.114.229-.102.413-.111.49.252.308.643-.038.835zm-1.473 20.686c.327.209.395.414.501.671a.907.907 0 0 1-.248.429l-.317-.056c-.148-.247-.368-.567-.292-.868.042-.18.207-.17.356-.176zm-.383-12.196-.19-.11.093-.105.119.069-.022.146zm4.39 17.4c.015-.134.121-.221.203-.296l.307.018.21.185.009.259c-.091.143-.145.188-.27.193-.226.07-.489-.134-.459-.359zm1.558-41.442-.222-.001c-.179-.106-.237-.182-.339-.291-.095-.971.561-1.038 1.226-1.134l.143.082.074.202c-.053.138-.725.988-.882 1.142zm.971 44.808c.014.165.019.256-.115.474l-.225.061c-.138-.044-.221-.094-.258-.213-.067-.112-.051-.2-.029-.334.098-.166.163-.214.308-.203l.17.035.149.18zm-1.073-41.278-.096.167c-.087.045-.027.038-.136.016l-.119-.069.025-.208.164-.064.105.093.057.065zm2.484 41.362c.022-.227.124-.181.318-.166l.187.171.016.136c-.089.105-.063.093-.178.088-.15-.016-.248-.141-.343-.229zm1.337-51.003.001-.222.12-.153.283.005.187.171-.039.232c-.143.108-.203.12-.365.138a31.717 31.717 0 0 1-.187-.171zm.613 52.955.072-.18.113-.03.105.093.02.075c-.098.138-.123.152-.277.094a.569.569 0 0 0-.033-.052zm3.689-71.563a.43.43 0 0 1 .281-.378l.188-.05c.369.215.617.913.175 1.181l-.225.061c-.317-.044-.457-.592-.419-.814zm1.502 12.017.113-.03.044.089-.041.071-.099.006a6.31 6.31 0 0 1-.017-.136zm1.403 16.088.041-.071c.023.071.018.01.006.099l-.047-.028zm5.327-34.945.069-.119.126-.054.05.188-.014.024-.051.034c-.094-.009-.102-.005-.18-.073zm5.057-9.913.211-.037c.261.216.104.405.246.618.292.439 1.136.324 1.423.282l.238.137c.088.284.174.616.016.962a3.39 3.39 0 0 0-.065.058c-.306-.006-.497-.302-.85-.396-.334-.089-.548.188-.914.044-.323-.412-.712-1.11-.305-1.668zm3.287.405c.012-.165.165-.29.278-.316l.164-.064c.185.127.146.175.152.342-.151.253-.329.346-.591.199a463.93 463.93 0 0 0-.003-.161zm9.895 3.522.198-.013.068.103c.126.228-.128.416-.14.682l.127.55c-.042.598-.633.933-1.013.876a31.717 31.717 0 0 0-.187-.171l-.03-.113c-.024-.52.658-.574.779-1.075.074-.311-.147-.504.198-.839zm-1.853-2.341c-.894.428-.733.086-1.684-.051-.698-.101-1.251.215-2.06-.554l-.003-.16c.166-.257.35-.373.578-.397l.567.391c.524.162 2.089.136 2.54-.058.249-.107.406-.253.659-.318l.296.202c.044.528-.539.776-.893.945zm-.979 3.564c.186-.012.354.077.572.108l.081.079c.093.213-.296.336-.452.343-.244-.083-.346-.275-.201-.53zm-.183-.232c-.123-.059-.227-.122-.268-.25-.096-.137-.091-.452.122-.596.109-.09.171-.09.29-.118l.19.11.064.164-.262.674c-.045.004-.09.01-.136.016zm-1.742-1.928c.031-.119.049-.208.141-.3.251-.196.496-.094.805-.075l.21.185c.05.086.042.113.036.212-.325.553-.978.53-1.192-.022zm.564 3.693c-.202-.118-.244-.21-.261-.373.099-.313.26-.404.483-.452l.143.082c.099.3.063.738-.365.743zm-.904-.522-.246.207-.048-.028-.04-.15.086-.204.126-.054.081.079.041.15zm-.407 1.036c.329.29 1.507.896 1.945 1.028.464.14.915-.276 1.396-.274l1.412 1.292c.327.26.631.035.906.079.424.067.852.624.882.89-.191.311-1.051.587-1.311.513-.287-.081-.45-.37-.728-.388-.351-.023-.744.199-1.035.419-.173.309-.076.526.078.744.296.132.461.074.735.266.065.609-.551 1.518-.085 2.016.496.53 1.008-.142 1.406.367.42.54-.434 1.133.394 1.625.164-.044.411-.096.543-.226.341-.336.312-2.186 1.205-1.813.154.47.273.925.283 1.434l-.127.88.439 1.492.032.495.244.236c.173.234.142.543.159.823-.217.301-1.025.635-.81 1.184.315.806.935.442 1.448.899.257.23.76.588.745.907l-.111.412.267.472c.074.55-.61 1.001-.957 1.163l-.133-.045-.088-.178c.133-.429.481-.842.756-1.31-.173-.309-.724-.697-1.077-.717-.397.352-.647.924-1.14.93-1.117-.818.504-1.875-.089-2.593l-.557-.354c-1.376-.592-1.33.239-2.185.104-.442-.07-.471-.542-.743-.747l-.729-.167c-.591-.776-.051-1.578-.158-2.474l-.397-.96c.039-.492.431-.496.22-.985a1.085 1.085 0 0 0-.442-.224c-.359.149-.469.594-.784.754-.241.122-.497-.109-.77-.095l-1.211.285c-.476.239-.27 1.128-.885 1.204-.77.095-1.095-.929-1.074-1.382.282-.449.826-.287.982-.767.229-.705-.856-1.211-.593-1.994.338-1.008 1.223.015 1.712-.822.163-.278.184-.481.154-.705-.113-.842-1.118-1.668-1.515-2.431-.174-.334.024-.71-.097-1.041-.14-.381-.701-.642-.687-1.064l.086-.204c1.211-.355 1.283.336 2.089 1.047zm6.095-3.469c.023-.117.06-.25.169-.347.123-.089.202-.071.338-.091.241.136.329.239.445.384l-.015.246c-.102.139-.142.129-.246.207-.284-.058-.528-.154-.691-.399zm.675 8.775c-.072.242-.179.346-.35.497-.347.005-.497-.346-.355-.649.04-.24.29-.218.468-.206l.153.12.084.238zm1.945 3.061.089-.044.081.079c.063.149-.017.175-.158.163l-.012-.198zm-.916 9.445c-.215.243-.297-.121-.254-.274l.089-.044.119.069.046.249zm-5.987-1.773c-.089.323-.315.521-.609.506-.382-.242-.37-.687-.026-1l.222.001c.253.158.328.299.413.493zm-3.332-3.735c-.012.098-.058.141-.134.177-.175.09-.334-.031-.47-.176-.008-.259.115-.324.329-.35l.238.137.037.212zm-.467-9.577c.044-.112.049-.118.134-.177.047.096.042.078-.025.208a3.465 3.465 0 0 1-.109-.031zm1.318-17.121-.069.119-.15.04c-.176-.116-.16-.161-.128-.328l.093-.105a6.31 6.31 0 0 0 .136-.017l.081.079c.051.086.043.113.037.212zm-.146 10.969c.051.866-.292 1.285-1.067 1.353-.152.013-.322.09-.525-.081-.246-.208-.254-.525-.436-.728-.266-.297-.888-.201-.747-.685.31-.157.658-.403 1.088-.071.139.107.267.301.472.336.297.051.64-.31.956-.337l.259.213zm17.551 14.549c.058-.158.125-.206.25-.268l.071.041.034.051a.61.61 0 0 1-.189.272l-.156-.059-.01-.037zm-58.334-3.252-.076.242-.051.034c-.303-.01-.369-.437-.099-.597.164.116.167.186.226.321zm-.442 1.809a.838.838 0 0 1-.077.464c-.292-.037-.525-.265-.335-.574l.212-.037.2.147zm-1.225-1.12-.225.06c-.149-.04-.276-.075-.357-.206-.216-.293.157-.401.38-.384.207.14.292.308.202.53zm124.812 60.759-.01-.038c.16-.146.356-.111.539-.165l.095.055c-.158.223-.364.291-.624.148zm.88 1.937.001-.222.158-.163.491.029.367.244c.014.165.019.256-.115.474-.341.105-.656-.042-.902-.362z"/><path style="fill-rule:evenodd;clip-rule:evenodd" d="m191.244 536.423.604-.827.728-.437c1.139-1.037 2.354-2.187 3.272-3.415.384-.378 1.817-1.363 1.38-2.062-.574-.268-.812.255-1.287.305-.492-.351.497-1.49.85-1.637.499.154.799.83 1.281.803.53-.029.929-1.071 1.357-1.472.19-.222.384-.453.576-.679l-1.123-3.087c-.334.101-.677.194-.802.223l-.081-.079c-.179-.255.043-.827.336-1.077l.232.068-1.89-5.192c-2.323.263-4.646.532-6.979.741-.83.086-3.789.554-4.612-.09-1.045-.818-1.281-2.847-1.385-3.976-.417-1.55-.58-3.159-1.184-4.654-1.794-7.457-6.151-12.565-10.625-18.523-.876-1.32-2.149-2.742-3.516-3.746-.719-.708-2.184-1.98-3.254-2.387-.513-.195-1.406-.929-2.036-1.182l21 57.702a47.25 47.25 0 0 0 7.158-5.32zm6.643-9.473.188-.05.167.096.034.051c.005.236-.095.376-.279.538a6.31 6.31 0 0 0-.136.017c-.138-.112-.127-.169-.179-.294.038-.148.074-.284.205-.358zm-1.226-5.79.164-.064.19.11c.14.437-.274.677-.654.639l-.119-.069c.007-.238.201-.551.419-.616zm-.859.774.225-.061c.149.163.317 1.463-.093 1.535-.167-.06-.225-.139-.329-.254-.022-.366-.06-.789.197-1.22zM199.266 519.011a.526.526 0 0 1 .018.158l2.209 6.069a178.368 178.368 0 0 0 3.333-4.097c.792-.916 4.083-4.884.866-4.138-2.331.143-4.649.38-6.965.634l.489 1.345.05.029zM168.973 477.792l-.031.109.024.014.109.031.103-.068c-.019-.081-.007-.064-.078-.14l-.127.054z"/><path d="M196.698 557.154c1.135 0 2.29-.195 3.419-.605 5.189-1.89 7.866-7.628 5.978-12.817l-6.088-16.728c-.192.226-.386.457-.576.679-.428.401-3.198 3.684-3.582 4.062-.918 1.228-2.133 2.379-3.272 3.415l-.728.437-.604.827a47.802 47.802 0 0 1-7.156 5.324l3.211 8.824c1.478 4.061 5.313 6.582 9.398 6.582zM157.562 468.858l5.526 15.186c.63.252 1.524.987 2.037 1.182 1.07.407 2.535 1.679 3.254 2.387.818.601 1.591 1.356 2.276 2.145-.82-2.02-.073-4.039 1.966-5.19.649-.366 1.323-.607 1.917-.819.355-.127.691-.247.974-.376 1.158-.529 2.285-1.03 3.429-1.539l1.08-.481c.964-.43 1.939-.846 2.911-1.266l-.498-1.37c-.051.025-.087.052-.14.076a4.826 4.826 0 0 1-1.995.439c-1.178 0-2.199-.436-3.186-.857a26.56 26.56 0 0 0-1.014-.416c-.762-.289-1.816-.689-2.558-1.352a2.558 2.558 0 0 1-.215.009c-.971 0-1.623-.507-2.041-.987-.925-.008-1.554-.297-2.109-.552-.185-.085-.397-.183-.66-.286-.316-.123-.653-.241-.997-.362-1.511-.53-3.378-1.185-4.631-2.61-2.069-1.751-2.909-4.133-3.652-6.241l-.072-.204c-.182 1.223-.598 2.513-1.602 3.484zM155.408 437.559c.041-.023.083-.05.126-.078.365-.23.975-.615 1.801-.615.061 0 .121.002.182.006.663-.842 1.789-1.17 2.365-1.338.062-.018.12-.034.17-.05 1.137-.599 2.463-1.214 3.919-1.214.926 0 1.777.245 2.55.724l-86.11-236.605c-1.889-5.19-7.627-7.863-12.817-5.978-5.19 1.89-7.866 7.628-5.977 12.817l85.905 236.043h.001c2.642-1.23 5.28-2.468 7.885-3.712z"/></svg>