<svg version="1.1" id="Layer_1" xmlns="http://www.w3.org/2000/svg" x="0" y="0" viewBox="0 0 100 40" style="enable-background:new 0 0 100 40" xml:space="preserve"><style>.st2{enable-background:new}.st3,.st4{fill:#90805d}.st4{fill-rule:evenodd;clip-rule:evenodd}</style><g id="logo_x5F_conquer"><linearGradient id="SVGID_1_" gradientUnits="userSpaceOnUse" x1=".455" y1="14.727" x2=".455" y2="42" gradientTransform="matrix(1 0 0 -1 0 42)"><stop offset="0" style="stop-color:#90805d;stop-opacity:0"/><stop offset=".5" style="stop-color:#90805d"/><stop offset="1" style="stop-color:#90805d;stop-opacity:0"/></linearGradient><path style="fill:url(#SVGID_1_)" d="M0 0h.9v27.3H0z"/><linearGradient id="SVGID_2_" gradientUnits="userSpaceOnUse" x1="95.909" y1="14.727" x2="95.909" y2="42" gradientTransform="matrix(1 0 0 -1 0 42)"><stop offset="0" style="stop-color:#90805d;stop-opacity:0"/><stop offset=".5" style="stop-color:#90805d"/><stop offset="1" style="stop-color:#90805d;stop-opacity:0"/></linearGradient><path style="fill:url(#SVGID_2_)" d="M95.5 0h.9v27.3h-.9z"/><g class="st2"><path class="st3" d="M11.5 13.4c0-2.8 2.1-5 5-5 2 0 3.2.8 4.1 2l-2 1.5c-.5-.7-1.2-1.1-2.1-1.1-1.3 0-2.3 1.1-2.3 2.5s.9 2.6 2.3 2.6c1 0 1.6-.5 2.2-1.2l2 1.4c-.9 1.2-2.1 2.2-4.2 2.2-2.8 0-5-2.1-5-4.9zM21.2 13.4c0-2.8 2.2-5 5.2-5s5.1 2.2 5.1 4.9-2.2 5-5.2 5c-2.9 0-5.1-2.2-5.1-4.9zm7.6 0c0-1.4-1-2.6-2.5-2.6-1.4 0-2.4 1.2-2.4 2.6 0 1.4 1 2.6 2.4 2.6 1.5-.1 2.5-1.2 2.5-2.6zM32.9 8.6h2.5l3.9 5v-5h2.6v9.5h-2.3l-4.1-5.2v5.2h-2.6V8.6zM51.3 17.5c-.8.5-1.8.8-2.9.8-2.9 0-5.1-2.2-5.1-4.9s2.2-5 5.2-5c2.9 0 5.1 2.2 5.1 4.9 0 1-.3 2-.8 2.7l1 .8-1.3 1.5-1.2-.8zm-1.9-1.7L48 14.7l1.3-1.5 1.3 1.2c.1-.3.2-.6.2-.9 0-1.4-1-2.6-2.5-2.6-1.4 0-2.4 1.2-2.4 2.6 0 1.4 1 2.6 2.4 2.6.4-.1.8-.2 1.1-.3zM54.8 13.9V8.6h2.7v5.3c0 1.4.7 2 1.8 2s1.8-.6 1.8-2V8.6h2.7v5.3c0 3.1-1.8 4.4-4.5 4.4s-4.5-1.4-4.5-4.4zM65.2 8.6h7.7v2.3h-5.1v1.4h4.6v2.1h-4.6v1.5H73v2.3h-7.7V8.6zM74.3 8.6h4.5c1.5 0 2.5.4 3.1 1 .6.5.8 1.3.8 2.2 0 1.5-.8 2.4-2 2.9L83 18h-3l-1.9-2.9H77V18h-2.6V8.6zm4.4 4.6c.9 0 1.4-.4 1.4-1.1 0-.8-.5-1.1-1.4-1.1H77v2.3h1.7z"/></g><g class="st2"><path class="st3" d="M54.2 20.6h2.1c.6 0 1 .2 1.3.4.2.2.3.5.3.8 0 .6-.4 1-.8 1.1.6.2 1.1.5 1.1 1.2 0 .8-.7 1.3-1.8 1.3h-2.2v-4.8zm2 2.2c.7 0 1.1-.3 1.1-.9 0-.5-.4-.8-1.1-.8h-1.5v1.7h1.5zm.2 2.2c.7 0 1.2-.3 1.2-.9 0-.5-.4-.8-1.3-.8h-1.5V25h1.6zM59.2 20.6h3.5v.5h-3v1.7h2.7v.5h-2.7V25h3v.5h-3.6v-4.9zM65.8 20.5h.5l2.2 4.9h-.6l-.6-1.3h-2.7l-.6 1.3h-.6l2.4-4.9zm1.3 3.2L66 21.2l-1.1 2.5h2.2zM69.2 23.4v-2.9h.6v2.8c0 1.1.6 1.7 1.5 1.7s1.5-.5 1.5-1.6v-2.9h.6v2.8c0 1.4-.8 2.2-2 2.2-1.4.1-2.2-.7-2.2-2.1zM75.9 21.1h-1.6v-.5h3.9v.5h-1.6v4.4H76v-4.4zM80.7 23.5l-2-3h.7L81 23l1.7-2.5h.6l-2 3v1.9h-.6v-1.9z"/></g><path class="st4" d="M79 35.3s.1 0 .1-.1c.1-.1.3 0 .4.2 0 .1 0 .2.1.3 0 .1.1.2.2.3.1-.1.1-.1.1-.2.1-.4.2-.7.3-1 0-.1.1-.2.2-.2 0 0 0-.1-.1-.1-.1-.1-.1-.1 0-.2 0-.1.1-.1.2-.1h.8c.1 0 .1 0 .1-.1v-1.9c0-.1.1-.2.2-.2s.2.1.2.2v.2c-.1.4-.1.7 0 1.1v.7c.1 0 .2.1.3.1.3.1.5.2.6.4.1.1.1.1.2.1h.4c.1.1.3.2.3.3.1.1.2.2.2.4v-.2c0-.2.1-.4.1-.6 0-.1.1-.2.2-.2s.2 0 .3.1c.1.1.1.2.1.3l.3.6c.1.2.3.3.4.3.3.1.7.2 1.1.2.3 0 .5 0 .8-.1.1 0 .2 0 .4-.1.1 0 .1-.1.1-.1.1-.1.2-.1.3-.1.1 0 .2.1.2.2s0 .2-.2.3c-.2.1-.4.1-.6.2-.6.1-1.1.1-1.7.1-.3 0-.6-.1-.9-.3-.3-.2-.5-.4-.6-.7v.2c0 .2 0 .3-.1.5v.4c0 .1 0 .2-.2.3-.2.1-.3 0-.3-.1v-.1c-.1.1-.2.1-.2.2-.2.1-.4 0-.5-.2-.1-.1-.1-.3-.2-.4 0-.1-.1-.3-.1-.4 0-.3-.1-.6-.3-.9-.1-.2-.3-.3-.5-.4V35.3c0 .2.1.3.1.5v.4c0 .1-.1.1-.1.2-.1.1-.3 0-.3-.1V35.4c0-.3 0-.6-.1-.9 0-.1 0-.1-.1-.1s-.1 0-.1.1v.1c0 .1 0 .2-.2.2-.1 0-.2 0-.2-.1l-.1-.1c-.1 0-.2.1-.2.2-.2.2-.2.5-.3.8 0 .2 0 .3-.1.5V36.4c0 .1 0 .2-.1.3-.1.1-.3.1-.4 0v-.1c0-.1-.1-.2-.1-.2-.1-.1-.2-.2-.4-.3-.1 0-.1.1-.1.2-.1.2-.3.3-.5.5-.2.1-.4.1-.5-.1-.1-.2-.2-.3-.3-.4-.1-.2-.3-.4-.3-.7-.1-.2-.1-.4-.2-.6v-.1.1c0 .3-.1.6-.1.8-.1.3-.1.7-.2 1 0 .2-.1.4-.1.5 0 .1-.1.2-.3.2-.1 0-.2-.1-.2-.2s-.1-.2-.1-.4-.1-.4-.1-.6c-.1 0-.1.1-.1.1-.2.2-.6.2-.9 0-.3-.2-.6-.5-.7-.9 0-.1-.1-.2-.1-.2 0 .1 0 .1-.1.2-.1.3-.2.7-.3 1-.1.2-.3.3-.5.1-.1-.1-.1-.2-.2-.3-.1-.4-.1-.8-.2-1.3V31.8c0-.1.1-.2.2-.2s.2.1.2.2V35.2c0 .2 0 .3.1.5 0 .1.1.3.1.4.1-.2.2-.5.2-.7.1-.3.1-.6.2-.9v-.2c0-.1.1-.2.2-.2s.2 0 .3.2c.1.2.1.4.1.5 0 .2.1.4.1.7 0 .1.1.3.2.4.1.2.3.3.5.4.2.1.3 0 .4-.2 0-.1.1-.2.2-.3V32.2c0-.5.1-.9.1-1.4 0-.2 0-.3.1-.5 0-.1.1-.3.2-.4 0 0 .1-.1.1 0l.1.1v.2c-.1.6-.1 1.1-.1 1.7V34.9c0 .4.1.8.1 1.2v.3-.1c0-.2.1-.5.1-.7.1-.3.1-.7.2-1v-.3c.1-.2.3-.3.4-.1.1.1.2.2.2.3.1.3.2.5.3.8 0 .1.1.2.2.3v-.2c.1-.3.2-.5.4-.7.1-.1.4-.1.5.1 0 .1 0 .2.1.3.1 0 .1.1.1.2zm4.1.2v.2c0 .1 0 .2.1.3 0 .1 0 .2.1.3 0 0 0 .1.1.1.1-.3 0-.7-.3-.9zm-4.7.4c.1-.2.2-.4.2-.6v-.1c-.1.1-.2.5-.2.7zm.5-.2c.1-.1.1-.2 0-.3v.2c.1 0 .1 0 0 .1zM91.1 35c.2-.3.4-.5.6-.6.3-.2.5-.3.9-.1.2.1.3.3.4.4.1.1.1.3.2.5 0 .1.1.1.1.1.2.1.2.1.1.3v.1c-.1.1-.1.1-.3.1-.1 0-.2-.1-.2-.3-.1-.3-.2-.5-.3-.7-.1-.1-.2-.2-.4-.1s-.4.2-.5.4c-.1.2-.2.3-.3.5v.2c.1.4.2.7.2 1.1 0 .1 0 .3.1.4v1.5c0 .2 0 .4-.1.5 0 .1 0 .2-.1.3-.1.1-.2.2-.3.2-.1.1-.2 0-.3 0-.1 0-.1-.1-.2-.1l-.3-.3v-.1c0-.1 0-.1-.1-.2-.1-.2-.1-.5-.2-.8 0-.3 0-.7.1-1 0-.3.1-.5.2-.8.1-.3.2-.5.3-.8.1-.2.1-.4 0-.6-.1-.1-.1-.3-.1-.4-.1-.2-.2-.4-.2-.7-.1-.2-.1-.4-.2-.6-.1-.5-.3-1-.4-1.5-.1-.3-.1-.5-.2-.8 0-.1 0-.2-.1-.3-.1.1-.1.2-.1.2 0 .3-.1.6-.1.9v.6c0 .4-.1.9 0 1.3v.4c.1.2 0 .4.1.6.1.3.1.5.3.8 0 0 0 .1.1.2 0 .1-.1.1-.2.1-.1-.1-.2-.1-.2-.2-.1-.2-.2-.3-.2-.5 0-.1 0-.2-.1-.3v-.2c0-.1 0-.2-.1-.4 0-.2 0-.4-.1-.6v-1.5c0-.4 0-.7.1-1.1v-.2c0-.4.1-.8.2-1.1v-.1c0-.2.2-.2.3-.1.1.1.2.2.2.4.1.4.1.7.2 1.1 0 .1 0 .2.1.3.1.3.1.5.2.8v.1c.1.2.1.4.2.7 0 .1.1.2.1.3.1.2.1.3.2.5s.1.4.2.6c.1.5.1.5.2.6zm-.1 1.3s0 .1 0 0c-.1.2-.1.3-.2.4 0 .1-.1.2-.1.3-.1.3-.1.6-.1.9v.4c0 .2 0 .3.1.5s.2.4.3.5c.1.1.1.1.2 0s.1-.3.1-.4v-1.2c0-.2-.1-.5-.1-.7-.1-.3-.1-.5-.2-.7zM94.5 35.1c.1 0 .2 0 .2.1s0 .2-.1.2l-.2.2h-.1c-.2 0-.2-.3-.2-.4 0-.1.1-.1.1-.1h.3z"/><path class="st4" d="M78.9 35.7V35.4c.2.1.2.2 0 .3zM67.6 35.9c.1-.1.2-.1.2-.3.1-.2.2-.2.4-.1v.1c.1.2.3.2.4.2.1 0 .2 0 .3-.1-.1-.1-.2-.3-.2-.4-.3-.6-.5-1.2-.5-1.9 0-.5.1-1 .5-1.4.3-.4.7-.8 1.2-.9.3-.1.6-.1.9.1l.3.3c.1.2.2.4.2.6 0 .2 0 .4.1.6v.9c-.1.3-.1.7-.3 1-.2.4-.4.7-.7.9-.2.2-.4.3-.6.5l.1.1c.1.1.2.2.3.2.2.2.4.3.7.5.2.1.4.2.6.2.2.1.2.1.2.3 0 .2-.1.3-.3.2-.2-.1-.4-.1-.6-.2-.4-.2-.7-.5-1-.7l-.3-.3c-.1-.1-.1-.1-.2 0-.2.1-.3.1-.5.1-.3 0-.5 0-.7-.2 0 0-.1 0-.1.1-.2.2-.4.2-.7 0l-.3.3c-.1.1-.3.2-.5.2s-.4-.2-.5-.4c0-.1 0-.1-.1-.2-.1.1-.2.1-.2.2-.3.2-.6.3-.9.4-.2.1-.4.1-.6.1-.2 0-.4-.1-.5-.3-.1-.2-.1-.5.1-.7.1-.2.3-.4.5-.5.2-.1.4-.3.6-.3.4-.1.8-.2 1.1 0 .2.1.3.2.5.2.1 0 .1.1.1.2v.2c0 .2 0 .2-.2.3-.1 0-.1.1-.1.1v.1c0 .1 0 .2.1.2h.2l.3-.3c.1-.2.2-.4.2-.6v-.1c.1-.1.3-.2.4-.1.1.1.1.2.1.3 0 .1 0 .2-.1.3.1-.1.1-.1.1 0zm3.5-3c0-.2-.1-.4-.1-.6 0-.2-.1-.4-.2-.5-.1-.3-.4-.4-.7-.3-.1 0-.3.1-.4.2-.4.2-.6.5-.8.9-.2.5-.3 1-.2 1.6.1.5.3.9.6 1.3.1.1.1.1.2.1.3-.2.6-.4.9-.7.2-.2.4-.5.5-.8.2-.5.2-.8.2-1.2zm-5.6 2.4c0 .1 0 .1 0 0h-.1c-.5.1-.9.3-1.3.7-.1.1-.1.3.1.3h.5c.3-.1.6-.2.8-.4.1-.1.3-.2.4-.3.1-.1.1-.2-.1-.2-.1 0-.2 0-.3-.1zM61 32.4c-.1 0-.1 0 0 0-.3 0-.5.1-.8.2-.3.1-.5.2-.8.3-.1 0-.2.1-.3.1-.2 0-.2 0-.3-.1 0-.1 0-.3.1-.3s.2-.1.3-.1c.5-.1 1-.3 1.5-.4.7-.2 1.5-.2 2.2-.3.6-.1 1.3-.1 1.9-.1.5 0 .9 0 1.4.2l.6.3c.1.1.2.2.2.4 0 .1 0 .1-.1.2l-.2.2c-.2.2-.5.3-.8.4-.7.3-1.4.5-2.1.7-.3.1-.6.2-.8.2-.3.1-.5.1-.8.2-.2.1-.5.1-.7.2-.1 0-.2.1-.2.2v1.2c0 .2 0 .3.1.5 0 .1-.1.2-.2.3-.1 0-.2 0-.2-.2 0-.1-.1-.3-.1-.4V35c0-.1-.1-.1-.1-.1h-.2c-.1 0-.2 0-.2-.1s0-.1.1-.2c.1 0 .2-.1.3-.1.1 0 .1-.1.1-.2v-1.4c.1-.3.1-.4.1-.5zm.4-.1v1.8c0 .1.1.2.2.2.6-.1 1.1-.3 1.7-.4.3-.1.7-.2 1-.3.7-.2 1.3-.5 1.9-.8.1-.1.2-.1.2-.2-.1 0-.1-.1-.2-.1-.3-.2-.6-.2-1-.3h-2.3c-.4 0-.8.1-1.3.1.1-.1 0-.1-.2 0z"/><path class="st3" d="M98.7 37.8c.2-.2.5-.4.8-.6l.4-.2h.1v.1c-.3.1-.5.3-.8.5l-.3.3c.1.1.3.2.5.5l.4.4c.1.1.1.1 0 .2l-.1.1h-.1c-.3-.4-.5-.7-.8-.9-.2.2-.4.5-.6.9 0 .1-.1.1-.1.1H98c-.1 0-.1-.1-.1-.1v-.2c.1-.1.3-.4.8-.8-.1-.1-.2-.2-.4-.3-.2-.1-.3-.2-.5-.3v-.2c0-.1.1-.2.2-.2 0 0 .1 0 .2.1l.1.1.1.1c0 .1.2.2.3.4zM95.8 38.3c-.2.2-.5.4-.8.6l-.4.2h-.1V39c.3-.1.5-.3.8-.5l.3-.3c-.1-.1-.3-.2-.5-.5l-.4-.4c-.1-.1-.1-.1 0-.2l.1-.1h.1c.3.4.5.7.8.9.2-.2.4-.5.6-.9 0-.1.1-.1.1-.1h.1c.1 0 .1.1.1.1v.2c-.1.1-.3.4-.8.8.1.1.2.2.4.3.2.1.3.2.5.3v.2c0 .1-.1.2-.2.2 0 0-.1 0-.2-.1l-.1-.1-.1-.1c.1-.1-.1-.2-.3-.4zM54.5 36.8v-2.7h.2v1.1c.1-.1.2-.2.4-.3.1-.1.3-.1.4-.1.3 0 .5.1.7.3.2.2.3.4.3.7 0 .3-.1.5-.3.7s-.4.3-.7.3c-.2 0-.3 0-.4-.1l-.3-.3v.4h-.3zm1-.2c.1 0 .3 0 .4-.1l.3-.3c.1-.1.1-.3.1-.4s0-.3-.1-.4l-.3-.3c-.1-.1-.2-.1-.4-.1-.1 0-.3 0-.4.1l-.3.3c-.1.1-.1.3-.1.4 0 .2.1.4.2.6.2.1.4.2.6.2zM56.8 34.9h.3l.7 1.5.6-1.5h.3l-1.2 2.7h-.3l.4-.9-.8-1.8z"/></g></svg>