<svg xmlns="http://www.w3.org/2000/svg" viewBox="0 0 1000 880"><path d="M998.125 488.81c-.88 9.087-8.86 15.79-17.953 15.174 8.908 1.895 14.744 10.52 13.092 19.503h-.01c-1.65 8.992-10.203 14.992-19.227 13.588 8.744 2.635 13.826 11.733 11.4 20.542-2.424 8.81-11.44 14.06-20.3 11.915 8.465 3.366 12.755 12.848 9.595 21.426-3.17 8.57-12.6 13.04-21.248 10.155 8.155 4.06 11.633 13.868 7.768 22.148-3.865 8.28-13.642 11.955-22.01 8.368 7.787 4.702 10.454 14.76 5.923 22.695h.01c-4.542 7.954-14.6 10.82-22.65 6.55 7.402 5.3 9.267 15.55 4.108 23.11h.01c-5.15 7.557-15.394 9.625-23.085 4.74 6.957 5.866 8.01 16.204 2.28 23.34-5.72 7.135-16.087 8.414-23.372 2.952 6.494 6.366 6.754 16.762.503 23.446-6.252 6.694-16.707 7.175-23.548 1.174 6.02 6.82 5.508 17.214-1.217 23.427-6.734 6.213-17.18 5.934-23.567-.547 5.498 7.242 4.242 17.56-2.918 23.273-7.16 5.703-17.547 4.683-23.45-2.22 4.957 7.596 2.966 17.8-4.57 22.993-7.547 5.192-17.847 3.432-23.248-3.877 4.435 7.924 1.74 17.973-6.146 22.638-7.875 4.646-18.01 2.213-22.89-5.423 3.837 8.203.464 18.013-7.71 22.12-8.174 4.115-18.117.99-22.465-6.963 3.276 8.443-.744 18.012-9.178 21.56-8.436 3.56-18.137-.22-21.943-8.433 2.704 8.637-1.953 17.917-10.6 20.908h.01c-1.847.635-3.71.933-5.557.933-6.872 0-13.306-4.208-15.83-10.948a15.785 15.785 0 0 1 .426 2.439 15.58 15.58 0 0 1 .001 3.319 15.44 15.44 0 0 1-.24 1.624c-.107.54-.252 1.077-.407 1.606a17.148 17.148 0 0 1-1.265 3.04c-.26.48-.542.96-.85 1.413-.31.46-.638.903-.986 1.327-.348.432-.725.846-1.12 1.23-.387.385-.803.76-1.228 1.116-.426.347-.88.673-1.344.97-.454.31-.928.597-1.42.848-.483.26-.985.5-1.497.702-.503.21-1.034.404-1.556.558-.522.163-1.062.298-1.604.404a15.38 15.38 0 0 1-1.642.25 15.921 15.921 0 0 1-3.324 0c-.55-.057-1.1-.134-1.643-.25-.54-.106-1.082-.24-1.604-.404a15.006 15.006 0 0 1-1.556-.558 14.07 14.07 0 0 1-1.497-.702c-.493-.25-.966-.54-1.42-.847a15.185 15.185 0 0 1-1.344-.97c-.426-.357-.84-.732-1.228-1.117a13.616 13.616 0 0 1-1.12-1.23 17.08 17.08 0 0 1-1.836-2.741c-.26-.482-.494-.99-.706-1.49-.213-.51-.396-1.03-.56-1.55-.164-.53-.3-1.067-.406-1.606a19.012 19.012 0 0 1-.252-1.625 19.175 19.175 0 0 1-.077-1.665c0-.548.028-1.105.076-1.654.058-.537.145-1.086.252-1.625a15.73 15.73 0 0 1 .406-1.606 17.148 17.148 0 0 1 1.265-3.04c.26-.48.54-.962.85-1.413s.637-.903.985-1.327c.347-.433.725-.846 1.12-1.23.387-.385.802-.76 1.228-1.116.426-.346.88-.673 1.343-.972.455-.307.928-.596 1.42-.846.484-.26.986-.5 1.498-.702a14.842 14.842 0 0 1 1.555-.558c.52-.163 1.062-.3 1.603-.404a15.697 15.697 0 0 1 1.643-.25c1.1-.106 2.222-.106 3.324 0 .55.057 1.1.134 1.642.25.542.105 1.082.24 1.604.404a14.94 14.94 0 0 1 1.556.558c.505.2 1 .436 1.477.69-4.89-5.758-5.44-14.275-.82-20.674 4.647-6.424 12.995-8.617 20.058-5.78C663.4 816.62 662 808.12 666 801.263c4.02-6.875 12.185-9.867 19.518-7.655-6.01-4.75-8.165-13.155-4.744-20.36 3.44-7.23 11.382-10.895 18.92-9.24-6.416-4.28-9.248-12.54-6.368-20.013h.01c2.878-7.482 10.55-11.733 18.203-10.626-6.726-3.818-10.137-11.876-7.78-19.542 2.368-7.664 9.73-12.444 17.44-11.858-6.956-3.366-10.898-11.184-9.053-18.983 1.846-7.81 8.86-13.05 16.59-12.983-7.15-2.905-11.595-10.444-10.27-18.35 1.323-7.905 8-13.607 15.72-14.03-7.344-2.415-12.3-9.627-11.517-17.61.773-7.962 7.005-14.088 14.647-15.068-7.46-1.875-12.918-8.684-12.753-16.666.174-7.943 5.836-14.493 13.314-16.1-7.507-1.258-13.47-7.48-14.05-15.376-.57-7.8 4.29-14.743 11.403-17.157-7.44-.413-13.97-5.732-15.585-13.338-1.58-7.477 2.102-14.84 8.545-18.285-.036.004-.073.01-.11.013a16.19 16.19 0 0 1-3.324.001c-.55-.05-1.1-.135-1.642-.24a17.418 17.418 0 0 1-3.169-.962 17.688 17.688 0 0 1-1.488-.702 15.922 15.922 0 0 1-1.43-.845 17.086 17.086 0 0 1-2.569-2.086c-.387-.395-.763-.81-1.112-1.232a18.437 18.437 0 0 1-.985-1.327c-.308-.46-.59-.932-.85-1.423-.26-.48-.493-.98-.705-1.49-.212-.5-.396-1.02-.56-1.548-.164-.52-.3-1.06-.406-1.597-.068-.34-.11-.687-.16-1.03-.243.028-.486.06-.73.09.01.093.03.182.04.276.81 9.26-6.068 17.425-15.373 18.232a15.58 15.58 0 0 1-1.488.068c-8.678 0-16.06-6.607-16.833-15.368-.008-.09-.003-.18-.01-.27-.222.012-.445.02-.667.032.004.09.018.177.02.267.212 9.3-7.17 17.003-16.503 17.225-.136 0-.27.01-.406.01-9.16 0-16.686-7.28-16.9-16.436 0-.098.01-.19.01-.287l-.68-.006c0 .095.008.188.004.283-.358 9.06-7.846 16.165-16.88 16.165a15.3 15.3 0 0 1-.677-.02c-9.334-.364-16.6-8.193-16.232-17.483.004-.09.02-.175.024-.264-.22-.016-.44-.028-.66-.044-.007.087-.004.173-.013.26-.91 8.655-8.252 15.1-16.802 15.1-.58 0-1.18-.03-1.768-.097-9.286-.962-16.04-9.233-15.074-18.474.01-.098.033-.19.045-.288l-.658-.09c-.015.098-.018.193-.034.29-1.4 8.203-8.56 14.012-16.658 14.012-.937 0-1.894-.077-2.85-.24-9.208-1.558-15.402-10.252-13.837-19.416.017-.092.045-.18.062-.27-.216-.045-.43-.092-.646-.136-.02.094-.03.187-.052.28-1.855 7.733-8.792 12.936-16.435 12.936-1.306 0-2.62-.154-3.934-.46-9.092-2.155-14.696-11.234-12.532-20.273.022-.093.056-.18.08-.272-.215-.058-.433-.113-.648-.172-.026.09-.04.18-.07.27-2.24 7.222-8.927 11.857-16.145 11.857-1.65 0-3.333-.24-5.004-.75-8.92-2.75-13.914-12.174-11.15-21.05.03-.097.072-.187.103-.282l-.63-.215c-.034.095-.056.19-.093.285-2.59 6.684-8.995 10.79-15.788 10.79-2.02 0-4.07-.365-6.07-1.125-8.714-3.346-13.062-13.078-9.71-21.753.037-.094.085-.18.123-.274l-.61-.26c-.04.092-.07.184-.11.274-2.87 6.135-8.977 9.742-15.354 9.742-2.378 0-4.803-.5-7.113-1.567-8.473-3.924-12.145-13.935-8.203-22.36.042-.09.095-.17.138-.26-.2-.1-.397-.204-.597-.305-.047.088-.082.18-.13.268-3.084 5.568-8.86 8.704-14.823 8.704-2.754 0-5.565-.673-8.155-2.097h.01c-8.185-4.49-11.15-14.723-6.638-22.868.046-.084.102-.16.15-.243-.192-.114-.38-.232-.57-.346-.096.152-.19.306-.287.454-.31.462-.638.904-.985 1.327-.358.432-.735.845-1.12 1.23a16.862 16.862 0 0 1-2.571 2.096c-.454.3-.937.587-1.42.847-.483.25-.986.49-1.498.702-.512.21-1.034.394-1.556.558-.53.154-1.073.288-1.604.404-.54.106-1.1.183-1.643.24a16.2 16.2 0 0 1-3.324 0 18.469 18.469 0 0 1-1.643-.24 21.364 21.364 0 0 1-1.604-.404 17.962 17.962 0 0 1-1.565-.558c-.5-.21-1.004-.452-1.487-.702-.493-.26-.966-.548-1.43-.847-.455-.307-.91-.634-1.334-.98-.426-.356-.84-.72-1.237-1.116a15.36 15.36 0 0 1-1.112-1.23 15.091 15.091 0 0 1-.984-1.328c-.31-.452-.59-.933-.85-1.413-.26-.482-.493-.982-.706-1.49-.12-.283-.213-.58-.316-.873-.305.122-.606.247-.91.37 3.77 8.054.592 17.73-7.393 21.947a16.848 16.848 0 0 1-7.913 1.962c-5.732 0-11.296-2.915-14.445-8.074-.224.156-.45.31-.672.468 5.55 6.8 4.96 16.82-1.57 22.887v.01a16.923 16.923 0 0 1-11.547 4.53c-4.132 0-8.252-1.52-11.48-4.497l-.51.64c7.283 4.937 9.588 14.705 5.063 22.387-3.15 5.346-8.803 8.328-14.6 8.328a16.88 16.88 0 0 1-7.577-1.798c-.11.253-.222.5-.33.755 8.41 2.994 13.096 12.047 10.505 20.66-2.203 7.29-8.92 11.993-16.194 11.993a17.08 17.08 0 0 1-4.108-.516l-.17.83c8.95 1.435 15.22 9.665 14.075 18.687-1.073 8.51-8.358 14.733-16.754 14.733-.532 0-1.065-.032-1.6-.084-.02.284-.04.565-.058.85 9.15.332 16.41 7.853 16.297 17.006-.115 9.178-7.576 16.532-16.747 16.62.01.29.015.576.024.866 9.172-.476 17.086 6.436 17.745 15.596.65 9.165-6.194 17.123-15.35 17.945l.098.873c9.13-1.163 17.537 5.15 18.875 14.252 1.328 9.095-4.92 17.546-14.006 19.022l.155.857c9.032-1.79 17.87 3.93 19.832 12.924 1.96 8.985-3.696 17.846-12.657 19.938l.215.853c8.89-2.408 18.09 2.7 20.672 11.53 2.572 8.83-2.448 18.052-11.24 20.762l.27.823c8.68-3.02 18.233 1.416 21.434 10.044 3.2 8.612-1.144 18.165-9.702 21.494.11.268.22.538.333.806 8.417-3.655 18.267.026 22.123 8.367 3.855 8.338.286 18.182-7.972 22.17.133.258.264.52.398.778 8.063-4.343 18.16-1.517 22.725 6.44 4.56 7.963 1.874 18.056-5.968 22.744.158.247.313.497.472.745 7.574-5.087 17.87-3.28 23.206 4.17h.01c5.32 7.44 3.687 17.71-3.593 23.183.18.226.365.448.547.673.086-.073.166-.155.253-.227.425-.346.88-.673 1.333-.972a14.5 14.5 0 0 1 1.43-.845c.483-.26.986-.5 1.498-.702a14.142 14.142 0 0 1 1.555-.558c.522-.163 1.063-.3 1.604-.404a16.243 16.243 0 0 1 1.643-.25c1.1-.105 2.222-.105 3.324 0 .55.058 1.1.135 1.642.25.542.106 1.082.24 1.604.405a14.94 14.94 0 0 1 1.556.558 14.07 14.07 0 0 1 1.497.702c.483.25.966.54 1.42.846.464.3.91.626 1.344.973.425.355.84.73 1.227 1.115.396.385.773.798 1.12 1.23.35.425.678.876.986 1.328.3.452.59.933.85 1.413.252.48.494.99.706 1.49.212.51.396 1.028.56 1.548.155.53.29 1.068.406 1.606.107.54.184 1.088.242 1.626.06.548.087 1.106.087 1.654 0 .558-.027 1.116-.086 1.664a18.573 18.573 0 0 1-.242 1.625c-.116.54-.25 1.077-.406 1.606a18.883 18.883 0 0 1-.56 1.548c-.212.5-.454 1.01-.705 1.49-.26.48-.55.962-.85 1.414-.31.46-.637.903-.985 1.327-.358.43-.725.845-1.12 1.23-.387.384-.803.76-1.238 1.115-.425.347-.87.673-1.333.97-.454.31-.937.597-1.42.848-.483.26-.985.5-1.497.702-.503.21-1.034.404-1.556.558-.52.163-1.06.298-1.603.404a15.38 15.38 0 0 1-1.642.25 15.955 15.955 0 0 1-3.325 0c-.55-.057-1.1-.134-1.643-.25-.54-.106-1.082-.24-1.604-.404a14.428 14.428 0 0 1-1.555-.558 14.085 14.085 0 0 1-1.498-.702c-.493-.25-.966-.54-1.42-.847a15.17 15.17 0 0 1-1.343-.97c-.426-.357-.84-.732-1.228-1.117-.396-.385-.774-.8-1.12-1.23a16.791 16.791 0 0 1-2.543-4.232c-.212-.51-.395-1.03-.56-1.55-.154-.528-.3-1.066-.406-1.605a15.96 15.96 0 0 1-.24-1.625 15.324 15.324 0 0 1-.088-1.664c0-.548.03-1.105.087-1.654.048-.538.135-1.087.24-1.626.098-.49.23-.982.368-1.467l-.692-.21c-.03.09-.05.182-.08.272-3.083 8.78-12.726 13.405-21.538 10.347v-.01c-8.638-3-13.275-12.27-10.57-20.897-3.826 8.193-13.527 11.953-21.943 8.386-8.426-3.568-12.445-13.126-9.16-21.56-4.367 7.933-14.3 11.04-22.465 6.914-8.165-4.116-11.527-13.926-7.682-22.12-4.908 7.617-15.025 10.04-22.89 5.377-7.854-4.654-10.54-14.656-6.163-22.56-5.43 7.23-15.682 8.942-23.19 3.76-7.518-5.194-9.498-15.36-4.57-22.947-5.923 6.847-16.28 7.838-23.412 2.135-7.13-5.712-8.387-16.002-2.927-23.224-6.397 6.425-16.812 6.675-23.518.462-6.706-6.203-7.208-16.57-1.218-23.388-6.86 5.953-17.276 5.443-23.508-1.25-6.232-6.684-5.952-17.07.532-23.426-7.295 5.433-17.653 4.135-23.354-3-5.72-7.147-4.648-17.485 2.32-23.34-7.692 4.866-17.934 2.788-23.065-4.78-5.14-7.57-3.266-17.8 4.136-23.09-8.058 4.25-18.097 1.356-22.62-6.597v.01c-4.52-7.953-1.835-18.012 5.982-22.695-8.387 3.577-18.155-.115-22.01-8.405-3.856-8.29-.358-18.1 7.817-22.137-8.658 2.885-18.09-1.606-21.24-10.194-3.15-8.588 1.17-18.07 9.663-21.417-8.88 2.154-17.904-3.116-20.31-11.944-2.406-8.82 2.696-17.908 11.43-20.523C16.79 537.75 8.25 531.73 6.606 522.74c-1.633-8.983 4.223-17.6 13.15-19.475-9.102.607-17.093-6.116-17.953-15.204-.86-9.096 5.71-17.175 14.754-18.29-9.11-.183-16.484-7.54-16.56-16.676-.088-9.136 7.168-16.637 16.29-16.964-9.083-.933-15.818-8.905-15.122-18.022.695-9.078 8.503-15.925 17.585-15.53-8.92-1.742-14.9-10.234-13.43-19.225 1.478-8.99 9.855-15.156 18.87-13.983-8.735-2.49-13.972-11.454-11.73-20.29 2.222-8.79 11.005-14.196 19.836-12.36-8.396-3.268-12.783-12.587-9.817-21.147 2.975-8.597 12.24-13.262 20.918-10.626-8.155-3.924-11.778-13.618-8.097-21.926 3.692-8.346 13.373-12.213 21.81-8.817-7.856-4.568-10.707-14.55-6.33-22.56 4.377-8.04 14.397-11.1 22.533-6.964-7.527-5.165-9.585-15.378-4.57-23.043 5.034-7.684 15.305-9.934 23.093-5.116-7.15-5.71-8.426-16.097-2.812-23.368 5.633-7.3 16.098-8.722 23.49-3.25-6.755-6.23-7.257-16.734-1.083-23.58 6.185-6.858 16.746-7.473 23.703-1.443-6.29-6.714-6.02-17.234.657-23.61 6.696-6.396 17.305-6.223 23.78.355-5.828-7.154-4.793-17.666 2.347-23.55 7.044-5.83 17.44-4.983 23.46 1.807-5.063-7.52-3.237-17.734 4.203-23.042 7.45-5.31 17.75-3.742 23.266 3.443-4.512-7.858-1.97-17.907 5.817-22.687 7.797-4.77 17.962-2.5 22.967 5.05-3.96-8.146-.744-18.003 7.363-22.235 8.097-4.24 18.078-1.277 22.56 6.59-3.4-8.387.475-18.003 8.842-21.687 8.368-3.683 18.126-.068 22.07 8.078-2.832-8.586 1.68-17.924 10.27-21.05 8.6-3.125 18.078 1.125 21.48 9.51-2.26-8.75 2.86-17.77 11.633-20.33 8.773-2.548 17.962 2.3 20.803 10.877-1.67-8.876 4.02-17.53 12.94-19.522 8.917-1.98 17.758 3.443 20.04 12.175-1.093-8.953 5.14-17.224 14.173-18.637h-.01C422.83 5 431.302 10.98 433.022 19.838c-.52-9.002 6.224-16.868 15.316-17.705v-.01c9.09-.837 17.16 5.645 18.33 14.58C466.73 7.69 473.95.285 483.07.006c9.132-.27 16.794 6.722 17.384 15.733.59-9.01 8.26-15.993 17.402-15.704 9.122.288 16.33 7.712 16.378 16.723 1.18-8.935 9.266-15.397 18.35-14.55 9.09.855 15.826 8.73 15.285 17.742 1.738-8.857 10.22-14.82 19.246-13.397 9.024 1.424 15.237 9.714 14.136 18.666 2.3-8.73 11.15-14.135 20.068-12.145 8.91 2 14.58 10.665 12.9 19.532 2.87-8.57 12.05-13.397 20.813-10.83 8.773 2.57 13.874 11.6 11.604 20.35 3.41-8.376 12.908-12.607 21.49-9.472 8.588 3.135 13.07 12.463 10.24 21.04 3.972-8.116 13.722-11.712 22.08-8.01 8.357 3.693 12.222 13.32 8.802 21.695 4.502-7.857 14.483-10.8 22.58-6.55 8.097 4.252 11.295 14.118 7.315 22.254 5.014-7.54 15.19-9.8 22.976-5.01 7.79 4.8 10.3 14.858 5.77 22.696 5.545-7.174 15.846-8.723 23.276-3.404 7.44 5.328 9.237 15.54 4.164 23.05 6.03-6.77 16.426-7.597 23.47-1.76 7.034 5.83 8.107 16.148 2.513 23.283 6.512-6.33 16.937-6.396 23.537-.068 6.542 6.27 6.91 16.53.957 23.244 6.957-5.674 17.247-4.934 23.306 1.808 6.068 6.75 5.652 17.03-.822 23.282 7.384-5.164 17.606-3.654 23.142 3.54 5.546 7.202 4.34 17.444-2.618 23.185 7.768-4.615 17.866-2.317 22.832 5.3 4.976 7.626 2.948 17.77-4.474 22.946 8.117-4.02 18.04-.934 22.378 7.068 4.357 8.02 1.497 17.993-6.358 22.542 8.436-3.376 18.107.51 21.788 8.857 3.69 8.376-.01 18.118-8.28 21.993 8.715-2.72 18.078 1.952 21.054 10.608 2.985 8.675-1.565 18.118-10.184 21.254 8.947-2.04 17.923 3.423 20.165 12.328 2.222 8.838-3.035 17.79-11.78 20.263 9.016-1.146 17.393 5.028 18.842 14.02 1.46 9.002-4.542 17.474-13.46 19.195 9.083-.375 16.88 6.49 17.557 15.57.677 9.087-6.03 17.03-15.074 17.983 9.083.385 16.282 7.886 16.175 16.993-.096 9.137-7.48 16.485-16.59 16.648 9.048 1.126 15.598 9.223 14.72 18.31zM683.583 658.184c21.768-25.116 36.743-63.418 17.696-85.395-16.87-19.465-158.91-27.628-182.854 0-2.86 3.298-4.938 6.735-6.367 10.262-3.867-.51-7.895-.78-12.055-.78s-8.19.27-12.054.78c-1.428-3.527-3.508-6.964-6.366-10.262-23.945-27.628-165.982-19.465-182.853 0-19.046 21.977-4.07 60.28 17.697 85.395 21.768 25.116 124.08 19.674 141.493-.42 11.203-12.925 27.693-32.955 31.656-52.955 3.237-.46 6.72-.72 10.43-.72s7.19.26 10.428.72c3.964 20 20.453 40.03 31.656 52.956 17.414 20.093 119.725 25.535 141.493.42zM842.39 459.417l.5 1.013c-.09-.783.143-.335-.5-1.013zm-57.064-237.285-10.01-2.786c-3.017-1.53-6.647-3.885-10.513-4.305.9 1.646 1.227 1.698 2.503 2.533l.25.76a576.91 576.91 0 0 0-1.752-.506c7.298 8.297 27.116 24.962 29.783 34.187-9.14 8.712-20.457 16.02-31.535 22.032 1.97.617 4.257-1.557 5.005-2.28.4 1.15 3.375-.45 3.504-.506 5.978-2.585 18.433-3.515 25.53-1.52 6.985 1.966 7.002 9.36 12.763 12.916 2.858 1.764 4.383 3.97 6.758 5.57 2.436 1.644 5.307-1.042 6.508 2.28 2.03-.618 8.727-1.367 10.01-2.532 10.615-9.632 2.62-23.87-6.256-32.668-8.247-8.174-17.348-16.634-25.778-23.804-4.65-3.957-11.732-6.053-16.768-9.37zm-10.762 143.586.5.76c.168.084.335.17.502.253-.48-.893-.076-.538-1.002-1.012zm-2.002-1.012c.282 1.423.543 1.616 1.502 2.28-.5-.76-1-1.52-1.502-2.28zm-2.002 8.356-1.752-1.266-.5-.253-.25-.506c.37 1.007-.224.332.75.76.13.953.315.254-.5 1.266l.5 1.013h1c.15-1.258-.285-.305.752-1.014zm-2.503-2.785c-.767-.86-.95-1.355-2.253-1.773l1.25 1.773h1.003zm-197.468-4.052c-1.245-4.52-.32-9.612-1.753-13.675-1.45-4.115-3.5-10.968-3.504-14.18l.5-1.52c-1.822-1.894-2.64-4.916-4.003-6.584-4.36-5.33-14.285-9.51-20.272-10.13-1.522 5.93 1.22 11.548-.25 18.74-3.16 15.46-7.046 32.76-14.015 48.37-3.026 6.775-16.803 27.392-16.518 31.654.52 7.794 3.364 15.365 5.256 21.78l.502 8.862c1.523 2.624 6.677 5.785 6.507 8.863 3.366 3.686 11.432 5.514 18.52 6.33 2.08-1.218 1.897-2.546 4.754-1.772 3.12-4.504 4.28-10.096 8.01-16.207 13.175-21.602 24.02-52.352 16.265-80.53zm27.28 68.628 1.5 1.013.25.506c.295-.984-.71-1.208-1.75-1.52zm13.764 8.103c-.315-.845.252-.407-.75-.76l-.25-.253v.507c.333.17.667.338 1 .506zm48.053-3.545-2.503-.252-.25 1.266-2.503-.76-2.25 1.773c2.815 1.08 5.588-.732 7.257-1.013-.505-.91-.563-.37.25-1.013zm189.96 37.227c-.834-.675-1.67-1.35-2.503-2.026-1.25-4.388-2.503-8.778-3.754-13.167-1.18-1.477-1.477-.83-2.253-2.786h-.75l.5 2.026c-5.302-2.15-3.508-8.872-6.758-12.915-.31.562-1.09-.68-1.753-1.013-1.8.648-8.023-16.396-9.51-15.7l-.502-1.774c-.75-.42-1.502-.843-2.252-1.265l.25-1.013.5 1.013.502-1.013-.25-.76-1.752.76c-10.16-12.6-19.17-24.834-27.28-37.733-3.446-5.48-15.066-17.832-16.268-21.78h-.25c-.334.084-.667.17-1 .253 3.504 9.088 13.08 18.826 13.764 27.35-4.506-6.837-9.01-13.676-13.516-20.512l-1 .254c1 2.026 2 4.052 3.002 6.078-1.26-.6-.803-.722-2.002 0h.75c.23.962 1.483.245.752 1.52-.88-.127-.037-.12-1 .252-1.67-2.077-1.888-4.518-3.004-7.09 0 0-1.146.178-2.753-.254h-.25c2.358 3.844 2.485 5.097 4.754 8.863l.25-.76 4.004 8.357c9.67 17.232 11.1 28.254 17.02 48.875-1.153-.72-1.105-1.618-1.753-2.786l2.002 9.37-1 10.13c-.335.083-.668.168-1.002.252-1.57-1.935-4.734-1.92-7.258-3.545-4.17-2.687-12.007-6.857-16.518-10.13-19.582-14.204-38.955-29.554-55.062-48.115 3.207-7.85 10.415-15.778 15.517-21.78l1.25-3.29c5.065-6.296 9.814-13.064 12.265-21.02l1.752-2.786c.068-3.342 2.08-8.238 1.25-10.89-3.083-9.85-7.486-17.402-15.766-25.323-3.45-3.3-8.234-9.224-15.517-10.89-2.14 3.648 1.618 14.08-1.002 20.767-5.907 15.073-15.125 31.095-20.773 46.09l-.25.253c-7.274-5.893-19.44-43.055-20.022-50.9-.403-5.438-6.064-13.183-3.754-18.487.743-1.707 10.82-3.898 13.764-5.825 8.358-5.47 19.908-18.624 31.034-19.245 1.106-1.127 1.085-1.185.25-2.532 23.022-7.747 5.513-29.966-9.01-29.122-14.525.845-24.33 3.872-35.54 10.637-1.57.948-1.718 2.922-3.002 4.052l-7.008 4.05c-2.504-1.652-5.273-4.367-7.008-7.343l2.252-3.04.25-.505-1.502 1.52-.75-1.773c.816-.847 2.2-.46 1-1.267 6.065-4.48 7.248-4.537 8.51-10.13 1.057.584.28.51 1.25.253 4.02-2.624 7.888-12.076 12.764-12.662l-1-.506 7.257-9.876c.878 1.786 6.147-4.697 6.508-5.318l1.752-5.825c5.624-6.36 9.33-13.606 14.266-18.487 3-2.967 3.21-8.986 6.507-11.65.09-.072 12.965-4.446 14.266-4.81 4.532-1.272 10.513 6.185 12.263 9.116 3.177 5.322 23.214 27.144 35.54 17.472 3.25-2.55 6.334-7.246 8.258-10.636-.082-1.35-.166-2.7-.25-4.052-1.284-3.46-2.638-6.036-4.504-9.117-3.094-5.107-18.267-16.31-25.278-19.753-3.918-1.924-8.606-2.42-12.264-4.812-3.652-2.39-9.38.263-12.764-.76-.68-.14-.29-.007-1-.506.21-2.707 7.048-13.485 5.755-18.486-4.266-16.503-14.57-28.77-24.777-42.797-.676-.93-3.44-1.32-4.004-2.026-2.038-2.547-3.927-5.675-7.258-6.837v.76l.5.76-2-1.266.75 3.292-2.753-2.026-.25.253c2.44 5.76-.3 7.947.5 12.915.16-.553.654 1.33.752 1.773.98 4.457 1.168 14.026-.5 20.26-2.753 10.282-7.094 22.298-10.262 32.92-12.88 1.1-29.545 4.223-43.298 5.32l2.753-6.08-5.005 6.585c-2.968 1.73-8.563 1.332-11.012 1.773-9.258 2.28-18.52 4.56-27.78 6.837-2.62-1.183-4.002-5.964-6.007-8.61-4.856-6.41-18.234-22.425-27.53-23.298v.253h.75c-4.057 5.043-.995 26.99 1.002 34.694.545 2.104 2.204 4.067 1 6.078.44 1.666-13.927 5.452-16.267 6.837-8.87 5.25-22.06 6.376-33.036 9.37-6.51-2.424-23.96 1.09-28.53 5.824 1.182 5.307 5.566 9.612 9.51 11.65.812.42 1.83-1.034 2.752-.254l5.256 5.065c1.605.94 4.647.923 5.256 1.52 5.885 5.762 13.487 6.688 21.273 10.382 21.934 10.404 35.2-1.773 42.546-22.032.25-.084.5-.17.75-.253 5.578 6.518 17.345 38.394 35.29 29.376 1.835-1.52 3.67-3.04 5.506-4.558-1.13-3.533 3.76-8.417 4.255-11.143.49-2.71-2.096-7.808-1-11.396 1.798-5.893 3.66-27.946 9.51-33.933 3.04-3.114 40.186-8.01 48.052-7.85v.253c-4.335 16.948-12.634 32.032-19.022 46.343-2.842 6.366-10.256 13.138-11.012 19.246-.236.446-.5.51 0 .505-.675 1.09-.172.556-1.25.76.463 1.08-.166.3 1 .76-2.443 2.313-10.21 12.993-10.01 15.194h-.502c-7.217-4.092-11.306-9.99-20.022-9.877 0 0 5.79 30.005 5.756 30.135l-2.503 2.532h1.25c-1.61 2.642-4.43 2.223-4.003 5.824l-.25 1.013-1-1.013c-2.29 4.16-6.066 8.398-9.762 11.902l.5 1.773c-1.85-.46-1.032-.118-3.253.76l-.25 1.012v.253l2.503-1.52-.25.76c.334.17.667.34 1 .507l1.252-2.026c.184-.894.137-.342-.75-.507l1-2.28h1l-.5 1.266c.334.084.667.17 1 .253l1.252-1.267.25-.506c1.034 1.985-7.466 8.585-8.26 9.117 2.23.555 2.535-1.066 5.007-1.266-.082-.422-.166-.844-.25-1.266 1.345.558.792.578 2.254.253-.477 1.195-.357.83 0 1.773-3.17 1.35-6.34 2.7-9.51 4.052l.25-1.013c-.944.534-1.28 1.257-2.002 2.532-6.914 1.3-17.76 9.528-29.783 9.875 6.26 12.993 37.953 16.926 54.81 11.65 2.61-.818 12.397-4.353 15.517-4.053 9.645 19.894 19.198 43.174 29.032 61.79 3.6 6.82 13.756 19.445 3.753 22.285l-.25.76c.584-.084 1.168-.17 1.752-.253-4.92 4.927-9.95 8.795-16.018 12.662.82.734.266-.016.5 1.013-5.875-.604-12.28 6.555-17.77 8.356-2.118.695-4.506.274-6.757 1.266.584.17 1.168.338 1.752.506l.5.253c-12.37 1.918-25.33 10.73-38.04 3.04l1.25 2.026c-6.67-2.04-10.4-2.615-16.018-5.57h-.25c1.42 2.027 3.627 3.93 4.755 6.836-1.526.004-.594.39-1.753-.76l-1 .76v.253c3.006 1.343 14.83 9.128 14.765 10.89 4.176 3.52 22.657 8.66 29.533 8.61-.667-.254-1.335-.508-2.002-.76v-.254c3.05-.64 3.61-.51 5.506 1.014 6.947-.6 12.76-4.18 18.77-6.584 4.893-1.957 8.236 1.87 11.763 0 4.025-2.133 4.847-4.127 8.26-6.078.75.17 1.5.338 2.252.506 2.92-3.02 7.67-3.21 10.26-5.318l12.765-9.876c3.056 1.25 5.468 6.466 7.76 9.37L725 448.016c18.165 17.067 37.627 31.952 60.067 44.064 3.936 2.125 9.673 6.083 13.014 7.344 4.25 1.603 17.213 3.806 19.022 5.57.397-.862 2.045-.605 2.503-.505 9.44 2.054 16.46-3.648 23.526-7.09-.082-1.014-.166-2.027-.25-3.04 1.936-.87 8.72-14.262 6.757-17.726zm-258.535-56.22c1.178 1.25 3.816 2.588 5.256 2.28l-5.256-2.28zm7.258 1.267c-1.244-1.086-2.68-1.447-4.755-1.773 1.584.592 3.17 1.184 4.755 1.774zm3.253.507-.75-.252c.476.364.392.16.75.253zm45.05-8.356c-.25-.084-.5-.17-.75-.253l-.25.507c.333-.084.666-.17 1-.253zm3.754-2.026h-.75c.623.373.046.264.75 0zm5.006-2.786h-.75c.115.097.078.34.75 0zm2.502-1.52h.75l-1-.505.25.506zm6.758-5.317c.624.373.047.264.75 0h-.75zm.75-.507c.65-.233 2.276-1.058 3.505-2.026-.25-.084-.5-.17-.75-.253-1.085.59-2.17 1.18-3.255 1.772l.5.506zM597.37 292.026c-.25-.17-.502-.338-.752-.506.104.633-.145.39.75.506zm2.5-1.52c.084.338.168.675.25 1.013.486-.922.533-.332-.25-1.014zm.752-2.025-.75.76c.984.402.75-.76.75-.76zm4.505-1.772.25-.253-1-1.013v1.266h.75zm158.425-12.41-.75.76 1.25-.506-.5-.253zm-79.338-58.497-1.752 2.28v.253c1.08-.58 2.743-1.945 1.752-2.532zm-15.767 18.234-.75 1.013c1.047-.397.725-.14 1.25-1.013h-.5zm-1.25 1.013-1.252 1.52-.25 1.012 1.25-.76c.394-.847.82-1.377.25-1.773zm39.292 40.518c-.335.506-.668 1.013-1.002 1.52l1.752-1.52h-.75zm-6.508 4.305-.25 1.013c.41-.567.174-.466.25-1.013zm83.342 126.113h.75c-.333-.17-.666-.338-1-.507l.25.507zm-7.76-33.427.502 1.013c-.194-1.347-.035-1.22-1-1.774.166.253.332.507.5.76zM605.63 175.283c3.347-3.444 10.21-4.484 12.764-6.584-.505 2.856-7.817 8.644-11.262 9.622l-1.502-3.04zm23.776 101.802c-.02.037-.478.482-1 1.266l1 .254c-4.097 2.825-11.114 7.536-18.02 8.61 1.304-1.374 4.122-3.985 5.506-4.305-1.194-.87-1.003-.33-2.503.252.862-1.28 1.947-2.71 3.504-3.292l.502-.506-1.752 2.026-.25.253c1.946.156 2.322-1.878 5.005-2.532-1.3-2.767 5.74-4.72 6.507-6.836 1.22.713 1.824 3.567 1.502 4.81zm-16.018-.76-1.502 1.52-.25-.254c.055-.677.4-.3-.25-.76a732.76 732.76 0 0 0 2.002-.505zm7.51 1.266c-.585.34-1.17.676-1.753 1.014l.75-1.266c.334.084.668.17 1.002.253zm-7.76.76.5-.505c.694-.146-.242.476-.5.506zm163.93 103.323c.97.725 1.207 1.218 2.504 1.773-.89.367-.258.25-1 0-1.144-.51-1.102-.52-1.503-1.773zm-145.16 39.758h1.002c-.584.34-1.168.676-1.752 1.014l.75-1.013zm31.536 13.93c-.66.255-.158-.044-.5.505-.585-.084-1.17-.17-1.753-.253l1.5-1.013c.836.504.26-.096.752.76zm-5.006 1.52c.167.083.334.168.5.252-.333.084-.666.17-1 .253.166-.17.333-.337.5-.506z" fill-rule="evenodd" clip-rule="evenodd"/></svg>