<svg xmlns="http://www.w3.org/2000/svg" viewBox="0 0 100 88"><path d="M48.165 0v.1l-.063.001a1.822 1.822 0 0 0-1.739 1.526l-.068.426-.125-.413A1.833 1.833 0 0 0 44.237.365a1.82 1.82 0 0 0-1.628 1.644l-.038.431-.155-.403A1.83 1.83 0 0 0 40.398.9a1.818 1.818 0 0 0-1.507 1.755l-.007.433-.184-.394a1.829 1.829 0 0 0-2.096-.992 1.815 1.815 0 0 0-1.376 1.859l.025.433-.212-.378a1.825 1.825 0 0 0-3.4 1.116l.056.43-.239-.362a1.821 1.821 0 0 0-2.221-.68 1.813 1.813 0 0 0-1.089 2.041l.088.425-.266-.344a1.834 1.834 0 0 0-2.264-.513 1.81 1.81 0 0 0-.932 2.118l.121.418-.291-.323a1.833 1.833 0 0 0-2.299-.342 1.81 1.81 0 0 0-.767 2.183l.153.408-.315-.301a1.82 1.82 0 0 0-1.263-.503c-.381 0-.746.117-1.057.338a1.806 1.806 0 0 0-.594 2.237l.185.395-.338-.275a1.835 1.835 0 0 0-2.328.017 1.806 1.806 0 0 0-.41 2.284l.221.385-.365-.253a1.823 1.823 0 0 0-1.044-.326c-.483 0-.939.186-1.282.525a1.805 1.805 0 0 0-.222 2.31l.251.365-.383-.222a1.83 1.83 0 0 0-2.301.39 1.804 1.804 0 0 0-.027 2.321l.28.341-.4-.187a1.827 1.827 0 0 0-2.259.585 1.804 1.804 0 0 0 .174 2.315l.307.315-.413-.151a1.834 1.834 0 0 0-2.2.781 1.803 1.803 0 0 0 .378 2.29l.332.285-.423-.113a1.833 1.833 0 0 0-2.119.975 1.806 1.806 0 0 0 .585 2.247l.354.253-.43-.074a1.827 1.827 0 0 0-2.018 1.167c-.301.822.032 1.74.79 2.182l.373.218-.431-.032a1.822 1.822 0 0 0-1.897 1.351 1.807 1.807 0 0 0 .998 2.1l.396.182-.436.009a1.81 1.81 0 0 0-.569 3.521l.411.144-.432.05a1.814 1.814 0 0 0-1.607 1.685 1.811 1.811 0 0 0 1.383 1.874l.427.104-.43.091A1.812 1.812 0 0 0 .1 46.215a1.815 1.815 0 0 0 1.554 1.736l.433.064-.418.131a1.81 1.81 0 0 0 .456 3.538l.44.022-.407.17a1.81 1.81 0 0 0 .789 3.48l.439-.02-.387.208a1.806 1.806 0 0 0-.866 2.16 1.818 1.818 0 0 0 1.984 1.23l.434-.06-.365.243a1.806 1.806 0 0 0-.658 2.23 1.825 1.825 0 0 0 2.088 1.041l.426-.1-.34.275a1.803 1.803 0 0 0-.448 2.278 1.825 1.825 0 0 0 2.172.848l.414-.137-.313.304a1.803 1.803 0 0 0-.24 2.307 1.824 1.824 0 0 0 2.237.653l.4-.172-.285.33a1.804 1.804 0 0 0-.037 2.317 1.82 1.82 0 0 0 1.42.676c.301 0 .599-.075.863-.216l.383-.205-.255.352a1.805 1.805 0 0 0 .161 2.31c.347.362.815.561 1.318.561.355 0 .698-.101.994-.293l.365-.236-.225.372a1.806 1.806 0 0 0 .351 2.287 1.827 1.827 0 0 0 2.325.081l.344-.264-.19.384a1.807 1.807 0 0 0 .535 2.251c.319.24.698.366 1.097.366.456 0 .892-.167 1.228-.471l.323-.293-.164.404a1.807 1.807 0 0 0 .709 2.203 1.836 1.836 0 0 0 2.309-.283l.3-.316-.132.415c-.263.829.106 1.73.877 2.141.264.141.562.216.86.216.555 0 1.072-.245 1.419-.673l.275-.338-.1.424a1.812 1.812 0 0 0 1.036 2.069 1.826 1.826 0 0 0 2.237-.624l.248-.356-.067.429a1.814 1.814 0 0 0 1.8 2.091c.72 0 1.374-.423 1.666-1.079l.361-.81-.171.87a1.821 1.821 0 0 0 1.789 2.164 1.821 1.821 0 0 0 1.824-1.814 1.821 1.821 0 0 0-2.52-1.676l-.32.132.201-.282a1.81 1.81 0 0 0-1.487-2.859c-.168 0-.336.023-.498.069l-.334.094.233-.258c.52-.575.617-1.415.241-2.09a1.826 1.826 0 0 0-1.92-.905l-.343.062.258-.234a1.806 1.806 0 0 0 .441-2.07 1.825 1.825 0 0 0-1.84-1.074l-.348.032.278-.212a1.803 1.803 0 0 0 .615-2.033 1.824 1.824 0 0 0-1.723-1.219h-.029l-.35.005.294-.19a1.806 1.806 0 0 0 .772-1.984 1.817 1.817 0 0 0-1.657-1.347l-.349-.02.307-.167a1.807 1.807 0 0 0 .916-1.923 1.815 1.815 0 0 0-1.552-1.464l-.347-.046.319-.144a1.81 1.81 0 0 0-.372-3.422l-.342-.073.329-.119a1.81 1.81 0 0 0 1.202-1.75 1.816 1.816 0 0 0-1.276-1.683l-.332-.104.337-.088a1.817 1.817 0 0 0 1.355-1.608 1.818 1.818 0 0 0-1.048-1.786l-.313-.145.342-.045a1.81 1.81 0 0 0 .851-3.252l-.269-.199.334.019a1.818 1.818 0 0 0 1.728-.984 1.815 1.815 0 0 0-.178-1.929l-.201-.261.313.106c.19.064.389.097.591.097a1.812 1.812 0 0 0 1.708-2.435l-.114-.31.267.195a1.824 1.824 0 0 0 1.963.129 1.805 1.805 0 0 0 .929-1.801l-.041-.349.219.275c.349.438.87.69 1.43.69a1.83 1.83 0 0 0 1.362-.61l.344-.385-.176.485a1.797 1.797 0 0 0 .845 2.205 1.827 1.827 0 0 0 2.318-.495l.313-.409-.137.496a1.799 1.799 0 0 0 1.011 2.132 1.819 1.819 0 0 0 2.273-.667l.281-.431-.099.504a1.8 1.8 0 0 0 1.168 2.05 1.824 1.824 0 0 0 2.217-.833l.248-.45-.061.51a1.804 1.804 0 0 0 1.317 1.959 1.828 1.828 0 0 0 2.149-.991l.214-.466-.023.513a1.806 1.806 0 0 0 1.456 1.858 1.827 1.827 0 0 0 2.07-1.143l.18-.48.014.513a1.806 1.806 0 0 0 1.823 1.763c.801 0 1.519-.535 1.745-1.302l.145-.492.05.51a1.809 1.809 0 0 0 1.815 1.635c.85 0 1.598-.6 1.778-1.428l.11-.506.086.51a1.813 1.813 0 0 0 1.796 1.513c.923-.01 1.673-.662 1.803-1.552l.075-.513.121.504a1.813 1.813 0 0 0 1.918 1.384 1.827 1.827 0 0 0 1.671-1.69l.035-.544.16.521c.22.714.872 1.227 1.623 1.277l.268.018-.215.162a1.796 1.796 0 0 0-.689 1.792c.136.692.67 1.247 1.361 1.413l.262.063-.24.123a1.816 1.816 0 0 0-.989 1.709 1.815 1.815 0 0 0 1.19 1.605l.253.093-.253.095a1.81 1.81 0 0 0-.134 3.34l.245.114-.26.073a1.813 1.813 0 0 0-1.319 1.526c-.09.731.268 1.437.913 1.8l.236.133-.266.053a1.814 1.814 0 0 0-1.434 1.427 1.804 1.804 0 0 0 .78 1.863l.226.149-.269.033a1.816 1.816 0 0 0-1.534 1.321c-.195.71.057 1.461.642 1.912l.214.165-.27.014a1.816 1.816 0 0 0-1.625 1.205 1.803 1.803 0 0 0 .494 1.951l.2.181-.27-.007-.044-.001c-.719 0-1.373.421-1.666 1.073-.3.666-.171 1.442.33 1.977l.184.197-.268-.029a1.83 1.83 0 0 0-1.789.917c-.356.632-.3 1.413.144 1.989l.164.213-.264-.054a1.829 1.829 0 0 0-1.861.73 1.807 1.807 0 0 0-.075 1.974l.137.229-.254-.083a1.821 1.821 0 0 0-2.391 1.723c0 1 .818 1.814 1.824 1.814a1.821 1.821 0 0 0 1.824-1.814c0-.049-.004-.098-.008-.146l-.035-.434.221.376a1.83 1.83 0 0 0 2.185.793 1.813 1.813 0 0 0 1.19-1.984l-.067-.43.248.357a1.826 1.826 0 0 0 2.236.628 1.81 1.81 0 0 0 1.038-2.07l-.101-.427.276.341a1.821 1.821 0 0 0 2.28.462 1.81 1.81 0 0 0 .879-2.143l-.133-.419.301.32a1.835 1.835 0 0 0 2.31.29 1.806 1.806 0 0 0 .711-2.205l-.165-.408.325.296a1.829 1.829 0 0 0 2.327.11 1.807 1.807 0 0 0 .535-2.255l-.197-.394.348.27a1.827 1.827 0 0 0 2.33-.073c.657-.58.805-1.544.351-2.291l-.228-.377.369.241c.297.194.644.297 1.001.297.502 0 .969-.198 1.316-.559a1.804 1.804 0 0 0 .161-2.314l-.259-.356.387.21a1.833 1.833 0 0 0 2.288-.453 1.803 1.803 0 0 0-.036-2.32l-.288-.333.403.176a1.824 1.824 0 0 0 2.242-.649 1.804 1.804 0 0 0-.239-2.309l-.315-.306.416.139a1.832 1.832 0 0 0 2.176-.844 1.804 1.804 0 0 0-.445-2.279l-.34-.275.426.1a1.823 1.823 0 0 0 2.09-1.037 1.805 1.805 0 0 0-.652-2.229l-.363-.242.432.06a1.818 1.818 0 0 0 1.983-1.226 1.807 1.807 0 0 0-.858-2.159l-.381-.207.433.019.08.002a1.811 1.811 0 0 0 .712-3.48l-.404-.171.438-.021a1.81 1.81 0 0 0 .462-3.536l-.415-.131.43-.063a1.815 1.815 0 0 0 1.555-1.733 1.812 1.812 0 0 0-1.438-1.831l-.428-.091.425-.104a1.81 1.81 0 0 0-.221-3.56l-.432-.051.411-.143a1.81 1.81 0 0 0-.562-3.522l-.436-.009.396-.182a1.809 1.809 0 0 0 1.002-2.099 1.82 1.82 0 0 0-1.902-1.354l-.439.033.382-.22a1.807 1.807 0 0 0 .801-2.185 1.827 1.827 0 0 0-2.019-1.169l-.432.073.357-.253a1.804 1.804 0 0 0 .59-2.247 1.831 1.831 0 0 0-2.116-.979l-.421.111.331-.284a1.804 1.804 0 0 0 .38-2.289 1.835 1.835 0 0 0-2.193-.786l-.408.147.303-.311c.61-.628.683-1.6.173-2.311a1.829 1.829 0 0 0-2.251-.592l-.393.181.273-.335a1.805 1.805 0 0 0-.029-2.315 1.826 1.826 0 0 0-2.292-.4l-.375.213.243-.356a1.805 1.805 0 0 0-.224-2.301c-.344-.34-.8-.527-1.284-.527-.373 0-.731.111-1.036.32l-.36.247.216-.379a1.806 1.806 0 0 0-.41-2.279 1.836 1.836 0 0 0-2.327-.02l-.339.275.185-.395a1.815 1.815 0 0 0-1.65-2.577c-.473 0-.921.178-1.261.501l-.316.3.153-.408a1.808 1.808 0 0 0-.764-2.184 1.832 1.832 0 0 0-2.3.339l-.288.322.121-.418a1.81 1.81 0 0 0-.929-2.119 1.808 1.808 0 0 0-.821-.196 1.84 1.84 0 0 0-1.446.706l-.266.343.089-.425a1.822 1.822 0 0 0-1.784-2.182 1.82 1.82 0 0 0-1.523.816l-.24.362.057-.43a1.815 1.815 0 0 0-1.808-2.05c-.66 0-1.269.356-1.591.928l-.212.378.025-.432a1.816 1.816 0 0 0-1.822-1.917 1.83 1.83 0 0 0-1.65 1.044l-.184.391-.006-.433A1.817 1.817 0 0 0 59.357.881a1.83 1.83 0 0 0-1.699 1.163l-.156.403-.037-.43A1.82 1.82 0 0 0 55.647.361c-.793 0-1.509.527-1.741 1.282l-.127.412-.068-.426A1.823 1.823 0 0 0 51.974.101L51.909.1a1.81 1.81 0 0 0-1.775 1.405l-.098.422-.097-.422A1.808 1.808 0 0 0 48.165.1V0m0 0c.908 0 1.676.63 1.873 1.485A1.922 1.922 0 0 1 51.98.004a1.92 1.92 0 0 1 1.832 1.612A1.923 1.923 0 0 1 55.853.274a1.919 1.919 0 0 1 1.715 1.737A1.925 1.925 0 0 1 59.699.814a1.917 1.917 0 0 1 1.587 1.854 1.927 1.927 0 0 1 2.212-1.043 1.915 1.915 0 0 1 1.449 1.964 1.928 1.928 0 0 1 2.283-.881 1.913 1.913 0 0 1 1.302 2.065 1.929 1.929 0 0 1 2.343-.713 1.91 1.91 0 0 1 1.145 2.156 1.93 1.93 0 0 1 2.391-.539 1.91 1.91 0 0 1 .98 2.236 1.93 1.93 0 0 1 2.426-.357 1.909 1.909 0 0 1 .806 2.305 1.929 1.929 0 0 1 2.448-.171 1.908 1.908 0 0 1 .623 2.362 1.93 1.93 0 0 1 2.454.021c.719.604.88 1.619.432 2.405a1.93 1.93 0 0 1 2.446.218c.667.659.745 1.682.237 2.429a1.928 1.928 0 0 1 2.416.422c.61.713.602 1.741.03 2.443a1.924 1.924 0 0 1 2.375.625 1.906 1.906 0 0 1-.183 2.439 1.93 1.93 0 0 1 2.313.83 1.907 1.907 0 0 1-.401 2.416 1.926 1.926 0 0 1 2.232 1.033c.403.85.12 1.845-.623 2.372a1.922 1.922 0 0 1 2.129 1.234 1.91 1.91 0 0 1-.845 2.306 1.921 1.921 0 0 1 2.006 1.429 1.911 1.911 0 0 1-1.057 2.215 1.92 1.92 0 0 1 1.857 1.612 1.911 1.911 0 0 1-1.264 2.104 1.917 1.917 0 0 1 1.693 1.781 1.915 1.915 0 0 1-1.461 1.975 1.916 1.916 0 0 1 1.517 1.932 1.918 1.918 0 0 1-1.64 1.829 1.912 1.912 0 0 1 1.324 2.067 1.92 1.92 0 0 1-1.811 1.665 1.91 1.91 0 0 1 1.123 2.184 1.92 1.92 0 0 1-1.874 1.488l-.084-.002a1.91 1.91 0 0 1-.92 3.591c-.088 0-.177-.006-.266-.018a1.907 1.907 0 0 1 .688 2.353 1.922 1.922 0 0 1-2.205 1.095c.707.573.925 1.583.469 2.405a1.922 1.922 0 0 1-2.295.89c.653.633.779 1.658.252 2.437a1.923 1.923 0 0 1-2.365.684c.594.687.631 1.718.038 2.448a1.92 1.92 0 0 1-1.496.71c-.314 0-.63-.076-.918-.232a1.906 1.906 0 0 1-.17 2.442 1.93 1.93 0 0 1-2.444.277c.47.775.334 1.796-.371 2.418a1.919 1.919 0 0 1-1.274.481c-.42 0-.839-.136-1.183-.404.405.81.188 1.816-.564 2.38a1.934 1.934 0 0 1-2.454-.116c.34.838.044 1.824-.75 2.327a1.934 1.934 0 0 1-2.437-.305 1.91 1.91 0 0 1-.927 2.262 1.928 1.928 0 0 1-2.405-.488 1.91 1.91 0 0 1-1.095 2.185 1.932 1.932 0 0 1-2.359-.663 1.912 1.912 0 0 1-1.256 2.094 1.928 1.928 0 0 1-2.304-.836c.004.051.008.102.008.154a1.919 1.919 0 0 1-1.924 1.914 1.92 1.92 0 0 1-1.924-1.914 1.919 1.919 0 0 1 2.522-1.818 1.904 1.904 0 0 1 .08-2.083 1.924 1.924 0 0 1 1.964-.77 1.905 1.905 0 0 1-.151-2.099 1.925 1.925 0 0 1 1.887-.968 1.906 1.906 0 0 1-.348-2.086 1.924 1.924 0 0 1 1.804-1.131 1.91 1.91 0 0 1-.522-2.059 1.922 1.922 0 0 1 1.714-1.271 1.907 1.907 0 0 1-.678-2.018c.212-.77.868-1.3 1.618-1.394a1.91 1.91 0 0 1 .69-3.47 1.91 1.91 0 0 1 .429-3.509 1.913 1.913 0 0 1-1.105-1.814 1.914 1.914 0 0 1 1.246-1.71 1.917 1.917 0 0 1-1.256-1.693 1.913 1.913 0 0 1 1.043-1.804 1.906 1.906 0 0 1-.709-3.382 1.92 1.92 0 0 1-1.712-1.347 1.917 1.917 0 0 1-1.92 1.789 1.92 1.92 0 0 1-1.866-1.466 1.919 1.919 0 0 1-1.881 1.637h-.021a1.92 1.92 0 0 1-1.895-1.596 1.921 1.921 0 0 1-1.991 1.503 1.917 1.917 0 0 1-1.799-1.722 1.921 1.921 0 0 1-2.091 1.357 1.916 1.916 0 0 1-1.673-1.845 1.925 1.925 0 0 1-2.184 1.206 1.915 1.915 0 0 1-1.536-1.96 1.926 1.926 0 0 1-2.267 1.047 1.913 1.913 0 0 1-1.389-2.067 1.927 1.927 0 0 1-2.339.879 1.91 1.91 0 0 1-1.232-2.164 1.929 1.929 0 0 1-2.398.704 1.909 1.909 0 0 1-1.067-2.25 1.93 1.93 0 0 1-2.446.522 1.907 1.907 0 0 1-.891-2.327 1.925 1.925 0 0 1-2.944-.084 1.91 1.91 0 0 1-.98 1.9 1.922 1.922 0 0 1-2.07-.136 1.906 1.906 0 0 1-.434 2c-.376.38-.872.569-1.368.569-.21 0-.421-.034-.623-.102.438.568.537 1.357.188 2.036a1.923 1.923 0 0 1-1.822 1.038 1.909 1.909 0 0 1-.897 3.433 1.91 1.91 0 0 1 1.105 1.885 1.916 1.916 0 0 1-1.429 1.697 1.913 1.913 0 0 1 1.346 1.776 1.913 1.913 0 0 1-1.268 1.847 1.918 1.918 0 0 1 1.509 1.662 1.91 1.91 0 0 1-1.116 1.949 1.91 1.91 0 0 1 .67 3.574 1.92 1.92 0 0 1 1.747 1.421 1.909 1.909 0 0 1-.814 2.094h.031c.797 0 1.542.495 1.818 1.286.279.8-.008 1.658-.649 2.145a1.922 1.922 0 0 1 1.94 1.134 1.906 1.906 0 0 1-.465 2.184 1.923 1.923 0 0 1 2.025.955 1.906 1.906 0 0 1-.254 2.206 1.923 1.923 0 0 1 2.1.741c.48.68.45 1.562-.006 2.203.226-.093.474-.145.734-.145a1.92 1.92 0 0 1 1.924 1.914c0 1.057-.861 1.914-1.924 1.914a1.919 1.919 0 0 1-1.887-2.283 1.925 1.925 0 0 1-2.405 1.026 1.912 1.912 0 0 1-1.253-2.095 1.928 1.928 0 0 1-2.359.658 1.91 1.91 0 0 1-1.093-2.183 1.932 1.932 0 0 1-2.404.482 1.909 1.909 0 0 1-.925-2.26 1.929 1.929 0 0 1-2.434.299 1.908 1.908 0 0 1-.748-2.325 1.929 1.929 0 0 1-2.452.111 1.907 1.907 0 0 1-.564-2.375 1.93 1.93 0 0 1-2.452-.085 1.907 1.907 0 0 1-.371-2.414 1.93 1.93 0 0 1-2.439-.283 1.905 1.905 0 0 1-.169-2.438 1.929 1.929 0 0 1-2.409-.485 1.905 1.905 0 0 1 .039-2.445 1.919 1.919 0 0 1-.762.157 1.92 1.92 0 0 1-1.597-.846 1.906 1.906 0 0 1 .254-2.435 1.924 1.924 0 0 1-2.292-.894 1.905 1.905 0 0 1 .473-2.404 1.923 1.923 0 0 1-2.203-1.098 1.908 1.908 0 0 1 .694-2.353 1.923 1.923 0 0 1-2.093-1.298 1.908 1.908 0 0 1 .914-2.279l-.087.002a1.922 1.922 0 0 1-1.875-1.491 1.91 1.91 0 0 1 1.129-2.183A1.94 1.94 0 0 1 .31 50.116a1.913 1.913 0 0 1 1.33-2.065A1.917 1.917 0 0 1 0 46.219a1.914 1.914 0 0 1 1.522-1.93 1.914 1.914 0 0 1-1.459-1.978 1.917 1.917 0 0 1 1.696-1.778 1.912 1.912 0 0 1-1.26-2.106 1.92 1.92 0 0 1 1.859-1.609 1.91 1.91 0 0 1 .947-3.642 1.907 1.907 0 0 1-.834-2.303A1.922 1.922 0 0 1 4.6 29.642a1.906 1.906 0 0 1-.617-2.371 1.922 1.922 0 0 1 2.235-1.03 1.906 1.906 0 0 1-.399-2.417A1.922 1.922 0 0 1 8.139 23a1.905 1.905 0 0 1-.183-2.443 1.934 1.934 0 0 1 2.384-.618 1.905 1.905 0 0 1 .028-2.449 1.92 1.92 0 0 1 1.462-.67c.332 0 .666.085.965.258a1.905 1.905 0 0 1 .234-2.438 1.935 1.935 0 0 1 2.453-.21 1.906 1.906 0 0 1 .432-2.41 1.929 1.929 0 0 1 2.455-.017 1.907 1.907 0 0 1 .627-2.361 1.931 1.931 0 0 1 2.447.175 1.909 1.909 0 0 1 .809-2.304 1.93 1.93 0 0 1 2.426.362 1.91 1.91 0 0 1 .983-2.235 1.931 1.931 0 0 1 2.39.542A1.912 1.912 0 0 1 29.2 4.028a1.93 1.93 0 0 1 2.342.717 1.913 1.913 0 0 1 1.305-2.063 1.928 1.928 0 0 1 2.282.885 1.915 1.915 0 0 1 1.921-2.02c.742 0 1.426.43 1.741 1.104A1.917 1.917 0 0 1 40.716.77c.795 0 1.511.492 1.794 1.229A1.918 1.918 0 0 1 44.428.255c.85 0 1.594.559 1.837 1.356a1.92 1.92 0 0 1 1.834-1.61L48.165 0z"/><path d="M70.088 57.3c1.9 2.2.5 6-1.7 8.5-1.04 1.181-3.864 1.693-6.746 1.693-3.217 0-6.504-.638-7.454-1.693-1.2-1.3-2.8-3.3-3.2-5.3-.3-.1-.7-.1-1-.1s-.7.1-1 .1c-.4 2-2.1 4-3.2 5.3-.897 1.055-4.159 1.693-7.364 1.693-2.871 0-5.696-.511-6.736-1.693-2.2-2.5-3.7-6.3-1.8-8.5.929-1.039 5.593-1.778 10.024-1.778 3.674 0 7.188.509 8.276 1.778.3.3.5.7.6 1 .4-.1.8-.1 1.2-.1.4 0 .8.1 1.2.1.1-.3.3-.7.6-1 1.088-1.27 4.601-1.778 8.276-1.778 4.43 0 9.094.74 10.024 1.778zm-1.776 8.434c1.137-1.292 1.999-2.867 2.366-4.321.292-1.157.413-2.798-.666-4.048-.86-.961-5.323-1.744-9.948-1.744-4.199 0-7.265.652-8.2 1.743a2.576 2.576 0 0 0-.581.966l-.023.07h-.072c-.206 0-.413-.026-.612-.051-.194-.024-.394-.049-.588-.049-.387 0-.788 0-1.176.097l-.09.022-.029-.088a2.568 2.568 0 0 0-.576-.961c-.941-1.097-4.006-1.749-8.206-1.749-4.625 0-9.088.783-9.949 1.745-1.808 2.094-.463 5.795 1.801 8.367.914 1.039 3.404 1.659 6.661 1.659 3.407 0 6.472-.697 7.288-1.657l.019-.023c1.102-1.302 2.766-3.269 3.159-5.232l.016-.08h.082c.143 0 .317-.025.486-.049.176-.025.357-.051.514-.051.302 0 .716 0 1.032.105l.055.018.011.057c.307 1.535 1.375 3.302 3.175 5.252.866.963 3.97 1.661 7.38 1.661 3.264 0 5.757-.62 6.671-1.659zM85.3 49.8v.3c-.603.259-1.207.74-2.002.74-.127 0-.26-.012-.398-.04h-.3c-.2-.2-1.5-.4-1.9-.6-.3-.1-.9-.5-1.3-.7-2.3-1.2-4.3-2.7-6.1-4.4-.7-.7-1.3-1.4-2-2.1-.2-.3-.5-.8-.8-.9l-1.3 1c-.3.2-.7.2-1 .5H68c-.3.2-.4.4-.8.6a.536.536 0 0 1-.243.058c-.214 0-.416-.115-.664-.115a.781.781 0 0 0-.293.058c-.6.2-1.2.6-1.9.7-.141-.071-.183-.141-.336-.141-.064 0-.146.012-.264.041.1 0 .1 0 .2.1-.7 0-2.6-.5-3-.9 0-.2-1.2-1-1.5-1.1l.1-.1c.1.1 0 .1.2.1-.1-.3-.3-.5-.5-.7.6.3 1 .3 1.6.6 0-.1-.1-.1-.1-.2.387.238.775.326 1.162.326.913 0 1.825-.485 2.738-.626h-.2c.2-.1.5-.1.7-.1.56-.187 1.121-.81 1.681-.81.04 0 .079.003.119.01v-.1c.6-.4 1.1-.8 1.6-1.3h-.2v-.1c1-.3 0-1.6-.4-2.2-1-1.9-2-4.2-3-6.2-.3 0-1.3.3-1.6.4-.472.139-1.068.208-1.695.208-1.63 0-3.472-.469-3.905-1.408 1.2 0 2.3-.9 3-1 .1-.1.1-.2.2-.3v.1l1-.4v-.2h-.2V29c-.16 0-.256.128-.39.128A.242.242 0 0 1 61 29.1c.1 0 .9-.7.8-.9l-.1.1h-.1v-.1h-.1l-.1.2h.1c0 .1-.1.1-.1.2h-.1v-.1H61v-.1c.2-.1.1-.1.3-.1v-.2c.4-.3.8-.8 1-1.2l.1.1v-.1c0-.4.2-.3.4-.6h-.1l.3-.3-.6-3c.9 0 1.3.6 2 1 0-.2.8-1.3 1-1.5-.1 0 0 0-.1-.1.1 0 .1 0 .1-.1.1-.6.8-1.3 1.1-1.9.6-1.4 1.5-3 1.9-4.7-.8 0-4.6.5-4.9.8-.6.6-.8 2.8-1 3.4-.1.4.1.9.1 1.1 0 .3-.5.8-.4 1.1l-.6.5a1.39 1.39 0 0 1-.63.158c-1.453 0-2.443-2.544-2.97-3.158h-.1c-.524 1.497-1.44 2.602-2.79 2.602-.454 0-.957-.125-1.51-.402-.8-.4-1.6-.5-2.2-1-.1-.1-.4-.1-.5-.1l-.5-.5a.087.087 0 0 0-.063-.029c-.058 0-.115.058-.173.058a.087.087 0 0 1-.063-.029c-.4-.2-.8-.6-1-1.2.393-.393 1.528-.663 2.336-.663.219 0 .415.02.564.063 1.1-.3 2.5-.4 3.4-.9.2-.1 1.7-.5 1.7-.7.1-.2 0-.4-.1-.6-.2-.8-.5-3-.1-3.5H57c.9.1 2.3 1.7 2.8 2.3.2.3.3.7.6.9.9-.2 1.9-.5 2.8-.7.2 0 .7-.1 1.1-.2h.2c1.4-.1 3.1-.4 4.4-.5.3-1.1.8-2.3 1-3.3.2-.6.1-1.6 0-2l-.1-.2c-.1-.5.2-.7 0-1.3l.3.2c0-.1 0-.2-.1-.3.1 0 .1.1.2.1v-.3c.3.1.5.4.7.7.1.1.3.1.4.2 1 1.4 2.1 2.6 2.5 4.3.1.5-.6 1.6-.6 1.9h.1c.047.016.1.021.159.021.187 0 .427-.059.661-.059.17 0 .337.031.479.137.4.2.8.3 1.2.5.7.3 2.3 1.5 2.6 2 .2.3.3.6.5.9v.4c-.2.3-.5.8-.8 1.1a1.213 1.213 0 0 1-.759.257c-1.208 0-2.595-1.565-2.841-2.057-.187-.28-.723-.91-1.119-.91a.31.31 0 0 0-.081.01c-.1 0-1.4.5-1.5.5-.3.3-.4.9-.7 1.2-.5.5-.9 1.2-1.5 1.9l.1.6c0 .086-.443.541-.631.541-.031 0-.055-.012-.069-.041-.2.3-.5.7-.7 1h.1c-.5.1-.9 1-1.3 1.3H67c-.1.6-.2.6-.9 1 .1.1 0 0-.1.1 0 .1 0 .1.1.2l.1-.1-.2.301c.2.3.5.6.7.7l.7-.4c.1-.1.1-.3.3-.4 1.1-.7 2.1-1 3.6-1.1l.096-.003c1.479 0 3.153 2.218.804 2.903.1.1.1.1 0 .3-1.1.1-2.3 1.4-3.2 1.9-.3.2-1.3.4-1.4.6-.2.5.3 1.3.4 1.9.1.8 1.3 4.5 2 5.1.6-1.5 1.5-3.1 2.1-4.6.3-.7-.1-1.7.1-2.1.7.2 1.2.8 1.6 1.1.8.8 1.3 1.6 1.6 2.6.1.3-.1.8-.1 1.1l-.2.3c-.1.8-.6 1.5-1.1 2.1 0 .1-.1.2-.1.3-.5.6-1.3 1.4-1.6 2.2 1.6 1.9 3.6 3.4 5.6 4.9.5.3 1.3.7 1.7 1 .3.2.6.2.7.4h.1l.1-1-.2-.9c.1.1.1.2.2.3-.6-2.1-.7-3.2-1.7-4.9l-.4-.8v.1c-.2-.4-.2-.5-.5-.9h.3c.082.245.102.423.214.589.039-.039.062-.059.086-.059.025 0 .052.023.099.07L78.3 38h.1l1.4 2.1c-.1-.9-1-1.8-1.4-2.8h.1c.1.4 1.3 1.6 1.7 2.2.8 1.3 1.7 2.5 2.8 3.8.1 0 .1 0 .2-.1v.2c.1 0 .1.1.2.1v.2a.012.012 0 0 1 .009-.004c.125 0 .759 1.608.973 1.608a.033.033 0 0 0 .017-.004c.08 0 .096.128.15.128.014 0 .03-.008.05-.028.3.4.1 1.1.7 1.3v-.2h.1c.1.2.1.1.2.3.1.4.2.9.4 1.3V48c.201.3-.499 1.7-.699 1.8zm.611-1.655c-.173-.345-.271-.756-.359-1.119l-.049-.201c-.035-.065-.053-.083-.074-.104l-.029-.031V46.839l-.132-.044c-.424-.141-.501-.506-.568-.827-.034-.161-.066-.315-.136-.441l-.013.001c-.079 0-.12-.063-.144-.101l-.016-.024-.008.001c-.158 0-.304-.242-.69-1.021a7.76 7.76 0 0 0-.287-.547l-.106.105v-.365c-.032-.017-.054-.039-.071-.055-.02-.021-.021-.021-.029-.021h-.1V43.392a.463.463 0 0 1-.1.008h-.046l-.03-.035c-1.158-1.368-2.05-2.58-2.809-3.812-.158-.237-.459-.587-.751-.926a36.412 36.412 0 0 1-.396-.465l.176.28c.357.564.693 1.096.755 1.647l.045.408-.228-.342-.909-1.364.157.315-.436-.436a.627.627 0 0 0-.028-.027.207.207 0 0 1-.017.016l-.029.028.033.067.4.8c.758 1.289 1 2.229 1.335 3.53.105.409.225.873.372 1.387l.106.371-.201-.201.097.436.003.016-.002.016-.1 1-.007.091h-.252l-.028-.055c-.039-.078-.129-.116-.284-.176a1.915 1.915 0 0 1-.382-.185c-.258-.193-.678-.426-1.083-.65a21.146 21.146 0 0 1-.612-.347c-1.98-1.484-4.018-3.013-5.625-4.921l-.038-.045.021-.055c.246-.657.824-1.317 1.289-1.848.109-.125.214-.244.308-.357.009-.057.034-.108.057-.155.019-.039.039-.08.039-.106v-.036l.023-.028c.478-.573.98-1.265 1.078-2.048l.003-.023.013-.02.184-.276c.004-.117.032-.253.061-.396.046-.225.097-.481.044-.641-.292-.974-.778-1.763-1.576-2.561-.1-.073-.216-.177-.34-.288-.319-.285-.679-.605-1.128-.759-.039.164-.014.415.013.679.044.433.094.924-.083 1.336-.3.751-.682 1.541-1.052 2.304-.368.76-.748 1.547-1.047 2.294l-.052.13-.106-.091c-.745-.639-1.936-4.376-2.034-5.164-.034-.201-.117-.431-.204-.674-.163-.452-.332-.919-.189-1.276.075-.15.352-.248.8-.395.255-.084.518-.171.638-.251.303-.169.637-.425.99-.696.685-.526 1.459-1.121 2.201-1.214a.474.474 0 0 0 .04-.095.287.287 0 0 1-.045-.041l-.119-.119.162-.047c.779-.227 1.166-.654 1.087-1.201-.108-.76-1.032-1.506-1.864-1.506-.03 0-.059.001-.089.003-1.486.099-2.482.403-3.553 1.085-.103.052-.137.127-.177.214a.553.553 0 0 1-.106.172l-.009.009-.012.007-.7.4-.047.027-.048-.024c-.216-.108-.527-.417-.738-.734l-.039-.056.037-.055.075-.112c-.08-.083-.092-.117-.092-.233v-.041l.029-.029a.374.374 0 0 1 .031-.027l-.024-.024.114-.065.182-.103c.531-.299.586-.33.669-.826l.014-.084H67.065c.137-.112.28-.303.43-.504.219-.293.444-.594.707-.73l.014-.021c.101-.151.226-.327.352-.503.124-.174.249-.348.348-.497l.096-.143.069.138c.125-.022.46-.338.516-.446l-.096-.577-.008-.046.03-.035c.267-.311.491-.62.709-.918.265-.363.515-.707.796-.988.137-.137.235-.357.329-.57.102-.23.208-.467.371-.63l.029-.029h.043c.054-.008.437-.144.717-.244.555-.198.725-.256.783-.256a.255.255 0 0 1 .081-.01c.464 0 1.025.689 1.202.954.255.509 1.628 2.012 2.757 2.012.26 0 .495-.079.698-.236.227-.228.465-.595.656-.889l.105-.162v-.34a4.425 4.425 0 0 1-.24-.435c-.076-.151-.147-.294-.244-.439-.297-.495-1.885-1.676-2.556-1.964-.201-.1-.401-.175-.595-.248-.199-.075-.405-.152-.61-.254a.69.69 0 0 0-.435-.127c-.117 0-.238.016-.355.031-.109.014-.212.028-.306.028a.638.638 0 0 1-.174-.021H73.1v-.1c0-.132.091-.343.241-.677.185-.414.416-.93.361-1.203-.319-1.356-1.092-2.39-1.911-3.484-.191-.258-.383-.515-.572-.78-.023-.021-.085-.041-.15-.063-.081-.027-.172-.057-.239-.124-.173-.256-.33-.49-.53-.614V7.8H70.197c.003.035.003.069.003.1v.187l-.155-.104-.087-.058c.033.224-.003.394-.035.548-.032.154-.063.3-.026.495l.094.188c.11.429.214 1.451.005 2.076-.115.577-.339 1.247-.557 1.894-.156.464-.317.945-.442 1.4l-.019.068-.07.005c-.62.048-1.319.139-2.06.237-.79.104-1.608.211-2.341.263H64.3c-.367.095-.886.2-1.1.2-.427.097-.909.224-1.375.347-.468.123-.952.25-1.404.351l-.042.009-.036-.024c-.222-.148-.341-.386-.456-.616-.056-.111-.108-.217-.172-.312-.535-.641-1.885-2.162-2.728-2.256h-.037c-.304.497-.082 2.469.145 3.376.094.184.21.414.1.652-.03.157-.328.292-1.32.612a5.545 5.545 0 0 0-.433.149c-.602.335-1.427.494-2.224.647-.404.078-.822.158-1.194.26l-.027.007-.027-.008a2.067 2.067 0 0 0-.537-.059c-.743 0-1.808.241-2.22.592.176.481.512.873.929 1.082l.015.007.011.011.035-.019a.285.285 0 0 1 .131-.039c.05 0 .096.02.134.058l.471.471c.197.002.422.022.529.129.346.288.781.442 1.24.605.303.107.617.218.934.377.519.259 1.012.391 1.465.391 1.166 0 2.123-.9 2.695-2.535l.023-.067H58.046l.03.035c.14.163.307.45.501.783.544.932 1.366 2.341 2.392 2.341.193 0 .39-.05.586-.148l.534-.448c-.024-.194.103-.415.225-.63.092-.158.186-.324.186-.43 0-.054-.02-.148-.044-.256-.053-.243-.126-.576-.053-.868.06-.18.119-.502.189-.875.167-.898.395-2.129.838-2.572.35-.35 4.269-.829 4.971-.829h.126l-.029.123c-.293 1.245-.861 2.457-1.363 3.526-.195.416-.379.808-.543 1.19a5.987 5.987 0 0 1-.476.742c-.275.388-.56.788-.618 1.135a.342.342 0 0 1-.008.084h.15l-.171.171c-.221.221-.958 1.262-.971 1.43l-.012.158-.138-.072a5.462 5.462 0 0 1-.588-.405c-.384-.29-.718-.544-1.24-.578l.575 2.876.01.052-.038.038-.126.13h.045l-.104.155c-.086.129-.173.193-.242.244-.096.072-.14.104-.14.301V27.241l-.171-.171-.005-.005a4.02 4.02 0 0 1-.864 1.034H61.7v.059l.029-.029.098-.098.062.124c.038.076.02.173-.056.296-.059.096-.17.225-.293.349h.26V29.168l-.063.025-1 .4-.059.023a.588.588 0 0 1-.108.154l-.024.024-.033.005c-.258.037-.581.193-.956.373-.538.259-1.198.577-1.891.623.524.798 2.236 1.214 3.738 1.214.636 0 1.212-.071 1.667-.204.186-.063 1.289-.405 1.629-.405h.062l.028.055c.429.858.865 1.786 1.287 2.684.561 1.195 1.142 2.431 1.712 3.514l.107.156c.35.512.878 1.285.699 1.791a.573.573 0 0 1-.247.3h.194l-.171.171c-.477.477-.964.875-1.571 1.283V41.518l-.116-.019a.584.584 0 0 0-.102-.008c-.3 0-.622.211-.934.415-.232.152-.472.309-.715.39l-.017.004H64.9c-.138 0-.328 0-.49.035l.005.064c-.372.057-.754.176-1.123.291-.532.165-1.081.336-1.63.336-.346 0-.663-.067-.962-.205v.141l-.145-.072a4.504 4.504 0 0 0-.784-.294c-.126-.038-.254-.076-.389-.125.087.115.162.243.213.397l.044.132h-.029c.443.261 1.083.708 1.178.946.329.297 1.621.688 2.461.814l.226-.057a1.23 1.23 0 0 1 .288-.044c.135 0 .206.045.281.094.022.014.045.029.073.044.417-.065.803-.241 1.176-.411.231-.105.45-.205.675-.28a.859.859 0 0 1 .325-.063c.141 0 .269.034.382.064.099.026.192.051.282.051a.428.428 0 0 0 .198-.047c.228-.114.351-.226.481-.345.089-.081.182-.165.308-.249l.026-.017h.19c.185-.171.396-.244.6-.314.14-.048.272-.094.385-.169l1.294-.996.042-.032.05.017c.301.1.581.527.785.838l.067.101c.339.336.67.693.99 1.037.319.344.649.699.998 1.047 1.929 1.822 3.917 3.256 6.076 4.382.161.081.358.195.548.306.279.163.567.331.737.388.183.09.546.181.897.268.521.129.862.22 1.008.327h.263c.146.027.273.04.398.04.551 0 1.008-.243 1.451-.478.155-.082.302-.16.451-.227v-.297l.055-.028c.113-.065.529-.819.65-1.338.018-.077.026-.136.029-.181l-.023-.046z"/><path d="M57.7 36.8c.6 2.9-.5 6-1.8 8.2-.4.6-.5 1.2-.8 1.6a.458.458 0 0 0-.143-.027c-.165 0-.196.146-.357.227-.7-.1-1.5-.3-1.9-.6 0-.3-.5-.6-.7-.9v-.9c-.2-.6-.5-1.4-.5-2.2 0-.4 1.4-2.5 1.7-3.2.7-1.6 1.1-3.3 1.4-4.9.1-.7-.1-1.3 0-1.9.6.1 1.6.5 2.1 1 .1.2.2.5.4.7v.1c0 .3.2 1 .4 1.4.1.4 0 .9.2 1.4zm-.244-.867c-.008-.183-.015-.357-.053-.509C57.203 35.03 57 34.315 57 34v-.06c-.149-.162-.243-.373-.319-.544-.022-.049-.042-.095-.063-.137-.447-.438-1.32-.816-1.933-.942-.028.251-.007.506.014.775.026.323.053.656 0 1.022-.261 1.395-.657 3.211-1.407 4.926-.125.291-.43.809-.753 1.358-.419.71-.939 1.593-.939 1.802 0 .706.241 1.417.434 1.988l.061.181.005.015v.885c.07.096.176.198.279.297.191.183.388.372.417.581.335.231.994.434 1.785.55a.548.548 0 0 0 .1-.085c.062-.062.138-.138.276-.138.032 0 .065.004.102.012.117-.173.203-.383.3-.622.115-.281.246-.601.457-.918.77-1.303 2.491-4.713 1.785-8.124-.119-.298-.133-.612-.145-.889zM78.4 21.8l1 .3c.6.5 1.3.7 1.8 1.1.9.7 1.8 1.6 2.6 2.4.9.9 1.7 2.3.6 3.3-.1.1-.8.2-1 .3-.05-.15-.15-.175-.275-.175-.062 0-.131.006-.203.006s-.147-.006-.222-.031c-.2-.2-.4-.4-.7-.6-.6-.3-.6-1.1-1.3-1.3-.267-.076-.622-.109-.992-.109-.599 0-1.237.085-1.608.209 0 0-.133.089-.252.089a.153.153 0 0 1-.148-.089c-.081.081-.227.227-.386.227a.254.254 0 0 1-.114-.027c1.1-.6 2.3-1.3 3.2-2.2-.3-.9-2.3-2.6-3-3.4h.2v-.1c-.1-.1-.2-.1-.3-.3.4 0 .8.3 1.1.4zm-.374-.059c-.147-.073-.307-.153-.467-.2a.717.717 0 0 1 .112.088l.029.029V21.9h-.073c.203.216.471.478.751.753.847.831 1.901 1.865 2.118 2.516l.02.059-.044.044c-.744.744-1.698 1.358-2.664 1.907.009.007.022.011.042.011a.447.447 0 0 0 .197-.072l.011-.007.013-.004c.384-.128 1.043-.214 1.639-.214.409 0 .761.039 1.02.113.416.119.604.425.785.721.145.237.282.461.532.586.31.205.514.406.708.601.048.013.102.02.169.02.036 0 .07-.002.104-.003l.099-.003c.111 0 .242.019.325.148.107-.036.254-.07.407-.106.17-.04.428-.1.474-.138.325-.296.494-.644.503-1.038.021-.895-.765-1.78-1.104-2.119-.795-.795-1.695-1.695-2.591-2.392-.225-.18-.494-.319-.779-.467-.336-.174-.682-.354-1.008-.622l-.981-.294a3.463 3.463 0 0 1-.347-.159zM62.183 17.117c-.201.238-.619.547-.919.658l-.052-.155c.183-.209.502-.327.785-.433a4.88 4.88 0 0 0 .186-.07m.217-.217c-.3.2-1 .3-1.3.7l.1.3c.4-.1 1.2-.7 1.2-1zM63.373 27.475c.012.054.023.133.026.251a.192.192 0 0 0-.099.174v.023c-.344.25-.75.512-1.172.664a.845.845 0 0 0 .146-.195c.119-.023.206-.098.29-.171a.908.908 0 0 1 .181-.133l.078-.039-.027-.082c-.036-.109.181-.241.356-.347.083-.049.16-.096.221-.145m.027-.175c-.1.2-.8.4-.7.7-.2.1-.3.3-.5.3l.2-.2c-.2.1-.3.2-.4.3.2-.1.1-.1.2-.1 0 .1-.3.4-.5.5.7-.1 1.4-.6 1.8-.9h-.1c0-.1.1-.1.1-.1 0-.1 0-.4-.1-.5z"/></svg>