<svg xmlns="http://www.w3.org/2000/svg" viewBox="0 0 1000 235" enable-background="new 0 0 1000 235"><g><path d="M982.857 17.195v200.61H17.143V17.195h965.714M1000 0H0v235h1000V0z" fill="#AD371C"/><path d="M994.286 5.732V229.27H5.714V5.73h988.572M1000 0H0v235h1000V0zM954.286 45.854v143.293H45.714V45.854h908.572M960 40.122H40v154.756h920V40.122z" fill="#82210E"/><path d="M144.787 158.76c-9.46-8.1-14.188-17.946-14.188-29.532 0-13.14 5.188-24.348 15.568-33.626 10.296-9.235 22.747-13.853 37.354-13.853 11.342 0 20.968 3.198 28.878 9.594 8.287 6.78 12.43 15.443 12.43 25.99 0 8.473-2.658 16.268-7.973 23.385-5.316 7.117-11.363 10.674-18.143 10.674-4.48 0-7.785-1.418-9.92-4.255-1.422-1.892-2.155-3.954-2.196-6.19-.963 2.622-2.847 5.03-5.65 7.22-2.804 2.192-5.797 3.287-8.977 3.287-4.73 0-8.716-1.67-11.96-5.014-3.243-3.342-4.864-7.813-4.864-13.414 0-7.337 2.75-14.076 8.255-20.218 5.504-6.14 11.52-9.213 18.05-9.213 2.97 0 5.503.778 7.596 2.337 2.092 1.56 3.453 3.468 4.08 5.73l2.073-6.494h10.295l-3.453 11.126c-1.423 4.58-2.68 8.835-3.767 12.762-1.758 6.37-2.637 10.364-2.637 11.977 0 .872.292 1.853.88 2.944 1.003 1.833 2.55 2.75 4.645 2.75 4.06 0 8.245-2.907 12.556-8.72 4.31-5.81 6.465-12.896 6.465-21.256 0-10.23-3.757-18.067-11.27-23.51-7.512-5.442-15.767-8.163-24.765-8.163-11.26 0-21.366 4.015-30.322 12.046-9.71 8.683-14.565 19.295-14.565 31.84 0 11.677 4.06 21.097 12.18 28.26 7.7 6.77 17.367 10.157 29.003 10.157 3.976 0 8.328-.587 13.058-1.763 7.24-1.763 13.455-4.617 18.645-8.564l2.385 3.59c-6.278 4.03-12.2 6.716-17.766 8.06-5.568 1.342-11.615 2.014-18.144 2.014-13.185 0-24.465-3.987-33.84-11.963zm23.385-14.396c1.402 1.664 3.275 2.495 5.62 2.495 4.98 0 8.986-4.213 12.02-12.64 3.035-8.425 4.552-14.586 4.552-18.482 0-2.276-.607-4.07-1.82-5.384-1.215-1.313-2.91-1.97-5.086-1.97-4.228 0-8.183 3.37-11.865 10.112-3.683 6.74-5.525 13.11-5.525 19.106 0 2.845.7 5.1 2.104 6.762zM239.25 152.677c3.507-.306 5.833-.927 6.977-1.865 1.144-.936 1.716-2.935 1.716-5.995v-25.875c0-3.787-.353-6.492-1.058-8.118-.706-1.625-1.993-2.438-3.86-2.438-.383 0-.887.048-1.517.144-.63.096-1.287.22-1.973.373v-1.893c2.166-.765 4.39-1.55 6.67-2.352 2.282-.803 3.86-1.377 4.733-1.72 1.9-.727 3.858-1.55 5.872-2.468.266 0 .427.096.484.287.057.192.086.593.086 1.205v9.41c2.447-3.405 4.807-6.063 7.083-7.976 2.275-1.912 4.637-2.87 7.085-2.87 1.95 0 3.537.585 4.76 1.75 1.223 1.168 1.836 2.63 1.836 4.39 0 1.57-.467 2.888-1.402 3.96-.935 1.07-2.107 1.605-3.518 1.605-1.45 0-2.908-.668-4.376-2.007-1.468-1.338-2.622-2.008-3.46-2.008-1.335 0-2.974 1.08-4.92 3.24-1.944 2.162-2.916 4.39-2.916 6.685v25.875c0 3.29.762 5.575 2.288 6.856 1.525 1.283 4.06 1.885 7.607 1.808v1.893h-28.2v-1.893zM290.327 129.268c3.508-2.295 10.505-5.412 20.992-9.352v-4.877c0-3.902-.383-6.618-1.145-8.148-1.297-2.562-3.985-3.844-8.065-3.844-1.945 0-3.795.498-5.548 1.492-1.754 1.033-2.63 2.448-2.63 4.246 0 .46.094 1.234.285 2.323.19 1.09.286 1.788.286 2.093 0 2.142-.706 3.634-2.116 4.475-.8.497-1.754.746-2.86.746-1.716 0-3.032-.564-3.947-1.693-.915-1.127-1.373-2.38-1.373-3.757 0-2.677 1.65-5.48 4.948-8.405 3.298-2.926 8.13-4.39 14.5-4.39 7.397 0 12.412 2.41 15.043 7.23 1.41 2.64 2.116 6.483 2.116 11.532v23.006c0 2.22.152 3.75.458 4.59.495 1.492 1.525 2.238 3.09 2.238.876 0 1.6-.134 2.173-.402.572-.267 1.563-.918 2.974-1.95v2.982c-1.222 1.492-2.537 2.716-3.948 3.672-2.136 1.454-4.31 2.18-6.52 2.18-2.594 0-4.472-.84-5.635-2.524-1.164-1.683-1.802-3.69-1.916-6.024-2.897 2.524-5.376 4.398-7.435 5.622-3.47 2.065-6.77 3.1-9.895 3.1-3.28 0-6.12-1.158-8.523-3.472-2.402-2.313-3.604-5.25-3.604-8.807 0-5.543 2.765-10.172 8.294-13.882zm20.992-6.483c-4.387 1.454-8.01 3.06-10.87 4.82-5.49 3.404-8.236 7.267-8.236 11.588 0 3.48 1.144 6.044 3.432 7.688 1.487 1.072 3.146 1.607 4.976 1.607 2.517 0 4.928-.708 7.236-2.123 2.307-1.414 3.46-3.213 3.46-5.393v-18.185zM365.143 102.188c1.525.803 2.993 1.913 4.404 3.328V87.27c0-2.332-.257-3.938-.772-4.818-.515-.88-1.744-1.32-3.69-1.32-.457 0-.857.02-1.2.057-.343.038-1.106.114-2.288.228v-1.893l4.69-1.205c1.716-.46 3.432-.937 5.148-1.434 1.716-.497 3.222-.975 4.52-1.434.61-.19 1.62-.554 3.03-1.09l.344.115-.115 6.024c-.04 2.18-.077 4.43-.114 6.742-.038 2.315-.056 4.6-.056 6.856l-.114 46.874c0 2.486.305 4.227.915 5.22.61.996 2.23 1.493 4.862 1.493.42 0 .838-.01 1.258-.03.42-.018.838-.066 1.258-.143v1.894c-.23.077-2.994 1.033-8.294 2.87l-8.98 3.384-.4-.517v-7.057c-2.137 2.333-3.986 3.997-5.55 4.99-2.783 1.722-6.005 2.583-9.666 2.583-6.483 0-11.735-2.516-15.758-7.546s-6.034-10.853-6.034-17.47c0-8.3 2.41-15.424 7.236-21.372 4.823-5.947 10.725-8.92 17.703-8.92 2.782 0 5.337.613 7.663 1.836zm1.66 44.636c1.83-1.76 2.745-3.422 2.745-4.99V117.22c0-4.972-1.325-8.48-3.975-10.528-2.65-2.046-5.234-3.07-7.75-3.07-4.805 0-8.542 2.133-11.21 6.397-2.67 4.264-4.005 9.514-4.005 15.748 0 6.16 1.42 11.646 4.26 16.466s7.084 7.23 12.728 7.23c2.973 0 5.376-.88 7.206-2.64zM390.597 152.963c4.08-.382 6.654-1.08 7.722-2.094 1.066-1.014 1.6-3.76 1.6-8.234V115.27c0-2.487-.17-4.208-.514-5.165-.572-1.568-1.773-2.352-3.604-2.352-.42 0-.83.04-1.23.115-.4.077-1.554.383-3.46.918v-1.78l2.46-.802c6.672-2.18 11.324-3.824 13.955-4.934 1.067-.46 1.754-.688 2.06-.688.075.268.113.555.113.86v41.195c0 4.36.524 7.095 1.573 8.205 1.048 1.11 3.422 1.817 7.12 2.123v1.606h-27.798v-1.607zm9.094-76.716c1.145-1.18 2.555-1.77 4.234-1.77 1.64 0 3.04.58 4.204 1.742 1.163 1.16 1.745 2.578 1.745 4.252 0 1.637-.582 3.036-1.745 4.197-1.163 1.16-2.565 1.74-4.204 1.74-1.678 0-3.09-.58-4.233-1.74-1.143-1.162-1.715-2.562-1.715-4.198 0-1.636.572-3.045 1.716-4.225zM462.295 104.155c3.45 2.46 5.177 5.155 5.177 8.09 0 1.26-.44 2.43-1.316 3.517-.878 1.086-2.23 1.63-4.06 1.63-1.336 0-2.51-.46-3.52-1.377-1.01-.918-1.744-2.256-2.2-4.016l-.687-2.755c-.497-2.027-1.355-3.46-2.575-4.303-1.258-.803-2.917-1.205-4.976-1.205-4.348 0-8.02 1.906-11.012 5.717-2.994 3.81-4.49 8.876-4.49 15.195 0 5.783 1.65 10.972 4.948 15.568 3.298 4.596 7.75 6.894 13.356 6.894 3.965 0 7.493-1.303 10.582-3.91 1.754-1.493 3.737-3.87 5.95-7.127l1.6.977c-2.173 4.595-4.46 8.232-6.863 10.913-4.613 5.13-9.952 7.696-16.015 7.696-5.95 0-11.21-2.352-15.787-7.056s-6.864-11.092-6.864-19.163c0-7.916 2.497-14.724 7.493-20.424 4.995-5.7 11.306-8.55 18.933-8.55 4.765 0 8.873 1.23 12.325 3.69zM485.432 129.268c3.508-2.295 10.505-5.412 20.992-9.352v-4.877c0-3.902-.382-6.618-1.144-8.148-1.297-2.562-3.985-3.844-8.065-3.844-1.945 0-3.795.498-5.548 1.492-1.754 1.033-2.63 2.448-2.63 4.246 0 .46.094 1.234.285 2.323.19 1.09.286 1.788.286 2.093 0 2.142-.706 3.634-2.116 4.475-.8.497-1.754.746-2.86.746-1.716 0-3.032-.564-3.947-1.693-.915-1.127-1.373-2.38-1.373-3.757 0-2.677 1.65-5.48 4.948-8.405 3.298-2.926 8.13-4.39 14.5-4.39 7.398 0 12.412 2.41 15.043 7.23 1.41 2.64 2.116 6.483 2.116 11.532v23.006c0 2.22.15 3.75.457 4.59.496 1.492 1.525 2.238 3.09 2.238.876 0 1.6-.134 2.172-.402.572-.267 1.563-.918 2.973-1.95v2.982c-1.22 1.492-2.536 2.716-3.946 3.672-2.136 1.454-4.31 2.18-6.52 2.18-2.595 0-4.473-.84-5.635-2.524-1.164-1.683-1.802-3.69-1.916-6.024-2.898 2.524-5.377 4.398-7.436 5.622-3.47 2.065-6.77 3.1-9.895 3.1-3.28 0-6.12-1.158-8.523-3.472-2.402-2.313-3.604-5.25-3.604-8.807 0-5.543 2.764-10.172 8.294-13.882zm20.992-6.483c-4.386 1.454-8.008 3.06-10.868 4.82-5.49 3.404-8.237 7.267-8.237 11.588 0 3.48 1.143 6.044 3.43 7.688 1.488 1.072 3.147 1.607 4.977 1.607 2.517 0 4.928-.708 7.235-2.123 2.307-1.414 3.46-3.213 3.46-5.393v-18.185zM527.244 152.963c3.546-.344 5.95-1.06 7.207-2.152 1.26-1.09 1.888-3.22 1.888-6.396V88.36c0-2.523-.21-4.263-.63-5.22-.762-1.606-2.306-2.41-4.632-2.41-.534 0-1.115.057-1.744.172-.63.115-1.42.287-2.374.516v-1.893c5.148-1.377 11.344-3.213 18.59-5.508.266 0 .43.115.486.344.057.23.086.728.086 1.493v68.79c0 3.328.572 5.48 1.716 6.455 1.144.975 3.508 1.597 7.093 1.864v1.606h-27.685v-1.605zM566 154.025c-1.257-1.28-1.886-2.82-1.886-4.618 0-1.797.638-3.328 1.916-4.59 1.277-1.262 2.81-1.894 4.604-1.894 1.792 0 3.318.63 4.576 1.894s1.888 2.793 1.888 4.59c0 1.798-.62 3.338-1.86 4.618-1.238 1.28-2.773 1.922-4.603 1.922-1.83 0-3.375-.64-4.634-1.922zM590.903 153.078c2.974-.267 4.957-.765 5.95-1.492 1.524-1.11 2.287-3.328 2.287-6.655v-29.66c0-2.83-.372-4.686-1.115-5.566-.744-.88-1.973-1.32-3.69-1.32-.8 0-1.4.04-1.8.115-.402.076-.87.21-1.403.4v-2.007l4.118-1.377c1.488-.497 3.927-1.396 7.32-2.697 3.395-1.3 5.187-1.952 5.378-1.952.19 0 .305.096.343.287.04.192.058.555.058 1.09v7.745c3.775-3.442 7.035-5.823 9.78-7.143 2.747-1.32 5.57-1.98 8.466-1.98 3.927 0 7.055 1.34 9.38 4.017 1.22 1.454 2.232 3.424 3.033 5.91 2.82-2.87 5.28-4.992 7.38-6.37 3.62-2.37 7.32-3.556 11.095-3.556 6.14 0 10.24 2.506 12.298 7.516 1.18 2.83 1.773 7.306 1.773 13.425v23.81c0 2.715.6 4.56 1.8 5.535 1.202.976 3.366 1.617 6.493 1.922v1.492H654.05v-1.607c3.318-.306 5.5-.975 6.55-2.008 1.048-1.032 1.573-3.136 1.573-6.31v-24.728c0-3.71-.4-6.445-1.2-8.204-1.412-3.136-4.177-4.705-8.295-4.705-2.48 0-4.94.823-7.378 2.467-1.41.957-3.146 2.487-5.205 4.59v29.375c0 3.098.544 5.45 1.63 7.057 1.088 1.606 3.384 2.467 6.893 2.582v1.49h-26.254v-1.49c3.622-.46 5.93-1.34 6.92-2.64.992-1.3 1.488-4.513 1.488-9.64v-16.03c0-5.88-.382-9.925-1.144-12.14-1.258-3.747-3.928-5.622-8.008-5.622-2.326 0-4.614.64-6.864 1.922s-4.233 2.955-5.95 5.02v31.383c0 2.907.506 4.915 1.517 6.024 1.01 1.11 3.212 1.684 6.607 1.72v1.493h-26.026v-1.492zM721.087 106.348c4.04 3.73 6.063 9.017 6.063 15.864h-36.32c.38 8.854 2.38 15.304 6.005 19.35 3.622 4.044 7.912 6.067 12.87 6.067 4.003 0 7.378-1.05 10.123-3.15 2.746-2.098 5.28-5.076 7.608-8.93l2.002.686c-1.564 4.866-4.49 9.367-8.78 13.504-4.29 4.138-9.543 6.206-15.758 6.206-7.17 0-12.708-2.715-16.616-8.147-3.91-5.432-5.863-11.686-5.863-18.762 0-7.69 2.27-14.324 6.808-19.91 4.537-5.583 10.448-8.375 17.73-8.375 5.378 0 10.087 1.865 14.13 5.595zm-27.398 4.39c-1.22 2.064-2.098 4.666-2.632 7.802h24.137c-.42-3.824-1.144-6.674-2.173-8.55-1.87-3.364-4.996-5.048-9.38-5.048-4.347 0-7.665 1.932-9.953 5.795zM767.532 102.188c1.525.803 2.993 1.913 4.404 3.328V87.27c0-2.332-.257-3.938-.772-4.818-.515-.88-1.744-1.32-3.69-1.32-.457 0-.857.02-1.2.057-.343.038-1.106.114-2.288.228v-1.893l4.69-1.205c1.716-.46 3.433-.937 5.148-1.434 1.716-.497 3.222-.975 4.52-1.434.608-.19 1.62-.554 3.03-1.09l.344.115-.115 6.024c-.038 2.18-.076 4.43-.114 6.742-.04 2.315-.058 4.6-.058 6.856l-.114 46.874c0 2.486.305 4.227.915 5.22.61.996 2.23 1.493 4.862 1.493.42 0 .84-.01 1.26-.03.418-.018.837-.066 1.257-.143v1.894c-.23.077-2.994 1.033-8.294 2.87l-8.98 3.384-.4-.517v-7.057c-2.137 2.333-3.986 3.997-5.55 4.99-2.783 1.722-6.005 2.583-9.666 2.583-6.483 0-11.736-2.516-15.758-7.546-4.023-5.03-6.035-10.853-6.035-17.47 0-8.3 2.41-15.424 7.235-21.372 4.823-5.947 10.725-8.92 17.703-8.92 2.783 0 5.338.613 7.664 1.836zm1.66 44.636c1.83-1.76 2.745-3.422 2.745-4.99V117.22c0-4.972-1.325-8.48-3.975-10.528-2.65-2.046-5.233-3.07-7.75-3.07-4.805 0-8.542 2.133-11.21 6.397-2.67 4.264-4.005 9.514-4.005 15.748 0 6.16 1.42 11.646 4.262 16.466 2.84 4.82 7.082 7.23 12.726 7.23 2.972 0 5.374-.88 7.205-2.64zM792.985 152.963c4.08-.382 6.654-1.08 7.722-2.094 1.067-1.014 1.602-3.76 1.602-8.234V115.27c0-2.487-.173-4.208-.516-5.165-.572-1.568-1.773-2.352-3.603-2.352-.42 0-.83.04-1.23.115-.4.077-1.553.383-3.46.918v-1.78l2.46-.802c6.672-2.18 11.325-3.824 13.956-4.934 1.067-.46 1.753-.688 2.06-.688.075.268.113.555.113.86v41.195c0 4.36.523 7.095 1.572 8.205 1.048 1.11 3.422 1.817 7.12 2.123v1.606h-27.798v-1.607zm9.095-76.716c1.144-1.18 2.554-1.77 4.232-1.77 1.64 0 3.04.58 4.204 1.742 1.163 1.16 1.744 2.578 1.744 4.252 0 1.637-.58 3.036-1.744 4.197-1.164 1.16-2.565 1.74-4.204 1.74-1.678 0-3.088-.58-4.232-1.74-1.144-1.162-1.717-2.562-1.717-4.198 0-1.636.573-3.045 1.717-4.225zM835.827 129.268c3.508-2.295 10.505-5.412 20.992-9.352v-4.877c0-3.902-.383-6.618-1.145-8.148-1.297-2.562-3.985-3.844-8.065-3.844-1.945 0-3.795.498-5.55 1.492-1.753 1.033-2.63 2.448-2.63 4.246 0 .46.094 1.234.286 2.323.19 1.09.286 1.788.286 2.093 0 2.142-.706 3.634-2.116 4.475-.8.497-1.754.746-2.86.746-1.716 0-3.032-.564-3.947-1.693-.916-1.127-1.374-2.38-1.374-3.757 0-2.677 1.65-5.48 4.948-8.405 3.298-2.926 8.13-4.39 14.5-4.39 7.397 0 12.41 2.41 15.043 7.23 1.41 2.64 2.116 6.483 2.116 11.532v23.006c0 2.22.152 3.75.458 4.59.497 1.492 1.526 2.238 3.09 2.238.877 0 1.602-.134 2.173-.402.573-.267 1.564-.918 2.974-1.95v2.982c-1.22 1.492-2.536 2.716-3.946 3.672-2.135 1.454-4.31 2.18-6.52 2.18-2.594 0-4.47-.84-5.634-2.524-1.164-1.683-1.802-3.69-1.916-6.024-2.898 2.524-5.377 4.398-7.436 5.622-3.47 2.065-6.77 3.1-9.895 3.1-3.28 0-6.122-1.158-8.524-3.472-2.402-2.313-3.603-5.25-3.603-8.807 0-5.543 2.764-10.172 8.294-13.882zm20.992-6.483c-4.387 1.454-8.01 3.06-10.87 4.82-5.49 3.404-8.236 7.267-8.236 11.588 0 3.48 1.144 6.044 3.432 7.688 1.488 1.072 3.146 1.607 4.977 1.607 2.517 0 4.928-.708 7.236-2.123 2.306-1.414 3.46-3.213 3.46-5.393v-18.185z"/></g></svg>