<svg xmlns="http://www.w3.org/2000/svg" viewBox="0 0 130 50" enable-background="new 0 0 130 50"><g><path fill="#D41245" d="M0 0h130v50H0z"/><g fill="#fff" stroke="#fff" stroke-width=".25"><path d="M59.408 13.266l.055-6.667-3.18 6.666H55.25L52.08 6.6l.056 6.666h-1.034V5.5h1.52l3.167 6.578 3.168-6.58h1.496v7.768h-1.046zM69.353 13.266l-.946-1.914h-4.774l-.946 1.914h-1.243L65.47 5.5h1.177l3.983 7.766h-1.277zM66.03 6.61l-1.937 3.85h3.84l-1.904-3.85zM78.89 12.22c-.694.97-2.003 1.124-2.29 1.156-.175.022-.626.077-1.12.077-.222 0-1.18-.02-2.004-.23-.176-.045-.45-.11-.836-.275-.407-.176-.682-.374-.813-.473-.42-.32-.605-.605-.727-.78l1.023-.42c.055.066.1.122.165.188.165.165.527.45 1.067.67.89.364 1.947.375 2.2.375.197 0 1.364.033 2.112-.528.462-.352.527-.836.527-1.045 0-.45-.253-.78-.66-.957-.57-.253-1.914-.33-2.53-.385-1.485-.12-2.21-.198-2.783-.727-.527-.484-.55-1.034-.55-1.298 0-1.09.75-1.584 1.08-1.76.46-.253 1.308-.506 2.562-.506 1.54 0 2.464.374 3.025.737.132.087.242.164.352.263.252.21.44.484.506.56l-1.01.407c-.056-.055-.254-.253-.474-.407-.43-.297-1.166-.65-2.388-.65-.792 0-1.408.144-1.694.254-.67.253-.858.715-.858 1.045 0 .165.044.34.133.484.274.44.825.484 1.275.54.858.11 1.717.153 2.575.252 1.2.143 1.75.45 2.123.913.385.496.407.99.407 1.222 0 .66-.242 1.09-.396 1.3zM16.97 28.266v-7.768h1.12v7.768h-1.12zM27.343 28.266L21.26 21.84l.022 6.426h-1.056v-7.768h1.133l6.04 6.414-.034-6.414h1.056v7.768h-1.08zM31.687 21.456v2.486h5.6v.913h-5.6v3.41h-1.09v-7.768h6.91v.958h-5.82zM47.144 27.133c-.54.56-1.728 1.342-3.675 1.342-.2 0-.65-.01-1.19-.1-.526-.076-2.1-.362-3.002-1.814-.528-.857-.562-1.737-.562-2.09 0-.89.23-1.782.78-2.475.11-.144.254-.31.562-.562.528-.44 1.595-1.122 3.344-1.122.353 0 1.408.034 2.41.496.638.297 1.254.78 1.66 1.364.64.924.683 1.947.683 2.32 0 .453-.065 1.663-1.01 2.643zm-.386-4.104c-.836-1.795-3.047-1.783-3.487-1.772-.33.01-1.726.088-2.628.99-.154.153-.462.495-.65 1.045-.12.352-.175.76-.175 1.133 0 .286.033 1.122.56 1.838.11.143.276.34.617.583.45.318 1.21.67 2.498.67.21 0 .726 0 1.31-.153 1.088-.286 1.88-1.012 2.145-2.112.033-.153.1-.473.1-.87-.003-.66-.18-1.122-.29-1.353zM57.416 28.266l-2.63-3.113h-3.75v3.113h-1.112v-7.768h5.292c.66 0 .902.033 1.232.12 1.045.276 1.64 1.09 1.64 2.157 0 .42-.09 1.508-1.255 1.992-.198.076-.407.143-.847.21l2.87 3.288h-1.44zm-.67-6.205c-.33-.582-.848-.637-1.453-.637h-4.27v2.816h3.84c.628 0 1.365-.023 1.794-.573.11-.132.286-.396.286-.847 0-.143-.01-.44-.198-.76zM68.36 28.266l.056-6.667-3.18 6.666h-1.034L61.034 21.6l.055 6.666h-1.035v-7.768h1.52l3.167 6.58 3.17-6.58h1.495v7.768H68.36zM78.306 28.266l-.946-1.914h-4.774l-.946 1.914h-1.243l4.026-7.768H75.6l3.983 7.768h-1.277zm-3.324-6.657l-1.936 3.85h3.84l-1.904-3.85zM88.645 26.98c-1.265 1.484-3.51 1.484-3.96 1.484-1.54 0-2.442-.43-2.993-.78-.197-.133-.352-.254-.527-.408-.11-.11-.353-.352-.572-.704-.275-.418-.616-1.09-.616-2.244 0-.374.022-1.397.682-2.31.11-.166.253-.342.56-.617.276-.23.595-.45.903-.603 1-.507 2.244-.528 2.54-.528.364 0 1.806.032 2.928.714.155.1.474.31.804.65.353.373.54.714.64.89l-1.18.253c-.064-.12-.13-.23-.208-.34-.176-.243-.44-.484-.693-.64-.362-.23-1.144-.56-2.244-.56-.31 0-1.508.01-2.41.648-.088.055-.253.187-.44.396-.297.32-.715.936-.715 2.036 0 .318.033 1.2.616 1.958.694.902 1.838 1.11 2.168 1.166.374.055.77.055.892.055.352 0 1.86.012 2.783-1 .188-.2.297-.364.43-.595l1.166.242c-.26.452-.4.65-.555.837zM90.723 28.266v-7.768h1.122v7.768h-1.122zM102.01 27.133c-.54.56-1.728 1.342-3.676 1.342-.197 0-.648-.01-1.188-.1-.528-.076-2.102-.362-3.004-1.814-.527-.857-.56-1.737-.56-2.09 0-.89.23-1.782.78-2.475.11-.144.253-.31.56-.562.53-.44 1.597-1.122 3.346-1.122.352 0 1.408.034 2.41.496.637.297 1.253.78 1.66 1.364.64.924.683 1.947.683 2.32 0 .453-.065 1.663-1.01 2.643zm-.386-4.104c-.836-1.795-3.048-1.783-3.487-1.772-.33.01-1.728.088-2.63.99-.153.153-.462.495-.648 1.045-.122.352-.178.76-.178 1.133 0 .286.033 1.122.562 1.838.11.143.274.34.616.583.45.318 1.21.67 2.497.67.21 0 .727 0 1.31-.153 1.09-.286 1.88-1.012 2.145-2.112.033-.153.1-.473.1-.87-.002-.66-.178-1.122-.288-1.353zM111.91 28.266l-6.085-6.425.022 6.426h-1.057v-7.768h1.134l6.04 6.414-.033-6.414h1.057v7.768h-1.078zM56.306 43.266l-.946-1.914h-4.774l-.946 1.914h-1.243l4.026-7.768H53.6l3.983 7.768h-1.277zm-3.324-6.657l-1.936 3.85h3.84l-1.904-3.85zM67.306 43.97l-1.826-1.023c-.187.077-.374.154-.572.22-.66.21-1.42.298-2.112.298-.483 0-2.222-.033-3.51-1.1-.252-.21-.473-.463-.66-.727-.45-.66-.648-1.33-.648-2.135 0-.363.044-1.31.594-2.178.198-.31.43-.562.683-.793.604-.54 1.672-1.22 3.586-1.22.42 0 1.674.032 2.807.692.198.11.605.374 1 .803.926 1 .99 2.058.99 2.574 0 .397-.043 1.398-.736 2.322-.175.23-.34.396-.55.595l1.52.87-.564.803zm-1.77-6.854c-.794-.683-1.84-.892-2.862-.87-.318.012-1.892.056-2.827 1.057-.154.165-.418.484-.594 1.023-.154.483-.165.902-.165 1.09 0 .175 0 .472.11.868.1.396.318 1.067 1.154 1.617.474.31 1.188.64 2.476.64.33 0 1.65.02 2.618-.75.23-.186.396-.384.463-.46.24-.32.614-.925.614-1.915 0-.43-.054-1.496-.99-2.3zM77.15 41.626c-.605 1.475-2.333 1.827-3.74 1.827-.375 0-1.794.01-2.895-.76-.462-.32-.67-.66-.78-.858-.31-.57-.33-1.144-.33-1.77v-4.567h1.11v4.61c0 .088-.01.418.044.726.11.716.473.97.747 1.145.386.24 1.023.516 2.112.516.143 0 1.45 0 2.2-.55.264-.198.417-.462.462-.56.176-.364.176-.728.176-1.135V35.5h1.11v4.676c.002.517-.01.957-.22 1.452zM79.535 43.266v-7.768h1.122v7.768h-1.122zm.727-8.285h-.715l.704-1.374h1.397l-1.385 1.375z"/></g></g></svg>