<?xml version="1.0" standalone="no"?>
<!DOCTYPE svg PUBLIC "-//W3C//DTD SVG 1.1//EN" "http://www.w3.org/Graphics/SVG/1.1/DTD/svg11.dtd" >
<svg xmlns="http://www.w3.org/2000/svg" width="100%" height="100%">
<metadata>
Created by FontXChange 20110222 at Mon Feb  1 18:31:07 2021
 By Shigeru McPherson
Copyright (c) 2006 by Nate Piekos. Blambot.com. All rights reserved.
</metadata>
<defs>
<font id="EvilGeniusBB" horiz-adv-x="1000" >
  <font-face 
    font-family="EvilGeniusBB"
    font-weight="400"
    font-stretch="normal"
    units-per-em="1000"
    panose-1="2 0 5 6 0 0 0 2 0 4"
    ascent="800"
    descent="-200"
    x-height="727"
    cap-height="761"
    bbox="-35 -161 1028 937"
    underline-thickness="0"
    underline-position="0"
    unicode-range="U+0020-2122"
  />
<missing-glyph horiz-adv-x="500" 
d="M62 0v933h375v-933h-375zM125 62h250v808h-250v-808z" />
    <glyph glyph-name=".notdef" horiz-adv-x="500" 
d="M62 0v933h375v-933h-375zM125 62h250v808h-250v-808z" />
    <glyph glyph-name="NULL" horiz-adv-x="0" 
 />
    <glyph glyph-name="nonmarkingreturn" horiz-adv-x="373" 
 />
    <glyph glyph-name="space" unicode=" " horiz-adv-x="373" 
 />
    <glyph glyph-name="exclam" unicode="!" horiz-adv-x="375" 
d="M235 313q3 -76 -37 -76q-33 0 -40 46q-1 10 5 27.5t7 25.5q0 34 -8 92q-10 70 -12 92q-1 18 -12 106q-11 76 -11 117q0 40 9 62q5 13 22.5 28t30.5 15q34 0 42 -64q4 -23 4 -51q0 -32 -6 -96.5t-6 -96.5q0 -43 5 -113q6 -86 7 -114zM361 103q3 -24 -3 -49q-6 -31 -25 -36
q-62 -19 -81 -26q-38 -13 -79 -32q-5 -2 -9 -2q-16 0 -38.5 19t-25.5 35q-4 27 -4 48q0 43 16 55q33 26 116 26q16 0 48.5 3t48.5 3q29 0 36 -44z" />
    <glyph glyph-name="quotedbl" unicode="&#x22;" horiz-adv-x="504" 
d="M400 481q1 -10 1 -24q0 -98 -40 -98q-34 0 -42 51q-2 17 7 54q6 22 6 90q0 64 -4 92q-2 12 -12 54q-7 32 -7 53q0 30 9 53q13 28 36 28q22 0 30 -58q3 -16 5 -91q3 -68 11 -204zM194 482q1 -10 1 -24q0 -98 -39 -98q-35 0 -42 51q-3 17 7 54q5 22 6 90q0 64 -4 92
q-2 12 -12 54q-7 32 -7 53q0 30 9 53q13 28 35 28q23 0 31 -58q2 -16 5 -91q2 -68 10 -204z" />
    <glyph glyph-name="numbersign" unicode="#" horiz-adv-x="677" 
d="M639 312q0 -47 -30 -59q-26 -5 -54.5 -10t-28.5 -36q0 -7 1 -16q9 -62 25 -87q8 -14 9 -23q4 -31 -17 -55.5t-52 -24.5q-14 0 -32 23.5t-20 38.5q-3 18 0 53.5t0 54.5q-5 43 -38 43q-5 0 -43 -9.5t-50 -14.5q-30 -13 -27 -37q3 -15 13.5 -43.5t12.5 -43.5
q4 -25 -16.5 -45t-46.5 -20q-16 0 -33 22t-20 39q-2 13 1 40q2 26 0 40q-3 22 -27 22q-10 0 -29.5 -5t-29.5 -5q-26 0 -31 37q-3 19 -3 34q0 44 26 56q22 7 46.5 15t24.5 40q0 8 -1 18q-4 23 -13 23q-12 0 -36.5 -7.5t-38.5 -7.5q-37 0 -37 68q0 46 26 59q25 7 48.5 14.5
t18.5 41.5q-2 14 -10.5 39.5t-9.5 39.5q-4 25 10 58q16 37 38 37q53 0 56 -22q1 -10 1 -22q0 -13 -2.5 -38.5t-2.5 -37.5t2 -23q3 -25 10 -34q9 -13 33 -13q38 0 86 20q30 12 26 40q-2 9 -6.5 26.5t-5.5 26.5q-4 28 9 62q16 40 41 40q53 0 56 -21q2 -11 2 -24
q0 -12 -2 -35.5t-2 -36.5t1 -23q3 -17 8.5 -22t21.5 -5q15 0 40 6.5t39 6.5q26 0 32 -46q3 -23 -2 -48q-5 -32 -24 -37q-32 -2 -92 -15q-11 -5 -6 -37q5 -38 30 -38q14 0 42 7t43 7q40 0 40 -71zM412 395q-4 27 -26 27q-18 0 -97 -18q-52 -11 -47 -43q6 -40 31 -40
q24 0 74 12q54 15 61 28.5t4 33.5z" />
    <glyph glyph-name="dollar" unicode="$" horiz-adv-x="697" 
d="M650 430q3 -25 3 -48q0 -79 -41 -143q-14 -22 -76 -88q-39 -42 -35 -70q3 -19 26 -49.5t25 -47.5q3 -17 -12.5 -55t-29.5 -38q-18 0 -35 46q-32 85 -34 89q-23 48 -54 48q-16 0 -45.5 -7.5t-45.5 -7.5q-36 0 -43 49q-3 23 3 47q8 31 25 35q71 16 141 32q72 20 122 71
q17 17 16 26q-3 17 -44 17q-28 0 -111.5 -15.5t-166.5 -32.5q-99 -18 -170 -18q-29 0 -29 52q0 60 42 117q24 36 85 91q23 22 23 49q0 31 -26 91q-27 66 -31 95q-4 25 5 50q11 30 35 30q30 0 41 -77q5 -36 22 -82q24 -63 46 -63q19 0 103 50t104 50q19 0 24 -36q3 -21 3 -36
q0 -44 -24 -59q-68 -36 -137 -72q-107 -58 -105 -83q6 -2 16 -2q16 0 47 4q73 11 144 23q83 12 148 12q40 0 46 -44z" />
    <glyph glyph-name="percent" unicode="%" horiz-adv-x="1047" 
d="M1007 281q0 -103 -60 -189q-65 -93 -160 -93q-80 0 -136 44.5t-68 123.5q-6 46 6 96q17 74 97.5 138.5t159.5 64.5q74 0 119 -57q42 -53 42 -128zM771 750q6 -42 -16 -77q-57 -88 -154 -225q-123 -174 -158 -222q-129 -189 -182 -293q-24 0 -31 45q-1 9 -1 19
q0 55 50 132q47 74 45 93q-1 4 -5 6q-25 11 -78.5 18t-79.5 19q-57 25 -90.5 79.5t-33.5 119.5q0 115 94.5 213.5t206.5 98.5q66 0 120 -36q57 -39 73 -103q5 -22 10 -43q10 -33 19 -33q7 0 53 63q40 56 53 77q7 13 16 48q8 32 20 46q7 9 16 9q14 0 33 -19.5t20 -34.5z
M945 273v4q-4 26 -53 40q-38 12 -72 12q-58 0 -105 -29t-67 -79q-4 -12 -3 -21q3 -28 59 -51q47 -19 80 -19q56 0 106 44.5t55 98.5zM380 641q-76 0 -173 -49q-112 -57 -103 -123q6 -44 70 -74q53 -27 101 -27q71 0 138.5 59t67.5 130q0 84 -101 84z" />
    <glyph glyph-name="ampersand" unicode="&#x26;" horiz-adv-x="913" 
d="M864 492q2 -10 2 -19q0 -55 -28 -67q-14 -5 -89 -9q-63 -3 -79 -22q-7 -8 -14 -38q-4 -22 -8 -43q-29 -120 -143 -217q-119 -100 -244 -100q-156 0 -180 170q-2 17 -2 33q0 75 52 149q30 43 96 105q50 46 50 59q-6 21 -74 54q-52 27 -89 39q-17 4 -50 16q-25 13 -25 56
q0 73 34 88q49 21 226 21q62 0 155 8q61 6 70 6q36 0 36 -57q0 -41 -35 -54q-10 -4 -78 -12q-38 -4 -77 -8q-63 -5 -68 -13q6 -21 66.5 -62t65.5 -73q1 -12 1 -23q0 -48 -28 -66q-8 -5 -68 -37q-41 -22 -65 -42q-41 -37 -75 -81q-46 -63 -41 -98q4 -26 42 -40q29 -10 62 -10
q84 0 186 71q92 62 140 138q5 8 4 14q-2 12 -35.5 27.5t-36.5 44.5q-2 11 -2 23q0 52 28 68q23 13 137 30q105 15 147 15q28 0 34 -44z" />
    <glyph glyph-name="quotesingle" unicode="'" horiz-adv-x="287" 
d="M194 482q1 -10 1 -24q0 -98 -39 -98q-35 0 -42 51q-3 17 7 54q5 22 6 90q0 64 -4 92q-2 12 -12 54q-7 32 -7 53q0 30 9 53q13 28 35 28q23 0 31 -58q2 -16 5 -91q2 -68 10 -204z" />
    <glyph glyph-name="parenleft" unicode="(" horiz-adv-x="431" 
d="M442 -43q0 -68 -43 -68q-71 0 -135 42q-169 109 -205 369q-9 61 -9 128q0 120 26 227q35 142 141 212q31 21 44 21q20 0 26 -40q9 -63 -21 -89q-41 -34 -81 -69q-31 -31 -51 -96q-26 -78 -26 -163q0 -40 6 -79q17 -115 75 -206q71 -109 174 -124q56 -6 60 -8
q19 -11 19 -57z" />
    <glyph glyph-name="parenright" unicode=")" horiz-adv-x="433" 
d="M365 464q8 -57 8 -115q0 -114 -28 -227q-34 -137 -134 -208q-35 -24 -50 -24q-22 0 -27 40q-2 11 -2 23q0 44 23 65q41 34 81 68q31 31 51 96q25 77 25 163q0 183 -101 312q-68 88 -158 97q-18 0 -46 4q-22 8 -28 49v15q0 67 48 67q140 0 238 -150q79 -120 100 -275z" />
    <glyph glyph-name="asterisk" unicode="*" horiz-adv-x="624" 
d="M599 345q4 -26 -8 -49.5t-35 -23.5q-24 0 -35 26q-119 83 -135 83q-11 0 -8 -35q10 -103 10 -94q0 -60 -31 -60t-43 83q-2 13 -3.5 37t-3.5 36q-4 32 -14 32q-16 0 -69 -72q-11 -50 -22 -67q-8 -12 -50 -48q-8 -7 -15 -7q-20 0 -26 41q-1 10 -1 22q0 46 30 96
q10 17 52 73q29 35 27 51q-3 17 -63 49l-78 42q-19 14 -24 44q-3 22 3 51q7 36 25 36q5 0 77.5 -41.5t93.5 -41.5q11 0 6 32q-2 13 -7 40t-7 41q-5 30 -5 50q0 59 31 59q18 0 31.5 -16.5t16.5 -34.5q3 -24 6 -73t6.5 -72.5t8.5 -23.5q12 0 85 88.5t86 88.5q21 0 27 -47
q8 -51 -15 -80q-32 -34 -64 -69q-48 -55 -45 -73q2 -15 48 -42q66 -41 85 -56q47 -38 52 -75z" />
    <glyph glyph-name="plus" unicode="+" horiz-adv-x="557" 
d="M518 402q0 -42 -28 -56q-14 -8 -63 -14t-74 -20q-14 -7 -14 -38q0 -15 6 -54t6 -56q0 -44 -31 -44q-19 0 -33 20q-12 15 -15 37q-1 10 2 35q3 24 0 43q-3 29 -8 37q-8 13 -35 13q-5 0 -15 -2q-74 -12 -145 -12q-20 0 -26 44q-2 10 -2 20q0 62 34 68l100 4q67 9 60 52
q-1 12 -12.5 34.5t-13.5 35.5q-2 17 12 48t32 31q20 0 37 -79q18 -86 24.5 -92t24.5 -6q25 0 72.5 11.5t71.5 11.5q20 0 29 -33q4 -17 4 -39z" />
    <glyph glyph-name="comma" unicode="," horiz-adv-x="294" 
d="M218 219q3 -23 3 -47q0 -85 -35 -197q-43 -136 -68 -136q-24 0 -31 48q-4 25 23 107q30 88 30 138q0 14 -2 28.5t-12.5 30.5t-12.5 26q-4 25 10 57q16 38 38 38q21 0 39 -39q14 -28 18 -54z" />
    <glyph glyph-name="hyphen" unicode="-" horiz-adv-x="506" 
d="M479 425q2 -23 -4 -43q-8 -26 -25 -32q-34 -14 -94 -26q-83 -15 -95 -18l-131 -34q-15 -4 -29 -8q-18 -6 -31 -6q-27 0 -34 51q-4 24 1 50q6 35 24 42q33 15 92 23q91 11 97 12q48 9 96 19q54 11 96 11q31 0 37 -41z" />
    <glyph glyph-name="hyphen" unicode="&#x2010;" horiz-adv-x="506" 
d="M479 425q2 -23 -4 -43q-8 -26 -25 -32q-34 -14 -94 -26q-83 -15 -95 -18l-131 -34q-15 -4 -29 -8q-18 -6 -31 -6q-27 0 -34 51q-4 24 1 50q6 35 24 42q33 15 92 23q91 11 97 12q48 9 96 19q54 11 96 11q31 0 37 -41z" />
    <glyph glyph-name="period" unicode="." horiz-adv-x="370" 
d="M307 103q3 -24 -3 -49q-7 -31 -26 -36q-23 -7 -129 -53q-4 -2 -9 -2q-38 0 -46 57q-2 14 -2 26q0 49 33 71q28 19 89 22q16 1 27 4.5t30 3.5q29 0 36 -44z" />
    <glyph glyph-name="slash" unicode="/" horiz-adv-x="707" 
d="M626 748q6 -39 -17 -75q-53 -91 -152 -226q-131 -180 -159 -221q-133 -196 -183 -293q-22 0 -28 46q-2 9 -2 19q0 48 30 103q64 113 164 259q88 126 177 252q34 52 69 104q59 83 71 83q9 0 18.5 -19.5t11.5 -31.5z" />
    <glyph glyph-name="zero" unicode="0" horiz-adv-x="841" 
d="M801 399q4 -27 4 -54q0 -164 -134 -272q-126 -101 -300 -101q-124 0 -206 60q-89 65 -106 187q-3 20 -3 39q-4 131 52 226q46 78 157 166q156 126 256 126q15 0 26 -13.5t9 -28.5q217 -139 245 -335zM739 359q-10 73 -76 143q-41 44 -130 106q-14 10 -40 33
q-75 -17 -166 -81.5t-136 -115.5q-74 -81 -74 -159q0 -87 85 -139q71 -44 164 -44q126 0 246 66q144 78 127 191z" />
    <glyph glyph-name="one" unicode="1" horiz-adv-x="446" 
d="M422 73q5 -31 -13.5 -53.5t-50.5 -22.5q-13 0 -30.5 23.5t-19.5 39.5q-1 8 1 58t-14 154q-6 44 -19 131.5t-19.5 133t-44.5 45.5q-21 0 -80 -31t-69 -31q-20 0 -26 39q-7 51 20 72q38 29 161 105q23 14 67 14q43 0 46 -21q2 -15 -1 -42.5t-3 -60.5q0 -70 17 -185
q21 -156 55 -288q10 -26 23 -80z" />
    <glyph glyph-name="two" unicode="2" horiz-adv-x="611" 
d="M577 158q2 -13 2 -25q0 -135 -237 -135q-17 0 -51.5 1.5t-52.5 1.5q-15 0 -46.5 -2t-46.5 -2q-35 0 -35 65q0 101 93 200q85 73 169 146q88 76 81 130q-12 79 -118 79q-50 0 -107 -21q-66 -25 -84 -60q-6 -25 -12 -52q-9 -34 -30 -34t-27 44q-2 12 -2 25q0 74 44 132
q73 97 219 97q155 0 179 -169q6 -51 -7 -102q-22 -84 -59 -133q-25 -34 -81 -75q-74 -55 -106 -86q-22 -20 -19 -37q2 -19 65 -19q87 0 138 6q43 5 63 23q10 9 20 32q7 16 19 16q22 0 29 -46z" />
    <glyph glyph-name="three" unicode="3" horiz-adv-x="596" 
d="M571 317q-10 -124 -94 -218q-90 -103 -211 -103q-77 0 -132.5 45t-66.5 120q-3 24 2 48q7 33 27 33q14 0 32 -36q20 -43 55 -60.5t80 -17.5q56 0 112 29q53 28 87 71q29 38 25 64q-5 41 -83 61q-51 13 -110 13q-31 0 -74.5 -20.5t-46.5 -20.5q-25 0 -31 49q-7 48 7 70
q8 11 98 79q78 61 76 80q-3 18 -97 18q-31 0 -89 -7.5t-84 -7.5q-17 0 -19 16q-4 23 14 56t39 42q73 29 207 29q169 0 179 -67q1 -9 1 -19q0 -73 -104 -170q72 -8 125 -39q67 -38 76 -102q2 -16 0 -35z" />
    <glyph glyph-name="four" unicode="4" horiz-adv-x="615" 
d="M604 370q2 -23 -2 -48q-6 -33 -25 -37q-35 -5 -69 -9q-45 -9 -42 -35q3 -20 14 -63q14 -48 22 -62q3 -6 8 -19q4 -28 -17.5 -57.5t-49.5 -29.5q-13 0 -29 18t-18 33q-3 23 -1.5 69.5t-1.5 71t-9 31.5q-9 12 -32 12q-51 0 -150 -42t-108 -42q-17 0 -32 34q-10 27 -14 49
q-2 15 53 171q58 167 63 204q0 3 -3 30q-5 29 9 74q15 51 39 51q11 0 21 -22q8 -18 10 -31t2 -28q0 -63 -43 -195q-41 -125 -38 -145q2 -18 22 -18q14 0 66 15q47 12 68 21q42 17 42 64q0 32 -19.5 93.5t-19.5 93.5q1 16 16 47.5t26 35.5t34 4q26 0 28 -16q2 -15 0 -38
q-4 -34 -4 -38q-3 -61 10 -149q8 -66 43 -66q16 0 49.5 7t50.5 7q24 0 31 -46z" />
    <glyph glyph-name="five" unicode="5" horiz-adv-x="627" 
d="M603 348q5 -38 -4 -79q-27 -114 -104 -189q-85 -82 -198 -82q-69 0 -132 38q-70 43 -80 109q-2 20 5 57q9 44 23 44q10 0 24 -28q43 -89 153 -89q67 0 125.5 29t93.5 82q28 44 25 66q-4 28 -98 45q-69 11 -121 11q-33 0 -78 -21.5t-61 -21.5q-17 0 -30 14q-20 23 -47 128
q-23 84 -30 137q-6 39 -6 68q0 73 35 73q9 0 74 -10q101 -14 167 -14q59 0 85 14q8 27 28 27t27 -49q1 -14 1 -25q0 -61 -49 -82q-35 -15 -113 -15q-21 0 -66 5t-66 5q-26 0 -34 -5q-11 -7 -8 -30q11 -84 54 -84q8 0 26 3q72 12 124 12q88 0 155 -28q89 -38 100 -115z" />
    <glyph glyph-name="six" unicode="6" horiz-adv-x="693" 
d="M645 352q1 -15 1 -30q0 -94 -78 -178q-55 -60 -155 -113q-108 -56 -185 -56q-60 0 -96.5 37t-45.5 97q-7 49 -7 99q0 187 91 347q99 173 215 216q31 12 45 12q27 0 34 -43q1 -8 1 -16q0 -54 -28 -71q-11 -7 -68 -31q-40 -18 -65 -42q-73 -68 -117 -164q-46 -101 -46 -202
q0 -28 4 -56q7 -52 87 -52q18 0 30 38l12 54q22 92 59 153q32 51 85 97q63 57 113 57q47 0 80 -56q26 -44 34 -97zM581 325q-2 18 -15.5 33.5t-31.5 15.5q-57 0 -124 -94q-58 -82 -70 -148q60 24 143 81q104 71 98 112z" />
    <glyph glyph-name="seven" unicode="7" horiz-adv-x="570" 
d="M524 705q6 -38 -10 -74q-61 -116 -175 -354q-12 -23 -23 -46q-13 -27 -17 -48q-2 -13 1 -37q4 -30 4 -38q0 -60 -36 -89q-13 -12 -25 -12q-28 0 -36 53q-2 11 -2 24q0 72 52 197q21 52 95 202q49 102 46 122q-2 23 -27 23q-35 0 -130 -25q-65 -19 -132.5 -38t-79.5 -19
q-22 0 -27 35q-1 8 -1 17q0 47 26 62q53 31 199.5 69.5t213.5 38.5q76 0 84 -63z" />
    <glyph glyph-name="eight" unicode="8" horiz-adv-x="684" 
d="M665 218q0 -48 -18 -93q-59 -153 -301 -153q-102 0 -169 37q-83 46 -97 140q-2 18 -2 36q0 109 87 176q-45 26 -71 77q-25 49 -25 104q0 128 123 202q32 19 78 37q53 23 81 23q13 0 19 -7q88 1 147.5 -51t71.5 -139q3 -18 3 -38q0 -86 -49 -149q59 -27 90.5 -81.5
t31.5 -120.5zM525 571q-5 41 -62 72q-50 25 -95 25q-56 0 -114 -26.5t-97 -66.5q-25 -25 -24 -34t18 -26q59 -59 169 -59q32 0 61 4q48 7 94 35q56 35 50 76zM602 218q-2 19 -35 46q-63 51 -146 51q-62 0 -134.5 -27t-114.5 -66q-30 -28 -27 -47q4 -34 90 -57
q65 -16 115 -16q72 0 143 23q88 28 108 77q3 8 1 16z" />
    <glyph glyph-name="nine" unicode="9" horiz-adv-x="686" 
d="M644 355q3 -30 3 -58q0 -131 -88 -220q-92 -92 -207 -92q-52 0 -103.5 33.5t-79.5 82.5q-7 12 -9 25q-3 19 5 53q9 39 22 39q10 0 33 -27q29 -35 51 -50q37 -27 83 -27q83 0 156 60q75 63 75 145q0 11 -2 22q-11 81 -37 81q-12 0 -35 -28q-57 -67 -138 -88
q-51 -14 -102 -14q-95 0 -158 45q-68 49 -81 142q-3 14 -3 29q0 109 101 188q95 74 209 74q97 0 180 -86q4 -3 11 -13q88 -137 114 -316zM496 546q-6 40 -61 68q-48 25 -92 25q-54 0 -118.5 -27.5t-100.5 -64.5q-30 -30 -27 -52q5 -35 78 -55q54 -14 103 -14q27 0 53 4
q52 7 105 37q66 38 60 79z" />
    <glyph glyph-name="colon" unicode=":" horiz-adv-x="401" 
d="M281 383q3 -24 -3 -49q-7 -30 -24 -36q-25 -7 -129 -52q-6 -3 -10 -3q-38 0 -46 57q-2 14 -2 26q0 50 34 71q28 19 87 22q17 1 28.5 5t29.5 4q29 0 35 -45zM326 103q3 -24 -3 -49q-7 -31 -25 -36q-24 -7 -129 -53q-5 -2 -9 -2q-39 0 -47 57q-2 14 -2 26q0 49 35 71
q27 19 87 22q17 1 27.5 4.5t29.5 3.5q29 0 36 -44z" />
    <glyph glyph-name="semicolon" unicode=";" horiz-adv-x="438" 
d="M313 500q3 -23 -2 -49q-7 -30 -26 -36q-59 -14 -178 -52q-4 -3 -8 -3q-39 0 -47 57q-2 15 -2 26q0 50 34 72q27 18 88 21q14 1 53 5q33 4 52 4q30 0 36 -45zM292 219q4 -23 4 -47q0 -85 -35 -197q-43 -136 -68 -136q-24 0 -31 48q-4 25 24 107q29 88 29 138q0 14 -2 28.5
t-13 30.5t-12 26q-3 25 10 57q16 38 38 38q21 0 38 -39q15 -28 18 -54z" />
    <glyph glyph-name="less" unicode="&#x3c;" horiz-adv-x="626" 
d="M617 164q3 -20 -4 -48q-8 -33 -25 -34q-34 20 -104 55q-79 36 -262 107l-64 22q-40 13 -62 28q-28 17 -28 61q0 51 28 69q78 48 171 123q8 7 161 135q51 43 56 43q20 0 25 -35q3 -20 0 -47q-4 -33 -14 -44q-29 -37 -83 -78q-46 -36 -92 -71q-36 -27 -37 -28
q-20 -21 -17 -40q2 -17 35 -33q25 -12 140 -56q88 -33 137 -66q33 -23 39 -63z" />
    <glyph glyph-name="equal" unicode="=" horiz-adv-x="643" 
d="M518 526q3 -21 -4 -41q-8 -23 -25 -30q-35 -14 -195 -34q-152 -19 -206 -19q-25 0 -32.5 9t-11.5 33q-1 12 -1 24q0 57 32 65t155 8q79 0 190 16q54 7 62 7q30 0 36 -38zM605 316q3 -22 -3 -44q-8 -24 -25 -32q-33 -13 -205 -33q-161 -19 -218 -19q-25 0 -34 8.5
t-12 32.5q-2 11 -2 23q0 59 36 67q42 11 107 11h108q54 4 148 18q55 7 65 7q30 0 35 -39z" />
    <glyph glyph-name="greater" unicode="&#x3e;" horiz-adv-x="623" 
d="M573 476q2 -12 2 -23q0 -52 -27 -69q-87 -54 -134 -91q-66 -58 -134 -114q-112 -95 -122 -95q-19 0 -23 34q-3 20 0 47q3 32 12 44q29 36 83 79q47 34 93 69q15 11 42 36q15 17 12 33q-2 16 -35 32q-22 11 -141 56q-86 33 -136 66q-32 23 -38 63q-3 19 3 47q8 35 25 35
q5 0 14 -6q78 -53 232 -110l126 -42q82 -28 120 -52q23 -14 26 -39z" />
    <glyph glyph-name="question" unicode="?" horiz-adv-x="627" 
d="M601 715v-18q-3 -92 -52 -151q-37 -44 -123 -91q-154 -85 -162 -90q-41 -26 -41 -65q0 -8 2 -17q2 -14 3 -18v0q0 -1 2 -18q3 -21 -17 -34.5t-45 -13.5q-11 0 -19 2q-11 5 -36 80q-21 66 -24 87q1 48 28 73q10 7 123.5 50t139.5 60q82 52 82 93q0 7 -5 7q-40 0 -161 -21
q-126 -23 -186 -42q-68 -20 -83 -20q-24 0 -31 45q-1 10 -1 21q0 53 28 68q41 23 237 51q183 26 259 26q22 0 52.5 -22t29.5 -42zM392 122q4 -22 -2 -46q-7 -29 -25 -34q-30 -8 -89 -27q-26 -14 -80 -40q-4 -2 -8 -2q-18 0 -38.5 23.5t-23.5 40.5q-4 27 -4 41q0 32 15 44
q23 18 104 31q68 11 116 11q29 0 35 -42z" />
    <glyph glyph-name="at" unicode="@" horiz-adv-x="955" 
d="M915 195q5 -32 -11 -69q-42 -104 -145 -165t-225 -61q-154 0 -286 85q-147 96 -168 244q-5 38 -5 73q0 142 89 256q67 85 212 181q187 125 303 125q77 0 116 -48q31 -39 43 -121q11 -76 -3 -203q-7 -63 -8 -189q-1 -24 -2 -32q-3 -15 -13 -29q-16 -22 -55 -36
q-34 -12 -70 -12q-22 0 -69.5 9.5t-70.5 9.5q-25 0 -66.5 -19t-66.5 -19q-60 0 -94 44q-32 40 -32 100q0 103 127 212q84 73 146 73q66 0 82 -106q2 -19 2 -39q0 -62 -25 -127q47 -8 67 -8q38 0 61 23q15 14 24 104q9 78 9 150q0 28 -2 41q-7 47 -21 67q-20 25 -65 25
q-96 0 -234 -81q-324 -191 -324 -346q0 -124 142 -205q122 -70 255 -70q92 0 172 33q63 26 98 68q5 6 66 97q7 11 15 11q25 0 32 -46zM581 454q-3 17 -23 17q-43 0 -93 -37q-28 -21 -61 -54q-46 -45 -44 -61q2 -11 54 -11q24 0 58 11q48 17 56 19q18 27 34 55q22 36 19 61z
" />
    <glyph glyph-name="A" unicode="A" horiz-adv-x="676" 
d="M736 103q2 -9 2 -20q0 -66 -36 -68q-25 -2 -67 88q-48 97 -64.5 108.5t-59.5 8.5q-80 -4 -253 -52q-42 -12 -62 -21q-34 -15 -47 -39l-18 -73q-14 -54 -36 -55q-17 -1 -33 24q-10 17 -15 38q-3 16 -3 32q0 39 22 89q38 83 74 165q42 96 66 169q16 50 31 101q18 59 35 96
q10 20 30.5 38t40.5 19q13 1 28 -16q9 -10 55 -87l128 -212q65 -107 101 -169q73 -127 81 -164zM470 384q-2 10 -48 85q-42 71 -56 90q-9 12 -12 11q-7 0 -55.5 -115.5t-46.5 -136.5l4 -2q87 5 196 46q21 8 18 22z" />
    <glyph glyph-name="B" unicode="B" horiz-adv-x="758" 
d="M702 241q-13 -132 -145 -207q-113 -64 -255 -64q-51 0 -99 20q-59 26 -66 71q-7 46 14 84q-21 70 -36 169l-22 172q-6 41 -26 56q-4 2 -36 12q-19 6 -22 27q-2 14 -2 26q0 60 34 78q46 22 269 50q204 26 288 26q22 0 50 -20.5t31 -41.5q7 -54 -58 -153q-51 -78 -105 -129
q169 -7 186 -128q3 -21 0 -48zM548 611q-1 11 -25 11q-71 0 -185 -15q-142 -17 -164 -41q-15 -16 -15 -60q0 -26 6 -69q5 -35 8 -43q10 -28 30 -28q48 0 199.5 103t145.5 142zM636 249q-5 34 -130 34q-148 0 -244 -38q-43 -16 -38 -53q2 -12 8 -31q15 -38 31 -49.5t55 -11.5
q74 0 179 42q119 46 138 100q1 4 1 7z" />
    <glyph glyph-name="C" unicode="C" horiz-adv-x="748" 
d="M724 219q6 -51 -12 -80q-40 -63 -209 -118q-151 -51 -251 -51q-168 0 -191 168q-3 22 -3 46q0 105 58 224q52 104 129 184q59 59 128 107q93 63 152 63q49 0 80 -47q25 -38 33 -91q1 -10 1 -23q0 -79 -33 -79q-17 0 -30 49.5t-39 49.5q-31 0 -97 -34q-110 -59 -198 -161
q-97 -114 -114 -227q-2 -11 -1 -21q10 -69 130 -69q67 0 160 20q87 18 153 45q43 16 112 70q9 8 16 8q21 0 26 -33z" />
    <glyph glyph-name="D" unicode="D" horiz-adv-x="732" 
d="M655 723q3 -18 0 -42q-44 -432 -413 -704q-54 -40 -61 -40q-14 0 -36 48q-21 44 -24 62q-2 12 4 65q6 58 -6 146q-6 36 -16.5 108.5t-16.5 110.5q-14 96 -55 96q-7 0 -18.5 -4.5t-18.5 -4.5q-21 0 -27 46q-2 11 -2 24q0 57 26 73q71 41 242 62q55 6 263 21q66 5 76 5
q21 0 50.5 -26t32.5 -46zM568 583q1 8 0 20q-6 50 -39 50q-12 0 -153 -13q-52 -4 -152 -19q-37 -8 -52.5 -26t-15.5 -67q0 -32 8 -87q13 -91 20 -128q12 -73 31 -127q14 -45 39 -45q8 0 20 8q95 71 182 194q95 133 112 240z" />
    <glyph glyph-name="E" unicode="E" horiz-adv-x="630" 
d="M567 536q5 -37 -35 -54.5t-180 -67.5q-114 -39 -176 -75q-40 -25 -40 -70q0 -15 3 -39q13 -91 54 -91q48 0 174 80.5t148 80.5q17 0 21 -27q3 -19 -3 -43t-17 -36q-20 -19 -57 -45q-56 -37 -61 -41q-30 -22 -91 -75t-95 -77q-12 -9 -22 -9q-45 0 -86 126q-26 83 -38 166
q-21 156 -10 387q-4 7 -5 17q-6 42 9 94q7 25 166 38q114 11 200 11q36 0 40 -31q7 -44 -32 -60q-29 -10 -126 -25q-91 -14 -130 -34q-60 -31 -60 -94q0 -11 2 -22q3 -28 26 -28q12 0 37 6q105 23 247 53q94 19 115 19q17 0 22 -34z" />
    <glyph glyph-name="F" unicode="F" horiz-adv-x="639" 
d="M581 434q6 -39 -33 -57q-5 -2 -120 -35q-65 -19 -132 -50q-92 -43 -107 -75q-6 -16 -1 -56q8 -54 24 -85q5 -11 6 -16q4 -31 -14.5 -62t-48.5 -31q-14 0 -30.5 18.5t-18.5 33.5q-1 8 1 57t-11 142l-2 13q-8 12 -10 25q-1 12 2 24q-17 107 -28 195q-3 18 -14.5 54
t-14.5 55q-4 27 8 68q10 38 25 61q18 28 207 42q128 10 247 10q35 0 37 -15q2 -19 2 -28q0 -34 -39 -45q-106 -19 -212 -37q-158 -33 -170 -78q-9 -34 0 -95q11 -75 47 -75q7 0 24 4q104 27 220 51q98 21 130 21q21 0 26 -34z" />
    <glyph glyph-name="G" unicode="G" horiz-adv-x="827" 
d="M772 455q1 -7 0 -13q-12 -77 -8 -120q0 -5 8 -72q7 -53 7 -85q0 -52 -16 -73q-49 -60 -207 -104q-139 -39 -244 -39q-216 0 -240 163q-3 26 -3 52q0 133 84 287q73 133 175 231q29 28 75 59q59 40 83 40q25 0 35 -72q2 -20 2 -45q0 -79 -29 -79q-11 0 -22 17.5t-17 17.5
t-25 -13q-189 -126 -274 -364q-23 -65 -19 -95q8 -55 194 -55q138 0 324 76q35 14 43 38q13 35 2 110q-9 62 -38 62t-175 -75t-147 -75q-22 0 -27 39q-1 9 -1 18q0 38 25 63q61 60 168 121.5t194 87.5q5 1 9 1q23 0 44 -42q17 -34 20 -62z" />
    <glyph glyph-name="H" unicode="H" horiz-adv-x="615" 
d="M585 62q0 -15 -14.5 -48.5t-27.5 -33.5q-60 0 -63 22q-1 17 0 42q4 37 4 41q2 52 -7 122q-5 35 -11 46q-12 20 -41 20t-96.5 -16t-96.5 -28q-34 -14 -34 -48q0 -54 25 -101q3 -7 7 -20q5 -32 -15.5 -56t-50.5 -24q-16 0 -32 27q-15 23 -17 40q-1 7 1 45q2 51 -5 102
q-2 10 -6 29.5t-5.5 30t-2.5 31.5t-3 31q-4 33 -15 96.5t-15 95.5q-2 18 -13.5 55.5t-14.5 55.5q-3 25 10 61q14 40 35 40q56 0 59 -23q2 -15 0 -39q-4 -35 -4 -39q-3 -74 7 -147q14 -104 52 -104q32 0 127 29q102 31 109 47q6 16 0 55q-5 37 -20 91q-10 28 -24 84
q-4 31 14.5 54t49.5 23q16 0 33 -29q15 -25 18 -43q1 -10 0 -28q-5 -93 16 -225q18 -113 37 -225q2 -17 17 -69q13 -42 13 -70z" />
    <glyph glyph-name="I" unicode="I" horiz-adv-x="568" 
d="M572 143q6 -39 -32 -48q-13 -11 -56 -19q-77 -13 -229 -44q-10 -3 -72 -25q-55 -21 -65 -21q-22 0 -40 32q-13 24 -16 49q-2 11 -2 21q0 45 40 54q10 3 87 3q52 0 72 16.5t20 56.5q0 19 -5 54q-6 47 -21 140.5t-22 140.5q-4 39 -17 39q-29 0 -85.5 -21.5t-61.5 -21.5
q-16 0 -33 46q-13 34 -16 58q-5 33 3 44q11 18 106 29q62 4 124 10q20 2 75 14q47 11 76 11q20 0 39 -26q18 -21 21 -43q2 -9 -2 -17t-66 -25q-68 -16 -77 -23.5t-9 -39.5q0 -37 10 -112q23 -163 49 -261q11 -41 38 -41q24 0 69.5 4.5t67.5 4.5q25 0 30 -39z" />
    <glyph glyph-name="J" unicode="J" horiz-adv-x="714" 
d="M654 713q5 -31 -38 -40.5t-84 -17.5q-44 -14 -38 -55q1 -7 5 -19q78 -283 99 -431q3 -16 3 -30q0 -60 -46 -92q-38 -26 -110 -42q-63 -13 -122 -13q-35 0 -57 4q-79 14 -139 97q-53 73 -65 158q-1 12 -1 30q0 92 38 92q12 0 24 -27q9 -20 11 -37q1 -7 0 -20.5t0 -20.5
q3 -20 31 -57q39 -51 82 -67q32 -13 101 -13q166 0 166 93q0 9 -1 20q-12 81 -83 334q-15 53 -34 53q-33 0 -105.5 -26t-93.5 -26q-15 0 -29 11.5t-16 24.5t0 39.5t0 40.5q-3 19 67 34q62 14 208 33q134 19 184 19q26 0 35 -13q5 -9 8 -36z" />
    <glyph glyph-name="K" unicode="K" horiz-adv-x="739" 
d="M728 99q2 -24 -22 -24q-29 0 -131 18q-211 38 -306 38q-74 0 -39 1q-26 -1 -31 -12t-5 -27q0 -10 2.5 -28.5t2.5 -26.5q0 -39 -51 -39q-13 0 -31 24q-16 22 -18 37q-1 8 1 56q2 54 -9 133q-6 45 -20.5 135t-21.5 135q-2 16 -18 65q-12 40 -11 65q1 16 15 45q16 34 28 34
q59 0 62 -22q2 -16 0 -39q-4 -33 -4 -39q-2 -77 15 -199q8 -55 35 -55q13 0 28 18q78 92 155 186q128 153 148 153q11 0 30 -21.5t20 -31.5q2 -16 -15 -40q-33 -49 -72 -109q-45 -61 -130 -189q-12 -20 -9 -36q4 -30 43 -40q73 -18 148 -35q83 -21 144 -54q20 -9 48 -26
q13 -13 19 -50z" />
    <glyph glyph-name="L" unicode="L" horiz-adv-x="549" 
d="M536 285q5 -35 -21 -59q-20 -19 -99 -78q-62 -45 -182 -139q-45 -37 -57 -37q-17 0 -32 36q-9 25 -19 52q-10 17 -26 55q-19 52 -31 131q-7 51 -12 144q-1 19 -10 117q-7 72 -7 117q0 42 5 76q8 60 40 60q19 0 37 -26q15 -22 18 -44q3 -19 -8 -50q-12 -39 -14 -50
q-4 -30 -4 -75q0 -105 16 -209q18 -134 59 -134q51 0 176 80t149 80q6 0 14 -20q6 -18 8 -27z" />
    <glyph glyph-name="M" unicode="M" horiz-adv-x="792" 
d="M800 80q2 -13 2 -24q0 -63 -46 -63q-20 0 -33 24q-20 35 -37 95q-25 84 -30 99q-87 231 -119 234q-29 -12 -68 -187q-40 -183 -50 -194q-14 -14 -32 -14q-28 0 -43 23q-6 10 -28 77q-30 101 -47 152q-40 120 -55 134q-12 -19 -36 -148.5t-20 -154.5q1 -8 5 -22.5t5 -22.5
q4 -26 -4 -59q-10 -40 -30 -40q-41 0 -50 68q-7 44 3 102q13 81 26 161q14 92 17 162q2 49 4 97q2 58 12 95q3 19 20 42q20 26 36 26q12 0 24 -21q18 -37 37 -96q15 -49 31 -97l68 -191q14 -39 25 -39q25 0 54 174l36 216q5 20 20 38t33 18q15 0 29 -23q31 -58 64 -152
q54 -149 57 -155q34 -84 69 -168q43 -110 51 -166z" />
    <glyph glyph-name="N" unicode="N" horiz-adv-x="632" 
d="M591 52q5 -71 -26 -85q-22 1 -32.5 6t-25.5 23q-39 49 -113 164q-34 53 -127 167q-111 135 -134 135q-6 0 -2 -26q1 -12 6 -33q11 -80 45 -241q3 -13 17 -41.5t16 -45.5q4 -25 -3 -57q-9 -40 -28 -40q-34 0 -48 45q-3 10 -24 125q-29 158 -50 265q-8 48 -18 97
q-11 55 -25 95q-4 9 -8 27q-4 24 13 60t38 36q13 0 30 -18q51 -51 118 -144q48 -64 116 -144q38 -47 118 -138q27 -25 39 -25q17 0 17 65q0 67 -19 202q-2 22 -21 79q-16 47 -16 85q0 78 42 78q46 0 59 -89q8 -56 11 -149q4 -112 7 -148q10 -111 28 -330z" />
    <glyph glyph-name="O" unicode="O" horiz-adv-x="826" 
d="M780 449q5 -32 5 -64q0 -120 -62.5 -219t-175.5 -152q-98 -47 -202 -47q-117 0 -195.5 64t-95.5 182q-9 61 -9 113q0 204 143 321q49 41 152 78q97 34 169 39q12 1 48 -10q95 -26 158 -126q52 -80 65 -179zM713 415q-7 47 -44 103.5t-80 85.5q-19 10 -79 17
q-69 -9 -146 -32q-91 -27 -133 -60q-53 -40 -85 -103t-32 -134q0 -22 3 -43q11 -73 98 -111q72 -32 152 -26q145 11 238 71q111 71 111 192q0 20 -3 40z" />
    <glyph glyph-name="P" unicode="P" horiz-adv-x="657" 
d="M601 706v-19q-5 -162 -103 -272q-56 -63 -226 -177q-41 -27 -41 -70q0 -26 15 -69q17 -51 20 -70q4 -30 -16 -51t-50 -21q-13 0 -30 22.5t-19 37.5q-10 76 -24.5 228.5t-25 231t-51.5 78.5q-4 0 -11.5 -2t-11.5 -2q-24 0 -31 48q-1 10 -1 21q0 57 28 73q41 24 237 53
q183 28 259 28q22 0 52.5 -23t29.5 -45zM479 578q-2 14 -14 38.5t-20 24.5q-43 0 -132 -16q-95 -17 -118 -32q-18 -14 -18 -77q0 -38 6 -79q9 -71 39 -71q45 0 153.5 86t103.5 126z" />
    <glyph glyph-name="Q" unicode="Q" horiz-adv-x="805" 
d="M799 13q2 -12 -13 -26.5t-26 -14.5q-17 0 -53.5 31t-49.5 31q-16 0 -51 -17q-100 -53 -209 -53q-127 0 -214 67q-93 72 -111 197q-5 30 -5 60q0 114 60 217q54 94 147 166q128 97 253 97q21 0 29 -10q90 -22 148 -139q42 -86 58 -199q7 -44 7 -85q0 -86 -27 -162
q-15 -46 -13 -61q1 -10 34.5 -46.5t35.5 -52.5zM698 395q-14 109 -71 171q-20 22 -47 35q-45 20 -51 24q-109 -6 -212 -76q-68 -47 -118 -111q-63 -80 -63 -149q0 -53 38 -97q73 -84 229 -84q118 0 114 30q-3 24 -78 72q-94 60 -99 63q-16 15 -18 32q-5 34 15 63t54 29
q40 0 99 -49q27 -22 97 -92q49 -50 62 -50q19 0 38 50q23 57 11 139z" />
    <glyph glyph-name="R" unicode="R" horiz-adv-x="759" 
d="M759 107q4 -26 -29 -26q-38 0 -146 17q-131 20 -216 20q-7 0 -24 1.5t-27 1.5q-61 0 -61 -45q0 -25 13 -56q-2 -27 -25.5 -42.5t-52.5 -15.5q-14 0 -33 22.5t-22 36.5q-1 8 3 56q3 47 -8 127q-7 45 -20.5 135t-20 135.5t-24.5 59.5q-2 2 -30 13q-15 7 -19 32q-2 18 -2 34
q0 58 29 72q59 26 265 56q193 29 281 29q22 0 56 -27t34 -50q-2 -171 -252 -382q-35 -30 -33 -40q1 -9 40 -17l29 -6q199 -41 267 -86q22 -15 28 -55zM557 603q-2 15 -37 15q-44 0 -171 -17q-137 -20 -154 -33t-17 -71q0 -41 10 -116q5 -40 22 -40q45 0 198.5 112.5
t148.5 149.5z" />
    <glyph glyph-name="S" unicode="S" horiz-adv-x="725" 
d="M698 368q-3 -55 -14 -65q-17 -16 -36 -44q-15 -25 -31 -49q-8 -10 -77 -89q-75 -85 -228 -163q-10 -5 -19 -5q-31 0 -31 45q0 34 14 45q53 34 106 67q86 57 100 77q50 67 50 82q0 7 -13 4q-63 -8 -207 -30q-127 -22 -266 -20q-31 0 -32 47q-1 42 3 53q87 237 397 469
q10 8 23 -2q9 -9 14 -20q5 -15 5 -36q0 -65 -52 -92q-199 -158 -277 -288q102 5 269 33q201 32 269 39q19 2 26.5 -14t6.5 -44z" />
    <glyph glyph-name="T" unicode="T" horiz-adv-x="561" 
d="M499 710q4 -52 -24 -66q-14 -7 -69 -11q-48 -4 -70 -24q-18 -14 -18 -97q0 -50 7 -123q24 -251 53 -320q5 -10 5 -16q3 -32 -15.5 -56t-50.5 -24q-15 0 -31 21.5t-18 37.5q0 8 3 56q3 23 3 51q0 30 -15 197q-19 198 -40 227q-12 17 -29 17q-22 0 -67.5 -12.5t-60.5 -12.5
q-45 0 -54 96q-2 20 -2 27q0 37 31 37q13 0 38.5 -2t37.5 -2q97 0 300 41q33 7 49 7q32 0 37 -49z" />
    <glyph glyph-name="U" unicode="U" horiz-adv-x="619" 
d="M587 185q3 -21 3 -39q0 -68 -52 -98.5t-165 -57.5q-108 -25 -177 -25q-43 0 -63 28q-14 21 -21.5 70t-26.5 269q-3 25 -21 163q-11 100 -13 162q0 25 10 53q12 36 32 36q12 0 28 -27q13 -24 15 -38.5t2 -30.5q0 -15 -3 -50t-2 -53q7 -163 38 -382q7 -52 48 -52
q38 0 183 30q60 11 81 29.5t21 57.5q0 21 -8 76q-5 35 -16 104t-16 104q-6 47 -12 70q-4 13 -18 44q-13 28 -16 45q-3 23 17 58.5t43 35.5q29 0 43 -103z" />
    <glyph glyph-name="V" unicode="V" horiz-adv-x="570" 
d="M510 665q2 -13 2 -25q0 -38 -17 -87q-27 -79 -55 -158q-30 -92 -44 -163q-9 -48 -17 -98q-12 -61 -27 -92q-7 -13 -23.5 -26t-29.5 -13q-16 0 -39 48l-28 62q-63 135 -128 271q-91 198 -100 258q-1 7 -1 16q0 69 37 69q29 0 46 -39l20 -62q25 -70 90 -207
q79 -168 103 -168q8 0 17 21q16 34 32 87q12 44 27.5 90t45.5 142q-3 19 -3 34q0 50 29 73q20 15 34 15q22 0 29 -48z" />
    <glyph glyph-name="W" unicode="W" horiz-adv-x="807" 
d="M731 679q6 -45 -4 -107q-19 -109 -27 -164q-13 -93 -15 -168q-1 -51 -1 -101q-2 -61 -13 -100q-5 -18 -21 -35t-34 -17q-15 0 -28 27q-18 36 -36 92q-16 47 -31 95q-23 63 -67 188q-16 45 -29 45q-12 0 -18 -28q-15 -56 -41 -171q-7 -60 -29 -177q-6 -21 -24 -41
q-19 -25 -39 -25q-14 0 -26 21q-27 48 -127 321.5t-106 320.5q-2 12 -2 23q0 62 43 62q27 0 43 -25q9 -16 44 -118q21 -66 43 -131q68 -195 94 -195q6 0 14 19q11 39 33 116q15 48 28 96q14 53 15 101q1 24 13 49q14 32 35 32q33 0 48 -14q35 -111 112 -332q14 -35 23 -35
q10 0 16 30q3 21 5 41q9 58 17 115q9 68 9 115q0 29 -2.5 55t-2.5 35q0 47 37 47q43 0 51 -62z" />
    <glyph glyph-name="X" unicode="X" horiz-adv-x="610" 
d="M615 131q4 -27 -7 -56q-12 -34 -37 -34q-9 0 -17 7q-20 16 -34 55t-51 82q-135 158 -160 158q-22 0 -71 -88q-32 -58 -56 -113q-6 -15 -17 -68q-10 -46 -20 -61q-15 -21 -39 -21q-30 0 -37 44q-6 47 36 136q4 9 81 149q43 80 40 107q-3 21 -84.5 93.5t-87.5 114.5
q-4 24 1 52q6 39 25 39q9 0 96.5 -91t111.5 -91t73.5 96.5t66.5 96.5q23 0 30 -47q6 -44 -44 -124t-46 -111q3 -20 27 -45q19 -17 39 -36q170 -173 181 -244z" />
    <glyph glyph-name="Y" unicode="Y" horiz-adv-x="541" 
d="M555 684q5 -38 -6 -68q-10 -24 -70 -131q-101 -180 -155 -334q-5 -15 -7.5 -62.5t-10.5 -67.5q-14 -30 -48 -30q-29 0 -35 47q-1 9 -1 17q0 30 21 88q20 52 16 78q-4 25 -31 61q-103 134 -135 179q-94 133 -101 184q-4 24 3 54q9 37 29 37q10 0 24 -16q61 -102 124 -203
q98 -157 142 -157q16 0 31 31l58 118q34 70 53 122q6 33 12 65q9 44 36 44q42 0 51 -56z" />
    <glyph glyph-name="Z" unicode="Z" horiz-adv-x="691" 
d="M667 130q12 -79 -161 -104q-74 -10 -235 -10q-49 0 -74 -4q-46 -7 -42 -7q-17 0 -33 39q-12 29 -15 54q-1 6 -1 14q0 68 78 175q33 47 142 173q75 87 73 106q-3 27 -68 27q-52 0 -166 -21q-59 -10 -67 -10q-26 0 -32 38q-1 7 -1 15q0 51 31 63q55 21 191 36
q115 13 202 13q85 0 92 -50q8 -55 -19 -92l-186 -212q-147 -168 -141 -209q5 -32 74 -32h64q130 0 210 20q39 10 56 10q24 0 28 -32z" />
    <glyph glyph-name="bracketleft" unicode="[" horiz-adv-x="357" 
d="M396 -59q1 -7 1 -18q0 -70 -35 -70q-15 0 -47 -1t-47 -1q-73 0 -89.5 8t-22.5 39q-21 75 -53 225q-13 88 -34.5 262.5t-34.5 260.5q-5 35 -17 103t-17 103q-2 11 -2 23q0 62 35 62t104 -3t104 -3q20 0 27 -43q1 -9 1 -20q0 -69 -35 -69q-11 0 -34.5 1t-35.5 1
q-55 0 -67 -12q-16 -13 -11 -50l46 -327q5 -34 11.5 -103.5t11.5 -104.5q25 -174 60 -205q18 -17 75 -18q-100 2 80 2q21 0 26 -42z" />
    <glyph glyph-name="backslash" unicode="\" horiz-adv-x="616" 
d="M654 21q3 -22 -4 -51q-7 -36 -25 -36q-25 0 -93 76q-154 174 -413 493q-35 41 -71 82q-42 51 -64 88q-7 14 -10 36q-4 24 1 52q5 38 24 38q11 0 53 -54q26 -33 52 -67q174 -224 396 -478q28 -34 90 -99q16 -14 47 -42q13 -15 17 -38z" />
    <glyph glyph-name="bracketright" unicode="]" horiz-adv-x="398" 
d="M408 -59q2 -12 2 -26q0 -63 -34 -63t-103 2t-104 2q-22 0 -27 43q-1 8 -1 19q0 70 35 70q11 0 34 -1t35 -1q57 0 70 12t9 49q-15 109 -46 327q-5 34 -12 103t-12 103q-25 175 -61 208q-17 17 -74 18q95 -2 -79 -2q-21 0 -27 41q-2 11 -2 22q0 62 35 69q8 1 45 1
q126 0 139 -8q11 -6 16 -19q12 -25 21 -68q11 -57 15 -71q30 -103 49 -265q15 -136 30 -271q7 -48 23.5 -146.5t23.5 -147.5z" />
    <glyph glyph-name="asciicircum" unicode="^" horiz-adv-x="432" 
d="M411 662q0 -12 -20 -15q-38 -5 -55 8q-21 18 -89 105q-26 35 -41 33q-10 -2 -19 -22q-7 -15 -34 -84q-19 -52 -40 -82q-13 -19 -37 -22q-13 -2 -28 2q-21 5 -21 15q12 20 33 62q21 47 64 156q8 27 29 76q9 13 28 16q37 5 50 -15q35 -57 155 -200q25 -30 25 -33z" />
    <glyph glyph-name="underscore" unicode="_" horiz-adv-x="673" 
d="M626 103q4 -23 -2 -47q-6 -33 -24 -37q-15 -4 -38 -5q-39 -2 -40 -2q-153 -16 -343 -70q-21 -6 -41 -12q-27 -9 -40 -9q-30 0 -36 53q-4 27 0 54q4 36 23 45q12 5 247.5 40t259.5 35q28 0 34 -45z" />
    <glyph glyph-name="grave" unicode="`" horiz-adv-x="392" 
d="M343 553q-22 0 -43 15q-13 10 -32 42q-12 20 -60 69q-45 45 -68 62q-13 10 -39 25.5t-39 25.5q-46 35 -46 76q0 28 22 28q18 0 50 -24q13 -10 67 -60q50 -47 153 -137q65 -55 65 -95q0 -27 -30 -27z" />
    <glyph glyph-name="a" unicode="a" horiz-adv-x="676" 
d="M736 103q2 -9 2 -20q0 -66 -36 -68q-25 -2 -67 88q-48 97 -64.5 108.5t-59.5 8.5q-80 -4 -253 -52q-42 -12 -62 -21q-34 -15 -47 -39l-18 -73q-14 -54 -36 -55q-17 -1 -33 24q-10 17 -15 38q-3 16 -3 32q0 39 22 89q38 83 74 165q43 96 66 169q16 50 31 101q18 59 35 96
q10 20 30.5 38t40.5 19q13 1 28 -16q9 -10 55 -87l128 -212q65 -107 101 -169q73 -127 81 -164zM470 384q-2 10 -48 85q-42 71 -56 90q-9 12 -12 11q-7 0 -55.5 -115.5t-46.5 -136.5l4 -2q87 5 196 46q21 8 18 22z" />
    <glyph glyph-name="b" unicode="b" horiz-adv-x="758" 
d="M702 241q-13 -132 -145 -207q-113 -64 -255 -64q-51 0 -99 20q-59 26 -66 71q-7 46 14 84q-21 70 -36 169l-22 172q-6 41 -26 56q-4 2 -36 12q-19 6 -22 27q-2 14 -2 26q0 60 34 78q46 22 269 50q204 26 288 26q22 0 50 -20.5t31 -41.5q7 -54 -58 -153q-51 -78 -105 -129
q169 -7 186 -128q3 -21 0 -48zM548 611q-1 11 -25 11q-71 0 -185 -15q-142 -17 -164 -41q-15 -16 -15 -60q0 -26 6 -69q5 -35 8 -43q10 -28 30 -28q48 0 199.5 103t145.5 142zM636 249q-5 34 -130 34q-148 0 -244 -38q-43 -16 -38 -53q2 -12 8 -31q15 -38 31 -49.5t55 -11.5
q74 0 179 42q119 46 138 100q1 4 1 7z" />
    <glyph glyph-name="c" unicode="c" horiz-adv-x="748" 
d="M724 219q6 -51 -12 -80q-40 -63 -209 -118q-151 -51 -251 -51q-168 0 -191 168q-3 22 -3 46q0 105 58 224q52 104 129 184q59 59 128 107q93 63 152 63q49 0 80 -47q25 -38 33 -91q1 -10 1 -23q0 -79 -33 -79q-17 0 -30 49.5t-39 49.5q-31 0 -97 -34q-110 -59 -198 -161
q-97 -114 -114 -227q-2 -11 -1 -21q10 -69 130 -69q67 0 160 20q87 18 153 45q43 16 112 70q9 8 16 8q21 0 26 -33z" />
    <glyph glyph-name="d" unicode="d" horiz-adv-x="732" 
d="M655 723q3 -18 0 -42q-44 -432 -413 -704q-54 -40 -61 -40q-14 0 -36 48q-21 44 -24 62q-2 12 4 65q6 58 -6 146q-6 36 -16.5 108.5t-16.5 110.5q-14 96 -55 96q-7 0 -18.5 -4.5t-18.5 -4.5q-21 0 -27 46q-2 11 -2 24q0 57 26 73q71 41 242 62q55 6 263 21q66 5 76 5
q21 0 50.5 -26t32.5 -46zM568 583q1 8 0 20q-6 50 -39 50q-12 0 -153 -13q-52 -4 -152 -19q-37 -8 -52.5 -26t-15.5 -67q0 -32 8 -87q13 -91 20 -128q12 -73 31 -127q14 -45 39 -45q8 0 20 8q95 71 182 194q95 133 112 240z" />
    <glyph glyph-name="e" unicode="e" horiz-adv-x="630" 
d="M567 536q5 -37 -35 -54.5t-180 -67.5q-114 -39 -176 -75q-40 -25 -40 -70q0 -15 3 -39q13 -91 54 -91q48 0 174 80.5t148 80.5q17 0 21 -27q3 -19 -3 -43t-17 -36q-20 -19 -57 -45q-56 -37 -61 -41q-30 -22 -91 -75t-95 -77q-12 -9 -22 -9q-45 0 -86 126q-26 83 -38 166
q-21 156 -10 387q-4 7 -5 17q-6 42 9 94q7 25 166 38q114 11 200 11q36 0 40 -31q7 -44 -32 -60q-29 -10 -126 -25q-91 -14 -130 -34q-60 -31 -60 -94q0 -11 2 -22q3 -28 26 -28q12 0 37 6q105 23 247 53q94 19 115 19q17 0 22 -34z" />
    <glyph glyph-name="f" unicode="f" horiz-adv-x="639" 
d="M581 434q6 -39 -33 -57q-5 -2 -120 -35q-65 -19 -132 -50q-92 -43 -107 -75q-6 -16 -1 -56q8 -54 24 -85q5 -11 6 -16q4 -31 -14.5 -62t-48.5 -31q-14 0 -30.5 18.5t-18.5 33.5q-1 8 1 57t-11 142l-2 13q-8 12 -10 25q-1 12 2 24q-17 107 -28 195q-3 18 -14.5 54
t-14.5 55q-4 27 8 68q10 38 25 61q18 28 207 42q128 10 247 10q35 0 37 -15q2 -19 2 -28q0 -34 -39 -45q-106 -19 -212 -37q-158 -33 -170 -78q-9 -34 0 -95q11 -75 47 -75q7 0 24 4q104 27 220 51q98 21 130 21q21 0 26 -34z" />
    <glyph glyph-name="g" unicode="g" horiz-adv-x="827" 
d="M772 455q1 -7 0 -13q-12 -77 -8 -120q0 -5 8 -72q7 -53 7 -85q0 -52 -16 -73q-49 -60 -207 -104q-139 -39 -244 -39q-216 0 -240 163q-3 26 -3 52q0 133 84 287q73 133 175 231q29 28 75 59q59 40 83 40q25 0 35 -72q2 -20 2 -45q0 -79 -29 -79q-11 0 -22 17.5t-17 17.5
t-25 -13q-189 -126 -274 -364q-23 -65 -19 -95q8 -55 194 -55q138 0 324 76q35 14 43 38q13 35 2 110q-9 62 -38 62t-175 -75t-147 -75q-22 0 -27 39q-1 9 -1 18q0 38 25 63q61 60 168 121.5t194 87.5q5 1 9 1q23 0 44 -42q17 -34 20 -62z" />
    <glyph glyph-name="h" unicode="h" horiz-adv-x="615" 
d="M585 62q0 -15 -14.5 -48.5t-27.5 -33.5q-60 0 -63 22q-1 17 0 42q4 37 4 41q2 52 -7 122q-5 35 -11 46q-12 20 -41 20t-96.5 -16t-96.5 -28q-34 -14 -34 -48q0 -54 25 -101q3 -7 7 -20q5 -32 -15.5 -56t-50.5 -24q-16 0 -32 27q-15 23 -17 40q-1 7 1 45q2 51 -5 102
q-2 10 -6 29.5t-5.5 30t-2.5 31.5t-3 31q-4 33 -15 96.5t-15 95.5q-2 18 -13.5 55.5t-14.5 55.5q-3 25 10 61q14 40 35 40q56 0 59 -23q2 -15 0 -39q-4 -35 -4 -39q-3 -74 7 -147q14 -104 52 -104q32 0 127 29q102 31 109 47q6 16 0 55q-5 37 -20 91q-10 28 -24 84
q-4 31 14.5 54t49.5 23q16 0 33 -29q15 -25 18 -43q1 -10 0 -28q-5 -93 16 -225q18 -113 37 -225q2 -17 17 -69q13 -42 13 -70z" />
    <glyph glyph-name="i" unicode="i" horiz-adv-x="265" 
d="M237 66q4 -32 -14 -54.5t-50 -22.5q-14 0 -31 23.5t-19 38.5q-1 8 1 58q2 46 -10 123q-7 49 -21.5 147.5t-21.5 146.5q-3 20 -14.5 57.5t-14.5 57.5q-4 27 11 62q15 39 40 39q51 0 53 -22q2 -15 -0.5 -42.5t-2.5 -59.5q0 -70 17 -191q23 -158 54 -281q10 -26 23 -80z" />
    <glyph glyph-name="j" unicode="j" horiz-adv-x="714" 
d="M654 713q5 -31 -38 -40.5t-84 -17.5q-44 -14 -38 -55q1 -7 5 -19q78 -283 99 -431q3 -16 3 -30q0 -60 -46 -92q-38 -26 -110 -42q-63 -13 -122 -13q-35 0 -57 4q-79 14 -139 97q-53 73 -65 158q-1 12 -1 30q0 92 38 92q12 0 24 -27q9 -20 11 -37q1 -7 0 -20.5t0 -20.5
q3 -20 31 -57q39 -51 82 -67q32 -13 101 -13q166 0 166 93q0 9 -1 20q-12 81 -83 334q-15 53 -34 53q-33 0 -105.5 -26t-93.5 -26q-15 0 -29 11.5t-16 24.5t0 39.5t0 40.5q-3 19 67 34q62 14 208 33q134 19 184 19q26 0 35 -13q5 -9 8 -36z" />
    <glyph glyph-name="k" unicode="k" horiz-adv-x="739" 
d="M728 99q2 -24 -22 -24q-29 0 -131 18q-211 38 -306 38q-74 0 -39 1q-26 -1 -31 -12t-5 -27q0 -10 2.5 -28.5t2.5 -26.5q0 -39 -51 -39q-13 0 -31 24q-16 22 -18 37q-1 8 1 56q2 54 -9 133q-6 45 -20.5 135t-21.5 135q-2 16 -18 65q-12 40 -11 65q1 16 15 45q16 34 28 34
q59 0 62 -22q2 -16 0 -39q-4 -33 -4 -39q-2 -77 15 -199q8 -55 35 -55q13 0 28 18q78 92 155 186q128 153 148 153q11 0 30 -21.5t20 -31.5q2 -16 -15 -40q-33 -49 -72 -109q-45 -61 -130 -189q-12 -20 -9 -36q4 -30 43 -40q73 -18 148 -35q83 -21 144 -54q20 -9 48 -26
q13 -13 19 -50z" />
    <glyph glyph-name="l" unicode="l" horiz-adv-x="549" 
d="M536 285q5 -35 -21 -59q-20 -19 -99 -78q-62 -45 -182 -139q-45 -37 -57 -37q-17 0 -32 36q-9 25 -19 52q-10 17 -26 55q-19 52 -31 131q-7 51 -12 144q-1 19 -10 117q-7 72 -7 117q0 42 5 76q8 60 40 60q19 0 37 -26q15 -22 18 -44q3 -19 -8 -50q-12 -39 -14 -50
q-4 -30 -4 -75q0 -105 16 -209q18 -134 59 -134q51 0 176 80t149 80q6 0 14 -20q6 -18 8 -27z" />
    <glyph glyph-name="m" unicode="m" horiz-adv-x="792" 
d="M800 80q2 -13 2 -24q0 -63 -46 -63q-20 0 -33 24q-20 35 -37 95q-25 84 -30 99q-87 231 -119 234q-29 -12 -68 -187q-40 -183 -50 -194q-14 -14 -32 -14q-28 0 -43 23q-6 10 -28 77q-30 101 -47 152q-40 120 -55 134q-12 -19 -36 -148.5t-20 -154.5q1 -8 5 -22.5t5 -22.5
q4 -26 -4 -59q-10 -40 -30 -40q-41 0 -50 68q-7 44 3 102q13 81 26 161q14 92 17 162q2 49 4 97q2 58 12 95q3 19 20 42q20 26 36 26q12 0 24 -21q18 -37 37 -96q15 -49 31 -97l68 -191q14 -39 25 -39q25 0 54 174l36 216q5 20 20 38t33 18q15 0 29 -23q31 -58 64 -152
q54 -149 57 -155q34 -84 69 -168q43 -110 51 -166z" />
    <glyph glyph-name="n" unicode="n" horiz-adv-x="632" 
d="M591 52q5 -71 -26 -85q-22 1 -32.5 6t-25.5 23q-39 49 -113 164q-34 53 -127 167q-111 135 -134 135q-6 0 -2 -26q1 -12 6 -33q11 -80 45 -241q3 -13 17 -41.5t16 -45.5q4 -25 -3 -57q-9 -40 -28 -40q-34 0 -48 45q-3 10 -24 125q-29 158 -50 265q-8 48 -18 97
q-11 55 -25 95q-4 9 -8 27q-4 24 13 60t38 36q13 0 30 -18q51 -51 118 -144q48 -64 116 -144q38 -47 118 -138q27 -25 39 -25q17 0 17 65q0 67 -19 202q-2 22 -21 79q-16 47 -16 85q0 78 42 78q46 0 59 -89q8 -56 11 -149q4 -112 7 -148q10 -111 28 -330z" />
    <glyph glyph-name="o" unicode="o" horiz-adv-x="826" 
d="M780 449q5 -32 5 -64q0 -120 -62.5 -219t-175.5 -152q-98 -47 -202 -47q-117 0 -195.5 64t-95.5 182q-9 61 -9 113q0 204 143 321q49 41 152 78q97 34 169 39q12 1 48 -10q95 -26 158 -126q52 -80 65 -179zM713 415q-7 47 -44 103.5t-80 85.5q-19 10 -79 17
q-69 -9 -146 -32q-91 -27 -133 -60q-53 -40 -85 -103t-32 -134q0 -22 3 -43q11 -73 98 -111q72 -32 152 -26q145 11 238 71q111 71 111 192q0 20 -3 40z" />
    <glyph glyph-name="p" unicode="p" horiz-adv-x="657" 
d="M601 706v-19q-5 -162 -103 -272q-56 -63 -226 -177q-41 -27 -41 -70q0 -26 15 -69q17 -51 20 -70q4 -30 -16 -51t-50 -21q-13 0 -30 22.5t-19 37.5q-10 76 -24.5 228.5t-25 231t-51.5 78.5q-4 0 -11.5 -2t-11.5 -2q-24 0 -31 48q-1 10 -1 21q0 57 28 73q41 24 237 53
q183 28 259 28q22 0 52.5 -23t29.5 -45zM479 578q-2 14 -14 38.5t-20 24.5q-43 0 -132 -16q-95 -17 -118 -32q-18 -14 -18 -77q0 -38 6 -79q9 -71 39 -71q45 0 153.5 86t103.5 126z" />
    <glyph glyph-name="q" unicode="q" horiz-adv-x="805" 
d="M799 13q2 -12 -13 -26.5t-26 -14.5q-17 0 -53.5 31t-49.5 31q-16 0 -51 -17q-100 -53 -209 -53q-127 0 -214 67q-93 72 -111 197q-5 30 -5 60q0 114 60 217q54 94 147 166q128 97 253 97q21 0 29 -10q90 -22 148 -139q42 -86 58 -199q7 -44 7 -85q0 -86 -27 -162
q-15 -46 -13 -61q1 -10 34.5 -46.5t35.5 -52.5zM698 395q-14 109 -71 171q-20 22 -47 35q-45 20 -51 24q-109 -6 -212 -76q-68 -47 -118 -111q-63 -80 -63 -149q0 -53 38 -97q73 -84 229 -84q118 0 114 30q-3 24 -78 72q-94 60 -99 63q-16 15 -18 32q-5 34 15 63t54 29
q40 0 99 -49q27 -22 97 -92q49 -50 62 -50q19 0 38 50q23 57 11 139z" />
    <glyph glyph-name="r" unicode="r" horiz-adv-x="759" 
d="M759 107q4 -26 -29 -26q-38 0 -146 17q-131 20 -216 20q-7 0 -24 1.5t-27 1.5q-61 0 -61 -45q0 -25 13 -56q-2 -27 -25.5 -42.5t-52.5 -15.5q-14 0 -33 22.5t-22 36.5q-1 8 3 56q3 47 -8 127q-7 45 -20.5 135t-20 135.5t-24.5 59.5q-2 2 -30 13q-15 7 -19 32q-2 18 -2 34
q0 58 29 72q59 26 265 56q193 29 281 29q22 0 56 -27t34 -50q-2 -171 -252 -382q-35 -30 -33 -40q1 -9 40 -17l29 -6q199 -41 267 -86q22 -15 28 -55zM557 603q-2 15 -37 15q-44 0 -171 -17q-137 -20 -154 -33t-17 -71q0 -41 10 -116q5 -40 22 -40q45 0 198.5 112.5
t148.5 149.5z" />
    <glyph glyph-name="s" unicode="s" horiz-adv-x="692" 
d="M682 368q-2 -55 -14 -65q-17 -16 -35 -44q-16 -25 -31 -49q-8 -10 -78 -89q-75 -85 -227 -163q-11 -5 -20 -5q-31 0 -31 45q0 34 15 45q52 34 105 67q86 57 101 77q49 67 49 82q0 7 -13 4q-63 -8 -206 -30q-128 -22 -267 -20q-31 0 -32 47q-1 42 3 53q87 237 396 469
q11 8 24 -2q10 -9 15 -20q4 -15 4 -36q0 -65 -51 -92q-200 -158 -278 -288q102 5 270 33q200 32 268 39q19 2 27 -14t6 -44z" />
    <glyph glyph-name="t" unicode="t" horiz-adv-x="561" 
d="M499 710q4 -52 -24 -66q-14 -7 -69 -11q-48 -4 -70 -24q-18 -14 -18 -97q0 -50 7 -123q24 -251 53 -320q5 -10 5 -16q3 -32 -15.5 -56t-50.5 -24q-15 0 -31 21.5t-18 37.5q0 8 3 56q3 23 3 51q0 30 -15 197q-19 198 -40 227q-12 17 -29 17q-22 0 -67.5 -12.5t-60.5 -12.5
q-45 0 -54 96q-2 20 -2 27q0 37 31 37q13 0 38.5 -2t37.5 -2q97 0 300 41q33 7 49 7q32 0 37 -49z" />
    <glyph glyph-name="u" unicode="u" horiz-adv-x="619" 
d="M587 185q3 -21 3 -39q0 -68 -52 -98.5t-165 -57.5q-108 -25 -177 -25q-43 0 -63 28q-14 21 -21.5 70t-26.5 269q-3 25 -21 163q-11 100 -13 162q0 25 10 53q12 36 32 36q12 0 28 -27q13 -24 15 -38.5t2 -30.5q0 -15 -3 -50t-2 -53q7 -163 38 -382q7 -52 48 -52
q38 0 183 30q60 11 81 29.5t21 57.5q0 21 -8 76q-5 35 -16 104t-16 104q-6 47 -12 70q-4 13 -18 44q-13 28 -16 45q-3 23 17 58.5t43 35.5q29 0 43 -103z" />
    <glyph glyph-name="v" unicode="v" horiz-adv-x="570" 
d="M510 665q2 -13 2 -25q0 -38 -17 -87q-27 -79 -55 -158q-30 -91 -44 -163q-9 -48 -17 -98q-12 -61 -27 -92q-7 -13 -23.5 -26t-29.5 -13q-16 0 -39 48l-28 62q-63 135 -128 271q-91 198 -100 258q-1 7 -1 16q0 69 37 69q29 0 46 -39l20 -62q25 -70 90 -207
q79 -168 103 -168q8 0 17 21q16 34 32 87q12 44 27.5 90t45.5 142q-3 19 -3 34q0 50 29 73q20 15 34 15q22 0 29 -48z" />
    <glyph glyph-name="w" unicode="w" horiz-adv-x="807" 
d="M731 679q6 -45 -4 -107q-19 -109 -27 -164q-13 -93 -15 -168q-1 -51 -1 -101q-2 -61 -13 -100q-5 -18 -21 -35t-34 -17q-15 0 -28 27q-18 36 -36 92q-16 47 -31 95q-23 63 -67 188q-16 45 -29 45q-12 0 -18 -28q-15 -56 -41 -171q-7 -60 -29 -177q-6 -21 -24 -41
q-19 -25 -39 -25q-14 0 -26 21q-27 48 -127 321.5t-106 320.5q-2 12 -2 23q0 62 43 62q27 0 43 -25q9 -16 44 -118q21 -66 43 -131q68 -195 94 -195q6 0 14 19q11 39 33 116q15 48 28 96q14 53 15 101q1 24 13 49q14 32 35 32q33 0 48 -14q35 -111 112 -332q14 -35 23 -35
q10 0 16 30q3 21 5 41q9 58 17 115q9 68 9 115q0 29 -2.5 55t-2.5 35q0 47 37 47q43 0 51 -62z" />
    <glyph glyph-name="x" unicode="x" horiz-adv-x="610" 
d="M615 131q4 -27 -7 -56q-12 -34 -37 -34q-9 0 -17 7q-20 16 -34 55t-51 82q-135 158 -160 158q-22 0 -71 -88q-32 -58 -56 -113q-6 -15 -17 -68q-10 -46 -20 -61q-15 -21 -39 -21q-30 0 -37 44q-6 47 36 136q4 9 81 149q43 80 40 107q-3 21 -84.5 93.5t-87.5 114.5
q-4 24 1 52q6 39 25 39q9 0 96.5 -91t111.5 -91t73.5 96.5t66.5 96.5q23 0 30 -47q6 -44 -44 -124t-46 -111q3 -20 27 -45q19 -17 39 -36q170 -173 181 -244z" />
    <glyph glyph-name="y" unicode="y" horiz-adv-x="541" 
d="M555 684q5 -38 -6 -68q-10 -24 -70 -131q-101 -180 -155 -334q-5 -15 -7.5 -62.5t-10.5 -67.5q-14 -30 -48 -30q-29 0 -35 47q-1 9 -1 17q0 30 21 88q20 52 16 78q-4 25 -31 61q-103 134 -135 179q-94 133 -101 184q-4 24 3 54q9 37 29 37q10 0 24 -16q61 -102 124 -203
q98 -157 142 -157q16 0 31 31l58 118q34 70 53 122q6 33 12 65q9 44 36 44q42 0 51 -56z" />
    <glyph glyph-name="z" unicode="z" horiz-adv-x="691" 
d="M667 130q12 -79 -161 -104q-74 -10 -235 -10q-49 0 -74 -4q-46 -7 -42 -7q-17 0 -33 39q-12 28 -15 54q-1 6 -1 14q0 68 78 175q33 47 142 173q75 87 73 106q-3 27 -68 27q-52 0 -166 -21q-59 -10 -67 -10q-26 0 -32 38q-1 7 -1 15q0 51 31 63q55 21 191 36
q115 13 202 13q85 0 92 -50q8 -55 -19 -92l-186 -212q-147 -168 -141 -209q5 -32 74 -32h64q130 0 210 20q39 10 56 10q24 0 28 -32z" />
    <glyph glyph-name="braceleft" unicode="{" horiz-adv-x="790" 
d="M608 672q3 -22 -3 -50q-7 -36 -26 -36q-33 0 -140 81q-23 18 -64 42q-50 29 -65 40q-22 14 -25 38q-3 22 5 42q9 25 27 25q26 0 138 -69q44 -20 128 -67q21 -13 25 -46zM521 409q0 -69 -34 -69h-64q-43 -1 -65 -1q-255 0 -293 18q-22 11 -26 41q-4 24 5 46q10 27 31 27
q27 0 80.5 -4.5t79.5 -4.5q44 0 130 4.5t129 4.5q17 0 25 -31q2 -14 2 -31zM661 199q1 -7 1 -13q0 -35 -23 -56q-38 -29 -113 -90q-33 -35 -103 -100q-9 -6 -15 -6q-18 0 -23 37q-9 59 12 88q16 21 47 54q38 39 50 54q85 103 115 103q20 0 37 -27q12 -21 15 -44z" />
    <glyph glyph-name="bar" unicode="|" horiz-adv-x="265" 
d="M251 -41q4 -32 -14 -54.5t-50 -22.5q-14 0 -31 23.5t-19 37.5q-1 8 1 59q2 46 -10 123q-7 49 -35.5 244.5t-34.5 244.5q-3 20 -15 57.5t-15 57.5q-4 27 11 62q16 39 40 39q51 0 54 -22q2 -13 0 -40q-2 -35 -2 -41q0 -99 27 -300q38 -266 70 -389q9 -25 23 -79z" />
    <glyph glyph-name="braceright" unicode="}" horiz-adv-x="808" 
d="M397 820q3 -18 1 -47q-2 -32 -11 -44q-22 -31 -105 -117q-91 -93 -109 -93q-19 0 -35 27q-13 20 -16 43q-1 8 -1 15q0 33 25 55q38 28 111 89q33 35 103 101q9 6 15 6q18 0 22 -35zM745 390q3 -24 -5 -45q-11 -27 -32 -27q-25 0 -77 3.5t-77 3.5q-44 0 -132 -4t-132 -4
q-22 0 -28 44q-1 8 -1 18q0 69 35 69h75q314 0 348 -17q22 -12 26 -41zM498 2q3 -21 -5 -42q-10 -25 -28 -25q-24 0 -138 69q-44 19 -128 67q-19 14 -24 47q-3 22 3 49q8 35 26 35q33 0 140 -81q22 -17 64 -42q50 -28 67 -40q20 -14 23 -37z" />
    <glyph glyph-name="asciitilde" unicode="~" horiz-adv-x="689" 
d="M615 484q10 -67 -24 -87l-100 -52q-57 -32 -92 -65q-12 -12 -25 -26q-20 -20 -28 -20q-20 0 -37.5 77.5t-34.5 77.5q-40 0 -89 -51q-42 -43 -63 -87q-14 -28 -25 -28q-19 0 -25 45q-6 40 0 60q21 69 96 128q35 28 69 58q58 46 66 46q19 0 35.5 -74.5t34.5 -74.5
q5 0 93.5 58.5t120.5 58.5q22 0 28 -44z" />
    <glyph glyph-name="cent" unicode="&#xa2;" horiz-adv-x="726" 
d="M699 254q9 -65 -13 -88q-51 -54 -185 -74q-54 -8 -52 -21q1 -8 7.5 -21.5t7.5 -20.5q4 -31 -14 -57.5t-49 -26.5q-14 0 -33 30q-16 26 -19 43q-3 25 -6 35q-6 26 -14 30q-17 5 -53 14q-94 24 -141 66q-54 49 -67 140q-3 19 -3 39q0 79 52 141q29 36 96 84q54 38 55 56
q2 17 -5 43q-9 36 -9 42q-4 27 9 69q13 48 37 48q53 0 56 -25q3 -21 0.5 -60.5t-0.5 -58.5q4 -34 34 -42l62 -8q42 -7 67 -33q10 -11 13 -36q4 -23 -2 -52q-7 -38 -25 -38l-39 18.5t-60 18.5q-29 0 -29 -49q0 -15 6 -59q8 -54 23 -103q26 -79 57 -79q5 0 12 2q127 24 186 64
q9 7 15 7q18 0 23 -38zM332 262l-16 114q-12 88 -34 88q-36 0 -94.5 -52.5t-53.5 -87.5q5 -32 68 -68q59 -33 94 -33q17 0 28 11t8 28z" />
    <glyph glyph-name="sterling" unicode="&#xa3;" 
 />
    <glyph glyph-name="yen" unicode="&#xa5;" 
 />
    <glyph glyph-name="copyright" unicode="&#xa9;" horiz-adv-x="826" 
d="M780 449q5 -32 5 -64q0 -120 -62.5 -219t-175.5 -152q-98 -47 -202 -47q-117 0 -195.5 64t-95.5 182q-9 61 -9 113q0 204 143 321q49 41 152 78q97 34 169 39q12 1 48 -10q95 -26 158 -126q52 -80 65 -179zM713 415q-7 47 -44 103.5t-80 85.5q-19 10 -79 17
q-69 -9 -146 -32q-91 -27 -133 -60q-53 -40 -85 -103t-32 -134q0 -22 3 -43q11 -73 98 -111q72 -32 152 -26q145 11 238 71q111 71 111 192q0 20 -3 40zM586 298q3 -26 -6 -40q-20 -32 -105 -60q-77 -25 -126 -25q-99 0 -99 107q0 53 30 114q27 51 65 91q84 86 141 86
q47 0 57 -69q1 -14 -1 -29q-4 -22 -15 -22q-8 0 -15 24.5t-20 24.5q-15 0 -49 -17q-55 -30 -99 -81q-50 -57 -58 -114q-1 -6 0 -11q5 -34 65 -34q76 0 158 32q21 9 55 36q5 3 9 3q10 0 13 -16z" />
    <glyph glyph-name="registered" unicode="&#xae;" horiz-adv-x="826" 
d="M780 449q5 -32 5 -64q0 -120 -62.5 -219t-175.5 -152q-98 -47 -202 -47q-117 0 -195.5 64t-95.5 182q-9 61 -9 113q0 204 143 321q49 41 152 78q97 34 169 39q12 1 48 -10q95 -26 158 -126q52 -80 65 -179zM713 415q-7 47 -44 103.5t-80 85.5q-19 10 -79 17
q-69 -9 -146 -32q-91 -27 -133 -60q-53 -40 -85 -103t-32 -134q0 -22 3 -43q11 -73 98 -111q72 -32 152 -26q145 11 238 71q111 71 111 192q0 20 -3 40zM607 230q2 -12 -13 -12q-19 0 -72 8q-62 10 -103 10q-38 0 -35 0q-20 -3 -20 -20q0 -13 6 -29q-2 -27 -37 -27
q-7 0 -16.5 11t-10.5 17q0 4 2 28q1 22 -4 61q-3 22 -10 65.5t-10 65.5q-5 29 -19.5 33.5t-16.5 17.5q-6 42 14 51q28 12 128 27q93 14 135 14q11 0 27.5 -13t16.5 -24q-1 -82 -122 -185q-16 -15 -16 -19q1 -5 19 -8l15 -3q97 -21 130 -42q9 -7 12 -27zM510 470q-1 8 -19 8
q-20 0 -82 -9q-66 -9 -74.5 -15.5t-8.5 -34.5q0 -20 5 -57q3 -18 11 -18q21 0 96 54t72 72z" />
    <glyph glyph-name="Thorn" unicode="&#xde;" 
 />
    <glyph glyph-name="thorn" unicode="&#xfe;" 
 />
    <glyph glyph-name="gcedilla" unicode="&#x123;" 
 />
    <glyph glyph-name="Eng" unicode="&#x14a;" 
 />
    <glyph glyph-name="eng" unicode="&#x14b;" 
 />
    <glyph glyph-name="quoteleft" unicode="&#x2018;" horiz-adv-x="359" 
d="M296 437q3 -22 -4 -51q-9 -35 -27 -35q-1 0 -6 1q-189 42 -189 276q0 84 28 138q34 67 103 67q39 0 45 -38q2 -16 2 -30q0 -65 -42 -65q-35 0 -56 -20t-21 -53q0 -8 1 -15q8 -57 49 -85q36 -17 72 -35q40 -19 45 -55z" />
    <glyph glyph-name="quoteright" unicode="&#x2019;" horiz-adv-x="359" 
d="M299 558q0 -84 -28 -138q-34 -67 -103 -67q-39 0 -45 38q-2 15 -2 30q0 64 42 64q35 0 56 20t21 54q0 7 -1 14q-8 58 -49 85q-36 18 -72 35q-40 20 -45 55q-3 23 4 52q9 35 27 35q1 0 6 -1q189 -42 189 -276z" />
    <glyph glyph-name="quotedblleft" unicode="&#x201c;" horiz-adv-x="710" 
d="M627 428q4 -23 -4 -52q-8 -35 -26 -35q-2 0 -6 1q-190 42 -190 276q0 84 28 138q34 67 103 67q40 0 45 -38q3 -15 3 -30q0 -65 -43 -65q-35 0 -56 -20t-21 -53q0 -8 1 -14q9 -58 49 -85q37 -18 74.5 -36.5t42.5 -53.5zM321 420q3 -23 -4 -51q-8 -35 -27 -35q-1 0 -5 1
q-189 42 -189 275q0 85 27 139q34 67 104 67q39 0 44 -38q2 -15 2 -30q0 -64 -42 -64q-35 0 -56 -20.5t-21 -54.5q0 -6 1 -14q8 -57 49 -85q36 -17 74 -35.5t43 -54.5z" />
    <glyph glyph-name="quotedblright" unicode="&#x201d;" horiz-adv-x="710" 
d="M605 565q0 -85 -27 -138q-34 -68 -103 -68q-39 0 -45 38q-2 16 -2 31q0 64 42 64q35 0 56 20.5t21 53.5q0 7 -1 15q-8 57 -49 85q-36 17 -74 35.5t-43 54.5q-3 22 4 51q9 35 27 35q1 0 5 -1q189 -42 189 -276zM300 558q0 -84 -28 -138q-34 -67 -103 -67q-40 0 -45 38
q-3 15 -3 30q0 64 43 64q35 0 56 20t21 54q0 7 -1 14q-9 58 -49 85q-37 18 -73 35q-39 20 -44 55q-4 23 4 52q8 35 26 35q2 0 6 -1q190 -42 190 -276z" />
    <glyph glyph-name="ellipsis" unicode="&#x2026;" horiz-adv-x="1129" 
d="M1022 136q3 -25 -2 -49q-7 -31 -25 -36q-24 -8 -130 -53q-5 -2 -9 -2q-38 0 -46 57q-2 13 -2 26q0 49 34 71q28 18 88 22q16 1 27.5 5t29.5 4q29 0 35 -45zM693 119q4 -24 -2 -49q-7 -30 -25 -36q-50 -13 -158 -53q-6 -2 -10 -2q-38 0 -46 57q-2 14 -2 26q0 49 33 72
q29 18 88 21q16 1 43 5q25 4 44 4q29 0 35 -45zM316 103q3 -24 -3 -49q-6 -31 -25 -36q-57 -18 -139 -53q-4 -2 -9 -2q-38 0 -46 57q-2 14 -2 26q0 49 33 71q28 19 89 22q16 1 32 4.5t34 3.5q30 0 36 -44z" />
    <glyph glyph-name="trademark" unicode="&#x2122;" horiz-adv-x="1118" 
d="M1026 320q2 -9 2 -19q0 -48 -36 -48q-15 0 -26 18q-15 27 -29 75q-19 64 -23 76q-67 180 -92 182q-23 -9 -53 -145q-32 -143 -40.5 -152.5t-23.5 -9.5q-21 0 -33 18q-5 7 -22 60q-23 78 -37 117q-31 94 -43 105q-8 -15 -27 -115.5t-16 -120.5q1 -6 4 -17.5t4 -17.5
q3 -19 -3 -45q-8 -32 -24 -32q-31 0 -38 53q-5 34 2 80q10 62 20 125q11 71 14 126q1 38 2 75q3 45 10 74q3 15 17 34t27 19q9 0 18 -18q14 -28 28 -73q13 -38 25 -76l53 -148q10 -31 19 -31q20 0 42 136q14 84 27 168q13 43 42 43q12 0 23 -19q24 -44 51 -117
q41 -116 43 -120q26 -65 53 -131q35 -86 40 -129zM466 810q4 -40 -20 -52q-9 -5 -51 -8q-39 -3 -56 -19q-13 -11 -13 -75q0 -39 5 -96q18 -195 41 -248q4 -8 4 -13q2 -25 -12 -44t-39 -19q-13 0 -25.5 17.5t-13.5 29.5q0 6 3 43q2 19 2 39q0 24 -12 155q-13 154 -31 176
q-9 13 -22 13q-17 0 -52.5 -10t-47.5 -10q-35 0 -42 76q-5 48 23 48q10 0 29.5 -1t29.5 -1q75 0 233 32q27 5 38 5q25 0 29 -38z" />
    <glyph glyph-name="glyph114" horiz-adv-x="325" 
 />
    </font>
</defs>
</svg>
